<?xml version="1.0" encoding="UTF-8" standalone="no"?>
<!-- Created with Inkscape (http://www.inkscape.org/) -->

<svg
   width="204.895mm"
   height="17.679049mm"
   viewBox="0 0 204.895 17.679049"
   version="1.1"
   id="svg1"
   xml:space="preserve"
   inkscape:version="1.3 (0e150ed, 2023-07-21)"
   sodipodi:docname="elliptic.svg"
   xmlns:inkscape="http://www.inkscape.org/namespaces/inkscape"
   xmlns:sodipodi="http://sodipodi.sourceforge.net/DTD/sodipodi-0.dtd"
   xmlns="http://www.w3.org/2000/svg"
   xmlns:svg="http://www.w3.org/2000/svg"><sodipodi:namedview
     id="namedview1"
     pagecolor="#ffffff"
     bordercolor="#000000"
     borderopacity="0.25"
     inkscape:showpageshadow="2"
     inkscape:pageopacity="0.0"
     inkscape:pagecheckerboard="0"
     inkscape:deskcolor="#d1d1d1"
     inkscape:document-units="mm"
     inkscape:zoom="1.0280428"
     inkscape:cx="484.41564"
     inkscape:cy="732.94615"
     inkscape:window-width="1581"
     inkscape:window-height="871"
     inkscape:window-x="26"
     inkscape:window-y="23"
     inkscape:window-maximized="0"
     inkscape:current-layer="layer1"
     inkscape:export-bgcolor="#ffffff00" /><defs
     id="defs1" /><g
     inkscape:label="Layer 1"
     inkscape:groupmode="layer"
     id="layer1"
     transform="translate(-1.2170756,-85.573571)"><rect
       style="fill:#e2e4ff;fill-opacity:1;stroke:#b6c3ef;stroke-width:0.54827;stroke-linecap:round;stroke-linejoin:round;stroke-dasharray:none;stroke-opacity:1"
       id="rect5-6"
       width="204.34674"
       height="17.130774"
       x="1.4912106"
       y="85.84771" /><path
       style="fill:#0e0c20;fill-opacity:1;stroke:#b6c3ef;stroke-width:0.132071;stroke-linecap:round;stroke-linejoin:round;stroke-dasharray:none;stroke-opacity:1"
       id="path50"
       d="m 114.22318,98.022415 c -0.22347,-0.687258 -0.4542,-1.364176 -0.68464,-2.040865 -0.31507,-0.960959 -0.65405,-1.883156 -0.98393,-2.8202 -0.10404,-0.296296 -0.1933,-0.614027 -0.28841,-0.923239 -0.0206,-0.06665 -0.0373,-0.140489 -0.0629,-0.198139 -0.032,-0.07154 -0.10643,-0.08625 -0.14309,-0.10296 -0.42533,-0.151672 -0.85936,-0.08488 -1.28686,-0.02283 -0.53539,0.07752 -0.67892,0.115517 -1.22847,0.22783 -1.18524,0.263405 -2.36921,0.552746 -3.55484,0.808352 -0.47058,0.102028 -0.94253,0.172308 -1.41527,0.202612 -0.0177,0.07538 -0.11742,-0.03876 -0.14859,0.04535 -0.006,0.01532 0.0222,0.0061 0.0236,0.02559 0.003,0.03371 -0.009,0.06588 -0.0136,0.09867 -0.0582,0.401855 -0.0102,0.04857 -0.077,0.559993 -0.13088,0.971805 -0.27582,1.933636 -0.46245,2.862883 -0.16101,0.671096 -0.37105,1.278151 -0.56587,1.904191 -0.0764,0.245019 -0.12798,0.520066 -0.16705,0.801611 -0.005,-0.158674 -0.0131,0.176981 -0.0114,0.132368 0.002,-0.03662 0.003,-0.07338 0.003,-0.110149 -0.009,-0.04151 -0.0271,-0.07905 -0.0259,-0.124249 5.8e-4,-0.02084 0.0195,6.9e-4 0.0291,0.0031 0.04,0.01225 0.0796,0.02758 0.11959,0.04121 0.63749,0.115823 1.27686,0.19483 1.91596,0.261076 0.89041,0.113984 1.78156,0.04933 2.6721,-0.01068 0.68662,-0.03922 1.3728,-0.102641 2.05913,-0.157832 0.48152,-0.03554 0.96339,-0.03232 1.4444,-0.09423 0.45945,-0.07047 0.91551,-0.210042 1.37019,-0.364228 0.25037,-0.08349 0.5016,-0.156926 0.75357,-0.214302 0.22679,-0.07277 0.45531,-0.102494 0.68426,-0.118273 0.0487,-0.0015 0.0973,-0.0031 0.14601,-0.0061 0.0872,-0.0031 0.17451,-0.0045 0.26173,-0.0092 0.0324,-0.0015 0.065,0.0015 0.097,-0.0076 0.0102,-0.0031 0.0387,-0.02987 0.0285,-0.02758 -0.0196,0.0031 -0.038,0.02267 -0.0568,0.03401 -0.0173,0.05867 -0.0346,0.117201 -0.0519,0.175848 -0.003,0.0076 -0.006,0.03048 -0.0102,0.02406 -0.0123,-0.01946 -0.0181,-0.05499 -0.0277,-0.0815 -0.0137,-0.03876 -0.0286,-0.07676 -0.0436,-0.114137 -0.0396,-0.09851 -0.0809,-0.193651 -0.12119,-0.290797 -0.0818,-0.174086 -0.16192,-0.348096 -0.23165,-0.545224 -0.15288,-0.454648 0.14648,-0.919042 0.29938,-0.464408 v 0 c 0.0562,0.184703 0.13588,0.324441 0.20477,0.486593 0.0906,0.21709 0.30239,0.661244 0.30058,0.965447 -8.5e-4,0.135279 -0.0329,0.261075 -0.0495,0.39159 -0.0416,0.06235 -0.0786,0.141101 -0.1244,0.186863 -0.0536,0.05331 -0.15229,0.04519 -0.20916,0.04642 -0.13283,0.0031 -0.26582,6.89e-4 -0.39864,0.01225 -0.22061,0.01884 -0.44077,0.05147 -0.65937,0.120879 -0.24646,0.05407 -0.49249,0.118733 -0.738,0.189742 -0.46592,0.145852 -0.93288,0.277719 -1.4021,0.365109 -0.48409,0.0643 -0.96908,0.0441 -1.45369,0.0836 -0.68692,0.0481 -1.37393,0.08 -2.06102,0.11597 -0.89895,0.0605 -1.79837,0.13038 -2.69735,0.0202 -0.38672,-0.0349 -0.77302,-0.0794 -1.15957,-0.12073 -0.19262,-0.0207 -0.38549,-0.0297 -0.57802,-0.0535 -0.0728,-0.009 -0.14531,-0.0239 -0.21796,-0.0357 -0.0906,-0.029 -0.23245,-0.0455 -0.31492,-0.169689 -0.13073,-0.197051 -0.1441,-0.477461 -0.0987,-0.772411 0.0528,-0.353519 0.11868,-0.701093 0.21878,-1.006276 0.18728,-0.580184 0.39057,-1.139104 0.54455,-1.764667 0.18165,-0.894224 0.32115,-1.822106 0.43942,-2.763853 0.0387,-0.31678 0.0757,-0.780406 0.18391,-1.030099 0.10768,-0.248604 0.22416,-0.278051 0.36991,-0.273945 0.46475,-0.0092 0.92912,-0.05501 1.39247,-0.134054 1.1867,-0.204772 2.37075,-0.4717 3.55373,-0.758269 0.579,-0.132521 0.67529,-0.161125 1.23724,-0.265503 0.47012,-0.08733 0.9492,-0.196132 1.41785,-0.01869 0.0672,0.0527 0.13942,0.08273 0.20182,0.158214 0.11256,0.136198 0.13865,0.255652 0.20026,0.465511 0.087,0.296481 0.16973,0.599274 0.26643,0.882258 0.32538,0.945331 0.65651,1.88144 0.97801,2.833007 0.23369,0.666531 0.4637,1.338975 0.70247,1.997233 0.15975,0.447801 -0.13513,0.932984 -0.29487,0.485167 z"
       inkscape:export-filename="petition.svg"
       inkscape:export-xdpi="96"
       inkscape:export-ydpi="96" /><path
       style="fill:#0e0c20;fill-opacity:1;stroke:#b6c3ef;stroke-width:0.132071;stroke-linecap:round;stroke-linejoin:round;stroke-dasharray:none;stroke-opacity:1"
       id="path51"
       d="m 111.61787,93.470165 c -0.0356,-0.0045 -0.0467,-0.0092 -0.0881,-0.0015 -0.1267,0.019 -0.25287,0.05178 -0.37948,0.07369 -0.39887,0.06864 -0.55162,0.08549 -0.98195,0.145085 -0.97919,0.14968 -1.9568,0.342013 -2.93396,0.543079 -0.20326,0.03003 -0.22306,-0.587309 -0.0198,-0.617384 v 0 c 0.9785,-0.08824 1.95668,-0.217595 2.92929,-0.471822 0.45012,-0.124096 0.55462,-0.142481 0.9632,-0.287243 0.0818,-0.02895 0.16323,-0.06389 0.24486,-0.09591 0.0492,-0.02007 0.0983,-0.04243 0.14754,-0.06021 0.0618,-0.02222 0.0711,-0.02206 0.11843,-0.02864 0.26381,0 0.26381,0.801274 0,0.801274 z" /><path
       style="fill:#0e0c20;fill-opacity:1;stroke:#b6c3ef;stroke-width:0.132071;stroke-linecap:round;stroke-linejoin:round;stroke-dasharray:none;stroke-opacity:1"
       id="path52"
       d="m 111.73695,94.76854 c -0.0572,0.0061 -0.11444,0.01068 -0.17162,0.019 -0.32395,0.04718 -0.55835,0.09468 -0.89521,0.165124 -0.71307,0.148914 -1.42447,0.324303 -2.13592,0.504976 -0.81612,0.219527 -1.63473,0.396769 -2.45576,0.503874 -0.29782,0.0337 -0.59593,0.01532 -0.8939,0.01225 -0.25054,-0.01379 -0.24141,-0.774831 0.009,-0.760951 v 0 c 0.2906,0.0288 0.58152,0.0501 0.87243,0.05255 0.20235,-0.0061 0.33018,-0.0092 0.53758,-0.02436 0.63627,-0.04826 1.27131,-0.153358 1.90525,-0.277331 0.22881,-0.04963 0.45789,-0.09407 0.68643,-0.149067 0.83672,-0.201112 1.67058,-0.467657 2.49612,-0.823934 0.25637,-0.06909 0.30185,0.709628 0.0456,0.778677 z" /><path
       style="fill:#0e0c20;fill-opacity:1;stroke:#b6c3ef;stroke-width:0.132071;stroke-linecap:round;stroke-linejoin:round;stroke-dasharray:none;stroke-opacity:1"
       id="path53"
       d="m 111.38626,96.364761 c -0.032,-1.69e-4 -0.0642,-0.0031 -0.0962,-8.28e-4 -0.82715,0.05423 -1.65139,0.247026 -2.47413,0.426184 -0.15857,0.03493 -0.31713,0.06986 -0.4757,0.104787 -0.19465,0.03478 -0.2176,-0.556392 -0.0229,-0.59123 v 0 c 0.15823,-0.02175 0.31647,-0.04351 0.47472,-0.06526 0.18725,-0.034 0.37469,-0.06389 0.56176,-0.102346 0.36736,-0.07537 0.81141,-0.184366 1.17868,-0.28784 0.59982,-0.168983 0.2688,-0.08273 0.73191,-0.239994 0.0404,-0.01379 0.0812,-0.02314 0.12179,-0.03478 0.26044,0 0.26044,0.790995 0,0.790995 z" /><path
       style="fill:#0e0c20;fill-opacity:1;stroke:#b6c3ef;stroke-width:0.132071;stroke-linecap:round;stroke-linejoin:round;stroke-dasharray:none;stroke-opacity:1"
       id="path54"
       d="m 112.5219,97.598316 c -0.377,0.0478 -0.75479,0.06189 -1.13217,0.09423 -0.14447,0.01379 -0.28883,0.0268 -0.43324,0.03998 -0.24873,0.0092 -0.25435,-0.746917 -0.006,-0.75545 v 0 c 0.14314,0.0031 0.2863,0.0061 0.42945,0.0015 0.21954,-0.0076 0.4387,-0.01991 0.6578,-0.05239 0.11798,-0.01747 0.2235,-0.03631 0.3393,-0.0743 0.0258,-0.0092 0.051,-0.02206 0.0765,-0.03324 0.25655,-0.103107 0.32448,0.676044 0.0679,0.779197 z" /><path
       style="fill:#0e0c20;fill-opacity:1;stroke:#b6c3ef;stroke-width:0.132071;stroke-linecap:round;stroke-linejoin:round;stroke-dasharray:none;stroke-opacity:1"
       id="path55"
       d="m 110.14833,98.106678 c -0.0584,-0.01823 -0.054,-0.02038 -0.13765,-0.01068 -0.19307,0.02175 -0.36189,0.06665 -0.55659,0.120265 -0.12141,0.03355 -0.77419,0.229331 -0.87552,0.25962 -0.58443,0.176353 -0.3018,0.08932 -0.84791,0.260447 -0.20512,0.05761 -0.24305,-0.565415 -0.0379,-0.62302 v 0 c 0.54514,-0.135433 0.26357,-0.05975 0.84458,-0.229378 0.588,-0.202444 0.31347,-0.101732 0.87178,-0.316827 0.0412,-0.01593 0.49679,-0.193435 0.5792,-0.219679 0.12956,-0.04122 0.11488,-0.03646 0.20867,-0.03202 0.26066,0.07385 0.21202,0.865544 -0.0486,0.791683 z" /><path
       style="fill:#0e0c20;fill-opacity:1;stroke:#b6c3ef;stroke-width:0.132071;stroke-linecap:round;stroke-linejoin:round;stroke-dasharray:none;stroke-opacity:1"
       id="path56"
       d="m 105.99503,94.60308 c -0.0893,-0.01686 -0.17887,-0.02604 -0.26845,-0.03294 -0.25546,-0.0239 -0.2398,-0.799711 0.0157,-0.775918 v 0 c 0.0842,0.0092 0.16845,0.01931 0.25277,0.017 0.26071,0 0.26071,0.791836 0,0.791836 z" /><path
       style="fill:#0e0c20;fill-opacity:1;stroke:#b6c3ef;stroke-width:0.132071;stroke-linecap:round;stroke-linejoin:round;stroke-dasharray:none;stroke-opacity:1"
       id="path57"
       d="m 107.21163,97.122325 c -0.21514,0.05041 -0.43191,0.05133 -0.64781,0.07936 -0.0783,0.01068 -0.15635,0.02328 -0.23453,0.03493 -0.23035,0.03523 -0.25355,-0.664417 -0.0232,-0.699639 v 0 c 0.27445,-0.04321 0.19252,-0.02711 0.46486,-0.08242 0.11889,-0.02406 0.18841,-0.034 0.30025,-0.07553 0.0235,-0.0092 0.0466,-0.02191 0.0699,-0.03294 0.25555,-0.107241 0.32614,0.668982 0.0705,0.776194 z" /><path
       style="fill:#0e0c20;fill-opacity:1;stroke:#b6c3ef;stroke-width:0.132071;stroke-linecap:round;stroke-linejoin:round;stroke-dasharray:none;stroke-opacity:1"
       id="path58"
       d="m 106.49866,98.730879 c -0.35866,-0.04673 -0.71815,-0.04259 -1.07726,-0.03646 -0.22436,0 -0.22436,-0.681422 0,-0.681422 v 0 c 0.35911,0.0061 0.7186,0.01068 1.07726,-0.03646 0.24836,0 0.24836,0.754363 0,0.754363 z" /></g></svg>
