<?xml version="1.0" encoding="UTF-8" standalone="no"?>
<!-- Created with Inkscape (http://www.inkscape.org/) -->

<svg
   width="204.895mm"
   height="33.019829mm"
   viewBox="0 0 204.895 33.019829"
   version="1.1"
   id="svg1"
   xml:space="preserve"
   inkscape:version="1.3 (0e150ed, 2023-07-21)"
   sodipodi:docname="elliptic.svg"
   xmlns:inkscape="http://www.inkscape.org/namespaces/inkscape"
   xmlns:sodipodi="http://sodipodi.sourceforge.net/DTD/sodipodi-0.dtd"
   xmlns="http://www.w3.org/2000/svg"
   xmlns:svg="http://www.w3.org/2000/svg"><sodipodi:namedview
     id="namedview1"
     pagecolor="#ffffff"
     bordercolor="#000000"
     borderopacity="0.25"
     inkscape:showpageshadow="2"
     inkscape:pageopacity="0.0"
     inkscape:pagecheckerboard="0"
     inkscape:deskcolor="#d1d1d1"
     inkscape:document-units="mm"
     inkscape:zoom="1.0280428"
     inkscape:cx="484.41564"
     inkscape:cy="732.94615"
     inkscape:window-width="1581"
     inkscape:window-height="871"
     inkscape:window-x="26"
     inkscape:window-y="23"
     inkscape:window-maximized="0"
     inkscape:current-layer="layer1"
     inkscape:export-bgcolor="#ffffff00" /><defs
     id="defs1" /><g
     inkscape:label="Layer 1"
     inkscape:groupmode="layer"
     id="layer1"
     transform="translate(-1.4404179,-127.7613)"><rect
       style="fill:#e2e4ff;fill-opacity:1;stroke:#b6c3ef;stroke-width:0.752096;stroke-linecap:round;stroke-linejoin:round;stroke-dasharray:none;stroke-opacity:1"
       id="rect5-6-6-9"
       width="204.14291"
       height="32.267738"
       x="1.816466"
       y="128.13734" /><path
       style="fill:#0e0c20;fill-opacity:1;stroke:#b6c3ef;stroke-width:0.452211;stroke-linecap:round;stroke-linejoin:round;stroke-dasharray:none;stroke-opacity:1"
       id="path26"
       d="m 64.74869,136.05242 c -0.01865,0.70803 -0.07106,1.41751 -0.05071,2.12575 0.05545,0.64263 0.102414,1.28771 0.232414,1.92048 0.125965,0.60616 0.124769,1.22762 0.183844,1.84148 0.02375,0.15075 0.02934,0.30339 0.04797,0.45465 0.04391,0.35746 0.179625,0.74613 -0.157656,1.06871 -0.250147,0.23924 -0.63856,0.26734 -0.957836,0.40102 -0.16619,-0.0487 -0.336306,-0.0855 -0.498549,-0.14601 -0.07901,-0.0294 -0.580598,-0.29052 -0.661515,-0.33285 -0.321546,-0.16825 -0.64122,-0.33314 -0.970648,-0.48555 -0.548169,-0.27058 -1.13713,-0.36744 -1.740586,-0.39483 -0.352515,0.0102 -0.735053,0.0386 -1.057148,0.19717 0.257868,0.061 0.249664,-0.2436 0.406061,-0.31198 0.03425,-0.0153 0.01779,0.0726 0.02441,0.10937 0.01656,0.0928 0.02774,0.18661 0.04505,0.27931 0.04325,0.23075 0.08639,0.40107 0.140243,0.62847 0.112852,0.41042 0.228592,0.81908 0.352221,1.22624 0.07427,0.12317 0.05866,0.40476 0.148792,0.51603 0.01949,0.0239 -0.01695,-0.0596 -0.03,-0.0877 -0.205938,-0.21182 0.02678,-0.0892 0.170533,-0.0487 0.06311,0.0245 0.126746,0.0477 0.189326,0.0736 0.217341,0.0897 0.021,0.0157 -0.02403,9.4e-4 -0.08705,-0.0279 -0.06008,-0.008 0.156339,-0.021 0.90817,-0.0102 1.80663,-0.14554 2.705736,-0.25917 0.609332,-0.0677 1.21942,-0.16763 1.833956,-0.13697 0.111148,0.0284 0.234259,0.0273 0.333439,0.0847 0.453872,0.26345 0.602282,0.47363 0.61868,1.02811 0.0075,0.26959 -0.272079,0.6669 -0.399833,0.90781 -0.398841,0.83677 -0.533305,1.76445 -0.643158,2.67588 -0.09868,0.73734 -0.08119,1.47781 -0.02669,2.21703 0.04853,0.75834 -0.146325,1.00492 -1.008249,1.32429 -0.193232,0.0717 -0.411595,-0.0249 -0.616314,-0.0483 -0.19697,-0.0225 -0.391972,-0.0601 -0.587957,-0.0897 -0.232112,-0.0247 -0.464223,-0.0492 -0.696335,-0.0737 -0.242349,-0.0123 -0.484528,-0.0295 -0.727048,-0.0387 -0.45546,-0.0175 -0.777868,-0.0203 -1.224586,-0.005 -0.135203,0.006 -0.271086,0.006 -0.405154,0.0243 -0.04949,0.006 -0.170599,0.009 -0.141345,0.05 0.03264,0.0452 0.111057,-0.009 0.166596,-0.0153 0.591081,-0.56168 0.178624,-0.0667 0.399334,-0.54194 0.0057,-0.0102 0.01797,0.018 0.02291,0.0294 0.02337,0.0545 0.04031,0.11187 0.06149,0.16727 0.162519,0.42584 0.02234,0.0318 0.200935,0.55303 0.107843,0.45466 0.409912,1.35927 0.224865,1.80611 -0.08941,0.21588 -0.260177,0.38817 -0.39027,0.58225 -0.18484,0.0931 -0.359062,0.21132 -0.554528,0.27936 -0.242246,0.0844 -0.848029,0.13713 -1.098024,0.16092 -0.543674,0.0517 -1.088665,0.0904 -1.633343,0.12961 -0.573028,0.0527 -1.147235,0.0724 -1.721085,0.0276 -0.685709,-0.001 -1.36929,0.0729 -2.0532,0.11613 -0.60603,0.0409 -1.21361,0.0199 -1.819954,-1.1e-4 -0.503366,-0.0199 -0.904016,-0.18805 -1.169149,-0.65325 -0.147719,-0.25915 -0.120586,-0.44856 -0.127665,-0.72688 0.04967,-0.35634 0.09235,-0.71247 0.114996,-1.0716 0.0174,-0.56241 0.03491,-1.12421 0.06575,-1.68615 0.04334,-0.76069 0.05601,-1.52266 0.06454,-2.28441 0.0048,-0.60037 9.47e-4,-1.20075 -0.01,-1.80101 -3.97e-4,-0.017 -5.96e-4,-0.22321 -0.01379,-0.27385 -0.003,-0.009 -0.0095,0.0196 -0.0075,0.0295 0.01022,0.0575 0.01256,0.12042 0.04315,0.17019 0.177534,0.28842 0.172321,0.27062 0.357085,0.38451 -0.530485,-0.13222 -1.081863,-0.15184 -1.625718,-0.17489 -0.512678,-0.0175 -1.025602,-0.006 -1.538394,-0.009 -0.591618,-0.0123 -1.182585,-0.0513 -1.773569,-0.0818 -0.748792,-0.0354 -1.498862,-0.0307 -2.248278,-0.026 -0.44795,0.009 -0.895745,0.0137 -1.343779,0.009 -0.538481,-0.005 -1.07522,-0.0553 -1.613342,-0.0752 -0.406127,-0.017 -0.84376,-0.0908 -1.158485,-0.37441 -0.272855,-0.24595 -0.268228,-0.32029 -0.408691,-0.63696 -0.127527,-0.52467 -0.0095,-1.05454 0.07975,-1.57534 0.09832,-0.5912 0.201993,-1.18254 0.345616,-1.76453 0.204966,-0.72418 0.535549,-1.40229 0.869046,-2.07392 0.241431,-0.44801 0.471223,-0.90199 0.711103,-1.35084 0.171394,-0.28814 0.234138,-0.61207 0.294306,-0.93714 0.09244,-0.44445 0.16056,-0.89575 0.157097,-1.35043 -0.02271,-0.33992 -0.11283,-0.67586 -0.26783,-0.97926 -3.98e-4,-3.9e-4 -0.0686,-0.0847 -0.08479,-0.0809 -0.01287,0.003 0.0213,0.0387 0.0075,0.0387 -0.0246,-1.3e-4 -0.278296,-0.10506 -0.323211,-0.11843 -0.251319,-0.0691 -0.486288,-0.17271 -0.719828,-0.2859 -0.467565,-0.24862 -0.616863,-0.66957 -0.677704,-1.16262 -0.02043,-0.22216 -0.02565,-0.44534 -0.02744,-0.66832 -4.06e-4,-0.16806 0.0039,-0.33606 0.0039,-0.50412 0.03842,-1.2103 1.188395,-1.20965 2.077016,-1.22539 1.391676,0.0281 2.782955,0.0628 4.174989,0.0677 0.950464,-0.0175 1.899917,0.0102 2.847088,0.0884 0.457524,0.0416 0.911614,0.11552 1.36698,0.17616 0.09453,0.0138 0.188947,0.0291 0.283414,0.0435 0.207766,0.0317 0.418295,0.0729 0.62802,0.0905 0.111171,0.009 0.08941,0.006 0.04853,-0.0137 -0.294664,0.0682 -0.279856,0.0234 -0.4966,0.22187 -0.0317,0.0291 -0.04439,0.0751 -0.07636,0.10392 -0.0086,0.008 -0.003,-0.0223 -0.0018,-0.0333 0.003,-0.0444 0.0086,-0.0884 0.01303,-0.13268 0.0039,-0.0618 0.0075,-0.12332 0.01056,-0.18502 0.01516,-0.36929 0.0057,-0.73888 -0.0018,-1.10821 0.0039,-0.23455 -0.05497,-0.46322 -0.05091,-0.69845 0.0018,-0.0844 0.01211,-0.16859 0.01817,-0.25289 0.05506,-0.1483 0.07493,-0.31486 0.165187,-0.44471 0.469219,-0.67514 1.271263,-0.62135 1.992378,-0.61481 0.546051,0.009 1.091713,0.0312 1.637717,0.0418 0.43048,0.006 0.860773,-0.008 1.291198,-5e-5 0.429762,7.4e-4 0.859515,-1.9e-4 1.289288,2.1e-4 0.469569,1.9e-4 0.92433,0.0693 1.357953,0.2496 0.225375,0.12915 0.477621,0.24715 0.650813,0.44814 0.07493,0.087 0.140091,0.18181 0.210121,0.27272 0.236409,0.35723 0.328739,0.77136 0.404765,1.18581 0.07579,0.52747 0.08941,1.06053 0.09737,1.59248 0.0066,0.43116 0.01068,0.86233 0.01455,1.29353 6.05e-4,0.0513 9.47e-4,0.10233 0.0018,0.15351 8.33e-4,0.0862 -0.003,0.17257 0.003,0.25863 4.07e-4,0.008 0.0095,0.0293 0.0075,0.0219 -0.110796,-0.41833 -0.02052,-0.25889 -0.229878,-0.52139 -0.02261,-0.0184 -0.05762,-0.0279 -0.06784,-0.0552 -0.0057,-0.0153 0.03245,0.001 0.04853,0.005 0.0437,0.006 0.08705,0.0123 0.130805,0.0167 0.193772,0.0202 0.38832,0.0255 0.582877,0.0319 0.575363,0.036 1.146458,-0.0536 1.715984,-0.12088 0.442649,-0.0803 0.886076,-0.15472 1.330305,-0.22596 0.209764,-0.0309 0.418493,-0.0609 0.623573,-0.11459 1.270998,-0.28495 1.674002,1.51251 0.402995,1.79748 v 0 c -0.242909,0.0493 -0.486251,0.093 -0.732661,0.12165 -0.477592,0.079 -0.950511,0.18586 -1.431859,0.24093 -0.651325,0.0605 -1.30297,0.14448 -1.958249,0.13453 -0.591791,-0.0138 -1.197167,-0.0228 -1.727746,-0.3198 -0.111307,-0.10403 -0.25098,-0.18427 -0.333923,-0.31204 -0.255616,-0.39375 -0.222782,-0.69567 -0.213377,-1.11345 0.0048,-0.41915 0.0098,-0.83842 0.0048,-1.2576 -0.0095,-0.42831 -0.01683,-0.85887 -0.08222,-1.28307 -0.03387,-0.17109 -0.05611,-0.35243 -0.143123,-0.50571 0.192788,0.17894 -0.04343,-0.0553 -0.100722,-0.0583 0.06122,-0.009 -0.08601,-0.0471 -0.09358,-0.0492 -0.08875,-0.0212 -0.218221,-0.0304 -0.304429,-0.0373 -0.05564,-0.005 -0.111444,-0.006 -0.167173,-0.009 -0.430577,7.5e-4 -0.861125,1.7e-4 -1.291692,6.2e-4 -0.439045,0.006 -0.877682,-0.009 -1.316651,-0.0166 -0.543563,-0.006 -1.086708,-0.0181 -1.62972,-0.0439 -0.472645,-0.006 -0.08062,-0.006 -0.511883,0.005 -0.03018,6.1e-4 -0.07731,0.0265 -0.09046,-5.8e-4 -0.01225,-0.0251 0.0458,-0.0333 0.06377,-0.0549 0.234439,-0.28001 0.175245,-0.17743 0.246541,-0.49696 -0.03671,-0.0241 -0.0086,0.0892 0.0039,0.19467 0.02043,0.17557 0.04239,0.35198 0.03633,0.52917 -0.003,0.4074 -0.0048,0.81489 -0.01713,1.22213 -0.03047,0.58405 -0.07475,1.24631 -0.630678,1.59775 -0.144426,0.0913 -0.32025,0.11919 -0.480375,0.1787 -0.09054,0.005 -0.181045,0.0123 -0.271634,0.0102 -0.367088,-0.008 -0.723973,-0.13361 -1.08843,-0.16567 -0.445507,-0.0528 -0.890315,-0.10972 -1.334052,-0.17506 -0.884553,-0.11965 -1.77499,-0.17334 -2.667915,-0.17367 -1.366441,-0.0206 -2.733449,-0.0356 -4.09988,-0.009 -0.124126,0.006 -0.248529,0.009 -0.372368,0.0202 -0.07928,0.006 -0.156868,0.0337 -0.236425,0.0328 -0.01471,-2e-4 0.01722,-0.024 0.02649,-0.0354 0.08033,-0.0975 0.184917,-0.17863 0.242775,-0.29088 0.04031,-0.0783 0.09045,-0.4545 0.06784,-0.28776 -5.97e-4,0.16714 0.0018,0.33426 3.96e-4,0.5014 -9.47e-4,0.15121 -0.0048,0.30262 0.0075,0.45351 9.46e-4,0.0194 0.01149,0.0752 9.46e-4,0.0583 -0.07609,-0.13359 -0.155016,-0.2781 -0.305923,-0.34047 0.0228,0.0123 0.0457,0.0249 0.0685,0.0373 0.01211,0.006 0.02649,0.0123 0.03662,0.0224 0.003,0.003 -0.01471,7.5e-4 -0.01136,0.001 0.108104,0.0593 0.234885,0.0783 0.345258,0.13252 0.637813,0.2255 1.175848,0.50799 1.488151,1.145 0.241914,0.55963 0.415276,1.14595 0.425022,1.76078 -0.01068,0.55855 -0.06803,1.11523 -0.182881,1.66256 -0.09271,0.51556 -0.214182,1.02486 -0.47976,1.48292 -0.235386,0.4321 -0.476088,0.86127 -0.706318,1.29615 -0.280622,0.54775 -0.568559,1.09602 -0.729857,1.69385 -0.134605,0.53298 -0.213339,1.07892 -0.298506,1.6216 -0.03084,0.19843 -0.05611,0.3974 -0.08554,0.59602 -0.0048,0.0299 -0.01022,0.0596 -0.01363,0.0896 -0.0018,0.0215 0.01552,0.0744 -0.0039,0.0645 -0.02678,-0.0137 -0.02252,-0.0559 -0.03387,-0.0838 -0.07267,-0.10813 -0.0757,-0.13084 -0.200555,-0.21552 -0.03851,-0.0262 -0.138405,-0.0798 -0.135648,-0.0333 0.0039,0.0781 0.385869,-0.059 0.230106,0.0452 0.509943,0.0265 1.0202,0.0633 1.530852,0.0645 0.450418,-0.005 0.90062,-9.5e-4 1.350904,0.0102 0.769297,0.009 1.538583,0.0225 2.307926,0.0272 0.570623,0.0123 1.139495,0.0709 1.710478,0.0588 0.537677,-9.6e-4 1.075202,0.0177 1.612337,0.04 0.701776,0.0298 1.408359,0.0584 2.096774,0.20938 0.120188,0.0469 0.256258,0.0645 0.360548,0.1405 0.521714,0.37973 0.573622,0.74656 0.551633,1.32176 -0.01149,0.6075 -0.01656,1.21512 -0.02347,1.82266 -0.01022,0.78265 -0.03018,1.56494 -0.06311,2.34697 -0.02166,0.56825 -0.01854,1.1363 -0.03359,1.70469 -0.0177,0.35078 -0.04826,0.70047 -0.0984,1.04825 -0.08165,-0.36965 -0.240267,-0.45871 -0.584899,-0.57139 -0.0086,-0.003 0.01471,0.009 0.02195,0.0137 0.03227,0.006 0.06454,0.0102 0.09677,0.0168 0.539085,0.0366 1.080092,0.0808 1.620389,0.04 0.393315,-0.0219 0.786422,-0.0446 1.179008,-0.0776 0.274133,-0.0232 0.547206,-0.0589 0.821791,-0.0759 0.105867,-0.006 0.21208,-0.006 0.318132,-0.006 0.484054,0.0458 0.965971,0.086 1.453216,0.0383 0.508305,-0.0256 1.01612,-0.0522 1.521532,-0.11536 0.150539,-0.0189 0.300171,-0.0442 0.450058,-0.0677 0.07106,-0.0102 0.145206,-0.0609 0.212696,-0.036 0.03473,0.0123 -0.04248,0.0605 -0.06367,0.0908 -0.04505,0.11301 -0.108524,0.22036 -0.135066,0.33913 -0.01022,0.0461 0.0118,0.18361 0.02819,0.13926 0.02082,-0.0561 -0.0057,-0.1195 -0.01348,-0.17882 -0.03218,-0.25465 -0.08989,-0.50628 -0.161649,-0.75242 -0.181027,-0.51236 -0.586235,-1.22839 -0.364238,-1.77634 0.09367,-0.23119 0.293652,-0.40329 0.440473,-0.60494 0.16128,-0.0695 0.314875,-0.16051 0.483819,-0.20837 0.232945,-0.0659 0.629288,-0.0443 0.861778,-0.0396 0.697412,0.0137 1.394078,0.0447 2.09066,0.0811 0.375488,0.0236 0.925513,0.0533 1.316841,0.0935 0.04844,0.006 0.170371,-0.0137 0.143782,0.0264 -0.622097,0.95447 -0.50366,0.19942 -0.5239,0.7713 -0.0018,0.061 9.46e-4,-0.12195 9.46e-4,-0.183 -0.02696,-0.84529 -0.01788,-1.69043 0.09938,-2.53003 0.141377,-1.10348 0.305802,-2.21624 0.759682,-3.24244 0.05082,-0.11475 0.100812,-0.22976 0.152439,-0.34407 0.02025,-0.0447 0.05582,-0.18188 0.0631,-0.13329 0.01225,0.0822 -0.05989,0.16298 -0.04645,0.245 0.07853,0.47843 0.23759,0.79263 0.749066,0.84479 -0.124662,-0.0334 -0.278719,-0.024 -0.40534,-0.0194 -0.3512,0.0123 -0.701152,0.0521 -1.050941,0.0827 -0.913212,0.10085 -1.823557,0.22609 -2.737935,0.3168 -0.309916,0.039 -0.546361,0.061 -0.855815,-0.0189 -0.05611,-0.0137 -0.108593,-0.0404 -0.162197,-0.0624 -0.01516,-0.006 -0.03795,-0.006 -0.04391,-0.0219 -0.0048,-0.0123 0.02535,0.006 0.03804,0.006 -0.395956,-0.11949 -0.787966,-0.22831 -1.076745,-0.55172 -0.06008,-0.0825 -0.127175,-0.16004 -0.180288,-0.24708 -0.15632,-0.25617 -0.202524,-0.55554 -0.276252,-0.84065 -0.132828,-0.45017 -0.249153,-0.90363 -0.356111,-1.36085 -0.159083,-0.7557 -0.467127,-1.73918 0.01272,-2.43656 0.11665,-0.16951 0.320241,-0.25846 0.480367,-0.38768 0.590804,-0.20722 1.213071,-0.31164 1.84058,-0.2949 0.819945,0.0668 1.62811,0.22169 2.376921,0.57767 0.349194,0.16098 0.690326,0.33336 1.033796,0.50598 0.09292,0.0467 0.185558,0.0939 0.279536,0.13835 0.06983,0.0331 0.151335,0.046 0.211672,0.0943 0.02043,0.0163 -0.05166,0.009 -0.07749,0.0137 -0.933537,0.58385 -0.53549,0.10392 -0.743815,0.94127 -0.01164,0.0467 -0.0066,-0.0961 -0.01195,-0.14386 -0.05327,-0.47883 -0.01395,-0.0273 -0.05044,-0.46949 -0.0066,-0.0839 -0.01363,-0.16807 -0.02034,-0.25206 -0.0387,-0.55689 -0.04874,-1.11777 -0.162851,-1.66649 -0.11786,-0.73236 -0.180921,-1.47273 -0.236585,-2.21204 -0.0066,-0.71925 0.05138,-1.43883 -0.0075,-2.15764 0,-1.317 1.86253,-1.317 1.86253,0 z" /><path
       style="fill:#0e0c20;fill-opacity:1;stroke:#b6c3ef;stroke-width:0.452211;stroke-linecap:round;stroke-linejoin:round;stroke-dasharray:none;stroke-opacity:1"
       id="path27"
       d="m 60.697161,146.08199 c 0.240862,0.80852 0.32937,1.64705 0.411083,2.4832 0.08157,1.00844 0.09916,2.01888 0.07361,3.02968 0.003,0.40052 -0.03084,0.7959 -0.08961,1.19133 -0.0048,0.0383 -0.0097,0.0767 -0.0144,0.11491 -0.172653,1.30151 -2.01327,1.05734 -1.840619,-0.24416 v 0 c 0.0066,-0.0488 0.01348,-0.0978 0.02025,-0.14677 0.05044,-0.33157 0.09964,-0.66207 0.112466,-0.99823 0.06235,-0.91748 0.06944,-1.83749 -0.02186,-2.75389 -0.08648,-0.70861 -0.145207,-1.43619 -0.427426,-2.10044 -0.407044,-1.25623 1.369554,-1.83189 1.776599,-0.57563 z" /><path
       style="fill:#0e0c20;fill-opacity:1;stroke:#b6c3ef;stroke-width:0.452211;stroke-linecap:round;stroke-linejoin:round;stroke-dasharray:none;stroke-opacity:1"
       id="path28"
       d="m 58.282428,141.56752 c 0.180421,-0.56752 0.238357,-1.1655 0.319662,-1.75299 0.13001,-0.75917 0.12572,-1.51942 0.02583,-2.28018 -0.06944,-0.45345 -0.233133,-0.892 -0.469797,-1.28486 -0.05043,-0.0921 -0.107979,-0.17928 -0.171328,-0.26273 -0.751488,-1.07809 0.773167,-2.14086 1.524656,-1.06277 v 0 c 0.09811,0.1457 0.193572,0.29285 0.270074,0.45151 0.309225,0.61022 0.553523,1.2545 0.633733,1.93855 0.04495,0.3844 0.06841,0.51986 0.0827,0.91054 0.02243,0.61047 -0.03557,1.21891 -0.112251,1.82382 -0.08374,0.67673 -0.163088,1.35511 -0.306314,2.0225 -0.355949,1.27067 -2.152937,0.76726 -1.796988,-0.50339 z" /><path
       style="fill:#0e0c20;fill-opacity:1;stroke:#b6c3ef;stroke-width:0.452211;stroke-linecap:round;stroke-linejoin:round;stroke-dasharray:none;stroke-opacity:1"
       id="path29"
       d="m 51.58869,133.41447 c -0.01835,0.65372 -0.06322,1.30614 -0.07957,1.95984 -0.03264,1.24412 0.03027,2.48721 0.09829,3.72899 0.05905,1.14912 0.116634,2.29858 0.143307,3.44898 0.02034,0.6837 0.04022,1.36747 -0.0299,2.04874 -0.09983,0.4799 -0.153624,0.96605 -0.217265,1.45129 -0.0423,0.27966 -0.06605,0.56129 -0.08411,0.84335 -0.08392,1.29514 -1.915538,1.1764 -1.831592,-0.11874 v 0 c 0.0213,-0.32477 0.0437,-0.64979 0.09548,-0.97146 0.06679,-0.47323 0.117018,-0.94883 0.215914,-1.41711 0.08279,-0.59902 0.05952,-1.20375 0.06206,-1.80689 -0.01045,-1.12804 -0.02498,-2.25632 -0.09262,-3.38271 -0.07058,-1.28177 -0.147581,-2.56391 -0.142755,-3.84819 0.0018,-0.64546 0.03557,-1.29115 -0.0048,-1.9361 0,-1.32053 1.867499,-1.32053 1.867499,0 z" /><path
       style="fill:#0e0c20;fill-opacity:1;stroke:#b6c3ef;stroke-width:0.0767736;stroke-linecap:round;stroke-linejoin:round;stroke-dasharray:none;stroke-opacity:1"
       id="path33"
       d="m 77.790811,149.03292 c 0.0081,-0.006 0.01303,-0.0577 0.0089,-0.0236 0.0015,0.008 0.003,0.0158 0.0035,0.0236 6.3e-5,6.7e-4 -0.0015,3e-5 -0.0022,-3.3e-4 -0.003,-0.003 -0.0051,-0.006 -0.0081,-0.008 -0.003,-10e-4 -0.01149,-0.0153 -0.01714,-0.009 -0.03079,-0.006 -0.06173,-0.006 -0.09225,0.003 -0.0035,9.3e-4 -0.01068,1.6e-4 -0.0098,0.003 6.92e-4,0.003 0.0074,-6.6e-4 0.01056,-6.7e-4 0.0058,-7.1e-4 0.0087,-0.003 0.0093,-9.6e-4 0.0015,0.006 -0.0043,0.006 0.0015,0.003 -0.0043,0.021 -0.0081,0.0427 -0.0022,0.0637 0.01164,0.0513 0.04258,0.0829 0.07833,0.11935 0.05234,0.0467 0.109695,0.0872 0.162409,0.13344 0.05782,0.0549 0.104277,0.12516 0.110717,0.20685 0.0022,0.0228 -6.41e-4,0.046 -6.91e-4,0.0689 -0.0058,0.0234 -0.0083,0.0482 -0.01748,0.0703 -0.03983,0.0959 -0.124525,0.16434 -0.213722,0.21227 -0.01945,0.009 -0.04005,0.0188 -0.06006,0.0282 -0.0855,0.0307 -0.176909,0.0493 -0.268207,0.0417 -0.05863,-0.006 -0.08312,-0.0138 -0.138635,-0.0293 -0.105174,-0.0344 -0.206926,-0.0838 -0.289667,-0.15861 -0.01648,-0.0153 -0.03136,-0.0312 -0.04704,-0.0471 -0.07588,-0.0853 -0.135756,-0.18324 -0.170036,-0.29262 -0.0074,-0.0224 -0.01195,-0.0453 -0.01792,-0.068 -0.01822,-0.10938 -0.02199,-0.22261 -0.003,-0.33236 0.0035,-0.0205 0.0087,-0.0408 0.01303,-0.0613 0.02891,-0.0979 0.07259,-0.19208 0.130269,-0.27654 0.01068,-0.0157 0.02241,-0.0305 0.03363,-0.0458 0.05631,-0.0707 0.116695,-0.13788 0.165575,-0.21402 5.09e-4,-6.9e-4 0.01241,-0.0199 0.01045,-0.0269 -0.003,-0.008 -0.0066,0.0137 -0.01,0.008 -0.0035,-0.006 -0.0051,-0.0123 -0.0076,-0.0172 -0.0425,-0.0712 -0.109388,-0.12332 -0.173883,-0.17365 -0.04019,-0.0303 -0.08169,-0.0593 -0.126975,-0.0817 -0.03405,-0.0167 -0.07012,-0.0285 -0.106344,-0.0394 -0.0086,-10e-4 -0.01676,-0.006 -0.02529,-0.006 -0.02428,-0.003 -0.06838,0.009 -0.08731,0.0153 -0.06159,0.0202 -0.07472,0.0307 -0.133548,0.0619 -0.09552,0.0585 -0.180053,0.13344 -0.247448,0.22321 -0.04691,0.0625 -0.05239,0.0796 -0.08849,0.14845 -0.01045,0.0256 -0.0219,0.0509 -0.03101,0.077 -0.02473,0.0707 -0.04583,0.15796 -0.03766,0.23355 0.0015,0.0137 0.0051,0.0262 0.0074,0.0392 0.02828,0.10279 0.08378,0.19496 0.143063,0.28257 0.08795,0.11888 0.203508,0.21351 0.318393,0.30518 0.07113,0.0577 0.147888,0.10903 0.212711,0.17432 0.0459,0.0461 0.05067,0.0563 0.08966,0.10858 0.04961,0.0738 0.08361,0.15648 0.0995,0.24407 0.0058,0.032 0.01136,0.091 0.01486,0.12394 0.0081,0.0956 0.02696,0.19122 0.02349,0.28774 -6.41e-4,0.0179 -0.003,0.0356 -0.0043,0.0533 -0.0051,0.0217 -0.0087,0.0439 -0.0162,0.065 -0.0237,0.0664 -0.06579,0.1215 -0.119238,0.1667 -0.04576,0.0387 -0.06744,0.0474 -0.120235,0.077 -0.0258,0.009 -0.05103,0.0232 -0.07731,0.0325 -0.05928,0.0215 -0.118365,0.0352 -0.180124,0.0475 -0.0639,0.0123 -0.131419,0.0225 -0.196202,0.029 -0.03237,0.003 -0.06499,0.006 -0.09747,0.006 -0.123314,0.006 -0.248541,3.4e-4 -0.366676,-0.0392 -0.07738,-0.0259 -0.0997,-0.0421 -0.170946,-0.0809 -0.122655,-0.0778 -0.23357,-0.17518 -0.319752,-0.29272 -0.01729,-0.0236 -0.03237,-0.0484 -0.04857,-0.0729 -0.07215,-0.1175 -0.120634,-0.24638 -0.148501,-0.38111 -0.0051,-0.0259 -0.0091,-0.0521 -0.01379,-0.0783 -0.02401,-0.16561 -0.0058,-0.33243 0.0098,-0.49781 0.01287,-0.17486 0.0529,-0.34577 0.09173,-0.51626 0.03109,-0.13069 0.06549,-0.26052 0.09322,-0.39198 0.01604,-0.076 0.02032,-0.10199 0.03398,-0.17696 0.0206,-0.12011 0.03144,-0.24171 0.04021,-0.36323 -5.1e-4,-0.0216 0.0015,-0.0439 -0.0066,-0.0645 -0.0015,-0.003 -0.0015,-0.009 -0.0043,-0.008 -0.01102,0.006 0.018,0.0259 -0.01045,9.4e-4 -0.06251,-0.0508 -0.131863,-0.0963 -0.206818,-0.1267 -0.0188,-0.008 -0.03838,-0.0137 -0.05758,-0.0199 -0.08272,-0.0218 -0.168424,-0.0394 -0.254482,-0.0329 -0.04662,0.003 -0.06043,0.009 -0.105946,0.0207 -0.01612,0.006 -0.03284,0.0102 -0.04829,0.0192 -0.05182,0.0256 -0.09986,0.0766 -0.130163,0.12486 -0.0093,0.0153 -0.01655,0.0307 -0.02486,0.046 -0.03831,0.0876 -0.06561,0.18376 -0.06123,0.28042 6.91e-4,0.0175 0.0035,0.0346 0.0058,0.0519 0.02175,0.13222 0.07931,0.25326 0.13842,0.37212 0.05661,0.12058 0.13911,0.22524 0.219983,0.32999 0.01149,0.0153 0.02271,0.0299 0.03418,0.0447 0.03297,0.0427 0.066,0.0847 0.09653,0.12915 0.02595,0.0377 0.03057,0.0462 0.05434,0.0847 0.03268,0.059 0.05819,0.12195 0.07387,0.18776 0.0093,0.0395 0.01045,0.0536 0.01582,0.0943 0.0074,0.0622 0.0081,0.12578 -0.0058,0.18726 -0.01,0.0441 -0.01672,0.0567 -0.03297,0.0978 -0.04852,0.10154 -0.119347,0.16216 -0.218357,0.21297 -0.01993,0.009 -0.04062,0.0187 -0.061,0.0282 -0.07746,0.0335 -0.158251,0.0605 -0.242034,0.0726 -0.05559,0.008 -0.07048,0.006 -0.126302,0.006 -0.07919,-0.003 -0.159467,-0.017 -0.231076,-0.0528 -0.04901,-0.0249 -0.06145,-0.038 -0.103232,-0.0714 -0.06006,-0.0541 -0.10723,-0.11859 -0.133578,-0.1954 -0.01849,-0.0539 -0.01729,-0.07 -0.02423,-0.12762 -0.0051,-0.11552 0.02096,-0.22855 0.0485,-0.33986 0.0219,-0.0794 0.04754,-0.15747 0.05653,-0.23953 6.43e-4,-0.0304 0.0043,-0.0662 -0.01149,-0.0936 -0.0051,-0.009 -0.0097,-0.0123 -0.01648,-0.0196 -0.0035,-0.003 -0.008,-6.8e-4 -0.01195,-9.4e-4 -0.0058,-9.5e-4 -0.0109,-0.003 -0.01626,-0.006 -0.0093,-0.001 -0.0185,-0.006 -0.0279,-0.006 -0.03259,-0.006 -0.02811,-0.006 -0.05867,-0.006 -0.02441,4e-5 -0.05393,3.1e-4 -0.06775,0.0239 0.01149,-0.006 0.01835,-0.0137 0.02469,-0.0239 6.92e-4,-9.3e-4 0.0018,-0.006 0.003,-0.006 0.0018,9.5e-4 0.0018,0.006 0.0018,0.008 0.0018,0.006 0.0018,0.009 0.0039,0.0137 0.01608,0.0394 0.03662,0.0764 0.05591,0.11414 0.02646,0.0572 0.04865,0.11919 0.05154,0.1828 6.39e-4,0.0153 -3.97e-4,0.0295 -5.12e-4,0.0441 -0.003,0.0154 -0.0043,0.0311 -0.008,0.0462 -0.01102,0.0441 -0.03606,0.0956 -0.06606,0.13037 -0.0095,0.009 -0.01986,0.0202 -0.02991,0.0303 -0.05744,0.0446 -0.12621,0.0738 -0.200434,0.0567 -0.0194,-0.006 -0.037,-0.0137 -0.05554,-0.0216 -0.037,-0.0241 -0.07919,-0.0504 -0.108627,-0.084 -0.0086,-0.009 -0.01617,-0.0218 -0.02441,-0.0326 -0.01692,-0.0269 -0.02952,-0.0563 -0.04239,-0.0855 -0.08554,-0.20497 0.204313,-0.32591 0.28983,-0.12089 v 0 c 0.0039,0.009 0.0086,0.0202 0.0118,0.0304 -0.0048,-0.006 -0.01731,-0.0153 -0.01317,-0.009 0.0086,0.008 0.01988,0.0153 0.02819,0.0239 -0.03596,-0.009 -0.04636,-0.0123 -0.08261,8e-5 -0.0048,9.5e-4 -0.0098,0.0137 -0.01318,0.0123 -0.01516,0.0216 -3.96e-4,9.6e-4 0.0018,9.6e-4 0.003,3.2e-4 -0.0018,0.008 0.0018,0.008 0.0057,6.5e-4 0.0018,6.9e-4 0.0018,-0.0123 -6.9e-4,-0.021 -0.0075,-0.0409 -0.01626,-0.0597 -0.03197,-0.0629 -0.06898,-0.1241 -0.08422,-0.19389 -0.0086,-0.0488 -0.01674,-0.0963 -0.0075,-0.14615 0.01102,-0.0607 0.04097,-0.11108 0.08676,-0.15184 0.01211,-0.009 0.02375,-0.0183 0.03662,-0.0262 0.07561,-0.0466 0.162717,-0.0611 0.250377,-0.0549 0.01879,0.001 0.03772,0.003 0.05644,0.006 0.08215,0.0137 0.168274,0.0387 0.233298,0.0928 0.01707,0.0137 0.03079,0.032 0.04619,0.0479 0.02811,0.0434 0.03954,0.0558 0.05747,0.10552 0.02537,0.0706 0.02667,0.14677 0.02038,0.22057 -0.0022,0.0175 -0.0043,0.0348 -0.0074,0.0519 -0.01287,0.0759 -0.03679,0.14892 -0.05789,0.22257 -0.0195,0.0767 -0.04069,0.15428 -0.04135,0.23379 0.0043,0.0519 0.01409,0.0856 0.05227,0.12318 0.0066,0.006 0.02335,0.0218 0.03194,0.0274 0.03237,0.021 0.07267,0.0253 0.109876,0.0304 0.0118,3.4e-4 0.02364,9.5e-4 0.03542,9.5e-4 0.07207,-9.5e-4 0.141975,-0.0227 0.207549,-0.0514 0.03253,-0.0153 0.06037,-0.0291 0.08923,-0.0505 0.0089,-0.006 0.01633,-0.0123 0.02291,-0.021 0.0035,-0.006 0.0066,-0.0102 0.01,-0.0167 0.003,-0.006 0.01195,-0.0253 0.0144,-0.0335 0.0091,-0.0311 0.0075,-0.0641 0.0051,-0.0959 -0.0066,-0.058 -0.02032,-0.11461 -0.04786,-0.16652 -0.0472,-0.0839 -0.104152,-0.15958 -0.162082,-0.23633 -0.0874,-0.12103 -0.173904,-0.2436 -0.24111,-0.37727 -0.02956,-0.0585 -0.04416,-0.0852 -0.07009,-0.1457 -0.04524,-0.10552 -0.08037,-0.21596 -0.09977,-0.32928 -0.0022,-0.0298 -0.0074,-0.0593 -0.0075,-0.0893 -0.0022,-0.10711 0.02601,-0.22997 0.06404,-0.32967 0.01056,-0.0279 0.02357,-0.0544 0.03543,-0.0817 0.03989,-0.0699 0.04617,-0.0892 0.09923,-0.14952 0.07987,-0.0909 0.174033,-0.14846 0.29027,-0.18094 0.07351,-0.0167 0.09876,-0.0259 0.174732,-0.0293 0.116053,-0.006 0.229819,0.0243 0.34177,0.0502 0.02978,0.009 0.06013,0.0171 0.08944,0.0282 0.06715,0.025 0.129657,0.0618 0.189846,0.10006 0.01929,0.0123 0.03867,0.0245 0.05716,0.0377 0.01909,0.0137 0.03699,0.0288 0.05551,0.0434 0.04734,0.0503 0.05739,0.053 0.08693,0.11965 0.0074,0.0161 0.01056,0.0337 0.0141,0.0512 0.0095,0.0474 0.0075,0.0956 0.0022,0.14324 -0.01763,0.12977 -0.0342,0.25983 -0.06159,0.388 -0.04213,0.19101 -0.08676,0.38146 -0.130361,0.57213 -0.03268,0.16015 -0.06766,0.32036 -0.08055,0.48364 -0.01272,0.13988 -0.02971,0.28119 -0.0095,0.42122 0.0035,0.0206 0.0066,0.0412 0.01068,0.0618 0.02024,0.10086 0.05284,0.19862 0.105663,0.28733 0.01149,0.0171 0.02227,0.0351 0.03448,0.0517 0.06346,0.0872 0.14058,0.16396 0.231389,0.22248 0.04237,0.0233 0.06526,0.0383 0.110319,0.0549 0.08632,0.0317 0.17972,0.0366 0.270708,0.0352 0.02748,-9.5e-4 0.05493,-0.003 0.08233,-0.006 0.11665,-0.009 0.233855,-0.0345 0.339992,-0.0852 0.0279,-0.0168 0.05385,-0.0331 0.0782,-0.0546 0.0058,-0.006 0.01303,-0.009 0.01764,-0.0166 0.003,-0.003 0.0043,-0.008 0.0066,-0.0123 0.0043,-0.0276 0.0058,-0.0331 0.0066,-0.0628 0.0015,-0.071 -0.0098,-0.14141 -0.01792,-0.21152 -0.01102,-0.0794 -0.01728,-0.16064 -0.06122,-0.23014 -0.0075,-0.0102 -0.01455,-0.0228 -0.02276,-0.0339 -0.06114,-0.0795 -0.147091,-0.13512 -0.221371,-0.20102 -0.111239,-0.0944 -0.228172,-0.18898 -0.32549,-0.29787 -0.01843,-0.0206 -0.03499,-0.0427 -0.05247,-0.0642 -0.01425,-0.0207 -0.02912,-0.041 -0.04258,-0.0622 -0.01685,-0.0267 -0.05401,-0.095 -0.06758,-0.12195 -0.0227,-0.0452 -0.04625,-0.0957 -0.06173,-0.14402 -0.0083,-0.026 -0.01379,-0.0528 -0.02074,-0.0792 -0.0087,-0.0756 -0.0144,-0.0887 -0.0058,-0.16465 0.003,-0.0269 0.0083,-0.0533 0.0144,-0.0795 0.02182,-0.0959 0.0566,-0.18841 0.09982,-0.2766 0.04966,-0.0912 0.05718,-0.11323 0.120174,-0.1961 0.08941,-0.11766 0.200696,-0.21493 0.326727,-0.29163 0.0313,-0.0172 0.0618,-0.0359 0.09385,-0.0516 0.08643,-0.0427 0.18051,-0.0783 0.278212,-0.0802 0.04403,-7e-4 0.06938,0.009 0.108956,0.0218 0.05175,0.0202 0.103209,0.0412 0.152284,0.0676 0.05726,0.0307 0.110751,0.0677 0.16213,0.10744 0.103663,0.0815 0.208618,0.16601 0.270815,0.28519 0.0195,0.0458 0.03275,0.0685 0.03867,0.11996 0.0087,0.0763 -0.01718,0.14769 -0.05955,0.20983 -0.05464,0.075 -0.116389,0.14431 -0.174031,0.21694 -0.04777,0.0663 -0.09069,0.13146 -0.114243,0.21078 -0.0195,0.0835 -0.02818,0.16979 -0.01487,0.25503 0.0035,0.0137 0.0066,0.0283 0.01056,0.0425 0.02002,0.0682 0.05552,0.13007 0.103289,0.18266 0.0083,0.009 0.01626,0.0177 0.02502,0.026 0.04988,0.0469 0.109945,0.0827 0.175502,0.10233 0.02349,0.006 0.04656,0.0138 0.07056,0.0176 0.04662,0.006 0.09337,-0.003 0.137775,-0.0167 0.03268,-0.0137 0.03022,-0.009 0.06173,-0.0295 0.0083,-0.006 0.01627,-0.009 0.02399,-0.0158 0.0051,-0.003 0.0087,-0.009 0.0144,-0.0123 0.0022,-9.4e-4 0.0043,0.006 0.008,0.001 6.9e-4,6.5e-4 0.0022,10e-4 0.003,9.4e-4 0.0015,-6.9e-4 3.95e-4,-0.003 6.92e-4,-0.006 0.003,-0.009 -0.0043,-0.017 -0.01149,-0.0244 -0.05747,-0.0509 -0.115684,-0.10086 -0.171169,-0.15375 -0.0334,-0.0334 -0.05877,-0.0567 -0.08756,-0.0948 -0.04243,-0.0562 -0.06859,-0.12149 -0.08254,-0.19029 -0.0022,-0.0172 -0.0051,-0.0344 -0.0058,-0.0517 -0.0043,-0.0712 0.0093,-0.14309 0.03989,-0.2075 0.0076,-0.0123 0.01471,-0.0259 0.02322,-0.038 0.0454,-0.0642 0.112807,-0.10858 0.19073,-0.12072 0.09376,-0.0123 0.185519,-0.009 0.274691,0.0259 0.01633,0.009 0.03346,0.0163 0.04901,0.0264 0.04366,0.0285 0.102585,0.0926 0.124601,0.13941 0.01,0.0211 0.01546,0.0441 0.02322,0.0662 0.0015,0.0175 0.0035,0.0346 0.0035,0.0519 1.01e-4,0.0394 -0.01287,0.0778 -0.02175,0.11566 -0.07401,0.21197 -0.373782,0.10745 -0.29975,-0.1046 z" /><path
       style="fill:#0e0c20;fill-opacity:1;stroke:#b6c3ef;stroke-width:0.0943904;stroke-linecap:round;stroke-linejoin:round;stroke-dasharray:none;stroke-opacity:1"
       id="path35"
       d="m 27.193264,141.11936 c 0.18639,-0.13328 0.389623,-0.24393 0.587179,-0.36012 0.331861,-0.20053 0.653852,-0.41708 0.97271,-0.63758 0.299613,-0.21294 0.595073,-0.43138 0.879347,-0.66447 0.220796,-0.17863 0.414388,-0.38561 0.598339,-0.60098 0.177383,-0.22598 0.318613,-0.47734 0.449992,-0.73199 0.104265,-0.21286 0.187603,-0.43501 0.256627,-0.66157 0.02478,-0.12777 0.07096,-0.29034 -0.0048,-0.41221 -0.02109,-0.0343 -0.053,-0.0609 -0.07939,-0.0913 -0.03491,-0.0168 -0.06793,-0.0381 -0.104697,-0.0503 -0.04921,-0.0164 -0.142862,-0.0236 -0.195012,-0.0267 -0.09535,-0.006 -0.191188,-0.006 -0.286669,-0.006 -0.09482,0.006 -0.192807,1.7e-4 -0.285269,0.0264 -0.04314,0.0123 -0.09503,0.0351 -0.13727,0.0526 -0.1303,0.0521 -0.222431,0.14892 -0.307305,0.25664 -0.08734,0.11689 -0.149543,0.24701 -0.192978,0.3856 -0.05015,0.17082 -0.03369,0.34544 9.46e-4,0.51701 0.03161,0.15409 0.07153,0.30532 0.128585,0.45187 0.0614,0.1526 0.11616,0.30772 0.174394,0.46151 0.05279,0.15075 0.09713,0.30412 0.14078,0.45769 0.04627,0.14739 0.06661,0.29885 0.07871,0.45223 0.01348,0.21779 0.02669,0.4355 0.03369,0.65365 3.33e-4,0.21112 -0.05356,0.41391 -0.11158,0.61488 -0.051,0.16491 -0.124402,0.32208 -0.231014,0.45816 -0.105379,0.12777 -0.233436,0.23373 -0.378735,0.3127 -0.146723,0.0826 -0.315196,0.0782 -0.478424,0.0724 -0.163721,-0.008 -0.303768,-0.0882 -0.437038,-0.17674 -0.0847,-0.071 -0.178786,-0.13742 -0.241622,-0.22994 -0.03,-0.0444 -0.04684,-0.083 -0.0704,-0.13129 -0.0914,-0.19031 -0.169321,-0.38559 -0.237079,-0.58533 -0.07333,-0.18631 -0.12647,-0.37763 -0.154958,-0.57558 -0.01348,-0.1362 -0.03635,-0.27716 0.0144,-0.40797 0.04967,-0.10711 0.121951,-0.19725 0.215705,-0.26809 0.116021,-0.0719 0.257214,-0.0844 0.389898,-0.0992 0.122104,-0.0158 0.215062,0.042 0.302661,0.12011 0.100869,0.10483 0.136506,0.24231 0.172056,0.37892 0.05005,0.17947 0.07636,0.36347 0.08989,0.54883 0.0057,0.16313 -0.01674,0.31097 -0.06322,0.46649 -0.08175,0.22953 -0.212506,0.36299 -0.396899,0.51396 -0.172303,0.12776 -0.359007,0.23654 -0.558267,0.31687 -0.142219,0.0572 -0.196856,0.0677 -0.344236,0.10813 -0.259276,0.0669 -0.525801,0.0881 -0.792401,0.0956 -0.127451,-0.005 -0.261055,-9.4e-4 -0.378554,-0.0574 -0.05886,-0.0343 -0.07475,-0.0855 -0.08734,-0.14815 -0.03009,-0.11428 -0.03209,-0.192 0.0018,-0.30416 0.0387,-0.0825 0.107559,-0.14555 0.178112,-0.20092 0.0387,-0.0308 0.08071,-0.0567 0.121414,-0.0845 0.223435,-0.15728 9.46e-4,-0.47327 -0.222432,-0.31597 v 0 c -0.04665,0.0337 -0.09516,0.0649 -0.139814,0.10131 -0.131849,0.10767 -0.249845,0.2322 -0.305869,0.39683 -0.02073,0.0776 -0.03122,0.10461 -0.0387,0.1864 -0.0086,0.10415 0.0075,0.20808 0.03161,0.30919 0.0066,0.029 0.01241,0.0585 0.02186,0.0867 0.04892,0.14709 0.153112,0.25784 0.290331,0.32731 0.02705,0.0102 0.05347,0.0232 0.08109,0.032 0.14755,0.0484 0.305868,0.0462 0.459066,0.0469 0.295943,-0.0123 0.591099,-0.04 0.877541,-0.12011 0.17007,-0.0479 0.231155,-0.0605 0.396409,-0.12655 0.229784,-0.0919 0.445536,-0.21637 0.64454,-0.36296 0.101529,-0.0839 0.149574,-0.11767 0.238613,-0.21529 0.125811,-0.13789 0.220634,-0.30143 0.284918,-0.47616 0.02696,-0.0886 0.03785,-0.11459 0.05384,-0.20473 0.02318,-0.1313 0.02771,-0.26645 0.02517,-0.39935 -0.01542,-0.2075 -0.04817,-0.41273 -0.103062,-0.61372 -0.05678,-0.22792 -0.117155,-0.4098 -0.291485,-0.57718 -0.02696,-0.0219 -0.05232,-0.0458 -0.08062,-0.0662 -0.150461,-0.10847 -0.326684,-0.1636 -0.512139,-0.13941 -0.204329,0.0248 -0.4145,0.0509 -0.585193,0.17634 -0.152331,0.12563 -0.264604,0.26469 -0.3396,0.44931 -0.01102,0.0351 -0.02357,0.0695 -0.03161,0.10506 -0.03539,0.15702 -0.01102,0.31963 0.0057,0.47716 0.03415,0.21997 0.09226,0.43357 0.172852,0.64134 0.07427,0.21552 0.158885,0.42655 0.255198,0.63323 0.04192,0.0822 0.06017,0.12624 0.115623,0.20174 0.08932,0.12164 0.21123,0.21476 0.329324,0.30624 0.193394,0.1241 0.397327,0.2357 0.633347,0.23887 0.231668,0.005 0.468935,3.3e-4 0.675054,-0.12011 0.187509,-0.10858 0.357426,-0.24376 0.494408,-0.41296 0.02109,-0.0282 0.04343,-0.0554 0.06321,-0.0846 0.103277,-0.15198 0.170126,-0.32647 0.227144,-0.49993 0.0686,-0.23889 0.128523,-0.48132 0.126409,-0.73188 -0.0075,-0.22322 -0.02082,-0.44616 -0.03255,-0.66921 -0.01272,-0.17938 -0.03444,-0.35746 -0.08979,-0.52949 -0.04769,-0.16369 -0.09452,-0.32782 -0.15207,-0.48841 -0.0598,-0.15417 -0.112205,-0.31117 -0.173702,-0.46466 -0.04987,-0.12655 -0.0827,-0.25795 -0.110933,-0.39091 -0.02375,-0.10813 -0.03784,-0.21742 -0.0066,-0.32593 0.02717,-0.0931 0.06851,-0.18005 0.125274,-0.25899 0.04504,-0.0557 0.08743,-0.11097 0.154884,-0.14049 0.02422,-0.009 0.0474,-0.0224 0.07192,-0.0312 0.06301,-0.0228 0.134774,-0.0137 0.199866,-0.0227 0.08582,3.1e-4 0.171526,6.4e-4 0.257176,0.006 0.02119,9.6e-4 0.04219,0.003 0.0634,0.006 0.01,9.6e-4 0.02261,0.009 0.03065,0.003 0.0057,-0.005 -0.0086,-0.0102 -0.01318,-0.0167 -0.01,-0.0199 -0.03265,-0.0527 -0.02119,-0.0628 0.0048,-0.005 0.0048,0.009 0.0057,0.0158 0.0057,0.0495 -0.0066,0.0993 -0.01471,0.1477 -0.0581,0.20548 -0.130437,0.40677 -0.223151,0.59938 -0.11648,0.22989 -0.246409,0.45394 -0.404442,0.65817 -0.169189,0.19954 -0.344766,0.39387 -0.547157,0.56088 -0.273782,0.22939 -0.5626,0.43909 -0.852911,0.64693 -0.310629,0.2153 -0.622703,0.42955 -0.947854,0.62251 -0.10614,0.0609 -0.205533,0.11843 -0.31252,0.1774 -0.112727,0.062 -0.230057,0.11796 -0.334403,0.19405 -0.215525,0.17205 0.02783,0.47687 0.243351,0.3048 z" /><path
       style="fill:#0e0c20;fill-opacity:1;stroke:#b6c3ef;stroke-width:0.0986533;stroke-linecap:round;stroke-linejoin:round;stroke-dasharray:none;stroke-opacity:1"
       id="path36"
       d="m 76.572584,146.51204 c 0.01745,0.0153 0.03539,0.0288 0.05236,0.0441 0.06078,0.0546 0.0895,0.0864 0.14985,0.1437 0.09258,0.0881 0.188692,0.17126 0.286899,0.25301 0.200502,0.16613 0.419261,0.30665 0.643588,0.43786 0.16204,0.0954 0.327686,0.18478 0.48752,0.284 0.133563,0.078 0.257899,0.16925 0.378678,0.26545 0.07368,0.0604 0.146983,0.12134 0.227788,0.17204 0.07609,0.0588 0.131419,0.13435 0.144365,0.23193 0.0034,0.025 3.45e-4,0.0505 5.08e-4,0.0759 -0.01552,0.16059 -0.04658,0.31929 -0.087,0.47531 -0.03797,0.13835 -0.0728,0.27798 -0.118596,0.4141 -0.03093,0.0919 -0.05529,0.15106 -0.0906,0.24153 -0.07987,0.20783 -0.153975,0.41786 -0.228792,0.62757 -0.01102,0.032 -0.0218,0.064 -0.03288,0.0959 -0.02269,0.0654 -0.04081,0.12011 -0.06966,0.18342 -0.04469,0.098 -0.101744,0.18958 -0.156292,0.28228 -0.05159,0.083 -0.09516,0.17085 -0.146891,0.25381 -0.0421,0.0651 -0.02252,0.0342 -0.05898,0.0927 -0.02578,0.0444 -0.04831,0.0917 -0.06108,0.14171 -0.02691,0.10086 -0.03962,0.14294 -0.145252,0.2092 -0.02498,0.0158 -0.05634,0.0175 -0.0845,0.026 -0.02056,0.003 -0.04105,0.006 -0.0617,0.009 -0.09223,0.0123 -0.185258,0.0177 -0.277647,0.028 -0.40836,0.0445 0.171639,-0.0157 -0.284071,0.0311 -0.286413,0.0243 -0.570066,0.0717 -0.85471,0.11029 -0.161144,0.0183 -0.322082,0.0385 -0.484295,0.0425 -0.168903,-9.4e-4 -0.337369,0.0123 -0.505014,0.0313 -0.02128,9.5e-4 -0.04255,0.003 -0.06385,0.006 -0.09697,0.006 -0.103868,0.001 -0.205448,0.006 -0.09013,0.005 -0.179984,0.0137 -0.269768,0.0223 -0.09829,0.009 -0.20612,0.0356 -0.297471,-0.0194 -0.03057,-0.0182 -0.05425,-0.0461 -0.0814,-0.0694 -0.01348,-0.0216 -0.02846,-0.0425 -0.04032,-0.0651 -0.01501,-0.0286 -0.0329,-0.0813 -0.04515,-0.11244 -0.02679,-0.0684 -0.05811,-0.13405 -0.09036,-0.19992 -0.135142,-0.25196 -0.336437,-0.45933 -0.526508,-0.66996 -0.107184,-0.1152 -0.208258,-0.23579 -0.30743,-0.35786 -0.06406,-0.0787 -0.10698,-0.13145 -0.165129,-0.21484 -0.02574,-0.0368 -0.04958,-0.075 -0.07437,-0.11244 -0.09367,-0.14738 -0.171971,-0.30356 -0.265864,-0.45075 -0.04239,-0.0664 -0.07579,-0.11278 -0.120709,-0.17694 -0.07796,-0.11475 -0.171082,-0.21306 -0.270934,-0.30821 -0.09433,-0.086 -0.1341,-0.19912 -0.08298,-0.32251 0.02762,-0.0667 0.06113,-0.0926 0.10873,-0.14063 0.09763,-0.0827 0.207132,-0.14954 0.311062,-0.2237 0.03699,-0.0264 0.106128,-0.079 0.143108,-0.1071 0.129488,-0.10325 0.261509,-0.20292 0.396002,-0.29945 0.166616,-0.11905 0.337593,-0.23147 0.510663,-0.34077 0.18221,-0.11336 0.348295,-0.24916 0.521437,-0.37519 0.03462,-0.0241 0.06917,-0.0482 0.103891,-0.0719 0.101051,-0.0695 0.104379,-0.069 0.198294,-0.14065 0.07259,-0.0554 0.140687,-0.11536 0.209178,-0.17566 0.102358,-0.0887 0.212417,-0.16821 0.316668,-0.2547 0.06542,-0.0549 0.141729,-0.0944 0.215151,-0.13743 0.07026,-0.0373 0.129703,-0.0763 0.187954,-0.12977 0.02235,-0.0232 0.05457,-0.0541 0.069,-0.0834 0.04048,-0.0642 0.105595,-0.10711 0.179647,-0.12241 0.01761,-0.003 0.0357,-0.006 0.05354,-0.006 0.09583,-0.003 0.179064,0.0416 0.258739,0.089 0.04171,0.0269 0.07782,0.0615 0.113295,0.0958 0.01861,0.0192 0.03864,0.037 0.05686,0.0567 0.02592,0.0277 0.01287,0.0194 0.02605,0.0274 0.02653,0.0223 0.05497,0.0409 0.08457,0.0587 0.0039,0.001 0.0075,0.003 0.01113,0.006 0.25129,0.13681 0.05778,0.49221 -0.19351,0.3554 v 0 c -0.0091,-0.006 -0.01808,-0.009 -0.02713,-0.0153 -0.05296,-0.0325 -0.10363,-0.0678 -0.150799,-0.10847 -0.02977,-0.0286 -0.05828,-0.0587 -0.08848,-0.0872 -0.01676,-0.0158 -0.03872,-0.036 -0.04729,-0.0466 -0.01242,-0.009 -0.02632,-0.0162 -0.03975,-0.0239 -0.0018,-7.1e-4 -0.0074,-0.003 -0.0052,-0.003 0.01045,-9.4e-4 0.02099,0.006 0.03135,8e-5 0.0205,-0.006 0.03654,-0.0123 0.05363,-0.0265 0.0086,-0.006 0.0155,-0.0156 0.02283,-0.0237 10e-4,-9.6e-4 0.003,-0.006 0.002,-0.005 -0.0035,0.005 -0.0066,0.009 -0.0098,0.0137 -0.04021,0.0536 -0.08498,0.10392 -0.135893,0.14768 -0.02736,0.0236 -0.04967,0.0436 -0.07887,0.0655 -0.0545,0.0409 -0.114995,0.0717 -0.171928,0.10892 -0.05963,0.0352 -0.119958,0.0694 -0.175506,0.11097 -0.104698,0.0742 -0.210291,0.14738 -0.307818,0.23097 -0.05725,0.0475 -0.08848,0.0745 -0.148791,0.12026 -0.126624,0.0965 -0.260235,0.18306 -0.387551,0.27853 -0.08642,0.0654 -0.171659,0.13283 -0.259451,0.19647 -0.09275,0.0671 -0.189497,0.12853 -0.283604,0.1938 -0.165312,0.10687 -0.327906,0.2177 -0.487709,0.33269 -0.132568,0.0984 -0.262533,0.2 -0.394565,0.29903 -0.136335,0.0975 -0.277463,0.18985 -0.402853,0.30143 -0.0048,0.006 -0.0098,0.0184 -0.01501,0.0137 -0.0057,-0.006 0.0048,-0.0137 0.0057,-0.0214 0.0018,-0.0123 0.0039,-0.0262 0.0018,-0.0387 -0.0039,-0.0203 -0.01068,-0.0404 -0.02063,-0.0588 -0.0057,-0.009 -0.02696,-0.032 -0.02327,-0.0219 0.0048,0.0123 0.01722,0.0192 0.02574,0.0288 0.111728,0.11659 0.2163,0.23952 0.30495,0.37497 0.05723,0.0865 0.07144,0.10631 0.126869,0.19689 0.08875,0.14494 0.168092,0.29543 0.258803,0.43918 0.02121,0.0326 0.04173,0.0659 0.06367,0.0982 0.05243,0.0769 0.0931,0.129 0.150539,0.20295 0.09206,0.11859 0.185605,0.23612 0.286962,0.34696 0.06813,0.0747 0.164889,0.18085 0.232296,0.25637 0.133687,0.14984 0.266468,0.30191 0.365711,0.47759 0.04206,0.0754 0.08235,0.1503 0.117967,0.22878 0.007,0.0157 0.01395,0.0311 0.02072,0.0469 0.0026,0.006 0.0066,0.0123 0.0075,0.0183 2.61e-4,0.001 -0.004,-0.003 -0.0057,-0.003 -0.01501,-0.009 -0.02872,-0.0208 -0.04497,-0.0279 -0.01164,-0.006 -0.02458,-0.006 -0.03711,-0.006 -0.0025,-1.5e-4 -0.0087,0.003 -0.0066,0.003 0.04395,0.009 0.09416,-0.006 0.138145,-0.001 0.178308,-0.006 0.35673,-0.0153 0.533755,-0.0387 0.173914,-0.008 0.348073,-0.0137 0.521565,-0.0278 0.152515,-0.008 0.30494,-0.017 0.457138,-0.03 0.285608,-0.025 0.56944,-0.0642 0.854036,-0.098 0.190943,-0.0254 0.381408,-0.0544 0.570295,-0.0926 -0.03663,0.0234 -0.06802,0.0561 -0.07903,0.0985 -0.001,0.005 0.003,-0.008 0.0041,-0.0102 0.003,-0.009 0.0053,-0.0201 0.008,-0.03 0.003,-0.009 0.0057,-0.0194 0.0087,-0.0293 0.02904,-0.0812 0.06508,-0.16124 0.113182,-0.23307 0.07291,-0.10665 0.140933,-0.21628 0.209302,-0.32593 0.03015,-0.0496 0.06538,-0.10597 0.09286,-0.1574 0.05725,-0.1071 0.09576,-0.22224 0.137869,-0.33566 0.07629,-0.21237 0.150477,-0.42561 0.236007,-0.63452 0.03145,-0.0827 0.05185,-0.13313 0.07874,-0.21688 0.04185,-0.13037 0.073,-0.2639 0.106912,-0.39641 0.02956,-0.12671 0.05376,-0.25538 0.06095,-0.3855 3.45e-4,-0.001 -3.2e-5,-0.008 0.001,-0.006 0.01241,0.0206 0.0081,0.034 0.026,0.0324 -0.08441,-0.0622 -0.163193,-0.13068 -0.243855,-0.19756 -0.109331,-0.0867 -0.219214,-0.17284 -0.340025,-0.24345 -0.15789,-0.0989 -0.320065,-0.19091 -0.477622,-0.29045 -0.235375,-0.14723 -0.470095,-0.29663 -0.685079,-0.47315 -0.103641,-0.0851 -0.205034,-0.17193 -0.30694,-0.25879 -0.02709,-0.0232 -0.09416,-0.0818 -0.129228,-0.10665 -0.01056,-0.006 -0.02227,-0.0137 -0.0334,-0.0196 -0.241821,-0.15321 -0.0252,-0.49514 0.216607,-0.34199 z" /><path
       style="fill:#0e0c20;fill-opacity:1;stroke:#b6c3ef;stroke-width:0.199375;stroke-linecap:round;stroke-linejoin:round;stroke-dasharray:none;stroke-opacity:1"
       id="path37"
       d="m 29.541383,134.90287 c -0.309777,0.16808 -0.617337,0.33442 -0.943151,0.47016 -0.469077,0.17109 -0.922978,0.36938 -1.35519,0.61968 -0.312368,0.17019 -0.554216,0.4284 -0.805592,0.67388 -0.294589,0.27309 -0.576177,0.55642 -0.828149,0.86943 -0.278126,0.3346 -0.52652,0.69198 -0.790538,1.03741 -0.245198,0.31868 -0.441864,0.66841 -0.620621,1.02736 -0.223944,0.42235 -0.284463,0.89448 -0.356214,1.35987 -0.03644,0.35618 -0.129396,0.70638 -0.146003,1.06486 -0.01102,0.23179 0.003,0.30347 0.02261,0.53001 0.05506,0.45385 0.206763,0.80589 0.539208,1.12815 0.06709,0.0651 0.142251,0.12119 0.213378,0.18176 0.173749,0.11935 0.263563,0.19136 0.455451,0.28131 0.412409,0.19334 0.887013,0.31113 1.323059,0.44247 0.680948,0.21318 1.38665,0.3087 2.096251,0.3542 0.679143,0.0446 1.357413,0.0188 2.031637,-0.0684 0.470599,-0.0888 0.923591,-0.2602 1.329822,-0.51507 0.08053,-0.0505 0.157106,-0.1071 0.235669,-0.16055 0.325899,-0.22468 0.620394,-0.48729 0.862365,-0.80145 0.08639,-0.1121 0.244752,-0.35016 0.325887,-0.47024 0.337179,-0.49906 0.457553,-1.06177 0.558862,-1.64336 0.07456,-0.39871 0.08998,-0.80325 0.09559,-1.20762 9.45e-4,-0.43423 0.03795,-0.86706 0.03795,-1.30127 0.01,-0.46183 -0.07067,-0.9122 -0.206063,-1.35155 -0.136398,-0.47383 -0.397205,-0.89115 -0.653926,-1.30662 -0.198616,-0.34488 -0.455982,-0.65074 -0.720975,-0.94587 -0.194017,-0.19292 -0.405198,-0.38486 -0.655213,-0.50357 -0.05034,-0.0238 -0.103402,-0.0418 -0.155148,-0.0625 -0.305422,-0.0798 -0.620932,-0.11233 -0.932439,-0.16153 -0.285921,-0.046 -0.505468,-0.005 -0.74249,0.15918 -0.05744,0.0375 -0.106696,0.0904 -0.168233,0.12118 -0.499658,0.29794 -0.07835,1.00456 0.42134,0.70663 v 0 c 0.08506,-0.0524 0.165983,-0.10983 0.243939,-0.17238 -9.46e-4,2.6e-4 -0.03406,0.009 -0.03312,0.006 0.0075,-0.0311 0.155251,-0.0237 0.160294,-0.0167 0.255142,0.0348 0.510569,0.07 0.763119,0.12042 0.197158,0.0601 0.354803,0.20808 0.501038,0.34679 0.236228,0.25622 0.462974,0.52451 0.640367,0.82564 0.22353,0.35563 0.451468,0.7126 0.568561,1.12037 0.11258,0.36252 0.176172,0.73542 0.170107,1.11646 9.45e-4,0.42903 -0.03804,0.85669 -0.03974,1.2857 -0.0086,0.36475 -0.02291,0.73008 -0.08053,1.091 -0.07456,0.46597 -0.158185,0.93266 -0.429214,1.33173 -0.05024,0.0743 -0.222981,0.3323 -0.281106,0.40953 -0.193762,0.25743 -0.430973,0.47102 -0.698511,0.65014 -0.374618,0.25614 -0.773885,0.46379 -1.224633,0.5492 -0.621983,0.0892 -1.248395,0.11398 -1.876054,0.0729 -0.249247,-0.0158 -0.421285,-0.0224 -0.668621,-0.055 -0.424254,-0.0561 -0.840998,-0.15866 -1.253635,-0.26969 -0.510823,-0.15152 -1.047478,-0.28197 -1.491377,-0.5887 -0.295203,-0.23784 -0.413857,-0.39129 -0.468688,-0.77483 -0.01704,-0.15409 -0.03037,-0.2232 -0.02488,-0.38004 0.0118,-0.34033 0.09756,-0.67416 0.132246,-1.01199 0.06509,-0.38505 0.118227,-0.77745 0.299378,-1.12916 0.153946,-0.31467 0.324044,-0.62065 0.537647,-0.89961 0.256107,-0.34044 0.496687,-0.69281 0.774613,-1.01644 0.233069,-0.28479 0.489459,-0.5465 0.760676,-0.79542 0.210785,-0.1984 0.410982,-0.41176 0.65949,-0.56409 0.393656,-0.24082 0.814989,-0.41678 1.24881,-0.57291 0.307154,-0.12502 0.609398,-0.26085 0.89884,-0.42342 0.553222,-0.18274 0.294788,-0.96511 -0.258416,-0.78235 z" /><path
       style="fill:#0e0c20;fill-opacity:1;stroke:#b6c3ef;stroke-width:0.132071;stroke-linecap:round;stroke-linejoin:round;stroke-dasharray:none;stroke-opacity:1"
       id="path50-9-7"
       d="m 81.680471,141.33278 c -0.223461,-0.68726 -0.454175,-1.36418 -0.684612,-2.04085 -0.315078,-0.96097 -0.654061,-1.88317 -0.983931,-2.82022 -0.104027,-0.29628 -0.193316,-0.61403 -0.288417,-0.92323 -0.02051,-0.0667 -0.03715,-0.14048 -0.06294,-0.19814 -0.03201,-0.0716 -0.106401,-0.0862 -0.143139,-0.1029 -0.425334,-0.15167 -0.859358,-0.0848 -1.286869,-0.0229 -0.535391,0.0776 -0.678913,0.11551 -1.228463,0.22783 -1.185242,0.2634 -2.369212,0.55275 -3.554837,0.80836 -0.470592,0.102 -0.942525,0.17229 -1.415282,0.20261 -0.0177,0.0754 -0.117416,-0.0387 -0.148579,0.0453 -0.0057,0.0153 0.02214,0.006 0.02366,0.0256 0.003,0.0338 -0.0086,0.0659 -0.01364,0.0987 -0.05828,0.40185 -0.01011,0.0486 -0.07702,0.55999 -0.130883,0.9718 -0.275826,1.93363 -0.462454,2.86288 -0.161014,0.67112 -0.371051,1.27815 -0.565873,1.9042 -0.07645,0.24503 -0.127987,0.52006 -0.167051,0.80162 -0.0048,-0.15867 -0.01303,0.17696 -0.01102,0.13237 0.0018,-0.0366 0.003,-0.0734 0.0039,-0.11017 -0.0086,-0.0416 -0.02715,-0.079 -0.02592,-0.12424 5.77e-4,-0.021 0.01949,6.9e-4 0.02914,0.003 0.03992,0.0123 0.07966,0.0276 0.119591,0.0412 0.637491,0.11583 1.276855,0.19485 1.915955,0.2611 0.890419,0.11397 1.781565,0.0493 2.672105,-0.0102 0.68662,-0.0392 1.37279,-0.10268 2.059134,-0.15785 0.481513,-0.0356 0.963386,-0.0324 1.444396,-0.0942 0.459434,-0.0704 0.915514,-0.21007 1.370188,-0.36423 0.250362,-0.0835 0.501601,-0.15693 0.753569,-0.21431 0.226792,-0.0728 0.455315,-0.10245 0.684255,-0.11827 0.04867,-0.001 0.09735,-0.003 0.146018,-0.006 0.08725,-0.003 0.174516,-0.005 0.261748,-0.009 0.03236,-10e-4 0.06496,0.001 0.09705,-0.008 0.01022,-0.003 0.03881,-0.0299 0.02845,-0.0276 -0.01957,0.003 -0.03792,0.0227 -0.05687,0.034 -0.01734,0.0587 -0.03465,0.1172 -0.05199,0.17585 -0.0034,0.008 -0.0061,0.0304 -0.01022,0.0241 -0.01287,-0.0194 -0.01804,-0.055 -0.0277,-0.0815 -0.01409,-0.0387 -0.02867,-0.0769 -0.04366,-0.11414 -0.03962,-0.0985 -0.08093,-0.19366 -0.121231,-0.29079 -0.08185,-0.17409 -0.161923,-0.3481 -0.231661,-0.54524 -0.152898,-0.45463 0.146463,-0.91905 0.299368,-0.46441 v 0 c 0.0563,0.1847 0.135847,0.32445 0.204774,0.48659 0.09063,0.21711 0.302402,0.66126 0.300588,0.96545 -8.34e-4,0.13528 -0.03297,0.26108 -0.04945,0.39159 -0.04148,0.0624 -0.07851,0.1411 -0.124402,0.18688 -0.05362,0.0533 -0.152331,0.0452 -0.209161,0.0464 -0.13289,0.003 -0.265816,6.8e-4 -0.398632,0.0123 -0.220613,0.0189 -0.440785,0.0515 -0.659383,0.12087 -0.246453,0.0541 -0.492493,0.11873 -0.737996,0.18974 -0.465929,0.14586 -0.932873,0.27774 -1.402098,0.36512 -0.4841,0.0643 -0.969082,0.0441 -1.453693,0.0837 -0.686921,0.048 -1.373936,0.08 -2.061012,0.11598 -0.898968,0.0605 -1.79838,0.13022 -2.697352,0.0202 -0.386722,-0.0349 -0.773025,-0.0794 -1.159574,-0.12072 -0.192618,-0.0207 -0.38549,-0.0298 -0.578023,-0.0535 -0.07276,-0.009 -0.145299,-0.0239 -0.217957,-0.0359 -0.09065,-0.029 -0.232452,-0.0453 -0.314921,-0.16969 -0.130746,-0.19706 -0.144089,-0.47747 -0.09872,-0.7724 0.05279,-0.35353 0.118672,-0.70111 0.218769,-1.00629 0.187281,-0.58019 0.390572,-1.13911 0.544555,-1.76467 0.181643,-0.89422 0.32114,-1.8221 0.439416,-2.76386 0.0387,-0.31678 0.07579,-0.78038 0.183911,-1.03009 0.107628,-0.24861 0.224163,-0.27805 0.369916,-0.27395 0.464752,-0.009 0.929118,-0.055 1.392461,-0.13404 1.186706,-0.20479 2.370749,-0.47171 3.553734,-0.75827 0.578996,-0.13251 0.675289,-0.16113 1.237242,-0.26551 0.470116,-0.0873 0.949197,-0.19613 1.417844,-0.0187 0.06727,0.0527 0.139416,0.0827 0.201818,0.15821 0.112671,0.13621 0.138665,0.25566 0.20028,0.46552 0.08705,0.2965 0.169717,0.59929 0.266407,0.88227 0.325382,0.94532 0.65651,1.88142 0.97801,2.833 0.233704,0.66654 0.4637,1.33897 0.702487,1.99723 0.15974,0.44779 -0.135126,0.93298 -0.294871,0.48517 z" /><path
       style="fill:#0e0c20;fill-opacity:1;stroke:#b6c3ef;stroke-width:0.132071;stroke-linecap:round;stroke-linejoin:round;stroke-dasharray:none;stroke-opacity:1"
       id="path51-2-2"
       d="m 79.075189,136.78053 c -0.03553,-0.005 -0.04668,-0.009 -0.08813,-0.001 -0.1267,0.019 -0.252886,0.0519 -0.37949,0.0735 -0.39886,0.0686 -0.55162,0.0855 -0.981949,0.14509 -0.979199,0.14968 -1.956803,0.34202 -2.933952,0.54307 -0.203264,0.03 -0.223065,-0.58729 -0.01981,-0.61737 v 0 c 0.978489,-0.0882 1.956688,-0.2176 2.929285,-0.47183 0.45012,-0.12409 0.554619,-0.14248 0.963205,-0.28725 0.08187,-0.029 0.163239,-0.0641 0.244859,-0.0959 0.04917,-0.0201 0.09814,-0.0425 0.147506,-0.0602 0.06171,-0.0223 0.07115,-0.022 0.118457,-0.0286 0.263817,0 0.263817,0.80128 0,0.80128 z" /><path
       style="fill:#0e0c20;fill-opacity:1;stroke:#b6c3ef;stroke-width:0.132071;stroke-linecap:round;stroke-linejoin:round;stroke-dasharray:none;stroke-opacity:1"
       id="path52-6-7"
       d="m 79.194267,138.0789 c -0.05721,0.006 -0.114474,0.0102 -0.171638,0.019 -0.323953,0.047 -0.558336,0.0947 -0.8952,0.1651 -0.713071,0.14892 -1.424467,0.32432 -2.135916,0.50498 -0.816129,0.21955 -1.634734,0.39676 -2.455767,0.50389 -0.297816,0.0337 -0.595925,0.0153 -0.893901,0.0123 -0.250533,-0.0137 -0.241403,-0.77482 0.0095,-0.76096 v 0 c 0.290607,0.0289 0.581525,0.0501 0.872432,0.0526 0.202354,-0.006 0.330195,-0.009 0.537579,-0.0243 0.636276,-0.0483 1.27132,-0.15334 1.905256,-0.27732 0.22881,-0.0496 0.45788,-0.0943 0.686428,-0.14908 0.836727,-0.2011 1.670571,-0.46765 2.496122,-0.82392 0.256373,-0.0691 0.301848,0.70961 0.04548,0.77867 z" /><path
       style="fill:#0e0c20;fill-opacity:1;stroke:#b6c3ef;stroke-width:0.132071;stroke-linecap:round;stroke-linejoin:round;stroke-dasharray:none;stroke-opacity:1"
       id="path53-6-2"
       d="m 78.843559,139.67514 c -0.03205,-1.9e-4 -0.06413,-0.003 -0.09618,-8.4e-4 -0.827142,0.0543 -1.65138,0.24704 -2.474118,0.42619 -0.158565,0.0351 -0.317132,0.0699 -0.475698,0.10483 -0.194656,0.0348 -0.217596,-0.5564 -0.02296,-0.59122 v 0 c 0.158243,-0.0217 0.316485,-0.0435 0.474729,-0.0653 0.187254,-0.034 0.37469,-0.0639 0.561761,-0.10233 0.367353,-0.0754 0.811407,-0.18439 1.178681,-0.28786 0.599812,-0.16899 0.268798,-0.0826 0.731908,-0.24 0.04048,-0.0137 0.08124,-0.0232 0.121859,-0.0348 0.260431,0 0.260431,0.791 0,0.791 z" /><path
       style="fill:#0e0c20;fill-opacity:1;stroke:#b6c3ef;stroke-width:0.132071;stroke-linecap:round;stroke-linejoin:round;stroke-dasharray:none;stroke-opacity:1"
       id="path54-4-2"
       d="m 79.979214,140.90867 c -0.377008,0.0478 -0.754804,0.0619 -1.132163,0.0943 -0.144425,0.0138 -0.288833,0.0268 -0.433259,0.04 -0.248724,0.009 -0.254343,-0.7469 -0.0057,-0.75546 v 0 c 0.143139,0.003 0.286301,0.006 0.429456,0.001 0.219543,-0.008 0.438691,-0.0199 0.657815,-0.0524 0.117906,-0.0175 0.223488,-0.0363 0.339289,-0.0743 0.02574,-0.009 0.05103,-0.022 0.07655,-0.0333 0.256546,-0.10313 0.324479,0.67604 0.06793,0.7792 z" /><path
       style="fill:#0e0c20;fill-opacity:1;stroke:#b6c3ef;stroke-width:0.132071;stroke-linecap:round;stroke-linejoin:round;stroke-dasharray:none;stroke-opacity:1"
       id="path55-9-6"
       d="m 77.605635,141.41705 c -0.05841,-0.0183 -0.05396,-0.0203 -0.137654,-0.0102 -0.193066,0.0216 -0.361876,0.0667 -0.556599,0.12027 -0.121414,0.0335 -0.774176,0.22933 -0.875504,0.25962 -0.584435,0.17635 -0.30181,0.0893 -0.847919,0.26042 -0.205121,0.0576 -0.243052,-0.56539 -0.03794,-0.623 v 0 c 0.545153,-0.13543 0.263576,-0.0597 0.844589,-0.22937 0.588006,-0.20245 0.313472,-0.10177 0.871773,-0.31683 0.04126,-0.0159 0.496795,-0.19345 0.579205,-0.21969 0.129581,-0.0412 0.114873,-0.0365 0.208679,-0.032 0.260656,0.0738 0.212013,0.86557 -0.04865,0.79171 z" /><path
       style="fill:#0e0c20;fill-opacity:1;stroke:#b6c3ef;stroke-width:0.132071;stroke-linecap:round;stroke-linejoin:round;stroke-dasharray:none;stroke-opacity:1"
       id="path56-5-1"
       d="m 73.452339,137.91346 c -0.08932,-0.017 -0.17886,-0.0262 -0.268447,-0.0329 -0.255463,-0.024 -0.239793,-0.79971 0.01571,-0.77593 v 0 c 0.08422,0.009 0.168452,0.0193 0.252777,0.017 0.260706,0 0.260706,0.79183 0,0.79183 z" /><path
       style="fill:#0e0c20;fill-opacity:1;stroke:#b6c3ef;stroke-width:0.132071;stroke-linecap:round;stroke-linejoin:round;stroke-dasharray:none;stroke-opacity:1"
       id="path57-0-0"
       d="m 74.668938,140.4327 c -0.215145,0.0504 -0.431911,0.0513 -0.64781,0.0794 -0.07822,0.0102 -0.156352,0.0233 -0.234527,0.0349 -0.230351,0.0352 -0.253552,-0.66442 -0.02318,-0.69966 v 0 c 0.274445,-0.043 0.19251,-0.0271 0.464854,-0.0825 0.118886,-0.0241 0.188415,-0.034 0.300257,-0.0755 0.02349,-0.009 0.04656,-0.0219 0.06983,-0.0329 0.255553,-0.10722 0.326138,0.66901 0.07058,0.7762 z" /><path
       style="fill:#0e0c20;fill-opacity:1;stroke:#b6c3ef;stroke-width:0.132071;stroke-linecap:round;stroke-linejoin:round;stroke-dasharray:none;stroke-opacity:1"
       id="path58-4-6"
       d="m 73.955972,142.04124 c -0.358658,-0.0467 -0.718145,-0.0426 -1.077265,-0.0365 -0.224353,0 -0.224353,-0.68144 0,-0.68144 v 0 c 0.35912,0.006 0.718607,0.0102 1.077265,-0.0365 0.248367,0 0.248367,0.75434 0,0.75434 z" /></g></svg>
