<?xml version="1.0" encoding="UTF-8" standalone="no"?>
<!-- Created with Inkscape (http://www.inkscape.org/) -->

<svg
   width="204.89502mm"
   height="55.14526mm"
   viewBox="0 0 204.89502 55.14526"
   version="1.1"
   id="svg1"
   xml:space="preserve"
   inkscape:version="1.3 (0e150ed, 2023-07-21)"
   sodipodi:docname="elliptic.svg"
   xmlns:inkscape="http://www.inkscape.org/namespaces/inkscape"
   xmlns:sodipodi="http://sodipodi.sourceforge.net/DTD/sodipodi-0.dtd"
   xmlns="http://www.w3.org/2000/svg"
   xmlns:svg="http://www.w3.org/2000/svg"><sodipodi:namedview
     id="namedview1"
     pagecolor="#ffffff"
     bordercolor="#000000"
     borderopacity="0.25"
     inkscape:showpageshadow="2"
     inkscape:pageopacity="0.0"
     inkscape:pagecheckerboard="0"
     inkscape:deskcolor="#d1d1d1"
     inkscape:document-units="mm"
     inkscape:zoom="1.0280428"
     inkscape:cx="484.41564"
     inkscape:cy="732.94615"
     inkscape:window-width="1581"
     inkscape:window-height="871"
     inkscape:window-x="26"
     inkscape:window-y="23"
     inkscape:window-maximized="0"
     inkscape:current-layer="layer1"
     inkscape:export-bgcolor="#ffffff00" /><defs
     id="defs1" /><g
     inkscape:label="Layer 1"
     inkscape:groupmode="layer"
     id="layer1"
     transform="translate(-2.3773199,-183.81973)"><rect
       style="fill:#e2e4ff;fill-opacity:1;stroke:#b6c3ef;stroke-width:0.973953;stroke-linecap:round;stroke-linejoin:round;stroke-dasharray:none;stroke-opacity:1"
       id="rect5-6-6-9-1-4"
       width="203.92107"
       height="54.17131"
       x="2.8642962"
       y="184.30672" /><path
       style="fill:#0e0c20;fill-opacity:1;stroke:#b6c3ef;stroke-width:0.0943904;stroke-linecap:round;stroke-linejoin:round;stroke-dasharray:none;stroke-opacity:1"
       id="path35-4-7-4"
       d="m 110.93362,203.9337 c -0.18638,-0.1333 -0.38962,-0.24393 -0.58718,-0.36013 -0.33185,-0.20053 -0.65385,-0.41708 -0.9727,-0.63758 -0.29962,-0.21293 -0.59507,-0.43139 -0.87935,-0.66448 -0.2208,-0.17861 -0.41439,-0.3856 -0.59835,-0.60097 -0.17738,-0.22596 -0.31861,-0.47733 -0.45,-0.73199 -0.10426,-0.21287 -0.18759,-0.43501 -0.25662,-0.66157 -0.0248,-0.12777 -0.071,-0.29034 0.005,-0.41222 0.0211,-0.0343 0.053,-0.0609 0.0794,-0.0913 0.0349,-0.0168 0.0679,-0.038 0.10472,-0.0502 0.0492,-0.0164 0.14286,-0.0236 0.19501,-0.0265 0.0954,-0.006 0.19119,-0.006 0.28667,-0.006 0.0948,0.006 0.19282,1.8e-4 0.28528,0.0264 0.0432,0.0123 0.0951,0.0351 0.13727,0.0526 0.1303,0.0521 0.22243,0.14892 0.3073,0.25664 0.0874,0.11689 0.14954,0.24701 0.19299,0.38559 0.0502,0.17082 0.0337,0.34545 -9.6e-4,0.51702 -0.0316,0.1541 -0.0716,0.30533 -0.12858,0.45188 -0.0614,0.15259 -0.11616,0.30772 -0.17439,0.4615 -0.0528,0.15076 -0.0971,0.30412 -0.14078,0.45769 -0.0462,0.14739 -0.0667,0.29885 -0.0787,0.45224 -0.0135,0.21779 -0.0267,0.43549 -0.0337,0.65363 -3.3e-4,0.21114 0.0536,0.41392 0.11153,0.6149 0.051,0.16491 0.1244,0.3221 0.23101,0.45815 0.1054,0.12778 0.23344,0.23373 0.37874,0.31272 0.14672,0.0826 0.31519,0.0781 0.47842,0.0724 0.16372,-0.008 0.30376,-0.0882 0.43704,-0.17674 0.0847,-0.071 0.17878,-0.13742 0.24162,-0.22994 0.03,-0.0444 0.0468,-0.083 0.0704,-0.1313 0.0914,-0.19029 0.16933,-0.38556 0.23708,-0.58533 0.0734,-0.1863 0.12647,-0.37761 0.15495,-0.57557 0.0135,-0.1362 0.0363,-0.27717 -0.0144,-0.40796 -0.0496,-0.10711 -0.12195,-0.19725 -0.2157,-0.26808 -0.11602,-0.0719 -0.25721,-0.0844 -0.38989,-0.0992 -0.12211,-0.0158 -0.21508,0.042 -0.30267,0.12011 -0.10086,0.10483 -0.13651,0.24231 -0.17206,0.37892 -0.0501,0.17946 -0.0763,0.36346 -0.0898,0.54883 -0.006,0.16312 0.0167,0.31097 0.0633,0.46649 0.0818,0.22952 0.21251,0.36299 0.3969,0.51394 0.1723,0.12778 0.359,0.23655 0.55827,0.31688 0.14222,0.0574 0.19685,0.0677 0.34423,0.10812 0.25928,0.0669 0.52582,0.0881 0.79241,0.0956 0.12746,-0.005 0.26105,-9.4e-4 0.37855,-0.0573 0.0588,-0.0343 0.0747,-0.0855 0.0873,-0.14815 0.03,-0.11429 0.032,-0.19201 -0.001,-0.30417 -0.0387,-0.0825 -0.10756,-0.14554 -0.17811,-0.20091 -0.0387,-0.0308 -0.0808,-0.0567 -0.1215,-0.0846 -0.22343,-0.1573 -9.3e-4,-0.47327 0.22244,-0.31598 v 0 c 0.0467,0.0339 0.0952,0.0647 0.13988,0.10132 0.13191,0.1079 0.24984,0.23219 0.30587,0.39682 0.0207,0.0776 0.0312,0.1046 0.0387,0.18639 0.009,0.10415 -0.008,0.2081 -0.0316,0.3092 -0.006,0.029 -0.0123,0.0585 -0.0219,0.0867 -0.0488,0.14707 -0.15304,0.25783 -0.29034,0.3273 -0.0271,0.0102 -0.0535,0.0232 -0.081,0.032 -0.14754,0.0484 -0.30586,0.0462 -0.45906,0.0469 -0.29595,-0.0123 -0.5911,-0.04 -0.87755,-0.12011 -0.17006,-0.0479 -0.23114,-0.0605 -0.3964,-0.12655 -0.22978,-0.0919 -0.44554,-0.21637 -0.64454,-0.36298 -0.10154,-0.0839 -0.14957,-0.11765 -0.23862,-0.21528 -0.12581,-0.13788 -0.22062,-0.30143 -0.28491,-0.47615 -0.0269,-0.0884 -0.0378,-0.1146 -0.0538,-0.20475 -0.0232,-0.1313 -0.0277,-0.26643 -0.0252,-0.39934 0.0155,-0.2075 0.0482,-0.41272 0.10302,-0.61373 0.0568,-0.2279 0.11715,-0.40978 0.29148,-0.57717 0.0269,-0.0219 0.0524,-0.0458 0.0807,-0.0662 0.15045,-0.10847 0.32668,-0.16361 0.51213,-0.13942 0.20433,0.0249 0.4145,0.0509 0.5852,0.17636 0.15233,0.12563 0.2646,0.26468 0.3396,0.44929 0.0114,0.0351 0.0235,0.0695 0.0316,0.10506 0.0354,0.15701 0.0114,0.31963 -0.006,0.47715 -0.0342,0.21998 -0.0922,0.43357 -0.17284,0.64134 -0.0743,0.21552 -0.15889,0.42656 -0.2552,0.63323 -0.0419,0.0822 -0.0602,0.12624 -0.11562,0.20174 -0.0893,0.12164 -0.21124,0.21476 -0.32933,0.30624 -0.19339,0.1241 -0.39733,0.23572 -0.63335,0.23889 -0.23166,0.005 -0.46893,3.1e-4 -0.67505,-0.12011 -0.18751,-0.10858 -0.35743,-0.24378 -0.4944,-0.41298 -0.0211,-0.0282 -0.0435,-0.0554 -0.0633,-0.0846 -0.10325,-0.15198 -0.17013,-0.32647 -0.22715,-0.49994 -0.0686,-0.23889 -0.12852,-0.48132 -0.1264,-0.73186 0.008,-0.22324 0.0208,-0.44617 0.0326,-0.66923 0.0127,-0.17938 0.0344,-0.35746 0.0898,-0.52948 0.0477,-0.16369 0.0945,-0.32781 0.15208,-0.4884 0.0597,-0.15418 0.11221,-0.31119 0.17371,-0.46469 0.0499,-0.12655 0.0827,-0.25794 0.11097,-0.3909 0.0237,-0.10813 0.0378,-0.21742 0.007,-0.32593 -0.0271,-0.0931 -0.0685,-0.18005 -0.12526,-0.25899 -0.0451,-0.0556 -0.0875,-0.11097 -0.1549,-0.14049 -0.0242,-0.009 -0.0474,-0.0224 -0.0719,-0.0312 -0.063,-0.0228 -0.13478,-0.0137 -0.19987,-0.0227 -0.0859,3.1e-4 -0.17153,6.5e-4 -0.25718,0.006 -0.0212,9.5e-4 -0.0422,0.003 -0.0634,0.006 -0.0102,9.6e-4 -0.0226,0.009 -0.0307,0.003 -0.006,-0.005 0.009,-0.0102 0.0132,-0.0167 0.0102,-0.0199 0.0327,-0.0527 0.0212,-0.0628 -0.005,-0.005 -0.005,0.009 -0.006,0.0158 -0.006,0.0495 0.007,0.0993 0.0147,0.14769 0.0581,0.20547 0.13044,0.40677 0.22316,0.59938 0.11647,0.22989 0.24641,0.45396 0.40444,0.65816 0.1692,0.19955 0.34478,0.39387 0.54717,0.5609 0.27379,0.22938 0.5626,0.43909 0.85292,0.64691 0.31063,0.21533 0.6227,0.42956 0.94785,0.62252 0.10608,0.0609 0.20553,0.11843 0.31251,0.1774 0.11267,0.062 0.23007,0.11797 0.33441,0.19405 0.21552,0.17206 -0.0278,0.47688 -0.24335,0.30481 z" /><path
       style="fill:#0e0c20;fill-opacity:1;stroke:#b6c3ef;stroke-width:0.199375;stroke-linecap:round;stroke-linejoin:round;stroke-dasharray:none;stroke-opacity:1"
       id="path37-7-8-9"
       d="m 108.5855,197.7172 c 0.30978,0.16807 0.61734,0.33441 0.94316,0.47015 0.46907,0.17109 0.92298,0.36939 1.35519,0.6197 0.31237,0.17017 0.55422,0.42838 0.80558,0.67386 0.2946,0.27309 0.57619,0.55642 0.82816,0.86944 0.27814,0.3346 0.52652,0.69198 0.79054,1.0374 0.2452,0.31868 0.44185,0.66842 0.62061,1.02736 0.22396,0.42236 0.28447,0.89449 0.35622,1.35988 0.0365,0.35618 0.12946,0.70637 0.146,1.06486 0.0102,0.23179 -0.003,0.30348 -0.0227,0.53001 -0.055,0.45385 -0.20676,0.80588 -0.5392,1.12815 -0.0671,0.0651 -0.14217,0.12118 -0.21338,0.18176 -0.17375,0.11935 -0.26356,0.19135 -0.45544,0.28132 -0.41242,0.19332 -0.88703,0.31113 -1.32306,0.44247 -0.68095,0.21318 -1.38667,0.30868 -2.09626,0.35419 -0.67915,0.0445 -1.35742,0.0189 -2.03165,-0.0685 -0.4706,-0.0888 -0.92359,-0.26019 -1.32982,-0.51507 -0.0805,-0.0505 -0.15711,-0.1071 -0.23567,-0.16055 -0.3259,-0.22466 -0.62039,-0.48729 -0.86237,-0.80145 -0.0864,-0.1121 -0.24475,-0.35016 -0.32588,-0.47025 -0.33718,-0.49905 -0.45755,-1.06176 -0.55887,-1.64335 -0.0746,-0.39871 -0.09,-0.80325 -0.0956,-1.20762 -9.4e-4,-0.43421 -0.0379,-0.86706 -0.0379,-1.30127 -0.0102,-0.46183 0.0706,-0.91218 0.20606,-1.35155 0.1364,-0.47382 0.39721,-0.89115 0.65393,-1.30662 0.19862,-0.34488 0.45598,-0.65074 0.72097,-0.94586 0.19402,-0.19293 0.4052,-0.38487 0.65521,-0.50358 0.0503,-0.0239 0.10336,-0.0418 0.15515,-0.0625 0.30543,-0.0798 0.62094,-0.11233 0.93244,-0.16152 0.28592,-0.046 0.50548,-0.005 0.7425,0.15917 0.0575,0.0375 0.10665,0.0904 0.16823,0.12118 0.49966,0.29795 0.0784,1.00456 -0.42133,0.70663 v 0 c -0.0851,-0.0524 -0.166,-0.10972 -0.24396,-0.17238 9.5e-4,2.6e-4 0.0341,0.009 0.0332,0.006 -0.008,-0.0311 -0.15525,-0.0237 -0.1603,-0.0167 -0.25514,0.0348 -0.51056,0.07 -0.76311,0.12041 -0.19716,0.0601 -0.3548,0.20808 -0.50104,0.34679 -0.23622,0.25623 -0.46297,0.52451 -0.64036,0.82563 -0.22354,0.35564 -0.45148,0.71261 -0.56857,1.12039 -0.11255,0.36251 -0.17617,0.73541 -0.1701,1.11645 -9.5e-4,0.42903 0.0381,0.85669 0.0398,1.28572 0.009,0.36473 0.0229,0.73006 0.0805,1.09098 0.0746,0.46597 0.15818,0.93266 0.4292,1.33173 0.0503,0.0743 0.22299,0.3323 0.28111,0.40953 0.19376,0.25743 0.43097,0.47102 0.69851,0.65014 0.37462,0.25614 0.77389,0.46379 1.22464,0.5492 0.62199,0.0892 1.24841,0.11399 1.87607,0.0729 0.24923,-0.0157 0.42127,-0.0224 0.66861,-0.055 0.42425,-0.0561 0.84101,-0.15866 1.25363,-0.26969 0.51083,-0.15151 1.04749,-0.28197 1.49138,-0.5887 0.29522,-0.23784 0.41385,-0.39129 0.46869,-0.77483 0.017,-0.15409 0.0303,-0.2232 0.0249,-0.38004 -0.0123,-0.34033 -0.0976,-0.67414 -0.13222,-1.01197 -0.0651,-0.38507 -0.11827,-0.77747 -0.29937,-1.12918 -0.15394,-0.31467 -0.32404,-0.62065 -0.53764,-0.89961 -0.25612,-0.34044 -0.49669,-0.69281 -0.77462,-1.01644 -0.23307,-0.28479 -0.48945,-0.54648 -0.76067,-0.79541 -0.21079,-0.19841 -0.41098,-0.41177 -0.6595,-0.5641 -0.39365,-0.24082 -0.81498,-0.41678 -1.24881,-0.5729 -0.30715,-0.12502 -0.60939,-0.26086 -0.89883,-0.42343 -0.55323,-0.18272 -0.2948,-0.96511 0.25842,-0.78235 z" /><path
       style="fill:#0e0c20;fill-opacity:1;stroke:#b6c3ef;stroke-width:0.132071;stroke-linecap:round;stroke-linejoin:round;stroke-dasharray:none;stroke-opacity:1"
       id="path50-9-77"
       d="m 114.11464,220.69156 c -0.22347,-0.68727 -0.45417,-1.36419 -0.68461,-2.04087 -0.31508,-0.96096 -0.65405,-1.88315 -0.98392,-2.82021 -0.10404,-0.29628 -0.19332,-0.61401 -0.28842,-0.92323 -0.0206,-0.0667 -0.0373,-0.14048 -0.0629,-0.19814 -0.032,-0.0716 -0.10631,-0.0862 -0.14308,-0.1029 -0.42535,-0.15167 -0.85937,-0.0848 -1.28688,-0.0229 -0.5354,0.0776 -0.67891,0.11552 -1.22847,0.22784 -1.18524,0.2634 -2.36921,0.55275 -3.55484,0.80836 -0.4706,0.102 -0.94252,0.17229 -1.41528,0.20261 -0.0177,0.0754 -0.11742,-0.0387 -0.14857,0.0453 -0.006,0.0153 0.0221,0.006 0.0236,0.0256 0.003,0.0338 -0.009,0.0659 -0.0136,0.0987 -0.0583,0.40185 -0.0102,0.0486 -0.077,0.55999 -0.13087,0.97182 -0.27582,1.93363 -0.46244,2.86289 -0.16102,0.67111 -0.37105,1.27814 -0.56588,1.9042 -0.0764,0.24502 -0.12799,0.52007 -0.16705,0.8016 -0.005,-0.15866 -0.0131,0.17697 -0.0114,0.13238 0.002,-0.0366 0.003,-0.0734 0.003,-0.11017 -0.009,-0.0415 -0.0271,-0.079 -0.0259,-0.12424 5.7e-4,-0.021 0.0195,6.9e-4 0.0292,0.003 0.04,0.0123 0.0796,0.0276 0.11959,0.0412 0.6375,0.11583 1.27686,0.19485 1.91597,0.2611 0.89041,0.11397 1.78156,0.0493 2.6721,-0.0102 0.68663,-0.0392 1.37278,-0.10268 2.05914,-0.15786 0.48151,-0.0356 0.96338,-0.0324 1.4444,-0.0943 0.45942,-0.0703 0.91551,-0.21005 1.37018,-0.36422 0.25036,-0.0835 0.50159,-0.15692 0.75356,-0.2143 0.22681,-0.0728 0.45532,-0.10245 0.68426,-0.11827 0.0487,-0.001 0.0973,-0.003 0.146,-0.006 0.0872,-0.003 0.17451,-0.005 0.26176,-0.009 0.0324,-0.001 0.065,10e-4 0.097,-0.008 0.0102,-0.003 0.0387,-0.0299 0.0285,-0.0276 -0.0196,0.003 -0.038,0.0227 -0.0568,0.0341 -0.0173,0.0587 -0.0346,0.1172 -0.0519,0.17586 -0.003,0.008 -0.006,0.0304 -0.0102,0.0241 -0.0123,-0.0194 -0.018,-0.055 -0.0277,-0.0815 -0.0137,-0.0387 -0.0286,-0.0769 -0.0436,-0.11414 -0.0396,-0.0985 -0.0809,-0.19366 -0.12119,-0.29079 -0.0818,-0.17408 -0.16192,-0.3481 -0.23166,-0.54524 -0.1529,-0.45463 0.14646,-0.91904 0.29936,-0.46441 v 0 c 0.0562,0.1847 0.1359,0.32445 0.20477,0.48661 0.0907,0.21709 0.30242,0.66124 0.30061,0.96543 -8.5e-4,0.13528 -0.0329,0.26108 -0.0495,0.3916 -0.0416,0.0624 -0.0786,0.1411 -0.1244,0.18687 -0.0536,0.0533 -0.15229,0.0452 -0.20917,0.0465 -0.13283,0.003 -0.26583,6.9e-4 -0.39862,0.0123 -0.22062,0.0189 -0.44079,0.0515 -0.6594,0.12087 -0.24645,0.0541 -0.49249,0.11873 -0.738,0.18973 -0.46592,0.14585 -0.93286,0.27773 -1.40208,0.36511 -0.4841,0.0644 -0.96909,0.0441 -1.4537,0.0836 -0.68692,0.0481 -1.37394,0.08 -2.06101,0.11597 -0.89898,0.0605 -1.79839,0.13023 -2.69737,0.0201 -0.38671,-0.035 -0.77301,-0.0792 -1.15957,-0.12073 -0.19261,-0.0207 -0.38548,-0.0298 -0.57801,-0.0535 -0.0728,-0.009 -0.14532,-0.0238 -0.21796,-0.0357 -0.0906,-0.029 -0.23246,-0.0453 -0.31493,-0.16969 -0.13073,-0.19704 -0.14409,-0.47746 -0.0987,-0.7724 0.0528,-0.35352 0.11868,-0.7011 0.21878,-1.00627 0.18728,-0.5802 0.39056,-1.13912 0.54455,-1.76468 0.18164,-0.89423 0.32113,-1.82211 0.43941,-2.76385 0.0387,-0.31679 0.0758,-0.7804 0.18391,-1.03011 0.10767,-0.24859 0.22417,-0.27805 0.36992,-0.27393 0.46475,-0.009 0.92911,-0.0552 1.39245,-0.13405 1.18672,-0.20478 2.37077,-0.4717 3.55375,-0.75826 0.57899,-0.13251 0.67528,-0.16113 1.23724,-0.26551 0.47013,-0.0873 0.94921,-0.19612 1.41786,-0.0187 0.0672,0.0527 0.13942,0.0827 0.2018,0.15821 0.11255,0.13621 0.13866,0.25566 0.20028,0.46552 0.087,0.2965 0.16972,0.59929 0.26641,0.88227 0.32537,0.94532 0.65651,1.88142 0.97801,2.83301 0.2337,0.66653 0.46371,1.33896 0.70249,1.99722 0.15974,0.44779 -0.13513,0.93298 -0.29488,0.48517 z" /><path
       style="fill:#0e0c20;fill-opacity:1;stroke:#b6c3ef;stroke-width:0.132071;stroke-linecap:round;stroke-linejoin:round;stroke-dasharray:none;stroke-opacity:1"
       id="path51-2-1"
       d="m 111.50938,216.13929 c -0.0355,-0.005 -0.0468,-0.009 -0.0881,-10e-4 -0.12671,0.019 -0.2529,0.0518 -0.3795,0.0737 -0.39886,0.0686 -0.55162,0.0855 -0.98195,0.14508 -0.97921,0.14968 -1.95681,0.342 -2.93395,0.54308 -0.20327,0.03 -0.22307,-0.58732 -0.0198,-0.61739 v 0 c 0.97849,-0.0882 1.95669,-0.21761 2.92928,-0.47182 0.45013,-0.1241 0.55463,-0.14249 0.96322,-0.28725 0.0819,-0.029 0.16325,-0.0641 0.24485,-0.0959 0.0492,-0.0201 0.0982,-0.0425 0.14754,-0.0602 0.0618,-0.022 0.0711,-0.022 0.11843,-0.0285 0.26381,0 0.26381,0.80126 0,0.80126 z" /><path
       style="fill:#0e0c20;fill-opacity:1;stroke:#b6c3ef;stroke-width:0.132071;stroke-linecap:round;stroke-linejoin:round;stroke-dasharray:none;stroke-opacity:1"
       id="path52-6-1"
       d="m 111.62844,217.43767 c -0.0572,0.006 -0.11444,0.0102 -0.17163,0.019 -0.32397,0.0471 -0.55834,0.0947 -0.8952,0.16511 -0.71308,0.14892 -1.42447,0.32432 -2.13591,0.50499 -0.81614,0.21953 -1.63475,0.39677 -2.4558,0.50388 -0.2978,0.0337 -0.59591,0.0153 -0.89389,0.0123 -0.25053,-0.0137 -0.2414,-0.77482 0.009,-0.76096 v 0 c 0.2906,0.0289 0.58151,0.0501 0.87243,0.0526 0.20235,-0.006 0.33019,-0.009 0.53757,-0.0244 0.6363,-0.0483 1.27134,-0.15336 1.90528,-0.27734 0.2288,-0.0496 0.45787,-0.0943 0.68643,-0.14907 0.83672,-0.20112 1.67056,-0.46766 2.49612,-0.82394 0.25637,-0.0691 0.30185,0.70962 0.0455,0.77868 z" /><path
       style="fill:#0e0c20;fill-opacity:1;stroke:#b6c3ef;stroke-width:0.132071;stroke-linecap:round;stroke-linejoin:round;stroke-dasharray:none;stroke-opacity:1"
       id="path53-6-5"
       d="m 111.27774,219.0339 c -0.032,-1.7e-4 -0.0642,-0.003 -0.0962,-8.4e-4 -0.82715,0.0542 -1.65139,0.24704 -2.47412,0.4262 -0.15857,0.0351 -0.31714,0.0699 -0.47569,0.10483 -0.19467,0.0348 -0.21761,-0.5564 -0.0229,-0.59123 v 0 c 0.15824,-0.0217 0.31649,-0.0435 0.47473,-0.0653 0.18726,-0.0341 0.37469,-0.0639 0.56176,-0.10234 0.36736,-0.0754 0.81141,-0.18438 1.17869,-0.28785 0.59981,-0.16898 0.26878,-0.0826 0.7319,-0.23999 0.0404,-0.0137 0.0812,-0.0232 0.12179,-0.0348 0.26044,0 0.26044,0.79098 0,0.79098 z" /><path
       style="fill:#0e0c20;fill-opacity:1;stroke:#b6c3ef;stroke-width:0.132071;stroke-linecap:round;stroke-linejoin:round;stroke-dasharray:none;stroke-opacity:1"
       id="path54-4-9"
       d="m 112.4134,220.26744 c -0.37702,0.0478 -0.75483,0.0619 -1.13217,0.0943 -0.14447,0.0137 -0.28883,0.0268 -0.43326,0.04 -0.24872,0.009 -0.25435,-0.74691 -0.006,-0.75546 v 0 c 0.14316,0.003 0.28631,0.006 0.42946,0.001 0.21954,-0.008 0.43871,-0.0199 0.65783,-0.0524 0.11797,-0.0175 0.22348,-0.0363 0.33929,-0.0743 0.0258,-0.009 0.051,-0.0223 0.0765,-0.0333 0.25654,-0.10313 0.32447,0.67605 0.0679,0.77921 z" /><path
       style="fill:#0e0c20;fill-opacity:1;stroke:#b6c3ef;stroke-width:0.132071;stroke-linecap:round;stroke-linejoin:round;stroke-dasharray:none;stroke-opacity:1"
       id="path55-9-7"
       d="m 110.03981,220.77582 c -0.0584,-0.0183 -0.054,-0.0203 -0.13766,-0.0102 -0.19306,0.0217 -0.36187,0.0667 -0.55659,0.12027 -0.12141,0.0335 -0.77418,0.22932 -0.8755,0.25962 -0.58444,0.17635 -0.30181,0.0893 -0.84792,0.26044 -0.20513,0.0576 -0.24305,-0.56542 -0.0379,-0.62302 v 0 c 0.54516,-0.13528 0.26358,-0.0597 0.84459,-0.22938 0.58801,-0.20244 0.31347,-0.10176 0.87177,-0.31682 0.0412,-0.0159 0.4968,-0.19345 0.57921,-0.21969 0.12958,-0.0412 0.11487,-0.0365 0.20868,-0.032 0.26066,0.0738 0.21201,0.86555 -0.0486,0.79169 z" /><path
       style="fill:#0e0c20;fill-opacity:1;stroke:#b6c3ef;stroke-width:0.132071;stroke-linecap:round;stroke-linejoin:round;stroke-dasharray:none;stroke-opacity:1"
       id="path56-5-7"
       d="m 105.8865,217.27223 c -0.0893,-0.017 -0.17885,-0.0262 -0.26844,-0.0329 -0.25546,-0.024 -0.23979,-0.79972 0.0157,-0.77593 v 0 c 0.0842,0.009 0.16844,0.0193 0.25277,0.017 0.2607,0 0.2607,0.79183 0,0.79183 z" /><path
       style="fill:#0e0c20;fill-opacity:1;stroke:#b6c3ef;stroke-width:0.132071;stroke-linecap:round;stroke-linejoin:round;stroke-dasharray:none;stroke-opacity:1"
       id="path57-0-6"
       d="m 107.10311,219.79147 c -0.21514,0.0504 -0.43191,0.0513 -0.64782,0.0794 -0.0783,0.0102 -0.15635,0.0233 -0.23452,0.035 -0.23037,0.0352 -0.25355,-0.66442 -0.0232,-0.69966 v 0 c 0.27445,-0.043 0.19251,-0.0271 0.46486,-0.0825 0.11889,-0.0241 0.18842,-0.034 0.30026,-0.0755 0.0235,-0.009 0.0466,-0.0219 0.0699,-0.0329 0.25555,-0.10722 0.32614,0.66899 0.0705,0.77618 z" /><path
       style="fill:#0e0c20;fill-opacity:1;stroke:#b6c3ef;stroke-width:0.132071;stroke-linecap:round;stroke-linejoin:round;stroke-dasharray:none;stroke-opacity:1"
       id="path58-4-7"
       d="m 106.39015,221.40003 c -0.35868,-0.0468 -0.71816,-0.0426 -1.07728,-0.0365 -0.22435,0 -0.22435,-0.68142 0,-0.68142 v 0 c 0.35912,0.006 0.7186,0.0102 1.07728,-0.0365 0.24837,0 0.24837,0.75436 0,0.75436 z" /><path
       style="fill:#0e0c20;fill-opacity:1;stroke:#b6c3ef;stroke-width:0.519021;stroke-linecap:round;stroke-linejoin:round;stroke-dasharray:none;stroke-opacity:1"
       id="path63"
       d="m 129.85114,195.50907 c 0.28441,1.8375 0.17766,3.70967 0.13421,5.56083 -0.0582,1.39047 -0.0822,2.78427 -0.20729,4.17115 -0.0475,0.52675 -0.11187,0.98972 -0.17925,1.51021 -0.0123,0.0853 -0.10676,0.66239 -0.0971,0.82985 9.6e-4,0.0153 0.0446,-0.006 0.0394,-0.0194 -0.0811,-0.22072 -0.14325,-0.45722 -0.28382,-0.64575 -0.082,-0.10995 -0.37125,-0.0739 -0.35379,-0.20999 0.0167,-0.12991 0.25889,-0.0392 0.38832,-0.0589 1.30802,-0.24185 2.60933,-0.51505 3.92457,-0.71572 0.99212,-0.15755 2.00056,-0.26658 2.3059,1.04918 0.068,0.29307 -0.0601,0.59869 -0.09,0.89804 -0.0795,0.24669 -0.15696,0.49401 -0.23833,0.74008 -0.24164,0.73074 -0.27702,0.78191 -0.50141,1.52693 -0.20206,0.67095 -0.37572,1.34981 -0.54147,2.03038 -0.0953,0.38626 -0.16224,0.77803 -0.22673,1.17021 -0.0102,0.068 -0.0671,0.42597 -0.0998,0.49165 -0.094,0.18827 -0.221,0.35817 -0.33149,0.53725 -0.23225,0.11199 -0.44476,0.28133 -0.69674,0.33612 -0.29674,0.0645 -0.67423,-0.0729 -0.95904,-0.16149 -0.40336,-0.12547 -0.80617,-0.25097 -1.21136,-0.37059 -0.59471,-0.16612 -1.20306,-0.28088 -1.81766,-0.33917 -0.30558,-0.0224 -0.61196,-0.0254 -0.91819,-0.0232 -0.50634,0.005 -0.0457,0.0792 0.16926,-0.13406 0.31157,-0.30909 0.31121,-0.3846 0.37067,-0.66786 0.0311,0.11255 0.0598,0.22584 0.093,0.33786 0.20486,0.69261 0.40939,1.37917 0.55614,2.08767 0.10222,0.49314 0.20809,1.16462 0.29052,1.66365 0.234,1.41819 0.38548,2.84823 0.47536,4.28236 0.0503,0.86649 0.0549,1.73465 0.0622,2.60232 0.008,0.3348 -0.008,0.6699 1e-4,1.00465 0.001,0.0821 -1.6e-4,0.16504 0.0137,0.24609 0.001,0.0123 0.0328,0.0343 0.0309,0.0216 -0.0123,-0.0844 -0.0432,-0.16538 -0.0646,-0.24809 -0.0373,-0.0531 -0.11827,-0.0949 -0.11165,-0.15959 0.005,-0.0421 0.0851,0.003 0.12716,0.009 0.12486,0.0137 0.24899,0.0352 0.37412,0.0469 0.46667,0.0438 0.93682,0.0587 1.40439,0.0914 0.50684,0.0518 1.08875,0.11628 1.44373,0.53991 0.32773,0.39115 0.29565,0.51119 0.36234,0.94771 0.009,0.35694 -0.10461,0.69818 -0.13605,1.05065 -0.0102,0.12547 -0.009,0.34359 -0.009,0.4645 0.005,0.28392 0.0194,0.56759 0.0328,0.85117 0.008,0.16901 -0.0153,0.11187 0.019,0.18456 -0.0557,-0.28703 -0.0294,-0.30993 -0.31488,-0.58251 -0.0738,-0.0707 -0.18946,-0.0822 -0.27012,-0.14509 -0.0228,-0.0177 0.058,0.003 0.087,0.003 0.31019,0.009 0.17258,0.006 0.51917,0.006 0.83192,-0.005 1.66241,0.0544 2.49419,0.0697 0.77051,-0.005 1.5375,0.0637 2.3025,0.14692 0.1718,-0.0102 0.35589,0.0726 0.52824,0.0376 0.009,-0.003 -0.0137,-0.0123 -0.0232,-0.0123 -0.0449,0 -0.0919,-0.003 -0.1339,0.0153 -0.10006,0.0382 -0.19076,0.0973 -0.28617,0.14585 -0.0585,0.0654 -0.11996,0.12823 -0.17551,0.1963 -0.0682,0.0835 -0.0532,0.11017 -0.0102,-0.1054 0.0265,-0.1359 0.0193,-0.097 0.0385,-0.22156 0.0273,-0.30021 0.0416,-0.59969 0.0817,-0.89884 0.039,-0.31861 0.11736,-0.62974 0.15229,-0.94898 0.0601,-0.32453 0.1046,-0.65055 0.12579,-0.97986 -0.0123,-0.3615 0.0817,-0.70352 0.21087,-1.03736 0.17593,-0.48854 0.50237,-0.89693 0.77513,-1.33246 0.35244,-0.53399 0.67516,-1.08304 0.96792,-1.65167 0.46324,-0.85348 0.98058,-1.67585 1.46102,-2.51977 0.42225,-0.83559 0.87967,-1.64817 1.39643,-2.42877 0.64666,-0.982 1.4554,-1.54925 2.4418,-2.15017 0.84414,-0.46773 1.70921,-0.89948 2.62201,-1.21552 0.54001,-0.2003 1.10063,-0.30607 1.6719,-0.35929 0.5226,-0.0251 1.04437,-0.006 1.56648,-0.0436 0.0686,-0.009 0.13727,-0.0184 0.20602,-0.0274 0.0742,-0.009 0.68789,-0.0724 0.7145,-0.12702 0.008,-0.0153 -0.0328,0.001 -0.0492,0.003 -0.15424,0.0747 -0.0978,0.0348 -0.23178,0.15366 -0.009,0.008 -0.03,0.035 -0.0242,0.0249 0.0738,-0.12487 0.16599,-0.23851 0.24424,-0.36068 0.14753,-0.2262 0.11827,-0.51441 0.12531,-0.77315 -0.0239,-0.9007 -0.0786,-1.79746 -0.0557,-2.69913 0.0337,-0.89957 0.13053,-1.79497 0.18366,-2.69345 0.0558,0.26267 -0.0206,-0.67968 0.0184,-0.51304 0.0312,0.13406 -0.0194,0.286 0.0378,0.41105 0.0721,0.15701 0.2194,0.26706 0.33317,0.39711 0.0183,0.0208 0.0887,0.0467 0.0622,0.0549 -0.078,0.0242 -0.16324,8.5e-4 -0.2449,0.001 -1.03686,0.0746 -2.0711,0.0325 -3.10375,-0.0734 -0.76222,-0.0989 -1.51423,-0.26692 -2.26182,-0.44327 -0.29661,-0.064 -0.59524,-0.1129 -0.89187,-0.17736 -0.59723,-0.10585 -0.91351,-0.52477 -1.04548,-1.09695 -0.0435,-0.18835 0.003,-0.56523 0.0208,-0.7678 0.11888,-0.84026 0.0602,-1.68098 -0.026,-2.52018 -0.15419,-1.12817 -0.35456,-2.25032 -0.54071,-3.37399 -0.15635,-0.98405 -0.36217,-1.95737 -0.63264,-2.91605 -0.23286,-0.69818 -0.51238,-1.23162 -0.97292,-1.79923 -0.51899,-0.60938 -1.08218,-1.09125 -1.74143,-1.54056 -0.55945,-0.37202 -1.14158,-0.69476 -1.77546,-0.91699 -0.65566,-0.22986 -1.33633,-0.36201 -2.01488,-0.50155 -0.70101,-0.1169 -1.39539,-0.26957 -2.09562,-0.39041 -0.69577,-0.15044 -1.39984,-0.22745 -2.10977,-0.26216 -0.70562,-0.0234 -1.41185,-0.009 -2.11733,-0.0351 -0.79703,-0.0553 -1.59498,-0.0773 -2.39358,-0.0914 -0.92456,-0.0597 -1.85105,-0.0734 -2.7749,-0.14279 -0.26289,-0.0198 -0.37171,-0.0293 -0.62855,-0.0435 -0.078,-0.005 -0.15602,-0.0123 -0.23412,-0.0102 -0.0123,2.3e-4 -0.0416,0.0256 -0.034,0.0157 0.34253,-0.44655 0.83742,-0.80445 1.04134,-1.32904 0.0733,-0.18846 -0.21723,-0.34112 -0.32583,-0.5117 0.38962,0.26502 0.80836,0.48458 1.21492,0.72245 0.41014,0.19909 0.80751,0.42249 1.2085,0.63901 0.33029,0.22365 0.71977,0.35781 1.03488,0.60544 0.0943,0.0742 0.18027,0.15818 0.27039,0.23727 0.45226,0.49038 0.61315,1.1314 0.73365,1.76851 0.0928,0.5145 0.0717,1.03245 4.5e-4,1.54725 -0.057,0.31775 -0.0862,0.64363 -0.19111,0.95109 -0.0945,0.2773 -0.13758,0.336 -0.27019,0.5871 -0.1037,0.20895 -0.30235,0.37618 -0.33713,0.61309 -0.3892,1.45841 -2.45172,0.90803 -2.06253,-0.55041 v 0 c 0.11474,-0.39509 0.2851,-0.7606 0.54198,-1.08481 0.15751,-0.25407 0.17971,-0.5287 0.22333,-0.82173 0.0467,-0.29031 0.0526,-0.58105 0.006,-0.87248 -0.0241,-0.15306 -0.0492,-0.30532 -0.0948,-0.45384 -0.0137,-0.0436 -0.0366,-0.0844 -0.0456,-0.12931 -0.003,-0.0123 0.0373,10e-4 0.0346,-0.0123 -0.001,-0.0639 0.005,-0.0194 -0.11052,-0.0976 -0.23431,-0.15923 -0.49573,-0.27181 -0.73511,-0.42289 -0.42354,-0.22633 -0.84002,-0.46552 -1.26826,-0.68308 -0.44627,-0.25913 -0.90119,-0.50262 -1.3426,-0.77022 -0.18567,-0.22224 -0.62028,-0.38413 -0.55701,-0.66673 0.35084,-1.56697 0.65308,-1.44041 1.45698,-1.36334 0.0377,0.003 0.62992,0.0558 0.64715,0.0573 0.87571,0.0843 1.75328,0.1316 2.63304,0.14938 0.81398,0.0137 1.62847,0.0307 2.44142,0.075 0.71037,0.0311 1.42251,0.005 2.13253,0.0545 0.79329,0.0369 1.5834,0.087 2.35712,0.28146 0.72218,0.11935 1.43955,0.26119 2.15849,0.39785 0.77479,0.15091 1.54338,0.32244 2.29275,0.57486 0.33852,0.11751 0.47155,0.15305 0.79452,0.30701 0.51196,0.24394 0.97012,0.58673 1.4545,0.87779 0.38872,0.2649 0.51604,0.33939 0.87989,0.63586 0.48564,0.3957 0.91709,0.8508 1.33694,1.3141 0.23358,0.30075 0.3268,0.40431 0.52895,0.73296 0.34668,0.56363 0.5836,1.18274 0.79609,1.80689 0.28341,1.03302 0.49681,2.08149 0.66508,3.1395 0.18595,1.15921 0.38099,2.317 0.55871,3.47726 0.11336,0.96097 0.17253,1.9235 0.0863,2.89029 -0.0174,0.45041 0.006,0.13129 -0.19887,-0.10745 -0.22127,-0.25848 -0.24469,-0.18203 -0.49864,-0.28153 -0.036,-0.0137 0.0755,0.017 0.11335,0.0256 0.30739,0.077 0.61791,0.13482 0.92448,0.21596 0.64508,0.17849 1.29758,0.33962 1.95819,0.44758 0.9496,0.10744 1.89912,0.12317 2.85132,0.026 0.30765,-0.006 0.80477,-0.0457 1.08233,0.0947 0.89733,0.45375 0.91716,0.94976 0.82899,1.79232 -0.0729,0.86518 -0.18237,1.7278 -0.21385,2.59594 -0.0232,0.89366 0.0691,1.77905 0.0931,2.67155 -9.3e-4,0.66569 -0.0444,1.33434 -0.42602,1.90575 -0.23476,0.36139 -0.4444,0.74216 -0.84894,0.94488 -0.098,0.0404 -0.1937,0.0875 -0.29429,0.12119 -0.44024,0.14753 -0.91987,0.13604 -1.37354,0.21048 -0.50835,0.0291 -1.0168,0.0376 -1.5255,0.0567 -0.40678,0.0276 -0.80563,0.1 -1.19249,0.23291 -0.77182,0.23626 -1.49859,0.59747 -2.20863,0.97754 -0.68494,0.41947 -1.33865,0.86635 -1.78538,1.55191 -0.14294,0.21236 -0.30893,0.45359 -0.44212,0.6725 -0.32103,0.5276 -0.58138,1.08951 -0.889,1.62469 -0.46387,0.81456 -0.96533,1.60825 -1.39272,2.44307 -0.3135,0.62639 -0.66411,1.23018 -1.03548,1.82404 -0.19356,0.31243 -0.43101,0.60642 -0.56268,0.95121 -0.0137,0.0408 -0.0274,0.0815 -0.0417,0.12195 -0.008,0.0203 -0.003,0.05 -0.0227,0.0603 -0.0137,0.008 0.005,-0.0328 9.6e-4,-0.0484 -9.6e-4,-0.006 -0.008,0.009 -0.009,0.0153 -0.0102,0.10358 -0.005,0.20839 -0.0189,0.31176 -0.0291,0.35826 -0.0691,0.71544 -0.1342,1.06921 -0.0395,0.32651 -0.10586,0.64733 -0.15576,0.97173 -0.0377,0.3162 -0.0469,0.63413 -0.084,0.95063 -0.0767,0.50607 -0.15574,0.99903 -0.52081,1.39402 -0.14723,0.0957 -0.28323,0.21143 -0.4416,0.2872 -0.41551,0.19879 -0.90526,0.079 -1.33706,0.0317 -0.69623,-0.0938 -1.39363,-0.17511 -2.0979,-0.16988 -0.80757,-0.0236 -1.61621,-0.0469 -2.42401,-0.0376 -0.51358,0.0102 -1.14733,0.0922 -1.60027,-0.21703 -0.17937,-0.12256 -0.31647,-0.30383 -0.43227,-0.48757 -0.0747,-0.11857 -0.0851,-0.26714 -0.12762,-0.40072 -0.0412,-0.44009 -0.029,-0.88313 -0.0359,-1.32483 0.003,-0.33709 0.0123,-0.66948 0.0528,-1.00454 0.0153,-0.12502 0.0137,-0.2551 0.0558,-0.37378 0.003,-0.0102 0.009,0.0201 0.0123,0.0303 0.0642,0.18719 0.0649,0.23047 0.25855,0.4141 0.058,0.055 0.13696,0.0843 0.2108,0.1152 0.0137,0.005 0.0532,8e-5 0.042,-0.009 -0.0712,-0.0559 -0.3536,-0.0869 -0.37703,-0.0912 -0.48226,-0.0543 -0.96353,-0.0739 -1.44692,-0.11323 -0.35439,-0.0286 -0.89262,-0.0694 -1.22175,-0.2227 -0.21845,-0.10177 -0.39904,-0.27032 -0.59857,-0.40548 -0.11187,-0.1967 -0.2514,-0.38009 -0.33564,-0.59013 -0.0831,-0.20746 -0.0777,-0.52478 -0.0786,-0.74989 -0.001,-0.33338 0.005,-0.66686 0.005,-1.00022 0.008,-0.83148 0.009,-1.66322 -0.0168,-2.49444 -0.0559,-1.36194 -0.16539,-2.72204 -0.40021,-4.06625 -0.12196,-0.74968 -0.23944,-1.49725 -0.442,-2.23061 -0.16907,-0.61215 -0.20127,-0.63232 -0.41247,-1.21117 -0.0559,-0.15333 -0.10847,-0.30785 -0.1628,-0.46178 -0.0325,-0.21193 -0.13819,-0.42519 -0.0978,-0.63578 0.18182,-0.9466 0.76825,-1.21689 1.59988,-1.19334 0.39663,8.6e-4 0.79562,-0.0177 1.18929,0.0417 0.71595,0.10836 1.42336,0.26847 2.12249,0.4562 0.40103,0.11245 0.80101,0.23081 1.20422,0.33536 0.0754,0.0197 0.22177,-0.0234 0.22726,0.0542 0.0177,0.25155 -1.19296,-0.50858 -0.68531,0.32036 -0.0558,0.1215 -0.10904,0.24434 -0.1674,0.36467 -0.0153,0.0303 0.0272,-0.0619 0.0363,-0.0944 0.0211,-0.0738 0.0374,-0.14922 0.0547,-0.22406 0.0994,-0.43008 0.19452,-0.86126 0.31784,-1.28544 0.38571,-1.38805 0.81183,-2.76397 1.21405,-4.14711 0.27166,-0.0872 -0.10586,0.009 0.4559,0.3693 0.0961,0.0616 0.22259,0.0528 0.33593,0.0662 0.0137,0.001 -0.0164,-0.0298 -0.0307,-0.0302 -0.098,-0.003 -0.19586,0.0123 -0.29367,0.0194 -0.12623,0.009 -0.25212,0.0224 -0.3782,0.0335 -1.29012,0.14508 -2.56917,0.37594 -3.82942,0.68897 -0.55358,0.11051 -1.13927,0.31576 -1.69131,-0.0515 -0.80812,-0.53753 -0.52627,-1.43176 -0.37177,-2.16203 0.0907,-0.5215 0.15168,-0.83167 0.21364,-1.37044 0.15458,-1.34494 0.19502,-2.7007 0.26401,-4.05156 0.0172,-0.81284 0.0416,-1.53386 0.0232,-2.34616 -0.0176,-0.78491 -0.0543,-1.58497 -0.23194,-2.35309 -0.0232,-0.0997 -0.0588,-0.19616 -0.0883,-0.29422 -0.37102,-1.46684 1.70341,-1.99153 2.07443,-0.52469 z" /><path
       style="fill:#0e0c20;fill-opacity:1;stroke:#b6c3ef;stroke-width:0.519021;stroke-linecap:round;stroke-linejoin:round;stroke-dasharray:none;stroke-opacity:1"
       id="path69"
       d="m 134.77433,196.17827 c 0.003,0.0975 0.0123,0.19493 0.0123,0.2925 9.6e-4,0.59016 -0.0488,1.18004 -0.0619,1.76986 -0.0182,0.82809 -0.006,0.87812 0.0154,1.7155 0.0585,1.27183 0.1339,2.54746 0.31472,3.80868 0.11582,0.69159 0.18498,1.38911 0.26324,2.0855 0.0778,0.66737 -0.0742,1.17239 -0.68493,1.59309 -0.43624,0.30047 -1.22706,0.22348 -1.73256,0.20355 -0.85328,-0.0691 -1.68925,0.148 -2.5081,0.36025 -0.78524,0.20362 -1.1838,0.33114 -1.95399,0.56255 -1.36299,0.42655 -2.76669,0.75338 -4.19516,0.83713 -0.49782,-0.0158 -1.28972,0.055 -1.74696,-0.17845 -0.15121,-0.077 -0.28418,-0.18565 -0.42626,-0.2785 -0.11051,-0.15461 -0.24168,-0.29634 -0.3314,-0.46385 -0.1411,-0.26331 -0.22527,-0.70315 -0.26691,-0.98889 -0.10063,-0.69058 -0.10631,-1.39456 -0.12762,-2.0904 -0.0416,-1.56855 -0.12931,-3.13829 -0.26821,-4.70144 -0.0343,-0.57238 -0.13605,-1.13804 -0.40317,-1.64888 -0.26743,-0.47793 -0.45355,-0.99476 -0.61686,-1.51571 -0.18301,-0.58591 -0.47439,-1.20141 -0.12839,-1.81133 0.12685,-0.22382 0.37466,-0.35279 0.56199,-0.52916 0.1851,-0.0629 0.36519,-0.14294 0.55528,-0.18857 0.30148,-0.0721 0.85106,-0.0973 1.1498,-0.10903 0.74397,-0.0295 1.48729,-0.0123 2.23135,0.003 1.2887,0.0328 2.57347,0.13911 3.85999,0.21372 0.63661,0.0407 1.26475,0.15342 1.8873,0.28783 0.45618,0.0998 0.91651,0.18163 1.37743,0.25678 0.33804,0.0378 0.67337,0.0956 1.01125,0.13512 0.3398,0.0387 0.68204,0.0366 1.02344,0.0409 0.22146,0.005 0.44295,0.005 0.66443,0.003 1.49657,4.5e-4 1.4959,2.11697 -6.8e-4,2.11649 v 0 c -0.22786,-8.7e-4 -0.4557,-8.7e-4 -0.68355,4.5e-4 -0.42506,-0.003 -0.85181,-0.006 -1.2749,-0.0492 -0.36796,-0.0507 -0.73486,-0.10881 -1.10289,-0.15786 -0.48771,-0.0888 -0.97547,-0.18027 -1.4583,-0.29268 -0.53249,-0.11521 -1.07213,-0.19653 -1.61076,-0.2771 -1.23708,-0.12869 -2.47606,-0.24772 -3.72038,-0.27499 -0.685,-0.005 -1.36612,-0.0137 -2.04973,0.0392 -0.15599,0.0123 -0.31171,0.0277 -0.46706,0.0464 -0.0897,0.0102 -0.1776,0.0378 -0.26791,0.0413 -0.0102,4.8e-4 -0.005,-0.0202 -0.008,-0.0304 0.32677,-0.45858 0.22205,-0.193 0.26792,-0.82047 9.6e-4,-0.0176 -0.006,0.0354 -0.005,0.0528 0.008,0.0541 0.0203,0.10721 0.0343,0.15981 0.0368,0.13911 0.11551,0.3747 0.15828,0.50676 0.13911,0.43129 0.29777,0.85657 0.52272,1.25177 0.34214,0.7605 0.50696,1.57026 0.51305,2.4064 0.0856,1.58477 0.1787,3.16938 0.2481,4.7548 0.0316,0.51762 0.0425,0.8254 0.0997,1.32747 0.017,0.14876 0.0385,0.29693 0.0636,0.44448 0.0153,0.0895 0.0377,0.17765 0.057,0.26639 0.006,0.0299 0.0498,0.0972 0.0202,0.0895 -0.0589,-0.0158 -0.0921,-0.0806 -0.13804,-0.12087 -0.0679,-0.0299 -0.1336,-0.0654 -0.20372,-0.0897 -0.006,-0.003 -0.025,0.009 -0.0184,0.0123 0.24426,0.13037 0.6725,0.0512 0.93407,0.0896 1.26857,-0.0175 2.51435,-0.28054 3.72732,-0.64144 0.23723,-0.068 1.80234,-0.517 2.01106,-0.57601 1.00308,-0.2836 2.01826,-0.62142 3.07561,-0.54643 0.11904,0.003 0.238,0.009 0.35706,0.0102 0.0772,0.001 0.1728,-0.0513 0.23154,-8.7e-4 0.0385,0.0328 -0.083,0.062 -0.10972,0.10506 -0.0913,0.14799 -0.18279,0.29902 -0.24076,0.46307 -0.0162,0.0458 0.0137,0.19058 0.0263,0.14355 0.0181,-0.069 -0.006,-0.14263 -0.008,-0.21384 -0.0737,-0.68492 -0.13023,-1.3716 -0.22566,-2.05409 -0.15137,-1.33109 -0.18453,-2.67271 -0.2407,-4.01033 -0.0273,-0.81412 -0.0368,-0.99461 -0.051,-1.80063 -0.009,-0.52105 0.009,-1.05085 -0.0361,-1.57107 -0.005,-0.0524 -0.0162,-0.1037 -0.0245,-0.15561 -0.21912,-1.49968 1.90176,-1.80958 2.1209,-0.3099 z" /><path
       style="fill:#0e0c20;fill-opacity:1;stroke:#b6c3ef;stroke-width:0.519021;stroke-linecap:round;stroke-linejoin:round;stroke-dasharray:none;stroke-opacity:1"
       id="path71"
       d="m 134.62977,214.14048 c 0.1538,1.30418 0.21381,2.61661 0.25997,3.9282 0.0524,1.41187 0.0535,2.82431 0.0404,4.23681 0.0167,0.51373 -0.0319,1.00292 -0.23125,1.48151 -0.0796,0.19137 -0.23554,0.44374 -0.34476,0.62849 -0.21426,0.39045 -0.46707,0.72943 -0.88302,0.93037 -0.31606,0.15274 -0.5662,0.15841 -0.90234,0.2007 -1.17377,0.0239 -2.3413,0.11965 -3.50552,0.26707 -0.83771,0.13328 -1.67567,0.24087 -2.52451,0.19795 -0.60472,-0.0764 -1.23958,-0.14386 -1.80594,-0.38692 -0.13252,-0.057 -0.25704,-0.13099 -0.38555,-0.19653 -0.75679,-0.47041 -1.12329,-1.23024 -1.40022,-2.04256 -0.33689,-1.05113 -0.31692,-2.16192 -0.33137,-3.25269 0.0575,-1.7592 0.30548,-3.50328 0.63795,-5.22934 0.16305,-0.82591 0.39841,-1.6766 1.19083,-2.12411 0.51475,-0.29071 0.90514,-0.26525 1.47171,-0.31702 1.54602,0.003 3.09185,0.0637 4.63427,0.16737 0.86005,0.0699 1.72388,0.12976 2.57887,0.24942 0.34406,0.0554 0.67899,0.14478 1.00891,0.25512 1.41317,0.5217 0.67536,2.52022 -0.73779,1.99851 v 0 c -0.18728,-0.0862 -0.38862,-0.12655 -0.5891,-0.171 -0.80021,-0.13513 -1.6063,-0.24193 -2.41444,-0.31504 -1.43151,-0.12256 -2.87038,-0.20464 -4.30728,-0.14646 -0.12195,0.009 -0.24371,0.0234 -0.36599,0.0264 -0.0368,8.8e-4 -0.0818,0.009 -0.10927,-0.0153 -0.022,-0.0196 0.0224,-0.0877 -0.008,-0.0884 -0.17176,-0.005 -0.36819,0.84814 -0.37901,0.89141 -0.35282,1.56409 -0.59426,3.15452 -0.60434,4.76159 0.0387,0.88543 0.051,1.79035 0.3122,2.64495 0.0962,0.2992 0.20531,0.61794 0.41415,0.85863 0.39004,0.2529 0.87936,0.27751 1.32982,0.33174 0.71839,0.0691 1.43419,-0.0479 2.14883,-0.11323 1.15962,-0.12333 2.31845,-0.25611 3.48221,-0.33559 0.0566,-0.006 0.11302,-0.0246 0.16986,-0.0202 0.0123,0 -0.0123,0.0227 -0.0197,0.032 -0.0352,0.0403 -0.0776,0.0743 -0.11028,0.11644 -0.005,0.006 -0.003,0.0268 0.003,0.0216 0.0312,-0.0328 0.0554,-0.0719 0.0807,-0.10938 0.0403,-0.0594 0.0773,-0.12087 0.11598,-0.18128 0.0625,-0.0994 0.11889,-0.20297 0.18709,-0.29854 0.0102,-0.0153 0.034,-0.0224 0.0396,-0.0404 0.0763,-0.23657 0.05,-0.50644 0.0845,-0.74734 0.0798,-1.36057 0.1195,-2.72345 0.0438,-4.08559 -0.0599,-1.26165 -0.10665,-2.53579 -0.39479,-3.77058 -0.16925,-1.49833 1.94967,-1.73765 2.11892,-0.23936 z" /><circle
       id="path73"
       style="fill:#0e0c20;stroke:#b6c3ef;stroke-width:0.228873"
       cx="-122.77221"
       cy="199.66812"
       r="0.029719623"
       transform="scale(-1,1)" /><path
       style="fill:#0e0c20;fill-opacity:1;stroke:#b6c3ef;stroke-width:0.519021;stroke-linecap:round;stroke-linejoin:round;stroke-dasharray:none;stroke-opacity:1"
       id="path86"
       d="m 133.93744,195.93189 c 0.77279,0.0102 1.52551,0.21659 2.26939,0.40676 0.68396,0.19931 1.39684,0.43153 1.95462,0.89526 0.10415,0.0865 0.19559,0.18742 0.29339,0.28113 0.53676,0.55672 0.81236,1.27834 1.09755,1.98181 0.27172,0.70477 0.53615,1.41337 0.76066,2.13475 0.16682,0.60467 0.39697,1.18176 0.70397,1.72817 0.30428,0.4848 0.75531,0.80939 1.25855,1.06085 0.70475,0.31392 1.47854,0.36293 2.23799,0.40589 0.63973,0.0245 1.28015,0.0166 1.92021,0.0153 0.64051,-0.0356 1.25929,-0.003 1.87676,0.17563 0.35803,0.11301 0.7014,0.27532 1.06828,0.35814 0.60179,0.1037 1.20607,0.19162 1.81114,0.27432 0.54401,0.0691 1.091,0.11108 1.63895,0.12976 0.38925,0.009 0.77856,0.0123 1.16791,0.0102 0.76168,-0.006 1.17109,0.19452 1.66441,0.78203 0.30289,0.42502 0.44056,0.92426 0.57619,1.42014 0.13283,0.47144 0.16413,0.96068 0.22431,1.44446 0.0688,0.55262 0.1054,1.10802 0.12164,1.66442 -0.03,0.37915 0.0934,0.9469 -0.0474,1.30054 -0.0801,0.20129 -0.20229,0.38314 -0.30344,0.57472 -0.2072,0.13267 -0.38921,0.31733 -0.62162,0.39822 -0.36409,0.12669 -0.81384,0.0493 -1.18526,0.005 -0.45499,-0.0545 -0.9089,-0.1121 -1.36473,-0.1595 -0.94994,-0.1405 -1.89752,-0.28591 -2.85431,-0.37363 -0.55886,-0.0514 -1.1201,-0.0601 -1.68088,-0.0659 -0.38093,-0.0465 -0.68271,0.0956 -1.01365,0.25931 -0.94378,0.47096 -1.84159,1.00196 -2.64968,1.68192 -0.32912,0.29565 -0.62002,0.63139 -0.81754,1.02981 -0.0751,0.15122 -0.1244,0.31401 -0.18887,0.47009 -0.2484,0.63967 -0.4131,1.30534 -0.64499,1.95131 -0.23537,0.6068 -0.48055,1.21294 -0.7965,1.78241 -0.36829,0.52749 -0.71312,1.10192 -1.23335,1.49784 -0.12533,0.0954 -0.26507,0.1702 -0.39762,0.25531 -0.73347,0.46051 -1.567,0.63081 -2.40884,0.76271 -1.21945,0.21567 -2.45125,0.20875 -3.68363,0.17672 -1.24588,-0.0328 -2.48634,0.1054 -3.72641,0.20239 -0.62934,0.0552 -1.26098,0.0721 -1.89242,0.0795 -0.85621,-0.0123 -1.71236,-0.0163 -2.56864,-0.0102 -0.63286,-0.006 -1.26617,0.0392 -1.89629,-0.0317 -0.29411,-0.0175 -0.57069,-0.11628 -0.85492,-0.17991 -0.4028,-0.0547 -0.80973,-0.0605 -1.2144,-0.0958 -0.70119,-0.0496 -1.18762,-0.16455 -1.64775,-0.78036 -0.22646,-0.30308 -0.29687,-0.72819 -0.38448,-1.08219 -0.22481,-0.93316 -0.34808,-1.87983 -0.35529,-2.83863 0.0401,-0.61941 0.10903,-1.23893 0.20296,-1.85272 0.0458,-0.13252 0.0677,-0.27595 0.13758,-0.39749 0.44835,-0.77954 1.14638,-0.85316 1.95087,-0.9005 0.96067,-0.0154 1.92151,0.005 2.88227,0.0102 0.99741,-0.0458 1.99394,-0.0989 2.99217,-0.12624 1.16146,-0.0234 2.32323,-0.0215 3.48486,-0.0216 0.93621,-0.0219 1.86914,-0.0123 2.80287,0.0566 0.58846,0.0471 1.17841,0.0677 1.76859,0.0734 0.35127,-0.003 0.61243,-0.18578 0.87947,-0.39133 0.38921,-0.31101 0.6382,-0.72116 0.86539,-1.15428 0.18694,-0.44318 0.26723,-0.92121 0.32556,-1.39588 0.0882,-0.57837 0.156,-1.15942 0.19376,-1.74324 0.003,-0.055 0.0137,-0.25191 0.0123,-0.31484 -9e-5,-0.0203 -0.0123,-0.0801 -0.006,-0.0607 0.0607,0.19172 0.091,0.39389 0.16948,0.57902 0.0274,0.0646 0.20334,0.12103 0.14216,0.15534 -0.0728,0.0408 -0.15014,-0.0726 -0.22528,-0.10892 -0.65361,-0.34687 -1.25184,-0.76884 -1.77076,-1.29553 -0.5433,-0.61842 -0.84705,-1.40069 -1.13714,-2.16079 -0.20595,-0.5828 -0.3152,-1.19324 -0.51737,-1.77735 -0.081,-0.1886 -0.12103,-0.43626 -0.26912,-0.59282 -0.005,-0.005 -0.003,0.0199 -0.0123,0.0194 -0.0184,-8.8e-4 -0.0333,-0.0157 -0.0498,-0.0234 -0.48395,-0.0904 -0.96705,-0.18027 -1.45706,-0.23658 -1.35378,-0.0846 -2.70691,0.0412 -4.05689,0.13054 -1.13136,0.0123 -2.22352,0.28088 -3.30394,0.58893 -0.81137,0.20268 -1.56376,0.56799 -2.34001,0.86858 -0.73963,0.28621 -1.52932,0.3282 -2.3121,0.36222 -0.66162,0.0477 -1.22154,0.0311 -1.79135,-0.3756 -0.1241,-0.0886 -0.22798,-0.20223 -0.34194,-0.30336 -0.11613,-0.17122 -0.25219,-0.33055 -0.34858,-0.51364 -0.42935,-0.81569 -0.53934,-1.86459 -0.64748,-2.76704 -0.0706,-0.73841 -0.0931,-1.48025 -0.10585,-2.22156 -0.11199,-0.59106 -0.0577,-1.06513 0.43556,-1.53708 0.1592,-0.15229 0.40104,-0.18251 0.60157,-0.27378 1.14567,-0.1624 2.31274,-0.12042 3.46768,-0.11827 1.24963,0.005 2.49926,0.001 3.74888,-10e-4 0.97539,-0.0137 1.95202,-0.0563 2.89269,-0.33071 0.61311,-0.16973 1.17603,-0.43941 1.72127,-0.75948 0.39288,-0.21772 0.77508,-0.44774 1.1887,-0.6245 0.44292,-0.18609 0.92229,-0.22062 1.3897,-0.30075 1.48367,-0.24585 1.83137,1.85239 0.3477,2.09823 v 0 c -0.29903,0.0484 -0.60555,0.0702 -0.89511,0.16363 -0.33801,0.14615 -0.64909,0.33916 -0.97774,0.50514 -0.70928,0.39589 -1.44603,0.72944 -2.23188,0.9465 -1.12609,0.28275 -2.27912,0.37223 -3.43873,0.38295 -1.2469,-0.006 -2.49379,-0.0176 -3.74072,-0.0123 -0.95071,0.006 -1.90434,-0.003 -2.85166,0.0893 0.31652,-0.25398 0.22022,-0.1316 0.43768,-0.71064 0.0102,-0.0283 0.006,-0.0642 -0.009,-0.0902 -0.0123,-0.0206 -0.003,0.0476 -0.001,0.0714 0.006,0.0726 0.0198,0.14463 0.026,0.21738 0.008,0.0923 0.0102,0.18505 0.0168,0.27757 -0.008,0.6652 -10e-4,1.33139 0.0585,1.99439 0.0458,0.43707 0.0944,0.87112 0.19604,1.29964 0.03,0.12671 0.0693,0.25092 0.10393,0.37637 0.0271,0.0801 0.0609,0.1583 0.0812,0.24037 0.005,0.0183 -0.005,0.0374 -0.008,0.0561 0.0176,0.0233 0.0441,0.0419 0.053,0.0699 0.0167,0.0526 -0.21705,-0.0286 -0.11828,0.0311 0.11017,0.0664 0.53617,-0.0249 0.65948,0.009 0.55611,-0.0184 1.11912,-0.0395 1.64983,-0.22458 0.84146,-0.30668 1.65023,-0.70572 2.53041,-0.8998 1.22368,-0.32709 2.45915,-0.64422 3.7353,-0.65186 1.46125,-0.0754 2.92352,-0.17997 4.38759,-0.14615 0.67492,0.0601 1.52505,0.14938 2.15157,0.41763 0.14416,0.0618 0.27439,0.15167 0.41161,0.2275 0.10097,0.0844 0.2102,0.15994 0.30282,0.25344 0.36926,0.37273 0.57576,0.85884 0.72861,1.35191 0.17968,0.56084 0.31158,1.13424 0.47689,1.69885 0.18345,0.49395 0.37521,1.01152 0.68827,1.43737 0.32353,0.35304 0.72944,0.60325 1.14302,0.83977 0.2414,0.10926 0.6427,0.27587 0.78647,0.45868 0.40453,0.51441 0.39584,0.84224 0.34523,1.38234 -0.0553,0.61299 -0.13528,1.22325 -0.22135,1.8326 -0.089,0.73276 -0.22343,1.46897 -0.54987,2.13792 -0.37916,0.70215 -0.83527,1.34593 -1.46854,1.84554 -0.67326,0.49911 -1.33243,0.83284 -2.19037,0.82619 -0.63115,-0.0185 -1.26264,-0.0365 -1.89187,-0.0926 -0.87722,-0.0733 -1.75341,-0.11063 -2.63443,-0.0892 -1.14316,0.003 -2.28648,0.006 -3.42936,0.0357 -1.01973,0.0295 -2.0379,0.0932 -3.05774,0.11934 -0.91621,-0.003 -1.83294,-0.005 -2.7487,0.0267 -0.12792,0.008 -0.25548,0.0357 -0.3835,0.029 -0.008,0 -0.003,-0.0171 0.003,-0.0227 0.0412,-0.0444 0.0974,-0.075 0.13314,-0.12394 0.13757,-0.18905 0.12209,-0.17612 0.13619,-0.34063 -0.0992,0.49064 -0.14003,0.99366 -0.202,1.48977 -0.005,0.79179 0.0949,1.57467 0.29297,2.34271 0.0449,0.18897 0.0971,0.31715 0.0348,0.29665 -0.0864,-0.0285 -0.15897,-0.0912 -0.24524,-0.12042 -0.0253,-0.009 -0.10449,0 -0.0795,0.0102 0.0714,0.0277 0.41247,0.057 0.4594,0.0619 0.50838,0.0415 1.02241,0.0277 1.52594,0.12455 0.26532,0.0634 0.36566,0.1079 0.6402,0.14601 0.5349,0.0879 1.08176,0.0249 1.62134,0.0504 0.84882,0.006 1.6976,0.006 2.54627,-0.0137 0.59134,-0.005 1.18261,-0.0158 1.77313,-0.0496 1.29893,-0.0721 2.59786,-0.16454 3.89944,-0.16658 1.1042,0.006 2.21126,0.0219 3.30242,-0.18079 0.5686,-0.10438 1.14926,-0.20138 1.6518,-0.50557 0.0284,-0.0153 0.2034,-0.10279 0.23879,-0.13697 0.25747,-0.24848 0.44159,-0.56459 0.64895,-0.85238 0.26569,-0.45776 0.45406,-0.96142 0.65351,-1.45013 0.23836,-0.67704 0.42588,-1.36972 0.68198,-2.04042 0.1071,-0.26523 0.20191,-0.51828 0.33885,-0.77169 0.32298,-0.59758 0.79863,-1.0934 1.30427,-1.53838 0.94708,-0.76074 1.98077,-1.38232 3.03448,-1.98377 0.61885,-0.30003 1.26905,-0.5217 1.96841,-0.47467 0.62671,0.006 1.25346,0.0328 1.87694,0.0997 0.95511,0.11052 1.90678,0.24503 2.8586,0.38002 0.45224,0.0492 0.90381,0.10676 1.35642,0.15213 0.10586,0.0102 0.22334,-0.0214 0.31811,0.0271 0.15608,0.0798 -1.13831,0.18613 -0.4047,0.33572 -0.19917,0.58258 -0.0931,0.36722 -0.0878,0.19387 0.006,-0.22674 -0.009,-0.45401 -0.008,-0.68075 -0.0137,-0.48503 -0.0369,-0.97028 -0.10143,-1.45169 -0.053,-0.38684 -0.0851,-0.77775 -0.17454,-1.1583 -0.062,-0.2276 -0.12471,-0.47356 -0.21759,-0.67975 0.26954,0.0694 0.44638,0.10665 0.0351,0.0483 -0.42209,-0.001 -0.84447,0.008 -1.26625,-0.0102 -0.60698,-0.0329 -1.21122,-0.0989 -1.81429,-0.17427 -0.6783,-0.0842 -1.35573,-0.17392 -2.02982,-0.28749 -0.41776,-0.10086 -0.81974,-0.24415 -1.21914,-0.40251 -0.38742,-0.15951 -0.82019,-0.062 -1.22741,-0.086 -0.68496,0.003 -1.36988,-8.6e-4 -2.05386,-0.0438 -1.04992,-0.066 -2.1083,-0.16094 -3.07056,-0.62553 -0.93202,-0.48408 -1.58241,-0.99969 -2.14117,-1.90703 -0.37414,-0.67725 -0.68219,-1.38364 -0.88687,-2.13176 -0.199,-0.66202 -0.43317,-1.31426 -0.68568,-1.95761 -0.18473,-0.44684 -0.34941,-0.9174 -0.66729,-1.29055 -0.28,-0.37905 -0.82878,-0.48843 -1.24399,-0.63581 -0.57239,-0.1434 -1.16096,-0.30612 -1.75543,-0.28999 -1.51742,0 -1.51742,-2.14594 0,-2.14594 z" /><path
       style="fill:#0e0c20;fill-opacity:1;stroke:#b6c3ef;stroke-width:0.463804;stroke-linecap:round;stroke-linejoin:round;stroke-dasharray:none;stroke-opacity:1"
       id="path171"
       d="m 173.18191,210.22817 c -0.39631,-0.55594 -0.9013,-1.05236 -1.48806,-1.40755 -0.19028,-0.11509 -0.39392,-0.20667 -0.59088,-0.30998 -1.04141,-0.42278 -2.14743,-0.72458 -3.2771,-0.75248 -0.19375,-0.005 -0.38756,0.008 -0.58133,0.0135 -0.97499,0.0857 -1.87973,0.45758 -2.61782,1.10333 -0.13225,0.11576 -0.25008,0.24695 -0.37511,0.37043 -0.47643,0.54978 -0.90224,1.18641 -1.08826,1.90021 -0.0387,0.14874 -0.0577,0.30198 -0.0865,0.45298 -0.0587,0.79994 0.0885,1.61999 0.49277,2.32106 0.0893,0.15497 0.20068,0.29612 0.30103,0.4442 0.60763,0.68238 1.34271,1.27156 2.17177,1.66554 0.17682,0.0841 0.36154,0.15042 0.54229,0.22556 0.92632,0.3434 1.8943,0.4654 2.87566,0.47201 1.02445,-0.005 1.926,-0.45892 2.79826,-0.946 0.59277,-0.39515 1.1981,-0.83518 1.62862,-1.41376 0.0845,-0.11374 0.15429,-0.23765 0.23139,-0.35647 0.34713,-0.59509 0.52038,-1.19969 0.55556,-1.88313 0.0222,-0.66745 -0.15395,-1.30457 -0.32463,-1.94206 -0.21419,-0.63904 -0.30948,-1.30531 -0.39609,-1.97096 -0.0764,-0.88076 -0.15968,-1.76131 -0.21677,-2.64367 -0.0471,-0.6725 -0.0554,-1.34433 -0.0151,-2.01694 0.0478,-0.73799 0.19812,-1.45691 0.37139,-2.17343 0.11391,-0.44047 0.18089,-0.92679 0.42986,-1.31821 0.0279,-0.039 0.0517,-0.0813 0.0836,-0.11677 0.0374,-0.0412 0.0934,-0.0604 0.13931,-0.092 0.15581,-0.10701 0.3051,-0.21683 0.47178,-0.30641 0.29451,-0.14588 0.60836,-0.22794 0.93217,-0.274 0.26056,-0.0412 0.5187,-0.10668 0.78189,-0.13124 0.0273,-0.003 0.10937,-0.005 0.0823,-7.9e-4 -0.0471,0.008 -0.0949,0.008 -0.14252,0.0101 -0.21104,-0.0345 -0.14924,-0.0782 -0.11946,0.0769 0.008,0.0924 0.0527,0.20164 -0.0293,0.2695 -0.27189,0.42323 -0.57532,0.82703 -0.88687,1.22198 -0.36135,0.42948 -0.7218,0.84996 -0.99786,1.34023 -0.31035,0.51152 -0.51584,1.06754 -0.67165,1.64239 -0.13595,0.54059 -0.23044,1.08828 -0.28477,1.64277 -0.12552,0.82166 0.1622,1.51969 0.48518,2.25501 0.22627,0.44966 0.44884,0.92854 0.86959,1.23248 0.0848,0.0612 0.18001,0.1065 0.27003,0.15967 0.51603,0.20435 1.07075,0.18049 1.61518,0.17744 0.52631,0.001 1.05009,-0.0624 1.55605,-0.2056 0.56868,-0.23036 1.01402,-0.64212 1.37952,-1.12455 0.31165,-0.43255 0.37348,-0.94222 0.40005,-1.45846 0.0101,-0.74556 -0.21029,-1.12971 -0.81753,-1.54932 -0.45855,-0.24096 -0.967,-0.26858 -1.47315,-0.28468 -0.40212,-0.0336 -0.781,0.0101 -1.16045,0.14352 -1.25319,0.51689 -0.52223,2.28914 0.73096,1.77227 v 0 c -0.1516,0.0236 -0.0264,0.008 -0.0247,-0.001 0.001,-0.0101 -0.039,-0.008 -0.0289,-0.008 0.14167,-0.0135 0.28627,0.005 0.42811,-6.4e-4 0.13948,0.005 0.27883,0.008 0.41783,0.0209 0.0256,0.003 0.1341,0.0172 0.13545,0.0151 0.008,-0.0101 -0.0183,-0.0192 -0.0271,-0.0288 -0.0808,-0.10869 -0.15345,-0.54338 -0.0841,-0.17057 -0.005,0.1447 0.005,0.30047 -0.0432,0.43617 -0.0978,0.16691 -0.26375,0.27924 -0.38693,0.41707 -0.31605,0.11845 -0.67466,0.11408 -1.0072,0.1272 -0.19782,9e-5 -0.39557,0.001 -0.59329,-0.008 -0.0952,-0.005 -0.19642,-0.0135 -0.19692,-0.0118 -0.008,0.021 0.0368,0.0256 0.0554,0.0382 0.005,0.005 0.0801,0.12232 0.008,0.0444 -0.13224,-0.14555 -0.19798,-0.33854 -0.30398,-0.50131 -0.0949,-0.20926 -0.32556,-0.62817 -0.34045,-0.85881 -0.003,-0.0507 0.0205,-0.39362 0.0241,-0.44921 0.0417,-0.45228 0.12047,-0.89705 0.22544,-1.33902 0.1087,-0.42584 0.27229,-0.82858 0.50247,-1.2046 0.21885,-0.40407 0.54321,-0.73377 0.81904,-1.09952 0.42267,-0.54063 0.86733,-1.07969 1.17828,-1.69379 0.0422,-0.12216 0.0947,-0.24137 0.12687,-0.36662 0.11004,-0.42871 0.0404,-0.88339 -0.0925,-1.29695 -0.24535,-0.57532 -0.61566,-1.03719 -1.2322,-1.23746 -0.13865,-0.0173 -0.27632,-0.0451 -0.41583,-0.052 -0.34328,-0.017 -0.68511,0.12821 -1.02373,0.15782 -0.54902,0.0897 -1.08598,0.23973 -1.57883,0.50422 -0.54522,0.31886 -1.08714,0.67915 -1.41311,1.23717 -0.30326,0.5664 -0.48033,1.18135 -0.59768,1.81253 -0.19177,0.82269 -0.36171,1.64925 -0.42335,2.49384 -0.0464,0.75374 -0.0348,1.50686 0.0254,2.26001 0.068,0.91338 0.159,1.82481 0.23014,2.73792 0.0855,0.75403 0.18788,1.50825 0.42961,2.23103 0.12199,0.46138 0.26034,0.91939 0.24828,1.4024 0.0151,0.33409 -0.12114,0.65368 -0.26621,0.94774 -0.26089,0.4847 -0.73325,0.81906 -1.17068,1.13461 -0.58335,0.33419 -1.19091,0.6721 -1.87815,0.70048 -0.73796,0.005 -1.47263,-0.0878 -2.175,-0.32314 -0.70925,-0.28019 -1.35602,-0.68589 -1.88229,-1.2445 -0.30441,-0.40454 -0.48219,-0.86459 -0.4678,-1.37828 0.0535,-0.50802 0.32881,-0.9629 0.64745,-1.35145 0.50105,-0.53274 0.98287,-0.83548 1.72389,-0.92797 1.02458,-0.0533 2.00025,0.12636 2.94666,0.53088 0.50719,0.25208 0.99196,0.57889 1.29281,1.07257 0.71013,1.15567 2.34447,0.15143 1.63436,-1.00425 z" /></g></svg>
