<?xml version="1.0" encoding="UTF-8" standalone="no"?>
<!-- Created with Inkscape (http://www.inkscape.org/) -->

<svg
   width="13.019013mm"
   height="9.990653mm"
   viewBox="0 0 13.019013 9.990653"
   version="1.1"
   id="svg1"
   xml:space="preserve"
   inkscape:version="1.3 (0e150ed, 2023-07-21)"
   sodipodi:docname="elliptic.svg"
   xmlns:inkscape="http://www.inkscape.org/namespaces/inkscape"
   xmlns:sodipodi="http://sodipodi.sourceforge.net/DTD/sodipodi-0.dtd"
   xmlns="http://www.w3.org/2000/svg"
   xmlns:svg="http://www.w3.org/2000/svg"><sodipodi:namedview
     id="namedview1"
     pagecolor="#ffffff"
     bordercolor="#000000"
     borderopacity="0.25"
     inkscape:showpageshadow="2"
     inkscape:pageopacity="0.0"
     inkscape:pagecheckerboard="0"
     inkscape:deskcolor="#d1d1d1"
     inkscape:document-units="mm"
     inkscape:zoom="1.0280428"
     inkscape:cx="424.10686"
     inkscape:cy="616.21949"
     inkscape:window-width="1581"
     inkscape:window-height="871"
     inkscape:window-x="26"
     inkscape:window-y="23"
     inkscape:window-maximized="0"
     inkscape:current-layer="layer1"
     inkscape:export-bgcolor="#ffffff00" /><defs
     id="defs1" /><g
     inkscape:label="Layer 1"
     inkscape:groupmode="layer"
     id="layer1"
     transform="translate(-110.10482,-111.92576)"><path
       style="fill:#0e0c20;fill-opacity:1;stroke:#b6c3ef;stroke-width:0.13958;stroke-linecap:round;stroke-linejoin:round;stroke-dasharray:none;stroke-opacity:1"
       id="path50"
       d="m 122.26087,119.30624 c -0.23617,-0.72634 -0.48001,-1.44175 -0.72354,-2.15691 -0.333,-1.0156 -0.69126,-1.99023 -1.03989,-2.98057 -0.10994,-0.31313 -0.2043,-0.64894 -0.30481,-0.97573 -0.0217,-0.0705 -0.0393,-0.14848 -0.0665,-0.2094 -0.0338,-0.0756 -0.11245,-0.0912 -0.15128,-0.10881 -0.44951,-0.16036 -0.90822,-0.0897 -1.36004,-0.0242 -0.56583,0.082 -0.71752,0.12212 -1.29832,0.24079 -1.25263,0.27838 -2.50393,0.58418 -3.75697,0.85432 -0.49735,0.10785 -0.99612,0.18211 -1.49576,0.21414 -0.0187,0.0797 -0.1241,-0.0409 -0.15702,0.0479 -0.006,0.0157 0.0234,0.007 0.025,0.0271 0.003,0.0357 -0.009,0.0696 -0.0144,0.10423 -0.0615,0.42471 -0.0107,0.0513 -0.0814,0.59184 -0.13833,1.02707 -0.29151,2.04358 -0.48875,3.02567 -0.17017,0.70926 -0.39215,1.35083 -0.59805,2.01247 -0.0808,0.25896 -0.13527,0.54964 -0.17655,0.8472 -0.005,-0.1677 -0.0138,0.18703 -0.0116,0.13989 0.002,-0.0387 0.003,-0.0776 0.004,-0.11644 -0.009,-0.0438 -0.0287,-0.0835 -0.0274,-0.13136 6.1e-4,-0.0221 0.0206,7.3e-4 0.0308,0.004 0.0422,0.0128 0.0842,0.0291 0.12639,0.0436 0.67374,0.12242 1.34946,0.20592 2.0249,0.27593 0.94105,0.12045 1.88287,0.0522 2.82405,-0.0115 0.72566,-0.0415 1.45085,-0.10851 2.17622,-0.16681 0.50889,-0.0375 1.01817,-0.0341 1.52653,-0.0996 0.48556,-0.0744 0.96757,-0.222 1.4481,-0.38494 0.2646,-0.0883 0.53012,-0.16585 0.79642,-0.22649 0.23968,-0.0769 0.4812,-0.10835 0.72316,-0.12493 0.0514,-0.002 0.10288,-0.004 0.15432,-0.006 0.0922,-0.004 0.18444,-0.005 0.27663,-0.0102 0.0342,-0.002 0.0686,0.002 0.10258,-0.008 0.0109,-0.003 0.041,-0.0316 0.0301,-0.0292 -0.0207,0.004 -0.0401,0.0239 -0.0601,0.0359 -0.0183,0.062 -0.0366,0.1239 -0.0549,0.18585 -0.004,0.008 -0.006,0.0322 -0.0109,0.0255 -0.0135,-0.0205 -0.0191,-0.0582 -0.0293,-0.0862 -0.0149,-0.041 -0.0303,-0.0812 -0.0461,-0.12059 -0.0419,-0.10405 -0.0855,-0.20467 -0.12813,-0.30733 -0.0865,-0.18399 -0.17113,-0.36789 -0.24483,-0.57624 -0.1616,-0.48049 0.15479,-0.97129 0.31639,-0.49081 v 0 c 0.0595,0.1952 0.14356,0.34289 0.21642,0.51426 0.0958,0.22944 0.31959,0.69885 0.31768,1.02034 -8.9e-4,0.14293 -0.0348,0.27592 -0.0523,0.41386 -0.0438,0.0659 -0.083,0.14915 -0.13148,0.1975 -0.0567,0.0564 -0.161,0.0478 -0.22106,0.049 -0.14044,0.003 -0.28093,7.3e-4 -0.4213,0.0136 -0.23315,0.0199 -0.46585,0.0544 -0.69687,0.12774 -0.26047,0.0571 -0.5205,0.12546 -0.77996,0.20053 -0.49243,0.15421 -0.98592,0.29351 -1.48183,0.38587 -0.51162,0.068 -1.02418,0.0466 -1.53635,0.0884 -0.72598,0.0509 -1.45206,0.0845 -2.17821,0.12254 -0.95008,0.0639 -1.90064,0.13771 -2.85073,0.0213 -0.40871,-0.0369 -0.81698,-0.0838 -1.22551,-0.12757 -0.20357,-0.0219 -0.40741,-0.0314 -0.61089,-0.0565 -0.0769,-0.01 -0.15357,-0.0252 -0.23035,-0.0378 -0.0958,-0.0306 -0.24567,-0.048 -0.33283,-0.17934 -0.13817,-0.20825 -0.15228,-0.50461 -0.10434,-0.81632 0.0558,-0.37363 0.12542,-0.74097 0.23121,-1.0635 0.19793,-0.61318 0.41278,-1.20388 0.57552,-1.86501 0.19197,-0.94508 0.3394,-1.92572 0.4644,-2.92102 0.0409,-0.33479 0.0801,-0.82477 0.19437,-1.08867 0.11374,-0.26274 0.23691,-0.29386 0.39095,-0.28952 0.49118,-0.009 0.98195,-0.0582 1.47164,-0.14166 1.25419,-0.21642 2.50556,-0.49853 3.75581,-0.80138 0.61192,-0.14004 0.71369,-0.1703 1.30759,-0.2806 0.49685,-0.0923 1.00317,-0.20729 1.49847,-0.0197 0.0711,0.0557 0.14734,0.0875 0.21329,0.16721 0.11908,0.14396 0.14655,0.27019 0.21167,0.49198 0.092,0.31335 0.17937,0.63336 0.28156,0.93244 0.34388,0.99907 0.69384,1.98841 1.03362,2.99409 0.24699,0.70444 0.49007,1.41511 0.74243,2.1108 0.16882,0.47326 -0.14281,0.98603 -0.31164,0.51276 z" /><path
       style="fill:#0e0c20;fill-opacity:1;stroke:#b6c3ef;stroke-width:0.13958;stroke-linecap:round;stroke-linejoin:round;stroke-dasharray:none;stroke-opacity:1"
       id="path51"
       d="m 119.50744,114.49514 c -0.0375,-0.005 -0.0493,-0.009 -0.0931,-0.002 -0.1339,0.0201 -0.26726,0.0547 -0.40107,0.0778 -0.42154,0.0725 -0.58298,0.0903 -1.03778,0.15335 -1.03488,0.15821 -2.06808,0.36145 -3.10079,0.57395 -0.21482,0.0318 -0.23575,-0.6207 -0.0209,-0.65248 v 0 c 1.03413,-0.0932 2.06795,-0.22998 3.09586,-0.49866 0.47571,-0.13116 0.58615,-0.1506 1.01797,-0.30357 0.0865,-0.0306 0.17252,-0.0676 0.25878,-0.10143 0.052,-0.0212 0.10372,-0.0449 0.1559,-0.0636 0.0652,-0.0234 0.0752,-0.0233 0.12519,-0.0302 0.27882,0 0.27882,0.84684 0,0.84684 z" /><path
       style="fill:#0e0c20;fill-opacity:1;stroke:#b6c3ef;stroke-width:0.13958;stroke-linecap:round;stroke-linejoin:round;stroke-dasharray:none;stroke-opacity:1"
       id="path52"
       d="m 119.63329,115.86734 c -0.0605,0.007 -0.12099,0.0113 -0.1814,0.0201 -0.34237,0.0498 -0.59008,0.10012 -0.9461,0.17451 -0.75362,0.15745 -1.50547,0.34275 -2.25737,0.53369 -0.86254,0.23202 -1.72769,0.41933 -2.59541,0.53253 -0.31475,0.0356 -0.62981,0.0159 -0.94473,0.0122 -0.26478,-0.0147 -0.25513,-0.81888 0.01,-0.80422 v 0 c 0.30713,0.0304 0.61459,0.053 0.92204,0.0555 0.21386,-0.007 0.34897,-0.009 0.56815,-0.0258 0.67245,-0.051 1.34361,-0.16207 2.01359,-0.2931 0.24182,-0.0525 0.48392,-0.0995 0.72546,-0.1576 0.88431,-0.21255 1.76557,-0.49425 2.63806,-0.87079 0.27095,-0.073 0.31901,0.74997 0.0481,0.82296 z" /><path
       style="fill:#0e0c20;fill-opacity:1;stroke:#b6c3ef;stroke-width:0.13958;stroke-linecap:round;stroke-linejoin:round;stroke-dasharray:none;stroke-opacity:1"
       id="path53"
       d="m 119.26264,117.55433 c -0.0339,-1.8e-4 -0.0678,-0.003 -0.10165,-8.8e-4 -0.87418,0.0574 -1.74528,0.26108 -2.6148,0.45043 -0.16758,0.037 -0.33517,0.0739 -0.50275,0.1108 -0.20573,0.0368 -0.22997,-0.58803 -0.0243,-0.62485 v 0 c 0.16724,-0.023 0.33448,-0.046 0.50172,-0.069 0.1979,-0.036 0.396,-0.0675 0.59371,-0.10809 0.38824,-0.0797 0.85754,-0.19486 1.2457,-0.30421 0.63392,-0.17859 0.28408,-0.0874 0.77353,-0.25365 0.0428,-0.0145 0.0859,-0.0245 0.12878,-0.0368 0.27524,0 0.27524,0.83597 0,0.83597 z" /><path
       style="fill:#0e0c20;fill-opacity:1;stroke:#b6c3ef;stroke-width:0.13958;stroke-linecap:round;stroke-linejoin:round;stroke-dasharray:none;stroke-opacity:1"
       id="path54"
       d="m 120.46287,118.85803 c -0.39844,0.0506 -0.79772,0.0654 -1.19654,0.0996 -0.15263,0.0141 -0.30526,0.0284 -0.45789,0.0422 -0.26287,0.009 -0.26881,-0.78938 -0.006,-0.7984 v 0 c 0.15128,0.004 0.30258,0.006 0.45387,0.002 0.23203,-0.008 0.46364,-0.0211 0.69522,-0.0554 0.12461,-0.0184 0.2362,-0.0383 0.35858,-0.0785 0.0272,-0.009 0.0539,-0.0234 0.0809,-0.0351 0.27114,-0.10903 0.34293,0.71448 0.0718,0.82351 z" /><path
       style="fill:#0e0c20;fill-opacity:1;stroke:#b6c3ef;stroke-width:0.13958;stroke-linecap:round;stroke-linejoin:round;stroke-dasharray:none;stroke-opacity:1"
       id="path55"
       d="m 117.95432,119.3953 c -0.0617,-0.0192 -0.057,-0.0216 -0.14547,-0.0117 -0.20405,0.0229 -0.38246,0.0704 -0.58825,0.12715 -0.12831,0.0354 -0.8182,0.24237 -0.92529,0.27438 -0.61767,0.18638 -0.31897,0.0944 -0.89613,0.27525 -0.21679,0.0609 -0.25687,-0.59756 -0.0401,-0.65844 v 0 c 0.57615,-0.14306 0.27856,-0.0631 0.89261,-0.24242 0.62144,-0.21396 0.3313,-0.10758 0.92135,-0.33484 0.0436,-0.0168 0.52504,-0.20444 0.61214,-0.23217 0.13694,-0.0436 0.1214,-0.0385 0.22054,-0.0339 0.27548,0.0781 0.22407,0.91477 -0.0514,0.83671 z" /><path
       style="fill:#0e0c20;fill-opacity:1;stroke:#b6c3ef;stroke-width:0.13958;stroke-linecap:round;stroke-linejoin:round;stroke-dasharray:none;stroke-opacity:1"
       id="path56"
       d="m 113.56486,115.69248 c -0.0944,-0.0179 -0.18903,-0.0276 -0.28371,-0.0348 -0.26999,-0.0252 -0.25343,-0.84518 0.0166,-0.82003 v 0 c 0.089,0.01 0.17803,0.0204 0.26715,0.018 0.27553,0 0.27553,0.83686 0,0.83686 z" /><path
       style="fill:#0e0c20;fill-opacity:1;stroke:#b6c3ef;stroke-width:0.13958;stroke-linecap:round;stroke-linejoin:round;stroke-dasharray:none;stroke-opacity:1"
       id="path57"
       d="m 114.85064,118.35498 c -0.22738,0.0533 -0.45647,0.0542 -0.68465,0.0839 -0.0827,0.0108 -0.16524,0.0246 -0.24786,0.0369 -0.24345,0.0372 -0.26797,-0.7022 -0.0245,-0.73943 v 0 c 0.29005,-0.0456 0.20346,-0.0286 0.49129,-0.0871 0.12565,-0.0255 0.19913,-0.0359 0.31733,-0.0798 0.0248,-0.009 0.0492,-0.0232 0.0738,-0.0348 0.27008,-0.11329 0.34468,0.70702 0.0746,0.82032 z" /><path
       style="fill:#0e0c20;fill-opacity:1;stroke:#b6c3ef;stroke-width:0.13958;stroke-linecap:round;stroke-linejoin:round;stroke-dasharray:none;stroke-opacity:1"
       id="path58"
       d="m 114.09713,120.05499 c -0.37905,-0.0494 -0.75898,-0.045 -1.13852,-0.0386 -0.23711,0 -0.23711,-0.72017 0,-0.72017 v 0 c 0.37954,0.006 0.75947,0.0108 1.13852,-0.0385 0.26249,0 0.26249,0.79725 0,0.79725 z" /></g></svg>
