<?xml version="1.0" encoding="UTF-8" standalone="no"?>
<!-- Created with Inkscape (http://www.inkscape.org/) -->

<svg
   width="204.895mm"
   height="17.679041mm"
   viewBox="0 0 204.895 17.679041"
   version="1.1"
   id="svg1"
   xml:space="preserve"
   inkscape:version="1.3 (0e150ed, 2023-07-21)"
   sodipodi:docname="elliptic.svg"
   xmlns:inkscape="http://www.inkscape.org/namespaces/inkscape"
   xmlns:sodipodi="http://sodipodi.sourceforge.net/DTD/sodipodi-0.dtd"
   xmlns="http://www.w3.org/2000/svg"
   xmlns:svg="http://www.w3.org/2000/svg"><sodipodi:namedview
     id="namedview1"
     pagecolor="#ffffff"
     bordercolor="#000000"
     borderopacity="0.25"
     inkscape:showpageshadow="2"
     inkscape:pageopacity="0.0"
     inkscape:pagecheckerboard="0"
     inkscape:deskcolor="#d1d1d1"
     inkscape:document-units="mm"
     inkscape:zoom="1.0280428"
     inkscape:cx="484.41564"
     inkscape:cy="732.94615"
     inkscape:window-width="1581"
     inkscape:window-height="871"
     inkscape:window-x="26"
     inkscape:window-y="23"
     inkscape:window-maximized="0"
     inkscape:current-layer="layer1"
     inkscape:export-bgcolor="#ffffff00" /><defs
     id="defs1" /><g
     inkscape:label="Layer 1"
     inkscape:groupmode="layer"
     id="layer1"
     transform="translate(-1.6285271,-107.86214)"><rect
       style="fill:#e2e4ff;fill-opacity:1;stroke:#b6c3ef;stroke-width:0.54827;stroke-linecap:round;stroke-linejoin:round;stroke-dasharray:none;stroke-opacity:1"
       id="rect5-6-6"
       width="204.34674"
       height="17.130774"
       x="1.9026622"
       y="108.13628" /><path
       style="fill:#0e0c20;fill-opacity:1;stroke:#b6c3ef;stroke-width:0.132071;stroke-linecap:round;stroke-linejoin:round;stroke-dasharray:none;stroke-opacity:1"
       id="path50-6"
       d="m 114.52287,118.55557 c -0.22346,-0.68725 -0.45418,-1.36417 -0.68462,-2.04087 -0.31508,-0.96095 -0.65406,-1.88313 -0.98394,-2.82019 -0.10404,-0.29629 -0.1933,-0.61404 -0.28841,-0.92324 -0.0206,-0.0667 -0.0373,-0.14049 -0.0629,-0.19813 -0.032,-0.0716 -0.10643,-0.0862 -0.14309,-0.1029 -0.42533,-0.15168 -0.85936,-0.0849 -1.28687,-0.0228 -0.53538,0.0775 -0.67891,0.11552 -1.22846,0.22783 -1.18524,0.2634 -2.36921,0.55274 -3.55484,0.80835 -0.47059,0.10199 -0.94252,0.17232 -1.41529,0.20262 -0.0177,0.0754 -0.1174,-0.0387 -0.14857,0.0453 -0.006,0.0153 0.0221,0.006 0.0236,0.0256 0.003,0.0337 -0.009,0.0659 -0.0136,0.0987 -0.0582,0.40186 -0.0102,0.0486 -0.077,0.56 -0.13088,0.97181 -0.27583,1.93363 -0.46245,2.86288 -0.16102,0.67109 -0.37105,1.27815 -0.56587,1.90419 -0.0764,0.24503 -0.12799,0.52006 -0.16705,0.80163 -0.005,-0.1587 -0.0131,0.17696 -0.0114,0.13236 0.002,-0.0366 0.003,-0.0734 0.003,-0.11017 -0.009,-0.0416 -0.0271,-0.0791 -0.0259,-0.12426 5.8e-4,-0.0208 0.0195,7e-4 0.0291,0.003 0.04,0.0123 0.0796,0.0276 0.1196,0.0412 0.63748,0.11582 1.27684,0.19484 1.91595,0.26107 0.89041,0.11399 1.78156,0.0493 2.6721,-0.0102 0.68662,-0.0392 1.37279,-0.10268 2.05913,-0.15783 0.48152,-0.0355 0.96339,-0.0324 1.4444,-0.0943 0.45943,-0.0703 0.91551,-0.21005 1.37019,-0.36422 0.25037,-0.0835 0.5016,-0.15694 0.75357,-0.21433 0.22679,-0.0728 0.45531,-0.10245 0.68426,-0.11827 0.0487,-10e-4 0.0973,-0.003 0.14599,-0.006 0.0872,-0.003 0.17452,-0.005 0.26176,-0.009 0.0324,-10e-4 0.065,0.001 0.097,-0.008 0.0102,-0.003 0.0387,-0.0299 0.0285,-0.0276 -0.0196,0.003 -0.038,0.0227 -0.0568,0.034 -0.0173,0.0587 -0.0346,0.1172 -0.0519,0.17585 -0.003,0.008 -0.006,0.0304 -0.0102,0.0241 -0.0123,-0.0194 -0.0181,-0.055 -0.0277,-0.0816 -0.0137,-0.0387 -0.0286,-0.0769 -0.0437,-0.11414 -0.0396,-0.0985 -0.0809,-0.19366 -0.12118,-0.29079 -0.0818,-0.17411 -0.16193,-0.3481 -0.23167,-0.54524 -0.1529,-0.45463 0.14647,-0.91904 0.29936,-0.46441 v 0 c 0.0562,0.1847 0.1359,0.32444 0.20477,0.48659 0.0907,0.2171 0.30241,0.66125 0.30059,0.96545 -8.4e-4,0.13528 -0.0329,0.26108 -0.0495,0.3916 -0.0413,0.0623 -0.0786,0.1411 -0.1244,0.18687 -0.0536,0.0533 -0.15229,0.0452 -0.20916,0.0464 -0.13283,0.003 -0.26583,6.9e-4 -0.39864,0.0123 -0.2206,0.0189 -0.44079,0.0515 -0.65937,0.12088 -0.24647,0.0541 -0.4925,0.11874 -0.738,0.18974 -0.46593,0.14585 -0.93288,0.27772 -1.4021,0.3651 -0.4841,0.0643 -0.96908,0.0441 -1.4537,0.0837 -0.68691,0.0482 -1.37393,0.08 -2.06101,0.11598 -0.89896,0.0605 -1.79838,0.13023 -2.69736,0.0202 -0.38671,-0.035 -0.77301,-0.0794 -1.15957,-0.12073 -0.19262,-0.0207 -0.38549,-0.0298 -0.57801,-0.0535 -0.0728,-0.009 -0.14532,-0.0238 -0.21796,-0.0357 -0.0906,-0.029 -0.23245,-0.0455 -0.31492,-0.16969 -0.13073,-0.19706 -0.1441,-0.47746 -0.0987,-0.77241 0.0528,-0.35352 0.11868,-0.70109 0.21877,-1.00628 0.18728,-0.58018 0.39058,-1.1391 0.54456,-1.76466 0.18164,-0.89422 0.32114,-1.8221 0.43941,-2.76386 0.0387,-0.31678 0.0758,-0.78039 0.18391,-1.0301 0.10767,-0.2486 0.22417,-0.27804 0.36993,-0.27394 0.46474,-0.009 0.92911,-0.055 1.39245,-0.13406 1.18671,-0.20477 2.37076,-0.47169 3.55374,-0.75825 0.57899,-0.13251 0.67528,-0.16114 1.23724,-0.2655 0.47011,-0.0874 0.94919,-0.19614 1.41785,-0.0187 0.0672,0.0527 0.13941,0.0827 0.20181,0.15821 0.11267,0.13619 0.13865,0.25564 0.20028,0.4655 0.087,0.29649 0.16972,0.59928 0.26641,0.88229 0.32537,0.9453 0.65651,1.88142 0.97801,2.83298 0.2337,0.66655 0.46371,1.33898 0.7025,1.99723 0.15972,0.44781 -0.13514,0.93299 -0.2949,0.48517 z" /><path
       style="fill:#0e0c20;fill-opacity:1;stroke:#b6c3ef;stroke-width:0.132071;stroke-linecap:round;stroke-linejoin:round;stroke-dasharray:none;stroke-opacity:1"
       id="path51-3"
       d="m 111.91758,114.00333 c -0.0356,-0.005 -0.0466,-0.009 -0.0881,-0.001 -0.1267,0.019 -0.25289,0.0518 -0.3795,0.0737 -0.39885,0.0686 -0.55161,0.0855 -0.98193,0.14509 -0.9792,0.14967 -1.95682,0.342 -2.93397,0.54305 -0.20326,0.03 -0.22306,-0.5873 -0.0198,-0.61738 v 0 c 0.97848,-0.0883 1.95668,-0.21759 2.92929,-0.47182 0.45012,-0.12409 0.55461,-0.14248 0.9632,-0.28724 0.0818,-0.029 0.16324,-0.0639 0.24486,-0.0959 0.0492,-0.0201 0.0983,-0.0425 0.14754,-0.0602 0.0618,-0.022 0.0711,-0.022 0.11843,-0.0285 0.26381,0 0.26381,0.80126 0,0.80126 z" /><path
       style="fill:#0e0c20;fill-opacity:1;stroke:#b6c3ef;stroke-width:0.132071;stroke-linecap:round;stroke-linejoin:round;stroke-dasharray:none;stroke-opacity:1"
       id="path52-9"
       d="m 112.03666,115.30169 c -0.0572,0.006 -0.11445,0.0102 -0.17164,0.019 -0.32395,0.0472 -0.55834,0.0947 -0.8952,0.16512 -0.71307,0.14892 -1.42447,0.3243 -2.13592,0.50499 -0.81613,0.21953 -1.63473,0.39676 -2.45577,0.50387 -0.29782,0.0337 -0.59592,0.0153 -0.8939,0.0123 -0.25053,-0.0137 -0.2414,-0.77483 0.009,-0.76094 v 0 c 0.29061,0.0289 0.58153,0.0501 0.87243,0.0526 0.20236,-0.006 0.33019,-0.009 0.53759,-0.0244 0.63627,-0.0483 1.27131,-0.15333 1.90525,-0.27732 0.22881,-0.0496 0.45788,-0.0943 0.68643,-0.14907 0.83672,-0.20113 1.67056,-0.46766 2.49612,-0.82395 0.25637,-0.0691 0.30184,0.70963 0.0456,0.7787 z" /><path
       style="fill:#0e0c20;fill-opacity:1;stroke:#b6c3ef;stroke-width:0.132071;stroke-linecap:round;stroke-linejoin:round;stroke-dasharray:none;stroke-opacity:1"
       id="path53-4"
       d="m 111.68596,116.89792 c -0.032,-1.7e-4 -0.0642,-0.003 -0.0962,-8.3e-4 -0.82715,0.0543 -1.6514,0.24702 -2.47413,0.42619 -0.15857,0.0351 -0.31713,0.0699 -0.4757,0.10484 -0.19466,0.0347 -0.2176,-0.5564 -0.0229,-0.59124 v 0 c 0.15823,-0.0217 0.31647,-0.0435 0.47472,-0.0653 0.18725,-0.034 0.37469,-0.0638 0.56176,-0.10234 0.36735,-0.0754 0.8114,-0.18436 1.17868,-0.28783 0.59982,-0.169 0.26879,-0.0827 0.73192,-0.24001 0.0404,-0.0137 0.0812,-0.0232 0.12179,-0.0348 0.26043,0 0.26043,0.791 0,0.791 z" /><path
       style="fill:#0e0c20;fill-opacity:1;stroke:#b6c3ef;stroke-width:0.132071;stroke-linecap:round;stroke-linejoin:round;stroke-dasharray:none;stroke-opacity:1"
       id="path54-8"
       d="m 112.8216,118.13147 c -0.377,0.0478 -0.75479,0.0619 -1.13217,0.0943 -0.14447,0.0137 -0.28883,0.0268 -0.43324,0.04 -0.24873,0.009 -0.25435,-0.74692 -0.006,-0.75546 v 0 c 0.1431,0.003 0.2863,0.006 0.42945,10e-4 0.21954,-0.008 0.4387,-0.0199 0.65782,-0.0524 0.11796,-0.0175 0.22349,-0.0363 0.33928,-0.0743 0.0258,-0.009 0.051,-0.022 0.0765,-0.0333 0.25657,-0.10313 0.3245,0.67604 0.0679,0.7792 z" /><path
       style="fill:#0e0c20;fill-opacity:1;stroke:#b6c3ef;stroke-width:0.132071;stroke-linecap:round;stroke-linejoin:round;stroke-dasharray:none;stroke-opacity:1"
       id="path55-1"
       d="m 110.44802,118.63984 c -0.0584,-0.0183 -0.054,-0.0203 -0.13764,-0.0102 -0.19307,0.0216 -0.36188,0.0667 -0.5566,0.12026 -0.1214,0.0335 -0.77418,0.22932 -0.87551,0.25961 -0.58444,0.17635 -0.30181,0.0893 -0.84791,0.26045 -0.20513,0.0576 -0.24306,-0.56542 -0.0379,-0.62302 v 0 c 0.54515,-0.13528 0.26358,-0.0597 0.84458,-0.22938 0.58801,-0.20245 0.31348,-0.10177 0.87179,-0.31681 0.0412,-0.0159 0.49678,-0.19346 0.57921,-0.21968 0.12957,-0.0412 0.11487,-0.0365 0.20866,-0.032 0.26067,0.0738 0.21202,0.86556 -0.0486,0.7917 z" /><path
       style="fill:#0e0c20;fill-opacity:1;stroke:#b6c3ef;stroke-width:0.132071;stroke-linecap:round;stroke-linejoin:round;stroke-dasharray:none;stroke-opacity:1"
       id="path56-2"
       d="m 106.29473,115.13623 c -0.0893,-0.017 -0.17887,-0.026 -0.26845,-0.0329 -0.25546,-0.0238 -0.2398,-0.79971 0.0157,-0.7759 v 0 c 0.0843,0.009 0.16845,0.0193 0.25278,0.017 0.26071,0 0.26071,0.79182 0,0.79182 z" /><path
       style="fill:#0e0c20;fill-opacity:1;stroke:#b6c3ef;stroke-width:0.132071;stroke-linecap:round;stroke-linejoin:round;stroke-dasharray:none;stroke-opacity:1"
       id="path57-9"
       d="m 107.51133,117.65549 c -0.21515,0.0504 -0.43192,0.0513 -0.64782,0.0794 -0.0783,0.0102 -0.15634,0.0233 -0.23452,0.0349 -0.23035,0.0352 -0.25355,-0.66441 -0.0232,-0.69963 v 0 c 0.27444,-0.0432 0.19252,-0.0272 0.46486,-0.0825 0.11888,-0.0241 0.18841,-0.034 0.30025,-0.0755 0.0235,-0.009 0.0466,-0.0219 0.0699,-0.0329 0.25555,-0.10722 0.32614,0.66898 0.0706,0.77618 z" /><path
       style="fill:#0e0c20;fill-opacity:1;stroke:#b6c3ef;stroke-width:0.132071;stroke-linecap:round;stroke-linejoin:round;stroke-dasharray:none;stroke-opacity:1"
       id="path58-3"
       d="m 106.79836,119.26403 c -0.35866,-0.0467 -0.71815,-0.0426 -1.07726,-0.0365 -0.22436,0 -0.22436,-0.68141 0,-0.68141 v 0 c 0.35911,0.006 0.7186,0.0102 1.07726,-0.0365 0.24836,0 0.24836,0.75437 0,0.75437 z" /><path
       style="fill:#0e0c20;fill-opacity:1;stroke:#b6c3ef;stroke-width:0.132071;stroke-linecap:round;stroke-linejoin:round;stroke-dasharray:none;stroke-opacity:1"
       id="path50-9"
       d="m 83.1966,119.35721 c -0.223459,-0.68728 -0.454175,-1.36418 -0.68461,-2.04086 -0.31508,-0.96096 -0.654062,-1.88316 -0.983933,-2.82022 -0.104027,-0.29628 -0.193317,-0.614 -0.288415,-0.92322 -0.02051,-0.0667 -0.03715,-0.14049 -0.06296,-0.19814 -0.03201,-0.0716 -0.106401,-0.0862 -0.143139,-0.1029 -0.425333,-0.15168 -0.859358,-0.0849 -1.28687,-0.023 -0.535391,0.0776 -0.678911,0.11552 -1.228464,0.22783 -1.18524,0.26343 -2.369211,0.55277 -3.554835,0.80838 -0.470594,0.10199 -0.942526,0.17229 -1.415283,0.20261 -0.0177,0.0754 -0.117416,-0.0387 -0.148579,0.0453 -0.0057,0.0153 0.02214,0.006 0.02366,0.0255 0.003,0.0339 -0.0086,0.0659 -0.01364,0.0987 -0.05828,0.40185 -0.01011,0.0486 -0.07702,0.55998 -0.130883,0.97182 -0.275826,1.93364 -0.462455,2.8629 -0.161013,0.67109 -0.37105,1.27815 -0.565872,1.90419 -0.07645,0.24502 -0.127987,0.52007 -0.167051,0.80161 -0.0048,-0.15867 -0.01303,0.17697 -0.01102,0.13236 0.0018,-0.0366 0.003,-0.0734 0.0039,-0.11017 -0.0086,-0.0416 -0.02717,-0.079 -0.02592,-0.12425 5.76e-4,-0.0208 0.01949,6.9e-4 0.02914,0.003 0.03992,0.0123 0.07967,0.0276 0.119592,0.0412 0.637491,0.11582 1.276855,0.19485 1.915958,0.26109 0.890418,0.11399 1.78156,0.0493 2.672102,-0.0102 0.686619,-0.0392 1.37279,-0.10268 2.059134,-0.15784 0.481513,-0.0356 0.963384,-0.0324 1.444395,-0.0943 0.459434,-0.0703 0.915515,-0.21006 1.370187,-0.36422 0.250364,-0.0835 0.501603,-0.15693 0.75357,-0.2143 0.226793,-0.0728 0.455315,-0.10245 0.684256,-0.11828 0.04867,-0.001 0.09735,-0.003 0.146018,-0.006 0.08725,-0.003 0.174516,-0.005 0.261749,-0.009 0.03236,-0.001 0.06496,0.001 0.09705,-0.008 0.01022,-0.003 0.03881,-0.0299 0.02845,-0.0276 -0.01956,0.003 -0.03791,0.0227 -0.05687,0.034 -0.01733,0.0587 -0.03465,0.1172 -0.05199,0.17587 -0.0034,0.008 -0.0061,0.0304 -0.01022,0.0241 -0.01287,-0.0194 -0.01804,-0.055 -0.0277,-0.0816 -0.01409,-0.0387 -0.02867,-0.0769 -0.04366,-0.11414 -0.03962,-0.0985 -0.08092,-0.19365 -0.121231,-0.29079 -0.08185,-0.1741 -0.161923,-0.3481 -0.231663,-0.54525 -0.152897,-0.45464 0.146464,-0.91904 0.299371,-0.4644 v 0 c 0.0563,0.1847 0.13583,0.32443 0.204772,0.4866 0.09064,0.2171 0.302404,0.66125 0.30059,0.96544 -8.37e-4,0.13528 -0.03297,0.26107 -0.04945,0.39158 -0.04147,0.0624 -0.07851,0.1411 -0.124402,0.18688 -0.05362,0.0533 -0.152331,0.0452 -0.209159,0.0465 -0.132889,0.003 -0.265815,7e-4 -0.398631,0.0123 -0.220615,0.0189 -0.440788,0.0515 -0.659384,0.12089 -0.246455,0.0541 -0.492492,0.11873 -0.737995,0.18972 -0.465931,0.14586 -0.932875,0.27773 -1.402099,0.36512 -0.484099,0.0644 -0.969082,0.0441 -1.453692,0.0837 -0.686921,0.048 -1.373936,0.08 -2.061014,0.11597 -0.898967,0.0605 -1.798378,0.13038 -2.697357,0.0201 -0.386715,-0.035 -0.773019,-0.0792 -1.159569,-0.12073 -0.192617,-0.0207 -0.38549,-0.0298 -0.578023,-0.0535 -0.07276,-0.009 -0.145314,-0.0239 -0.217955,-0.0357 -0.09065,-0.029 -0.232452,-0.0453 -0.314924,-0.16969 -0.13073,-0.19704 -0.144089,-0.47746 -0.09872,-0.7724 0.05279,-0.35353 0.118672,-0.70111 0.21877,-1.00627 0.187279,-0.58021 0.390571,-1.13913 0.544556,-1.76469 0.18164,-0.89422 0.321138,-1.82209 0.439413,-2.76385 0.0387,-0.31678 0.07579,-0.78039 0.183911,-1.03008 0.107628,-0.24861 0.224164,-0.27807 0.369917,-0.27394 0.464756,-0.009 0.929113,-0.055 1.392455,-0.13406 1.186712,-0.20477 2.370755,-0.47171 3.553742,-0.75825 0.578995,-0.13253 0.675286,-0.16115 1.23724,-0.26553 0.470115,-0.0873 0.949198,-0.19612 1.417843,-0.0186 0.06727,0.0527 0.139416,0.0827 0.201819,0.15822 0.112671,0.13619 0.138666,0.25564 0.20028,0.4655 0.08705,0.2965 0.169716,0.59929 0.266408,0.88228 0.325381,0.94532 0.65651,1.88143 0.978011,2.833 0.233702,0.66654 0.463698,1.33896 0.702484,1.99722 0.15974,0.44781 -0.135126,0.93298 -0.294871,0.48519 z" /><path
       style="fill:#0e0c20;fill-opacity:1;stroke:#b6c3ef;stroke-width:0.132071;stroke-linecap:round;stroke-linejoin:round;stroke-dasharray:none;stroke-opacity:1"
       id="path51-2"
       d="m 80.591317,114.80494 c -0.03553,-0.005 -0.04668,-0.009 -0.08813,-0.001 -0.126701,0.019 -0.252886,0.0518 -0.37949,0.0737 -0.39886,0.0686 -0.55162,0.0855 -0.981951,0.14508 -0.979196,0.14968 -1.956801,0.34202 -2.933949,0.54307 -0.203266,0.03 -0.223066,-0.5873 -0.01981,-0.61738 v 0 c 0.978487,-0.0883 1.956685,-0.21759 2.929285,-0.47182 0.45012,-0.12409 0.554618,-0.14248 0.963205,-0.28726 0.08187,-0.029 0.163239,-0.0638 0.244858,-0.0959 0.04917,-0.0201 0.09814,-0.0425 0.147505,-0.0602 0.06171,-0.022 0.07115,-0.022 0.118458,-0.0286 0.263818,0 0.263818,0.80128 0,0.80128 z" /><path
       style="fill:#0e0c20;fill-opacity:1;stroke:#b6c3ef;stroke-width:0.132071;stroke-linecap:round;stroke-linejoin:round;stroke-dasharray:none;stroke-opacity:1"
       id="path52-6"
       d="m 80.710397,116.10333 c -0.05721,0.006 -0.114474,0.0102 -0.171638,0.019 -0.323955,0.0473 -0.558336,0.0947 -0.895201,0.16511 -0.71307,0.14891 -1.424467,0.32431 -2.135916,0.505 -0.81613,0.21952 -1.634734,0.39676 -2.455771,0.50387 -0.297811,0.0337 -0.595918,0.0153 -0.893895,0.0123 -0.250536,-0.0137 -0.241405,-0.77481 0.0092,-0.76094 v 0 c 0.2906,0.0287 0.581516,0.0501 0.872432,0.0526 0.202345,-0.006 0.330188,-0.009 0.537577,-0.0243 0.636274,-0.0483 1.271319,-0.15337 1.905255,-0.27735 0.22881,-0.0496 0.457879,-0.094 0.686429,-0.14907 0.836726,-0.20112 1.670571,-0.46765 2.49612,-0.82394 0.256375,-0.0691 0.301851,0.70962 0.04548,0.77869 z" /><path
       style="fill:#0e0c20;fill-opacity:1;stroke:#b6c3ef;stroke-width:0.132071;stroke-linecap:round;stroke-linejoin:round;stroke-dasharray:none;stroke-opacity:1"
       id="path53-6"
       d="m 80.359687,117.69956 c -0.03205,-1.7e-4 -0.06413,-0.003 -0.09618,-8.4e-4 -0.827142,0.0544 -1.65138,0.24703 -2.474118,0.42619 -0.158566,0.0351 -0.317133,0.0699 -0.475698,0.10484 -0.194656,0.0348 -0.217597,-0.55639 -0.02295,-0.59123 v 0 c 0.158242,-0.0218 0.316484,-0.0435 0.474726,-0.0653 0.187255,-0.034 0.374691,-0.064 0.561764,-0.10234 0.367353,-0.0754 0.811407,-0.18438 1.17868,-0.28785 0.599814,-0.16898 0.268799,-0.0826 0.731909,-0.24 0.04048,-0.0137 0.08124,-0.0232 0.121859,-0.0347 0.260429,0 0.260429,0.791 0,0.791 z" /><path
       style="fill:#0e0c20;fill-opacity:1;stroke:#b6c3ef;stroke-width:0.132071;stroke-linecap:round;stroke-linejoin:round;stroke-dasharray:none;stroke-opacity:1"
       id="path54-4"
       d="m 81.495342,118.9331 c -0.377006,0.0478 -0.754802,0.0619 -1.132161,0.0943 -0.144426,0.0137 -0.288833,0.0268 -0.433259,0.04 -0.248723,0.009 -0.254344,-0.7469 -0.0057,-0.75545 v 0 c 0.143138,0.003 0.286302,0.006 0.429454,0.001 0.219543,-0.008 0.438692,-0.0199 0.657817,-0.0524 0.117905,-0.0175 0.223488,-0.0363 0.339288,-0.0743 0.02574,-0.009 0.05103,-0.0223 0.07654,-0.0333 0.256549,-0.10313 0.32448,0.67605 0.06793,0.7792 z" /><path
       style="fill:#0e0c20;fill-opacity:1;stroke:#b6c3ef;stroke-width:0.132071;stroke-linecap:round;stroke-linejoin:round;stroke-dasharray:none;stroke-opacity:1"
       id="path55-9"
       d="m 79.121763,119.44148 c -0.05841,-0.0182 -0.05396,-0.0203 -0.137654,-0.0102 -0.193067,0.0217 -0.361876,0.0667 -0.5566,0.12027 -0.121414,0.0335 -0.774175,0.22933 -0.875503,0.25962 -0.584435,0.17636 -0.30181,0.0893 -0.847919,0.26045 -0.205121,0.0576 -0.243052,-0.56542 -0.03794,-0.62303 v 0 c 0.545152,-0.13528 0.263576,-0.0597 0.844589,-0.22937 0.588006,-0.20244 0.313472,-0.10177 0.871771,-0.31683 0.04126,-0.0159 0.496795,-0.19345 0.579206,-0.21968 0.12958,-0.0412 0.114872,-0.0365 0.208677,-0.032 0.26066,0.0738 0.212016,0.86554 -0.04865,0.79168 z" /><path
       style="fill:#0e0c20;fill-opacity:1;stroke:#b6c3ef;stroke-width:0.132071;stroke-linecap:round;stroke-linejoin:round;stroke-dasharray:none;stroke-opacity:1"
       id="path56-5"
       d="m 74.968466,115.93788 c -0.08932,-0.017 -0.178856,-0.026 -0.268443,-0.0329 -0.255464,-0.0238 -0.239793,-0.7997 0.01567,-0.77591 v 0 c 0.08418,0.009 0.168447,0.0193 0.252771,0.017 0.260707,0 0.260707,0.79184 0,0.79184 z" /><path
       style="fill:#0e0c20;fill-opacity:1;stroke:#b6c3ef;stroke-width:0.132071;stroke-linecap:round;stroke-linejoin:round;stroke-dasharray:none;stroke-opacity:1"
       id="path57-0"
       d="m 76.185067,118.45712 c -0.215145,0.0504 -0.431911,0.0513 -0.647811,0.0794 -0.07822,0.0102 -0.156352,0.0233 -0.234528,0.035 -0.230354,0.0352 -0.253549,-0.66441 -0.02319,-0.69965 v 0 c 0.274448,-0.0431 0.192513,-0.0272 0.464858,-0.0825 0.118886,-0.0241 0.188414,-0.034 0.300256,-0.0755 0.02349,-0.009 0.04656,-0.0219 0.06984,-0.0329 0.255551,-0.10722 0.326136,0.66898 0.07058,0.77618 z" /><path
       style="fill:#0e0c20;fill-opacity:1;stroke:#b6c3ef;stroke-width:0.132071;stroke-linecap:round;stroke-linejoin:round;stroke-dasharray:none;stroke-opacity:1"
       id="path58-4"
       d="m 75.472102,120.06567 c -0.358662,-0.0467 -0.71815,-0.0426 -1.077268,-0.0365 -0.224353,0 -0.224353,-0.68141 0,-0.68141 v 0 c 0.359118,0.006 0.718606,0.0102 1.077268,-0.0365 0.248365,0 0.248365,0.75437 0,0.75437 z" /><path
       style="fill:#0e0c20;fill-opacity:1;stroke:#b6c3ef;stroke-width:0.0562223;stroke-linecap:round;stroke-linejoin:round;stroke-dasharray:none;stroke-opacity:1"
       id="path162"
       d="m 91.326134,115.52138 c 0.385566,0.001 0.771031,0.0137 1.156404,0.0262 0.746975,0.0228 1.49278,0.0708 2.238471,0.11858 0.264003,0.0172 0.528506,0.0285 0.793031,0.0199 0.01363,9e-5 0.02737,-0.001 0.04078,2.8e-4 0.0034,5.7e-4 -0.008,0.006 -0.01136,0.005 -0.01976,-0.009 -0.03714,-0.0217 -0.05531,-0.0333 -0.0034,-0.003 -0.0091,-0.0137 -0.01159,-0.009 -0.008,0.0153 -0.0057,0.0333 -0.0091,0.0496 -0.0057,0.0271 -0.01227,0.0541 -0.01829,0.0811 -0.05145,0.21154 -0.07678,0.42805 -0.110058,0.64288 -0.02385,0.14569 -0.06553,0.28734 -0.101653,0.43018 -0.03089,0.11256 -0.05634,0.22665 -0.0795,0.34108 -0.0091,0.037 -0.01136,0.076 -0.02522,0.11164 -0.0023,0.003 -0.0045,0.0159 -0.0068,0.0123 0.0057,-0.0192 0.0068,-0.0123 0.0034,-0.0228 -0.177785,0.0348 -0.360397,0.0215 -0.539784,0.0102 -0.299315,-0.0192 -0.597062,-0.0561 -0.895854,-0.0812 -0.170857,-0.0137 -0.219764,-0.0167 -0.386816,-0.0276 -0.232087,-0.0153 -0.464561,-0.022 -0.697079,-0.0249 -0.111081,-0.001 -0.222127,-0.001 -0.333196,-0.001 -0.146153,9.3e-4 -0.292329,-0.006 -0.438301,-0.0138 -0.122938,-0.006 -0.246103,-0.005 -0.369166,-0.006 -0.08484,-0.009 -0.198081,0.0155 -0.278257,-0.0137 -0.0034,-0.006 0.0057,-0.003 0.0045,-0.006 -0.0034,-0.0137 -0.05338,-0.0807 -0.06304,-0.0947 -0.0284,-0.0357 -0.05202,-0.0757 -0.08337,-0.10904 -0.0326,-0.0348 -0.04305,-0.0409 -0.08132,-0.072 -0.08825,-0.0646 -0.177456,-0.12808 -0.262913,-0.19638 -0.09586,-0.0771 -0.194084,-0.15106 -0.288241,-0.23035 -0.0142,-0.0123 -0.02851,-0.0236 -0.04282,-0.0354 -0.03328,-0.0276 -0.06644,-0.0554 -0.09972,-0.0831 -0.02294,-0.019 -0.03089,-0.019 -0.01726,-0.0178 0.02499,0.0434 0.02726,0.0321 0.02237,0.0822 -5.57e-4,0.006 -0.01181,0.0175 -0.0057,0.0172 0.0091,-3.8e-4 0.01374,-0.0123 0.0209,-0.0177 0.02522,-0.0203 0.051,-0.04 0.07644,-0.0601 0.09961,-0.0804 0.199263,-0.16064 0.296793,-0.24354 0.08155,-0.0738 0.160987,-0.14967 0.241571,-0.22453 0.0661,-0.0599 0.125982,-0.12609 0.18376,-0.19396 0.05316,-0.0562 0.100404,-0.11766 0.145483,-0.18051 9.54e-4,0.003 0.03305,-0.0524 0.03441,-0.0344 0.154512,-0.0553 0.07621,-0.27384 -0.07826,-0.21851 v 0 c -0.06326,0.0251 -0.10756,0.0632 -0.144143,0.12072 -0.03998,0.058 -0.08257,0.11414 -0.13132,0.16518 -0.05191,0.0614 -0.106538,0.12072 -0.165133,0.17586 -0.07735,0.073 -0.154694,0.14616 -0.232201,0.21918 -0.0945,0.0807 -0.191596,0.15834 -0.289092,0.23546 -0.04952,0.0374 -0.143008,0.0954 -0.16804,0.15243 -0.03146,0.0717 -0.01193,0.0848 0.01306,0.15122 0.01022,0.0102 0.01954,0.022 0.03021,0.032 0.01556,0.0153 0.03373,0.0259 0.05043,0.0391 0.03816,0.0303 0.07553,0.0618 0.113716,0.0921 0.09586,0.0794 0.195594,0.15385 0.291261,0.23344 0.08484,0.0684 0.173856,0.13069 0.260891,0.19605 0.04748,0.0391 0.08564,0.0851 0.120383,0.13574 0.05531,0.0792 0.09086,0.15766 0.18987,0.1917 0.01726,0.003 0.0343,0.009 0.05168,0.0102 0.09302,0.0137 0.188393,0.001 0.281892,0.006 0.120666,-2.7e-4 0.241287,0.001 0.361908,0.005 0.149129,0.003 0.297997,0.0137 0.447092,0.0162 0.110626,3e-4 0.221161,-10e-4 0.331741,-0.003 0.228771,-9.6e-4 0.457587,-2e-4 0.686199,0.009 0.162861,0.008 0.214698,0.009 0.38116,0.0216 0.299757,0.022 0.59822,0.058 0.897308,0.0873 0.141985,0.0138 0.280801,0.0273 0.423445,0.0216 0.04566,-0.001 0.115714,-0.006 0.161725,-0.0153 0.02294,-0.005 0.04509,-0.0123 0.06769,-0.0184 0.02203,-0.0123 0.04679,-0.0211 0.06599,-0.0376 0.06678,-0.057 0.07349,-0.14585 0.08757,-0.22597 0.02158,-0.11108 0.04577,-0.22173 0.07644,-0.33069 0.03657,-0.14984 0.07508,-0.29939 0.09938,-0.45189 0.03067,-0.20863 0.05418,-0.41912 0.108127,-0.62343 0.01806,-0.0699 0.06497,-0.20571 0.02987,-0.27635 -0.04395,-0.0883 -0.108808,-0.10109 -0.192471,-0.0942 -0.256824,0.0193 -0.514138,0.0219 -0.771576,0.0123 -0.74727,-0.0253 -1.493722,-0.0674 -2.240333,-0.10756 -0.388281,-0.0206 -0.77696,-0.0383 -1.16398,-0.0769 -0.164383,0 -0.164383,0.23248 0,0.23248 z" /></g></svg>
