<?xml version="1.0" encoding="UTF-8" standalone="no"?>
<!-- Created with Inkscape (http://www.inkscape.org/) -->

<svg
   width="210mm"
   height="297mm"
   viewBox="0 0 210 297"
   version="1.1"
   id="svg1"
   inkscape:version="1.3 (0e150ed, 2023-07-21)"
   sodipodi:docname="pet.svg"
   xmlns:inkscape="http://www.inkscape.org/namespaces/inkscape"
   xmlns:sodipodi="http://sodipodi.sourceforge.net/DTD/sodipodi-0.dtd"
   xmlns="http://www.w3.org/2000/svg"
   xmlns:svg="http://www.w3.org/2000/svg">
  <sodipodi:namedview
     id="namedview1"
     pagecolor="#ffffff"
     bordercolor="#000000"
     borderopacity="0.25"
     inkscape:showpageshadow="2"
     inkscape:pageopacity="0.0"
     inkscape:pagecheckerboard="0"
     inkscape:deskcolor="#d1d1d1"
     inkscape:document-units="mm"
     inkscape:zoom="0.51402139"
     inkscape:cx="228.58971"
     inkscape:cy="643.94207"
     inkscape:window-width="1850"
     inkscape:window-height="1016"
     inkscape:window-x="0"
     inkscape:window-y="0"
     inkscape:window-maximized="1"
     inkscape:current-layer="layer1" />
  <defs
     id="defs1" />
  <g
     inkscape:label="Layer 1"
     inkscape:groupmode="layer"
     id="layer1">
    <path
       style="fill:#000080;stroke-width:1.0251;stroke-linecap:round;stroke-linejoin:round"
       id="path1"
       d="m 95.524479,271.0484 c 0.514436,-5.17622 0.823694,-10.36406 0.923934,-15.56395 -0.06248,-8.13092 -0.813695,-16.23672 -1.610521,-24.32241 -0.158914,-1.50244 -0.323075,-3.00437 -0.476682,-4.50737 -0.527523,-5.16239 -0.338092,-3.85805 -0.969437,-9.10852 -0.594465,-4.94376 -1.338081,-9.86676 -1.985678,-14.80371 -1.54125,-12.49269 -3.807124,-24.865 -6.533397,-37.14816 -2.760305,-11.5589 -6.357789,-22.92913 -11.084625,-33.84083 -0.931218,-2.14968 -1.955126,-4.25801 -2.932692,-6.38703 -3.37293,-7.1784 -7.587344,-13.90755 -11.887819,-20.55445 -5.139506,-7.613773 -15.907008,-0.34539 -10.767503,7.26837 v 0 c 4.178971,5.91574 8.181623,11.97281 11.308872,18.5273 2.463844,5.29954 3.139847,6.54308 5.285665,12.01217 3.271134,8.33719 5.782381,16.95877 7.871821,25.66121 1.229917,5.63686 1.626605,7.20081 2.641931,12.85775 1.383282,7.70698 2.334198,15.47951 3.313627,23.24521 1.171327,9.31856 2.397288,18.62993 3.214468,27.98857 0.662705,7.57452 1.273237,15.16828 1.320061,22.77544 -0.148601,4.5974 -0.384771,9.23737 -1.477907,13.72391 -1.539019,9.79052 12.306864,11.96701 13.845882,2.1765 z" />
    <path
       style="fill:#000080;stroke-width:1.0251;stroke-linecap:round;stroke-linejoin:round"
       id="path2"
       d="m 99.485216,221.00613 c -0.16392,-1.34637 -0.470591,-3.89571 -0.620929,-4.90406 -1.02995,-6.90784 -2.259354,-13.78632 -3.282394,-20.69569 -0.476078,-3.21516 -0.905147,-6.43711 -1.357723,-9.65568 -1.245754,-9.94964 -2.39028,-19.91317 -3.24607,-29.90478 -0.456599,-5.33115 -0.968839,-12.06813 -1.103467,-17.45603 -0.06755,-2.704 -0.0035,-5.40969 -0.0051,-8.11454 0.124659,-10.48608 1.849911,-20.84055 3.224485,-31.207293 0.992631,-7.486204 1.123779,-8.905238 1.991456,-16.42769 1.422779,-13.065502 2.53095,-26.320291 0.877852,-39.425742 -0.307518,-2.437996 -0.812823,-4.846953 -1.219239,-7.270433 -1.089529,-5.443801 -2.450045,-10.842768 -4.3994,-16.047522 -0.430726,-1.149953 -0.8624,-2.304417 -1.411809,-3.402613 C 88.409397,15.447666 87.7339,14.48449 87.134405,13.479712 81.822265,5.5258522 70.573817,13.038371 75.885957,20.992207 v 0 c 1.344884,1.540345 1.052856,1.037061 2.182231,3.509951 1.985402,4.347251 3.322379,8.948928 4.389685,13.597718 1.097165,5.947893 1.436487,6.824478 1.828507,12.973374 0.641778,10.066507 -0.231043,20.154201 -1.26536,30.160646 -0.794378,6.741342 -1.081491,9.431924 -1.991064,16.143522 -1.482208,10.936952 -3.274114,21.864002 -3.260586,32.939602 0.01749,2.92247 -0.05247,5.8468 0.05307,8.76741 0.104817,2.90356 0.347863,5.80083 0.577459,8.69718 1.044147,13.16967 2.776926,26.27199 4.140747,39.40929 0.348465,3.28 0.685297,6.56126 1.045456,9.84 0.913994,8.32066 2.15236,16.66563 2.016171,25.05758 0.765326,9.81678 14.648367,8.73445 13.883039,-1.08235 z" />
    <path
       style="fill:#000080;stroke-width:1.0251;stroke-linecap:round;stroke-linejoin:round"
       id="path3"
       d="m 100.62502,233.84179 c -0.70804,-4.29509 -1.682114,-8.67797 -1.425946,-13.06011 0.05729,-0.98033 0.238402,-1.94948 0.357572,-2.92421 0.254806,-1.13582 0.442728,-2.28875 0.764454,-3.40746 0.86696,-3.01446 2.38183,-6.75255 3.66669,-9.51733 3.25935,-7.01362 7.31032,-13.57582 11.32402,-20.17012 1.63936,-2.45124 3.24527,-4.92521 4.91808,-7.35376 1.145,-1.6623 9.58908,-13.50055 10.72221,-15.09895 5.17002,-7.29279 10.2423,-14.64213 15.24775,-22.04856 7.30755,-10.92169 14.11639,-22.27393 19.50629,-34.28215 1.13713,-2.53344 2.13831,-5.12575 3.20747,-7.688633 3.09665,-8.133411 5.59492,-16.480093 7.80476,-24.893061 0.85824,-3.267413 2.57789,-10.193524 3.16121,-13.72357 0.30468,-1.843718 0.42409,-3.713296 0.63612,-5.569937 0.0283,-1.492472 0.0567,-2.98495 0.0846,-4.477422 -0.16832,-9.329212 -13.36181,-9.091172 -13.19349,0.238039 v 0 c 0.0743,1.062518 0.14866,2.125029 0.22296,3.187546 -0.0567,1.436457 -0.0145,2.88026 -0.17031,4.309371 -0.41052,3.765656 -1.61456,9.317222 -2.47489,12.868256 -1.91867,7.919279 -4.30606,15.727764 -7.30795,23.30646 -1.01318,2.358738 -1.97253,4.74134 -3.03955,7.076221 -5.23185,11.44848 -11.59435,22.38111 -18.43563,32.93022 -4.90671,7.34429 -9.85235,14.65361 -14.94005,21.87439 -3.60992,5.12343 -7.33324,10.16653 -10.9291,15.29983 -1.7825,2.54464 -3.50503,5.13076 -5.25755,7.69612 -4.42326,7.00444 -8.884194,13.98984 -12.61706,21.39849 -1.763579,3.50019 -3.749113,7.92075 -4.911701,11.7127 -0.481687,1.57115 -0.743844,3.20139 -1.11577,4.80209 -0.170493,1.50862 -0.424635,3.0101 -0.51148,4.52583 -0.281824,4.91611 0.711754,9.7796 0.870584,14.6782 1.19393,9.78324 15.029547,8.09477 13.835607,-1.68849 z" />
    <path
       style="fill:#000080;stroke-width:1.0251;stroke-linecap:round;stroke-linejoin:round"
       id="path4"
       d="m 101.09832,197.39718 c 0.11646,-1.81053 0.68083,-3.55173 0.98572,-5.33071 0.1901,-1.10902 0.91865,-6.46383 1.05485,-7.45136 1.0395,-7.08186 1.46609,-14.23979 2.65893,-21.30092 0.85613,-5.06801 1.16887,-5.92363 2.39851,-10.84851 2.70554,-10.08368 6.679,-19.75086 11.17826,-29.15069 2.76566,-5.89514 5.93154,-11.59563 8.7084,-17.48471 1.1984,-2.54151 1.96028,-4.40519 3.04015,-6.955623 1.52698,-3.693849 2.84528,-7.51731 3.36856,-11.497388 0.25414,-1.932903 0.24407,-3.116599 0.2969,-5.012164 -0.007,-0.613336 -0.0121,-1.226678 -0.0187,-1.84002 -0.31572,-9.707337 -14.04394,-9.26087 -13.72825,0.446467 v 0 c 0.0277,0.42753 0.0555,0.855018 0.0832,1.28253 0.0235,1.050378 0.071,1.929115 -0.0199,2.980982 -0.25896,2.989727 -1.29518,5.850217 -2.31508,8.646563 -0.74568,1.936991 -1.68654,4.438552 -2.50792,6.324033 -2.60821,5.98706 -5.7382,11.7311 -8.55897,17.6167 -4.77874,10.28227 -9.058758,20.60998 -11.901089,31.62242 -0.471194,1.97023 -0.989954,3.9297 -1.41363,5.91069 -1.920304,8.97892 -2.714356,18.13584 -4.292135,27.17192 -0.252634,1.3755 -0.850049,4.77033 -1.221733,6.35071 -0.505329,2.14874 -1.250331,4.24011 -1.651464,6.41529 -1.487605,9.79726 12.367806,11.90105 13.855401,2.10379 z" />
    <path
       style="fill:#000080;stroke-width:1.0251;stroke-linecap:round;stroke-linejoin:round"
       id="path5"
       d="m 100.19701,244.10296 c 0.94655,-2.24873 2.99085,-3.99644 4.70543,-5.64187 3.92609,-3.31341 8.37302,-5.91111 12.74652,-8.57212 4.81475,-2.92947 3.36977,-2.04419 8.10567,-5.0398 6.75549,-4.47281 12.42067,-10.31064 16.68012,-17.20256 0.78106,-1.26377 1.45762,-2.5892 2.18644,-3.88379 3.52341,-6.76526 4.83135,-14.29249 6.34851,-21.68125 1.67621,-9.42028 -11.64607,-11.79077 -13.32228,-2.37051 v 0 c -0.90718,6.02755 -1.79175,12.14726 -4.5454,17.66673 -0.54429,1.00226 -1.05054,2.02617 -1.63297,3.00678 -3.26004,5.48877 -7.41656,9.92477 -12.71787,13.49613 -4.30601,2.77694 -3.27365,2.16225 -7.7722,4.85042 -5.18274,3.09703 -10.45964,6.08555 -15.175729,9.88681 -0.850109,0.76485 -1.727888,1.50001 -2.550315,2.29454 -2.595215,2.50717 -4.921561,5.40992 -6.349171,8.74533 -3.1432,9.39973 10.150035,13.84489 13.293245,4.44516 z" />
    <path
       style="fill:#000080;stroke-width:1.0251;stroke-linecap:round;stroke-linejoin:round"
       id="path6"
       d="m 93.955234,221.83924 c -0.280678,-4.76716 -1.649004,-9.39164 -3.462512,-13.79038 -0.509551,-1.23584 -1.101327,-2.43615 -1.65199,-3.65421 -3.160165,-6.82977 -7.85643,-12.33857 -13.293555,-17.43791 -3.018765,-2.64842 -6.423785,-4.84015 -9.255194,-7.70595 -1.331924,-1.34809 -1.955392,-2.27353 -3.099097,-3.78161 -1.177183,-1.85497 -2.36586,-3.75576 -2.945683,-5.89984 -0.399486,-1.47716 -0.335921,-2.99255 -0.253478,-4.49875 0.06555,-0.42837 0.131172,-0.85674 0.196727,-1.28512 1.025995,-9.5924 -12.539723,-11.04338 -13.565711,-1.45097 v 0 c -0.07273,0.86481 -0.145465,1.72962 -0.218258,2.59443 0.02955,2.51647 -0.0623,3.61496 0.424153,6.15733 0.883611,4.61839 3.098487,8.7488 5.768866,12.56818 2.045047,2.61306 2.305672,3.11824 4.678009,5.45784 2.857095,2.81767 6.106844,5.19308 9.173096,7.76824 1.400899,1.24647 2.273196,1.97423 3.583559,3.34462 2.719554,2.84412 5.002007,6.04692 6.700983,9.60366 1.682168,3.78265 3.46855,7.77922 3.25359,12.01044 0,9.8758 13.966489,9.8758 13.966489,0 z" />
    <path
       style="fill:#ff0000;stroke-width:1.0251;stroke-linecap:round;stroke-linejoin:round"
       id="path7"
       d="m 139.93992,137.24988 c 0.0416,-0.11742 0.17948,-0.46377 0.12429,-0.35214 -0.98104,1.98567 -1.89217,4.02843 -2.77406,6.0599 -1.66761,4.06155 -1.75606,7.41719 2.1667,10.82856 2.18666,1.90159 4.37134,1.35486 6.7435,1.12513 2.89113,-0.84681 6.42473,-2.39105 8.36277,-4.80535 0.61305,-0.76369 1.07182,-1.63933 1.60774,-2.45901 0.28689,-1.09688 0.73963,-2.16333 0.86074,-3.29062 0.45214,-4.20838 -1.93204,-7.79164 -4.35022,-10.94582 -3.20554,-3.77609 -2.29308,-2.22226 -9.66674,-3.27518 -9.23077,3.5314 -4.23662,16.58569 4.99416,13.05429 v 0 c -10.79542,-2.42326 -7.85366,-2.73034 -6.1269,-1.17528 0.13154,0.15096 1.21976,1.54232 1.23474,1.52999 0.10813,-0.089 0.0187,-0.27996 0.0422,-0.41806 0.16428,-0.96377 0.19504,-0.78956 0.7196,-1.91648 0.23556,-0.24612 0.45075,-0.51347 0.70669,-0.73837 0.0332,-0.0289 0.1495,-0.0392 0.13219,0.001 -0.044,0.1033 -0.1521,0.16621 -0.23593,0.24111 -0.12496,0.11175 -0.99617,0.4873 -0.69488,0.48905 3.9205,0.12695 5.13129,2.0412 6.35845,5.81927 0.21271,0.65492 -0.16953,1.3669 -0.2738,2.04757 -0.007,0.0476 -0.0121,-0.0962 -0.0175,-0.14426 0.07,-0.21506 0.1401,-0.43007 0.21018,-0.6451 0.91883,-2.35167 2.17049,-4.54054 3.24362,-6.82136 2.97629,-9.45206 -10.39093,-13.66118 -13.36723,-4.20912 z" />
    <path
       style="fill:#ff0000;stroke-width:1.0251;stroke-linecap:round;stroke-linejoin:round"
       id="path8"
       d="m 115.32912,220.94642 c -0.22405,2.31006 -0.42898,4.69164 0.54182,6.89042 0.36897,0.83575 0.94396,1.56444 1.41594,2.34665 0.52704,0.50956 1.01032,1.0687 1.58116,1.52866 2.33205,1.87905 5.77593,2.71021 8.66756,1.73445 1.14534,-0.38646 2.0907,-1.21397 3.13605,-1.82096 2.39458,-2.33579 3.61425,-5.28003 4.19351,-8.50766 -0.0663,-0.95535 0.0525,-1.94199 -0.19895,-2.86607 -0.96419,-3.54423 -3.86243,-5.68221 -7.3686,-6.15967 -0.50829,-0.0692 -1.02596,-0.004 -1.53894,-0.005 -9.89566,0.60391 -9.04162,14.59849 0.85406,13.99459 v 0 c -2.87458,-0.17442 -4.97143,-1.79274 -5.60382,-4.7404 -0.14046,-0.65457 -0.003,-1.33893 -0.005,-2.00839 0.10222,-0.29177 0.13744,-0.47795 0.0996,-0.16108 -0.0723,0.60401 0.14757,0.0728 0.64496,-0.25396 0.68292,-0.30499 1.31923,-0.75002 2.04875,-0.91487 1.92461,-0.43489 3.40976,0.16627 4.52564,1.64519 0.59675,1.27117 0.6616,1.0889 0.77474,2.33848 0.007,0.0757 0.0157,0.17839 -0.0452,0.22362 -0.047,0.0344 -0.0265,-0.11513 -0.0229,-0.17326 0.0283,-0.40456 0.1161,-0.88637 0.18214,-1.28921 1.27369,-9.81634 -12.60872,-11.6176 -13.88242,-1.80125 z" />
    <path
       style="fill:#ff0000;stroke-width:1.0251;stroke-linecap:round;stroke-linejoin:round"
       id="path9"
       d="m 51.859046,175.71881 c -1.734534,1.41829 -3.951286,3.33753 -4.904638,5.43043 -0.399668,0.87744 -0.620338,1.82586 -0.930501,2.73881 -0.03679,0.85342 -0.157165,1.70727 -0.111089,2.56025 0.153727,2.8464 1.555368,5.57202 3.580917,7.53084 0.452558,0.43767 0.9787,0.79215 1.468053,1.18825 0.938492,0.40618 1.817585,0.99497 2.815476,1.21848 2.353521,0.52716 4.022861,0.0916 6.133439,-0.96009 1.738864,-0.86646 2.947094,-2.54974 4.061158,-4.05725 2.066354,-3.31599 2.438617,-6.2784 0.911944,-9.96986 -0.609881,-1.47468 -1.555531,-2.32642 -2.592381,-3.45552 -1.928404,-1.55111 -0.861749,-0.8268 -3.233598,-2.12253 -8.990432,-4.05494 -14.724976,8.65945 -5.734544,12.71438 v 0 c -0.703414,-0.51316 -0.48211,-0.24955 -0.783661,-0.67242 -0.790246,-1.46533 -0.84798,-3.12057 0.04222,-4.54533 0.03016,-0.0482 -0.02895,0.11019 -0.04342,0.16525 1.493087,-0.2156 -0.174233,-0.66565 2.688845,-0.85922 1.90285,-0.12857 2.241943,0.33026 3.805405,1.17691 0.950367,1.09306 0.917161,1.66961 0.605532,3.02208 -0.203965,0.42023 -0.377594,0.85669 -0.611955,1.26077 -0.0699,0.12049 -0.359863,0.42023 -0.292438,0.29841 0.150531,-0.27194 0.376026,-0.49653 0.589399,-0.72258 0.101681,-0.10778 0.461545,-0.35818 0.323076,-0.30541 -0.229295,0.0875 -0.405759,0.27616 -0.608632,0.4142 8.519823,-5.0762 1.340994,-17.12505 -7.17883,-12.04885 z" />
    <path
       style="fill:#ff0000;stroke-width:1.0251;stroke-linecap:round;stroke-linejoin:round"
       id="path10"
       d="m 84.431918,94.328643 c -0.578725,2.202646 -1.084005,4.508974 -0.977066,6.805067 0.03257,0.69448 0.149567,1.3824 0.22435,2.0736 0.27525,0.81436 0.415468,1.68768 0.825774,2.44307 1.186181,2.18397 2.47186,3.39052 4.798,4.35625 2.126157,0.88271 4.227279,0.58307 6.378451,0.19818 3.741207,-1.07216 6.199203,-3.42713 7.220393,-7.24843 0.1512,-0.56582 0.20994,-1.15238 0.31487,-1.72857 0.30137,-2.946626 -0.10777,-5.930231 -1.43723,-8.598149 -0.23364,-0.468842 -0.52222,-0.908277 -0.78332,-1.36241 -0.89107,-1.193943 -2.96162,-3.761126 -4.547064,-3.757785 -2.458175,0.0052 -4.820477,0.966234 -7.230719,1.449351 -7.624844,6.321869 1.315622,17.105033 8.940466,10.78316 v 0 c -3.180984,0.442183 -7.039787,2.537263 -8.941075,-1.02225 -0.07068,-0.476261 0.294609,0.1138 0.288035,0.29214 0.06743,0.24901 -0.01327,0.0247 0.24787,-0.333633 0.694886,-0.953015 1.533579,-1.922523 2.781781,-2.052248 2.438268,0.01327 4.58002,1.913392 4.852659,4.336154 -0.02292,0.0952 -0.0097,0.36379 -0.06851,0.28575 -0.294429,-0.38779 0.284718,-2.299093 0.480662,-2.699043 2.984135,-9.452815 -10.384172,-13.673025 -13.368308,-4.22021 z" />
    <path
       style="fill:#ff0000;stroke-width:1.0251;stroke-linecap:round;stroke-linejoin:round"
       id="path11"
       d="m 58.014505,123.66545 c -1.469856,2.02751 -2.471914,4.29585 -3.160383,6.69094 -0.0591,0.85716 -0.326512,1.72527 -0.17773,2.57149 0.675189,3.83968 2.598707,6.00974 6.271451,7.1096 1.366154,0.40913 2.314241,0.23345 3.723734,0.16585 3.448992,-0.76702 5.634806,-2.56682 6.895812,-5.93259 0.20897,-0.5578 0.248292,-1.16512 0.372408,-1.74766 1.433598,-9.7855 -12.405192,-11.81293 -13.838797,-2.02743 v 0 c 0.680605,-2.24997 2.302222,-3.84847 4.668228,-4.16275 0.366557,0.01 0.735238,-0.0139 1.099709,0.0265 1.597024,0.17598 3.233484,1.45459 3.963518,2.82693 0.47451,0.89198 0.681533,1.91877 0.809093,2.92102 0.06737,0.52945 -0.157166,1.05577 -0.235809,1.58364 -0.4101,0.41879 1.025349,-2.17993 0.467274,-1.15865 6.269865,-7.67813 -4.588655,-16.54506 -10.85852,-8.86693 z" />
    <path
       style="fill:#ff0000;stroke-width:1.0251;stroke-linecap:round;stroke-linejoin:round"
       id="path12"
       d="m 90.428034,45.009938 c -1.167979,2.483083 -2.099457,5.389884 -0.960444,8.105458 0.468178,1.116144 1.328027,2.023891 1.992035,3.035827 1.422779,0.680774 2.75299,1.604743 4.268337,2.042321 0.874926,0.252634 1.827072,0.08184 2.731942,-0.02111 1.345643,-0.152763 3.383876,-0.841117 4.515936,-1.674907 0.74531,-0.548932 1.39405,-1.218126 2.09106,-1.827187 0.49803,-0.853227 1.09522,-1.655849 1.49416,-2.559669 1.00391,-2.274396 0.85463,-5.290085 0.51643,-7.69283 -0.21531,-0.641887 -0.31548,-1.33474 -0.64594,-1.92566 -0.5046,-0.902306 -1.08562,-1.786834 -1.83081,-2.503382 -2.22329,-2.137827 -5.699514,-2.857005 -8.60877,-1.785067 -1.219767,0.449422 -2.126192,1.496187 -3.189288,2.244283 -6.727134,7.243601 3.516856,16.757208 10.243998,9.513613 v 0 c -0.82154,0.48802 -1.54456,1.206058 -2.46463,1.464 -3.240775,0.908536 -5.566114,-0.478612 -6.959402,-3.305872 -0.156321,-0.317226 -0.168443,-0.686962 -0.252634,-1.030445 0.0032,-0.127795 -0.01628,-0.258183 0.009,-0.383324 0.04403,-0.214398 0.05307,0.637556 0.06881,0.60593 0.785198,-1.569746 -0.627147,0.590123 1.245109,-1.980637 0.418061,-0.299193 0.82104,-0.620621 1.254149,-0.897566 0.14263,-0.09119 0.546821,-0.123272 0.923643,-0.115612 2.235039,0.04523 1.90729,0.441883 4.523375,1.969805 1.29045,2.28033 1.55997,2.008765 1.56243,4.431623 3.5e-4,0.41577 -0.17188,0.984134 -0.39068,1.374653 -0.0895,0.159879 0.24322,-0.564553 0.23677,-0.496102 4.65865,-8.750402 -7.71628,-15.338753 -12.374948,-6.58835 z" />
    <path
       style="fill:#ff0000;stroke-width:1.0251;stroke-linecap:round;stroke-linejoin:round"
       id="path13"
       d="m 102.88525,146.19428 c 2.72596,2.79698 6.38419,4.54033 10.38106,3.47045 0.95642,-0.25602 1.78698,-0.85314 2.68047,-1.27972 0.57028,-0.48464 1.18008,-0.92628 1.71091,-1.45385 1.73779,-1.72716 2.95072,-4.22449 2.76796,-6.73855 -0.0902,-1.2397 -0.42307,-2.51875 -1.09488,-3.56453 -0.74853,-1.1652 -2.01648,-1.89886 -3.02471,-2.84831 -2.54363,-1.01608 -1.27267,-0.65513 -3.79925,-1.12983 -9.81101,-1.16973 -11.46525,12.70515 -1.65423,13.87487 v 0 c -1.01839,-0.3004 -0.49441,-0.0979 -1.55818,-0.64195 -0.71844,-0.78155 -1.64524,-1.41362 -2.1553,-2.34464 -1.08919,-1.98816 -0.92597,-4.57195 0.48833,-6.32053 0.15234,-0.18828 0.81291,-0.56063 0.90336,-0.61669 2.38609,-0.79446 2.65502,-0.68391 4.95423,0.29997 0.0531,0.0229 -0.12653,-0.10548 -0.16302,-0.0603 -0.10252,0.12653 0.59182,0.25499 0.315,0.3732 -6.35017,-7.60264 -17.101917,1.37786 -10.75174,8.98049 z" />
  </g>
</svg>
