solid Body 1
  facet normal 0.000000e+00 -1.000000e+00 0.000000e+00
    outer loop
      vertex 0.000000e+00 0.000000e+00 1.000000e+00
      vertex 0.000000e+00 0.000000e+00 0.000000e+00
      vertex 1.000000e+00 0.000000e+00 0.000000e+00
    endloop
  endfacet
  facet normal 0.000000e+00 -1.000000e+00 0.000000e+00
    outer loop
      vertex 1.000000e+00 0.000000e+00 0.000000e+00
      vertex 1.000000e+00 0.000000e+00 1.000000e+00
      vertex 0.000000e+00 0.000000e+00 1.000000e+00
    endloop
  endfacet
  facet normal -8.660253e-01 -5.000002e-01 0.000000e+00
    outer loop
      vertex -5.000000e-01 8.660250e-01 0.000000e+00
      vertex 0.000000e+00 0.000000e+00 0.000000e+00
      vertex 0.000000e+00 0.000000e+00 1.000000e+00
    endloop
  endfacet
  facet normal -8.660253e-01 -5.000002e-01 -0.000000e+00
    outer loop
      vertex 0.000000e+00 0.000000e+00 1.000000e+00
      vertex -5.000000e-01 8.660250e-01 1.000000e+00
      vertex -5.000000e-01 8.660250e-01 0.000000e+00
    endloop
  endfacet
  facet normal 0.000000e+00 0.000000e+00 -1.000000e+00
    outer loop
      vertex 1.000000e+00 0.000000e+00 0.000000e+00
      vertex 0.000000e+00 0.000000e+00 0.000000e+00
      vertex -5.000000e-01 8.660250e-01 0.000000e+00
    endloop
  endfacet
  facet normal 0.000000e+00 0.000000e+00 -1.000000e+00
    outer loop
      vertex -5.000000e-01 8.660250e-01 0.000000e+00
      vertex 5.000000e-01 8.660250e-01 0.000000e+00
      vertex 1.000000e+00 0.000000e+00 0.000000e+00
    endloop
  endfacet
  facet normal 8.660253e-01 5.000002e-01 0.000000e+00
    outer loop
      vertex 1.000000e+00 0.000000e+00 1.000000e+00
      vertex 1.000000e+00 0.000000e+00 0.000000e+00
      vertex 5.000000e-01 8.660250e-01 0.000000e+00
    endloop
  endfacet
  facet normal 8.660253e-01 5.000002e-01 -0.000000e+00
    outer loop
      vertex 5.000000e-01 8.660250e-01 0.000000e+00
      vertex 5.000000e-01 8.660250e-01 1.000000e+00
      vertex 1.000000e+00 0.000000e+00 1.000000e+00
    endloop
  endfacet
  facet normal 0.000000e+00 1.000000e+00 0.000000e+00
    outer loop
      vertex 5.000000e-01 8.660250e-01 1.000000e+00
      vertex 5.000000e-01 8.660250e-01 0.000000e+00
      vertex -5.000000e-01 8.660250e-01 0.000000e+00
    endloop
  endfacet
  facet normal 0.000000e+00 1.000000e+00 0.000000e+00
    outer loop
      vertex -5.000000e-01 8.660250e-01 0.000000e+00
      vertex -5.000000e-01 8.660250e-01 1.000000e+00
      vertex 5.000000e-01 8.660250e-01 1.000000e+00
    endloop
  endfacet
  facet normal -0.000000e+00 0.000000e+00 1.000000e+00
    outer loop
      vertex -5.000000e-01 8.660250e-01 1.000000e+00
      vertex 0.000000e+00 0.000000e+00 1.000000e+00
      vertex 1.000000e+00 0.000000e+00 1.000000e+00
    endloop
  endfacet
  facet normal 0.000000e+00 0.000000e+00 1.000000e+00
    outer loop
      vertex 1.000000e+00 0.000000e+00 1.000000e+00
      vertex 5.000000e-01 8.660250e-01 1.000000e+00
      vertex -5.000000e-01 8.660250e-01 1.000000e+00
    endloop
  endfacet
endsolid Body 1
