solid Body 1
  facet normal 8.387200e-02 -3.482893e-01 -9.336274e-01
    outer loop
      vertex -2.000000e-01 1.200000e+00 -1.000000e-01
      vertex 1.180501e+00 3.919900e-01 3.254445e-01
      vertex 1.000000e-01 2.000000e-01 3.000000e-01
    endloop
  endfacet
  facet normal -1.179881e-02 -8.441855e-01 -5.359213e-01
    outer loop
      vertex -1.000000e-03 -2.100000e-02 1.002000e+00
      vertex 1.180501e+00 3.919900e-01 3.254445e-01
      vertex 1.200000e+00 -1.000000e-01 1.100000e+00
    endloop
  endfacet
  facet normal -1.430276e-01 -6.412920e-01 -7.538486e-01
    outer loop
      vertex -2.000000e-01 1.200000e+00 -1.000000e-01
      vertex 1.030000e+00 1.102000e+00 -2.500000e-01
      vertex 1.180501e+00 3.919900e-01 3.254445e-01
    endloop
  endfacet
  facet normal 1.745357e-01 -9.461231e-01 -2.727423e-01
    outer loop
      vertex -1.000000e-03 -2.100000e-02 1.002000e+00
      vertex 1.000000e-01 2.000000e-01 3.000000e-01
      vertex 1.180501e+00 3.919900e-01 3.254445e-01
    endloop
  endfacet
  facet normal -8.974221e-01 -3.671006e-01 -2.446850e-01
    outer loop
      vertex -1.000000e-03 -2.100000e-02 1.002000e+00
      vertex -2.000000e-01 1.200000e+00 -1.000000e-01
      vertex 1.000000e-01 2.000000e-01 3.000000e-01
    endloop
  endfacet
  facet normal -9.838270e-01 1.314457e-03 1.791166e-01
    outer loop
      vertex -1.000000e-03 -2.100000e-02 1.002000e+00
      vertex 0.000000e+00 1.000000e+00 1.000000e+00
      vertex -2.000000e-01 1.200000e+00 -1.000000e-01
    endloop
  endfacet
  facet normal 9.815125e-01 1.717819e-01 8.440498e-02
    outer loop
      vertex 1.180501e+00 3.919900e-01 3.254445e-01
      vertex 1.010000e+00 1.020000e+00 1.030000e+00
      vertex 1.200000e+00 -1.000000e-01 1.100000e+00
    endloop
  endfacet
  facet normal 9.726231e-01 2.304491e-01 2.996038e-02
    outer loop
      vertex 1.030000e+00 1.102000e+00 -2.500000e-01
      vertex 1.010000e+00 1.020000e+00 1.030000e+00
      vertex 1.180501e+00 3.919900e-01 3.254445e-01
    endloop
  endfacet
  facet normal -2.164577e-02 9.977420e-01 6.357963e-02
    outer loop
      vertex 0.000000e+00 1.000000e+00 1.000000e+00
      vertex 1.010000e+00 1.020000e+00 1.030000e+00
      vertex 1.030000e+00 1.102000e+00 -2.500000e-01
    endloop
  endfacet
  facet normal 9.785770e-02 9.821277e-01 1.607764e-01
    outer loop
      vertex -2.000000e-01 1.200000e+00 -1.000000e-01
      vertex 0.000000e+00 1.000000e+00 1.000000e+00
      vertex 1.030000e+00 1.102000e+00 -2.500000e-01
    endloop
  endfacet
  facet normal -7.802862e-02 4.899715e-02 9.957464e-01
    outer loop
      vertex -1.000000e-03 -2.100000e-02 1.002000e+00
      vertex 1.200000e+00 -1.000000e-01 1.100000e+00
      vertex 1.010000e+00 1.020000e+00 1.030000e+00
    endloop
  endfacet
  facet normal -2.972913e-02 1.987112e-03 9.995560e-01
    outer loop
      vertex 0.000000e+00 1.000000e+00 1.000000e+00
      vertex -1.000000e-03 -2.100000e-02 1.002000e+00
      vertex 1.010000e+00 1.020000e+00 1.030000e+00
    endloop
  endfacet
endsolid Body 1
