<?xml version="1.0" encoding="UTF-8" standalone="no"?>
<!-- Created with Inkscape (http://www.inkscape.org/) -->

<svg
   width="170mm"
   height="100mm"
   viewBox="0 0 170 100"
   version="1.1"
   id="svg1"
   inkscape:version="1.3 (0e150ed, 2023-07-21)"
   sodipodi:docname="Foam_Pet_0002.svg"
   xmlns:inkscape="http://www.inkscape.org/namespaces/inkscape"
   xmlns:sodipodi="http://sodipodi.sourceforge.net/DTD/sodipodi-0.dtd"
   xmlns="http://www.w3.org/2000/svg"
   xmlns:svg="http://www.w3.org/2000/svg">
  <sodipodi:namedview
     id="namedview1"
     pagecolor="#ffffff"
     bordercolor="#000000"
     borderopacity="0.25"
     inkscape:showpageshadow="2"
     inkscape:pageopacity="0.0"
     inkscape:pagecheckerboard="0"
     inkscape:deskcolor="#d1d1d1"
     inkscape:document-units="mm"
     inkscape:zoom="0.72693605"
     inkscape:cx="200.15516"
     inkscape:cy="238.67299"
     inkscape:window-width="1452"
     inkscape:window-height="991"
     inkscape:window-x="26"
     inkscape:window-y="23"
     inkscape:window-maximized="0"
     inkscape:current-layer="layer1"
     showgrid="false" />
  <defs
     id="defs1" />
  <g
     inkscape:label="Layer 1"
     inkscape:groupmode="layer"
     id="layer1">
    <ellipse
       style="fill:#ffc95c;fill-opacity:1;stroke-width:0.12736;stroke-dasharray:none"
       id="path2-0-9-8-2-6"
       cx="-1.8865919"
       cy="-94.255112"
       rx="22.530235"
       ry="11.78942"
       transform="matrix(0.3620987,-0.93213976,-0.71395834,-0.70018818,0,0)" />
    <path
       style="fill:#40d998;fill-opacity:1;stroke-width:0.239"
       d="m 125.63952,52.226934 c 0,0 23.17824,-0.361839 23.49529,-9.245705 0.31706,-8.883867 -3.52667,-23.132747 -3.52667,-23.132747 0,0 -6.45622,-14.7919924 -20.77903,-9.106374 -14.32281,5.685619 -2.45253,19.586878 -2.45253,19.586878 0,0 14.52328,6.139871 7.26235,11.526919 -7.26093,5.387049 -7.63983,7.67324 -7.63983,7.67324 z"
       id="path1" />
    <ellipse
       style="fill:#e3e921;fill-opacity:1;stroke-width:0.223052;stroke-dasharray:none"
       id="path2-0-9"
       cx="-50.48243"
       cy="-47.555325"
       rx="27.330214"
       ry="29.809624"
       transform="matrix(-0.32605491,-0.94535083,-0.99342906,-0.11444955,0,0)" />
    <ellipse
       style="fill:#64df67;fill-opacity:1;stroke-width:0.0873333;stroke-dasharray:none"
       id="path2-0-2"
       cx="-32.157509"
       cy="38.710152"
       rx="13.549847"
       ry="9.2176561"
       transform="scale(-1,1)" />
    <ellipse
       style="fill:#ffc038;fill-opacity:1;stroke-width:0.12736;stroke-dasharray:none"
       id="path2-0-9-8-1"
       cx="-43.640255"
       cy="-111.188"
       rx="22.530235"
       ry="11.78942"
       transform="matrix(-0.15248321,-0.98830606,-0.96840015,-0.24940159,0,0)" />
    <ellipse
       style="fill:#e0ed4a;fill-opacity:1;stroke-width:0.220211;stroke-dasharray:none"
       id="path2"
       cx="-86.485474"
       cy="57.835438"
       rx="44.312557"
       ry="17.920183"
       transform="scale(-1,1)" />
    <ellipse
       style="fill:#ea9fec;fill-opacity:1;stroke-width:0.116683;stroke-dasharray:none"
       id="path2-0"
       cx="-40.199821"
       cy="36.072456"
       rx="16.164307"
       ry="13.792643"
       transform="scale(-1,1)" />
    <ellipse
       style="fill:#e475d4;fill-opacity:1;stroke-width:0.172381;stroke-dasharray:none"
       id="path2-0-6"
       cx="-54.373032"
       cy="32.449348"
       rx="24.312233"
       ry="20.014174"
       transform="matrix(-0.99533678,0.09646081,-0.06136219,0.99811557,0,0)" />
    <ellipse
       style="fill:#ff9e21;fill-opacity:1;stroke-width:0.12736;stroke-dasharray:none"
       id="path2-0-9-8"
       cx="-41.151009"
       cy="-120.36172"
       rx="22.530235"
       ry="11.78942"
       transform="matrix(-0.15248321,-0.98830606,-0.96840015,-0.24940159,0,0)" />
    <ellipse
       style="fill:#ffa600;fill-opacity:1;stroke-width:0.12736;stroke-dasharray:none"
       id="path2-0-9-8-2"
       cx="-7.9840636"
       cy="-86.444717"
       rx="22.530235"
       ry="11.78942"
       transform="matrix(0.3620987,-0.93213976,-0.71395834,-0.70018818,0,0)" />
    <circle
       style="fill:#f8daf7;fill-opacity:1;stroke-width:0.228996;stroke-dasharray:none"
       id="path3"
       cx="-36.477791"
       cy="30.08428"
       r="2.1249399"
       transform="scale(-1,1)" />
  </g>
</svg>
