<?xml version="1.0" encoding="UTF-8" standalone="no"?>
<!-- Created with Inkscape (http://www.inkscape.org/) -->

<svg
   width="170mm"
   height="100mm"
   viewBox="0 0 170 100"
   version="1.1"
   id="svg1"
   inkscape:version="1.3 (0e150ed, 2023-07-21)"
   sodipodi:docname="Mech_Pet_0001.svg"
   xmlns:inkscape="http://www.inkscape.org/namespaces/inkscape"
   xmlns:sodipodi="http://sodipodi.sourceforge.net/DTD/sodipodi-0.dtd"
   xmlns="http://www.w3.org/2000/svg"
   xmlns:svg="http://www.w3.org/2000/svg">
  <sodipodi:namedview
     id="namedview1"
     pagecolor="#000000"
     bordercolor="#000000"
     borderopacity="0.25"
     inkscape:showpageshadow="2"
     inkscape:pageopacity="0.0"
     inkscape:pagecheckerboard="0"
     inkscape:deskcolor="#d1d1d1"
     inkscape:document-units="mm"
     inkscape:zoom="1.0280428"
     inkscape:cx="228.5897"
     inkscape:cy="130.83113"
     inkscape:window-width="1532"
     inkscape:window-height="947"
     inkscape:window-x="26"
     inkscape:window-y="23"
     inkscape:window-maximized="0"
     inkscape:current-layer="layer1"
     showgrid="false" />
  <defs
     id="defs1">
    <inkscape:perspective
       sodipodi:type="inkscape:persp3d"
       inkscape:vp_x="90.083039 : 3.601798 : 1"
       inkscape:vp_y="0 : 827.95642 : 0"
       inkscape:vp_z="284.17806 : 3.601798 : 1"
       inkscape:persp3d-origin="187.13055 : -10.197476 : 1"
       id="perspective9" />
    <filter
       inkscape:collect="always"
       style="color-interpolation-filters:sRGB"
       id="filter146"
       x="-0.068246741"
       y="-0.040282998"
       width="1.1364484"
       height="1.0806477">
      <feGaussianBlur
         inkscape:collect="always"
         stdDeviation="0.78457066"
         id="feGaussianBlur146" />
    </filter>
    <filter
       inkscape:collect="always"
       style="color-interpolation-filters:sRGB"
       id="filter147"
       x="-1.7399044"
       y="-0.088105428"
       width="4.4797787"
       height="1.1762109">
      <feGaussianBlur
         inkscape:collect="always"
         stdDeviation="0.78457066"
         id="feGaussianBlur147" />
    </filter>
    <filter
       inkscape:collect="always"
       style="color-interpolation-filters:sRGB"
       id="filter148"
       x="-0.092893514"
       y="-0.15998712"
       width="1.1856974"
       height="1.3200415">
      <feGaussianBlur
         inkscape:collect="always"
         stdDeviation="0.78457066"
         id="feGaussianBlur148" />
    </filter>
    <filter
       inkscape:collect="always"
       style="color-interpolation-filters:sRGB"
       id="filter146-3"
       x="-0.10747072"
       y="-0.063371201"
       width="1.2148481"
       height="1.126937">
      <feGaussianBlur
         inkscape:collect="always"
         stdDeviation="0.80122935"
         id="feGaussianBlur146-8" />
    </filter>
    <filter
       inkscape:collect="always"
       style="color-interpolation-filters:sRGB"
       id="filter147-0"
       x="-2.7397838"
       y="-0.13873541"
       width="6.4794946"
       height="1.2774709">
      <feGaussianBlur
         inkscape:collect="always"
         stdDeviation="0.80122935"
         id="feGaussianBlur147-4" />
    </filter>
    <filter
       inkscape:collect="always"
       style="color-interpolation-filters:sRGB"
       id="filter148-0"
       x="-0.14629152"
       y="-0.25162814"
       width="1.3071235"
       height="1.5034232">
      <feGaussianBlur
         inkscape:collect="always"
         stdDeviation="0.80122935"
         id="feGaussianBlur148-9" />
    </filter>
  </defs>
  <g
     inkscape:label="Layer 1"
     inkscape:groupmode="layer"
     id="layer1">
    <path
       style="mix-blend-mode:normal;fill:none;fill-opacity:0.893119;stroke:#ffffff;stroke-width:5.965;stroke-linecap:round;stroke-dasharray:none;stroke-opacity:0.78887421;paint-order:stroke fill markers;filter:url(#filter146-3)"
       id="path144-9"
       d="m 42.547869,47.500852 c 4.24398,-3.586771 7.71869,-7.998591 11.15936,-12.33207 4.29611,-5.649607 8.01241,-11.705255 11.64556,-17.792915 -0.83254,-1.012495 1.18376,-0.945866 1.13523,-1.597256 -0.0127,-0.169868 -0.33188,0.131056 -0.43677,0.265263 -0.14979,0.191645 -0.26265,0.426989 -0.29291,0.668335 -0.0888,0.708123 -0.0301,1.427106 -0.0592,2.140177 -0.0411,1.007544 -0.10105,2.014235 -0.15159,3.021349 -0.20244,3.41357 -0.46967,6.823124 -0.67264,10.236641 -0.0336,0.564939 -0.22839,3.963311 -0.19461,4.779185 0.0183,0.44343 0.12838,0.878282 0.19257,1.317422 0.26429,0.254621 0.42703,0.734701 0.79286,0.763863 1.33894,0.106735 2.70901,-1.370825 3.46933,-2.119134 2.53578,-2.495738 4.60454,-5.379858 6.72404,-8.221676 3.64247,-5.135808 6.83082,-10.569124 10.14248,-15.918309 0.22879,-0.305304 0.428,-0.635207 0.68639,-0.915911 0.0314,-0.03405 0.0699,0.107893 0.0324,0.135017 -0.20732,0.149924 -0.58244,0.106521 -0.68844,0.33938 -0.27365,0.60114 -0.22991,1.300871 -0.35359,1.949684 -1.51268,7.935738 0.16634,-1.229271 -1.63954,8.783491 -2.12139,13.046222 -3.93209,26.173617 -4.64169,39.382036 -0.13162,2.449879 -0.17365,4.903759 -0.26048,7.355629 -0.0739,4.652128 -0.14448,9.309278 0.0871,13.958518 0.0449,0.90205 0.0853,2.34941 0.3832,3.31146 0.0643,0.20754 0.20558,0.38281 0.30837,0.57421 0.43932,0.72057 1.45836,0.0993 1.01903,-0.6213 v 0 c -0.0526,-0.0634 -0.13367,-0.11148 -0.15774,-0.19027 -0.29266,-0.95792 -0.3135,-2.18424 -0.36016,-3.11789 -0.2309,-4.62059 -0.1598,-9.24908 -0.0871,-13.872548 0.0861,-2.43819 0.12762,-4.87837 0.25831,-7.314572 0.70629,-13.165327 2.51203,-26.249749 4.62565,-39.253448 0.3083,-1.709619 0.60615,-3.421153 0.9249,-5.128851 0.22823,-1.222749 0.49006,-2.43909 0.716,-3.662266 0.22691,-1.228464 0.89562,-2.668279 -0.41002,-3.654381 -0.52193,-0.394194 -1.47523,1.504859 -1.45745,1.313779 -3.29349,5.320035 -6.46441,10.723629 -10.08448,15.833093 -2.07489,2.783123 -4.10238,5.580845 -6.56215,8.044847 -0.48982,0.490657 -1.05172,0.905698 -1.54101,1.396882 -0.18308,0.183794 -0.27572,0.448072 -0.46909,0.621015 -0.0699,0.06253 -0.18499,0.03114 -0.27749,0.0467 -0.0597,-0.368722 -0.16396,-0.732953 -0.17916,-1.106172 -0.0333,-0.817105 0.15904,-4.169778 0.19244,-4.731501 0.20334,-3.419599 0.47116,-6.83522 0.6737,-10.254886 0.0509,-1.016309 0.11196,-2.032161 0.15266,-3.048931 0.0267,-0.667043 0.26388,-3.178324 -0.33786,-3.922937 -0.81664,-1.010542 -2.13511,1.650425 -2.22645,1.802619 -3.60604,6.042299 -7.29328,12.053652 -11.5555,17.662526 -3.36889,4.245066 -6.77149,8.560369 -10.9077,12.095436 -0.69201,0.483047 -0.009,1.46171 0.68314,0.978662 z" />
    <path
       style="mix-blend-mode:normal;fill:none;fill-opacity:0.893119;stroke:#ffffff;stroke-width:5.965;stroke-linecap:round;stroke-dasharray:none;stroke-opacity:0.78887421;paint-order:stroke fill markers;filter:url(#filter147-0)"
       id="path145-6"
       d="m 98.203539,14.744114 c -0.23274,3.295726 -0.38181,6.593696 -0.48236,9.896141 -0.18592,5.442141 -0.11579,10.886139 0.003,16.328511 0.068,2.623595 0.10526,5.247732 0.1242,7.872086 0.006,0.843913 1.19956,0.835295 1.19347,-0.0086 v 0 c -0.019,-2.630143 -0.0563,-5.260071 -0.12445,-7.88945 -0.11808,-5.421613 -0.1883,-10.844843 -0.003,-16.266228 0.10081,-3.314622 0.25442,-6.624306 0.48291,-9.932443 0,-0.843934 -1.1935,-0.843934 -1.1935,0 z" />
    <path
       style="mix-blend-mode:normal;fill:none;fill-opacity:0.893119;stroke:#ffffff;stroke-width:5.965;stroke-linecap:round;stroke-dasharray:none;stroke-opacity:0.78887421;paint-order:stroke fill markers;filter:url(#filter148-0)"
       id="path146-2"
       d="m 92.022149,13.705007 c 4.16936,2.212241 8.532581,4.033253 12.889221,5.837796 4.4573,1.771043 9.00325,3.32213 13.66872,4.445755 1.74424,0.420077 2.76837,0.604389 4.46751,0.936909 0.4004,0.10374 0.80081,0.207479 1.20122,0.311216 0.0183,0.06113 0.10825,0.218132 0.0547,0.183399 -0.21807,-0.141534 -0.31838,-0.520085 -0.57832,-0.523253 -0.56988,-0.0069 -1.08714,0.343261 -1.63613,0.496266 -1.42827,0.398058 -4.77186,1.239157 -6.05678,1.56629 -4.8946,1.236886 -9.77791,2.515852 -14.65093,3.834999 -0.81461,0.220522 -0.50274,1.372558 0.31187,1.152036 v 0 c 4.86722,-1.31761 9.74475,-2.595003 14.63355,-3.83043 0.92139,-0.2346 4.98934,-1.259641 6.11825,-1.583712 1.13178,-0.324894 2.52769,-0.396282 2.71699,-1.94131 0.0837,-0.682454 -2.0569,-0.618571 -1.88531,-0.836805 -1.67047,-0.326615 -2.685,-0.509174 -4.39869,-0.921326 -4.61155,-1.109089 -9.10428,-2.643059 -13.50997,-4.392707 -4.35486,-1.803475 -8.712881,-3.627373 -12.882391,-5.834939 -0.77768,-0.327762 -1.24121,0.772055 -0.46352,1.099816 z" />
    <path
       style="opacity:1;fill:none;fill-opacity:0.893119;stroke:#7b2ae3;stroke-width:2.46458;stroke-linecap:round;stroke-dasharray:none;stroke-opacity:1;paint-order:stroke fill markers;filter:url(#filter146)"
       id="path144"
       d="m 43.393779,46.976781 c 4.24398,-3.586771 7.718689,-7.998591 11.159363,-12.33207 4.296106,-5.649607 8.01241,-11.705255 11.645562,-17.792915 -0.832541,-1.012495 1.183756,-0.945866 1.13523,-1.597256 -0.01266,-0.169868 -0.331879,0.131056 -0.436776,0.265263 -0.149784,0.191645 -0.262651,0.426989 -0.292905,0.668335 -0.08877,0.708123 -0.03007,1.427106 -0.05917,2.140177 -0.04114,1.007544 -0.101054,2.014235 -0.151587,3.021349 -0.202448,3.41357 -0.469677,6.823124 -0.672649,10.236641 -0.0336,0.564939 -0.228388,3.963311 -0.194609,4.779185 0.01834,0.44343 0.128384,0.878282 0.192576,1.317422 0.264286,0.254621 0.42703,0.734701 0.792857,0.763863 1.338936,0.106735 2.709012,-1.370825 3.469327,-2.119134 2.535786,-2.495738 4.60454,-5.379858 6.724046,-8.221676 3.642471,-5.135808 6.830817,-10.569124 10.142473,-15.918309 0.228796,-0.305304 0.428003,-0.635207 0.686391,-0.915911 0.03135,-0.03405 0.06993,0.107893 0.03242,0.135017 -0.207319,0.149924 -0.582439,0.106521 -0.68844,0.33938 -0.27365,0.60114 -0.22991,1.300871 -0.353586,1.949684 -1.512683,7.935738 0.16634,-1.229271 -1.639541,8.783491 -2.121392,13.046222 -3.932093,26.173617 -4.641691,39.382036 -0.131617,2.44988 -0.173651,4.903754 -0.260475,7.35563 -0.07389,4.652127 -0.144486,9.309275 0.08714,13.958522 0.04494,0.902047 0.08526,2.349407 0.383198,3.311459 0.06427,0.207533 0.205576,0.382807 0.308363,0.57421 0.439327,0.720565 1.458361,0.09927 1.019034,-0.621305 v 0 c -0.05257,-0.06342 -0.133664,-0.111474 -0.157736,-0.190264 -0.292662,-0.957919 -0.313504,-2.184242 -0.360161,-3.117889 -0.230899,-4.62059 -0.159804,-9.249081 -0.08708,-13.872551 0.0861,-2.438193 0.127617,-4.878369 0.258312,-7.314575 0.706289,-13.165327 2.512023,-26.249749 4.62565,-39.253448 0.308299,-1.709619 0.60615,-3.421153 0.9249,-5.128851 0.22823,-1.222749 0.490054,-2.43909 0.715992,-3.662266 0.226914,-1.228464 0.895622,-2.668279 -0.410016,-3.654381 -0.52193,-0.3941943 -1.475234,1.504859 -1.45745,1.313779 -3.293485,5.320035 -6.46441,10.723629 -10.084477,15.833093 -2.074889,2.783123 -4.102386,5.580845 -6.562157,8.044847 -0.489813,0.490657 -1.051717,0.905698 -1.541004,1.396882 -0.183084,0.183794 -0.275721,0.448072 -0.46909,0.621015 -0.06992,0.06253 -0.184994,0.03114 -0.277489,0.0467 -0.05972,-0.368722 -0.163963,-0.732953 -0.179164,-1.106172 -0.03329,-0.817105 0.159042,-4.169778 0.192442,-4.731501 0.203335,-3.419599 0.471155,-6.83522 0.673703,-10.254886 0.05089,-1.016309 0.111951,-2.032161 0.152652,-3.048931 0.02671,-0.667043 0.263885,-3.178324 -0.337851,-3.922937 -0.816642,-1.010542 -2.135115,1.650425 -2.226458,1.802619 -3.606039,6.042299 -7.293275,12.053652 -11.555495,17.662526 -3.368891,4.245066 -6.771488,8.560369 -10.907699,12.095436 -0.692018,0.483047 -0.0088,1.46171 0.683133,0.978662 z" />
    <path
       style="opacity:1;fill:none;fill-opacity:0.893119;stroke:#7b2ae3;stroke-width:2.46458;stroke-linecap:round;stroke-dasharray:none;stroke-opacity:1;paint-order:stroke fill markers;filter:url(#filter147)"
       id="path145"
       d="m 99.049448,14.220043 c -0.232734,3.295726 -0.381804,6.593696 -0.482355,9.896141 -0.185925,5.442141 -0.115794,10.886139 0.0029,16.328511 0.06797,2.623595 0.105255,5.247732 0.124194,7.872086 0.0061,0.843913 1.199563,0.835295 1.193472,-0.0086 v 0 c -0.01898,-2.630143 -0.05633,-5.260071 -0.124443,-7.88945 -0.118085,-5.421613 -0.188306,-10.844843 -0.0029,-16.266228 0.100804,-3.314622 0.254414,-6.624306 0.482904,-9.932443 0,-0.843934 -1.193499,-0.843934 -1.193499,0 z" />
    <path
       style="opacity:1;fill:none;fill-opacity:0.893119;stroke:#7b2ae3;stroke-width:2.46458;stroke-linecap:round;stroke-dasharray:none;stroke-opacity:1;paint-order:stroke fill markers;filter:url(#filter148)"
       id="path146"
       d="m 92.868059,13.180936 c 4.169365,2.212241 8.532581,4.033253 12.889221,5.837796 4.4573,1.771043 9.00325,3.32213 13.66872,4.445755 1.74424,0.420077 2.76837,0.604389 4.46751,0.936909 0.4004,0.10374 0.80081,0.207479 1.20122,0.311216 0.0183,0.06113 0.10825,0.218132 0.0547,0.183399 -0.21807,-0.141534 -0.31838,-0.520085 -0.57832,-0.523253 -0.56988,-0.0069 -1.08714,0.343261 -1.63613,0.496266 -1.42827,0.398058 -4.77186,1.239157 -6.05678,1.56629 -4.8946,1.236886 -9.77791,2.515852 -14.65093,3.834999 -0.81461,0.220522 -0.50274,1.372558 0.31187,1.152036 v 0 c 4.86722,-1.31761 9.74475,-2.595003 14.63355,-3.83043 0.92139,-0.2346 4.98934,-1.259641 6.11825,-1.583712 1.13178,-0.324894 2.52769,-0.396282 2.71699,-1.94131 0.0837,-0.682454 -2.0569,-0.618571 -1.88531,-0.836805 -1.67047,-0.326615 -2.685,-0.509174 -4.39869,-0.921326 -4.61155,-1.109089 -9.10428,-2.643059 -13.50997,-4.392707 -4.35486,-1.803475 -8.712882,-3.627373 -12.882385,-5.834939 -0.777687,-0.327762 -1.241212,0.772055 -0.463523,1.099816 z" />
  </g>
</svg>
