<?xml version="1.0" encoding="utf-8" ?>
<svg xmlns="http://www.w3.org/2000/svg" xmlns:xlink="http://www.w3.org/1999/xlink" width="1024" height="1024">
	<path fill="#EFF4F6" transform="scale(2 2)" d="M281.285 258.263L296.625 258.24C337.205 257.946 371.691 285.739 375.762 327.017C376.547 334.977 376.225 343.075 376.219 351.067L376.225 386.301C376.243 395.194 378.078 406.343 372.274 413.948C365.833 421.858 358.671 421.814 349.436 421.741C348.322 424.406 346.758 427.536 343.948 428.702C340.393 430.177 294.963 429.478 287.998 429.478L214.966 429.478C204.136 428.908 191.269 429.454 180.179 429.461C176.349 429.464 172.36 429.952 168.561 429.478C165.674 426.908 164.205 424.606 163.445 420.749C155.659 420.788 147.482 422.104 141.465 416.053C133.317 407.86 136.029 392.82 136.042 382.007L136.033 335.833C136.319 295.526 171.065 257.989 212.36 258.263L230.259 258.263C230.684 273.867 250.023 286.541 264.969 280.701C274.158 276.946 281.276 268.499 281.285 258.263Z"/>
	<path fill="#B7D5EC" transform="scale(2 2)" d="M163.445 420.749C155.659 420.788 147.482 422.104 141.465 416.053C133.317 407.86 136.029 392.82 136.042 382.007L136.033 335.833C136.319 295.526 171.065 257.989 212.36 258.263C214.076 258.658 215.974 258.524 217.731 258.526C214.625 261.76 209.871 263.439 206.086 265.822C193.089 274.002 180.375 285.822 173.195 299.45L172.012 299.45C166.211 304.8 168.852 313.509 169.513 320.419L175.399 383.664C175.826 388.009 175.77 392.523 176.7 396.786C181.29 417.834 209.197 412.506 225.576 412.505L322.465 412.507C333.559 412.519 340.393 414.49 350.182 409.302C349.894 413.446 349.578 417.589 349.436 421.741C348.322 424.406 346.758 427.536 343.948 428.702C340.393 430.177 294.963 429.478 287.998 429.478L214.966 429.478C204.136 428.908 191.269 429.454 180.179 429.461C176.349 429.464 172.36 429.952 168.561 429.478C165.674 426.908 164.205 424.606 163.445 420.749Z"/>
	<path fill="#0484EA" transform="scale(2 2)" d="M163.445 420.749C155.659 420.788 147.482 422.104 141.465 416.053C133.317 407.86 136.029 392.82 136.042 382.007L136.033 335.833C136.319 295.526 171.065 257.989 212.36 258.263C214.076 258.658 215.974 258.524 217.731 258.526C214.625 261.76 209.871 263.439 206.086 265.822C193.089 274.002 180.375 285.822 173.195 299.45L172.012 299.45C152.289 297.646 152.154 308.465 153.93 324.059L160.899 394.622C161.711 403.294 163.126 412.054 163.445 420.749Z"/>
	<path fill="#169EFC" transform="scale(2 2)" d="M281.285 258.263L296.625 258.24C337.205 257.946 371.691 285.739 375.762 327.017C376.547 334.977 376.225 343.075 376.219 351.067L376.225 386.301C376.243 395.194 378.078 406.343 372.274 413.948C365.833 421.858 358.671 421.814 349.436 421.741C349.578 417.589 349.894 413.446 350.182 409.302C350.577 404.376 351.473 399.509 351.76 394.556C352.6 383.755 353.95 372.937 355.105 362.163L357.677 336.031C358.472 328.151 359.952 320.035 359.974 312.114C360.019 295.851 342.986 299.431 332.072 299.439L173.195 299.45C180.375 285.822 193.089 274.002 206.086 265.822C209.871 263.439 214.625 261.76 217.731 258.526C215.974 258.524 214.076 258.658 212.36 258.263L230.259 258.263C230.684 273.867 250.023 286.541 264.969 280.701C274.158 276.946 281.276 268.499 281.285 258.263Z"/>
	<path fill="#0484EA" transform="scale(2 2)" d="M351.76 394.556C362.008 395.359 370.66 403.813 372.274 413.948C365.833 421.858 358.671 421.814 349.436 421.741C349.578 417.589 349.894 413.446 350.182 409.302C350.577 404.376 351.473 399.509 351.76 394.556Z"/>
	<path fill="#B7D5EC" transform="scale(2 2)" d="M252.6 339.291C256.004 339.045 258.885 340.806 260.134 344.031C262.54 350.241 254.929 351.828 250.982 353.793C235.183 361.659 243.654 376.208 234.535 379.649C217.33 381.168 227.594 344.739 252.6 339.291Z"/>
	<path fill="#B7D5EC" transform="scale(2 2)" d="M278.41 349.768C294.095 348.904 285.283 384.95 259.716 389.674C254.839 390.289 251.371 386.095 252.477 381.242C253.731 375.74 262.897 375.896 267.421 371.212C275.703 362.638 269.625 352.586 278.41 349.768Z"/>
	<path fill="#FED0B9" transform="scale(2 2)" d="M184.294 145.368C185.416 135.307 183.614 123.236 184.537 112.474C187.531 77.5862 218.483 52.4505 252.628 51.3985C261.844 51.1145 271.158 51.5351 280.391 51.5146L290.821 51.443C310.553 51.188 306.006 61.1229 305.97 77.2964C324.211 89.6823 328.925 101.672 328.949 123.999L328.952 140.912C329.095 144.351 328.941 147.797 328.952 151.237C336.129 155.67 342.061 162.726 340.395 171.685C337.552 184.781 327.833 188.48 315.464 187.664L314.992 187.898C314.628 189.303 314.705 190.71 314.491 192.138C312.282 206.924 301.092 221.859 288.424 229.222C286.136 230.552 283.501 231.443 281.285 232.851C281.387 235.131 281.38 237.371 281.285 239.651C281.235 245.847 281.159 252.068 281.285 258.263C281.276 268.499 274.158 276.946 264.969 280.701C250.023 286.541 230.684 273.867 230.259 258.263C230.495 255.557 230.284 252.677 230.281 249.951L230.259 232.851C215.956 224.881 205.926 215.559 199.878 200.047C198.356 196.143 197.756 191.821 196.003 188.043L195.824 187.664C190.593 187.694 186.106 187.76 181.482 184.957C173.463 180.095 169.527 168.914 174.597 160.56C176.163 156.682 180.829 153.288 184.294 151.237C184.232 149.294 184.083 147.303 184.294 145.368Z"/>
	<path fill="#535C69" transform="scale(2 2)" d="M184.294 145.368C185.416 135.307 183.614 123.236 184.537 112.474C187.531 77.5862 218.483 52.4505 252.628 51.3985C261.844 51.1145 271.158 51.5351 280.391 51.5146L290.821 51.443C310.553 51.188 306.006 61.1229 305.97 77.2964C324.211 89.6823 328.925 101.672 328.949 123.999L328.952 140.912C328.791 144.347 328.966 147.799 328.952 151.237C324.66 150.22 320.688 150.142 316.301 150.241L315.464 150.241C315.831 143.156 316.509 130.775 312.49 125.374C305.006 115.319 297.397 119.513 288.669 124.073C271.101 133.252 248.071 134.626 230.238 125.389C225.015 122.684 220.927 119.741 214.966 118.855C206.31 117.56 197.032 122.857 195.867 131.966C195.386 135.727 197.493 149.917 194.468 150.241C191.064 149.898 187.58 150.346 184.294 151.237C184.365 149.275 184.346 147.33 184.294 145.368Z"/>
	<path fill="#F2B69A" transform="scale(2 2)" d="M194.468 150.241C197.493 149.917 195.386 135.727 195.867 131.966C197.032 122.857 206.31 117.56 214.966 118.855C212.99 121.595 213.881 173.186 215.72 184.456C218.117 199.143 225.242 214.377 237.621 223.331C245.921 229.336 264.958 235.932 275.557 234.284C277.478 233.986 279.378 233.063 281.285 232.851C281.387 235.131 281.38 237.371 281.285 239.651C281.235 245.847 281.159 252.068 281.285 258.263C281.276 268.499 274.158 276.946 264.969 280.701C250.023 286.541 230.684 273.867 230.259 258.263C230.495 255.557 230.284 252.677 230.281 249.951L230.259 232.851C215.956 224.881 205.926 215.559 199.878 200.047C198.356 196.143 197.756 191.821 196.003 188.043L195.824 187.664C190.593 187.694 186.106 187.76 181.482 184.957C173.463 180.095 169.527 168.914 174.597 160.56C176.163 156.682 180.829 153.288 184.294 151.237C184.232 149.294 184.083 147.303 184.294 145.368C184.346 147.33 184.365 149.275 184.294 151.237C187.58 150.346 191.064 149.898 194.468 150.241Z"/>
	<path fill="#FED0B9" transform="scale(2 2)" d="M250.464 250.831C255.951 250.67 279.237 245.444 281.285 239.651C281.235 245.847 281.159 252.068 281.285 258.263C281.276 268.499 274.158 276.946 264.969 280.701C261.726 278.409 258.991 278.252 255.926 274.995C249.989 268.688 250.252 258.951 250.464 250.831Z"/>
	<path fill="#FED0B9" transform="scale(2 2)" d="M184.294 151.237C184.232 149.294 184.083 147.303 184.294 145.368C184.346 147.33 184.365 149.275 184.294 151.237C187.58 150.346 191.064 149.898 194.468 150.241L195.635 150.57C196.173 152.198 195.964 175.507 195.824 178.523C181.742 177.36 180.651 169.989 174.597 160.56C176.163 156.682 180.829 153.288 184.294 151.237Z"/>
	<path fill="#FED0B9" transform="scale(2 2)" d="M328.952 151.237C328.966 147.799 328.791 144.347 328.952 140.912C329.095 144.351 328.941 147.797 328.952 151.237C336.129 155.67 342.061 162.726 340.395 171.685C337.552 184.781 327.833 188.48 315.464 187.664C314.304 186.983 315.476 180.351 315.467 178.808L315.464 150.241L316.301 150.241C320.688 150.142 324.66 150.22 328.952 151.237Z"/>
	<path fill="#F2B69A" transform="scale(2 2)" d="M315.464 150.241L316.301 150.241C316.289 157.041 314.985 170.024 319.91 175.155C329.847 185.511 337.016 172.335 340.151 171.213L340.395 171.685C337.552 184.781 327.833 188.48 315.464 187.664C314.304 186.983 315.476 180.351 315.467 178.808L315.464 150.241Z"/>
	<path fill="#535C69" transform="scale(2 2)" d="M273.83 193.521C278.736 193.439 282.615 198.268 279.652 202.894C271.821 215.125 248.82 214.783 237.209 207.411C232.495 203.925 227.091 196.932 235.779 194.049C241.595 192.119 250.369 206.557 266.612 197.663C268.994 196.358 271.269 194.422 273.83 193.521Z"/>
	<path fill="#535C69" transform="scale(2 2)" d="M227.655 155.374Q227.895 155.309 228.138 155.255Q228.382 155.202 228.627 155.16Q228.872 155.119 229.12 155.089Q229.367 155.06 229.615 155.043Q229.864 155.026 230.113 155.021Q230.362 155.016 230.61 155.023Q230.859 155.031 231.107 155.051Q231.356 155.07 231.603 155.102Q231.85 155.134 232.095 155.178Q232.34 155.222 232.582 155.278Q232.825 155.334 233.064 155.402Q233.304 155.47 233.54 155.549Q233.776 155.629 234.007 155.72Q234.239 155.811 234.466 155.913Q234.693 156.016 234.915 156.129Q235.136 156.243 235.352 156.367Q235.568 156.491 235.777 156.626Q235.986 156.76 236.189 156.905Q236.391 157.05 236.587 157.205Q236.782 157.359 236.969 157.524Q237.156 157.688 237.335 157.861Q237.514 158.034 237.684 158.215Q237.855 158.397 238.016 158.587Q238.177 158.777 238.328 158.974Q238.48 159.172 238.621 159.377Q238.763 159.582 238.894 159.793Q239.026 160.005 239.146 160.222Q239.267 160.44 239.377 160.663Q239.487 160.887 239.586 161.115Q239.685 161.344 239.772 161.577Q239.859 161.81 239.935 162.047Q240.011 162.284 240.075 162.525Q240.139 162.766 240.191 163.009Q240.243 163.253 240.283 163.498Q240.323 163.744 240.351 163.991Q240.379 164.239 240.395 164.487Q240.411 164.736 240.414 164.985Q240.417 165.234 240.409 165.482Q240.4 165.731 240.379 165.979Q240.358 166.227 240.324 166.474Q240.291 166.721 240.246 166.966Q240.2 167.21 240.143 167.453Q240.086 167.695 240.016 167.934Q239.947 168.173 239.866 168.409Q239.785 168.644 239.693 168.875Q239.6 169.107 239.497 169.333Q239.393 169.559 239.278 169.78Q239.164 170.001 239.038 170.216Q238.913 170.431 238.777 170.64Q238.641 170.849 238.495 171.05Q238.349 171.252 238.193 171.446Q238.037 171.64 237.872 171.827Q237.707 172.013 237.533 172.191Q237.359 172.369 237.176 172.538Q236.993 172.707 236.803 172.867Q236.612 173.027 236.414 173.178Q236.215 173.328 236.01 173.468Q235.804 173.609 235.592 173.739Q235.379 173.869 235.161 173.989Q234.943 174.108 234.719 174.217Q234.495 174.325 234.265 174.423Q234.036 174.52 233.803 174.606Q233.569 174.692 233.332 174.767Q233.094 174.841 232.853 174.904Q232.614 174.966 232.372 175.017Q232.13 175.067 231.886 175.106Q231.642 175.144 231.396 175.171Q231.15 175.197 230.903 175.212Q230.657 175.226 230.409 175.229Q230.162 175.231 229.915 175.222Q229.668 175.212 229.422 175.19Q229.176 175.169 228.931 175.135Q228.686 175.101 228.443 175.056Q228.2 175.01 227.96 174.952Q227.719 174.895 227.482 174.826Q227.245 174.757 227.011 174.676Q226.777 174.595 226.548 174.503Q226.319 174.411 226.094 174.308Q225.869 174.205 225.65 174.091Q225.431 173.977 225.217 173.853Q225.004 173.728 224.797 173.593Q224.589 173.458 224.389 173.314Q224.189 173.169 223.996 173.014Q223.803 172.86 223.618 172.696Q223.432 172.533 223.255 172.36Q223.078 172.187 222.91 172.006Q222.742 171.825 222.582 171.636Q222.423 171.447 222.273 171.251Q222.123 171.054 221.983 170.851Q221.843 170.647 221.713 170.437Q221.583 170.226 221.464 170.01Q221.344 169.794 221.236 169.572Q221.127 169.35 221.029 169.123Q220.931 168.896 220.845 168.664Q220.758 168.433 220.683 168.197Q220.608 167.962 220.544 167.723Q220.48 167.484 220.429 167.242Q220.377 167.001 220.337 166.757Q220.297 166.513 220.269 166.267Q220.241 166.022 220.225 165.775Q220.209 165.529 220.205 165.281Q220.202 165.034 220.21 164.787Q220.218 164.54 220.238 164.294Q220.259 164.048 220.291 163.802Q220.323 163.557 220.368 163.314Q220.412 163.071 220.468 162.83Q220.524 162.59 220.592 162.352Q220.66 162.114 220.739 161.88Q220.818 161.646 220.909 161.416Q221 161.186 221.102 160.961Q221.204 160.736 221.316 160.516Q221.429 160.296 221.552 160.082Q221.676 159.868 221.809 159.66Q221.943 159.452 222.087 159.251Q222.23 159.049 222.384 158.856Q222.537 158.662 222.7 158.476Q222.862 158.29 223.034 158.112Q223.205 157.934 223.385 157.764Q223.565 157.595 223.753 157.435Q223.941 157.274 224.137 157.123Q224.333 156.972 224.536 156.831Q224.739 156.69 224.948 156.559Q225.158 156.428 225.373 156.307Q225.589 156.186 225.81 156.076Q226.032 155.966 226.258 155.867Q226.484 155.768 226.715 155.68Q226.946 155.592 227.182 155.515Q227.417 155.439 227.655 155.374Z"/>
	<path fill="#535C69" transform="scale(2 2)" d="M278.919 155.144Q279.247 155.087 279.579 155.051Q279.911 155.016 280.244 155.002Q280.577 154.989 280.91 154.998Q281.243 155.006 281.575 155.037Q281.907 155.067 282.237 155.119Q282.566 155.172 282.891 155.246Q283.216 155.32 283.536 155.415Q283.855 155.51 284.168 155.626Q284.48 155.742 284.785 155.879Q285.089 156.015 285.383 156.171Q285.678 156.327 285.962 156.503Q286.245 156.678 286.517 156.872Q286.788 157.065 287.046 157.276Q287.304 157.487 287.548 157.715Q287.791 157.943 288.019 158.186Q288.247 158.429 288.459 158.687Q288.671 158.945 288.865 159.216Q289.059 159.487 289.234 159.77Q289.41 160.054 289.567 160.348Q289.723 160.642 289.86 160.946Q289.997 161.25 290.114 161.562Q290.23 161.875 290.326 162.194Q290.422 162.513 290.496 162.838Q290.57 163.163 290.623 163.493Q290.676 163.822 290.707 164.154Q290.738 164.486 290.747 164.819Q290.756 165.152 290.743 165.485Q290.73 165.818 290.696 166.15Q290.661 166.481 290.604 166.81Q290.547 167.138 290.469 167.463Q290.391 167.787 290.292 168.105Q290.192 168.423 290.072 168.734Q289.952 169.045 289.811 169.347Q289.671 169.65 289.511 169.942Q289.351 170.235 289.172 170.516Q288.993 170.797 288.796 171.066Q288.598 171.335 288.384 171.59Q288.169 171.845 287.939 172.086Q287.708 172.326 287.462 172.551Q287.215 172.776 286.955 172.984Q286.694 173.192 286.421 173.383Q286.147 173.573 285.861 173.745Q285.576 173.917 285.28 174.07Q284.983 174.223 284.677 174.355Q284.372 174.488 284.058 174.601Q283.744 174.713 283.423 174.805Q283.103 174.896 282.777 174.966Q282.451 175.037 282.121 175.085Q281.878 175.121 281.633 175.145Q281.388 175.169 281.143 175.181Q280.897 175.192 280.652 175.192Q280.406 175.192 280.16 175.181Q279.915 175.169 279.67 175.145Q279.425 175.121 279.182 175.085Q278.939 175.049 278.698 175.002Q278.456 174.954 278.218 174.895Q277.979 174.836 277.744 174.765Q277.508 174.694 277.277 174.612Q277.045 174.53 276.818 174.437Q276.59 174.343 276.368 174.239Q276.145 174.135 275.928 174.02Q275.71 173.905 275.499 173.779Q275.288 173.654 275.082 173.518Q274.877 173.383 274.679 173.237Q274.481 173.092 274.29 172.937Q274.099 172.782 273.916 172.618Q273.733 172.454 273.558 172.282Q273.383 172.109 273.216 171.928Q273.05 171.747 272.893 171.558Q272.735 171.369 272.587 171.173Q272.439 170.977 272.301 170.773Q272.163 170.57 272.035 170.36Q271.906 170.151 271.788 169.935Q271.671 169.719 271.563 169.498Q271.456 169.277 271.36 169.051Q271.263 168.824 271.178 168.594Q271.093 168.363 271.019 168.129Q270.945 167.894 270.883 167.657Q270.82 167.419 270.77 167.178Q270.719 166.938 270.68 166.695Q270.641 166.452 270.614 166.208Q270.587 165.964 270.572 165.718Q270.556 165.473 270.553 165.227Q270.55 164.981 270.559 164.736Q270.567 164.49 270.588 164.245Q270.609 164 270.641 163.756Q270.674 163.513 270.718 163.271Q270.762 163.029 270.819 162.79Q270.875 162.55 270.942 162.314Q271.01 162.077 271.089 161.845Q271.168 161.612 271.258 161.383Q271.349 161.155 271.45 160.931Q271.552 160.707 271.664 160.488Q271.776 160.269 271.898 160.056Q272.021 159.843 272.154 159.636Q272.287 159.429 272.429 159.229Q272.572 159.029 272.725 158.836Q272.877 158.643 273.038 158.458Q273.2 158.272 273.37 158.095Q273.541 157.918 273.72 157.749Q273.898 157.58 274.085 157.42Q274.272 157.261 274.466 157.11Q274.661 156.959 274.862 156.819Q275.063 156.678 275.271 156.547Q275.48 156.416 275.694 156.295Q275.908 156.174 276.128 156.064Q276.348 155.954 276.572 155.855Q276.797 155.755 277.027 155.667Q277.256 155.579 277.49 155.502Q277.723 155.425 277.96 155.36Q278.197 155.294 278.437 155.24Q278.677 155.186 278.919 155.144Z"/>
	<path fill="#EFF4F6" transform="scale(2 2)" d="M168.561 429.478C172.36 429.952 176.349 429.464 180.179 429.461C191.269 429.454 204.136 428.908 214.966 429.478C215.721 433.57 219.396 442.793 222.482 445.537C225.053 450.335 229.37 452.815 231.764 456.736L135.677 456.748C114.104 456.77 106.855 452.364 107.084 429.478C109.848 429.707 112.769 429.431 115.555 429.449L159.111 429.461C162.226 429.457 165.47 429.725 168.561 429.478Z"/>
	<path fill="#EFF4F6" transform="scale(2 2)" d="M222.482 445.537C226.755 445.826 231.103 445.524 235.388 445.538L389.769 445.533C394.131 445.52 398.954 445.013 403.243 445.537C394.936 458.341 385.232 456.75 371.926 456.747L231.764 456.736C229.37 452.815 225.053 450.335 222.482 445.537Z"/>
	<path fill="#66CCC5" transform="scale(2 2)" d="M117.053 204.038C119.598 203.997 121.87 205.195 123.321 207.33C128.039 214.275 120.319 217.645 115.504 220.439C109.49 223.929 103.143 227.13 97.3221 230.917C102.468 233.334 135.731 246.605 121.362 255.879C118.835 257.511 116.328 256.583 113.646 255.923C106.585 250.893 78.4342 238.277 77.2884 232.432C75.9444 225.576 82.4475 223.391 87.2789 220.703C94.138 216.887 110.599 205.237 117.053 204.038Z"/>
	<path fill="#66CCC5" transform="scale(2 2)" d="M392.289 204.038C393.146 203.874 394.102 203.726 394.971 203.845C397.058 204.131 425.187 220.48 431.11 224.344C443.014 232.111 427.397 238.556 421.86 241.973L399.708 255.923C387.96 263.341 385.019 250.664 389.583 246.852C394.838 242.463 409.896 233.908 415.88 230.917L399.491 221.246C394.303 218.214 384.583 214.814 388.47 206.957C389.264 205.352 390.661 204.6 392.289 204.038Z"/>
	<path fill="#66CCC5" transform="scale(2 2)" d="M369.32 214.072C372.046 214.057 374.514 216.249 375.067 218.906C375.73 222.093 375.54 243.47 375.023 246.865C374.573 249.826 372.148 251.524 369.32 251.992C360.189 251.24 362.703 239.854 362.698 233.498C362.693 226.381 360.108 215.453 369.32 214.072Z"/>
	<path fill="#66CCC5" transform="scale(2 2)" d="M141.819 216.577C145.161 216.182 148.9 217.743 149.993 221.156C150.859 223.859 150.822 244.177 149.582 246.446C148.623 248.2 146.394 249.126 144.595 249.711C144.519 249.718 144.443 249.725 144.368 249.73L143.989 249.754C141.383 249.939 137.95 248.999 136.809 246.377C135.754 243.952 135.487 223.313 136.569 220.637C137.459 218.438 139.774 217.42 141.819 216.577Z"/>
</svg>
