<?xml version="1.0" encoding="UTF-8" standalone="no"?>
<!-- Created with Inkscape (http://www.inkscape.org/) -->

<svg
   width="200mm"
   height="100mm"
   viewBox="0 0 200 100"
   version="1.1"
   id="svg1"
   inkscape:version="1.3 (0e150ed, 2023-07-21)"
   sodipodi:docname="drawing.svg"
   xmlns:inkscape="http://www.inkscape.org/namespaces/inkscape"
   xmlns:sodipodi="http://sodipodi.sourceforge.net/DTD/sodipodi-0.dtd"
   xmlns="http://www.w3.org/2000/svg"
   xmlns:svg="http://www.w3.org/2000/svg">
  <sodipodi:namedview
     id="namedview1"
     pagecolor="#ffffff"
     bordercolor="#000000"
     borderopacity="0.25"
     inkscape:showpageshadow="2"
     inkscape:pageopacity="0.0"
     inkscape:pagecheckerboard="0"
     inkscape:deskcolor="#d1d1d1"
     inkscape:document-units="mm"
     inkscape:zoom="2.9077441"
     inkscape:cx="355.77409"
     inkscape:cy="100.93736"
     inkscape:window-width="1650"
     inkscape:window-height="991"
     inkscape:window-x="26"
     inkscape:window-y="23"
     inkscape:window-maximized="0"
     inkscape:current-layer="layer1" />
  <defs
     id="defs1" />
  <g
     inkscape:label="Layer 1"
     inkscape:groupmode="layer"
     id="layer1">
    <circle
       style="fill:#000000;fill-opacity:1;stroke-width:0.067083;stroke-linejoin:round;stroke-opacity:0.202952"
       id="path1"
       cx="63.43634"
       cy="19.665678"
       r="1.7010285" />
    <circle
       style="fill:#000000;fill-opacity:1;stroke-width:0.067083;stroke-linejoin:round;stroke-opacity:0.202952"
       id="path1-7"
       cx="83.809517"
       cy="33.347691"
       r="1.7010285" />
    <circle
       style="fill:#000000;fill-opacity:1;stroke-width:0.067083;stroke-linejoin:round;stroke-opacity:0.202952"
       id="path1-7-61"
       cx="83.75016"
       cy="24.59663"
       r="1.7010285" />
    <circle
       style="fill:#000000;fill-opacity:1;stroke-width:0.067083;stroke-linejoin:round;stroke-opacity:0.202952"
       id="path1-7-6"
       cx="83.917465"
       cy="48.835579"
       r="1.7010285" />
    <circle
       style="fill:#000000;fill-opacity:1;stroke-width:0.067083;stroke-linejoin:round;stroke-opacity:0.202952"
       id="path1-5"
       cx="63.448593"
       cy="25.094254"
       r="1.7010285" />
    <circle
       style="fill:#000000;fill-opacity:1;stroke-width:0.067083;stroke-linejoin:round;stroke-opacity:0.202952"
       id="path1-5-2"
       cx="63.306526"
       cy="39.769978"
       r="1.7010285" />
    <path
       style="fill:#000000;fill-opacity:1;stroke-width:0;stroke-linejoin:round;stroke-dasharray:none;stroke-opacity:0.202952"
       id="path2"
       d="m 64.042293,27.932655 c -0.238191,0.02511 -0.472265,0.06958 -0.70498,0.125471 -0.192103,0.05662 -0.394104,0.111754 -0.557739,0.233013 -0.03284,0.02434 -0.06238,0.05285 -0.09357,0.07927 -0.135988,0.141541 -0.249862,0.314208 -0.297255,0.507246 -0.0087,0.03532 -0.01212,0.07172 -0.01818,0.107577 0.0034,0.0452 -0.0026,0.09211 0.01016,0.135598 0.01704,0.05798 0.04273,0.114547 0.07782,0.163748 0.126167,0.176909 0.422857,0.339043 0.609891,0.448268 0.2012,0.112059 0.411925,0.205018 0.605243,0.33079 0.01394,0.01228 0.04852,0.03992 0.0588,0.05857 0.0041,0.0074 -0.01294,0.0092 -0.01318,0.01101 -0.0021,0.01561 0.0016,0.03142 0.0021,0.04714 0.0011,0.02894 0.0016,0.05789 0.0021,0.08683 -0.0011,0.146402 -0.02593,0.297722 -0.09982,0.426672 -0.04035,0.0704 -0.08502,0.10918 -0.140986,0.167225 -0.207841,0.193026 -0.462187,0.317211 -0.721521,0.424622 -0.150815,0.06295 -0.315328,0.111035 -0.440235,0.222189 -0.09602,0.08545 -0.09828,0.110032 -0.162515,0.220829 -0.01426,0.05139 -0.03575,0.101301 -0.04282,0.154165 -0.0399,0.298328 0.125013,0.577998 0.279717,0.81753 0.180113,0.244518 0.442294,0.404032 0.682644,0.581867 0.214524,0.158726 0.189947,0.141684 0.389374,0.298804 0.186587,0.159872 0.383588,0.310621 0.537009,0.504608 0.08711,0.110138 0.09767,0.137999 0.165494,0.255905 0.03517,0.08706 0.09623,0.181436 0.0889,0.280633 -0.0034,0.0464 -0.05176,0.108556 -0.07845,0.142108 -0.02588,0.02429 -0.0501,0.05044 -0.07763,0.07284 -0.07486,0.06092 -0.181459,0.128421 -0.261847,0.177621 -0.150945,0.09238 -0.306303,0.177117 -0.462217,0.260678 -0.25165,0.136699 -0.516599,0.247046 -0.768381,0.383259 -0.21294,0.122698 -0.368655,0.320437 -0.515671,0.513189 -0.106722,0.159879 -0.199757,0.351443 -0.161903,0.550399 0.01103,0.05792 0.03658,0.112099 0.05487,0.168148 0.154815,0.281612 0.379367,0.521134 0.652785,0.691311 0.05053,0.03145 0.104505,0.05701 0.156755,0.08551 0.213818,0.09978 0.443466,0.155022 0.674899,0.194654 0.340032,0.05257 0.414375,-0.428311 0.07434,-0.480878 v 0 c -0.180173,-0.02413 -0.359259,-0.0613 -0.526135,-0.135951 -0.0369,-0.0186 -0.07503,-0.03493 -0.110685,-0.05582 -0.193728,-0.113546 -0.354381,-0.276817 -0.469162,-0.469151 -0.009,-0.01476 -0.02907,-0.04175 -0.0307,-0.06221 -0.0056,-0.07059 0.04162,-0.137933 0.07366,-0.195789 0.102319,-0.141039 0.214415,-0.285811 0.362815,-0.380214 0.245782,-0.142145 0.508558,-0.252736 0.757348,-0.389435 0.165339,-0.08964 0.32947,-0.181362 0.489988,-0.279485 0.111156,-0.06795 0.246401,-0.151339 0.344916,-0.237434 0.0521,-0.04553 0.09685,-0.09884 0.145269,-0.148254 0.07826,-0.129263 0.11575,-0.162023 0.141513,-0.309243 0.04019,-0.229679 -0.04263,-0.421084 -0.147021,-0.619749 -0.09051,-0.147937 -0.107776,-0.186976 -0.21997,-0.324408 -0.175249,-0.214673 -0.390157,-0.389983 -0.606361,-0.561261 -0.202086,-0.152958 -0.405948,-0.303596 -0.606637,-0.458393 -0.102156,-0.07879 -0.182978,-0.137428 -0.27173,-0.227267 -0.02788,-0.02822 -0.05215,-0.05979 -0.07823,-0.08969 -0.09603,-0.142298 -0.202351,-0.303892 -0.205978,-0.48142 0.0072,-0.02156 0.01169,-0.04291 0.0273,-0.06063 0.08264,-0.09394 0.225364,-0.111903 0.329718,-0.169169 0.321422,-0.136748 0.634021,-0.296514 0.888069,-0.541716 0.109985,-0.123122 0.14982,-0.152877 0.228272,-0.301443 0.10114,-0.191529 0.14024,-0.409604 0.145436,-0.62389 -0.0031,-0.288959 -0.02649,-0.433557 -0.274894,-0.607777 -0.201771,-0.123664 -0.415933,-0.222329 -0.626861,-0.329015 -0.100521,-0.05776 -0.176456,-0.09839 -0.271463,-0.16479 -0.0372,-0.02601 -0.07197,-0.05532 -0.107908,-0.08304 -0.01667,-0.01286 -0.03048,-0.03064 -0.04993,-0.03872 -0.0081,-0.0034 -0.0093,0.02259 -0.02146,0.01505 0.0026,-0.118684 0.07611,-0.226107 0.150088,-0.313597 0.123325,-0.11416 0.282707,-0.167598 0.442632,-0.211585 0.209333,-0.04915 0.419023,-0.09291 0.634733,-0.101676 0.347371,-0.02886 0.306562,-0.520113 -0.04081,-0.491257 z" />
    <path
       style="fill:#000000;fill-opacity:1;stroke-width:0;stroke-linejoin:round;stroke-dasharray:none;stroke-opacity:0.202952"
       id="path4"
       d="m 83.949579,27.155404 c -0.283716,-0.01892 -0.557903,0.06524 -0.813673,0.180105 -0.04181,0.03012 -0.09102,0.05201 -0.125442,0.09036 -0.163658,0.182335 -0.152924,0.37996 0.0082,0.559469 0.06892,0.07679 0.190129,0.138747 0.278135,0.189815 0.08801,0.04593 0.38703,0.208068 0.383979,0.329906 0.05095,0.05244 -0.02244,-0.09764 -0.04561,-0.07827 -0.02874,0.02402 -0.04934,0.0564 -0.07497,0.08373 -0.109635,0.116946 -0.217884,0.230831 -0.319643,0.354962 -0.125471,0.223221 -0.150101,0.375672 -0.004,0.602848 0.0815,0.12672 0.226155,0.219948 0.339923,0.315706 0.117488,0.121045 0.23213,0.224494 0.193225,0.404734 -0.0173,0.0074 -0.0149,-0.02722 -0.02697,-0.02503 -0.01926,0.0035 -0.03488,0.01783 -0.05224,0.02692 -0.08799,0.04605 -0.162073,0.0973 -0.236831,0.162642 -0.0764,0.09469 -0.04404,0.04548 -0.09863,0.1466 -0.148924,0.31755 0.300161,0.528161 0.449085,0.210611 v 0 c -0.009,0.006 -0.0052,0.0069 -0.01164,0.0019 0.0394,-0.05013 0.09085,-0.06736 0.146114,-0.09979 0.157244,-0.09227 0.27868,-0.19335 0.319132,-0.381543 0.0024,-0.04902 0.01008,-0.09809 0.0069,-0.147055 -0.01783,-0.27268 -0.182962,-0.494601 -0.375938,-0.674494 -0.08226,-0.06793 -0.09509,-0.0796 -0.17599,-0.142534 -0.01725,-0.01341 -0.03294,-0.02945 -0.05233,-0.03956 -0.01635,-0.0085 -0.05057,0.01717 -0.05533,-5.29e-4 -0.0051,-0.01892 0.0086,-0.03819 0.01294,-0.05729 0.09418,-0.119523 0.198075,-0.223459 0.302585,-0.333774 0.07242,-0.07645 0.184651,-0.191109 0.213432,-0.295268 0.01902,-0.0688 0.0031,-0.142732 0.0046,-0.2141 -0.01982,-0.043 -0.0353,-0.08829 -0.05949,-0.128993 -0.12093,-0.203456 -0.337418,-0.332591 -0.538639,-0.44247 -0.03213,-0.01863 -0.06397,-0.03774 -0.0964,-0.05584 -0.01463,-0.0082 -0.02799,-0.02305 -0.04476,-0.02294 -0.0026,1.6e-5 -0.03436,0.151347 -0.08283,0.132255 -0.01228,-0.0048 0.01693,-0.02021 0.0254,-0.03032 0.16188,-0.07933 0.338405,-0.138142 0.520917,-0.133951 0.345551,0.06137 0.43234,-0.427313 0.08679,-0.488683 z" />
    <path
       style="fill:#000000;fill-opacity:1;stroke-width:0;stroke-linejoin:round;stroke-dasharray:none;stroke-opacity:0.202952"
       id="path5"
       d="m 83.525288,18.236285 c -0.233038,0.05989 -0.437227,0.197128 -0.569214,0.401354 -0.03465,0.05361 -0.05877,0.11334 -0.08817,0.170009 -0.07246,0.214589 -0.08533,0.421015 0.02029,0.630466 0.114638,0.227354 0.324963,0.401203 0.505552,0.573365 0.04404,0.04348 0.157644,0.136068 0.183592,0.213035 0.0016,0.0047 -0.03812,0.03988 -0.03885,0.04088 -0.02995,0.04129 -0.05447,0.08628 -0.08331,0.128351 -0.05174,0.0708 -0.128548,0.162161 -0.135546,0.252522 -0.0076,0.09772 0.0041,0.199043 0.03549,0.291901 0.05637,0.166809 0.300659,0.42263 0.420928,0.561397 0.03531,0.04156 0.07198,0.08199 0.105929,0.12467 0.02193,0.02757 0.04687,0.0539 0.06158,0.08592 0.0068,0.01478 -0.03341,-0.01611 -0.03682,-0.03202 -0.0093,-0.04343 0.0084,-0.08938 0.0013,-0.13324 -0.004,-0.02534 -0.04863,-7.15e-4 -0.118711,0.02426 -0.14365,0.04765 -0.28734,0.09504 -0.409467,0.187562 -0.03467,0.02627 -0.06525,0.05753 -0.09788,0.0863 -0.256127,0.233152 0.0736,0.595369 0.329726,0.362217 v 0 c 0.02125,-0.02066 0.05726,-0.05873 0.08462,-0.07497 0.08017,-0.0476 0.174392,-0.06895 0.259844,-0.103647 0.08938,-0.0331 0.266282,-0.08914 0.324038,-0.161367 0.23399,-0.292599 0.04861,-0.469397 -0.143219,-0.680886 -0.129715,-0.147418 -0.120409,-0.133664 -0.242697,-0.285119 -0.02477,-0.03069 -0.0408,-0.07035 -0.07301,-0.09312 -0.01238,-0.0087 -0.03398,0.02132 -0.04429,0.01022 -0.04101,-0.04414 0.153289,-0.168751 0.08668,-0.15861 0.09901,-0.15843 0.196578,-0.317493 0.172953,-0.515749 -0.02487,-0.20869 -0.168677,-0.345213 -0.315164,-0.476975 -0.106516,-0.09995 -0.378081,-0.329395 -0.423084,-0.471666 -0.02061,-0.06519 -0.0052,-0.108809 0.0056,-0.173417 0.07175,-0.169756 0.156646,-0.263633 0.340101,-0.302944 0.339904,-0.08408 0.220995,-0.564778 -0.11891,-0.480697 z" />
    <path
       style="fill:#000000;fill-opacity:1;stroke-width:0;stroke-linejoin:round;stroke-dasharray:none;stroke-opacity:0.202952"
       id="path6"
       d="m 83.476403,35.897341 c -0.249356,0.221784 -0.482751,0.503203 -0.524227,0.847391 -0.0096,0.07999 0.0021,0.161116 0.0031,0.241673 0.02774,0.08071 0.04603,0.16532 0.08321,0.242142 0.10137,0.209462 0.353193,0.375769 0.413743,0.573921 -0.0114,-0.0019 -0.02646,-0.0141 -0.03424,-0.0056 -0.02471,0.02713 -0.03403,0.06506 -0.05005,0.09808 -0.02802,0.05773 -0.05549,0.115731 -0.08206,0.174143 -0.1357,0.298302 -0.151998,0.36771 -0.157777,0.698167 0.0084,0.284279 0.204298,0.529759 0.201698,0.813819 -0.0013,0.153582 -0.046,0.235468 -0.09786,0.380269 -0.155324,0.353764 -0.390726,0.640869 -0.273704,1.052545 0.05751,0.202316 0.227108,0.422068 0.344435,0.592719 0.08783,0.117756 0.222012,0.282824 0.287298,0.421159 0.115347,0.244406 0.09828,0.552413 0.115498,0.814967 -0.01492,0.179321 0.04802,0.356031 0.05239,0.533323 0.0028,0.112829 -0.0875,0.270962 -0.125161,0.366466 -0.188074,0.475121 -0.128934,0.987071 -0.163944,1.484728 -0.01654,0.215101 -0.08249,0.413671 -0.177474,0.605039 -0.150326,0.313597 0.293166,0.526192 0.443494,0.212595 v 0 c 0.116703,-0.249687 0.202113,-0.50677 0.220734,-0.784558 0.02943,-0.447202 -0.02614,-0.908548 0.131784,-1.337009 0.04815,-0.120179 0.121584,-0.286131 0.145333,-0.414845 0.04346,-0.235553 -0.04714,-0.462897 -0.0402,-0.698635 -0.01783,-0.256699 -0.01855,-0.523293 -0.08808,-0.773075 -0.07503,-0.269479 -0.22978,-0.491803 -0.403558,-0.706322 -0.05853,-0.08348 -0.310338,-0.394358 -0.306938,-0.514183 0.0069,-0.2413 0.251079,-0.470625 0.299281,-0.701831 0.08201,-0.260718 0.128934,-0.330316 0.119795,-0.604512 -0.0088,-0.265052 -0.140052,-0.497372 -0.195315,-0.751716 -0.004,-0.04354 -0.01606,-0.0871 -0.01196,-0.130632 0.03405,-0.360813 0.38967,-0.636138 0.30014,-1.020043 -0.02551,-0.05352 -0.04615,-0.109641 -0.07652,-0.160555 C 83.723143,37.26906 83.535627,37.15037 83.44541,36.9614 c -0.04132,-0.30624 0.132826,-0.498793 0.354198,-0.687221 0.266475,-0.228534 -0.05672,-0.605388 -0.323197,-0.376852 z" />
    <path
       style="fill:#000000;fill-opacity:1;stroke-width:0;stroke-linejoin:round;stroke-dasharray:none;stroke-opacity:0.202952"
       id="path8"
       d="m 83.658368,51.200946 c -0.281512,0.198266 -0.641753,0.423175 -0.447366,0.835888 0.04831,0.10256 0.157205,0.163391 0.235807,0.245086 0.183896,0.170386 0.457981,0.205441 0.642142,0.373528 0.01437,0.01312 0.03512,0.04241 0.02011,0.05479 -0.05873,-0.03725 -0.03474,-0.04414 -0.07451,-0.0074 -0.117742,0.130482 -0.256466,0.243324 -0.399235,0.345819 -0.101738,0.07566 -0.208812,0.141634 -0.320027,0.202081 -0.307382,0.169309 -0.06794,0.604014 0.239443,0.434705 v 0 c 0.128918,-0.07194 0.254418,-0.148858 0.372996,-0.237096 0.217511,-0.161354 0.439989,-0.334005 0.570627,-0.576128 0.05376,-0.191971 0.102179,-0.249208 0.004,-0.458493 -0.12985,-0.276921 -0.507098,-0.331687 -0.730856,-0.496314 -0.346051,-0.187878 0.09628,0.01204 -0.167769,7.94e-4 -0.01958,-7.94e-4 -7.94e-4,-0.04227 0.01132,-0.05772 0.07836,-0.100203 0.20584,-0.157988 0.303085,-0.236167 0.299347,-0.183719 0.03953,-0.60706 -0.259815,-0.423341 z" />
    <path
       style="fill:#000000;fill-opacity:1;stroke-width:0;stroke-linejoin:round;stroke-dasharray:none;stroke-opacity:0.202952"
       id="path9"
       d="m 62.997508,43.01159 c -0.290817,0.317071 -0.34743,0.573254 -0.383236,0.995492 -0.0453,0.539218 -0.119091,1.075235 -0.133424,1.616612 0.0075,0.245271 -0.0095,0.508735 0.071,0.745768 0.165851,0.488217 0.491675,0.931285 0.762421,1.362839 0.533244,0.805289 0.851834,1.592747 0.996442,2.541228 0.01074,0.216614 0.0263,0.438507 -0.01606,0.653322 -0.03644,0.184788 -0.122518,0.364993 -0.191984,0.538493 -0.08148,0.214482 -0.202718,0.422 -0.241795,0.651225 -0.03855,0.22615 -0.0019,0.442703 0.03905,0.664162 0.06883,0.228738 0.05798,0.452461 -0.0092,0.677833 -0.0061,0.03669 -0.09491,0.175798 -0.152341,0.13149 -0.346652,0.05554 -0.268105,0.545786 0.07855,0.490244 v 0 c 0.268941,-0.05979 0.464093,-0.215233 0.549222,-0.485203 0.08352,-0.299069 0.101931,-0.604192 0.01622,-0.906629 -0.02726,-0.136192 -0.0723,-0.296847 -0.05166,-0.437216 0.03139,-0.213469 0.152628,-0.404517 0.224917,-0.603917 0.08748,-0.217014 0.18342,-0.434594 0.224883,-0.666605 0.04619,-0.258455 0.02635,-0.523983 0.0081,-0.7836 -0.167659,-1.006377 -0.513051,-1.854658 -1.07696,-2.71181 -0.215117,-0.349409 -0.543566,-0.816316 -0.681533,-1.20885 -0.07139,-0.203123 -0.05353,-0.431027 -0.06302,-0.641373 0.01069,-0.53186 0.08836,-1.057876 0.133585,-1.587339 0.02693,-0.327837 0.04732,-0.47784 0.280559,-0.721318 0.222631,-0.271317 -0.16107,-0.586165 -0.383701,-0.314848 z" />
    <path
       style="fill:#000000;fill-opacity:1;stroke-width:0;stroke-linejoin:round;stroke-dasharray:none;stroke-opacity:0.202952"
       id="path12"
       d="m 66.612266,26.065024 c 0.374203,0.472499 0.741958,0.950556 1.125107,1.415889 0.558752,0.653286 1.0518,1.358519 1.571519,2.042345 0.752435,0.855798 1.486971,1.723274 2.173078,2.633213 0.496628,0.685684 1.020673,1.37423 1.356778,2.157807 0.05197,0.12116 0.09226,0.247009 0.138385,0.370514 0.156766,0.532834 0.242724,1.084326 0.403352,1.616144 0.125699,0.416163 0.200621,0.573582 0.36552,0.980919 0.435951,0.98802 0.94842,1.938062 1.492683,2.869787 0.384998,0.629327 0.745215,1.274249 1.069616,1.936912 0.216392,0.49127 0.451016,0.970105 0.730911,1.428435 0.260731,0.406781 0.533707,0.805905 0.824727,1.191667 0.287026,0.356322 0.66153,0.630944 1.003351,0.932323 0.616574,0.516324 1.274392,0.97871 1.89189,1.494105 0.147843,0.167068 0.40405,0.303371 0.461348,0.533871 0.0031,0.0191 0.0062,0.03824 0.0092,0.05735 0.06739,0.343718 0.553482,0.248412 0.48609,-0.09531 v 0 c -0.0083,-0.0388 -0.01656,-0.0776 -0.02484,-0.11639 -0.120809,-0.336696 -0.36195,-0.519592 -0.623721,-0.753071 -0.618527,-0.504327 -1.274003,-0.960863 -1.878214,-1.482651 -0.316007,-0.283014 -0.662635,-0.54007 -0.934037,-0.867661 -0.283927,-0.370184 -0.551775,-0.752523 -0.802749,-1.145807 -0.271179,-0.446638 -0.49331,-0.915649 -0.708517,-1.391343 -0.332568,-0.671415 -0.705376,-1.322221 -1.096549,-1.961089 -0.532728,-0.911961 -1.03904,-1.839566 -1.463234,-2.807944 -0.153024,-0.38023 -0.226631,-0.536705 -0.342436,-0.924139 -0.16401,-0.548706 -0.248119,-1.118256 -0.417405,-1.665568 -0.05242,-0.136475 -0.09852,-0.275545 -0.15726,-0.409424 -0.35474,-0.808564 -0.896593,-1.521614 -1.406128,-2.235724 -0.688075,-0.908399 -1.432708,-1.767676 -2.174124,-2.632575 -0.520313,-0.691684 -1.019145,-1.400606 -1.575363,-2.064472 -0.376672,-0.457777 -0.745784,-0.922839 -1.099341,-1.398592 -0.205394,-0.282616 -0.605073,0.0079 -0.399677,0.290471 z" />
    <path
       style="fill:#000000;fill-opacity:1;stroke-width:0;stroke-linejoin:round;stroke-dasharray:none;stroke-opacity:0.202952"
       id="path13"
       d="m 66.150449,20.596622 c 0.09518,0.111719 0.137576,0.167317 0.260798,0.27485 0.26434,0.230684 0.590386,0.466298 0.866645,0.671374 0.773232,0.570112 0.389207,0.285592 1.152117,0.853508 1.085927,0.848581 2.242291,1.598891 3.362728,2.399639 0.70336,0.469638 1.174017,1.046633 1.624451,1.746649 0.187833,0.256749 0.273143,0.559777 0.390028,0.849051 0.09083,0.224793 0.137768,0.292796 0.258524,0.510963 0.246444,0.417624 0.496901,0.828226 0.793999,1.211646 0.410755,0.500759 0.930936,0.891752 1.420892,1.309627 0.501391,0.458944 1.051581,0.857806 1.639744,1.197126 0.262716,0.158036 0.551313,0.264832 0.822558,0.404585 0.20887,0.09939 0.402683,0.225793 0.593265,0.355867 0.269629,0.168156 0.563089,0.294354 0.850159,0.429519 0.251068,0.137735 0.525055,0.165196 0.802217,0.203743 0.345265,0.04736 0.412247,-0.440915 0.06698,-0.488278 v 0 c -0.228359,-0.03095 -0.453334,-0.04834 -0.660998,-0.160785 -0.264276,-0.12265 -0.533122,-0.239816 -0.780835,-0.393949 -0.208347,-0.140014 -0.420032,-0.276275 -0.646637,-0.385418 -0.265784,-0.13466 -0.546272,-0.239668 -0.806238,-0.387223 -0.566084,-0.318349 -1.087395,-0.704805 -1.569418,-1.140328 -0.465104,-0.395107 -0.952781,-0.771861 -1.344949,-1.243332 -0.280591,-0.364165 -0.522719,-0.750875 -0.756182,-1.147009 -0.09331,-0.169786 -0.150733,-0.260501 -0.220824,-0.43571 -0.13054,-0.326322 -0.237894,-0.66275 -0.447566,-0.951934 -0.486048,-0.747459 -1.003795,-1.369773 -1.756979,-1.87023 -1.126196,-0.786016 -2.276819,-1.537749 -3.358814,-2.385459 -0.195741,-0.145454 -0.953698,-0.707908 -1.145712,-0.853724 -0.26657,-0.202437 -0.551849,-0.417644 -0.802754,-0.644128 -0.104314,-0.09416 -0.130929,-0.132129 -0.208505,-0.22755 -0.209946,-0.281921 -0.608644,0.01499 -0.398698,0.29691 z" />
    <path
       style="fill:#000000;fill-opacity:1;stroke-width:0;stroke-linejoin:round;stroke-dasharray:none;stroke-opacity:0.202952"
       id="path14"
       d="m 65.961053,38.143267 c 0.351234,-0.258133 0.719955,-0.49162 1.072512,-0.748051 0.44455,-0.300128 0.838957,-0.649846 1.183124,-1.060252 0.344538,-0.434298 0.653169,-0.894649 0.937303,-1.370208 0.210687,-0.384821 0.458768,-0.747379 0.672398,-1.130364 0.130615,-0.227957 0.185082,-0.48488 0.256379,-0.734623 0.05004,-0.244496 0.13989,-0.473287 0.24166,-0.700035 0.138226,-0.268282 0.246181,-0.551608 0.413282,-0.804069 0.120562,-0.151209 0.260614,-0.282024 0.415581,-0.396959 0.09081,-0.091 0.202551,-0.114964 0.320701,-0.149371 0.222237,-0.04702 0.446077,-0.08247 0.666517,-0.138451 0.248963,-0.0742 0.47661,-0.167174 0.676122,-0.335706 0.211489,-0.185137 0.332618,-0.44069 0.469069,-0.68064 0.168426,-0.253641 0.291486,-0.533115 0.446619,-0.794216 0.105595,-0.220025 0.237713,-0.418158 0.401947,-0.597564 0.180507,-0.200602 0.406914,-0.347694 0.638075,-0.482822 0.248745,-0.13924 0.496019,-0.279064 0.769731,-0.362035 0.25192,-0.06416 0.505343,-0.119843 0.763736,-0.149479 0.297838,-0.0062 0.575085,-0.110948 0.844393,-0.228425 0.309589,-0.130059 0.595914,-0.307671 0.902568,-0.44295 0.291121,-0.124571 0.591196,-0.225446 0.885524,-0.341818 0.25201,-0.09542 0.49929,-0.202444 0.74604,-0.310628 0.224613,-0.109186 0.460965,-0.191152 0.692494,-0.284175 0.154514,-0.04957 0.308607,-0.100401 0.457705,-0.164897 0.08581,-0.03039 0.166534,-0.07063 0.247357,-0.112203 0.312335,-0.160806 0.08492,-0.602513 -0.227412,-0.441708 v 0 c -0.07211,0.03716 -0.142658,0.07345 -0.220081,0.09959 -0.143478,0.06517 -0.295119,0.108308 -0.443185,0.161193 -0.235458,0.09621 -0.476401,0.179586 -0.705437,0.290726 -0.24079,0.106213 -0.482643,0.209927 -0.728179,0.304605 -0.300786,0.118666 -0.606824,0.222964 -0.904068,0.350713 -0.30521,0.136309 -0.592005,0.309248 -0.89984,0.440712 -0.225808,0.09833 -0.455067,0.187523 -0.705212,0.189034 -0.288234,0.03426 -0.571339,0.09645 -0.852062,0.16987 -0.309297,0.0975 -0.593246,0.246341 -0.873688,0.4082 -0.272526,0.161636 -0.53997,0.336256 -0.753221,0.57404 -0.186386,0.205237 -0.341289,0.429686 -0.461097,0.680693 -0.154157,0.264332 -0.283179,0.542883 -0.450192,0.799923 -0.108833,0.190574 -0.202956,0.397883 -0.365183,0.550159 -0.136668,0.123176 -0.302691,0.172693 -0.475231,0.23156 -0.224658,0.05836 -0.454115,0.089 -0.680231,0.140415 -0.175501,0.04936 -0.347398,0.103457 -0.484457,0.231002 -0.197459,0.152712 -0.379275,0.322704 -0.528765,0.524007 -0.175887,0.276268 -0.303,0.576633 -0.448267,0.869374 -0.112379,0.247837 -0.212106,0.49871 -0.267724,0.76613 -0.06178,0.214095 -0.105606,0.435692 -0.211881,0.633801 -0.206978,0.380349 -0.454311,0.737262 -0.659964,1.118579 -0.269909,0.454041 -0.564441,0.892815 -0.893161,1.306727 -0.317829,0.381021 -0.684017,0.702254 -1.096566,0.979305 -0.347239,0.253955 -0.711663,0.483121 -1.063477,0.730483 -0.290489,0.196395 -0.01275,0.607208 0.277744,0.410813 z" />
    <text
       xml:space="preserve"
       style="font-size:2.86866px;fill:#000000;fill-opacity:1;stroke-width:0;stroke-linejoin:round;stroke-dasharray:none;stroke-opacity:0.202952"
       x="63.603153"
       y="12.331924"
       id="text14"><tspan
         sodipodi:role="line"
         id="tspan14"
         style="font-style:normal;font-variant:normal;font-weight:normal;font-stretch:normal;font-family:'Ubuntu Mono';-inkscape-font-specification:'Ubuntu Mono';text-align:center;text-anchor:middle;stroke-width:0"
         x="63.603153"
         y="12.331924">Private </tspan><tspan
         sodipodi:role="line"
         style="font-style:normal;font-variant:normal;font-weight:normal;font-stretch:normal;font-family:'Ubuntu Mono';-inkscape-font-specification:'Ubuntu Mono';stroke-width:0"
         x="64.320312"
         y="16.055235"
         id="tspan15"><tspan
   style="text-align:center;text-anchor:middle"
   id="tspan16">Keys</tspan> </tspan></text>
    <text
       xml:space="preserve"
       style="font-size:2.86866px;fill:#000000;fill-opacity:1;stroke-width:0;stroke-linejoin:round;stroke-dasharray:none;stroke-opacity:0.202952"
       x="96.16861"
       y="13.750177"
       id="text14-3"><tspan
         sodipodi:role="line"
         style="font-style:normal;font-variant:normal;font-weight:normal;font-stretch:normal;font-family:'Ubuntu Mono';-inkscape-font-specification:'Ubuntu Mono';stroke-width:0"
         x="96.16861"
         y="13.750177"
         id="tspan15-5">Addresses </tspan></text>
    <text
       xml:space="preserve"
       style="font-size:2.86866px;fill:#000000;fill-opacity:1;stroke-width:0;stroke-linejoin:round;stroke-dasharray:none;stroke-opacity:0.202952"
       x="83.410019"
       y="12.299864"
       id="text14-3-9"><tspan
         sodipodi:role="line"
         id="tspan14-8-8"
         style="font-style:normal;font-variant:normal;font-weight:normal;font-stretch:normal;font-family:'Ubuntu Mono';-inkscape-font-specification:'Ubuntu Mono';text-align:center;text-anchor:middle;stroke-width:0"
         x="83.410019"
         y="12.299864">Public</tspan><tspan
         sodipodi:role="line"
         style="font-style:normal;font-variant:normal;font-weight:normal;font-stretch:normal;font-family:'Ubuntu Mono';-inkscape-font-specification:'Ubuntu Mono';stroke-width:0"
         x="84.127182"
         y="16.023174"
         id="tspan15-5-4"><tspan
   style="text-align:center;text-anchor:middle"
   id="tspan16-6-8">Keys</tspan> </tspan></text>
  </g>
</svg>
