<?xml version="1.0" encoding="UTF-8" standalone="no"?>
<!-- Created with Inkscape (http://www.inkscape.org/) -->

<svg
   width="200mm"
   height="200mm"
   viewBox="0 0 200 200"
   version="1.1"
   id="svg1"
   inkscape:version="1.3 (0e150ed, 2023-07-21)"
   sodipodi:docname="Mercy.svg"
   xmlns:inkscape="http://www.inkscape.org/namespaces/inkscape"
   xmlns:sodipodi="http://sodipodi.sourceforge.net/DTD/sodipodi-0.dtd"
   xmlns="http://www.w3.org/2000/svg"
   xmlns:svg="http://www.w3.org/2000/svg">
  <sodipodi:namedview
     id="namedview1"
     pagecolor="#ffffff"
     bordercolor="#000000"
     borderopacity="0.25"
     inkscape:showpageshadow="2"
     inkscape:pageopacity="0.0"
     inkscape:pagecheckerboard="0"
     inkscape:deskcolor="#d1d1d1"
     inkscape:document-units="mm"
     inkscape:zoom="0.45254836"
     inkscape:cx="345.8194"
     inkscape:cy="422.05434"
     inkscape:window-width="1850"
     inkscape:window-height="926"
     inkscape:window-x="26"
     inkscape:window-y="23"
     inkscape:window-maximized="0"
     inkscape:current-layer="layer1" />
  <defs
     id="defs1">
    <inkscape:perspective
       sodipodi:type="inkscape:persp3d"
       inkscape:vp_x="-191.02186 : 108.99087 : 1"
       inkscape:vp_y="0 : 234.09391 : 0"
       inkscape:vp_z="-111.66602 : 108.99087 : 1"
       inkscape:persp3d-origin="-151.34394 : 101.18774 : 1"
       id="perspective18" />
  </defs>
  <g
     inkscape:label="Layer 1"
     inkscape:groupmode="layer"
     id="layer1">
    <path
       style="opacity:1;fill:none;fill-opacity:1;stroke:#000000;stroke-width:7.99999;stroke-linecap:round;stroke-dasharray:none;stroke-opacity:1"
       id="path25"
       d="m -9255.3596,-2157.7496 c -60.2697,9.805 -120.31,21.141 -180.8085,29.415 -328.3972,44.9125 -151.9968,9.5595 -469.6561,61.5946 -225.6688,36.9665 -194.7168,43.1593 -432.6698,72.4038 -99.883,12.2757 -200.267,20.0525 -300.401,30.0788 -252.092,27.8949 -503.932,5.8157 -755.72,-6.8868 -32.652,-1.6473 -65.641,1.3978 -98.034,-3.0259 -47.335,-6.4643 -93.501,-19.677 -140.252,-29.5154 -182.329,-66.6449 -276.294,-92.6173 -444.439,-185.315 -12.869,-7.0945 -20.794,-20.8411 -30.064,-32.2431 -194.14,-238.7928 63.773,74.6191 -95.791,-137.4777 -23.876,-31.7361 -51.172,-60.7484 -76.758,-91.1226 -61.524,-70.9188 -154.654,-176.6294 -211.797,-249.4993 -39.544,-50.4277 -85.782,-106.0929 -101.232,-171.1729 -1.365,-5.7494 11.602,-73.0269 11.999,-75.2036 1.573,-16.2894 5.732,-32.5345 4.717,-48.868 -1.457,-23.4511 -8.289,-46.2577 -12.068,-69.4481 -13.758,-84.4376 -34.197,-193.5779 -25.05,-279.0899 2.015,-18.8442 10.47,-36.4284 15.705,-54.6426 82.378,-167.5154 262.79,-240.7904 419.216,-322.6795 36.846,-22.9518 73.56,-46.1155 110.537,-68.8557 37.92,-23.3203 74.513,-49.0585 114.15,-69.324 173.27,-88.5883 363.631,-133.5307 545.857,-198.5036 130.307,-48.3547 260.017,-56.3359 396.591,-67.5619 84.221,-6.9228 166.537,-17.6763 250.978,-17.2707 109.158,-20.4022 221.011,-23.8257 331.744,-25.9635 35.533,-0.6861 71.183,2.885 106.618,0.1638 25.757,-1.9778 50.693,-10.0185 76.185,-14.201 30.524,-5.0083 61.219,-8.9107 91.829,-13.3657 152.613,-49.3009 311.7461,-72.9393 466.4009,-114.3492 57.5225,-15.4022 115.6565,-32.5813 164.0427,-69.2084 18.8481,-14.2677 32.8689,-33.9839 49.3035,-50.9757 83.4322,-78.2928 182.345,-136.5234 274.3171,-203.4355 33.723,-24.5345 65.1822,-52.0724 98.7528,-76.8146 147.4878,-103.5651 78.0193,-53.0032 208.8608,-151.0583 79.6888,-58.887 134.3811,-142.8768 203.3217,-212.1871 19.8707,-19.9771 43.3115,-36.1214 63.6714,-55.5998 65.9803,-63.1227 63.662,-66.8642 118.8898,-141.6381 17.426,-28.103 36.0103,-55.5199 52.2779,-84.3089 113.4637,-200.796 -13.7961,1.7409 119.3671,-214.9308 50.2166,-81.7087 77.2908,-110.7099 115.6591,-195.0308 15.594,-34.2709 27.2352,-70.2064 40.8528,-105.3094 33.7476,-102.4967 52.2779,-207.3542 88.1361,-309.2831 11.3136,-32.1599 27.5603,-62.6412 36.5054,-95.5387 14.674,-53.9665 27.5412,-174.2972 34.2619,-228.4666 35.9423,-110.3527 52.3171,-225.4094 77.6751,-338.2574 18.4562,-82.1333 35.5586,-145.4399 37.0779,-229.7377 -15.6782,-96.0758 -16.6735,-193.0561 -11.9126,-290.063 2.5048,-47.5707 6.5542,-40.3817 -95.8953,-67.2912 -8.9292,-2.3452 -14.3645,14.0653 -15.0128,23.2746 -2.6516,37.6743 2.5371,75.515 5.4092,113.1732 6.0917,79.8769 15.6937,159.4516 22.5584,239.2658 13.6342,110.2876 49.6482,214.2744 85.0516,318.8796 24.203,71.5126 67.011,201.608 94.438,270.9209 17.5366,44.3185 37.9627,87.4384 56.9441,131.1576 79.9402,156.295 121.711,328.0797 192.354,488.2566 2.2381,5.0752 87.989,176.0299 96.3207,192.6531 38.575,62.5597 40.0521,140.4726 71.528,205.5244 26.3906,54.5412 74.3665,102.399 109.193,151.737 21.3522,29.841 49.4496,65.9926 54.329,104.4522 9.5322,75.1305 -19.3291,-60.6939 9.6957,62.3075 3.4578,13.6932 8.1735,27.1293 10.3735,41.08 14.6304,92.7727 -6.4042,33.5198 19.0408,141.3147 6.1772,26.1684 16.8267,51.1011 23.8752,77.0485 20.5573,75.678 16.7706,66.5782 23.1664,138.9243 -4.2741,52.914 -15.5062,93.8043 91.7037,71.0472 18.7066,-3.9706 18.9535,-33.22 28.4425,-49.8229 79.9288,-139.8526 37.1276,-62.5313 123.2143,-224.3349 68.7634,-166.4115 101.1862,-348.5803 198.9688,-502.2217 18.2983,-28.7515 88.2364,-116.4159 109.5195,-143.5029 81.7219,-189.175 117.0956,-393.5285 193.9867,-584.6281 31.8243,-79.0937 70.8385,-155.1083 105.0779,-233.1868 14.173,-31.4293 32.3967,-61.3299 42.5191,-94.2874 22.955,-74.7406 25.5976,-184.5408 32.4514,-258.2572 8.9749,-96.5287 19.0085,-210.8602 40.9186,-306.3245 6.9377,-30.2284 19.3675,-58.9275 29.0515,-88.3912 29.7757,-43.6163 16.1007,-40.6723 7.6296,-86.1751 -5.551,-29.8161 -4.7337,-44.4788 -5.4314,-74.3357 0.454,-9.6279 2.6778,-19.3355 1.3621,-28.8838 -1.8045,-13.0942 -7.6433,-25.3275 -10.6082,-38.2085 -4.7043,-20.4393 -8.2394,-41.1305 -12.3854,-61.6902 -16.6733,-82.6876 -31.5564,-163.3649 -37.3436,-247.5508 -3.8174,36.1601 10.4817,-82.3269 -70.6075,-15.181 -15.8816,13.1509 17.9811,37.1872 28.7364,54.7799 58.0932,95.0248 140.8422,172.6475 216.0648,253.7364 89.5747,122.8474 164.7325,255.4346 271.077,365.5224 83.6867,86.6323 180.4474,161.5419 279.0479,230.245 148.2603,84.2253 305.8665,146.3127 454.9084,229.3037 138.8017,77.2891 75.4391,61.0505 248.2117,149.7973 72.3929,37.1854 147.9375,67.8847 221.9063,101.8271 98.9253,24.9269 200.5928,32.6903 300.7741,50.8653 42.4717,7.7052 84.4127,18.2766 127.0164,25.2127 91.2122,14.85 183.2631,24.0083 274.7761,36.8744 282.7285,39.5825 564.5473,82.4087 849.8719,98.9629 69.3478,4.0233 138.9808,8.2823 208.3437,4.5292 46.3693,-2.5088 91.3498,-16.9543 137.3603,-23.2347 71.0227,-9.6943 142.4158,-16.4489 213.6237,-24.6732 367.4777,-30.3538 371.2567,-35.32 750.7084,-46.773 84.1572,-2.5403 168.3866,-3.32 252.576,-2.3022 110.4106,1.3349 72.4024,14.6302 149.3573,-9.6625 225.4264,-50.3463 457.91645,-95.6821 660.48579,-212.6229 102.37176,-59.0979 150.70716,-112.5837 234.63651,-191.0712 122.15493,-92.1764 226.18914,-204.6722 336.901808,-309.6755 74.7412637,-70.8872 115.9552,-99.2201 168.097214,-188.2235 17.667028,-30.1567 27.496838,-64.2657 41.245258,-96.3989 16.76433,-57.9673 78.20682,-140.0156 61.40807,-204.062 -2.61572,-9.9724 -8.97105,-18.5668 -13.3053,-27.9214 -10.26035,-74.1209 6.60892,-149.3655 -0.17923,-223.5587 -1.65249,-18.0615 -45.07647,-230.9153 -51.91917,-252.5776 -11.01368,-34.8665 -29.02883,-67.1208 -43.543251,-100.6811 -22.533572,-34.5617 -59.470024,-97.0362 -92.1452183,-124.7243 -24.9375477,-21.1315 -54.2656257,-36.5284 -82.4525537,-53.0788 -102.239737,-60.0321 -235.365797,-135.8636 -347.259857,-186.7062 -41.26389,-18.7497 -84.04857,-33.9537 -126.07287,-50.9307 -27.12982,-9.5726 -53.50185,-21.6508 -81.38948,-28.7181 -30.94419,-7.8415 -62.96509,-10.5609 -94.44765,-15.8414 -41.5077,-10.3542 -83.22546,-19.9004 -124.52311,-31.0629 -168.43486,-45.5274 -334.58616,-94.855 -504.45106,-135.074 -111.0455,-12.455 -123.4315,-21.1447 -223.4209,-10.1457 -76,8.3603 -49.5772,15.6927 -122.5554,21.9641 -30.8096,2.6477 -61.8064,2.2222 -92.7096,3.3332 -38.9936,4.1548 -77.9872,8.3095 -116.9808,12.464 -60.3349,12.6444 -155.7983,28.8835 -213.9423,54.9608 -26.4886,11.8801 -49.1041,30.9835 -73.5201,46.6881 -30.8528,19.8449 -61.3144,40.2969 -92.2842,59.9583 -151.2471,96.0213 -57.1276,28.4184 -202.4183,141.4291 -18.5554,21.7699 -78.2529,81.4162 -87.7952,120.5796 -7.2037,29.5651 13.6558,56.0271 21.9893,81.3723 20.6032,62.6618 16.6147,70.3707 22.4343,140.7033 9.726,63.5315 17.9321,141.2105 62.5808,192.7641 16.3662,18.897 38.5241,31.8725 57.5905,48.0412 116.2635,98.5946 24.5304,24.1935 152.1362,125.2132 83.9535,53.9343 165.3912,113.9042 260.015,149.1203 30.9404,11.5152 64.827,12.623 97.4548,17.6561 146.7953,22.6444 146.3825,20.4148 287.6446,32.833 87.368,5.2046 172.6998,-2.126 246.4156,-54.1923 19.7854,-13.9747 37.1636,-31.0787 55.7453,-46.6182 76.4275,-99.74 149.528,-207.4619 181.0062,-330.6546 -3.6376,-36.272 -137.0281,-94.2969 -108.3785,-63.7135 68.8786,73.5277 74.6382,65.0163 116.6063,41.4555 0,0 -83.7002,-54.7201 -83.7002,-54.7201 v 0 c -4.6396,2.3752 -16.8167,2.7932 -13.9187,7.1252 16.6207,24.846 78.3544,39.7431 62.0171,64.7761 -13.4816,20.6576 -107.4195,-74.132 -60.588,-42.4907 -29.6405,121.3831 -102.9968,227.2535 -177.8191,325.1827 -18.2429,15.0087 -35.2913,31.6005 -54.7286,45.0265 -73.0116,50.4317 -157.4666,54.6952 -243.0315,49.3255 -130.5651,-11.8817 -152.5058,-11.6983 -287.0531,-33.6238 -32.2955,-5.2628 -63.8835,-23.8633 -96.27,-19.1929 -14.5581,2.0995 48.353,31.1965 33.9571,28.1789 -47.4422,-9.9443 -71.7259,-76.5598 -122.5419,-78.2965 -287.6307,-225.7939 107.0627,86.1816 -152.1486,-125.1818 -19.1134,-15.5853 -42.2041,-26.5592 -59.0641,-44.558 -45.8944,-48.9944 -54.725,-126.7364 -64.4787,-188.7463 -4.5123,-62.5716 -1.7488,-86.6942 -20.9241,-143.8616 -5.4767,-16.328 -30.8304,-51.6274 -26.1907,-73.1928 7.9129,-36.7784 69.9778,-98.7425 85.6384,-116.9929 144.2353,-111.5526 51.3782,-45.1051 201.9683,-140.7218 1.7767,-1.1279 148.9845,-97.6622 164.275,-104.3353 59.2734,-25.868 151.3015,-40.845 212.8306,-53.3638 38.8715,-3.9841 77.743,-7.9682 116.6145,-11.9523 31.1422,-1.4473 62.3849,-1.4533 93.4266,-4.3415 181.16,-16.8566 -71.4627,-2.5255 121.8618,-20.9881 98.4486,-9.402 112.7532,-0.6861 221.7612,12.3854 169.6961,40.5635 335.9051,90.1565 504.3997,135.1412 41.4188,11.058 83.28975,20.347 124.93464,30.5205 31.14236,5.7243 62.81914,9.063 93.42712,17.1725 27.76355,7.3562 54.07464,19.3816 81.11197,29.0722 177.29953,72.7572 81.96757,29.9188 267.53827,122.8386 39.73082,19.894 83.36179,39.3652 117.601383,67.0036 31.28841,25.2561 71.656294,90.1507 93.3142615,122.0727 14.7962025,32.9612 33.2839175,64.5028 44.3886095,98.884 4.720468,14.6148 51.890334,239.4204 52.952122,250.4988 7.216874,75.2991 -9.068106,151.7936 -1.611653,227.2443 5.559517,14.9032 19.701547,28.3808 18.663857,45.248 -3.9248,63.7966 -43.188581,120.8749 -63.146014,179.6375 -13.355251,31.4515 -22.794651,64.8711 -40.06576,94.3546 -51.209102,87.4186 -93.703402,117.0115 -167.207006,186.7509 -110.66659,104.9988 -214.9103,217.2271 -336.85435,309.5985 -83.7116,77.9142 -130.79481,130.0403 -232.96716,188.4595 -202.7906,115.9502 -434.86169,159.8803 -659.70009,211.4529 -66.7067,20.1795 -56.1429,8.1634 -147.6885,7.289 -84.2598,-0.8046 -168.5547,-0.037 -252.7777,2.5815 -380.3964,11.8237 -382.7841,16.6712 -751.1251,47.3565 -71.2983,8.3523 -142.7412,15.5517 -213.8951,25.0576 -45.5946,6.0912 -90.333,19.494 -136.2787,21.7241 -69.2676,3.3621 -138.7618,-0.8736 -207.9871,-5.0146 -285.1705,-17.0593 -566.9147,-59.8736 -849.5366,-99.414 -234.5965,-32.8274 -469.1782,-67.0475 -701.1535,-114.7964 -108.7916,-9.0072 -35.1181,4.4252 -201.9855,-94.3549 -201.2643,-119.1416 -253.0555,-156.1549 -441.8865,-248.6157 -43.698,-21.3969 -87.2924,-43.4861 -133.0404,-60.0533 -9.7856,-3.5438 15.7432,13.6168 23.6148,20.4253 -98.884,-67.5341 -196.1366,-142.0561 -280.0511,-227.7885 -107.1853,-109.5076 -182.9258,-241.8532 -270.8957,-365.9526 -56.8071,-61.1521 -117.0686,-119.3136 -169.9755,-183.8698 -17.3813,-21.2085 -32.7673,-44.0624 -47.1601,-67.4024 -19.8475,-32.1852 -81.9169,-185.4356 -138.6978,-125.4924 6.4527,104.4472 23.6278,209.6979 48.6947,311.3667 2.9599,12.005 10.1891,22.8346 12.1737,35.0385 1.5809,9.7222 -1.1189,19.6678 -1.6782,29.5019 0.3852,33.4634 -0.6316,42.5704 4.4659,76.2907 7.6592,50.664 26.8166,31.2079 -5.0922,81.2467 -9.9237,29.9074 -22.6499,59.0272 -29.7714,89.7228 -21.993,94.7934 -32.5051,211.2857 -41.3229,307.0942 -6.2534,67.9453 -9.3305,184.7199 -30.8176,255.2409 -10.0587,33.0134 -28.3803,62.9193 -42.5707,94.379 -34.3212,78.3008 -73.4652,154.514 -105.4245,233.8083 -76.6149,190.0899 -112.2283,393.1817 -192.3735,581.8212 -22.5047,28.666 -91.109,114.646 -110.33,144.8869 -97.7344,153.7668 -131.024,335.5649 -199.0508,502.3646 -86.7148,163.0114 -42.577,83.1649 -123.0675,224.0793 -10.0306,17.5604 -38.608,34.3884 -30.0434,52.7085 15.2056,32.5262 56.46,44.3931 85.3832,65.6679 1.633,1.2013 -2.1112,-3.4618 -3.1668,-5.1927 1.2604,-13.2633 2.5206,-26.5266 3.7811,-39.7899 -5.4504,-70.8435 -2.0516,-67.5132 -22.1885,-140.9393 -7.0217,-25.6037 -18.1549,-50.0078 -24.4776,-75.793 -26.198,-106.8372 -4.8006,-48.3505 -18.6936,-142.0329 -2.0741,-13.9858 -6.8983,-27.4232 -10.3476,-41.1347 -21.8922,-77.5065 -5.8521,-5.7153 -9.829,-62.0295 -2.775,-39.2959 -30.6565,-78.0365 -52.7143,-107.9767 -11.4403,-16.5433 -22.2329,-33.5539 -34.3215,-49.6295 -17.1505,-22.8071 -62.9761,-73.6478 -76.0735,-99.4494 -32.866,-64.7452 -31.8558,-144.2136 -70.9147,-206.8545 -32.0783,-64.0172 -67.5923,-126.3965 -96.7044,-191.816 -71.2287,-160.0631 -112.01,-332.3066 -192.1912,-488.6095 -19.0736,-43.5194 -39.6431,-86.4137 -57.2212,-130.5584 -29.2341,-73.4171 -68.7882,-195.3058 -94.5055,-270.7769 -35.42,-103.9458 -71.9203,-207.0785 -86.1142,-316.6827 -34.481,-404.5569 18.5778,210.1162 -22.6602,-239.0622 -3.289,-35.8256 -8.7289,-71.6243 -8.4301,-107.5997 0.4122,-49.5953 142.9533,37.9659 -63.5403,-66.9493 -4.3754,-2.2233 -0.5225,9.802 -0.7837,14.7029 -5.0673,97.0449 -5.4152,194.4116 11.7383,290.4027 -0.5829,87.2783 -17.0662,143.0559 -36.2138,228.0856 -25.464,113.0782 -41.3581,228.5079 -78.032,338.9305 -5.9751,48.7598 -19.8085,177.1253 -33.1081,226.3322 -8.9387,33.0727 -25.3468,63.677 -36.7509,95.9824 -35.9264,101.7738 -54.5915,206.3099 -87.871,308.8047 -13.4197,34.7528 -24.8595,70.3363 -40.2593,104.258 -37.8904,83.4636 -65.7426,113.7703 -115.4538,194.6743 -134.5343,218.9512 -5.4679,13.3252 -119.2467,214.7234 -16.1311,28.5536 -34.5762,55.7366 -51.8644,83.6049 -55.6935,75.2004 -51.3842,76.1961 -117.7803,139.8104 -20.6547,19.7892 -44.2293,36.4373 -64.3734,56.7459 -68.3686,68.9261 -122.9733,152.0333 -202.2081,210.3843 -130.824,97.8564 -61.3177,47.254 -208.9544,151.2067 -33.4187,24.6203 -64.8473,51.8805 -98.42,76.2902 -92.4994,67.2534 -191.7451,126.1182 -275.3751,205.1286 -15.9134,16.1665 -29.495,35.0194 -47.7401,48.4994 -47.5552,35.1348 -106.6438,52.1028 -162.5201,66.9417 -154.5148,41.0334 -313.0823,65.9826 -465.9083,113.643 -30.668,4.5387 -61.381,8.7834 -92.005,13.616 -25.101,3.9614 -49.811,10.9683 -75.159,12.7646 -35.522,2.517 -71.231,-0.6522 -106.833,0.1317 -110.773,2.4392 -222.078,7.3121 -331.538,25.6792 -84.434,0.6096 -167.23,10.7249 -251.411,17.8713 -135.109,11.4702 -269.646,21.4825 -398.108,69.7452 -182.998,64.7068 -373.346,110.9109 -546.986,200.2118 -39.616,20.3734 -76.235,46.111 -114.205,69.4079 -36.811,22.5856 -73.423,45.4924 -110.135,68.2386 -159.047,83.2824 -340.159,159.1279 -423.346,329.5687 -5.7,19.0961 -14.787,37.4947 -17.099,57.2887 -9.484,81.2006 10.46,200.1205 24.295,280.6115 3.856,22.4332 11.536,44.2841 13.313,66.9769 1.256,16.042 -2.869,32.0543 -4.303,48.0814 -0.09,0.4813 -14.727,79.1459 -14.512,80.2598 12.706,65.6688 61.189,124.266 99.974,174.0106 57.643,73.9309 149.496,177.9293 211.749,249.6127 25.786,29.9118 53.516,58.2519 77.358,89.7354 24.822,32.778 63.528,116.2858 94.245,141.1786 188.788,152.9901 420.726,237.399 647.227,314.6486 47.088,9.3846 93.661,21.8904 141.265,28.1539 32.35,4.2563 65.244,1.6323 97.83,3.3044 252.117,12.9374 504.344,33.2414 756.701,5.5317 100.232,-10.1663 200.717,-18.0974 300.698,-30.4989 234.469,-29.0832 210.108,-36.1307 432.6265,-72.3419 348.3218,-56.6835 108.5638,-11.1244 469.7701,-61.757 60.8102,-8.5242 121.0998,-20.422 181.6499,-30.6331 z" />
    <circle
       style="fill:none;fill-opacity:1;stroke:#000000;stroke-width:9.75034;stroke-linecap:round;stroke-dasharray:none;stroke-opacity:1"
       id="path29-4"
       cx="99.792778"
       cy="99.25103"
       r="81.356712" />
    <circle
       style="fill:none;fill-opacity:1;stroke:#000000;stroke-width:3.84351;stroke-linecap:round;stroke-dasharray:none;stroke-opacity:1"
       id="path29-8-7"
       cx="99.282814"
       cy="99.270866"
       r="91.924629" />
    <path
       style="fill:none;fill-opacity:1;stroke:#000000;stroke-width:4.09375;stroke-linecap:round;stroke-dasharray:none;stroke-opacity:1"
       d="m 101.51887,68.238785 c 0,0 -0.0331,2.536963 -5.349091,-0.433844 -5.31682,-2.970792 15.143241,-6.303543 14.556531,-0.389227 -0.58677,5.914331 -1.84947,7.621573 -11.542751,10.93286 -9.693291,3.311264 -16.726493,-8.729759 -16.726493,-8.729759 0,0 -2.921272,13.450811 -8.002545,18.00822 -5.081316,4.557427 -7.441466,-16.905024 -7.441466,-16.905024 0,0 -14.792019,26.709881 -29.988921,41.068889 -15.196934,14.35897 26.056249,13.59622 23.776248,1.55025 -2.279914,-12.04598 -13.138392,-4.3657 -13.138392,-4.3657 0,0 -2.2775,4.72269 6.287819,4.9896"
       id="path30-6" />
    <path
       style="fill:none;stroke:#000000;stroke-width:3.83927;stroke-linecap:round;stroke-dasharray:none"
       d="m 85.495221,101.17652 c 0.43235,-0.19525 0.841551,-0.45215 1.296566,-0.58579 0.676981,-0.19885 1.507305,-0.16762 2.205727,-0.28335 0.28769,0.0496 0.459853,-0.23103 0.709155,-0.28058 0.75265,-0.149488 1.5264,-0.143028 2.30602,-0.143028 0.95739,0 1.82688,-0.39177 2.7559,-0.56885 0.22992,-0.044 0.46921,0.0274 0.70145,0 1.42842,-0.17068 1.59873,-0.27789 2.65343,-1.18369 0.37185,-0.31936 0.80215,-0.50044 1.15464,-0.8516 0.24589,-0.24501 0.854761,-0.91822 0.741991,-1.30426 -0.245881,-0.84233 -1.302561,-1.25683 -1.920171,-1.75526 -0.50112,-0.40441 -0.31848,-0.44903 -0.86531,-0.71897 -0.64558,-0.31866 -3.17904,-1.19216 -3.57245,-1.27796 -0.60139,-0.13118 -3.00981,-0.0775 -3.78124,0 -1.879708,0.18905 -0.0331,0.102 -1.533863,0.30523 -0.140253,0.0192 -0.29375,-0.0523 -0.425222,0 -0.122568,0.049 -0.17766,0.19742 -0.280517,0.2806 -0.981176,0.79354 -1.65116,1.6978 -2.198587,2.86497 -0.219475,0.46843 -0.358648,0.97494 -0.609372,1.42756 -0.207928,0.37586 -0.541818,0.67108 -0.758428,1.0423 -0.146875,0.25221 -0.204094,0.54731 -0.323445,0.81379 -0.149641,0.33439 -0.3856,0.63405 -0.481878,0.9875 -0.06875,0.253148 0.05509,0.530268 0,0.786958 -0.04396,0.20721 -0.226064,0.36425 -0.284936,0.56773 -0.03845,0.13486 0.02755,0.28329 0,0.42084 -0.09288,0.46807 -0.24863,0.79632 -0.174917,1.29988 0.260189,1.77222 1.894832,2.86767 3.337955,3.69796 1.758457,1.01175 2.45039,1.12833 4.4103,1.12833 0.46371,0 1.09479,0.0779 1.564,0 0.14735,-0.0247 0.2778,-0.11931 0.42576,-0.14026 0.43401,-0.0619 0.93435,0.088 1.36017,0 0.20462,-0.0424 0.36636,-0.20514 0.56119,-0.2806 1.10442,-0.42712 0.18975,0.15072 1.66208,-0.52773 0.31903,-0.14688 0.59161,-0.37934 0.90145,-0.54418 0.57775,-0.30744 0.99579,-0.3283 1.54924,-0.76341 0.40153,-0.0681 0.23156,-0.58046 0.46644,-0.76555 0.4659,-0.36777 1.496031,-0.38098 1.496031,-1.12506"
       id="path2-5" />
    <path
       style="fill:none;stroke:#000000;stroke-width:3.83927;stroke-linecap:round;stroke-dasharray:none"
       d="m 105.6536,92.148132 c 1.51099,1.43763 1.6082,1.10204 2.13285,2.62386 0.11609,0.33735 0.19747,1.11822 0.28493,1.43304 0.21288,0.76773 0.50827,1.48054 0.58743,2.28737 0.13579,1.38274 -0.17162,0.0528 0,1.656638 0.45656,4.2672 0.41036,1.5817 0.41036,3.90289 0,0.51843 0.11274,1.48283 0,2.03529 -0.0219,0.10732 -0.14134,0.1752 -0.17164,0.28058 -0.0551,0.19176 0.0893,0.41998 0,0.59842 -0.044,0.0866 -0.14026,-0.15746 -0.14026,-0.25429"
       id="path3-6" />
    <path
       style="fill:none;stroke:#000000;stroke-width:3.83927;stroke-linecap:round;stroke-dasharray:none"
       d="m 109.76588,96.393542 c 0.33993,-1.8374 0.25633,-2.39252 1.06752,-3.88536 0.34049,-0.62629 1.6551,-3.21709 2.69178,-3.489691 0.2057,-0.05386 0.42629,0.01816 0.6384,0 0.33995,-0.02926 0.67333,-0.113938 1.01329,-0.140272 0.45547,-0.03524 0.83419,-0.08766 1.21219,0.138731 0.23488,0.140726 0.87384,0.588771 1.01984,0.734847 0.23927,0.239126 0.54731,0.99958 0.87956,1.165624 0.94221,0.471145 2.72631,1.126801 2.72631,2.347651"
       id="path4-9" />
    <path
       style="fill:none;stroke:#000000;stroke-width:3.83927;stroke-linecap:round;stroke-dasharray:none"
       d="m 135.3676,89.712266 c -2.26568,-0.234611 -4.07535,1.515545 -5.30087,3.188836 -0.98055,1.33885 0.31354,-0.43664 -0.42299,0.8516 -0.12658,0.22152 -0.35096,0.38236 -0.45601,0.61486 -0.10335,0.22894 -0.0802,0.49799 -0.15568,0.73762 -0.0802,0.25517 -0.25468,0.47856 -0.31023,0.74035 -0.10005,0.47401 0,0.9689 0,1.45332 0,1.57352 0.16392,2.23096 0.98258,3.615728 0.22333,0.37786 0.48131,1.04798 0.75405,1.36401 0.35698,0.41366 1.12021,0.68866 1.55142,0.9234 0.88379,0.48108 1.59812,1.11345 2.53834,1.48836 0.87176,0.34766 2.36321,0.82378 3.24091,0.29814 0.11442,-0.0685 0.17824,-0.20049 0.28329,-0.2828 0.56833,-0.44529 0.4329,-0.20479 1.19739,-0.57212 0.41807,-0.20082 0.51598,-0.44032 0.85383,-0.71239 0.21397,-0.17222 0.51156,-0.2301 0.70639,-0.42363 0.16117,-0.16007 0.14027,-0.24822 0.14027,-0.4203"
       id="path5-3" />
    <path
       style="fill:none;stroke:#000000;stroke-width:3.83927;stroke-linecap:round;stroke-dasharray:none"
       id="path7-7"
       d="m 144.07307,88.187668 c 0.0496,0.571287 0.14473,1.138501 0.17383,1.711686 0.004,0.09316 0.0165,0.188128 10e-4,0.28027 -0.0219,0.133487 -0.10996,0.247401 -0.16556,0.370738 -0.12428,0.341215 0.004,0.689452 -0.011,1.036017 -0.011,0.324863 -0.083,0.644983 -0.12489,0.967483 -0.0941,0.82144 -0.011,1.64592 -0.004,2.46951 0.0913,0.55932 0.0758,0.63081 0.27725,1.17466 0.17986,0.48521 0.23544,0.37745 0.32179,0.87168 0.022,0.11119 0.006,0.22569 0.0165,0.33813 0.011,0.0985 0.0275,0.19643 0.0385,0.29468 0.0331,0.0892 0.0551,0.18355 0.0996,0.26733 0.0704,0.13165 0.16723,0.20183 0.25139,0.3175 0.16502,0.22729 0.32233,0.46372 0.48296,0.69453 0.64601,0.68209 1.4388,1.200328 1.97618,1.986288 0.14241,0.20819 0.24258,0.44225 0.36469,0.66304 0.10225,0.18508 0.20573,0.36968 0.30804,0.55451 0.59836,0.54501 0.5762,0.58415 1.5677,1.00754 0.16173,0.069 0.26127,-0.13041 0.37406,-0.17048 0.083,-0.029 0.38009,0.0318 0.43291,0.0406 0.37017,0.0467 0.75666,0.10269 1.13094,0.0684 0.15843,-0.0139 0.31189,-0.0599 0.46865,-0.0866 0.58385,-0.0988 0.445,-0.0754 1.02209,-0.12073 0.13919,-0.0247 0.28385,-0.0282 0.4175,-0.0748 0.49563,-0.17284 0.93706,-0.77301 1.29746,-1.14824 0.46095,-0.59127 1.0114,-1.12354 1.62413,-1.55753 0.26679,-0.188848 0.54678,-0.357988 0.81379,-0.546348 0.45325,-0.28222 1.15223,-0.60592 1.50213,-1.02017 0.0946,-0.11215 0.13304,-0.26227 0.21122,-0.38681 0.29045,-0.4647 0.25084,-0.38312 0.63287,-0.73171 0.4615,-0.43444 0.23377,-0.19395 0.65975,-0.70789 0.12872,-0.15496 0.26678,-0.30244 0.38616,-0.46465 0.37954,-0.51619 0.40759,-0.65198 0.74005,-1.1977 0.13041,-0.2142 0.2701,-0.42256 0.40541,-0.63388 0.12704,-0.21281 0.24148,-0.43371 0.3812,-0.63847 0.52695,-0.77285 0.46426,-0.47889 0.92444,-1.31241 0.13534,-0.24468 0.23488,-0.50734 0.3559,-0.7593 0.55095,-1.148162 0.17492,-0.284424 0.6811,-1.515305 0.15133,-0.297968 0.58751,-1.150324 0.73076,-1.458839 0.18922,-0.407666 0.45821,-0.839636 0.17821,-1.259187 -0.37348,-0.469328 0.258,-0.06246 -1.11953,-0.663332 -0.0688,-0.03033 -0.2789,-0.103782 -0.2173,-0.06091 0.19418,0.135029 0.41421,0.228173 0.62136,0.342194 -2.86054,-1.569599 -0.18868,-0.151642 -0.30034,-0.190814 -0.31189,-0.10916 -0.56251,-0.37763 -0.88593,-0.446756 -0.0825,-0.01755 -0.0687,0.156262 -0.0825,0.23965 -0.0496,0.291543 -0.0385,0.876756 -0.0385,1.137773 0.003,0.259045 0.006,0.518127 0.011,0.77715 0.003,0.267549 -5.5e-4,0.535385 0.011,0.802589 0.0331,0.630728 0.11657,1.258063 0.15134,1.888696 0.0496,0.851751 0.0331,1.204381 0.0331,2.054761 -0.34434,2.48135 0.21947,4.95434 0.72984,7.371778 0.0963,0.5639 0.21782,1.12405 0.28878,1.69163 0.13748,1.09479 0.15787,2.28744 0.22112,3.3883 0.0276,0.4786 0.071,0.95623 0.0969,1.43494 0.0722,1.33736 0.0578,1.46964 0.067,2.78123 -0.0385,0.76275 -0.15677,1.51878 -0.21287,2.27999 -0.0869,1.16836 0.004,1.1399 -0.22169,2.29794 -0.18537,0.94541 -0.3889,1.49572 -0.67961,2.41227 -0.15403,0.32552 -0.28713,0.6617 -0.46151,0.97654 -0.35312,0.63672 -0.99431,1.47707 -1.47946,2.03317 -0.3339,0.38274 -0.69728,0.7387 -1.04101,1.11258 -0.19528,0.25768 -0.40375,0.50543 -0.58516,0.77304 -0.47747,0.70515 -0.43511,0.76251 -0.8218,1.44095 -0.0726,0.1278 -0.16174,0.24561 -0.23654,0.3725 -0.0496,0.0894 -0.0798,0.19368 -0.14242,0.2758 -0.0643,0.0835 -0.15512,0.14227 -0.23267,0.21343 -0.24753,0.10457 -0.44446,0.45941 -0.73451,0.48021 -0.0331,0.001 -0.0496,-0.0424 -0.0836,-0.0456 -0.0688,-0.008 -0.13365,0.0346 -0.20077,0.0507 -0.044,0.004 -0.0865,0.01 -0.12981,0.0139 0,0 0.7836,0.55436 0.7836,0.55436 v 0 c 0.044,-0.006 0.0897,-0.0139 0.13472,-0.0204 0.0897,-0.0171 0.21068,0.003 0.29429,-0.0198 0.29484,-0.084 0.49671,-0.36026 0.75294,-0.50894 0.083,-0.0805 0.17933,-0.14918 0.24918,-0.24131 0.061,-0.0801 0.088,-0.18153 0.13858,-0.26849 0.0754,-0.12903 0.16556,-0.24896 0.23984,-0.37884 0.38229,-0.67123 0.34213,-0.73149 0.81409,-1.42772 0.17988,-0.26498 0.3867,-0.51015 0.58045,-0.7652 0.34544,-0.3753 0.70968,-0.73353 1.04447,-1.11836 0.49066,-0.56398 1.13281,-1.40742 1.49062,-2.05235 0.17658,-0.31861 0.31191,-0.65855 0.46812,-0.9878 0.29263,-0.91928 0.49893,-1.47782 0.68709,-2.42621 0.23599,-1.19019 0.1358,-1.10537 0.22388,-2.30172 0.056,-0.76434 0.17436,-1.52338 0.21783,-2.28893 -0.006,-1.29606 0.006,-1.466 -0.0643,-2.7865 -0.0276,-0.47817 -0.0703,-0.95518 -0.0978,-1.43325 -0.0616,-1.08033 -0.0837,-2.32522 -0.21618,-3.39864 -0.0703,-0.56876 -0.19142,-1.13005 -0.28713,-1.6951 -0.51158,-2.409938 -1.0866,-4.879358 -0.73891,-7.353548 0.003,-0.83542 0.0165,-1.22505 -0.0275,-2.06185 -0.0331,-0.62896 -0.12042,-1.254337 -0.15403,-1.88332 -0.0165,-0.26718 -0.011,-0.535004 -0.011,-0.802482 -0.004,-0.258484 -0.011,-0.516958 -0.011,-0.775454 5.3e-4,-0.218058 -0.003,-0.436151 10e-4,-0.654173 0.003,-0.153863 0.011,-0.307654 0.0275,-0.461063 0.004,-0.04956 0.0631,-0.115609 0.0219,-0.146268 -0.23873,-0.189716 -1.0337,-0.645775 -0.79035,-0.46172 0.29649,0.224028 0.64387,0.372064 0.94998,0.582441 0.20792,0.142721 -0.4362,-0.252871 -0.65437,-0.379337 0.346,0.194673 0.68226,0.407535 1.03782,0.584019 0.85685,0.425329 -0.87862,-0.87918 -0.31078,-0.230754 0.0331,0.02687 0.0749,0.04574 0.0978,0.08157 0.19967,0.318046 -0.10467,0.814688 -0.22553,1.075956 -0.14626,0.315645 -0.57994,1.161552 -0.73401,1.46462 -0.50662,1.234965 -0.12381,0.353205 -0.67884,1.511328 -0.11883,0.248131 -0.21619,0.507117 -0.3493,0.747977 -0.44336,0.80328 -0.4131,0.56278 -0.92621,1.31533 -0.13918,0.20402 -0.25303,0.42393 -0.37955,0.63592 -0.66378,1.03833 -1.23359,2.16125 -2.1785,2.98307 -0.39054,0.36515 -0.3515,0.28306 -0.64891,0.75871 -0.0715,0.11429 -0.10468,0.25363 -0.19254,0.35595 -0.36194,0.42135 -1.04073,0.71557 -1.49773,1.01323 -0.26844,0.18829 -0.54951,0.35899 -0.81614,0.5501 -0.6141,0.440068 -1.16598,0.975848 -1.63156,1.569518 -0.55117,0.57482 0.006,-0.011 -0.47417,0.50128 -0.0786,0.0835 -0.33443,0.35754 -0.42189,0.41545 -0.324,0.214 -0.4054,0.1867 -0.78028,0.24848 -0.16778,0.0154 -0.3361,0.0241 -0.50333,0.0453 -0.32893,0.0406 -0.65145,0.13087 -0.98186,0.15494 -0.37405,0.0269 -0.75475,-0.0314 -1.12461,-0.0768 -0.1953,-0.0171 -0.28882,-0.0496 -0.47199,0.0165 -0.0496,0.0182 -0.0865,0.0701 -0.13856,0.0849 -0.0572,0.016 -0.21893,-0.0385 -0.17822,0.004 0.0165,0.0154 1.2206,0.83379 0.0599,-0.0186 -0.10291,-0.18443 -0.20848,-0.3675 -0.30914,-0.55328 -0.1215,-0.22509 -0.21672,-0.46558 -0.35752,-0.67927 -0.52424,-0.7952 -1.30523,-1.32731 -1.97913,-1.979538 -0.0681,-0.10048 -0.1364,-0.20104 -0.20462,-0.30159 -0.0616,-0.078 -0.12811,-0.1518 -0.18427,-0.23377 -0.0384,-0.0523 -0.0551,-0.11478 -0.0897,-0.16762 -0.0722,-0.10897 -0.19198,-0.18091 -0.26348,-0.29022 -0.0496,-0.0749 -0.0731,-0.1637 -0.10952,-0.24555 -0.0594,-0.4037 -0.0385,-0.18944 -0.0496,-0.64353 -0.077,-0.52857 -0.12427,-0.37261 -0.32015,-0.87567 -0.20351,-0.523 -0.19307,-0.60968 -0.28987,-1.14863 -0.001,-0.82002 -0.0876,-1.64022 -7.3e-4,-2.4583 0.044,-0.32828 0.11549,-0.65346 0.13366,-0.98397 0.0165,-0.33229 -0.11442,-0.665537 -0.011,-0.99451 0.0616,-0.135649 0.15621,-0.260574 0.1848,-0.406663 0.0165,-0.09363 0.006,-0.191329 0.001,-0.286813 -0.0276,-0.571347 -0.11932,-1.136901 -0.17713,-1.705131 z" />
    <text
       xml:space="preserve"
       style="font-weight:600;font-size:12.7px;font-family:FreeSans;-inkscape-font-specification:'FreeSans Semi-Bold';fill:none;stroke:#020000;stroke-width:0;stroke-linecap:round;stroke-dasharray:none;stroke-opacity:1"
       x="-21.148581"
       y="-32.89851"
       id="text24"><tspan
         sodipodi:role="line"
         id="tspan24"
         style="stroke-width:0;stroke-dasharray:none" /></text>
  </g>
</svg>
