<?xml version="1.0" encoding="UTF-8" standalone="no"?>
<!-- Created with Inkscape (http://www.inkscape.org/) -->

<svg
   width="200mm"
   height="200mm"
   viewBox="0 0 200 200"
   version="1.1"
   id="svg1"
   inkscape:version="1.3 (0e150ed, 2023-07-21)"
   sodipodi:docname="Mercy_03.svg"
   xmlns:inkscape="http://www.inkscape.org/namespaces/inkscape"
   xmlns:sodipodi="http://sodipodi.sourceforge.net/DTD/sodipodi-0.dtd"
   xmlns="http://www.w3.org/2000/svg"
   xmlns:svg="http://www.w3.org/2000/svg">
  <sodipodi:namedview
     id="namedview1"
     pagecolor="#ffffff"
     bordercolor="#000000"
     borderopacity="0.25"
     inkscape:showpageshadow="2"
     inkscape:pageopacity="0.0"
     inkscape:pagecheckerboard="0"
     inkscape:deskcolor="#d1d1d1"
     inkscape:document-units="mm"
     inkscape:zoom="0.22627418"
     inkscape:cx="959.01353"
     inkscape:cy="309.3592"
     inkscape:window-width="1850"
     inkscape:window-height="1016"
     inkscape:window-x="0"
     inkscape:window-y="0"
     inkscape:window-maximized="1"
     inkscape:current-layer="layer1" />
  <defs
     id="defs1">
    <inkscape:perspective
       sodipodi:type="inkscape:persp3d"
       inkscape:vp_x="-191.02186 : 108.99087 : 1"
       inkscape:vp_y="0 : 234.09391 : 0"
       inkscape:vp_z="-111.66602 : 108.99087 : 1"
       inkscape:persp3d-origin="-151.34394 : 101.18774 : 1"
       id="perspective18" />
  </defs>
  <g
     inkscape:label="Layer 1"
     inkscape:groupmode="layer"
     id="layer1">
    <g
       sodipodi:type="inkscape:box3d"
       id="g18"
       style="fill:none;stroke:#010101;stroke-width:15.1181;stroke-linecap:round;stroke-dasharray:none;stroke-opacity:0.683227"
       inkscape:perspectiveID="#perspective18"
       inkscape:corner0="2.8342141 : 0.13708928 : 0 : 1"
       inkscape:corner7="-0.21073714 : 0.01133442 : 0.25 : 1">
      <path
         sodipodi:type="inkscape:box3dside"
         id="path23"
         style="fill:#e9e9ff;fill-rule:evenodd;stroke:#010101;stroke-linejoin:round;stroke-opacity:0.683227"
         inkscape:box3dsidetype="11"
         d="m -176.44944,85.062175 42.69594,-17.424068 v 28.326276 l -42.69594,-3.694348 z"
         points="-133.7535,67.638107 -133.7535,95.964383 -176.44944,92.270035 -176.44944,85.062175 " />
      <path
         sodipodi:type="inkscape:box3dside"
         id="path18"
         style="fill:#353564;fill-rule:evenodd;stroke:#010101;stroke-linejoin:round;stroke-opacity:0.683227"
         inkscape:box3dsidetype="6"
         d="m -180.67348,84.674419 v 7.677831 l 4.22404,-0.08222 v -7.20786 z"
         points="-180.67348,92.35225 -176.44944,92.270035 -176.44944,85.062175 -180.67348,84.674419 " />
      <path
         sodipodi:type="inkscape:box3dside"
         id="path22"
         style="fill:#afafde;fill-rule:evenodd;stroke:#010101;stroke-linejoin:round;stroke-opacity:0.683227"
         inkscape:box3dsidetype="13"
         d="m -180.67348,92.35225 39.92374,5.181716 6.99624,-1.569583 -42.69594,-3.694348 z"
         points="-140.74974,97.533966 -133.7535,95.964383 -176.44944,92.270035 -180.67348,92.35225 " />
      <path
         sodipodi:type="inkscape:box3dside"
         id="path19"
         style="fill:#4d4d9f;fill-rule:evenodd;stroke:#010101;stroke-linejoin:round;stroke-opacity:0.683227"
         inkscape:box3dsidetype="5"
         d="m -180.67348,84.674419 39.92374,-24.439113 6.99624,7.402801 -42.69594,17.424068 z"
         points="-140.74974,60.235306 -133.7535,67.638107 -176.44944,85.062175 -180.67348,84.674419 " />
      <path
         sodipodi:type="inkscape:box3dside"
         id="path21"
         style="fill:#d7d7ff;fill-rule:evenodd;stroke:#010101;stroke-linejoin:round;stroke-opacity:0.683227"
         inkscape:box3dsidetype="14"
         d="m -140.74974,60.235306 v 37.29866 l 6.99624,-1.569583 V 67.638107 Z"
         points="-140.74974,97.533966 -133.7535,95.964383 -133.7535,67.638107 -140.74974,60.235306 " />
      <path
         sodipodi:type="inkscape:box3dside"
         id="path20"
         style="fill:#8686bf;fill-rule:evenodd;stroke:#010101;stroke-linejoin:round;stroke-opacity:0.683227"
         inkscape:box3dsidetype="3"
         d="m -180.67348,84.674419 39.92374,-24.439113 v 37.29866 l -39.92374,-5.181716 z"
         points="-140.74974,60.235306 -140.74974,97.533966 -180.67348,92.35225 -180.67348,84.674419 " />
    </g>
    <path
       style="opacity:1;fill:none;fill-opacity:1;stroke:#000000;stroke-width:7.99999;stroke-linecap:round;stroke-dasharray:none;stroke-opacity:1"
       id="path25"
       d="m -9255.3596,-2157.7496 c -60.2697,9.805 -120.31,21.141 -180.8085,29.415 -328.3972,44.9125 -151.9968,9.5595 -469.6561,61.5946 -225.6688,36.9665 -194.7168,43.1593 -432.6698,72.4038 -99.883,12.2757 -200.267,20.0525 -300.401,30.0788 -252.092,27.8949 -503.932,5.8157 -755.72,-6.8868 -32.652,-1.6473 -65.641,1.3978 -98.034,-3.0259 -47.335,-6.4643 -93.501,-19.677 -140.252,-29.5154 -182.329,-66.6449 -276.294,-92.6173 -444.439,-185.315 -12.869,-7.0945 -20.794,-20.8411 -30.064,-32.2431 -194.14,-238.7928 63.773,74.6191 -95.791,-137.4777 -23.876,-31.7361 -51.172,-60.7484 -76.758,-91.1226 -61.524,-70.9188 -154.654,-176.6294 -211.797,-249.4993 -39.544,-50.4277 -85.782,-106.0929 -101.232,-171.1729 -1.365,-5.7494 11.602,-73.0269 11.999,-75.2036 1.573,-16.2894 5.732,-32.5345 4.717,-48.868 -1.457,-23.4511 -8.289,-46.2577 -12.068,-69.4481 -13.758,-84.4376 -34.197,-193.5779 -25.05,-279.0899 2.015,-18.8442 10.47,-36.4284 15.705,-54.6426 82.378,-167.5154 262.79,-240.7904 419.216,-322.6795 36.846,-22.9518 73.56,-46.1155 110.537,-68.8557 37.92,-23.3203 74.513,-49.0585 114.15,-69.324 173.27,-88.5883 363.631,-133.5307 545.857,-198.5036 130.307,-48.3547 260.017,-56.3359 396.591,-67.5619 84.221,-6.9228 166.537,-17.6763 250.978,-17.2707 109.158,-20.4022 221.011,-23.8257 331.744,-25.9635 35.533,-0.6861 71.183,2.885 106.618,0.1638 25.757,-1.9778 50.693,-10.0185 76.185,-14.201 30.524,-5.0083 61.219,-8.9107 91.829,-13.3657 152.613,-49.3009 311.7461,-72.9393 466.4009,-114.3492 57.5225,-15.4022 115.6565,-32.5813 164.0427,-69.2084 18.8481,-14.2677 32.8689,-33.9839 49.3035,-50.9757 83.4322,-78.2928 182.345,-136.5234 274.3171,-203.4355 33.723,-24.5345 65.1822,-52.0724 98.7528,-76.8146 147.4878,-103.5651 78.0193,-53.0032 208.8608,-151.0583 79.6888,-58.887 134.3811,-142.8768 203.3217,-212.1871 19.8707,-19.9771 43.3115,-36.1214 63.6714,-55.5998 65.9803,-63.1227 63.662,-66.8642 118.8898,-141.6381 17.426,-28.103 36.0103,-55.5199 52.2779,-84.3089 113.4637,-200.796 -13.7961,1.7409 119.3671,-214.9308 50.2166,-81.7087 77.2908,-110.7099 115.6591,-195.0308 15.594,-34.2709 27.2352,-70.2064 40.8528,-105.3094 33.7476,-102.4967 52.2779,-207.3542 88.1361,-309.2831 11.3136,-32.1599 27.5603,-62.6412 36.5054,-95.5387 14.674,-53.9665 27.5412,-174.2972 34.2619,-228.4666 35.9423,-110.3527 52.3171,-225.4094 77.6751,-338.2574 18.4562,-82.1333 35.5586,-145.4399 37.0779,-229.7377 -15.6782,-96.0758 -16.6735,-193.0561 -11.9126,-290.063 2.5048,-47.5707 6.5542,-40.3817 -95.8953,-67.2912 -8.9292,-2.3452 -14.3645,14.0653 -15.0128,23.2746 -2.6516,37.6743 2.5371,75.515 5.4092,113.1732 6.0917,79.8769 15.6937,159.4516 22.5584,239.2658 13.6342,110.2876 49.6482,214.2744 85.0516,318.8796 24.203,71.5126 67.011,201.608 94.438,270.9209 17.5366,44.3185 37.9627,87.4384 56.9441,131.1576 79.9402,156.295 121.711,328.0797 192.354,488.2566 2.2381,5.0752 87.989,176.0299 96.3207,192.6531 38.575,62.5597 40.0521,140.4726 71.528,205.5244 26.3906,54.5412 74.3665,102.399 109.193,151.737 21.3522,29.841 49.4496,65.9926 54.329,104.4522 9.5322,75.1305 -19.3291,-60.6939 9.6957,62.3075 3.4578,13.6932 8.1735,27.1293 10.3735,41.08 14.6304,92.7727 -6.4042,33.5198 19.0408,141.3147 6.1772,26.1684 16.8267,51.1011 23.8752,77.0485 20.5573,75.678 16.7706,66.5782 23.1664,138.9243 -4.2741,52.914 -15.5062,93.8043 91.7037,71.0472 18.7066,-3.9706 18.9535,-33.22 28.4425,-49.8229 79.9288,-139.8526 37.1276,-62.5313 123.2143,-224.3349 68.7634,-166.4115 101.1862,-348.5803 198.9688,-502.2217 18.2983,-28.7515 88.2364,-116.4159 109.5195,-143.5029 81.7219,-189.175 117.0956,-393.5285 193.9867,-584.6281 31.8243,-79.0937 70.8385,-155.1083 105.0779,-233.1868 14.173,-31.4293 32.3967,-61.3299 42.5191,-94.2874 22.955,-74.7406 25.5976,-184.5408 32.4514,-258.2572 8.9749,-96.5287 19.0085,-210.8602 40.9186,-306.3245 6.9377,-30.2284 19.3675,-58.9275 29.0515,-88.3912 29.7757,-43.6163 16.1007,-40.6723 7.6296,-86.1751 -5.551,-29.8161 -4.7337,-44.4788 -5.4314,-74.3357 0.454,-9.6279 2.6778,-19.3355 1.3621,-28.8838 -1.8045,-13.0942 -7.6433,-25.3275 -10.6082,-38.2085 -4.7043,-20.4393 -8.2394,-41.1305 -12.3854,-61.6902 -16.6733,-82.6876 -31.5564,-163.3649 -37.3436,-247.5508 -3.8174,36.1601 10.4817,-82.3269 -70.6075,-15.181 -15.8816,13.1509 17.9811,37.1872 28.7364,54.7799 58.0932,95.0248 140.8422,172.6475 216.0648,253.7364 89.5747,122.8474 164.7325,255.4346 271.077,365.5224 83.6867,86.6323 180.4474,161.5419 279.0479,230.245 148.2603,84.2253 305.8665,146.3127 454.9084,229.3037 138.8017,77.2891 75.4391,61.0505 248.2117,149.7973 72.3929,37.1854 147.9375,67.8847 221.9063,101.8271 98.9253,24.9269 200.5928,32.6903 300.7741,50.8653 42.4717,7.7052 84.4127,18.2766 127.0164,25.2127 91.2122,14.85 183.2631,24.0083 274.7761,36.8744 282.7285,39.5825 564.5473,82.4087 849.8719,98.9629 69.3478,4.0233 138.9808,8.2823 208.3437,4.5292 46.3693,-2.5088 91.3498,-16.9543 137.3603,-23.2347 71.0227,-9.6943 142.4158,-16.4489 213.6237,-24.6732 367.4777,-30.3538 371.2567,-35.32 750.7084,-46.773 84.1572,-2.5403 168.3866,-3.32 252.576,-2.3022 110.4106,1.3349 72.4024,14.6302 149.3573,-9.6625 225.4264,-50.3463 457.91645,-95.6821 660.48579,-212.6229 102.37176,-59.0979 150.70716,-112.5837 234.63651,-191.0712 122.15493,-92.1764 226.18914,-204.6722 336.901808,-309.6755 74.7412637,-70.8872 115.9552,-99.2201 168.097214,-188.2235 17.667028,-30.1567 27.496838,-64.2657 41.245258,-96.3989 16.76433,-57.9673 78.20682,-140.0156 61.40807,-204.062 -2.61572,-9.9724 -8.97105,-18.5668 -13.3053,-27.9214 -10.26035,-74.1209 6.60892,-149.3655 -0.17923,-223.5587 -1.65249,-18.0615 -45.07647,-230.9153 -51.91917,-252.5776 -11.01368,-34.8665 -29.02883,-67.1208 -43.543251,-100.6811 -22.533572,-34.5617 -59.470024,-97.0362 -92.1452183,-124.7243 -24.9375477,-21.1315 -54.2656257,-36.5284 -82.4525537,-53.0788 -102.239737,-60.0321 -235.365797,-135.8636 -347.259857,-186.7062 -41.26389,-18.7497 -84.04857,-33.9537 -126.07287,-50.9307 -27.12982,-9.5726 -53.50185,-21.6508 -81.38948,-28.7181 -30.94419,-7.8415 -62.96509,-10.5609 -94.44765,-15.8414 -41.5077,-10.3542 -83.22546,-19.9004 -124.52311,-31.0629 -168.43486,-45.5274 -334.58616,-94.855 -504.45106,-135.074 -111.0455,-12.455 -123.4315,-21.1447 -223.4209,-10.1457 -76,8.3603 -49.5772,15.6927 -122.5554,21.9641 -30.8096,2.6477 -61.8064,2.2222 -92.7096,3.3332 -38.9936,4.1548 -77.9872,8.3095 -116.9808,12.464 -60.3349,12.6444 -155.7983,28.8835 -213.9423,54.9608 -26.4886,11.8801 -49.1041,30.9835 -73.5201,46.6881 -30.8528,19.8449 -61.3144,40.2969 -92.2842,59.9583 -151.2471,96.0213 -57.1276,28.4184 -202.4183,141.4291 -18.5554,21.7699 -78.2529,81.4162 -87.7952,120.5796 -7.2037,29.5651 13.6558,56.0271 21.9893,81.3723 20.6032,62.6618 16.6147,70.3707 22.4343,140.7033 9.726,63.5315 17.9321,141.2105 62.5808,192.7641 16.3662,18.897 38.5241,31.8725 57.5905,48.0412 116.2635,98.5946 24.5304,24.1935 152.1362,125.2132 83.9535,53.9343 165.3912,113.9042 260.015,149.1203 30.9404,11.5152 64.827,12.623 97.4548,17.6561 146.7953,22.6444 146.3825,20.4148 287.6446,32.833 87.368,5.2046 172.6998,-2.126 246.4156,-54.1923 19.7854,-13.9747 37.1636,-31.0787 55.7453,-46.6182 76.4275,-99.74 149.528,-207.4619 181.0062,-330.6546 -3.6376,-36.272 -137.0281,-94.2969 -108.3785,-63.7135 68.8786,73.5277 74.6382,65.0163 116.6063,41.4555 0,0 -83.7002,-54.7201 -83.7002,-54.7201 v 0 c -4.6396,2.3752 -16.8167,2.7932 -13.9187,7.1252 16.6207,24.846 78.3544,39.7431 62.0171,64.7761 -13.4816,20.6576 -107.4195,-74.132 -60.588,-42.4907 -29.6405,121.3831 -102.9968,227.2535 -177.8191,325.1827 -18.2429,15.0087 -35.2913,31.6005 -54.7286,45.0265 -73.0116,50.4317 -157.4666,54.6952 -243.0315,49.3255 -130.5651,-11.8817 -152.5058,-11.6983 -287.0531,-33.6238 -32.2955,-5.2628 -63.8835,-23.8633 -96.27,-19.1929 -14.5581,2.0995 48.353,31.1965 33.9571,28.1789 -47.4422,-9.9443 -71.7259,-76.5598 -122.5419,-78.2965 -287.6307,-225.7939 107.0627,86.1816 -152.1486,-125.1818 -19.1134,-15.5853 -42.2041,-26.5592 -59.0641,-44.558 -45.8944,-48.9944 -54.725,-126.7364 -64.4787,-188.7463 -4.5123,-62.5716 -1.7488,-86.6942 -20.9241,-143.8616 -5.4767,-16.328 -30.8304,-51.6274 -26.1907,-73.1928 7.9129,-36.7784 69.9778,-98.7425 85.6384,-116.9929 144.2353,-111.5526 51.3782,-45.1051 201.9683,-140.7218 1.7767,-1.1279 148.9845,-97.6622 164.275,-104.3353 59.2734,-25.868 151.3015,-40.845 212.8306,-53.3638 38.8715,-3.9841 77.743,-7.9682 116.6145,-11.9523 31.1422,-1.4473 62.3849,-1.4533 93.4266,-4.3415 181.16,-16.8566 -71.4627,-2.5255 121.8618,-20.9881 98.4486,-9.402 112.7532,-0.6861 221.7612,12.3854 169.6961,40.5635 335.9051,90.1565 504.3997,135.1412 41.4188,11.058 83.28975,20.347 124.93464,30.5205 31.14236,5.7243 62.81914,9.063 93.42712,17.1725 27.76355,7.3562 54.07464,19.3816 81.11197,29.0722 177.29953,72.7572 81.96757,29.9188 267.53827,122.8386 39.73082,19.894 83.36179,39.3652 117.601383,67.0036 31.28841,25.2561 71.656294,90.1507 93.3142615,122.0727 14.7962025,32.9612 33.2839175,64.5028 44.3886095,98.884 4.720468,14.6148 51.890334,239.4204 52.952122,250.4988 7.216874,75.2991 -9.068106,151.7936 -1.611653,227.2443 5.559517,14.9032 19.701547,28.3808 18.663857,45.248 -3.9248,63.7966 -43.188581,120.8749 -63.146014,179.6375 -13.355251,31.4515 -22.794651,64.8711 -40.06576,94.3546 -51.209102,87.4186 -93.703402,117.0115 -167.207006,186.7509 -110.66659,104.9988 -214.9103,217.2271 -336.85435,309.5985 -83.7116,77.9142 -130.79481,130.0403 -232.96716,188.4595 -202.7906,115.9502 -434.86169,159.8803 -659.70009,211.4529 -66.7067,20.1795 -56.1429,8.1634 -147.6885,7.289 -84.2598,-0.8046 -168.5547,-0.037 -252.7777,2.5815 -380.3964,11.8237 -382.7841,16.6712 -751.1251,47.3565 -71.2983,8.3523 -142.7412,15.5517 -213.8951,25.0576 -45.5946,6.0912 -90.333,19.494 -136.2787,21.7241 -69.2676,3.3621 -138.7618,-0.8736 -207.9871,-5.0146 -285.1705,-17.0593 -566.9147,-59.8736 -849.5366,-99.414 -234.5965,-32.8274 -469.1782,-67.0475 -701.1535,-114.7964 -108.7916,-9.0072 -35.1181,4.4252 -201.9855,-94.3549 -201.2643,-119.1416 -253.0555,-156.1549 -441.8865,-248.6157 -43.698,-21.3969 -87.2924,-43.4861 -133.0404,-60.0533 -9.7856,-3.5438 15.7432,13.6168 23.6148,20.4253 -98.884,-67.5341 -196.1366,-142.0561 -280.0511,-227.7885 -107.1853,-109.5076 -182.9258,-241.8532 -270.8957,-365.9526 -56.8071,-61.1521 -117.0686,-119.3136 -169.9755,-183.8698 -17.3813,-21.2085 -32.7673,-44.0624 -47.1601,-67.4024 -19.8475,-32.1852 -81.9169,-185.4356 -138.6978,-125.4924 6.4527,104.4472 23.6278,209.6979 48.6947,311.3667 2.9599,12.005 10.1891,22.8346 12.1737,35.0385 1.5809,9.7222 -1.1189,19.6678 -1.6782,29.5019 0.3852,33.4634 -0.6316,42.5704 4.4659,76.2907 7.6592,50.664 26.8166,31.2079 -5.0922,81.2467 -9.9237,29.9074 -22.6499,59.0272 -29.7714,89.7228 -21.993,94.7934 -32.5051,211.2857 -41.3229,307.0942 -6.2534,67.9453 -9.3305,184.7199 -30.8176,255.2409 -10.0587,33.0134 -28.3803,62.9193 -42.5707,94.379 -34.3212,78.3008 -73.4652,154.514 -105.4245,233.8083 -76.6149,190.0899 -112.2283,393.1817 -192.3735,581.8212 -22.5047,28.666 -91.109,114.646 -110.33,144.8869 -97.7344,153.7668 -131.024,335.5649 -199.0508,502.3646 -86.7148,163.0114 -42.577,83.1649 -123.0675,224.0793 -10.0306,17.5604 -38.608,34.3884 -30.0434,52.7085 15.2056,32.5262 56.46,44.3931 85.3832,65.6679 1.633,1.2013 -2.1112,-3.4618 -3.1668,-5.1927 1.2604,-13.2633 2.5206,-26.5266 3.7811,-39.7899 -5.4504,-70.8435 -2.0516,-67.5132 -22.1885,-140.9393 -7.0217,-25.6037 -18.1549,-50.0078 -24.4776,-75.793 -26.198,-106.8372 -4.8006,-48.3505 -18.6936,-142.0329 -2.0741,-13.9858 -6.8983,-27.4232 -10.3476,-41.1347 -21.8922,-77.5065 -5.8521,-5.7153 -9.829,-62.0295 -2.775,-39.2959 -30.6565,-78.0365 -52.7143,-107.9767 -11.4403,-16.5433 -22.2329,-33.5539 -34.3215,-49.6295 -17.1505,-22.8071 -62.9761,-73.6478 -76.0735,-99.4494 -32.866,-64.7452 -31.8558,-144.2136 -70.9147,-206.8545 -32.0783,-64.0172 -67.5923,-126.3965 -96.7044,-191.816 -71.2287,-160.0631 -112.01,-332.3066 -192.1912,-488.6095 -19.0736,-43.5194 -39.6431,-86.4137 -57.2212,-130.5584 -29.2341,-73.4171 -68.7882,-195.3058 -94.5055,-270.7769 -35.42,-103.9458 -71.9203,-207.0785 -86.1142,-316.6827 -34.481,-404.5569 18.5778,210.1162 -22.6602,-239.0622 -3.289,-35.8256 -8.7289,-71.6243 -8.4301,-107.5997 0.4122,-49.5953 142.9533,37.9659 -63.5403,-66.9493 -4.3754,-2.2233 -0.5225,9.802 -0.7837,14.7029 -5.0673,97.0449 -5.4152,194.4116 11.7383,290.4027 -0.5829,87.2783 -17.0662,143.0559 -36.2138,228.0856 -25.464,113.0782 -41.3581,228.5079 -78.032,338.9305 -5.9751,48.7598 -19.8085,177.1253 -33.1081,226.3322 -8.9387,33.0727 -25.3468,63.677 -36.7509,95.9824 -35.9264,101.7738 -54.5915,206.3099 -87.871,308.8047 -13.4197,34.7528 -24.8595,70.3363 -40.2593,104.258 -37.8904,83.4636 -65.7426,113.7703 -115.4538,194.6743 -134.5343,218.9512 -5.4679,13.3252 -119.2467,214.7234 -16.1311,28.5536 -34.5762,55.7366 -51.8644,83.6049 -55.6935,75.2004 -51.3842,76.1961 -117.7803,139.8104 -20.6547,19.7892 -44.2293,36.4373 -64.3734,56.7459 -68.3686,68.9261 -122.9733,152.0333 -202.2081,210.3843 -130.824,97.8564 -61.3177,47.254 -208.9544,151.2067 -33.4187,24.6203 -64.8473,51.8805 -98.42,76.2902 -92.4994,67.2534 -191.7451,126.1182 -275.3751,205.1286 -15.9134,16.1665 -29.495,35.0194 -47.7401,48.4994 -47.5552,35.1348 -106.6438,52.1028 -162.5201,66.9417 -154.5148,41.0334 -313.0823,65.9826 -465.9083,113.643 -30.668,4.5387 -61.381,8.7834 -92.005,13.616 -25.101,3.9614 -49.811,10.9683 -75.159,12.7646 -35.522,2.517 -71.231,-0.6522 -106.833,0.1317 -110.773,2.4392 -222.078,7.3121 -331.538,25.6792 -84.434,0.6096 -167.23,10.7249 -251.411,17.8713 -135.109,11.4702 -269.646,21.4825 -398.108,69.7452 -182.998,64.7068 -373.346,110.9109 -546.986,200.2118 -39.616,20.3734 -76.235,46.111 -114.205,69.4079 -36.811,22.5856 -73.423,45.4924 -110.135,68.2386 -159.047,83.2824 -340.159,159.1279 -423.346,329.5687 -5.7,19.0961 -14.787,37.4947 -17.099,57.2887 -9.484,81.2006 10.46,200.1205 24.295,280.6115 3.856,22.4332 11.536,44.2841 13.313,66.9769 1.256,16.042 -2.869,32.0543 -4.303,48.0814 -0.09,0.4813 -14.727,79.1459 -14.512,80.2598 12.706,65.6688 61.189,124.266 99.974,174.0106 57.643,73.9309 149.496,177.9293 211.749,249.6127 25.786,29.9118 53.516,58.2519 77.358,89.7354 24.822,32.778 63.528,116.2858 94.245,141.1786 188.788,152.9901 420.726,237.399 647.227,314.6486 47.088,9.3846 93.661,21.8904 141.265,28.1539 32.35,4.2563 65.244,1.6323 97.83,3.3044 252.117,12.9374 504.344,33.2414 756.701,5.5317 100.232,-10.1663 200.717,-18.0974 300.698,-30.4989 234.469,-29.0832 210.108,-36.1307 432.6265,-72.3419 348.3218,-56.6835 108.5638,-11.1244 469.7701,-61.757 60.8102,-8.5242 121.0998,-20.422 181.6499,-30.6331 z" />
    <path
       style="opacity:1;fill:none;fill-opacity:1;stroke:#000000;stroke-width:0.726222;stroke-linecap:round;stroke-dasharray:none;stroke-opacity:1"
       d="m -157.43988,79.767503 c 0,0 -0.006,0.450051 -0.94891,-0.07696 -0.9432,-0.527012 2.68637,-1.118232 2.58229,-0.06905 -0.10409,1.049188 -0.32808,1.352051 -2.04766,1.939465 -1.71956,0.587413 -2.96725,-1.54864 -2.96725,-1.54864 0,0 -0.51821,2.386144 -1.41963,3.194618 -0.90142,0.80848 -1.3201,-2.998913 -1.3201,-2.998913 0,0 -2.62406,4.73827 -5.31996,7.285525 -2.69591,2.547254 4.62231,2.411943 4.21785,0.275013 -0.40446,-2.13693 -2.33072,-0.774465 -2.33072,-0.774465 0,0 -0.40402,0.837793 1.11544,0.885145"
       id="path30" />
    <path
       style="fill:none;stroke:#000000;stroke-width:0.681075;stroke-linecap:round;stroke-dasharray:none"
       d="m -160.28244,85.610587 c 0.0767,-0.03464 0.14929,-0.08021 0.23001,-0.103923 0.12009,-0.03527 0.26739,-0.02973 0.39129,-0.05026 0.0511,0.0088 0.0816,-0.04099 0.1258,-0.04977 0.13352,-0.02652 0.27078,-0.02536 0.40908,-0.02536 0.16984,0 0.32409,-0.06949 0.4889,-0.100908 0.0407,-0.0078 0.0832,0.0049 0.12443,0 0.2534,-0.03029 0.28361,-0.04931 0.47072,-0.209986 0.066,-0.05665 0.1423,-0.08878 0.20483,-0.151073 0.0436,-0.04346 0.15163,-0.162886 0.13163,-0.23137 -0.0436,-0.149427 -0.23107,-0.222958 -0.34064,-0.311378 -0.0889,-0.07174 -0.0565,-0.07966 -0.15351,-0.127546 -0.11452,-0.05653 -0.56395,-0.211483 -0.63374,-0.226708 -0.10668,-0.02327 -0.53393,-0.01376 -0.67078,0 -0.33346,0.03354 -0.006,0.01809 -0.27211,0.05415 -0.0249,0.0034 -0.0521,-0.0093 -0.0754,0 -0.0218,0.0087 -0.0315,0.03502 -0.0498,0.04977 -0.17407,0.140776 -0.29292,0.301187 -0.39003,0.50824 -0.039,0.0831 -0.0636,0.172954 -0.1081,0.253244 -0.0369,0.06668 -0.0962,0.119049 -0.13455,0.184904 -0.0261,0.04474 -0.0362,0.09709 -0.0574,0.144366 -0.0265,0.05932 -0.0684,0.112479 -0.0855,0.175181 -0.0122,0.04491 0.01,0.09406 0,0.139601 -0.008,0.03676 -0.0401,0.06462 -0.0505,0.10071 -0.007,0.02392 0.005,0.05025 0,0.07466 -0.0165,0.08303 -0.0441,0.141263 -0.031,0.230594 0.0461,0.314387 0.33613,0.508713 0.59214,0.656008 0.31195,0.179484 0.43469,0.200164 0.78238,0.200164 0.0822,0 0.19422,0.01378 0.27745,0 0.0262,-0.0044 0.0493,-0.02114 0.0755,-0.02488 0.077,-0.01095 0.16575,0.0156 0.24129,0 0.0363,-0.0075 0.0649,-0.03639 0.0995,-0.04977 0.19592,-0.07577 0.0337,0.02675 0.29485,-0.09362 0.0565,-0.02607 0.10495,-0.06729 0.15992,-0.09653 0.10249,-0.05454 0.17665,-0.05824 0.27482,-0.135424 0.0712,-0.01206 0.0411,-0.102975 0.0827,-0.135809 0.0827,-0.06524 0.2654,-0.06759 0.2654,-0.199583"
       id="path2" />
    <path
       style="fill:none;stroke:#000000;stroke-width:0.681075;stroke-linecap:round;stroke-dasharray:none"
       d="m -156.70638,84.008971 c 0.26804,0.25503 0.28529,0.195499 0.37836,0.465466 0.0206,0.05985 0.0351,0.198368 0.0506,0.254217 0.0378,0.136191 0.0902,0.262645 0.10421,0.405773 0.0241,0.245296 -0.0305,0.0094 0,0.293882 0.081,0.756993 0.0728,0.28059 0.0728,0.692366 0,0.09197 0.02,0.26305 0,0.361056 -0.004,0.01905 -0.0251,0.03108 -0.0304,0.04977 -0.01,0.03402 0.0159,0.07451 0,0.106159 -0.008,0.01534 -0.0249,-0.02794 -0.0249,-0.04511"
       id="path3" />
    <path
       style="fill:none;stroke:#000000;stroke-width:0.681075;stroke-linecap:round;stroke-dasharray:none"
       d="m -155.97688,84.762094 c 0.0603,-0.325949 0.0454,-0.424423 0.18938,-0.689252 0.0604,-0.111104 0.29361,-0.570705 0.47751,-0.619067 0.0365,-0.0096 0.0756,0.0032 0.11326,0 0.0603,-0.0051 0.11944,-0.02021 0.17975,-0.02488 0.0807,-0.0063 0.14798,-0.01554 0.21504,0.0246 0.0417,0.02497 0.15502,0.104449 0.18092,0.130365 0.0424,0.04242 0.0971,0.177321 0.15602,0.206776 0.16716,0.08358 0.48365,0.199891 0.48365,0.416469"
       id="path4" />
    <path
       style="fill:none;stroke:#000000;stroke-width:0.681075;stroke-linecap:round;stroke-dasharray:none"
       d="m -151.43519,83.576852 c -0.40192,-0.04162 -0.72296,0.268857 -0.94036,0.565691 -0.17395,0.23751 0.0556,-0.07746 -0.0751,0.151074 -0.0225,0.0393 -0.0622,0.06783 -0.0809,0.109074 -0.0184,0.04062 -0.0142,0.08834 -0.0276,0.130853 -0.0143,0.04527 -0.0452,0.0849 -0.055,0.131339 -0.0178,0.08408 0,0.171875 0,0.25781 0,0.279143 0.0291,0.395766 0.1743,0.641425 0.0396,0.06703 0.0854,0.185909 0.13377,0.241967 0.0633,0.07338 0.19873,0.122171 0.27521,0.163811 0.15679,0.08534 0.28351,0.197523 0.4503,0.264031 0.15465,0.06167 0.41923,0.14614 0.57493,0.05289 0.0203,-0.01214 0.0316,-0.03557 0.0503,-0.05017 0.10081,-0.07899 0.0767,-0.03633 0.21241,-0.101488 0.0742,-0.03563 0.0915,-0.07812 0.15146,-0.126383 0.0379,-0.03055 0.0908,-0.04082 0.12531,-0.07515 0.0286,-0.0284 0.0249,-0.04404 0.0249,-0.07456"
       id="path5" />
    <path
       style="fill:none;stroke:#000000;stroke-width:0.681075;stroke-linecap:round;stroke-dasharray:none"
       id="path7"
       d="m -149.89086,83.306389 c 0.009,0.101347 0.0257,0.20197 0.0308,0.303651 8.5e-4,0.01656 0.003,0.03337 5.6e-4,0.04972 -0.004,0.02369 -0.0195,0.04389 -0.0294,0.06577 -0.0221,0.06053 5.7e-4,0.122304 -0.002,0.183786 -0.003,0.05763 -0.0148,0.114418 -0.0222,0.171629 -0.0166,0.145721 -0.001,0.291983 -8.5e-4,0.438086 0.0162,0.09922 0.0135,0.111908 0.0492,0.208383 0.0319,0.08608 0.0418,0.06696 0.0571,0.154635 0.003,0.01973 0.001,0.04004 0.003,0.05999 0.001,0.01752 0.004,0.03485 0.007,0.05228 0.006,0.01579 0.01,0.03256 0.0176,0.04742 0.0125,0.02338 0.0297,0.0358 0.0446,0.05632 0.0292,0.04032 0.0572,0.08226 0.0856,0.12321 0.11459,0.121002 0.25524,0.212935 0.35057,0.352361 0.0252,0.03694 0.0431,0.07846 0.0647,0.11762 0.0181,0.03283 0.0365,0.06558 0.0547,0.09838 0.10615,0.09668 0.10221,0.103622 0.2781,0.17873 0.0287,0.01223 0.0464,-0.02315 0.0664,-0.03024 0.0147,-0.0052 0.0674,0.0057 0.0768,0.0072 0.0657,0.0083 0.13424,0.0182 0.20063,0.01214 0.0281,-0.0025 0.0554,-0.01064 0.0831,-0.01534 0.10357,-0.01755 0.079,-0.01336 0.18131,-0.02143 0.0247,-0.0044 0.0504,-0.005 0.074,-0.01327 0.088,-0.03066 0.16623,-0.137131 0.23017,-0.203696 0.0818,-0.104888 0.17942,-0.199312 0.28811,-0.276305 0.0473,-0.0335 0.097,-0.0635 0.14437,-0.09692 0.0804,-0.05006 0.2044,-0.107492 0.26647,-0.180978 0.0168,-0.0199 0.0236,-0.04653 0.0374,-0.06862 0.0515,-0.08244 0.0445,-0.06797 0.11227,-0.129805 0.0819,-0.07707 0.0414,-0.03441 0.11704,-0.125577 0.0228,-0.02748 0.0473,-0.05365 0.0685,-0.08243 0.0673,-0.09157 0.0723,-0.115661 0.13129,-0.212468 0.0231,-0.038 0.0479,-0.07497 0.0719,-0.112448 0.0225,-0.03776 0.0429,-0.07694 0.0676,-0.113264 0.0935,-0.137102 0.0823,-0.08496 0.164,-0.232822 0.024,-0.0434 0.0416,-0.09 0.0631,-0.134693 0.0977,-0.203684 0.031,-0.05046 0.12083,-0.268815 0.0268,-0.05286 0.10423,-0.204064 0.12964,-0.258798 0.0336,-0.07231 0.0813,-0.148945 0.0316,-0.223373 -0.0663,-0.08326 0.0458,-0.0111 -0.19861,-0.117674 -0.0122,-0.0053 -0.0495,-0.01843 -0.0385,-0.01081 0.0344,0.02397 0.0735,0.04047 0.11023,0.06071 -0.50745,-0.278444 -0.0334,-0.02692 -0.0533,-0.03386 -0.0554,-0.01936 -0.0998,-0.06699 -0.15716,-0.07926 -0.0147,-0.0031 -0.0122,0.02771 -0.0146,0.04252 -0.008,0.05172 -0.007,0.155532 -0.007,0.201839 5.7e-4,0.04595 0.001,0.09191 0.002,0.137864 5.6e-4,0.04746 -9e-5,0.09497 0.002,0.142375 0.006,0.111893 0.0207,0.223178 0.0269,0.335052 0.008,0.151102 0.006,0.213654 0.006,0.364512 -0.0611,0.440186 0.039,0.878886 0.12947,1.307736 0.0171,0.100031 0.0386,0.199402 0.0512,0.300093 0.0244,0.19421 0.028,0.405784 0.0392,0.601073 0.005,0.0849 0.0126,0.169636 0.0172,0.254557 0.0128,0.237244 0.0103,0.260712 0.0119,0.493384 -0.007,0.13531 -0.0278,0.269426 -0.0378,0.404465 -0.0154,0.207265 8.5e-4,0.202215 -0.0393,0.407652 -0.0329,0.167714 -0.069,0.265333 -0.12056,0.427927 -0.0273,0.05774 -0.0509,0.117385 -0.0819,0.173239 -0.0626,0.11295 -0.17638,0.262028 -0.26245,0.36068 -0.0592,0.06789 -0.12369,0.131045 -0.18467,0.197367 -0.0346,0.04571 -0.0717,0.08966 -0.1038,0.137136 -0.0847,0.125092 -0.0772,0.135271 -0.1458,0.255622 -0.0129,0.02267 -0.0287,0.04357 -0.0419,0.06608 -0.009,0.01585 -0.0141,0.03436 -0.0253,0.04893 -0.0114,0.0148 -0.0275,0.02525 -0.0413,0.03786 -0.0439,0.01854 -0.0789,0.0815 -0.1303,0.08519 -0.006,5.66e-4 -0.009,-0.0075 -0.0148,-0.0081 -0.0122,-0.0014 -0.0237,0.0062 -0.0356,0.009 -0.008,8.49e-4 -0.0153,0.0014 -0.023,0.0023 0,0 0.139,0.09834 0.139,0.09834 v 0 c 0.008,-0.0014 0.0159,-0.0023 0.0239,-0.0036 0.0158,-0.0031 0.0373,5.67e-4 0.0522,-0.0035 0.0523,-0.01489 0.0881,-0.06391 0.13358,-0.09028 0.0147,-0.01427 0.0318,-0.02647 0.0442,-0.0428 0.0108,-0.01421 0.0156,-0.03221 0.0246,-0.04763 0.0134,-0.0229 0.0294,-0.04416 0.0426,-0.0672 0.0678,-0.119072 0.0607,-0.129766 0.14442,-0.253276 0.0319,-0.04701 0.0686,-0.0905 0.10297,-0.135746 0.0613,-0.06659 0.12589,-0.130128 0.18529,-0.198392 0.0871,-0.100047 0.20095,-0.249675 0.26443,-0.364084 0.0314,-0.05652 0.0553,-0.116822 0.083,-0.175235 0.0519,-0.163075 0.0886,-0.262161 0.12189,-0.430399 0.0419,-0.21114 0.0241,-0.196093 0.0397,-0.408323 0.01,-0.135596 0.0309,-0.270247 0.0386,-0.40605 -0.001,-0.22992 0.001,-0.260065 -0.0114,-0.49432 -0.005,-0.08483 -0.0125,-0.169446 -0.0173,-0.25426 -0.011,-0.191646 -0.0148,-0.412484 -0.0383,-0.602907 -0.0125,-0.100897 -0.034,-0.200469 -0.051,-0.300704 -0.0908,-0.427517 -0.19277,-0.865589 -0.13108,-1.30451 5.6e-4,-0.1482 0.003,-0.217316 -0.005,-0.365763 -0.006,-0.111576 -0.0213,-0.222521 -0.0273,-0.334098 -0.003,-0.04739 -0.001,-0.09491 -0.002,-0.142358 -5.7e-4,-0.04586 -0.001,-0.09171 -0.002,-0.137567 9e-5,-0.03868 -5.7e-4,-0.07738 5.6e-4,-0.116046 5.7e-4,-0.02729 0.002,-0.05457 0.004,-0.08179 5.6e-4,-0.0087 0.0112,-0.02049 0.004,-0.02595 -0.0424,-0.03365 -0.18338,-0.114563 -0.14022,-0.08191 0.0526,0.03975 0.11422,0.06601 0.16853,0.103325 0.0369,0.02533 -0.0774,-0.04486 -0.11608,-0.06729 0.0614,0.03454 0.12103,0.0723 0.1841,0.103606 0.15201,0.07545 -0.15586,-0.155965 -0.0551,-0.04093 0.006,0.0048 0.0133,0.0081 0.0173,0.01449 0.0354,0.05642 -0.0185,0.144521 -0.04,0.190874 -0.026,0.056 -0.10289,0.206056 -0.13021,0.259819 -0.0899,0.219077 -0.022,0.06266 -0.12044,0.268105 -0.0211,0.04402 -0.0383,0.08996 -0.0619,0.132689 -0.0787,0.142497 -0.0733,0.09984 -0.1643,0.233337 -0.0247,0.03619 -0.0449,0.07521 -0.0674,0.112811 -0.11775,0.184196 -0.21883,0.3834 -0.38646,0.529189 -0.0693,0.06478 -0.0623,0.05022 -0.11512,0.134594 -0.0127,0.02027 -0.0186,0.04499 -0.0341,0.06315 -0.0642,0.07475 -0.18463,0.126938 -0.2657,0.179744 -0.0477,0.0334 -0.0975,0.06368 -0.14479,0.09759 -0.10893,0.07806 -0.20683,0.173117 -0.28943,0.27843 -0.0978,0.101972 0.001,-0.002 -0.0841,0.08893 -0.0139,0.0148 -0.0593,0.06343 -0.0749,0.0737 -0.0574,0.03796 -0.0719,0.03311 -0.13842,0.04408 -0.0298,0.0025 -0.0597,0.0043 -0.0893,0.008 -0.0583,0.0072 -0.11555,0.02324 -0.17418,0.02748 -0.0664,0.0048 -0.13389,-0.0056 -0.1995,-0.01364 -0.0346,-0.003 -0.0513,-0.0088 -0.0838,0.0029 -0.009,0.0032 -0.0153,0.01245 -0.0245,0.01506 -0.0101,0.0029 -0.0388,-0.0068 -0.0316,8.49e-4 0.003,0.0028 0.21653,0.147912 0.0107,-0.0033 -0.0182,-0.03272 -0.037,-0.06519 -0.0548,-0.09815 -0.0216,-0.03993 -0.0385,-0.08259 -0.0635,-0.120498 -0.093,-0.141065 -0.23154,-0.235463 -0.35108,-0.351163 -0.0121,-0.01783 -0.0242,-0.03567 -0.0363,-0.05351 -0.0109,-0.01384 -0.0228,-0.02695 -0.0327,-0.04147 -0.006,-0.0093 -0.01,-0.02038 -0.0159,-0.02973 -0.0128,-0.01931 -0.034,-0.0321 -0.0467,-0.05148 -0.009,-0.0133 -0.013,-0.02904 -0.0194,-0.04357 -0.0105,-0.07162 -0.007,-0.0336 -0.008,-0.11416 -0.0137,-0.09377 -0.022,-0.0661 -0.0568,-0.15534 -0.0361,-0.09278 -0.0343,-0.108157 -0.0515,-0.203763 -5.6e-4,-0.145472 -0.0155,-0.290973 -1.3e-4,-0.436099 0.007,-0.05824 0.0205,-0.115922 0.0237,-0.174553 0.003,-0.05895 -0.0204,-0.118064 -0.002,-0.176421 0.0109,-0.02406 0.0277,-0.04623 0.0328,-0.07215 0.003,-0.01664 0.001,-0.03394 5.7e-4,-0.05088 -0.004,-0.101355 -0.0212,-0.201683 -0.0314,-0.302487 z" />
    <circle
       style="fill:none;fill-opacity:1;stroke:#000000;stroke-width:8.84915;stroke-linecap:round;stroke-dasharray:none;stroke-opacity:1"
       id="path29-4"
       cx="101.43565"
       cy="98.908012"
       r="73.837227" />
    <circle
       style="fill:none;fill-opacity:1;stroke:#000000;stroke-width:3.48827;stroke-linecap:round;stroke-dasharray:none;stroke-opacity:1"
       id="path29-8-7"
       cx="100.97282"
       cy="98.926025"
       r="83.428391" />
    <path
       style="fill:none;fill-opacity:1;stroke:#000000;stroke-width:3.71538;stroke-linecap:round;stroke-dasharray:none;stroke-opacity:1"
       d="m 103.00221,70.762109 c 0,0 -0.03,2.302481 -4.854696,-0.393746 -4.82541,-2.696213 13.743606,-5.72093 13.211126,-0.353252 -0.53254,5.367692 -1.67853,6.91714 -10.4759,9.922378 -8.797376,3.005216 -15.180526,-7.922901 -15.180526,-7.922901 0,0 -2.65127,12.207604 -7.2629,16.343789 -4.61167,4.136206 -6.75368,-15.342557 -6.75368,-15.342557 0,0 -13.42485,24.241185 -27.21716,37.27305 -13.79234,13.03183 23.64797,12.33957 21.5787,1.40697 -2.06919,-10.93262 -11.92406,-3.9622 -11.92406,-3.9622 0,0 -2.067,4.28619 5.70666,4.52843"
       id="path30-6" />
    <path
       style="fill:none;stroke:#000000;stroke-width:3.48442;stroke-linecap:round;stroke-dasharray:none"
       d="m 88.459564,100.65554 c 0.39239,-0.17721 0.76377,-0.41036 1.17673,-0.53165 0.61441,-0.180468 1.36799,-0.152128 2.00186,-0.257158 0.2611,0.045 0.41735,-0.20968 0.64361,-0.25465 0.68309,-0.13567 1.38532,-0.12981 2.09288,-0.12981 0.86891,0 1.65803,-0.35556 2.50119,-0.51627 0.20867,-0.0399 0.42584,0.0249 0.63661,0 1.2964,-0.15491 1.45097,-0.25221 2.40819,-1.074294 0.337476,-0.289841 0.728006,-0.454186 1.047916,-0.772882 0.22317,-0.222367 0.77576,-0.833354 0.67341,-1.183712 -0.22315,-0.764482 -1.18217,-1.140669 -1.742696,-1.593034 -0.4548,-0.367028 -0.28904,-0.407524 -0.78533,-0.652513 -0.58591,-0.289213 -2.88521,-1.081974 -3.24226,-1.159843 -0.54581,-0.119059 -2.73163,-0.07035 -3.43176,0 -1.70597,0.171574 -0.03,0.09257 -1.39209,0.277018 -0.12729,0.01745 -0.2666,-0.04748 -0.38592,0 -0.11124,0.04444 -0.16124,0.179173 -0.25459,0.254658 -0.89049,0.720203 -1.49855,1.540887 -1.99538,2.600175 -0.19919,0.425137 -0.3255,0.88483 -0.55305,1.295616 -0.18871,0.341122 -0.49174,0.609058 -0.68833,0.945964 -0.1333,0.228903 -0.18523,0.496727 -0.29355,0.738577 -0.13581,0.30348 -0.34996,0.57545 -0.43734,0.89623 -0.0624,0.22975 0.05,0.481258 0,0.714218 -0.0399,0.18806 -0.20517,0.33059 -0.2586,0.51526 -0.0349,0.1224 0.025,0.25711 0,0.38194 -0.0843,0.42481 -0.22565,0.72272 -0.15875,1.17974 0.23614,1.60842 1.7197,2.60262 3.02944,3.35617 1.59593,0.91824 2.22391,1.02405 4.00267,1.02405 0.42085,0 0.99361,0.0707 1.41945,0 0.13373,-0.0224 0.25212,-0.10829 0.38641,-0.1273 0.39389,-0.0562 0.84799,0.0799 1.23445,0 0.18571,-0.0385 0.3325,-0.18618 0.50932,-0.25467 1.00235,-0.38764 0.17222,0.13679 1.50846,-0.47895 0.28955,-0.1333 0.53693,-0.34428 0.81814,-0.49388 0.52435,-0.27903 0.90375,-0.29796 1.406046,-0.69285 0.36442,-0.0618 0.21016,-0.52681 0.42333,-0.6948 0.42284,-0.33378 1.35776,-0.34576 1.35776,-1.02107"
       id="path2-5" />
    <path
       style="fill:none;stroke:#000000;stroke-width:3.48442;stroke-linecap:round;stroke-dasharray:none"
       d="m 106.75478,92.46161 c 1.37134,1.304753 1.45956,1.000181 1.93572,2.381341 0.10536,0.306176 0.17922,1.014869 0.25859,1.300591 0.19321,0.696769 0.4613,1.3437 0.53314,2.07596 0.12324,1.25494 -0.15576,0.0479 0,1.50352 0.41436,3.872798 0.37243,1.435508 0.37243,3.542158 0,0.47052 0.10232,1.34578 0,1.84718 -0.0199,0.0974 -0.12827,0.15901 -0.15577,0.25465 -0.05,0.17403 0.081,0.38116 0,0.54311 -0.0399,0.0786 -0.1273,-0.14291 -0.1273,-0.23079"
       id="path3-6" />
    <path
       style="fill:none;stroke:#000000;stroke-width:3.48442;stroke-linecap:round;stroke-dasharray:none"
       d="m 110.48698,96.314629 c 0.30851,-1.667576 0.23264,-2.171385 0.96885,-3.526248 0.30902,-0.568411 1.50213,-2.919749 2.44299,-3.167155 0.18669,-0.04888 0.38689,0.01648 0.5794,0 0.30853,-0.02656 0.61109,-0.103407 0.91963,-0.127307 0.41337,-0.03198 0.75709,-0.07956 1.10015,0.125909 0.21317,0.127719 0.79308,0.534353 0.92558,0.666928 0.21716,0.217024 0.49673,0.907192 0.79827,1.05789 0.85512,0.427598 2.47433,1.022651 2.47433,2.130662"
       id="path4-9" />
    <path
       style="fill:none;stroke:#000000;stroke-width:3.48442;stroke-linecap:round;stroke-dasharray:none"
       d="m 133.72243,90.250878 c -2.05627,-0.212926 -3.69868,1.375469 -4.81093,2.894103 -0.88992,1.215103 0.28456,-0.396283 -0.3839,0.772894 -0.11488,0.201046 -0.31852,0.347018 -0.41386,0.558026 -0.0938,0.207778 -0.0728,0.451965 -0.14129,0.669443 -0.0728,0.231592 -0.23114,0.434329 -0.28156,0.671926 -0.0908,0.430199 0,0.879345 0,1.318996 0,1.428086 0.14877,2.024756 0.89177,3.281544 0.20269,0.34293 0.43682,0.95112 0.68435,1.23794 0.32399,0.37542 1.01668,0.62501 1.40803,0.83805 0.80211,0.43662 1.45041,1.01054 2.30373,1.3508 0.79119,0.31552 2.14479,0.74764 2.94137,0.27058 0.10384,-0.0622 0.16176,-0.18196 0.2571,-0.25666 0.51581,-0.40413 0.39289,-0.18586 1.08672,-0.51924 0.37943,-0.18226 0.46829,-0.39962 0.77492,-0.64655 0.19419,-0.1563 0.46428,-0.20883 0.6411,-0.38447 0.14627,-0.14528 0.1273,-0.22528 0.1273,-0.38146"
       id="path5-3" />
    <path
       style="fill:none;stroke:#000000;stroke-width:3.48442;stroke-linecap:round;stroke-dasharray:none"
       id="path7-7"
       d="m 141.62329,88.867193 c 0.045,0.518485 0.13135,1.033274 0.15776,1.553482 0.004,0.08455 0.015,0.17074 0.001,0.254365 -0.0199,0.12115 -0.0998,0.224535 -0.15026,0.336472 -0.11279,0.309678 0.004,0.625729 -0.01,0.940262 -0.01,0.294839 -0.0753,0.585374 -0.11335,0.878067 -0.0854,0.745513 -0.01,1.49379 -0.004,2.241255 0.0829,0.507624 0.0688,0.572507 0.25162,1.066095 0.16324,0.440366 0.21368,0.342563 0.29205,0.791114 0.02,0.100913 0.005,0.204829 0.015,0.306881 0.01,0.08942 0.025,0.178273 0.0349,0.267437 0.03,0.08097 0.05,0.166588 0.0904,0.242625 0.0639,0.119482 0.15178,0.183173 0.22816,0.288151 0.14977,0.206283 0.29254,0.420863 0.43832,0.630343 0.5863,0.61904 1.30582,1.08939 1.79353,1.802698 0.12925,0.18895 0.22016,0.40138 0.33098,0.60176 0.0928,0.16798 0.18672,0.33551 0.27957,0.50326 0.54306,0.49464 0.52295,0.53016 1.42281,0.91442 0.14678,0.0626 0.23712,-0.11836 0.33948,-0.15473 0.0753,-0.0263 0.34496,0.0289 0.3929,0.0369 0.33596,0.0424 0.68673,0.0932 1.02641,0.0621 0.14379,-0.0126 0.28307,-0.0544 0.42534,-0.0786 0.52988,-0.0897 0.40387,-0.0684 0.92762,-0.10957 0.12632,-0.0224 0.25761,-0.0256 0.37891,-0.0679 0.44982,-0.15686 0.85045,-0.70156 1.17754,-1.04211 0.41835,-0.53662 0.91792,-1.0197 1.47402,-1.413578 0.24213,-0.17139 0.49624,-0.3249 0.73857,-0.49585 0.41136,-0.25614 1.04574,-0.54992 1.3633,-0.92588 0.0859,-0.10178 0.12074,-0.238027 0.1917,-0.351059 0.2636,-0.421745 0.22765,-0.347713 0.57437,-0.664078 0.41885,-0.394289 0.21217,-0.176029 0.59877,-0.642464 0.11683,-0.14064 0.24213,-0.274483 0.35047,-0.421702 0.34446,-0.468483 0.36992,-0.591725 0.67165,-1.087004 0.11836,-0.194402 0.24514,-0.383503 0.36794,-0.575293 0.1153,-0.193145 0.21916,-0.393628 0.34597,-0.579456 0.47825,-0.701419 0.42135,-0.434632 0.839,-1.191115 0.12283,-0.222064 0.21317,-0.460441 0.323,-0.689116 0.50003,-1.042043 0.15876,-0.258137 0.61815,-1.375253 0.13734,-0.270428 0.53321,-1.044004 0.66322,-1.324004 0.17173,-0.369987 0.41586,-0.762032 0.16174,-1.142805 -0.33896,-0.42595 0.23415,-0.05669 -1.01606,-0.602023 -0.0624,-0.02753 -0.25312,-0.09419 -0.19721,-0.05528 0.17623,0.122549 0.37592,0.207084 0.56393,0.310566 -2.59615,-1.424527 -0.17124,-0.137626 -0.27258,-0.173178 -0.28307,-0.09907 -0.51052,-0.342727 -0.80405,-0.405464 -0.0749,-0.01593 -0.0624,0.14182 -0.0749,0.2175 -0.045,0.264597 -0.0349,0.795721 -0.0349,1.032613 0.003,0.235103 0.005,0.470239 0.01,0.705321 0.003,0.242821 -5e-4,0.485902 0.01,0.728409 0.03,0.572432 0.1058,1.141785 0.13736,1.714131 0.045,0.773023 0.03,1.093063 0.03,1.86485 -0.31251,2.252008 0.19919,4.496427 0.66238,6.690432 0.0874,0.51178 0.19769,1.02016 0.26209,1.53528 0.12478,0.9936 0.14328,2.07602 0.20069,3.07513 0.025,0.43437 0.0644,0.86785 0.0879,1.30232 0.0655,1.21375 0.0525,1.3338 0.0608,2.52417 -0.0349,0.69225 -0.14228,1.3784 -0.19319,2.06926 -0.0789,1.06037 0.004,1.03454 -0.2012,2.08555 -0.16824,0.85803 -0.35296,1.35747 -0.6168,2.18931 -0.13979,0.29543 -0.26059,0.60054 -0.41885,0.88628 -0.32049,0.57787 -0.90241,1.34055 -1.34272,1.84525 -0.30304,0.34737 -0.63284,0.67043 -0.9448,1.00975 -0.17723,0.23387 -0.36643,0.45872 -0.53107,0.70159 -0.43334,0.63998 -0.3949,0.69204 -0.74585,1.30777 -0.0659,0.11599 -0.14679,0.22291 -0.21467,0.33807 -0.045,0.0811 -0.0724,0.17578 -0.12926,0.25031 -0.0584,0.0758 -0.14078,0.12912 -0.21117,0.19371 -0.22465,0.0949 -0.40338,0.41694 -0.66662,0.43582 -0.03,0.001 -0.045,-0.0385 -0.0759,-0.0414 -0.0624,-0.007 -0.1213,0.0314 -0.18221,0.046 -0.0399,0.004 -0.0785,0.009 -0.11781,0.0126 0,0 0.71117,0.50312 0.71117,0.50312 v 0 c 0.0399,-0.005 0.0814,-0.0126 0.12227,-0.0185 0.0814,-0.0155 0.19121,0.003 0.26709,-0.018 0.26759,-0.0762 0.4508,-0.32696 0.68335,-0.4619 0.0753,-0.0731 0.16275,-0.13539 0.22615,-0.21901 0.0554,-0.0727 0.0799,-0.16475 0.12577,-0.24367 0.0684,-0.11711 0.15026,-0.22595 0.21767,-0.34383 0.34696,-0.60919 0.31051,-0.66388 0.73885,-1.29576 0.16325,-0.24049 0.35096,-0.463 0.5268,-0.69447 0.31351,-0.34062 0.64409,-0.66574 0.94793,-1.015 0.44531,-0.51185 1.02811,-1.27734 1.35285,-1.86266 0.16026,-0.28916 0.28308,-0.59768 0.42485,-0.8965 0.26559,-0.83431 0.45282,-1.34123 0.62359,-2.20196 0.21418,-1.08019 0.12325,-1.00321 0.20319,-2.08898 0.0508,-0.6937 0.15824,-1.38258 0.19769,-2.07738 -0.005,-1.17627 0.005,-1.3305 -0.0584,-2.52895 -0.025,-0.43398 -0.0638,-0.8669 -0.0888,-1.30078 -0.0559,-0.98048 -0.076,-2.11031 -0.1962,-3.08452 -0.0638,-0.51619 -0.17372,-1.0256 -0.26059,-1.53843 -0.46429,-2.187198 -0.98617,-4.428374 -0.67061,-6.673889 0.003,-0.758206 0.015,-1.111825 -0.025,-1.871278 -0.03,-0.570828 -0.10929,-1.138404 -0.13979,-1.709253 -0.015,-0.242485 -0.01,-0.485555 -0.01,-0.728311 -0.004,-0.234594 -0.01,-0.469178 -0.01,-0.703782 4.8e-4,-0.197904 -0.003,-0.395839 0.001,-0.59371 0.003,-0.139642 0.01,-0.279219 0.025,-0.418449 0.004,-0.04498 0.0573,-0.104924 0.0199,-0.132749 -0.21666,-0.172181 -0.93816,-0.586089 -0.7173,-0.419045 0.26909,0.203322 0.58436,0.337675 0.86218,0.528608 0.1887,0.12953 -0.39589,-0.229499 -0.59389,-0.344276 0.31402,0.17668 0.6192,0.369868 0.9419,0.53004 0.77765,0.386018 -0.79742,-0.797921 -0.28206,-0.209426 0.03,0.02439 0.068,0.04151 0.0888,0.07403 0.18121,0.28865 -0.095,0.739389 -0.20469,0.976509 -0.13274,0.286471 -0.52634,1.054194 -0.66617,1.329251 -0.45979,1.120822 -0.11236,0.32056 -0.61609,1.371642 -0.10785,0.225197 -0.19621,0.460246 -0.31702,0.678841 -0.40238,0.729038 -0.37492,0.510768 -0.8406,1.19376 -0.12632,0.185167 -0.22965,0.38475 -0.34447,0.577147 -0.60243,0.942365 -1.11958,1.961494 -1.97715,2.707354 -0.35445,0.331399 -0.31901,0.256901 -0.58894,0.688585 -0.0649,0.103732 -0.095,0.230193 -0.17474,0.323053 -0.32849,0.38241 -0.94454,0.64943 -1.3593,0.91958 -0.24363,0.17089 -0.49872,0.32581 -0.74071,0.49926 -0.55734,0.39939 -1.05821,0.885658 -1.48076,1.424458 -0.50023,0.52169 0.005,-0.01 -0.43034,0.45494 -0.0713,0.0758 -0.30352,0.3245 -0.3829,0.37706 -0.29405,0.19422 -0.36793,0.16944 -0.70816,0.22551 -0.15227,0.014 -0.30504,0.0219 -0.45681,0.0411 -0.29853,0.0369 -0.59124,0.11878 -0.89111,0.14062 -0.33948,0.0244 -0.68499,-0.0285 -1.02067,-0.0697 -0.17725,-0.0155 -0.26212,-0.045 -0.42836,0.015 -0.045,0.0165 -0.0785,0.0636 -0.12576,0.0771 -0.0519,0.0145 -0.19869,-0.0349 -0.16174,0.004 0.015,0.014 1.10778,0.75672 0.0544,-0.0169 -0.0934,-0.16739 -0.18922,-0.33354 -0.28057,-0.50215 -0.11027,-0.20428 -0.19669,-0.42254 -0.32448,-0.61648 -0.47578,-0.72171 -1.18459,-1.204638 -1.7962,-1.796578 -0.0618,-0.0912 -0.1238,-0.18246 -0.18571,-0.27372 -0.0559,-0.0708 -0.11627,-0.13777 -0.16724,-0.21216 -0.0349,-0.0475 -0.05,-0.10417 -0.0814,-0.15213 -0.0655,-0.0989 -0.17424,-0.16419 -0.23913,-0.263396 -0.045,-0.06796 -0.0663,-0.148573 -0.0994,-0.222855 -0.0539,-0.366388 -0.0349,-0.171932 -0.045,-0.584051 -0.0699,-0.479713 -0.11279,-0.338174 -0.29056,-0.794735 -0.1847,-0.474662 -0.17523,-0.553333 -0.26308,-1.042465 -0.001,-0.744234 -0.0795,-1.48862 -6.6e-4,-2.231088 0.0399,-0.297938 0.10481,-0.59307 0.1213,-0.893024 0.015,-0.301581 -0.10384,-0.604029 -0.01,-0.902596 0.0559,-0.123112 0.14177,-0.236491 0.16772,-0.369077 0.015,-0.08498 0.005,-0.173645 0.001,-0.260304 -0.025,-0.51854 -0.10829,-1.031822 -0.16076,-1.547532 z" />
    <path
       style="fill:none;fill-opacity:1;stroke:#000000;stroke-width:3.50077;stroke-linecap:round;stroke-dasharray:none;stroke-opacity:1"
       d="m 407.48416,-88.815108 c 0,0 -0.0283,2.169483 -4.5743,-0.371 -4.54669,-2.540486 12.94976,-5.390488 12.44803,-0.332851 -0.50175,5.057644 -1.58156,6.517607 -9.87079,9.349247 -8.28924,2.831637 -14.30369,-7.465267 -14.30369,-7.465267 0,0 -2.49813,11.502487 -6.84339,15.39976 -4.34531,3.897302 -6.36359,-14.456356 -6.36359,-14.456356 0,0 -12.64942,22.840999 -25.64508,35.120111 -12.99568,12.27912 22.28205,11.62687 20.3323,1.3257 -1.94968,-10.301123 -11.23531,-3.73332 -11.23531,-3.73332 0,0 -1.94762,4.03862 5.37703,4.26688"
       id="path30-6-8" />
    <path
       style="fill:none;stroke:#000000;stroke-width:3.28316;stroke-linecap:round;stroke-dasharray:none"
       d="m 393.78148,-60.648325 c 0.36974,-0.166978 0.71966,-0.386673 1.10878,-0.500952 0.57891,-0.170049 1.28897,-0.143331 1.88622,-0.242303 0.24602,0.04238 0.39325,-0.197564 0.60644,-0.239948 0.64364,-0.127855 1.3053,-0.122293 1.97199,-0.122293 0.81872,0 1.56227,-0.335015 2.35671,-0.486444 0.19663,-0.03763 0.40125,0.02353 0.59985,0 1.22152,-0.145959 1.36715,-0.237637 2.2691,-1.012231 0.31797,-0.273115 0.68596,-0.427966 0.9874,-0.728248 0.21026,-0.20952 0.73094,-0.785211 0.63452,-1.115347 -0.21028,-0.720318 -1.11391,-1.07478 -1.64207,-1.501011 -0.42853,-0.345836 -0.27235,-0.383988 -0.73997,-0.614833 -0.55206,-0.272498 -2.71856,-1.019465 -3.05497,-1.092852 -0.5143,-0.112177 -2.57386,-0.06635 -3.23354,0 -1.60743,0.161669 -0.0283,0.08723 -1.3117,0.26102 -0.11993,0.01653 -0.25119,-0.04468 -0.36361,0 -0.10491,0.04184 -0.15195,0.168826 -0.23989,0.23995 -0.83905,0.678598 -1.41199,1.45189 -1.88013,2.449987 -0.18768,0.400583 -0.30669,0.833724 -0.5211,1.220783 -0.17782,0.321422 -0.46334,0.573868 -0.64858,0.891331 -0.1256,0.215672 -0.17452,0.468038 -0.27659,0.695916 -0.12794,0.285952 -0.32974,0.542221 -0.41207,0.844468 -0.0588,0.216471 0.0471,0.453457 0,0.672953 -0.0376,0.177187 -0.19333,0.311498 -0.24367,0.485493 -0.0329,0.115292 0.0235,0.242254 0,0.359896 -0.0795,0.400264 -0.21261,0.680972 -0.14957,1.111586 0.22249,1.51551 1.62036,2.45228 2.85444,3.16231 1.50376,0.86521 2.09546,0.96489 3.77148,0.96489 0.39653,0 0.93622,0.0666 1.33747,0 0.12606,-0.0212 0.23755,-0.10201 0.36408,-0.11993 0.37115,-0.0528 0.79901,0.0752 1.16315,0 0.17498,-0.0362 0.31328,-0.17543 0.47989,-0.23995 0.94447,-0.36526 0.1623,0.12894 1.42134,-0.45129 0.27284,-0.12566 0.50592,-0.3244 0.77089,-0.46536 0.49406,-0.26291 0.85155,-0.28073 1.32481,-0.65281 0.34339,-0.0582 0.19804,-0.49639 0.39889,-0.65468 0.39843,-0.31449 1.27935,-0.32579 1.27935,-0.9621"
       id="path2-5-7" />
    <path
       style="fill:none;stroke:#000000;stroke-width:3.28316;stroke-linecap:round;stroke-dasharray:none"
       d="m 411.01997,-68.368977 c 1.29213,1.229388 1.37526,0.942404 1.82389,2.243784 0.0994,0.288494 0.16878,0.956252 0.24368,1.225466 0.182,0.656528 0.43463,1.266089 0.50235,1.956056 0.11609,1.182472 -0.14681,0.04519 0,1.416675 0.39042,3.649102 0.3509,1.352582 0.3509,3.337562 0,0.44334 0.0965,1.26807 0,1.74049 -0.0194,0.0918 -0.12095,0.14983 -0.14682,0.23994 -0.047,0.16397 0.0762,0.35914 0,0.51173 -0.0378,0.074 -0.11997,-0.13465 -0.11997,-0.21746"
       id="path3-6-1" />
    <path
       style="fill:none;stroke:#000000;stroke-width:3.28316;stroke-linecap:round;stroke-dasharray:none"
       d="m 414.53659,-64.738506 c 0.29071,-1.571261 0.21922,-2.045967 0.9129,-3.322582 0.29116,-0.535586 1.41537,-2.751104 2.30187,-2.984223 0.17598,-0.04606 0.36456,0.01555 0.54593,0 0.29071,-0.02489 0.57582,-0.09743 0.86651,-0.119939 0.3895,-0.03008 0.71336,-0.07495 1.03662,0.118578 0.20086,0.120387 0.74727,0.503501 0.87211,0.628428 0.20462,0.204482 0.46804,0.854775 0.75216,0.996775 0.80574,0.402896 2.33141,0.963573 2.33141,2.007599"
       id="path4-9-7" />
    <path
       style="fill:none;stroke:#000000;stroke-width:3.28316;stroke-linecap:round;stroke-dasharray:none"
       d="m 436.42994,-70.452028 c -1.93749,-0.200619 -3.48504,1.296039 -4.53306,2.726946 -0.83851,1.144915 0.26814,-0.373395 -0.36172,0.728248 -0.10831,0.189419 -0.30013,0.326969 -0.38997,0.525796 -0.0883,0.195777 -0.0686,0.425848 -0.13299,0.630771 -0.0686,0.218221 -0.21778,0.409244 -0.26531,0.633123 -0.0858,0.405335 0,0.828538 0,1.242802 0,1.345611 0.14021,1.907817 0.84026,3.092004 0.19096,0.323125 0.4116,0.896191 0.64484,1.166436 0.30528,0.353735 0.95794,0.588908 1.3267,0.789638 0.75577,0.4114 1.36664,0.95218 2.17067,1.27278 0.74548,0.29729 2.0209,0.70447 2.77146,0.25496 0.0979,-0.0586 0.15246,-0.17147 0.24226,-0.24184 0.48601,-0.38078 0.3702,-0.17513 1.02395,-0.48926 0.35749,-0.17172 0.44125,-0.37653 0.73017,-0.60919 0.18298,-0.14728 0.43744,-0.19677 0.60405,-0.36225 0.13787,-0.1369 0.11998,-0.212292 0.11998,-0.359439"
       id="path5-3-2" />
    <path
       style="fill:none;stroke:#000000;stroke-width:3.28316;stroke-linecap:round;stroke-dasharray:none"
       id="path7-7-7"
       d="m 443.87443,-71.755791 c 0.0424,0.488538 0.12367,0.973599 0.14877,1.463759 0.005,0.07976 0.0136,0.160872 9.8e-4,0.239666 -0.0194,0.114163 -0.0941,0.211577 -0.14157,0.317039 -0.10613,0.291787 0.005,0.58959 -0.009,0.885952 -0.009,0.27782 -0.071,0.551562 -0.10671,0.827352 -0.0805,0.702452 -0.009,1.407504 -0.005,2.1118 0.0782,0.478301 0.0649,0.539447 0.23709,1.004519 0.15382,0.414929 0.20134,0.322784 0.27518,0.745417 0.0195,0.09508 0.006,0.192997 0.0136,0.28916 0.009,0.08437 0.0235,0.167969 0.0331,0.251983 0.0281,0.07625 0.0471,0.156965 0.0852,0.228622 0.0601,0.112602 0.14292,0.172579 0.21496,0.271508 0.14098,0.194357 0.27565,0.396543 0.41301,0.593928 0.55242,0.583287 1.23038,1.026469 1.68992,1.69857 0.12194,0.178044 0.20745,0.378196 0.31188,0.566986 0.0876,0.158284 0.17597,0.316148 0.26343,0.474227 0.51168,0.466057 0.49274,0.499529 1.34062,0.861579 0.13846,0.059 0.22343,-0.1116 0.31989,-0.14578 0.071,-0.0249 0.32503,0.0272 0.3702,0.0348 0.31656,0.04 0.64704,0.0878 0.96712,0.0585 0.13553,-0.0123 0.26671,-0.0512 0.40075,-0.074 0.49931,-0.0845 0.38056,-0.0644 0.87405,-0.10325 0.11901,-0.0212 0.24273,-0.024 0.35703,-0.0639 0.42382,-0.147814 0.80132,-0.661053 1.10952,-0.981936 0.3942,-0.505614 0.86491,-0.960798 1.38889,-1.331921 0.22814,-0.161495 0.46757,-0.306136 0.6959,-0.467198 0.38759,-0.241353 0.98532,-0.518162 1.28455,-0.872407 0.0809,-0.09597 0.11371,-0.224289 0.18065,-0.330782 0.24835,-0.397397 0.21447,-0.327636 0.54118,-0.625723 0.39464,-0.371525 0.19992,-0.165869 0.56418,-0.605369 0.11004,-0.132501 0.22816,-0.25862 0.33024,-0.397338 0.32457,-0.441422 0.34854,-0.55755 0.63285,-1.024209 0.11143,-0.183176 0.23097,-0.36136 0.34668,-0.542065 0.10866,-0.18199 0.2065,-0.370905 0.32599,-0.545994 0.45061,-0.660908 0.39701,-0.40952 0.79053,-1.122314 0.1157,-0.209234 0.20087,-0.433844 0.30436,-0.649303 0.47112,-0.98186 0.14953,-0.243241 0.58243,-1.295824 0.12951,-0.254816 0.50243,-0.983703 0.62491,-1.247536 0.1618,-0.348611 0.39184,-0.718005 0.15246,-1.0768 -0.31939,-0.40134 0.22061,-0.05344 -0.95739,-0.567236 -0.0587,-0.02587 -0.23851,-0.08883 -0.18571,-0.05202 0.16607,0.115527 0.35419,0.195121 0.53137,0.292635 -2.44621,-1.342252 -0.16141,-0.129681 -0.25686,-0.163187 -0.26672,-0.09336 -0.48103,-0.322926 -0.75761,-0.382054 -0.0704,-0.01498 -0.0587,0.133631 -0.0704,0.20495 -0.0424,0.24931 -0.0331,0.749748 -0.0331,0.972973 9.7e-4,0.221509 0.006,0.443066 0.009,0.664569 9.8e-4,0.228804 -4.9e-4,0.457836 0.009,0.686338 0.0281,0.539379 0.0997,1.075838 0.12951,1.615129 0.0424,0.728377 0.0281,1.029914 0.0281,1.757134 -0.29447,2.121929 0.18765,4.236709 0.6241,6.303988 0.0823,0.482211 0.18629,0.961238 0.24698,1.446602 0.11765,0.936198 0.13495,1.956098 0.18901,2.897508 0.0235,0.40928 0.0606,0.81771 0.0828,1.22709 0.0617,1.14364 0.0494,1.25676 0.0575,2.37837 -0.0329,0.65226 -0.13417,1.29877 -0.18202,1.94973 -0.0742,0.99913 0.005,0.9748 -0.18958,1.96511 -0.15849,0.80847 -0.33258,1.27906 -0.58119,2.06285 -0.13165,0.27837 -0.24554,0.56584 -0.39466,0.83509 -0.30201,0.54449 -0.8503,1.26313 -1.26517,1.73866 -0.28554,0.32729 -0.59628,0.6317 -0.89022,0.9514 -0.16702,0.2204 -0.34527,0.43225 -0.50041,0.66108 -0.40829,0.60303 -0.37206,0.65208 -0.70275,1.23225 -0.062,0.10923 -0.13826,0.21002 -0.20228,0.31855 -0.0424,0.0764 -0.0682,0.16561 -0.12192,0.23584 -0.055,0.0714 -0.13262,0.12174 -0.199,0.18252 -0.21166,0.0894 -0.38005,0.39288 -0.62808,0.41066 -0.0281,9.8e-4 -0.0424,-0.0363 -0.0715,-0.039 -0.0587,-0.008 -0.11429,0.0296 -0.17171,0.0432 -0.0378,0.005 -0.0739,0.008 -0.11108,0.0115 0,0 0.67007,0.47406 0.67007,0.47406 v 0 c 0.0378,-0.006 0.0768,-0.0115 0.11512,-0.0176 0.0768,-0.0145 0.18026,0.002 0.25167,-0.017 0.25213,-0.0719 0.42476,-0.30806 0.64385,-0.43519 0.071,-0.0687 0.15343,-0.12757 0.2131,-0.20637 0.0524,-0.0686 0.0753,-0.15525 0.1186,-0.2296 0.0645,-0.11039 0.14157,-0.2129 0.2051,-0.32397 0.32691,-0.57402 0.29257,-0.62553 0.69619,-1.22094 0.1538,-0.22659 0.33066,-0.43624 0.49634,-0.65434 0.29541,-0.32095 0.6069,-0.6273 0.8932,-0.95638 0.41959,-0.48229 0.96872,-1.20355 1.27472,-1.75506 0.15109,-0.27247 0.26669,-0.56315 0.40029,-0.84475 0.25024,-0.7861 0.42665,-1.26373 0.58759,-2.07475 0.20177,-1.0178 0.11627,-0.94526 0.19153,-1.96832 0.0478,-0.65364 0.14914,-1.30273 0.18628,-1.95737 -0.006,-1.10835 0.006,-1.25367 -0.055,-2.3829 -0.0234,-0.40891 -0.0601,-0.81682 -0.0836,-1.22564 -0.053,-0.92385 -0.0716,-1.98842 -0.18493,-2.90635 -0.0601,-0.486366 -0.16373,-0.966369 -0.24553,-1.449568 -0.43746,-2.060859 -0.92921,-4.172598 -0.63189,-6.288403 9.8e-4,-0.71442 0.0136,-1.047602 -0.0234,-1.763188 -0.0281,-0.53786 -0.10304,-1.072663 -0.13164,-1.610534 -0.0136,-0.228472 -0.009,-0.457504 -0.009,-0.686241 -0.005,-0.221045 -0.009,-0.442083 -0.009,-0.663138 4.5e-4,-0.186463 -9.8e-4,-0.372974 9.7e-4,-0.559412 9.8e-4,-0.131568 0.009,-0.263092 0.0233,-0.394284 0.005,-0.04236 0.054,-0.09884 0.0194,-0.125132 -0.20414,-0.162235 -0.88394,-0.552244 -0.67586,-0.39485 0.25354,0.191595 0.5506,0.318174 0.81238,0.498072 0.17775,0.122118 -0.37303,-0.21624 -0.55959,-0.324384 0.29589,0.166473 0.58344,0.348515 0.88749,0.49943 0.73275,0.363709 -0.75135,-0.75183 -0.26576,-0.197329 0.0281,0.02304 0.064,0.03905 0.0836,0.06976 0.17073,0.271983 -0.0895,0.696673 -0.1929,0.92011 -0.12524,0.269912 -0.49596,0.993304 -0.62771,1.252463 -0.43323,1.056091 -0.10579,0.302044 -0.58049,1.292414 -0.10154,0.212193 -0.18495,0.43366 -0.29873,0.639628 -0.37913,0.68692 -0.35324,0.481272 -0.79204,1.124813 -0.119,0.174465 -0.21638,0.362538 -0.32458,0.543819 -0.56761,0.887912 -1.05489,1.84818 -1.86294,2.550966 -0.33399,0.312251 -0.30058,0.242067 -0.55492,0.648814 -0.0612,0.09781 -0.0895,0.216908 -0.16472,0.304399 -0.30949,0.360321 -0.88997,0.611914 -1.28078,0.866467 -0.22955,0.161009 -0.46992,0.306977 -0.69792,0.470411 -0.52515,0.37632 -0.99711,0.834503 -1.39523,1.342185 -0.47133,0.49156 0.006,-0.0093 -0.40549,0.428662 -0.0671,0.07147 -0.286,0.305751 -0.36079,0.355284 -0.27707,0.182978 -0.34668,0.15967 -0.66726,0.212484 -0.1435,0.01279 -0.28739,0.02069 -0.4304,0.03865 -0.28129,0.03484 -0.55708,0.11198 -0.83965,0.132496 -0.31987,0.02303 -0.64542,-0.02694 -0.9617,-0.06569 -0.16704,-0.01454 -0.24698,-0.04236 -0.40361,0.01396 -0.0424,0.01552 -0.074,0.05993 -0.11862,0.07262 -0.0488,0.01357 -0.18726,-0.03289 -0.15246,0.0039 0.0136,0.01298 1.0438,0.713006 0.0513,-0.01591 -0.0878,-0.157717 -0.17831,-0.314274 -0.26437,-0.473133 -0.10406,-0.192484 -0.18531,-0.398131 -0.30574,-0.580872 -0.44829,-0.680017 -1.11615,-1.135053 -1.69244,-1.692804 -0.0582,-0.08595 -0.11668,-0.171918 -0.17501,-0.257914 -0.0527,-0.06665 -0.10946,-0.129837 -0.1575,-0.199914 -0.0329,-0.04468 -0.047,-0.09813 -0.0768,-0.143334 -0.0617,-0.0931 -0.16412,-0.154707 -0.22532,-0.248181 -0.0424,-0.0641 -0.0624,-0.139989 -0.0935,-0.20998 -0.0508,-0.345226 -0.0329,-0.162 -0.0424,-0.550326 -0.066,-0.451998 -0.10613,-0.318638 -0.27377,-0.748819 -0.17402,-0.447253 -0.16509,-0.521366 -0.24791,-0.982253 -9.8e-4,-0.701256 -0.0747,-1.402652 -6.1e-4,-2.102222 0.0378,-0.28073 0.0988,-0.558814 0.11428,-0.841445 0.0136,-0.284171 -0.0978,-0.569135 -0.009,-0.850464 0.0527,-0.115991 0.13358,-0.222829 0.15809,-0.347757 0.0136,-0.08017 0.006,-0.163594 9.8e-4,-0.24527 -0.0235,-0.488583 -0.10212,-0.972218 -0.15149,-1.458147 z" />
    <path
       style="fill:none;fill-opacity:1;stroke:#000000;stroke-width:3.13083;stroke-linecap:round;stroke-dasharray:none;stroke-opacity:1"
       d="m 224.81605,231.11163 c 0,0 -0.0253,1.94022 -4.09091,-0.3318 -4.06622,-2.27201 11.58128,-4.82084 11.13259,-0.29767 -0.44875,4.52317 -1.41443,5.82885 -8.82771,8.36125 -7.41326,2.5324 -12.79213,-6.67637 -12.79213,-6.67637 0,0 -2.23414,10.28695 -6.12021,13.77237 -3.88612,3.48545 -5.69111,-12.92866 -5.69111,-12.92866 0,0 -11.31267,20.42725 -22.93501,31.40878 -11.62234,10.9815 19.92737,10.39816 18.18367,1.18559 -1.74365,-9.21253 -10.04801,-3.3388 -10.04801,-3.3388 0,0 -1.7418,3.61183 4.80881,3.81597"
       id="path30-6-6" />
    <path
       style="fill:none;stroke:#000000;stroke-width:2.9362;stroke-linecap:round;stroke-dasharray:none"
       d="m 212.56141,256.30186 c 0.33066,-0.14934 0.64361,-0.34582 0.99159,-0.44801 0.51774,-0.15209 1.15277,-0.12819 1.68691,-0.2167 0.22001,0.0378 0.35169,-0.17669 0.54235,-0.21461 0.57562,-0.11433 1.16735,-0.10943 1.76359,-0.10943 0.7322,0 1.39718,-0.2996 2.10767,-0.43504 0.17585,-0.0337 0.35884,0.0211 0.53646,0 1.09243,-0.13053 1.22268,-0.21252 2.0293,-0.90527 0.28439,-0.24424 0.61349,-0.38273 0.88306,-0.65129 0.18806,-0.18736 0.65372,-0.70223 0.56747,-0.99748 -0.18806,-0.6442 -0.99619,-0.9612 -1.46853,-1.34238 -0.38324,-0.3093 -0.24358,-0.34341 -0.66178,-0.54987 -0.49371,-0.2437 -2.43127,-0.91173 -2.73214,-0.97736 -0.45994,-0.10039 -2.30186,-0.0593 -2.89183,0 -1.43756,0.1446 -0.0253,0.078 -1.17308,0.23344 -0.10728,0.0147 -0.22465,-0.04 -0.32519,0 -0.0938,0.0374 -0.13588,0.15099 -0.21454,0.21459 -0.75038,0.60689 -1.26278,1.29846 -1.68144,2.19108 -0.16785,0.35825 -0.27429,0.74562 -0.46604,1.09178 -0.15902,0.28745 -0.41437,0.51322 -0.58004,0.79714 -0.11232,0.19289 -0.15607,0.41859 -0.24736,0.62238 -0.11442,0.25573 -0.2949,0.48493 -0.36852,0.75523 -0.0526,0.19361 0.042,0.40554 0,0.60184 -0.0336,0.15846 -0.1729,0.27857 -0.21791,0.43419 -0.0294,0.10316 0.0211,0.21665 0,0.32187 -0.0711,0.35795 -0.19015,0.60898 -0.13378,0.99411 0.19898,1.35536 1.44913,2.19313 2.5528,2.82813 1.34484,0.77379 1.87402,0.86293 3.37292,0.86293 0.35464,0 0.83729,0.0594 1.19613,0 0.11274,-0.019 0.21245,-0.0912 0.32562,-0.1073 0.33191,-0.0472 0.71457,0.0671 1.04022,0 0.1565,-0.0324 0.28018,-0.15687 0.42919,-0.21459 0.84465,-0.32666 0.14513,0.11534 1.27114,-0.4036 0.24399,-0.11232 0.45244,-0.29011 0.68942,-0.41618 0.44185,-0.23513 0.76155,-0.25108 1.18481,-0.58382 0.30711,-0.052 0.17711,-0.44395 0.35674,-0.5855 0.35632,-0.28127 1.14414,-0.29137 1.14414,-0.86043"
       id="path2-5-8" />
    <path
       style="fill:none;stroke:#000000;stroke-width:2.9362;stroke-linecap:round;stroke-dasharray:none"
       d="m 227.97822,249.39708 c 1.15557,1.09947 1.22991,0.84281 1.63116,2.00668 0.0887,0.25801 0.15102,0.8552 0.21792,1.09596 0.1628,0.58715 0.38871,1.1323 0.44924,1.74935 0.10391,1.05752 -0.13126,0.0403 0,1.26697 0.34917,3.26349 0.31384,1.20966 0.31384,2.98486 0,0.39651 0.0862,1.13405 0,1.55656 -0.0168,0.0822 -0.10818,0.13399 -0.13126,0.21459 -0.0421,0.14665 0.0681,0.3212 0,0.45766 -0.0337,0.0662 -0.10731,-0.12049 -0.10731,-0.19447"
       id="path3-6-8" />
    <path
       style="fill:none;stroke:#000000;stroke-width:2.9362;stroke-linecap:round;stroke-dasharray:none"
       d="m 231.12321,252.6439 c 0.25999,-1.40522 0.19605,-1.82976 0.81642,-2.97146 0.26041,-0.47899 1.26581,-2.46039 2.05863,-2.66887 0.15733,-0.0412 0.32602,0.0139 0.48824,0 0.25999,-0.0222 0.51496,-0.0871 0.77494,-0.1073 0.34833,-0.0269 0.63798,-0.067 0.92706,0.10604 0.17963,0.10768 0.66831,0.45029 0.77995,0.56201 0.18301,0.18288 0.41859,0.76445 0.67268,0.89144 0.7206,0.36032 2.08504,0.86176 2.08504,1.79544"
       id="path4-9-4" />
    <path
       style="fill:none;stroke:#000000;stroke-width:3.17649;stroke-linecap:round;stroke-dasharray:none"
       d="m 249.4854,246.04172 c -1.87457,-0.19411 -3.37183,1.25394 -4.38578,2.63835 -0.81129,1.10773 0.2594,-0.36126 -0.34999,0.7046 -0.10466,0.18327 -0.29035,0.31634 -0.37728,0.50871 -0.0856,0.18942 -0.0665,0.41201 -0.1288,0.61028 -0.0665,0.21113 -0.21072,0.39596 -0.25668,0.61256 -0.0828,0.39216 0,0.80162 0,1.20242 0,1.30189 0.13562,1.84585 0.81296,2.99158 0.18477,0.31261 0.39823,0.86706 0.62388,1.12853 0.29536,0.34224 0.92683,0.56978 1.2836,0.76398 0.73122,0.39804 1.32223,0.92123 2.10015,1.23144 0.72127,0.28762 1.95525,0.68157 2.68144,0.24667 0.0947,-0.0567 0.14746,-0.1659 0.23438,-0.23398 0.47023,-0.36841 0.35817,-0.16944 0.99068,-0.47335 0.34589,-0.16616 0.42691,-0.36432 0.70643,-0.58942 0.17703,-0.1425 0.42326,-0.19038 0.58446,-0.35049 0.13334,-0.13243 0.1161,-0.20539 0.1161,-0.34775"
       id="path5-3-3" />
    <path
       style="fill:none;stroke:#000000;stroke-width:2.9362;stroke-linecap:round;stroke-dasharray:none"
       id="path7-7-1"
       d="m 257.36075,246.36818 c 0.0378,0.43691 0.1107,0.87071 0.13295,1.30907 0.004,0.0712 0.0126,0.14387 0.001,0.21434 -0.0168,0.10215 -0.0842,0.18922 -0.12663,0.28354 -0.0951,0.26095 0.003,0.52728 -0.009,0.79233 -0.009,0.24845 -0.0636,0.49327 -0.0955,0.73991 -0.072,0.62823 -0.009,1.25876 -0.004,1.88863 0.0699,0.42776 0.058,0.48244 0.21202,0.89837 0.13757,0.37109 0.18005,0.28868 0.2461,0.66664 0.0168,0.0851 0.005,0.17261 0.0126,0.25861 0.009,0.0754 0.0211,0.15023 0.0294,0.22535 0.0252,0.0681 0.0421,0.14039 0.0761,0.20446 0.0539,0.10077 0.12789,0.15436 0.19225,0.24282 0.12621,0.17383 0.24653,0.35465 0.36936,0.53118 0.49406,0.52164 1.10039,0.91799 1.51135,1.51906 0.10894,0.15923 0.18553,0.33824 0.27892,0.50708 0.0783,0.14156 0.15734,0.28274 0.23559,0.4241 0.45762,0.41681 0.44066,0.44674 1.19895,0.77053 0.12364,0.0529 0.19982,-0.0998 0.28606,-0.13037 0.0636,-0.0222 0.29069,0.0244 0.33108,0.0312 0.28312,0.0358 0.57869,0.0785 0.86493,0.0523 0.12112,-0.0113 0.23853,-0.0459 0.35842,-0.0662 0.44651,-0.0756 0.34034,-0.0575 0.78168,-0.0923 0.10643,-0.019 0.21707,-0.0215 0.31929,-0.0572 0.37905,-0.13218 0.71664,-0.59119 0.99227,-0.87816 0.35254,-0.45219 0.77352,-0.85926 1.24212,-1.19118 0.20403,-0.14441 0.41815,-0.27378 0.62236,-0.41782 0.34665,-0.21586 0.8812,-0.4634 1.1488,-0.78022 0.0724,-0.0858 0.10177,-0.20058 0.16156,-0.29583 0.22211,-0.35539 0.19182,-0.29301 0.48398,-0.5596 0.35296,-0.33226 0.17879,-0.14834 0.50458,-0.5414 0.0985,-0.11848 0.20402,-0.23128 0.29531,-0.35534 0.29028,-0.39477 0.31174,-0.49864 0.566,-0.91598 0.0996,-0.16382 0.20654,-0.32316 0.31004,-0.48478 0.0971,-0.16276 0.18468,-0.33171 0.29153,-0.48829 0.40302,-0.59107 0.35506,-0.36624 0.70701,-1.00372 0.10353,-0.18711 0.17963,-0.38799 0.27218,-0.58069 0.42136,-0.87809 0.13377,-0.21753 0.5209,-1.15887 0.11572,-0.2279 0.44932,-0.87976 0.55887,-1.1157 0.14472,-0.31178 0.35043,-0.64214 0.1363,-0.96301 -0.28564,-0.35893 0.1973,-0.0478 -0.85621,-0.5073 -0.0526,-0.0231 -0.21329,-0.0794 -0.16618,-0.0465 0.1485,0.10328 0.31678,0.17451 0.4752,0.2617 -2.18768,-1.2004 -0.14429,-0.11597 -0.22969,-0.14592 -0.23852,-0.0836 -0.43018,-0.28881 -0.67755,-0.34169 -0.0631,-0.0134 -0.0526,0.11949 -0.0631,0.1833 -0.0378,0.22296 -0.0294,0.67052 -0.0294,0.87014 0.003,0.19811 0.004,0.39625 0.009,0.59435 0.003,0.20462 -4.3e-4,0.40945 0.009,0.6138 0.0252,0.48239 0.0892,0.96216 0.11571,1.44446 0.0378,0.6514 0.0253,0.92107 0.0253,1.57145 -0.26334,1.89769 0.16786,3.78898 0.55816,5.63781 0.0736,0.43125 0.1666,0.85965 0.22088,1.29374 0.10516,0.83726 0.12074,1.74938 0.1691,2.5913 0.0211,0.36603 0.0543,0.73131 0.074,1.09742 0.0552,1.02279 0.0441,1.12396 0.0513,2.12705 -0.0294,0.58333 -0.11987,1.16152 -0.1628,1.74367 -0.0665,0.89355 0.004,0.87179 -0.16953,1.75745 -0.14178,0.72304 -0.29743,1.1439 -0.51976,1.84484 -0.11785,0.24897 -0.2196,0.50606 -0.35296,0.74686 -0.27009,0.48694 -0.76043,1.12963 -1.13147,1.55493 -0.25536,0.29272 -0.53326,0.56494 -0.79615,0.85087 -0.14934,0.19708 -0.30878,0.38656 -0.44752,0.59121 -0.36516,0.53928 -0.33277,0.58316 -0.6285,1.10201 -0.0555,0.0977 -0.12364,0.18784 -0.18091,0.28489 -0.0378,0.0684 -0.0611,0.14812 -0.10893,0.21093 -0.0493,0.064 -0.11861,0.10881 -0.17795,0.16322 -0.18931,0.0799 -0.33991,0.35137 -0.56173,0.36726 -0.0253,10e-4 -0.0378,-0.0324 -0.064,-0.0349 -0.0526,-0.006 -0.10227,0.0265 -0.15355,0.0387 -0.0337,0.004 -0.0661,0.006 -0.0993,0.0101 0,0 0.59927,0.42394 0.59927,0.42394 v 0 c 0.0337,-0.006 0.0686,-0.01 0.10302,-0.0156 0.0686,-0.0131 0.16113,0.003 0.22507,-0.0151 0.2255,-0.0642 0.37989,-0.27551 0.57583,-0.38921 0.0636,-0.0616 0.13716,-0.11409 0.19058,-0.18456 0.0466,-0.0613 0.0674,-0.13883 0.10605,-0.20533 0.0577,-0.0986 0.12663,-0.19041 0.18342,-0.28973 0.29238,-0.51335 0.26167,-0.55944 0.62261,-1.0919 0.13757,-0.20266 0.29575,-0.39016 0.44391,-0.58522 0.26419,-0.28703 0.54277,-0.56099 0.7988,-0.8553 0.37525,-0.4313 0.86636,-1.07636 1.14001,-1.5696 0.13503,-0.24366 0.23853,-0.50364 0.358,-0.75546 0.2238,-0.70304 0.38156,-1.1302 0.52547,-1.8555 0.18048,-0.91025 0.10391,-0.84538 0.17122,-1.76032 0.043,-0.58457 0.13337,-1.16506 0.16661,-1.75053 -0.004,-0.99121 0.004,-1.12118 -0.0493,-2.13106 -0.0211,-0.3657 -0.0539,-0.73051 -0.0749,-1.09614 -0.0471,-0.82623 -0.064,-1.77829 -0.16534,-2.59922 -0.0539,-0.43497 -0.1464,-0.86425 -0.2196,-1.29636 -0.39123,-1.84309 -0.83102,-3.73168 -0.5651,-5.62391 0.003,-0.63891 0.0126,-0.93688 -0.0211,-1.57685 -0.0252,-0.48102 -0.0921,-0.9593 -0.11773,-1.44033 -0.0126,-0.20434 -0.009,-0.40917 -0.009,-0.61374 -0.003,-0.19768 -0.009,-0.39536 -0.009,-0.59306 4.3e-4,-0.16676 -0.003,-0.33356 10e-4,-0.50029 0.003,-0.11761 0.009,-0.23529 0.0211,-0.35263 0.003,-0.0378 0.0484,-0.0884 0.0168,-0.11194 -0.18257,-0.1451 -0.79056,-0.49388 -0.60444,-0.35312 0.22675,0.17134 0.49242,0.28455 0.72653,0.44544 0.15902,0.10918 -0.33361,-0.19339 -0.50045,-0.2901 0.2646,0.14887 0.52177,0.31167 0.79371,0.44664 0.65529,0.32528 -0.67196,-0.67238 -0.2377,-0.17647 0.0253,0.0206 0.0573,0.0349 0.0749,0.0623 0.1527,0.24324 -0.0799,0.62305 -0.17249,0.82288 -0.11195,0.24138 -0.44351,0.88832 -0.56136,1.1201 -0.38745,0.94448 -0.0946,0.27012 -0.51916,1.15584 -0.0908,0.18976 -0.16532,0.38783 -0.26713,0.57204 -0.33908,0.61433 -0.31594,0.43041 -0.70835,1.00594 -0.10642,0.15603 -0.19352,0.32421 -0.29028,0.48634 -0.50764,0.79409 -0.94342,1.65287 -1.66608,2.2814 -0.29868,0.27926 -0.26881,0.21649 -0.49628,0.58024 -0.0547,0.0875 -0.0799,0.19398 -0.14725,0.27224 -0.2768,0.32225 -0.79592,0.54725 -1.14543,0.7749 -0.20529,0.144 -0.42027,0.27453 -0.62416,0.42071 -0.46966,0.33655 -0.89173,0.74631 -1.24781,1.20033 -0.42152,0.43962 0.004,-0.009 -0.36262,0.38337 -0.0602,0.0639 -0.25578,0.27345 -0.32267,0.31774 -0.24777,0.16366 -0.31004,0.14279 -0.59674,0.19003 -0.12831,0.0113 -0.25704,0.0185 -0.38492,0.0345 -0.25157,0.0312 -0.49822,0.10014 -0.75092,0.11848 -0.28607,0.0206 -0.57723,-0.024 -0.86009,-0.0588 -0.14935,-0.0131 -0.22086,-0.0378 -0.36095,0.0126 -0.0378,0.0139 -0.0661,0.0536 -0.10605,0.065 -0.0437,0.0126 -0.16742,-0.0294 -0.1363,0.004 0.0126,0.0113 0.93351,0.63767 0.0459,-0.0143 -0.0787,-0.14106 -0.15944,-0.28105 -0.23642,-0.42313 -0.093,-0.17215 -0.16575,-0.35607 -0.27344,-0.51949 -0.40092,-0.60815 -0.99822,-1.01512 -1.5136,-1.51393 -0.0521,-0.0769 -0.10428,-0.15375 -0.15649,-0.23065 -0.0471,-0.0597 -0.098,-0.1161 -0.14094,-0.17878 -0.0294,-0.04 -0.0421,-0.0878 -0.0686,-0.12819 -0.0552,-0.0833 -0.14681,-0.13837 -0.20149,-0.22196 -0.0378,-0.0573 -0.0559,-0.12514 -0.0837,-0.1878 -0.0455,-0.30874 -0.0294,-0.14489 -0.0378,-0.49216 -0.0589,-0.40424 -0.0951,-0.28497 -0.24483,-0.66969 -0.15567,-0.39999 -0.14768,-0.46628 -0.22172,-0.87845 -0.001,-0.62716 -0.0668,-1.25443 -5.4e-4,-1.88007 0.0337,-0.25107 0.0883,-0.49976 0.10228,-0.75253 0.0126,-0.25413 -0.0874,-0.50899 -0.009,-0.76058 0.0471,-0.10378 0.11949,-0.19928 0.14135,-0.31102 0.0126,-0.0717 0.004,-0.1463 0.001,-0.21934 -0.0211,-0.43695 -0.0913,-0.86947 -0.13547,-1.30406 z" />
    <text
       xml:space="preserve"
       style="font-weight:600;font-size:12.7px;font-family:FreeSans;-inkscape-font-specification:'FreeSans Semi-Bold';fill:none;stroke:#020000;stroke-width:0;stroke-linecap:round;stroke-dasharray:none;stroke-opacity:1"
       x="-21.148581"
       y="-32.89851"
       id="text24"><tspan
         sodipodi:role="line"
         id="tspan24"
         style="stroke-width:0;stroke-dasharray:none" /></text>
    <text
       xml:space="preserve"
       style="font-weight:600;font-size:26.02px;font-family:FreeSans;-inkscape-font-specification:'FreeSans Semi-Bold';fill:none;stroke:#020000;stroke-width:2.04882;stroke-linecap:round;stroke-dasharray:none;stroke-opacity:1"
       x="-310.03745"
       y="-184.41"
       id="text26"><tspan
         sodipodi:role="line"
         id="tspan26"
         style="stroke-width:2.04882;stroke-dasharray:none"
         x="-310.03745"
         y="-184.41">Americanna</tspan></text>
    <text
       xml:space="preserve"
       style="font-weight:600;font-size:26.02px;font-family:FreeSans;-inkscape-font-specification:'FreeSans Semi-Bold';fill:none;stroke:#020000;stroke-width:2.04882;stroke-linecap:round;stroke-dasharray:none;stroke-opacity:1"
       x="-312.89722"
       y="-161.50861"
       id="text26-0"><tspan
         sodipodi:role="line"
         id="tspan26-6"
         style="stroke-width:2.04882;stroke-dasharray:none"
         x="-312.89722"
         y="-161.50861">Americanno</tspan></text>
    <text
       xml:space="preserve"
       style="font-weight:600;font-size:26.02px;font-family:FreeSans;-inkscape-font-specification:'FreeSans Semi-Bold';fill:none;stroke:#020000;stroke-width:2.04882;stroke-linecap:round;stroke-dasharray:none;stroke-opacity:1"
       x="-314.99295"
       y="-138.99222"
       id="text26-0-6"><tspan
         sodipodi:role="line"
         id="tspan26-6-6"
         style="stroke-width:2.04882;stroke-dasharray:none"
         x="-314.99295"
         y="-138.99222">Americanno</tspan></text>
    <text
       xml:space="preserve"
       style="font-weight:600;font-size:52.2532px;font-family:FreeSans;-inkscape-font-specification:'FreeSans Semi-Bold';fill:none;stroke:#020000;stroke-width:4.11443;stroke-linecap:round;stroke-dasharray:none;stroke-opacity:1"
       x="-151.91992"
       y="215.62088"
       id="text26-0-6-4"><tspan
         sodipodi:role="line"
         id="tspan26-6-6-8"
         style="stroke-width:4.11443;stroke-dasharray:none"
         x="-151.91992"
         y="215.62088">FPM</tspan></text>
    <path
       style="fill:none;stroke:#000000;stroke-width:0.970476;stroke-linecap:round;stroke-dasharray:none;stroke-opacity:1"
       d="m 89.060344,49.796162 c 0,-1.574437 -0.57663,-2.964751 -1.13466,-4.405756 -0.20423,-0.527373 -0.47142,-1.03415 -0.6156,-1.581004 -0.33584,-1.273705 -0.4246,-3.175801 -0.52157,-4.439186 -0.025,-0.325408 -0.0457,-0.651127 -0.0685,-0.976686 0.71656,0.131161 1.46338,0.130638 2.18052,0.04241 0.2087,-0.02568 0.33507,-0.106993 0.54455,-0.106993"
       id="path10" />
    <path
       style="fill:none;stroke:#000000;stroke-width:0.970476;stroke-linecap:round;stroke-dasharray:none;stroke-opacity:1"
       d="m 87.254084,42.630856 c 2.24996,-0.388846 1.37822,-0.279804 2.6022,-0.418341"
       id="path11" />
    <path
       style="fill:none;stroke:#000000;stroke-width:0.970476;stroke-linecap:round;stroke-dasharray:none;stroke-opacity:1"
       d="m 93.090594,42.229649 c -0.1462,0.01784 -0.29865,0.0076 -0.43861,0.0535 -0.0847,0.02779 -0.13896,0.112293 -0.21398,0.16048 -0.34995,0.224813 -0.82442,0.759266 -0.90982,1.187948 -0.0516,0.259272 -0.0535,0.551849 -0.0535,0.816412 0,0.124825 -0.0394,0.256037 0,0.37446 0.0367,0.110354 0.27512,0.425109 0.3381,0.519479 0.0932,0.139598 0.20358,0.327343 0.3241,0.445299 0.19033,0.186293 0.82556,0.568124 1.07385,0.658439 0.39267,0.142834 1.25631,0.182836 1.65812,0.0056 0.15512,-0.06841 0.32514,-0.262172 0.41144,-0.406221 0.0292,-0.04879 0.0244,-0.113148 0.0535,-0.161948 0.087,-0.145583 0.2766,-0.265895 0.3262,-0.439862 0.0196,-0.06893 -0.009,-0.143899 0,-0.21502 0.0283,-0.227445 0.0837,-0.220456 0.10782,-0.451776 0.0296,-0.284114 -0.10188,-1.328932 -0.22965,-1.584144 -0.1003,-0.200337 -0.19629,-0.197207 -0.33392,-0.335171 -0.0285,-0.02859 -0.0199,-0.0874 -0.0545,-0.108249 -0.0635,-0.03819 -0.14507,-0.0312 -0.21544,-0.05433 -0.21787,-0.07152 -0.44026,-0.195885 -0.6693,-0.228602 -0.0706,-0.0101 -0.14366,0.01191 -0.21398,0 -0.0956,-0.01623 -0.17603,-0.08414 -0.26977,-0.109082 -0.20868,-0.05552 -0.49293,-0.09459 -0.69062,-0.127257 z"
       id="path12" />
    <path
       style="fill:none;stroke:#000000;stroke-width:0.970476;stroke-linecap:round;stroke-dasharray:none;stroke-opacity:1"
       d="m 97.367834,46.292078 c -0.0722,-1.085497 0.19923,-2.13036 0.33141,-3.19189 0.0281,-0.225536 0,-0.475111 0,-0.703159 0,-0.37547 -0.0615,-0.807891 0,-1.176873 0.0261,-0.156316 0.0606,-0.293637 0.0915,-0.267473 0.25087,0.212185 0.4519,0.483793 0.70002,0.698978 0.10884,0.09439 0.23069,0.172606 0.34605,0.258906 0.11499,0.09995 0.23151,0.198181 0.34499,0.299862 0.27206,0.243776 0.52653,0.556763 0.841066,0.749126 0.16673,0.101962 0.35611,0.163385 0.52283,0.265383 0.11181,0.06841 0.2013,0.16848 0.30884,0.243439 0.26316,0.183444 0.62371,0.341025 0.94722,0.341025"
       id="path13" />
    <path
       style="fill:none;stroke:#000000;stroke-width:0.970476;stroke-linecap:round;stroke-dasharray:none;stroke-opacity:1"
       d="m 97.575964,43.841375 c 0.77184,-1.028402 1.06978,-0.478488 1.68569,-0.712144 0.16704,-0.06337 0.0319,-0.05454 0.1492,-0.05454"
       id="path14" />
    <path
       style="fill:none;stroke:#000000;stroke-width:0.970476;stroke-linecap:round;stroke-dasharray:none;stroke-opacity:1"
       d="m 103.51382,43.35533 c -0.146,-0.325775 -0.32441,-0.638873 -0.43798,-0.977315 -0.16975,-0.505852 -0.0323,-1.431638 0.0673,-1.95254 0.0376,-0.196498 0.13331,-0.391358 0.17323,-0.58865 0.007,-0.03497 -0.016,-0.07509 0,-0.106982 0.0465,-0.09297 0.10969,0.06625 0.15463,0.102385 0.0956,0.07685 0.21536,0.119051 0.31345,0.192664 0.0633,0.04748 0.10429,0.120493 0.16737,0.168214 0.21596,0.16338 0.45681,0.310117 0.67349,0.471839 0.0176,0.133639 0.11424,0.0212 0.16048,0.05349 0.12738,0.08892 0.21261,0.229279 0.32556,0.302158 0.0517,0.03336 0.27288,-0.26095 0.27604,-0.264126 0.38716,-0.389856 0.62325,-0.766039 0.85006,-1.266726 0.0594,-0.131055 0.26843,-0.687532 0.34207,-0.628144 0.36982,0.298269 0.72309,0.624617 1.10917,0.90836 0.57374,0.421657 1.28192,0.660449 1.94021,0.907521 0.0656,0.02462 0.77961,0.299993 0.88662,0.33183 0.39968,0.118901 0.29738,-0.0015 0.83188,0.05454 0.19994,0.021 0.39085,0.101159 0.59095,0.120575 0.21623,0.021 0.4345,0 0.65175,0 0.12078,0 0.24343,0.0212 0.36234,0 0.0915,-0.01633 0.17079,-0.07342 0.25619,-0.110123 0.16654,-0.02703 0.33295,-0.05489 0.49962,-0.08108 0.5194,-0.0816 1.04628,-0.110962 1.56492,-0.197262 0.29855,-0.04969 0.59136,-0.176244 0.88746,-0.239676 0.14399,-0.03085 0.29385,-0.03392 0.43548,-0.07418 0.22444,-0.06385 0.65652,-0.214949 0.87388,-0.376972 0.081,-0.06037 0.15801,-0.160475 0.26413,-0.160475"
       id="path15" />
    <path
       style="fill:none;stroke:#000000;stroke-width:0.970476;stroke-linecap:round;stroke-dasharray:none;stroke-opacity:1"
       d="m 94.386864,50.850235 c 0.27512,0.432441 0.5259,0.881367 0.82537,1.297322 0.17647,0.245092 0.4062,0.447349 0.59843,0.680276 0.33614,0.407312 0.49661,0.900808 0.77839,1.332194 0.0394,0.0603 0.11274,0.09291 0.15278,0.152777 0.0346,0.05175 0,0.351557 0,0.403679"
       id="path16" />
    <path
       style="fill:none;stroke:#000000;stroke-width:0.970476;stroke-linecap:round;stroke-dasharray:none;stroke-opacity:1"
       d="m 92.237864,51.650201 c 0.37777,-0.483959 0.68658,-1.030733 1.13331,-1.451873 0.90887,-0.856816 2.12517,-1.385008 3.34348,-1.547619 0.26444,-0.03532 1.08732,-0.271593 1.30707,0.06294 0.15099,0.229862 -0.1365,0.477819 -0.22932,0.607578 -0.0685,0.0957 -0.0905,0.219688 -0.15988,0.314726 -0.33384,0.457328 -0.88358,0.485924 -1.20807,0.783118 -0.1914,0.175299 0.0254,0.152783 -0.15279,0.152783"
       id="path17" />
    <path
       style="fill:none;stroke:#000000;stroke-width:0.970476;stroke-linecap:round;stroke-dasharray:none;stroke-opacity:1"
       d="m 99.216204,50.285799 c 0.966716,1.325802 0.42839,0.5165 1.517466,2.490023"
       id="path24" />
    <path
       style="fill:none;stroke:#000000;stroke-width:0.970476;stroke-linecap:round;stroke-dasharray:none;stroke-opacity:1"
       d="m 99.736014,50.580722 c 0.499346,-0.976988 1.683116,-0.740417 2.359696,-1.417001"
       id="path26" />
    <path
       style="fill:none;stroke:#000000;stroke-width:0.970476;stroke-linecap:round;stroke-dasharray:none;stroke-opacity:1"
       d="m 100.59271,51.770474 c 1.52502,-0.731529 0.65782,-0.380057 2.63276,-0.974024"
       id="path27" />
    <path
       style="fill:none;stroke:#000000;stroke-width:0.970476;stroke-linecap:round;stroke-dasharray:none;stroke-opacity:1"
       d="m 101.06938,53.186003 c 0.39791,-0.214236 1.44612,-0.838617 1.99769,-0.957769 0.29334,-0.06337 0.89957,0 1.2258,0"
       id="path28" />
    <path
       style="fill:none;stroke:#000000;stroke-width:0.970476;stroke-linecap:round;stroke-dasharray:none;stroke-opacity:1"
       d="m 103.42287,48.709217 c 4.35749,-1.071594 2.53256,-0.664182 8.39327,-1.826293 3.97106,-0.787419 2.12368,-0.168615 5.39496,-1.505954 0.21738,-0.08887 0.44028,-0.167219 0.64747,-0.277784 0.0655,-0.03492 0.0988,-0.113268 0.16106,-0.153672 0.16141,-0.104781 0.89004,0.08329 1.21103,-0.07565"
       id="path29" />
    <path
       style="fill:none;stroke:#000000;stroke-width:0.970476;stroke-linecap:round;stroke-dasharray:none;stroke-opacity:1"
       d="m 106.21167,48.533974 c 0.25996,0.91148 1.14749,1.642838 1.14749,2.612958"
       id="path31" />
  </g>
</svg>
