<?xml version="1.0" encoding="UTF-8"?>
<svg id="ccai_logo" data-name="ccai_logo" xmlns="http://www.w3.org/2000/svg" viewBox="0 0 256 256">
  <rect width="256" height="256" rx="16" ry="16" style="fill: #1f1f1f;"/>
  <g>
    <rect width="256" height="256" style="fill: none;"/>
    <path d="M49.97,147.76c1.32-.43,2.49-1.04,3.49-1.83,1-.79,1.78-1.74,2.34-2.85.55-1.11.8-2.34.73-3.71h14.07c.07,3.01-.55,5.8-1.85,8.38-1.31,2.58-3.09,4.8-5.34,6.66-2.26,1.86-4.88,3.32-7.87,4.38-2.99,1.06-6.15,1.58-9.48,1.58-4.51,0-8.47-.76-11.87-2.28-3.4-1.52-6.23-3.61-8.49-6.26-2.29-2.65-4.02-5.76-5.18-9.32-1.16-3.56-1.75-7.39-1.75-11.47v-1.61c0-4.08.57-7.9,1.72-11.47,1.15-3.56,2.86-6.67,5.16-9.32,2.29-2.65,5.13-4.74,8.51-6.28,3.38-1.54,7.31-2.31,11.79-2.31,3.58,0,6.89.54,9.94,1.61,3.04,1.07,5.67,2.58,7.9,4.51,2.18,1.97,3.88,4.34,5.1,7.12,1.22,2.78,1.79,5.88,1.72,9.32h-14.07c.07-1.43-.14-2.79-.64-4.08-.5-1.29-1.24-2.4-2.2-3.33-.97-.93-2.13-1.67-3.49-2.23-1.36-.55-2.85-.83-4.46-.83-2.36,0-4.32.48-5.85,1.45-1.54.97-2.76,2.26-3.65,3.87-.93,1.61-1.58,3.46-1.96,5.53-.38,2.08-.56,4.23-.56,6.45v1.61c0,2.26.18,4.43.54,6.53.36,2.09,1,3.93,1.93,5.5.89,1.61,2.12,2.9,3.68,3.87s3.54,1.45,5.94,1.45c1.47,0,2.86-.21,4.19-.64Z" style="fill: #bfbfbf;"/>
    <path d="M104.98,147.76c1.32-.43,2.49-1.04,3.49-1.83,1-.79,1.78-1.74,2.34-2.85.55-1.11.8-2.34.73-3.71h14.07c.07,3.01-.55,5.8-1.85,8.38-1.31,2.58-3.09,4.8-5.34,6.66-2.26,1.86-4.88,3.32-7.87,4.38-2.99,1.06-6.15,1.58-9.48,1.58-4.51,0-8.47-.76-11.87-2.28-3.4-1.52-6.23-3.61-8.49-6.26-2.29-2.65-4.02-5.76-5.18-9.32-1.16-3.56-1.75-7.39-1.75-11.47v-1.61c0-4.08.57-7.9,1.72-11.47,1.15-3.56,2.86-6.67,5.16-9.32,2.29-2.65,5.13-4.74,8.51-6.28,3.38-1.54,7.31-2.31,11.79-2.31,3.58,0,6.89.54,9.94,1.61,3.04,1.07,5.67,2.58,7.9,4.51,2.18,1.97,3.88,4.34,5.1,7.12,1.22,2.78,1.79,5.88,1.72,9.32h-14.07c.07-1.43-.14-2.79-.64-4.08-.5-1.29-1.24-2.4-2.2-3.33-.97-.93-2.13-1.67-3.49-2.23-1.36-.55-2.85-.83-4.46-.83-2.36,0-4.32.48-5.85,1.45-1.54.97-2.76,2.26-3.65,3.87-.93,1.61-1.58,3.46-1.96,5.53-.38,2.08-.56,4.23-.56,6.45v1.61c0,2.26.18,4.43.54,6.53.36,2.09,1,3.93,1.93,5.5.89,1.61,2.12,2.9,3.68,3.87s3.54,1.45,5.94,1.45c1.47,0,2.86-.21,4.19-.64Z" style="fill: #bfbfbf;"/>
    <path d="M165.47,156.78c-.25-.93-.47-1.92-.64-2.95-.82.9-1.77,1.74-2.85,2.52-1.07.79-2.26,1.47-3.54,2.04-1.33.61-2.78,1.08-4.35,1.42-1.58.34-3.28.51-5.1.51-2.97,0-5.7-.43-8.19-1.29-2.49-.86-4.63-2.06-6.42-3.6-1.79-1.54-3.19-3.38-4.19-5.5-1-2.13-1.5-4.45-1.5-6.96,0-3.22.63-6.08,1.88-8.57,1.25-2.49,3.13-4.54,5.64-6.15,2.26-1.47,5.04-2.59,8.35-3.36,3.31-.77,7.12-1.15,11.41-1.15h8.33v-3.44c0-1.36-.21-2.59-.64-3.68-.43-1.09-1.07-2.03-1.93-2.82-.9-.82-2.01-1.46-3.36-1.91-1.34-.45-2.91-.67-4.7-.67-1.58,0-2.94.19-4.08.56-1.15.38-2.08.9-2.79,1.58-.64.61-1.12,1.34-1.42,2.2-.3.86-.46,1.81-.46,2.85h-14.93c0-2.47.55-4.82,1.64-7.04,1.09-2.22,2.69-4.17,4.81-5.85,2.08-1.68,4.63-3.02,7.65-4,3.03-.98,6.49-1.48,10.39-1.48,3.51,0,6.78.43,9.8,1.29,3.03.86,5.65,2.13,7.87,3.81,2.22,1.68,3.96,3.81,5.21,6.36,1.25,2.56,1.88,5.52,1.88,8.89v24.92c0,3.12.2,5.69.59,7.73.39,2.04.97,3.8,1.72,5.26v.91h-15.15c-.36-.72-.66-1.54-.91-2.47ZM156.34,148.24c1.29-.36,2.45-.82,3.49-1.4,1.04-.57,1.93-1.23,2.69-1.96.75-.73,1.34-1.48,1.77-2.23v-9.99h-7.63c-2.33,0-4.32.22-5.96.67-1.65.45-2.99,1.07-4.03,1.85-1.04.82-1.81,1.8-2.31,2.93-.5,1.13-.75,2.35-.75,3.68,0,1.04.19,2,.56,2.87.38.88.92,1.62,1.64,2.23.72.57,1.6,1.03,2.66,1.37,1.06.34,2.28.51,3.68.51,1.5,0,2.9-.18,4.19-.54Z" style="fill: #bfbfbf;"/>
    <path d="M220.69,101.13v45.98h15.74v12.14h-47.37v-12.14h16.54v-33.78h-16.54v-12.19h31.64ZM205.15,83.06c.41-.98.99-1.83,1.75-2.55.75-.68,1.66-1.22,2.71-1.61,1.06-.39,2.23-.59,3.52-.59,2.65,0,4.75.74,6.31,2.23,1.56,1.49,2.34,3.39,2.34,5.72s-.78,4.23-2.34,5.72c-1.56,1.49-3.66,2.23-6.31,2.23-1.29,0-2.46-.2-3.52-.59-1.06-.39-1.96-.95-2.71-1.67-.75-.68-1.33-1.51-1.75-2.5-.41-.98-.62-2.05-.62-3.2s.21-2.21.62-3.2Z" style="fill: #bfbfbf;"/>
  </g>
</svg>