<?xml version="1.0" encoding="utf-8" standalone="no"?>
<!DOCTYPE svg PUBLIC "-//W3C//DTD SVG 1.1//EN"
  "http://www.w3.org/Graphics/SVG/1.1/DTD/svg11.dtd">
<svg xmlns:xlink="http://www.w3.org/1999/xlink" width="432pt" height="432pt" viewBox="0 0 432 432" xmlns="http://www.w3.org/2000/svg" version="1.1">
 <metadata>
  <rdf:RDF xmlns:dc="http://purl.org/dc/elements/1.1/" xmlns:cc="http://creativecommons.org/ns#" xmlns:rdf="http://www.w3.org/1999/02/22-rdf-syntax-ns#">
   <cc:Work>
    <dc:type rdf:resource="http://purl.org/dc/dcmitype/StillImage"/>
    <dc:date>2025-07-02T14:23:25.250291</dc:date>
    <dc:format>image/svg+xml</dc:format>
    <dc:creator>
     <cc:Agent>
      <dc:title>Matplotlib v3.10.3, https://matplotlib.org/</dc:title>
     </cc:Agent>
    </dc:creator>
   </cc:Work>
  </rdf:RDF>
 </metadata>
 <defs>
  <style type="text/css">*{stroke-linejoin: round; stroke-linecap: butt}</style>
 </defs>
 <g id="figure_1">
  <g id="patch_1">
   <path d="M 0 432
L 432 432
L 432 0
L 0 0
z
" style="fill: #ffffff"/>
  </g>
  <g id="axes_1">
   <g id="patch_2">
    <path d="M 55.08 384.48
L 387.72 384.48
L 387.72 51.84
L 55.08 51.84
z
" style="fill: #ffffff"/>
   </g>
   <g id="matplotlib.axis_1">
    <g id="xtick_1">
     <g id="line2d_1">
      <defs>
       <path id="m94f05399ee" d="M 0 0
L 0 3.5
" style="stroke: #000000; stroke-width: 0.8"/>
      </defs>
      <g>
       <use xlink:href="#m94f05399ee" x="82.8" y="384.48" style="stroke: #000000; stroke-width: 0.8"/>
      </g>
     </g>
     <g id="text_1">
      <!-- −2 -->
      <g transform="translate(75.428906 399.078438) scale(0.1 -0.1)">
       <defs>
        <path id="DejaVuSans-2212" d="M 678 2272
L 4684 2272
L 4684 1741
L 678 1741
L 678 2272
z
" transform="scale(0.015625)"/>
        <path id="DejaVuSans-32" d="M 1228 531
L 3431 531
L 3431 0
L 469 0
L 469 531
Q 828 903 1448 1529
Q 2069 2156 2228 2338
Q 2531 2678 2651 2914
Q 2772 3150 2772 3378
Q 2772 3750 2511 3984
Q 2250 4219 1831 4219
Q 1534 4219 1204 4116
Q 875 4013 500 3803
L 500 4441
Q 881 4594 1212 4672
Q 1544 4750 1819 4750
Q 2544 4750 2975 4387
Q 3406 4025 3406 3419
Q 3406 3131 3298 2873
Q 3191 2616 2906 2266
Q 2828 2175 2409 1742
Q 1991 1309 1228 531
z
" transform="scale(0.015625)"/>
       </defs>
       <use xlink:href="#DejaVuSans-2212"/>
       <use xlink:href="#DejaVuSans-32" transform="translate(83.789062 0)"/>
      </g>
     </g>
    </g>
    <g id="xtick_2">
     <g id="line2d_2">
      <g>
       <use xlink:href="#m94f05399ee" x="152.1" y="384.48" style="stroke: #000000; stroke-width: 0.8"/>
      </g>
     </g>
     <g id="text_2">
      <!-- 0 -->
      <g transform="translate(148.91875 399.078438) scale(0.1 -0.1)">
       <defs>
        <path id="DejaVuSans-30" d="M 2034 4250
Q 1547 4250 1301 3770
Q 1056 3291 1056 2328
Q 1056 1369 1301 889
Q 1547 409 2034 409
Q 2525 409 2770 889
Q 3016 1369 3016 2328
Q 3016 3291 2770 3770
Q 2525 4250 2034 4250
z
M 2034 4750
Q 2819 4750 3233 4129
Q 3647 3509 3647 2328
Q 3647 1150 3233 529
Q 2819 -91 2034 -91
Q 1250 -91 836 529
Q 422 1150 422 2328
Q 422 3509 836 4129
Q 1250 4750 2034 4750
z
" transform="scale(0.015625)"/>
       </defs>
       <use xlink:href="#DejaVuSans-30"/>
      </g>
     </g>
    </g>
    <g id="xtick_3">
     <g id="line2d_3">
      <g>
       <use xlink:href="#m94f05399ee" x="221.4" y="384.48" style="stroke: #000000; stroke-width: 0.8"/>
      </g>
     </g>
     <g id="text_3">
      <!-- 2 -->
      <g transform="translate(218.21875 399.078438) scale(0.1 -0.1)">
       <use xlink:href="#DejaVuSans-32"/>
      </g>
     </g>
    </g>
    <g id="xtick_4">
     <g id="line2d_4">
      <g>
       <use xlink:href="#m94f05399ee" x="290.7" y="384.48" style="stroke: #000000; stroke-width: 0.8"/>
      </g>
     </g>
     <g id="text_4">
      <!-- 4 -->
      <g transform="translate(287.51875 399.078438) scale(0.1 -0.1)">
       <defs>
        <path id="DejaVuSans-34" d="M 2419 4116
L 825 1625
L 2419 1625
L 2419 4116
z
M 2253 4666
L 3047 4666
L 3047 1625
L 3713 1625
L 3713 1100
L 3047 1100
L 3047 0
L 2419 0
L 2419 1100
L 313 1100
L 313 1709
L 2253 4666
z
" transform="scale(0.015625)"/>
       </defs>
       <use xlink:href="#DejaVuSans-34"/>
      </g>
     </g>
    </g>
    <g id="xtick_5">
     <g id="line2d_5">
      <g>
       <use xlink:href="#m94f05399ee" x="360" y="384.48" style="stroke: #000000; stroke-width: 0.8"/>
      </g>
     </g>
     <g id="text_5">
      <!-- 6 -->
      <g transform="translate(356.81875 399.078438) scale(0.1 -0.1)">
       <defs>
        <path id="DejaVuSans-36" d="M 2113 2584
Q 1688 2584 1439 2293
Q 1191 2003 1191 1497
Q 1191 994 1439 701
Q 1688 409 2113 409
Q 2538 409 2786 701
Q 3034 994 3034 1497
Q 3034 2003 2786 2293
Q 2538 2584 2113 2584
z
M 3366 4563
L 3366 3988
Q 3128 4100 2886 4159
Q 2644 4219 2406 4219
Q 1781 4219 1451 3797
Q 1122 3375 1075 2522
Q 1259 2794 1537 2939
Q 1816 3084 2150 3084
Q 2853 3084 3261 2657
Q 3669 2231 3669 1497
Q 3669 778 3244 343
Q 2819 -91 2113 -91
Q 1303 -91 875 529
Q 447 1150 447 2328
Q 447 3434 972 4092
Q 1497 4750 2381 4750
Q 2619 4750 2861 4703
Q 3103 4656 3366 4563
z
" transform="scale(0.015625)"/>
       </defs>
       <use xlink:href="#DejaVuSans-36"/>
      </g>
     </g>
    </g>
    <g id="text_6">
     <!-- x -->
     <g transform="translate(218.440625 412.756563) scale(0.1 -0.1)">
      <defs>
       <path id="DejaVuSans-78" d="M 3513 3500
L 2247 1797
L 3578 0
L 2900 0
L 1881 1375
L 863 0
L 184 0
L 1544 1831
L 300 3500
L 978 3500
L 1906 2253
L 2834 3500
L 3513 3500
z
" transform="scale(0.015625)"/>
      </defs>
      <use xlink:href="#DejaVuSans-78"/>
     </g>
    </g>
   </g>
   <g id="matplotlib.axis_2">
    <g id="ytick_1">
     <g id="line2d_6">
      <defs>
       <path id="mc27a3a8b13" d="M 0 0
L -3.5 0
" style="stroke: #000000; stroke-width: 0.8"/>
      </defs>
      <g>
       <use xlink:href="#mc27a3a8b13" x="55.08" y="356.76" style="stroke: #000000; stroke-width: 0.8"/>
      </g>
     </g>
     <g id="text_7">
      <!-- −2 -->
      <g transform="translate(33.337812 360.559219) scale(0.1 -0.1)">
       <use xlink:href="#DejaVuSans-2212"/>
       <use xlink:href="#DejaVuSans-32" transform="translate(83.789062 0)"/>
      </g>
     </g>
    </g>
    <g id="ytick_2">
     <g id="line2d_7">
      <g>
       <use xlink:href="#mc27a3a8b13" x="55.08" y="287.46" style="stroke: #000000; stroke-width: 0.8"/>
      </g>
     </g>
     <g id="text_8">
      <!-- 0 -->
      <g transform="translate(41.7175 291.259219) scale(0.1 -0.1)">
       <use xlink:href="#DejaVuSans-30"/>
      </g>
     </g>
    </g>
    <g id="ytick_3">
     <g id="line2d_8">
      <g>
       <use xlink:href="#mc27a3a8b13" x="55.08" y="218.16" style="stroke: #000000; stroke-width: 0.8"/>
      </g>
     </g>
     <g id="text_9">
      <!-- 2 -->
      <g transform="translate(41.7175 221.959219) scale(0.1 -0.1)">
       <use xlink:href="#DejaVuSans-32"/>
      </g>
     </g>
    </g>
    <g id="ytick_4">
     <g id="line2d_9">
      <g>
       <use xlink:href="#mc27a3a8b13" x="55.08" y="148.86" style="stroke: #000000; stroke-width: 0.8"/>
      </g>
     </g>
     <g id="text_10">
      <!-- 4 -->
      <g transform="translate(41.7175 152.659219) scale(0.1 -0.1)">
       <use xlink:href="#DejaVuSans-34"/>
      </g>
     </g>
    </g>
    <g id="ytick_5">
     <g id="line2d_10">
      <g>
       <use xlink:href="#mc27a3a8b13" x="55.08" y="79.56" style="stroke: #000000; stroke-width: 0.8"/>
      </g>
     </g>
     <g id="text_11">
      <!-- 6 -->
      <g transform="translate(41.7175 83.359219) scale(0.1 -0.1)">
       <use xlink:href="#DejaVuSans-36"/>
      </g>
     </g>
    </g>
    <g id="text_12">
     <!-- y -->
     <g transform="translate(27.258125 221.119375) rotate(-90) scale(0.1 -0.1)">
      <defs>
       <path id="DejaVuSans-79" d="M 2059 -325
Q 1816 -950 1584 -1140
Q 1353 -1331 966 -1331
L 506 -1331
L 506 -850
L 844 -850
Q 1081 -850 1212 -737
Q 1344 -625 1503 -206
L 1606 56
L 191 3500
L 800 3500
L 1894 763
L 2988 3500
L 3597 3500
L 2059 -325
z
" transform="scale(0.015625)"/>
      </defs>
      <use xlink:href="#DejaVuSans-79"/>
     </g>
    </g>
   </g>
   <g id="patch_3">
    <path d="M 82.8 356.76
L 360 356.76
L 360 79.56
L 82.8 79.56
z
" clip-path="url(#pc4af76771e)" style="fill: #7f7f7f; stroke: #000000; stroke-linejoin: miter"/>
   </g>
   <g id="patch_4">
    <path d="M 82.8 356.76
L 221.4 356.76
L 221.4 218.16
L 82.8 218.16
z
" clip-path="url(#pc4af76771e)" style="fill: #1f77b4; stroke: #000000; stroke-linejoin: miter"/>
   </g>
   <g id="patch_5">
    <path d="M 221.4 356.76
L 360 356.76
L 360 218.16
L 221.4 218.16
z
" clip-path="url(#pc4af76771e)" style="fill: #1f77b4; stroke: #000000; stroke-linejoin: miter"/>
   </g>
   <g id="patch_6">
    <path d="M 82.8 218.16
L 221.4 218.16
L 221.4 79.56
L 82.8 79.56
z
" clip-path="url(#pc4af76771e)" style="fill: #1f77b4; stroke: #000000; stroke-linejoin: miter"/>
   </g>
   <g id="patch_7">
    <path d="M 221.4 218.16
L 360 218.16
L 360 79.56
L 221.4 79.56
z
" clip-path="url(#pc4af76771e)" style="fill: #1f77b4; stroke: #000000; stroke-linejoin: miter"/>
   </g>
   <g id="patch_8">
    <path d="M 55.08 384.48
L 55.08 51.84
" style="fill: none; stroke: #000000; stroke-width: 0.8; stroke-linejoin: miter; stroke-linecap: square"/>
   </g>
   <g id="patch_9">
    <path d="M 387.72 384.48
L 387.72 51.84
" style="fill: none; stroke: #000000; stroke-width: 0.8; stroke-linejoin: miter; stroke-linecap: square"/>
   </g>
   <g id="patch_10">
    <path d="M 55.08 384.48
L 387.72 384.48
" style="fill: none; stroke: #000000; stroke-width: 0.8; stroke-linejoin: miter; stroke-linecap: square"/>
   </g>
   <g id="patch_11">
    <path d="M 55.08 51.84
L 387.72 51.84
" style="fill: none; stroke: #000000; stroke-width: 0.8; stroke-linejoin: miter; stroke-linecap: square"/>
   </g>
   <g id="PathCollection_1">
    <defs>
     <path id="m4c70d21af5" d="M 0 2.236068
C 0.593012 2.236068 1.161816 2.000462 1.581139 1.581139
C 2.000462 1.161816 2.236068 0.593012 2.236068 0
C 2.236068 -0.593012 2.000462 -1.161816 1.581139 -1.581139
C 1.161816 -2.000462 0.593012 -2.236068 0 -2.236068
C -0.593012 -2.236068 -1.161816 -2.000462 -1.581139 -1.581139
C -2.000462 -1.161816 -2.236068 -0.593012 -2.236068 0
C -2.236068 0.593012 -2.000462 1.161816 -1.581139 1.581139
C -1.161816 2.000462 -0.593012 2.236068 0 2.236068
z
" style="stroke: #000000"/>
    </defs>
    <g clip-path="url(#pc4af76771e)">
     <use xlink:href="#m4c70d21af5" x="290.7" y="252.81" style="fill: #b45c1f; stroke: #000000"/>
     <use xlink:href="#m4c70d21af5" x="283.94012" y="253.47579" style="fill: #b45c1f; stroke: #000000"/>
     <use xlink:href="#m4c70d21af5" x="277.440019" y="255.447574" style="fill: #b45c1f; stroke: #000000"/>
     <use xlink:href="#m4c70d21af5" x="271.449491" y="258.649578" style="fill: #b45c1f; stroke: #000000"/>
     <use xlink:href="#m4c70d21af5" x="266.19875" y="262.95875" style="fill: #b45c1f; stroke: #000000"/>
     <use xlink:href="#m4c70d21af5" x="261.889578" y="268.209491" style="fill: #b45c1f; stroke: #000000"/>
     <use xlink:href="#m4c70d21af5" x="258.687574" y="274.200019" style="fill: #b45c1f; stroke: #000000"/>
     <use xlink:href="#m4c70d21af5" x="256.71579" y="280.70012" style="fill: #b45c1f; stroke: #000000"/>
     <use xlink:href="#m4c70d21af5" x="256.05" y="287.46" style="fill: #b45c1f; stroke: #000000"/>
     <use xlink:href="#m4c70d21af5" x="290.7" y="148.86" style="fill: #b45c1f; stroke: #000000"/>
     <use xlink:href="#m4c70d21af5" x="152.1" y="148.86" style="fill: #b45c1f; stroke: #000000"/>
     <use xlink:href="#m4c70d21af5" x="152.1" y="287.46" style="fill: #b45c1f; stroke: #000000"/>
    </g>
   </g>
   <g id="PathCollection_2">
    <g clip-path="url(#pc4af76771e)">
     <use xlink:href="#m4c70d21af5" x="290.7" y="252.81" style="fill: #b45c1f; stroke: #000000"/>
     <use xlink:href="#m4c70d21af5" x="283.94012" y="253.47579" style="fill: #b45c1f; stroke: #000000"/>
     <use xlink:href="#m4c70d21af5" x="277.440019" y="255.447574" style="fill: #b45c1f; stroke: #000000"/>
     <use xlink:href="#m4c70d21af5" x="271.449491" y="258.649578" style="fill: #b45c1f; stroke: #000000"/>
     <use xlink:href="#m4c70d21af5" x="266.19875" y="262.95875" style="fill: #b45c1f; stroke: #000000"/>
     <use xlink:href="#m4c70d21af5" x="261.889578" y="268.209491" style="fill: #b45c1f; stroke: #000000"/>
     <use xlink:href="#m4c70d21af5" x="258.687574" y="274.200019" style="fill: #b45c1f; stroke: #000000"/>
     <use xlink:href="#m4c70d21af5" x="256.71579" y="280.70012" style="fill: #b45c1f; stroke: #000000"/>
     <use xlink:href="#m4c70d21af5" x="256.05" y="287.46" style="fill: #b45c1f; stroke: #000000"/>
     <use xlink:href="#m4c70d21af5" x="290.7" y="148.86" style="fill: #b45c1f; stroke: #000000"/>
     <use xlink:href="#m4c70d21af5" x="152.1" y="148.86" style="fill: #b45c1f; stroke: #000000"/>
     <use xlink:href="#m4c70d21af5" x="152.1" y="287.46" style="fill: #b45c1f; stroke: #000000"/>
    </g>
   </g>
   <g id="PathCollection_3">
    <g clip-path="url(#pc4af76771e)">
     <use xlink:href="#m4c70d21af5" x="290.7" y="252.81" style="fill: #b45c1f; stroke: #000000"/>
     <use xlink:href="#m4c70d21af5" x="283.94012" y="253.47579" style="fill: #b45c1f; stroke: #000000"/>
     <use xlink:href="#m4c70d21af5" x="277.440019" y="255.447574" style="fill: #b45c1f; stroke: #000000"/>
     <use xlink:href="#m4c70d21af5" x="271.449491" y="258.649578" style="fill: #b45c1f; stroke: #000000"/>
     <use xlink:href="#m4c70d21af5" x="266.19875" y="262.95875" style="fill: #b45c1f; stroke: #000000"/>
     <use xlink:href="#m4c70d21af5" x="261.889578" y="268.209491" style="fill: #b45c1f; stroke: #000000"/>
     <use xlink:href="#m4c70d21af5" x="258.687574" y="274.200019" style="fill: #b45c1f; stroke: #000000"/>
     <use xlink:href="#m4c70d21af5" x="256.71579" y="280.70012" style="fill: #b45c1f; stroke: #000000"/>
     <use xlink:href="#m4c70d21af5" x="256.05" y="287.46" style="fill: #b45c1f; stroke: #000000"/>
     <use xlink:href="#m4c70d21af5" x="290.7" y="148.86" style="fill: #b45c1f; stroke: #000000"/>
     <use xlink:href="#m4c70d21af5" x="152.1" y="148.86" style="fill: #b45c1f; stroke: #000000"/>
     <use xlink:href="#m4c70d21af5" x="152.1" y="287.46" style="fill: #b45c1f; stroke: #000000"/>
    </g>
   </g>
   <g id="PathCollection_4">
    <g clip-path="url(#pc4af76771e)">
     <use xlink:href="#m4c70d21af5" x="290.7" y="252.81" style="fill: #b45c1f; stroke: #000000"/>
     <use xlink:href="#m4c70d21af5" x="283.94012" y="253.47579" style="fill: #b45c1f; stroke: #000000"/>
     <use xlink:href="#m4c70d21af5" x="277.440019" y="255.447574" style="fill: #b45c1f; stroke: #000000"/>
     <use xlink:href="#m4c70d21af5" x="271.449491" y="258.649578" style="fill: #b45c1f; stroke: #000000"/>
     <use xlink:href="#m4c70d21af5" x="266.19875" y="262.95875" style="fill: #b45c1f; stroke: #000000"/>
     <use xlink:href="#m4c70d21af5" x="261.889578" y="268.209491" style="fill: #b45c1f; stroke: #000000"/>
     <use xlink:href="#m4c70d21af5" x="258.687574" y="274.200019" style="fill: #b45c1f; stroke: #000000"/>
     <use xlink:href="#m4c70d21af5" x="256.71579" y="280.70012" style="fill: #b45c1f; stroke: #000000"/>
     <use xlink:href="#m4c70d21af5" x="256.05" y="287.46" style="fill: #b45c1f; stroke: #000000"/>
     <use xlink:href="#m4c70d21af5" x="290.7" y="148.86" style="fill: #b45c1f; stroke: #000000"/>
     <use xlink:href="#m4c70d21af5" x="152.1" y="148.86" style="fill: #b45c1f; stroke: #000000"/>
     <use xlink:href="#m4c70d21af5" x="152.1" y="287.46" style="fill: #b45c1f; stroke: #000000"/>
    </g>
   </g>
   <g id="text_13">
    <!-- Quadtree with 1 Level of Refinement -->
    <g transform="translate(111.061875 45.84) scale(0.12 -0.12)">
     <defs>
      <path id="DejaVuSans-51" d="M 2522 4238
Q 1834 4238 1429 3725
Q 1025 3213 1025 2328
Q 1025 1447 1429 934
Q 1834 422 2522 422
Q 3209 422 3611 934
Q 4013 1447 4013 2328
Q 4013 3213 3611 3725
Q 3209 4238 2522 4238
z
M 3406 84
L 4238 -825
L 3475 -825
L 2784 -78
Q 2681 -84 2626 -87
Q 2572 -91 2522 -91
Q 1538 -91 948 567
Q 359 1225 359 2328
Q 359 3434 948 4092
Q 1538 4750 2522 4750
Q 3503 4750 4090 4092
Q 4678 3434 4678 2328
Q 4678 1516 4351 937
Q 4025 359 3406 84
z
" transform="scale(0.015625)"/>
      <path id="DejaVuSans-75" d="M 544 1381
L 544 3500
L 1119 3500
L 1119 1403
Q 1119 906 1312 657
Q 1506 409 1894 409
Q 2359 409 2629 706
Q 2900 1003 2900 1516
L 2900 3500
L 3475 3500
L 3475 0
L 2900 0
L 2900 538
Q 2691 219 2414 64
Q 2138 -91 1772 -91
Q 1169 -91 856 284
Q 544 659 544 1381
z
M 1991 3584
L 1991 3584
z
" transform="scale(0.015625)"/>
      <path id="DejaVuSans-61" d="M 2194 1759
Q 1497 1759 1228 1600
Q 959 1441 959 1056
Q 959 750 1161 570
Q 1363 391 1709 391
Q 2188 391 2477 730
Q 2766 1069 2766 1631
L 2766 1759
L 2194 1759
z
M 3341 1997
L 3341 0
L 2766 0
L 2766 531
Q 2569 213 2275 61
Q 1981 -91 1556 -91
Q 1019 -91 701 211
Q 384 513 384 1019
Q 384 1609 779 1909
Q 1175 2209 1959 2209
L 2766 2209
L 2766 2266
Q 2766 2663 2505 2880
Q 2244 3097 1772 3097
Q 1472 3097 1187 3025
Q 903 2953 641 2809
L 641 3341
Q 956 3463 1253 3523
Q 1550 3584 1831 3584
Q 2591 3584 2966 3190
Q 3341 2797 3341 1997
z
" transform="scale(0.015625)"/>
      <path id="DejaVuSans-64" d="M 2906 2969
L 2906 4863
L 3481 4863
L 3481 0
L 2906 0
L 2906 525
Q 2725 213 2448 61
Q 2172 -91 1784 -91
Q 1150 -91 751 415
Q 353 922 353 1747
Q 353 2572 751 3078
Q 1150 3584 1784 3584
Q 2172 3584 2448 3432
Q 2725 3281 2906 2969
z
M 947 1747
Q 947 1113 1208 752
Q 1469 391 1925 391
Q 2381 391 2643 752
Q 2906 1113 2906 1747
Q 2906 2381 2643 2742
Q 2381 3103 1925 3103
Q 1469 3103 1208 2742
Q 947 2381 947 1747
z
" transform="scale(0.015625)"/>
      <path id="DejaVuSans-74" d="M 1172 4494
L 1172 3500
L 2356 3500
L 2356 3053
L 1172 3053
L 1172 1153
Q 1172 725 1289 603
Q 1406 481 1766 481
L 2356 481
L 2356 0
L 1766 0
Q 1100 0 847 248
Q 594 497 594 1153
L 594 3053
L 172 3053
L 172 3500
L 594 3500
L 594 4494
L 1172 4494
z
" transform="scale(0.015625)"/>
      <path id="DejaVuSans-72" d="M 2631 2963
Q 2534 3019 2420 3045
Q 2306 3072 2169 3072
Q 1681 3072 1420 2755
Q 1159 2438 1159 1844
L 1159 0
L 581 0
L 581 3500
L 1159 3500
L 1159 2956
Q 1341 3275 1631 3429
Q 1922 3584 2338 3584
Q 2397 3584 2469 3576
Q 2541 3569 2628 3553
L 2631 2963
z
" transform="scale(0.015625)"/>
      <path id="DejaVuSans-65" d="M 3597 1894
L 3597 1613
L 953 1613
Q 991 1019 1311 708
Q 1631 397 2203 397
Q 2534 397 2845 478
Q 3156 559 3463 722
L 3463 178
Q 3153 47 2828 -22
Q 2503 -91 2169 -91
Q 1331 -91 842 396
Q 353 884 353 1716
Q 353 2575 817 3079
Q 1281 3584 2069 3584
Q 2775 3584 3186 3129
Q 3597 2675 3597 1894
z
M 3022 2063
Q 3016 2534 2758 2815
Q 2500 3097 2075 3097
Q 1594 3097 1305 2825
Q 1016 2553 972 2059
L 3022 2063
z
" transform="scale(0.015625)"/>
      <path id="DejaVuSans-20" transform="scale(0.015625)"/>
      <path id="DejaVuSans-77" d="M 269 3500
L 844 3500
L 1563 769
L 2278 3500
L 2956 3500
L 3675 769
L 4391 3500
L 4966 3500
L 4050 0
L 3372 0
L 2619 2869
L 1863 0
L 1184 0
L 269 3500
z
" transform="scale(0.015625)"/>
      <path id="DejaVuSans-69" d="M 603 3500
L 1178 3500
L 1178 0
L 603 0
L 603 3500
z
M 603 4863
L 1178 4863
L 1178 4134
L 603 4134
L 603 4863
z
" transform="scale(0.015625)"/>
      <path id="DejaVuSans-68" d="M 3513 2113
L 3513 0
L 2938 0
L 2938 2094
Q 2938 2591 2744 2837
Q 2550 3084 2163 3084
Q 1697 3084 1428 2787
Q 1159 2491 1159 1978
L 1159 0
L 581 0
L 581 4863
L 1159 4863
L 1159 2956
Q 1366 3272 1645 3428
Q 1925 3584 2291 3584
Q 2894 3584 3203 3211
Q 3513 2838 3513 2113
z
" transform="scale(0.015625)"/>
      <path id="DejaVuSans-31" d="M 794 531
L 1825 531
L 1825 4091
L 703 3866
L 703 4441
L 1819 4666
L 2450 4666
L 2450 531
L 3481 531
L 3481 0
L 794 0
L 794 531
z
" transform="scale(0.015625)"/>
      <path id="DejaVuSans-4c" d="M 628 4666
L 1259 4666
L 1259 531
L 3531 531
L 3531 0
L 628 0
L 628 4666
z
" transform="scale(0.015625)"/>
      <path id="DejaVuSans-76" d="M 191 3500
L 800 3500
L 1894 563
L 2988 3500
L 3597 3500
L 2284 0
L 1503 0
L 191 3500
z
" transform="scale(0.015625)"/>
      <path id="DejaVuSans-6c" d="M 603 4863
L 1178 4863
L 1178 0
L 603 0
L 603 4863
z
" transform="scale(0.015625)"/>
      <path id="DejaVuSans-6f" d="M 1959 3097
Q 1497 3097 1228 2736
Q 959 2375 959 1747
Q 959 1119 1226 758
Q 1494 397 1959 397
Q 2419 397 2687 759
Q 2956 1122 2956 1747
Q 2956 2369 2687 2733
Q 2419 3097 1959 3097
z
M 1959 3584
Q 2709 3584 3137 3096
Q 3566 2609 3566 1747
Q 3566 888 3137 398
Q 2709 -91 1959 -91
Q 1206 -91 779 398
Q 353 888 353 1747
Q 353 2609 779 3096
Q 1206 3584 1959 3584
z
" transform="scale(0.015625)"/>
      <path id="DejaVuSans-66" d="M 2375 4863
L 2375 4384
L 1825 4384
Q 1516 4384 1395 4259
Q 1275 4134 1275 3809
L 1275 3500
L 2222 3500
L 2222 3053
L 1275 3053
L 1275 0
L 697 0
L 697 3053
L 147 3053
L 147 3500
L 697 3500
L 697 3744
Q 697 4328 969 4595
Q 1241 4863 1831 4863
L 2375 4863
z
" transform="scale(0.015625)"/>
      <path id="DejaVuSans-52" d="M 2841 2188
Q 3044 2119 3236 1894
Q 3428 1669 3622 1275
L 4263 0
L 3584 0
L 2988 1197
Q 2756 1666 2539 1819
Q 2322 1972 1947 1972
L 1259 1972
L 1259 0
L 628 0
L 628 4666
L 2053 4666
Q 2853 4666 3247 4331
Q 3641 3997 3641 3322
Q 3641 2881 3436 2590
Q 3231 2300 2841 2188
z
M 1259 4147
L 1259 2491
L 2053 2491
Q 2509 2491 2742 2702
Q 2975 2913 2975 3322
Q 2975 3731 2742 3939
Q 2509 4147 2053 4147
L 1259 4147
z
" transform="scale(0.015625)"/>
      <path id="DejaVuSans-6e" d="M 3513 2113
L 3513 0
L 2938 0
L 2938 2094
Q 2938 2591 2744 2837
Q 2550 3084 2163 3084
Q 1697 3084 1428 2787
Q 1159 2491 1159 1978
L 1159 0
L 581 0
L 581 3500
L 1159 3500
L 1159 2956
Q 1366 3272 1645 3428
Q 1925 3584 2291 3584
Q 2894 3584 3203 3211
Q 3513 2838 3513 2113
z
" transform="scale(0.015625)"/>
      <path id="DejaVuSans-6d" d="M 3328 2828
Q 3544 3216 3844 3400
Q 4144 3584 4550 3584
Q 5097 3584 5394 3201
Q 5691 2819 5691 2113
L 5691 0
L 5113 0
L 5113 2094
Q 5113 2597 4934 2840
Q 4756 3084 4391 3084
Q 3944 3084 3684 2787
Q 3425 2491 3425 1978
L 3425 0
L 2847 0
L 2847 2094
Q 2847 2600 2669 2842
Q 2491 3084 2119 3084
Q 1678 3084 1418 2786
Q 1159 2488 1159 1978
L 1159 0
L 581 0
L 581 3500
L 1159 3500
L 1159 2956
Q 1356 3278 1631 3431
Q 1906 3584 2284 3584
Q 2666 3584 2933 3390
Q 3200 3197 3328 2828
z
" transform="scale(0.015625)"/>
     </defs>
     <use xlink:href="#DejaVuSans-51"/>
     <use xlink:href="#DejaVuSans-75" transform="translate(78.710938 0)"/>
     <use xlink:href="#DejaVuSans-61" transform="translate(142.089844 0)"/>
     <use xlink:href="#DejaVuSans-64" transform="translate(203.369141 0)"/>
     <use xlink:href="#DejaVuSans-74" transform="translate(266.845703 0)"/>
     <use xlink:href="#DejaVuSans-72" transform="translate(306.054688 0)"/>
     <use xlink:href="#DejaVuSans-65" transform="translate(344.917969 0)"/>
     <use xlink:href="#DejaVuSans-65" transform="translate(406.441406 0)"/>
     <use xlink:href="#DejaVuSans-20" transform="translate(467.964844 0)"/>
     <use xlink:href="#DejaVuSans-77" transform="translate(499.751953 0)"/>
     <use xlink:href="#DejaVuSans-69" transform="translate(581.539062 0)"/>
     <use xlink:href="#DejaVuSans-74" transform="translate(609.322266 0)"/>
     <use xlink:href="#DejaVuSans-68" transform="translate(648.53125 0)"/>
     <use xlink:href="#DejaVuSans-20" transform="translate(711.910156 0)"/>
     <use xlink:href="#DejaVuSans-31" transform="translate(743.697266 0)"/>
     <use xlink:href="#DejaVuSans-20" transform="translate(807.320312 0)"/>
     <use xlink:href="#DejaVuSans-4c" transform="translate(839.107422 0)"/>
     <use xlink:href="#DejaVuSans-65" transform="translate(893.070312 0)"/>
     <use xlink:href="#DejaVuSans-76" transform="translate(954.59375 0)"/>
     <use xlink:href="#DejaVuSans-65" transform="translate(1013.773438 0)"/>
     <use xlink:href="#DejaVuSans-6c" transform="translate(1075.296875 0)"/>
     <use xlink:href="#DejaVuSans-20" transform="translate(1103.080078 0)"/>
     <use xlink:href="#DejaVuSans-6f" transform="translate(1134.867188 0)"/>
     <use xlink:href="#DejaVuSans-66" transform="translate(1196.048828 0)"/>
     <use xlink:href="#DejaVuSans-20" transform="translate(1231.253906 0)"/>
     <use xlink:href="#DejaVuSans-52" transform="translate(1263.041016 0)"/>
     <use xlink:href="#DejaVuSans-65" transform="translate(1328.023438 0)"/>
     <use xlink:href="#DejaVuSans-66" transform="translate(1389.546875 0)"/>
     <use xlink:href="#DejaVuSans-69" transform="translate(1424.751953 0)"/>
     <use xlink:href="#DejaVuSans-6e" transform="translate(1452.535156 0)"/>
     <use xlink:href="#DejaVuSans-65" transform="translate(1515.914062 0)"/>
     <use xlink:href="#DejaVuSans-6d" transform="translate(1577.4375 0)"/>
     <use xlink:href="#DejaVuSans-65" transform="translate(1674.849609 0)"/>
     <use xlink:href="#DejaVuSans-6e" transform="translate(1736.373047 0)"/>
     <use xlink:href="#DejaVuSans-74" transform="translate(1799.751953 0)"/>
    </g>
   </g>
  </g>
 </g>
 <defs>
  <clipPath id="pc4af76771e">
   <rect x="55.08" y="51.84" width="332.64" height="332.64"/>
  </clipPath>
 </defs>
</svg>
