<?xml version="1.0" encoding="UTF-8" standalone="no"?>
<!-- Created with Inkscape (http://www.inkscape.org/) -->

<svg
   width="6.7770166mm"
   height="5.8025203mm"
   viewBox="0 0 6.7770166 5.8025203"
   version="1.1"
   id="svg1"
   xml:space="preserve"
   inkscape:version="1.3 (0e150ed, 2023-07-21)"
   sodipodi:docname="elliptic.svg"
   xmlns:inkscape="http://www.inkscape.org/namespaces/inkscape"
   xmlns:sodipodi="http://sodipodi.sourceforge.net/DTD/sodipodi-0.dtd"
   xmlns="http://www.w3.org/2000/svg"
   xmlns:svg="http://www.w3.org/2000/svg"><sodipodi:namedview
     id="namedview1"
     pagecolor="#ffffff"
     bordercolor="#000000"
     borderopacity="0.25"
     inkscape:showpageshadow="2"
     inkscape:pageopacity="0.0"
     inkscape:pagecheckerboard="0"
     inkscape:deskcolor="#d1d1d1"
     inkscape:document-units="mm"
     inkscape:zoom="0.72693602"
     inkscape:cx="422.32052"
     inkscape:cy="464.27745"
     inkscape:window-width="1581"
     inkscape:window-height="871"
     inkscape:window-x="26"
     inkscape:window-y="23"
     inkscape:window-maximized="0"
     inkscape:current-layer="layer1"
     inkscape:export-bgcolor="#ffffff00" /><defs
     id="defs1" /><g
     inkscape:label="Layer 1"
     inkscape:groupmode="layer"
     id="layer1"
     transform="translate(-72.217752,-146.01206)"><path
       style="fill:#0e0c20;fill-opacity:1;stroke:#b6c3ef;stroke-width:0.0767736;stroke-linecap:round;stroke-linejoin:round;stroke-dasharray:none;stroke-opacity:1"
       id="path33"
       d="m 77.790811,149.03292 c 0.0081,-0.006 0.01303,-0.0577 0.0089,-0.0236 0.0015,0.008 0.003,0.0158 0.0035,0.0236 6.3e-5,6.7e-4 -0.0015,3e-5 -0.0022,-3.3e-4 -0.003,-0.003 -0.0051,-0.006 -0.0081,-0.008 -0.003,-10e-4 -0.01149,-0.0153 -0.01714,-0.009 -0.03079,-0.006 -0.06173,-0.006 -0.09225,0.003 -0.0035,9.3e-4 -0.01068,1.6e-4 -0.0098,0.003 6.92e-4,0.003 0.0074,-6.6e-4 0.01056,-6.7e-4 0.0058,-7.1e-4 0.0087,-0.003 0.0093,-9.6e-4 0.0015,0.006 -0.0043,0.006 0.0015,0.003 -0.0043,0.021 -0.0081,0.0427 -0.0022,0.0637 0.01164,0.0513 0.04258,0.0829 0.07833,0.11935 0.05234,0.0467 0.109695,0.0872 0.162409,0.13344 0.05782,0.0549 0.104277,0.12516 0.110717,0.20685 0.0022,0.0228 -6.41e-4,0.046 -6.91e-4,0.0689 -0.0058,0.0234 -0.0083,0.0482 -0.01748,0.0703 -0.03983,0.0959 -0.124525,0.16434 -0.213722,0.21227 -0.01945,0.009 -0.04005,0.0188 -0.06006,0.0282 -0.0855,0.0307 -0.176909,0.0493 -0.268207,0.0417 -0.05863,-0.006 -0.08312,-0.0138 -0.138635,-0.0293 -0.105174,-0.0344 -0.206926,-0.0838 -0.289667,-0.15861 -0.01648,-0.0153 -0.03136,-0.0312 -0.04704,-0.0471 -0.07588,-0.0853 -0.135756,-0.18324 -0.170036,-0.29262 -0.0074,-0.0224 -0.01195,-0.0453 -0.01792,-0.068 -0.01822,-0.10938 -0.02199,-0.22261 -0.003,-0.33236 0.0035,-0.0205 0.0087,-0.0408 0.01303,-0.0613 0.02891,-0.0979 0.07259,-0.19208 0.130269,-0.27654 0.01068,-0.0157 0.02241,-0.0305 0.03363,-0.0458 0.05631,-0.0707 0.116695,-0.13788 0.165575,-0.21402 5.09e-4,-6.9e-4 0.01241,-0.0199 0.01045,-0.0269 -0.003,-0.008 -0.0066,0.0137 -0.01,0.008 -0.0035,-0.006 -0.0051,-0.0123 -0.0076,-0.0172 -0.0425,-0.0712 -0.109388,-0.12332 -0.173883,-0.17365 -0.04019,-0.0303 -0.08169,-0.0593 -0.126975,-0.0817 -0.03405,-0.0167 -0.07012,-0.0285 -0.106344,-0.0394 -0.0086,-10e-4 -0.01676,-0.006 -0.02529,-0.006 -0.02428,-0.003 -0.06838,0.009 -0.08731,0.0153 -0.06159,0.0202 -0.07472,0.0307 -0.133548,0.0619 -0.09552,0.0585 -0.180053,0.13344 -0.247448,0.22321 -0.04691,0.0625 -0.05239,0.0796 -0.08849,0.14845 -0.01045,0.0256 -0.0219,0.0509 -0.03101,0.077 -0.02473,0.0707 -0.04583,0.15796 -0.03766,0.23355 0.0015,0.0137 0.0051,0.0262 0.0074,0.0392 0.02828,0.10279 0.08378,0.19496 0.143063,0.28257 0.08795,0.11888 0.203508,0.21351 0.318393,0.30518 0.07113,0.0577 0.147888,0.10903 0.212711,0.17432 0.0459,0.0461 0.05067,0.0563 0.08966,0.10858 0.04961,0.0738 0.08361,0.15648 0.0995,0.24407 0.0058,0.032 0.01136,0.091 0.01486,0.12394 0.0081,0.0956 0.02696,0.19122 0.02349,0.28774 -6.41e-4,0.0179 -0.003,0.0356 -0.0043,0.0533 -0.0051,0.0217 -0.0087,0.0439 -0.0162,0.065 -0.0237,0.0664 -0.06579,0.1215 -0.119238,0.1667 -0.04576,0.0387 -0.06744,0.0474 -0.120235,0.077 -0.0258,0.009 -0.05103,0.0232 -0.07731,0.0325 -0.05928,0.0215 -0.118365,0.0352 -0.180124,0.0475 -0.0639,0.0123 -0.131419,0.0225 -0.196202,0.029 -0.03237,0.003 -0.06499,0.006 -0.09747,0.006 -0.123314,0.006 -0.248541,3.4e-4 -0.366676,-0.0392 -0.07738,-0.0259 -0.0997,-0.0421 -0.170946,-0.0809 -0.122655,-0.0778 -0.23357,-0.17518 -0.319752,-0.29272 -0.01729,-0.0236 -0.03237,-0.0484 -0.04857,-0.0729 -0.07215,-0.1175 -0.120634,-0.24638 -0.148501,-0.38111 -0.0051,-0.0259 -0.0091,-0.0521 -0.01379,-0.0783 -0.02401,-0.16561 -0.0058,-0.33243 0.0098,-0.49781 0.01287,-0.17486 0.0529,-0.34577 0.09173,-0.51626 0.03109,-0.13069 0.06549,-0.26052 0.09322,-0.39198 0.01604,-0.076 0.02032,-0.10199 0.03398,-0.17696 0.0206,-0.12011 0.03144,-0.24171 0.04021,-0.36323 -5.1e-4,-0.0216 0.0015,-0.0439 -0.0066,-0.0645 -0.0015,-0.003 -0.0015,-0.009 -0.0043,-0.008 -0.01102,0.006 0.018,0.0259 -0.01045,9.4e-4 -0.06251,-0.0508 -0.131863,-0.0963 -0.206818,-0.1267 -0.0188,-0.008 -0.03838,-0.0137 -0.05758,-0.0199 -0.08272,-0.0218 -0.168424,-0.0394 -0.254482,-0.0329 -0.04662,0.003 -0.06043,0.009 -0.105946,0.0207 -0.01612,0.006 -0.03284,0.0102 -0.04829,0.0192 -0.05182,0.0256 -0.09986,0.0766 -0.130163,0.12486 -0.0093,0.0153 -0.01655,0.0307 -0.02486,0.046 -0.03831,0.0876 -0.06561,0.18376 -0.06123,0.28042 6.91e-4,0.0175 0.0035,0.0346 0.0058,0.0519 0.02175,0.13222 0.07931,0.25326 0.13842,0.37212 0.05661,0.12058 0.13911,0.22524 0.219983,0.32999 0.01149,0.0153 0.02271,0.0299 0.03418,0.0447 0.03297,0.0427 0.066,0.0847 0.09653,0.12915 0.02595,0.0377 0.03057,0.0462 0.05434,0.0847 0.03268,0.059 0.05819,0.12195 0.07387,0.18776 0.0093,0.0395 0.01045,0.0536 0.01582,0.0943 0.0074,0.0622 0.0081,0.12578 -0.0058,0.18726 -0.01,0.0441 -0.01672,0.0567 -0.03297,0.0978 -0.04852,0.10154 -0.119347,0.16216 -0.218357,0.21297 -0.01993,0.009 -0.04062,0.0187 -0.061,0.0282 -0.07746,0.0335 -0.158251,0.0605 -0.242034,0.0726 -0.05559,0.008 -0.07048,0.006 -0.126302,0.006 -0.07919,-0.003 -0.159467,-0.017 -0.231076,-0.0528 -0.04901,-0.0249 -0.06145,-0.038 -0.103232,-0.0714 -0.06006,-0.0541 -0.10723,-0.11859 -0.133578,-0.1954 -0.01849,-0.0539 -0.01729,-0.07 -0.02423,-0.12762 -0.0051,-0.11552 0.02096,-0.22855 0.0485,-0.33986 0.0219,-0.0794 0.04754,-0.15747 0.05653,-0.23953 6.43e-4,-0.0304 0.0043,-0.0662 -0.01149,-0.0936 -0.0051,-0.009 -0.0097,-0.0123 -0.01648,-0.0196 -0.0035,-0.003 -0.008,-6.8e-4 -0.01195,-9.4e-4 -0.0058,-9.5e-4 -0.0109,-0.003 -0.01626,-0.006 -0.0093,-0.001 -0.0185,-0.006 -0.0279,-0.006 -0.03259,-0.006 -0.02811,-0.006 -0.05867,-0.006 -0.02441,4e-5 -0.05393,3.1e-4 -0.06775,0.0239 0.01149,-0.006 0.01835,-0.0137 0.02469,-0.0239 6.92e-4,-9.3e-4 0.0018,-0.006 0.003,-0.006 0.0018,9.5e-4 0.0018,0.006 0.0018,0.008 0.0018,0.006 0.0018,0.009 0.0039,0.0137 0.01608,0.0394 0.03662,0.0764 0.05591,0.11414 0.02646,0.0572 0.04865,0.11919 0.05154,0.1828 6.39e-4,0.0153 -3.97e-4,0.0295 -5.12e-4,0.0441 -0.003,0.0154 -0.0043,0.0311 -0.008,0.0462 -0.01102,0.0441 -0.03606,0.0956 -0.06606,0.13037 -0.0095,0.009 -0.01986,0.0202 -0.02991,0.0303 -0.05744,0.0446 -0.12621,0.0738 -0.200434,0.0567 -0.0194,-0.006 -0.037,-0.0137 -0.05554,-0.0216 -0.037,-0.0241 -0.07919,-0.0504 -0.108627,-0.084 -0.0086,-0.009 -0.01617,-0.0218 -0.02441,-0.0326 -0.01692,-0.0269 -0.02952,-0.0563 -0.04239,-0.0855 -0.08554,-0.20497 0.204313,-0.32591 0.28983,-0.12089 v 0 c 0.0039,0.009 0.0086,0.0202 0.0118,0.0304 -0.0048,-0.006 -0.01731,-0.0153 -0.01317,-0.009 0.0086,0.008 0.01988,0.0153 0.02819,0.0239 -0.03596,-0.009 -0.04636,-0.0123 -0.08261,8e-5 -0.0048,9.5e-4 -0.0098,0.0137 -0.01318,0.0123 -0.01516,0.0216 -3.96e-4,9.6e-4 0.0018,9.6e-4 0.003,3.2e-4 -0.0018,0.008 0.0018,0.008 0.0057,6.5e-4 0.0018,6.9e-4 0.0018,-0.0123 -6.9e-4,-0.021 -0.0075,-0.0409 -0.01626,-0.0597 -0.03197,-0.0629 -0.06898,-0.1241 -0.08422,-0.19389 -0.0086,-0.0488 -0.01674,-0.0963 -0.0075,-0.14615 0.01102,-0.0607 0.04097,-0.11108 0.08676,-0.15184 0.01211,-0.009 0.02375,-0.0183 0.03662,-0.0262 0.07561,-0.0466 0.162717,-0.0611 0.250377,-0.0549 0.01879,0.001 0.03772,0.003 0.05644,0.006 0.08215,0.0137 0.168274,0.0387 0.233298,0.0928 0.01707,0.0137 0.03079,0.032 0.04619,0.0479 0.02811,0.0434 0.03954,0.0558 0.05747,0.10552 0.02537,0.0706 0.02667,0.14677 0.02038,0.22057 -0.0022,0.0175 -0.0043,0.0348 -0.0074,0.0519 -0.01287,0.0759 -0.03679,0.14892 -0.05789,0.22257 -0.0195,0.0767 -0.04069,0.15428 -0.04135,0.23379 0.0043,0.0519 0.01409,0.0856 0.05227,0.12318 0.0066,0.006 0.02335,0.0218 0.03194,0.0274 0.03237,0.021 0.07267,0.0253 0.109876,0.0304 0.0118,3.4e-4 0.02364,9.5e-4 0.03542,9.5e-4 0.07207,-9.5e-4 0.141975,-0.0227 0.207549,-0.0514 0.03253,-0.0153 0.06037,-0.0291 0.08923,-0.0505 0.0089,-0.006 0.01633,-0.0123 0.02291,-0.021 0.0035,-0.006 0.0066,-0.0102 0.01,-0.0167 0.003,-0.006 0.01195,-0.0253 0.0144,-0.0335 0.0091,-0.0311 0.0075,-0.0641 0.0051,-0.0959 -0.0066,-0.058 -0.02032,-0.11461 -0.04786,-0.16652 -0.0472,-0.0839 -0.104152,-0.15958 -0.162082,-0.23633 -0.0874,-0.12103 -0.173904,-0.2436 -0.24111,-0.37727 -0.02956,-0.0585 -0.04416,-0.0852 -0.07009,-0.1457 -0.04524,-0.10552 -0.08037,-0.21596 -0.09977,-0.32928 -0.0022,-0.0298 -0.0074,-0.0593 -0.0075,-0.0893 -0.0022,-0.10711 0.02601,-0.22997 0.06404,-0.32967 0.01056,-0.0279 0.02357,-0.0544 0.03543,-0.0817 0.03989,-0.0699 0.04617,-0.0892 0.09923,-0.14952 0.07987,-0.0909 0.174033,-0.14846 0.29027,-0.18094 0.07351,-0.0167 0.09876,-0.0259 0.174732,-0.0293 0.116053,-0.006 0.229819,0.0243 0.34177,0.0502 0.02978,0.009 0.06013,0.0171 0.08944,0.0282 0.06715,0.025 0.129657,0.0618 0.189846,0.10006 0.01929,0.0123 0.03867,0.0245 0.05716,0.0377 0.01909,0.0137 0.03699,0.0288 0.05551,0.0434 0.04734,0.0503 0.05739,0.053 0.08693,0.11965 0.0074,0.0161 0.01056,0.0337 0.0141,0.0512 0.0095,0.0474 0.0075,0.0956 0.0022,0.14324 -0.01763,0.12977 -0.0342,0.25983 -0.06159,0.388 -0.04213,0.19101 -0.08676,0.38146 -0.130361,0.57213 -0.03268,0.16015 -0.06766,0.32036 -0.08055,0.48364 -0.01272,0.13988 -0.02971,0.28119 -0.0095,0.42122 0.0035,0.0206 0.0066,0.0412 0.01068,0.0618 0.02024,0.10086 0.05284,0.19862 0.105663,0.28733 0.01149,0.0171 0.02227,0.0351 0.03448,0.0517 0.06346,0.0872 0.14058,0.16396 0.231389,0.22248 0.04237,0.0233 0.06526,0.0383 0.110319,0.0549 0.08632,0.0317 0.17972,0.0366 0.270708,0.0352 0.02748,-9.5e-4 0.05493,-0.003 0.08233,-0.006 0.11665,-0.009 0.233855,-0.0345 0.339992,-0.0852 0.0279,-0.0168 0.05385,-0.0331 0.0782,-0.0546 0.0058,-0.006 0.01303,-0.009 0.01764,-0.0166 0.003,-0.003 0.0043,-0.008 0.0066,-0.0123 0.0043,-0.0276 0.0058,-0.0331 0.0066,-0.0628 0.0015,-0.071 -0.0098,-0.14141 -0.01792,-0.21152 -0.01102,-0.0794 -0.01728,-0.16064 -0.06122,-0.23014 -0.0075,-0.0102 -0.01455,-0.0228 -0.02276,-0.0339 -0.06114,-0.0795 -0.147091,-0.13512 -0.221371,-0.20102 -0.111239,-0.0944 -0.228172,-0.18898 -0.32549,-0.29787 -0.01843,-0.0206 -0.03499,-0.0427 -0.05247,-0.0642 -0.01425,-0.0207 -0.02912,-0.041 -0.04258,-0.0622 -0.01685,-0.0267 -0.05401,-0.095 -0.06758,-0.12195 -0.0227,-0.0452 -0.04625,-0.0957 -0.06173,-0.14402 -0.0083,-0.026 -0.01379,-0.0528 -0.02074,-0.0792 -0.0087,-0.0756 -0.0144,-0.0887 -0.0058,-0.16465 0.003,-0.0269 0.0083,-0.0533 0.0144,-0.0795 0.02182,-0.0959 0.0566,-0.18841 0.09982,-0.2766 0.04966,-0.0912 0.05718,-0.11323 0.120174,-0.1961 0.08941,-0.11766 0.200696,-0.21493 0.326727,-0.29163 0.0313,-0.0172 0.0618,-0.0359 0.09385,-0.0516 0.08643,-0.0427 0.18051,-0.0783 0.278212,-0.0802 0.04403,-7e-4 0.06938,0.009 0.108956,0.0218 0.05175,0.0202 0.103209,0.0412 0.152284,0.0676 0.05726,0.0307 0.110751,0.0677 0.16213,0.10744 0.103663,0.0815 0.208618,0.16601 0.270815,0.28519 0.0195,0.0458 0.03275,0.0685 0.03867,0.11996 0.0087,0.0763 -0.01718,0.14769 -0.05955,0.20983 -0.05464,0.075 -0.116389,0.14431 -0.174031,0.21694 -0.04777,0.0663 -0.09069,0.13146 -0.114243,0.21078 -0.0195,0.0835 -0.02818,0.16979 -0.01487,0.25503 0.0035,0.0137 0.0066,0.0283 0.01056,0.0425 0.02002,0.0682 0.05552,0.13007 0.103289,0.18266 0.0083,0.009 0.01626,0.0177 0.02502,0.026 0.04988,0.0469 0.109945,0.0827 0.175502,0.10233 0.02349,0.006 0.04656,0.0138 0.07056,0.0176 0.04662,0.006 0.09337,-0.003 0.137775,-0.0167 0.03268,-0.0137 0.03022,-0.009 0.06173,-0.0295 0.0083,-0.006 0.01627,-0.009 0.02399,-0.0158 0.0051,-0.003 0.0087,-0.009 0.0144,-0.0123 0.0022,-9.4e-4 0.0043,0.006 0.008,0.001 6.9e-4,6.5e-4 0.0022,10e-4 0.003,9.4e-4 0.0015,-6.9e-4 3.95e-4,-0.003 6.92e-4,-0.006 0.003,-0.009 -0.0043,-0.017 -0.01149,-0.0244 -0.05747,-0.0509 -0.115684,-0.10086 -0.171169,-0.15375 -0.0334,-0.0334 -0.05877,-0.0567 -0.08756,-0.0948 -0.04243,-0.0562 -0.06859,-0.12149 -0.08254,-0.19029 -0.0022,-0.0172 -0.0051,-0.0344 -0.0058,-0.0517 -0.0043,-0.0712 0.0093,-0.14309 0.03989,-0.2075 0.0076,-0.0123 0.01471,-0.0259 0.02322,-0.038 0.0454,-0.0642 0.112807,-0.10858 0.19073,-0.12072 0.09376,-0.0123 0.185519,-0.009 0.274691,0.0259 0.01633,0.009 0.03346,0.0163 0.04901,0.0264 0.04366,0.0285 0.102585,0.0926 0.124601,0.13941 0.01,0.0211 0.01546,0.0441 0.02322,0.0662 0.0015,0.0175 0.0035,0.0346 0.0035,0.0519 1.01e-4,0.0394 -0.01287,0.0778 -0.02175,0.11566 -0.07401,0.21197 -0.373782,0.10745 -0.29975,-0.1046 z" /><path
       style="fill:#0e0c20;fill-opacity:1;stroke:#b6c3ef;stroke-width:0.0986533;stroke-linecap:round;stroke-linejoin:round;stroke-dasharray:none;stroke-opacity:1"
       id="path36"
       d="m 76.572584,146.51204 c 0.01745,0.0153 0.03539,0.0288 0.05236,0.0441 0.06078,0.0546 0.0895,0.0864 0.14985,0.1437 0.09258,0.0881 0.188692,0.17126 0.286899,0.25301 0.200502,0.16613 0.419261,0.30665 0.643588,0.43786 0.16204,0.0954 0.327686,0.18478 0.48752,0.284 0.133563,0.078 0.257899,0.16925 0.378678,0.26545 0.07368,0.0604 0.146983,0.12134 0.227788,0.17204 0.07609,0.0588 0.131419,0.13435 0.144365,0.23193 0.0034,0.025 3.45e-4,0.0505 5.08e-4,0.0759 -0.01552,0.16059 -0.04658,0.31929 -0.087,0.47531 -0.03797,0.13835 -0.0728,0.27798 -0.118596,0.4141 -0.03093,0.0919 -0.05529,0.15106 -0.0906,0.24153 -0.07987,0.20783 -0.153975,0.41786 -0.228792,0.62757 -0.01102,0.032 -0.0218,0.064 -0.03288,0.0959 -0.02269,0.0654 -0.04081,0.12011 -0.06966,0.18342 -0.04469,0.098 -0.101744,0.18958 -0.156292,0.28228 -0.05159,0.083 -0.09516,0.17085 -0.146891,0.25381 -0.0421,0.0651 -0.02252,0.0342 -0.05898,0.0927 -0.02578,0.0444 -0.04831,0.0917 -0.06108,0.14171 -0.02691,0.10086 -0.03962,0.14294 -0.145252,0.2092 -0.02498,0.0158 -0.05634,0.0175 -0.0845,0.026 -0.02056,0.003 -0.04105,0.006 -0.0617,0.009 -0.09223,0.0123 -0.185258,0.0177 -0.277647,0.028 -0.40836,0.0445 0.171639,-0.0157 -0.284071,0.0311 -0.286413,0.0243 -0.570066,0.0717 -0.85471,0.11029 -0.161144,0.0183 -0.322082,0.0385 -0.484295,0.0425 -0.168903,-9.4e-4 -0.337369,0.0123 -0.505014,0.0313 -0.02128,9.5e-4 -0.04255,0.003 -0.06385,0.006 -0.09697,0.006 -0.103868,0.001 -0.205448,0.006 -0.09013,0.005 -0.179984,0.0137 -0.269768,0.0223 -0.09829,0.009 -0.20612,0.0356 -0.297471,-0.0194 -0.03057,-0.0182 -0.05425,-0.0461 -0.0814,-0.0694 -0.01348,-0.0216 -0.02846,-0.0425 -0.04032,-0.0651 -0.01501,-0.0286 -0.0329,-0.0813 -0.04515,-0.11244 -0.02679,-0.0684 -0.05811,-0.13405 -0.09036,-0.19992 -0.135142,-0.25196 -0.336437,-0.45933 -0.526508,-0.66996 -0.107184,-0.1152 -0.208258,-0.23579 -0.30743,-0.35786 -0.06406,-0.0787 -0.10698,-0.13145 -0.165129,-0.21484 -0.02574,-0.0368 -0.04958,-0.075 -0.07437,-0.11244 -0.09367,-0.14738 -0.171971,-0.30356 -0.265864,-0.45075 -0.04239,-0.0664 -0.07579,-0.11278 -0.120709,-0.17694 -0.07796,-0.11475 -0.171082,-0.21306 -0.270934,-0.30821 -0.09433,-0.086 -0.1341,-0.19912 -0.08298,-0.32251 0.02762,-0.0667 0.06113,-0.0926 0.10873,-0.14063 0.09763,-0.0827 0.207132,-0.14954 0.311062,-0.2237 0.03699,-0.0264 0.106128,-0.079 0.143108,-0.1071 0.129488,-0.10325 0.261509,-0.20292 0.396002,-0.29945 0.166616,-0.11905 0.337593,-0.23147 0.510663,-0.34077 0.18221,-0.11336 0.348295,-0.24916 0.521437,-0.37519 0.03462,-0.0241 0.06917,-0.0482 0.103891,-0.0719 0.101051,-0.0695 0.104379,-0.069 0.198294,-0.14065 0.07259,-0.0554 0.140687,-0.11536 0.209178,-0.17566 0.102358,-0.0887 0.212417,-0.16821 0.316668,-0.2547 0.06542,-0.0549 0.141729,-0.0944 0.215151,-0.13743 0.07026,-0.0373 0.129703,-0.0763 0.187954,-0.12977 0.02235,-0.0232 0.05457,-0.0541 0.069,-0.0834 0.04048,-0.0642 0.105595,-0.10711 0.179647,-0.12241 0.01761,-0.003 0.0357,-0.006 0.05354,-0.006 0.09583,-0.003 0.179064,0.0416 0.258739,0.089 0.04171,0.0269 0.07782,0.0615 0.113295,0.0958 0.01861,0.0192 0.03864,0.037 0.05686,0.0567 0.02592,0.0277 0.01287,0.0194 0.02605,0.0274 0.02653,0.0223 0.05497,0.0409 0.08457,0.0587 0.0039,0.001 0.0075,0.003 0.01113,0.006 0.25129,0.13681 0.05778,0.49221 -0.19351,0.3554 v 0 c -0.0091,-0.006 -0.01808,-0.009 -0.02713,-0.0153 -0.05296,-0.0325 -0.10363,-0.0678 -0.150799,-0.10847 -0.02977,-0.0286 -0.05828,-0.0587 -0.08848,-0.0872 -0.01676,-0.0158 -0.03872,-0.036 -0.04729,-0.0466 -0.01242,-0.009 -0.02632,-0.0162 -0.03975,-0.0239 -0.0018,-7.1e-4 -0.0074,-0.003 -0.0052,-0.003 0.01045,-9.4e-4 0.02099,0.006 0.03135,8e-5 0.0205,-0.006 0.03654,-0.0123 0.05363,-0.0265 0.0086,-0.006 0.0155,-0.0156 0.02283,-0.0237 10e-4,-9.6e-4 0.003,-0.006 0.002,-0.005 -0.0035,0.005 -0.0066,0.009 -0.0098,0.0137 -0.04021,0.0536 -0.08498,0.10392 -0.135893,0.14768 -0.02736,0.0236 -0.04967,0.0436 -0.07887,0.0655 -0.0545,0.0409 -0.114995,0.0717 -0.171928,0.10892 -0.05963,0.0352 -0.119958,0.0694 -0.175506,0.11097 -0.104698,0.0742 -0.210291,0.14738 -0.307818,0.23097 -0.05725,0.0475 -0.08848,0.0745 -0.148791,0.12026 -0.126624,0.0965 -0.260235,0.18306 -0.387551,0.27853 -0.08642,0.0654 -0.171659,0.13283 -0.259451,0.19647 -0.09275,0.0671 -0.189497,0.12853 -0.283604,0.1938 -0.165312,0.10687 -0.327906,0.2177 -0.487709,0.33269 -0.132568,0.0984 -0.262533,0.2 -0.394565,0.29903 -0.136335,0.0975 -0.277463,0.18985 -0.402853,0.30143 -0.0048,0.006 -0.0098,0.0184 -0.01501,0.0137 -0.0057,-0.006 0.0048,-0.0137 0.0057,-0.0214 0.0018,-0.0123 0.0039,-0.0262 0.0018,-0.0387 -0.0039,-0.0203 -0.01068,-0.0404 -0.02063,-0.0588 -0.0057,-0.009 -0.02696,-0.032 -0.02327,-0.0219 0.0048,0.0123 0.01722,0.0192 0.02574,0.0288 0.111728,0.11659 0.2163,0.23952 0.30495,0.37497 0.05723,0.0865 0.07144,0.10631 0.126869,0.19689 0.08875,0.14494 0.168092,0.29543 0.258803,0.43918 0.02121,0.0326 0.04173,0.0659 0.06367,0.0982 0.05243,0.0769 0.0931,0.129 0.150539,0.20295 0.09206,0.11859 0.185605,0.23612 0.286962,0.34696 0.06813,0.0747 0.164889,0.18085 0.232296,0.25637 0.133687,0.14984 0.266468,0.30191 0.365711,0.47759 0.04206,0.0754 0.08235,0.1503 0.117967,0.22878 0.007,0.0157 0.01395,0.0311 0.02072,0.0469 0.0026,0.006 0.0066,0.0123 0.0075,0.0183 2.61e-4,0.001 -0.004,-0.003 -0.0057,-0.003 -0.01501,-0.009 -0.02872,-0.0208 -0.04497,-0.0279 -0.01164,-0.006 -0.02458,-0.006 -0.03711,-0.006 -0.0025,-1.5e-4 -0.0087,0.003 -0.0066,0.003 0.04395,0.009 0.09416,-0.006 0.138145,-0.001 0.178308,-0.006 0.35673,-0.0153 0.533755,-0.0387 0.173914,-0.008 0.348073,-0.0137 0.521565,-0.0278 0.152515,-0.008 0.30494,-0.017 0.457138,-0.03 0.285608,-0.025 0.56944,-0.0642 0.854036,-0.098 0.190943,-0.0254 0.381408,-0.0544 0.570295,-0.0926 -0.03663,0.0234 -0.06802,0.0561 -0.07903,0.0985 -0.001,0.005 0.003,-0.008 0.0041,-0.0102 0.003,-0.009 0.0053,-0.0201 0.008,-0.03 0.003,-0.009 0.0057,-0.0194 0.0087,-0.0293 0.02904,-0.0812 0.06508,-0.16124 0.113182,-0.23307 0.07291,-0.10665 0.140933,-0.21628 0.209302,-0.32593 0.03015,-0.0496 0.06538,-0.10597 0.09286,-0.1574 0.05725,-0.1071 0.09576,-0.22224 0.137869,-0.33566 0.07629,-0.21237 0.150477,-0.42561 0.236007,-0.63452 0.03145,-0.0827 0.05185,-0.13313 0.07874,-0.21688 0.04185,-0.13037 0.073,-0.2639 0.106912,-0.39641 0.02956,-0.12671 0.05376,-0.25538 0.06095,-0.3855 3.45e-4,-0.001 -3.2e-5,-0.008 0.001,-0.006 0.01241,0.0206 0.0081,0.034 0.026,0.0324 -0.08441,-0.0622 -0.163193,-0.13068 -0.243855,-0.19756 -0.109331,-0.0867 -0.219214,-0.17284 -0.340025,-0.24345 -0.15789,-0.0989 -0.320065,-0.19091 -0.477622,-0.29045 -0.235375,-0.14723 -0.470095,-0.29663 -0.685079,-0.47315 -0.103641,-0.0851 -0.205034,-0.17193 -0.30694,-0.25879 -0.02709,-0.0232 -0.09416,-0.0818 -0.129228,-0.10665 -0.01056,-0.006 -0.02227,-0.0137 -0.0334,-0.0196 -0.241821,-0.15321 -0.0252,-0.49514 0.216607,-0.34199 z" /></g></svg>
