<?xml version="1.0" encoding="UTF-8" standalone="no"?>
<svg
   version="1.0"
   width="1024.000000pt"
   height="1024.000000pt"
   viewBox="0 0 1024.000000 1024.000000"
   preserveAspectRatio="xMidYMid meet"
   id="svg11"
   sodipodi:docname="logo.svg"
   inkscape:version="1.3.2 (091e20ef0f, 2023-11-25)"
   xmlns:inkscape="http://www.inkscape.org/namespaces/inkscape"
   xmlns:sodipodi="http://sodipodi.sourceforge.net/DTD/sodipodi-0.dtd"
   xmlns="http://www.w3.org/2000/svg"
   xmlns:svg="http://www.w3.org/2000/svg">
  <defs
     id="defs11" />
  <sodipodi:namedview
     id="namedview11"
     pagecolor="#ffffff"
     bordercolor="#000000"
     borderopacity="0.25"
     inkscape:showpageshadow="2"
     inkscape:pageopacity="0.0"
     inkscape:pagecheckerboard="0"
     inkscape:deskcolor="#d1d1d1"
     inkscape:document-units="pt"
     inkscape:zoom="0.58959961"
     inkscape:cx="682.66667"
     inkscape:cy="682.66667"
     inkscape:window-width="1908"
     inkscape:window-height="999"
     inkscape:window-x="26"
     inkscape:window-y="23"
     inkscape:window-maximized="0"
     inkscape:current-layer="svg11" />
  <g
     transform="translate(0.000000,1024.000000) scale(0.100000,-0.100000)"
     fill="#000000"
     stroke="none"
     id="g11">
    <path
       d="M5509 9696 c-83 -29 -132 -87 -148 -171 -34 -181 154 -321 324 -241 92 42 130 112 123 222 -3 50 -10 73 -34 106 -56 81 -171 118 -265 84z"
       id="path1" />
    <path
       d="M4611 9339 c-100 -50 -151 -136 -151 -254 0 -83 23 -141 78 -198 61 -64 105 -82 197 -82 92 1 149 23 209 81 60 58 81 108 81 194 0 90 -23 148 -81 205 -93 90 -219 111 -333 54z"
       id="path2" />
    <path
       d="M5384 8791 c-85 -39 -118 -140 -73 -221 82 -146 313 -76 297 90 -3 27 -15 61 -28 80 -25 35 -90 70 -130 70 -14 0 -43 -9 -66 -19z"
       id="path3" />
    <path
       d="M3872 8349 c-66 -33 -112 -108 -112 -183 0 -53 44 -132 90 -162 38 -25 54 -29 149 -34 l106 -5 0 -645 0 -644 -130 -47 c-161 -59 -415 -185 -558 -279 -724 -472 -1234 -1205 -1386 -1995 -35 -179 -52 -336 -58 -540 -11 -395 40 -741 166 -1122 270 -815 899 -1504 1716 -1880 719 -332 1602 -364 2340 -86 431 163 807 404 1130 728 664 662 1001 1553 936 2469 -32 441 -134 822 -320 1188 -154 304 -321 536 -566 787 -321 329 -731 593 -1160 747 l-90 32 -3 645 -2 645 109 4 c103 3 112 5 153 33 127 89 112 283 -27 346 -38 18 -97 19 -1240 19 l-1200 0 -43 -21z m1948 -1104 c0 -708 1 -727 20 -765 11 -22 30 -46 43 -54 12 -8 90 -37 172 -65 841 -279 1475 -914 1760 -1767 153 -458 181 -970 79 -1458 -127 -605 -433 -1137 -899 -1565 -311 -286 -719 -508 -1136 -620 -64 -17 -190 -43 -280 -58 -151 -25 -187 -27 -444 -27 -216 0 -306 4 -395 17 -903 137 -1655 658 -2100 1455 -83 148 -149 303 -209 487 -274 843 -160 1732 314 2440 351 524 875 923 1452 1104 72 23 144 51 158 63 56 44 55 27 55 813 l0 725 705 0 705 0 0 -725z"
       id="path4" />
    <path
       d="M5006 7675 c-153 -54 -188 -268 -61 -373 69 -56 150 -66 231 -28 111 52 154 177 100 292 -48 103 -161 148 -270 109z"
       id="path5" />
    <path
       d="M4945 6656 c-102 -44 -124 -181 -41 -254 140 -123 338 67 219 209 -47 55 -116 72 -178 45z"
       id="path6" />
    <path
       d="M3652 5929 c-92 -47 -195 -194 -244 -349 -20 -65 -23 -95 -23 -225 0 -125 4 -163 23 -228 27 -94 82 -209 145 -303 93 -141 261 -312 294 -300 7 3 57 38 111 78 l99 72 -102 101 c-88 87 -185 211 -185 237 0 4 178 8 395 8 274 0 395 -3 395 -11 0 -20 -150 -196 -222 -260 -40 -36 -145 -123 -233 -194 -237 -190 -335 -276 -424 -371 -138 -148 -225 -295 -273 -461 -20 -67 -23 -101 -23 -243 0 -159 2 -168 32 -257 41 -116 77 -187 144 -283 56 -81 271 -300 294 -300 8 0 57 32 110 72 l96 72 -88 88 -88 88 210 0 c149 1 215 4 226 13 45 34 52 105 14 142 l-24 25 -281 0 -281 0 -35 75 c-19 41 -37 88 -40 104 l-6 30 380 3 c364 3 381 4 402 23 33 30 42 62 29 102 -20 62 -26 63 -444 63 l-375 0 0 28 c0 34 16 94 42 154 l20 47 295 3 295 3 24 28 c32 38 32 90 -1 122 l-24 25 -231 0 c-129 0 -230 4 -230 9 0 18 212 209 448 404 269 221 382 334 478 478 73 110 114 196 146 306 19 65 23 102 23 218 -1 126 -3 148 -28 220 -95 273 -306 441 -409 325 -42 -46 -38 -83 16 -149 25 -30 56 -76 71 -102 l26 -49 -455 0 c-251 0 -456 2 -456 5 0 17 44 87 84 133 25 30 49 65 52 78 7 29 -10 75 -37 100 -30 27 -106 29 -157 3z m1018 -550 c0 -22 -7 -71 -16 -108 -15 -68 -16 -69 -52 -75 -53 -8 -895 -7 -908 2 -22 13 -41 118 -36 195 l2 27 505 0 505 0 0 -41z"
       id="path7" />
    <path
       d="M5325 5880 c-90 -59 -86 -204 8 -255 25 -13 47 -17 87 -13 47 5 59 11 92 46 34 37 38 47 38 93 0 60 -27 112 -70 134 -42 22 -119 19 -155 -5z"
       id="path8" />
    <path
       d="M6512 5682 c-48 -44 -161 -148 -252 -233 -91 -85 -299 -277 -462 -427 -163 -150 -301 -285 -307 -300 -9 -23 -37 -245 -71 -567 -5 -49 -30 -270 -55 -490 -79 -698 -77 -672 -58 -708 82 -160 483 -823 525 -868 17 -19 36 -29 55 -29 23 0 155 90 569 385 312 224 544 396 552 411 14 26 183 526 418 1235 73 223 134 419 134 435 0 36 48 -34 -442 641 -224 309 -418 569 -430 577 -48 34 -82 22 -176 -62z m497 -687 c182 -251 331 -457 331 -459 0 -2 -105 -97 -232 -212 -128 -115 -279 -251 -336 -302 -56 -52 -108 -92 -115 -89 -7 2 -34 38 -62 78 -63 93 -131 190 -211 299 l-63 86 172 527 c95 290 175 527 178 527 4 0 156 -205 338 -455z m-562 358 c-8 -16 -76 -214 -151 -440 -76 -227 -140 -413 -143 -413 -12 0 -413 213 -413 220 0 4 91 90 203 192 111 102 270 249 352 326 83 78 153 141 158 141 4 1 1 -11 -6 -26z m-555 -924 c117 -62 214 -113 215 -114 2 -1 -2 -17 -7 -36 -6 -19 -78 -290 -161 -604 -150 -566 -168 -636 -232 -873 l-33 -123 -100 170 -101 170 8 58 c4 32 33 274 64 538 78 678 104 898 110 913 2 6 9 12 15 12 5 0 105 -50 222 -111z m1198 -775 c-104 -307 -199 -589 -212 -626 -19 -55 -30 -72 -67 -98 -167 -121 -468 -337 -477 -343 -6 -3 17 74 51 171 34 97 124 355 200 572 l138 395 71 66 c104 98 480 428 483 425 1 -1 -83 -254 -187 -562z m-680 316 c69 -99 129 -186 134 -193 5 -8 -42 -152 -127 -392 -74 -209 -179 -508 -232 -665 -54 -157 -103 -291 -109 -299 -6 -7 -45 -40 -87 -72 l-76 -58 -58 96 -57 95 112 412 c61 226 152 560 201 741 50 182 99 359 109 395 10 36 24 85 30 110 10 38 14 42 23 28 7 -9 68 -98 137 -198z"
       id="path9" />
    <path
       d="M4439 4312 c-14 -9 -59 -44 -100 -77 -41 -32 -76 -60 -78 -62 -2 -1 40 -44 93 -94 202 -191 298 -363 313 -560 11 -140 -41 -300 -146 -452 -67 -96 -185 -209 -406 -387 -395 -319 -588 -549 -681 -814 l-28 -80 69 -63 c94 -86 201 -164 315 -229 l94 -54 381 0 c210 0 384 -2 387 -6 10 -9 -21 -96 -62 -172 -26 -48 -37 -78 -30 -82 21 -13 229 -62 242 -57 18 6 70 114 98 202 28 87 39 293 21 387 -43 227 -150 409 -355 606 -94 91 -109 101 -124 90 -45 -33 -192 -150 -192 -153 0 -2 48 -53 108 -112 l107 -108 -309 -3 c-170 -1 -311 0 -314 3 -24 23 447 462 565 526 20 11 31 4 120 -67 245 -196 400 -401 471 -624 71 -223 61 -460 -29 -676 -17 -41 -28 -78 -25 -81 12 -12 399 -8 496 5 794 106 1516 615 1882 1327 53 103 138 301 138 321 0 13 -160 9 -249 -7 -88 -15 -66 0 -671 -429 -390 -277 -643 -454 -671 -472 l-27 -17 -63 108 c-188 328 -389 514 -731 676 -107 50 -345 133 -395 137 -13 2 -23 3 -23 3 0 1 23 25 51 55 191 206 292 504 261 768 -18 156 -77 301 -183 452 -56 80 -260 290 -281 290 -7 0 -25 -8 -39 -18z m174 -2499 c16 -32 43 -113 52 -160 l7 -33 -511 0 c-281 0 -511 2 -511 4 0 12 52 181 61 197 9 18 30 19 449 19 l439 0 14 -27z"
       id="path10" />
    <path
       d="M3170 2720 c-69 -10 -180 -22 -247 -26 -68 -4 -123 -8 -123 -9 0 -11 62 -150 98 -220 87 -169 208 -337 390 -544 l39 -44 6 32 c22 109 185 373 321 518 l87 92 -63 77 c-35 43 -83 92 -106 109 -42 29 -48 30 -160 32 -70 1 -167 -6 -242 -17z"
       id="path11" />
  </g>
  <path
     style="fill:#ffffff;stroke:#000000;stroke-width:5.0882;paint-order:markers fill stroke"
     d="m 650.44141,1291.349 c -56.21069,-5.8067 -99.44223,-17.8169 -145.90446,-40.5338 -43.01068,-21.0294 -83.17112,-49.6191 -117.02327,-83.3076 -63.15231,-62.8469 -103.11965,-140.6408 -118.82176,-231.27903 -3.75781,-21.69141 -5.20527,-88.86785 -2.4615,-114.23829 7.19501,-66.52916 27.60667,-122.50089 65.34344,-179.18117 40.98241,-61.55521 98.26632,-112.46958 162.02825,-144.01193 13.12626,-6.49343 30.69724,-14.24984 39.04661,-17.2365 l 15.18068,-5.43026 V 389.2278 302.32517 l -14.23575,-0.74718 c -15.8422,-0.83151 -21.16953,-3.25312 -26.54588,-12.06683 -8.18312,-13.41501 -4.24749,-28.03838 9.75452,-36.24411 l 7.65661,-4.48707 159.33111,1.01424 c 149.69496,0.95289 159.64842,1.20007 164.57794,4.08703 8.76746,5.13463 12.38567,11.48247 12.38567,21.72952 0,6.52514 -0.98383,10.39735 -3.49693,13.76337 -6.95901,9.32084 -11.51804,11.38007 -26.9932,12.1923 l -14.45562,0.75873 0.01,86.71071 0.01,86.7107 18.22284,6.68278 c 77.10522,28.27639 151.81738,88.11506 199.18499,159.53172 87.0874,131.30275 91.043,304.72623 10.0715,441.56002 -65.3481,110.4318 -174.78867,185.4189 -298.73386,204.6879 -17.07881,2.6552 -78.87154,4.7164 -94.13167,3.14 z m 109.34977,-47.0729 c 72.19097,-14.9158 135.04995,-49.0339 187.53492,-101.7886 67.5176,-67.8648 105.5909,-151.13942 113.0083,-247.17403 7.0471,-91.24014 -22.9925,-187.97045 -80.78557,-260.13666 -13.51044,-16.8705 -40.01624,-43.2829 -56.88879,-56.6883 -35.28879,-28.03733 -63.95645,-43.56512 -114.32092,-61.9218 -18.31785,-6.67643 -24.37503,-9.66334 -27.13706,-13.38178 -3.50024,-4.71228 -3.56332,-6.31871 -4.04474,-103.03602 l -0.48906,-98.24912 h -94.85012 -94.85013 l -0.48855,98.79586 c -0.26871,54.33772 -1.12919,100.09644 -1.91218,101.68604 -1.82597,3.70708 -11.1033,8.07742 -33.34575,15.70844 -38.42448,13.18281 -80.91091,37.27482 -112.7884,63.9569 -71.81547,60.11093 -116.56356,138.9324 -130.78366,230.3687 -4.15291,26.7035 -4.17309,81.22667 -0.0405,109.31149 12.53645,85.19608 49.68534,159.58188 109.69083,219.64168 54.54189,54.5912 124.76402,90.8053 204.30844,105.3636 14.35369,2.627 24.5209,3.0396 66.14659,2.6845 46.30162,-0.395 50.52588,-0.6965 72.03631,-5.1409 z"
     id="path12"
     transform="scale(0.75)" />
  <path
     style="fill:#ffffff;stroke:#000000;stroke-width:5.0882;paint-order:markers fill stroke"
     d="m 495.37886,994.55751 c -20.17093,-20.55815 -30.26236,-35.78269 -37.75763,-56.96347 -4.34598,-12.28122 -4.77154,-15.56314 -4.77154,-36.79795 0,-26.11951 1.74026,-34.28904 11.41952,-53.60818 12.95987,-25.867 28.98538,-43.15817 75.07986,-81.0095 18.19031,-14.93733 37.52028,-31.44266 42.95549,-36.67852 13.07463,-12.59511 27.09236,-30.22072 25.75527,-32.38417 -0.68835,-1.11377 -19.7328,-1.72856 -53.54626,-1.72856 -44.03119,0 -52.47796,0.38498 -52.47796,2.3918 0,3.33399 11.82526,18.26457 25.71547,32.46837 l 11.69915,11.96327 -13.63758,9.76391 -13.63758,9.76392 -4.96346,-3.5343 C 494.36007,749.05304 474.78798,723.86895 464.2455,702.91817 454.08895,682.73431 452.45957,674.598 453.11731,647.34931 l 0.58041,-24.04496 7.05919,-14.43242 c 11.29668,-23.0959 24.48007,-35.60154 37.53098,-35.60154 6.09869,0 11.72503,4.3834 13.06198,10.1764 0.75956,3.29118 -1.12223,7.24972 -8.40801,17.6871 -5.16262,7.39581 -9.38658,14.07407 -9.38658,14.84058 0,0.76651 27.87749,1.39365 61.94997,1.39365 h 61.94998 l -2.45139,-4.66419 c -1.34827,-2.5653 -5.56563,-8.80898 -9.37192,-13.87485 -3.80629,-5.06586 -6.92053,-11.01559 -6.92053,-13.2216 0,-5.56103 7.22769,-12.33709 13.15938,-12.33709 10.42235,0 27.86229,15.97804 36.86355,33.77348 7.31803,14.46772 9.33983,24.03503 9.31669,44.08707 -0.0199,17.28583 -0.6177,21.37279 -4.94403,33.8024 -11.21015,32.20702 -31.22948,56.35268 -82.16481,99.10044 -39.9276,33.50945 -59.56165,52.24902 -56.66722,54.08558 1.19747,0.75983 15.22465,1.39319 31.1715,1.40747 25.91539,0.0232 29.29234,0.35532 31.80124,3.12763 3.55347,3.92655 3.57864,9.40849 0.0678,14.7667 l -2.73916,4.1805 H 535.0357 495.49507 l -3.49676,9.34591 c -1.92322,5.14026 -3.97283,12.32311 -4.55469,15.96189 l -1.05794,6.61595 52.07395,0.57478 52.07394,0.57476 3.24088,4.00404 c 4.10113,5.06689 4.10133,8.97339 7.2e-4,14.04078 l -3.24015,4.00404 -51.03397,0.51694 c -44.22578,0.448 -51.03397,0.85969 -51.03397,3.08603 0,1.41299 2.36091,8.24024 5.24647,15.17167 l 5.24647,12.60259 h 37.74035 c 34.40825,0 37.98818,0.27384 40.54732,3.10166 3.44298,3.80445 3.62134,10.4005 0.4004,14.80688 -2.18852,2.99398 -5.05013,3.34656 -31.58207,3.89133 l -29.17549,0.59905 11.58494,11.6744 c 13.16054,13.26215 13.75011,10.46222 -5.01094,23.79754 l -9.9483,7.0712 z M 620.15898,666.51618 c 1.07622,-3.28575 2.50295,-10.34563 3.1705,-15.68861 l 1.21376,-9.71453 H 555.41232 486.2814 l 0.95034,12.56575 c 1.64162,21.70592 -5.17906,19.77075 67.86965,19.25607 l 63.10081,-0.44459 z"
     id="path13"
     transform="scale(0.75)" />
  <path
     style="fill:#ffffff;stroke:#000000;stroke-width:5.0882;paint-order:markers fill stroke"
     d="m 664.54822,1216.5718 -4.54992,-0.6956 4.03107,-10.7095 c 6.97939,-18.5425 9.87362,-36.9714 8.79675,-56.0125 -2.60076,-45.986 -24.81514,-82.5716 -73.5959,-121.2075 -5.151,-4.0798 -8.19242,-5.3608 -11.02443,-4.6436 -9.71986,2.4615 -76.07661,63.0288 -76.02014,69.3876 0.0244,2.7434 3.10071,2.9681 40.63185,2.9681 22.33302,0 40.94818,-0.5724 41.36701,-1.2721 0.41883,-0.6996 -5.19381,-7.6504 -12.47253,-15.4462 l -13.23405,-14.1742 5.36435,-4.5631 c 2.95039,-2.5097 8.64514,-7.1009 12.65501,-10.2025 l 7.29067,-5.6394 7.97393,6.7218 c 11.66517,9.8333 30.16031,31.7429 37.71355,44.6758 19.60359,33.566 22.21735,73.7061 6.98673,107.2965 -3.60901,7.9595 -6.05062,11.3194 -8.21087,11.299 -3.4346,-0.033 -27.57345,-6.0959 -28.68221,-7.2046 -0.38995,-0.39 1.96854,-6.5042 5.24108,-13.5872 8.2254,-17.8028 8.02927,-19.1625 -2.95427,-20.4818 -4.89739,-0.5882 -28.15392,-1.0762 -51.68117,-1.0843 l -42.77683,-0.015 -13.07478,-7.73 c -13.7948,-8.1557 -37.61476,-26.1366 -44.58929,-33.659 l -4.14029,-4.4655 3.10069,-8.874 c 12.08274,-34.5802 35.42082,-62.2858 93.37534,-110.8494 33.84547,-28.36122 45.01737,-39.47767 54.37349,-54.10364 10.55889,-16.50621 14.66392,-28.59363 15.61021,-45.96491 1.63585,-30.02977 -7.42151,-50.53011 -34.88349,-78.95499 l -17.52003,-18.13434 12.94602,-10.28773 c 10.32737,-8.20678 13.55713,-9.96068 15.96717,-8.67086 5.05654,2.70618 30.33149,30.28502 37.70222,41.1389 15.15349,22.31451 21.74333,43.29021 21.78348,69.33756 0.0457,29.62518 -10.96834,59.41231 -30.62409,82.82214 -5.53104,6.58742 -10.05643,12.31083 -10.05643,12.71868 0,0.40786 4.38857,1.96568 9.75238,3.46183 28.89747,8.06046 65.51688,25.03926 84.37929,39.12286 22.70594,16.9533 39.19935,35.8114 56.79368,64.9362 8.72635,14.4451 10.89911,17.0087 13.28488,15.6744 1.56876,-0.8774 37.96086,-26.4102 80.87134,-56.7397 42.91048,-30.3294 81.54917,-57.0826 85.86378,-59.4515 5.78423,-3.1759 12.17083,-4.75576 24.31504,-6.01506 9.05867,-0.93933 17.50715,-1.12765 18.77437,-0.41847 1.81555,1.01605 0.56362,5.27053 -5.90486,20.06653 -10.16593,23.2536 -16.19341,34.1759 -30.80456,55.8201 -46.46803,68.8354 -121.85939,119.6808 -205.03218,138.2776 -20.55778,4.5965 -70.14845,7.8199 -85.11306,5.5323 z m -41.02862,-69.607 c -0.47377,-1.6325 -1.75005,-6.4026 -2.83619,-10.6004 -1.08615,-4.1978 -3.05925,-9.7312 -4.38467,-12.2965 l -2.40987,-4.6642 h -58.34958 c -50.78365,0 -58.69517,0.3456 -61.01483,2.6653 -1.46589,1.4659 -2.66525,3.1856 -2.66525,3.8215 0,0.636 -1.47258,6.3057 -3.27241,12.5994 l -3.27242,11.443 h 69.53329 c 65.41962,0 69.48234,-0.1756 68.67193,-2.9681 z"
     id="path14"
     transform="scale(0.75)" />
  <path
     style="fill:#ffffff;stroke:#000000;stroke-width:5.0882;paint-order:markers fill stroke"
     d="m 427.2725,1094.3867 c -18.43352,-22.1872 -33.46852,-45.0231 -43.82971,-66.5706 -4.70986,-9.7947 -8.57436,-18.2679 -8.58777,-18.8293 -0.0134,-0.5614 6.27227,-1.4997 13.96817,-2.0851 7.6959,-0.5854 25.82261,-2.3408 40.28157,-3.9009 33.46613,-3.61085 40.1971,-2.7276 50.31968,6.6031 4.15701,3.8318 9.88564,9.9055 12.73028,13.4972 l 5.17208,6.5302 -8.2996,8.8448 c -8.78414,9.3612 -20.61821,24.6235 -28.00573,36.1189 -6.42821,10.0027 -16.65211,30.7192 -16.65211,33.742 0,5.2127 -3.65103,2.2337 -17.09686,-13.9503 z"
     id="path15"
     transform="scale(0.75)" />
  <path
     style="fill:#ffffff;stroke:#000000;stroke-width:5.0882;paint-order:markers fill stroke"
     d="m 773.69566,1079.1222 c -9.24236,-13.6131 -36.11751,-57.733 -52.6007,-86.35265 -10.16868,-17.65579 -13.83533,-25.60931 -13.83533,-30.01092 0,-6.90009 21.28749,-198.31958 23.8662,-214.60747 0.94377,-5.96117 2.71715,-12.2679 3.94084,-14.01496 2.64916,-3.78221 25.37386,-25.25788 84.98923,-80.31794 58.50572,-54.03518 59.77657,-55.10687 65.34777,-55.10687 5.53551,0 9.2341,4.66785 70.55387,89.04348 56.49686,77.73934 52.01686,70.60599 49.78706,79.27427 -1.0222,3.97381 -17.57682,54.45271 -36.788,112.17536 l -34.92945,104.95026 -29.00447,21.48284 c -69.38282,51.3899 -115.60434,83.2369 -120.8068,83.2369 -2.84823,0 -5.68342,-2.6282 -10.52022,-9.7523 z m 27.84669,-27.9767 c 7.10506,-5.5457 9.99926,-9.2286 12.49928,-15.9054 5.2805,-14.1027 53.69688,-153.27301 56.94956,-163.69849 l 2.98417,-9.56483 -18.55769,-26.71944 c -10.20673,-14.69569 -19.28746,-26.66679 -20.1794,-26.60245 -1.6821,0.12136 -5.0293,11.90301 -41.46383,145.94674 l -21.82082,80.27947 7.70293,12.6878 c 5.32834,8.7765 8.46389,12.3958 10.17139,11.7406 1.35766,-0.521 6.62914,-4.1948 11.71441,-8.164 z m 79.1793,-55.44901 c 33.01001,-23.78606 33.28404,-24.03577 36.93684,-33.65957 8.28924,-21.83906 52.52616,-155.7149 52.10179,-157.67758 -0.41615,-1.92473 -34.08946,26.52981 -62.75045,53.02523 l -11.41005,10.54792 -18.03239,51.53272 c -18.26693,52.203 -34.62246,100.03809 -34.62246,101.26059 0,1.7816 7.06531,-2.8996 37.77672,-25.02931 z m -94.74793,-94.66263 c 15.77408,-59.4676 28.95347,-108.89977 29.28753,-109.84928 0.66409,-1.88755 -54.99277,-31.3469 -59.22294,-31.3469 -3.41295,0 -2.76335,-4.41262 -15.79126,107.26719 l -11.22711,96.24277 13.28879,22.8637 c 7.30883,12.57502 13.6704,22.88206 14.13682,22.90456 0.46642,0.023 13.7541,-48.61445 29.52817,-108.08204 z m 115.86595,-69.75292 c 36.50943,-31.66752 75.93082,-68.66324 75.84934,-71.18217 -0.13843,-4.28011 -84.93964,-121.24054 -88.0418,-121.42996 -0.89959,-0.0549 -12.06625,31.57267 -24.81482,70.28354 l -23.1792,70.38339 7.3975,10.17976 c 4.06863,5.59885 13.93065,19.5293 21.91561,30.95655 7.98496,11.42725 15.61234,20.77681 16.94974,20.77681 1.33742,0 7.60304,-4.48557 13.92363,-9.96792 z M 841.85176,706.44073 c 10.73902,-31.70042 19.24372,-57.91889 18.89934,-58.26327 -0.34438,-0.34438 -2.09586,0.40574 -3.89218,1.66693 -5.90097,4.14307 -91.93304,84.7246 -91.93304,86.10865 0,0.74337 8.58634,5.96983 19.08075,11.61437 28.84598,15.51511 35.93305,18.87757 37.18052,17.64027 0.62652,-0.62141 9.92559,-27.06654 20.66461,-58.76695 z"
     id="path16"
     transform="scale(0.75)" />
  <path
     style="fill:#ffffff;stroke:#000000;stroke-width:5.0882;paint-order:markers fill stroke"
     d="m 662.07817,392.07025 c -17.48757,-12.74355 -15.43468,-38.54079 3.80829,-47.85616 13.93835,-6.74744 29.51018,-1.18699 36.37212,12.98789 9.08116,18.75916 -2.25693,37.81177 -23.38527,39.2968 -8.75511,0.61537 -10.50772,0.15324 -16.79514,-4.42853 z"
     id="path17"
     transform="scale(0.75)" />
  <path
     style="fill:#ffffff;stroke:#000000;stroke-width:5.0882;paint-order:markers fill stroke"
     d="m 657.09051,512.40626 c -9.92617,-6.05296 -11.85049,-21.08116 -3.65502,-28.54418 9.34115,-8.5063 17.45813,-8.83661 26.67003,-1.08531 13.01265,10.94943 4.54802,32.81469 -12.70345,32.81469 -2.79851,0 -7.43871,-1.43334 -10.31156,-3.1852 z"
     id="path18"
     transform="scale(0.75)" />
  <path
     style="fill:#ffffff;stroke:#000000;stroke-width:5.0882;paint-order:markers fill stroke"
     d="m 710.22771,613.84011 c -4.03063,-2.34762 -8.05628,-10.52416 -8.05628,-16.36318 0,-4.87406 3.65522,-11.50729 8.4025,-15.24825 4.44,-3.49882 17.56056,-2.67186 21.91078,1.38098 8.71616,8.12034 9.19529,18.33403 1.23355,26.29576 -4.81854,4.81855 -6.97961,5.75815 -13.14451,5.71505 -4.05784,-0.0284 -8.71356,-0.82953 -10.34604,-1.78036 z"
     id="path19"
     transform="scale(0.75)" />
  <path
     style="fill:#ffffff;stroke:#000000;stroke-width:5.0882;paint-order:markers fill stroke"
     d="m 614.82396,186.8437 c -26.65246,-16.25382 -25.44905,-53.36566 2.14005,-65.99637 27.68382,-12.67407 56.77801,10.83232 51.09017,41.27784 -1.8379,9.83779 -9.58838,19.73652 -19.03309,24.30863 -9.58233,4.63873 -26.92203,4.84657 -34.19713,0.4099 z"
     id="path20"
     transform="scale(0.75)" />
  <path
     style="fill:#ffffff;stroke:#000000;stroke-width:5.0882;paint-order:markers fill stroke"
     d="m 731.85259,126.60001 c -17.96287,-8.31273 -21.84782,-32.839907 -7.34629,-46.37993 10.12697,-9.455507 22.76269,-10.756447 35.33138,-3.637622 9.14061,5.177181 12.52039,10.946618 13.2371,22.59632 0.52683,8.563302 -0.0133,11.153312 -3.33614,15.997782 -6.3809,9.30288 -12.10896,12.59138 -23.02268,13.21741 -5.91688,0.3394 -11.7835,-0.36869 -14.86337,-1.79396 z"
     id="path21"
     transform="scale(0.75)" />
  <path
     style="fill:#ffffff;stroke:#000000;stroke-width:5.0882;paint-order:markers fill stroke"
     d="m 715.56676,228.48292 c -7.8868,-5.30731 -10.90282,-14.43049 -7.47928,-22.62417 4.83186,-11.56429 16.33869,-16.81512 25.95341,-11.84315 7.77907,4.02271 12.22826,10.67419 12.22826,18.28108 0,16.3713 -17.06116,25.36591 -30.70239,16.18624 z"
     id="path22"
     transform="scale(0.75)" />
</svg>
