<?xml version="1.0" encoding="utf-8" standalone="no"?>
<!DOCTYPE svg PUBLIC "-//W3C//DTD SVG 1.1//EN"
  "http://www.w3.org/Graphics/SVG/1.1/DTD/svg11.dtd">
<svg xmlns:xlink="http://www.w3.org/1999/xlink" width="487.840625pt" height="420.59625pt" viewBox="0 0 487.840625 420.59625" xmlns="http://www.w3.org/2000/svg" version="1.1">
 <metadata>
  <rdf:RDF xmlns:dc="http://purl.org/dc/elements/1.1/" xmlns:cc="http://creativecommons.org/ns#" xmlns:rdf="http://www.w3.org/1999/02/22-rdf-syntax-ns#">
   <cc:Work>
    <dc:type rdf:resource="http://purl.org/dc/dcmitype/StillImage"/>
    <dc:date>2025-01-23T10:06:10.473718</dc:date>
    <dc:format>image/svg+xml</dc:format>
    <dc:creator>
     <cc:Agent>
      <dc:title>Matplotlib v3.10.0, https://matplotlib.org/</dc:title>
     </cc:Agent>
    </dc:creator>
   </cc:Work>
  </rdf:RDF>
 </metadata>
 <defs>
  <style type="text/css">*{stroke-linejoin: round; stroke-linecap: butt}</style>
 </defs>
 <g id="figure_1">
  <g id="patch_1">
   <path d="M 0 420.59625
L 487.840625 420.59625
L 487.840625 0
L 0 0
z
" style="fill: #ffffff"/>
  </g>
  <g id="axes_1">
   <g id="patch_2">
    <path d="M 34.240625 383.04
L 480.640625 383.04
L 480.640625 50.4
L 34.240625 50.4
z
" style="fill: #ffffff"/>
   </g>
   <g id="matplotlib.axis_1">
    <g id="xtick_1">
     <g id="line2d_1">
      <path d="M 54.531534 383.04
L 54.531534 50.4
" clip-path="url(#pe20e8e82be)" style="fill: none; stroke: #b0b0b0; stroke-width: 0.8; stroke-linecap: square"/>
     </g>
     <g id="line2d_2">
      <defs>
       <path id="ma1c935bf0e" d="M 0 0
L 0 3.5
" style="stroke: #000000; stroke-width: 0.8"/>
      </defs>
      <g>
       <use xlink:href="#ma1c935bf0e" x="54.531534" y="383.04" style="stroke: #000000; stroke-width: 0.8"/>
      </g>
     </g>
     <g id="text_1">
      <!-- 0.0000 -->
      <g transform="translate(37.036222 397.638437) scale(0.1 -0.1)">
       <defs>
        <path id="DejaVuSans-30" d="M 2034 4250
Q 1547 4250 1301 3770
Q 1056 3291 1056 2328
Q 1056 1369 1301 889
Q 1547 409 2034 409
Q 2525 409 2770 889
Q 3016 1369 3016 2328
Q 3016 3291 2770 3770
Q 2525 4250 2034 4250
z
M 2034 4750
Q 2819 4750 3233 4129
Q 3647 3509 3647 2328
Q 3647 1150 3233 529
Q 2819 -91 2034 -91
Q 1250 -91 836 529
Q 422 1150 422 2328
Q 422 3509 836 4129
Q 1250 4750 2034 4750
z
" transform="scale(0.015625)"/>
        <path id="DejaVuSans-2e" d="M 684 794
L 1344 794
L 1344 0
L 684 0
L 684 794
z
" transform="scale(0.015625)"/>
       </defs>
       <use xlink:href="#DejaVuSans-30"/>
       <use xlink:href="#DejaVuSans-2e" transform="translate(63.623047 0)"/>
       <use xlink:href="#DejaVuSans-30" transform="translate(95.410156 0)"/>
       <use xlink:href="#DejaVuSans-30" transform="translate(159.033203 0)"/>
       <use xlink:href="#DejaVuSans-30" transform="translate(222.65625 0)"/>
       <use xlink:href="#DejaVuSans-30" transform="translate(286.279297 0)"/>
      </g>
     </g>
    </g>
    <g id="xtick_2">
     <g id="line2d_3">
      <path d="M 105.258807 383.04
L 105.258807 50.4
" clip-path="url(#pe20e8e82be)" style="fill: none; stroke: #b0b0b0; stroke-width: 0.8; stroke-linecap: square"/>
     </g>
     <g id="line2d_4">
      <g>
       <use xlink:href="#ma1c935bf0e" x="105.258807" y="383.04" style="stroke: #000000; stroke-width: 0.8"/>
      </g>
     </g>
     <g id="text_2">
      <!-- 0.0025 -->
      <g transform="translate(87.763494 397.638437) scale(0.1 -0.1)">
       <defs>
        <path id="DejaVuSans-32" d="M 1228 531
L 3431 531
L 3431 0
L 469 0
L 469 531
Q 828 903 1448 1529
Q 2069 2156 2228 2338
Q 2531 2678 2651 2914
Q 2772 3150 2772 3378
Q 2772 3750 2511 3984
Q 2250 4219 1831 4219
Q 1534 4219 1204 4116
Q 875 4013 500 3803
L 500 4441
Q 881 4594 1212 4672
Q 1544 4750 1819 4750
Q 2544 4750 2975 4387
Q 3406 4025 3406 3419
Q 3406 3131 3298 2873
Q 3191 2616 2906 2266
Q 2828 2175 2409 1742
Q 1991 1309 1228 531
z
" transform="scale(0.015625)"/>
        <path id="DejaVuSans-35" d="M 691 4666
L 3169 4666
L 3169 4134
L 1269 4134
L 1269 2991
Q 1406 3038 1543 3061
Q 1681 3084 1819 3084
Q 2600 3084 3056 2656
Q 3513 2228 3513 1497
Q 3513 744 3044 326
Q 2575 -91 1722 -91
Q 1428 -91 1123 -41
Q 819 9 494 109
L 494 744
Q 775 591 1075 516
Q 1375 441 1709 441
Q 2250 441 2565 725
Q 2881 1009 2881 1497
Q 2881 1984 2565 2268
Q 2250 2553 1709 2553
Q 1456 2553 1204 2497
Q 953 2441 691 2322
L 691 4666
z
" transform="scale(0.015625)"/>
       </defs>
       <use xlink:href="#DejaVuSans-30"/>
       <use xlink:href="#DejaVuSans-2e" transform="translate(63.623047 0)"/>
       <use xlink:href="#DejaVuSans-30" transform="translate(95.410156 0)"/>
       <use xlink:href="#DejaVuSans-30" transform="translate(159.033203 0)"/>
       <use xlink:href="#DejaVuSans-32" transform="translate(222.65625 0)"/>
       <use xlink:href="#DejaVuSans-35" transform="translate(286.279297 0)"/>
      </g>
     </g>
    </g>
    <g id="xtick_3">
     <g id="line2d_5">
      <path d="M 155.98608 383.04
L 155.98608 50.4
" clip-path="url(#pe20e8e82be)" style="fill: none; stroke: #b0b0b0; stroke-width: 0.8; stroke-linecap: square"/>
     </g>
     <g id="line2d_6">
      <g>
       <use xlink:href="#ma1c935bf0e" x="155.98608" y="383.04" style="stroke: #000000; stroke-width: 0.8"/>
      </g>
     </g>
     <g id="text_3">
      <!-- 0.0050 -->
      <g transform="translate(138.490767 397.638437) scale(0.1 -0.1)">
       <use xlink:href="#DejaVuSans-30"/>
       <use xlink:href="#DejaVuSans-2e" transform="translate(63.623047 0)"/>
       <use xlink:href="#DejaVuSans-30" transform="translate(95.410156 0)"/>
       <use xlink:href="#DejaVuSans-30" transform="translate(159.033203 0)"/>
       <use xlink:href="#DejaVuSans-35" transform="translate(222.65625 0)"/>
       <use xlink:href="#DejaVuSans-30" transform="translate(286.279297 0)"/>
      </g>
     </g>
    </g>
    <g id="xtick_4">
     <g id="line2d_7">
      <path d="M 206.713352 383.04
L 206.713352 50.4
" clip-path="url(#pe20e8e82be)" style="fill: none; stroke: #b0b0b0; stroke-width: 0.8; stroke-linecap: square"/>
     </g>
     <g id="line2d_8">
      <g>
       <use xlink:href="#ma1c935bf0e" x="206.713352" y="383.04" style="stroke: #000000; stroke-width: 0.8"/>
      </g>
     </g>
     <g id="text_4">
      <!-- 0.0075 -->
      <g transform="translate(189.21804 397.638437) scale(0.1 -0.1)">
       <defs>
        <path id="DejaVuSans-37" d="M 525 4666
L 3525 4666
L 3525 4397
L 1831 0
L 1172 0
L 2766 4134
L 525 4134
L 525 4666
z
" transform="scale(0.015625)"/>
       </defs>
       <use xlink:href="#DejaVuSans-30"/>
       <use xlink:href="#DejaVuSans-2e" transform="translate(63.623047 0)"/>
       <use xlink:href="#DejaVuSans-30" transform="translate(95.410156 0)"/>
       <use xlink:href="#DejaVuSans-30" transform="translate(159.033203 0)"/>
       <use xlink:href="#DejaVuSans-37" transform="translate(222.65625 0)"/>
       <use xlink:href="#DejaVuSans-35" transform="translate(286.279297 0)"/>
      </g>
     </g>
    </g>
    <g id="xtick_5">
     <g id="line2d_9">
      <path d="M 257.440625 383.04
L 257.440625 50.4
" clip-path="url(#pe20e8e82be)" style="fill: none; stroke: #b0b0b0; stroke-width: 0.8; stroke-linecap: square"/>
     </g>
     <g id="line2d_10">
      <g>
       <use xlink:href="#ma1c935bf0e" x="257.440625" y="383.04" style="stroke: #000000; stroke-width: 0.8"/>
      </g>
     </g>
     <g id="text_5">
      <!-- 0.0100 -->
      <g transform="translate(239.945312 397.638437) scale(0.1 -0.1)">
       <defs>
        <path id="DejaVuSans-31" d="M 794 531
L 1825 531
L 1825 4091
L 703 3866
L 703 4441
L 1819 4666
L 2450 4666
L 2450 531
L 3481 531
L 3481 0
L 794 0
L 794 531
z
" transform="scale(0.015625)"/>
       </defs>
       <use xlink:href="#DejaVuSans-30"/>
       <use xlink:href="#DejaVuSans-2e" transform="translate(63.623047 0)"/>
       <use xlink:href="#DejaVuSans-30" transform="translate(95.410156 0)"/>
       <use xlink:href="#DejaVuSans-31" transform="translate(159.033203 0)"/>
       <use xlink:href="#DejaVuSans-30" transform="translate(222.65625 0)"/>
       <use xlink:href="#DejaVuSans-30" transform="translate(286.279297 0)"/>
      </g>
     </g>
    </g>
    <g id="xtick_6">
     <g id="line2d_11">
      <path d="M 308.167898 383.04
L 308.167898 50.4
" clip-path="url(#pe20e8e82be)" style="fill: none; stroke: #b0b0b0; stroke-width: 0.8; stroke-linecap: square"/>
     </g>
     <g id="line2d_12">
      <g>
       <use xlink:href="#ma1c935bf0e" x="308.167898" y="383.04" style="stroke: #000000; stroke-width: 0.8"/>
      </g>
     </g>
     <g id="text_6">
      <!-- 0.0125 -->
      <g transform="translate(290.672585 397.638437) scale(0.1 -0.1)">
       <use xlink:href="#DejaVuSans-30"/>
       <use xlink:href="#DejaVuSans-2e" transform="translate(63.623047 0)"/>
       <use xlink:href="#DejaVuSans-30" transform="translate(95.410156 0)"/>
       <use xlink:href="#DejaVuSans-31" transform="translate(159.033203 0)"/>
       <use xlink:href="#DejaVuSans-32" transform="translate(222.65625 0)"/>
       <use xlink:href="#DejaVuSans-35" transform="translate(286.279297 0)"/>
      </g>
     </g>
    </g>
    <g id="xtick_7">
     <g id="line2d_13">
      <path d="M 358.89517 383.04
L 358.89517 50.4
" clip-path="url(#pe20e8e82be)" style="fill: none; stroke: #b0b0b0; stroke-width: 0.8; stroke-linecap: square"/>
     </g>
     <g id="line2d_14">
      <g>
       <use xlink:href="#ma1c935bf0e" x="358.89517" y="383.04" style="stroke: #000000; stroke-width: 0.8"/>
      </g>
     </g>
     <g id="text_7">
      <!-- 0.0150 -->
      <g transform="translate(341.399858 397.638437) scale(0.1 -0.1)">
       <use xlink:href="#DejaVuSans-30"/>
       <use xlink:href="#DejaVuSans-2e" transform="translate(63.623047 0)"/>
       <use xlink:href="#DejaVuSans-30" transform="translate(95.410156 0)"/>
       <use xlink:href="#DejaVuSans-31" transform="translate(159.033203 0)"/>
       <use xlink:href="#DejaVuSans-35" transform="translate(222.65625 0)"/>
       <use xlink:href="#DejaVuSans-30" transform="translate(286.279297 0)"/>
      </g>
     </g>
    </g>
    <g id="xtick_8">
     <g id="line2d_15">
      <path d="M 409.622443 383.04
L 409.622443 50.4
" clip-path="url(#pe20e8e82be)" style="fill: none; stroke: #b0b0b0; stroke-width: 0.8; stroke-linecap: square"/>
     </g>
     <g id="line2d_16">
      <g>
       <use xlink:href="#ma1c935bf0e" x="409.622443" y="383.04" style="stroke: #000000; stroke-width: 0.8"/>
      </g>
     </g>
     <g id="text_8">
      <!-- 0.0175 -->
      <g transform="translate(392.127131 397.638437) scale(0.1 -0.1)">
       <use xlink:href="#DejaVuSans-30"/>
       <use xlink:href="#DejaVuSans-2e" transform="translate(63.623047 0)"/>
       <use xlink:href="#DejaVuSans-30" transform="translate(95.410156 0)"/>
       <use xlink:href="#DejaVuSans-31" transform="translate(159.033203 0)"/>
       <use xlink:href="#DejaVuSans-37" transform="translate(222.65625 0)"/>
       <use xlink:href="#DejaVuSans-35" transform="translate(286.279297 0)"/>
      </g>
     </g>
    </g>
    <g id="xtick_9">
     <g id="line2d_17">
      <path d="M 460.349716 383.04
L 460.349716 50.4
" clip-path="url(#pe20e8e82be)" style="fill: none; stroke: #b0b0b0; stroke-width: 0.8; stroke-linecap: square"/>
     </g>
     <g id="line2d_18">
      <g>
       <use xlink:href="#ma1c935bf0e" x="460.349716" y="383.04" style="stroke: #000000; stroke-width: 0.8"/>
      </g>
     </g>
     <g id="text_9">
      <!-- 0.0200 -->
      <g transform="translate(442.854403 397.638437) scale(0.1 -0.1)">
       <use xlink:href="#DejaVuSans-30"/>
       <use xlink:href="#DejaVuSans-2e" transform="translate(63.623047 0)"/>
       <use xlink:href="#DejaVuSans-30" transform="translate(95.410156 0)"/>
       <use xlink:href="#DejaVuSans-32" transform="translate(159.033203 0)"/>
       <use xlink:href="#DejaVuSans-30" transform="translate(222.65625 0)"/>
       <use xlink:href="#DejaVuSans-30" transform="translate(286.279297 0)"/>
      </g>
     </g>
    </g>
    <g id="text_10">
     <!-- time (s) -->
     <g transform="translate(238.049219 411.316562) scale(0.1 -0.1)">
      <defs>
       <path id="DejaVuSans-74" d="M 1172 4494
L 1172 3500
L 2356 3500
L 2356 3053
L 1172 3053
L 1172 1153
Q 1172 725 1289 603
Q 1406 481 1766 481
L 2356 481
L 2356 0
L 1766 0
Q 1100 0 847 248
Q 594 497 594 1153
L 594 3053
L 172 3053
L 172 3500
L 594 3500
L 594 4494
L 1172 4494
z
" transform="scale(0.015625)"/>
       <path id="DejaVuSans-69" d="M 603 3500
L 1178 3500
L 1178 0
L 603 0
L 603 3500
z
M 603 4863
L 1178 4863
L 1178 4134
L 603 4134
L 603 4863
z
" transform="scale(0.015625)"/>
       <path id="DejaVuSans-6d" d="M 3328 2828
Q 3544 3216 3844 3400
Q 4144 3584 4550 3584
Q 5097 3584 5394 3201
Q 5691 2819 5691 2113
L 5691 0
L 5113 0
L 5113 2094
Q 5113 2597 4934 2840
Q 4756 3084 4391 3084
Q 3944 3084 3684 2787
Q 3425 2491 3425 1978
L 3425 0
L 2847 0
L 2847 2094
Q 2847 2600 2669 2842
Q 2491 3084 2119 3084
Q 1678 3084 1418 2786
Q 1159 2488 1159 1978
L 1159 0
L 581 0
L 581 3500
L 1159 3500
L 1159 2956
Q 1356 3278 1631 3431
Q 1906 3584 2284 3584
Q 2666 3584 2933 3390
Q 3200 3197 3328 2828
z
" transform="scale(0.015625)"/>
       <path id="DejaVuSans-65" d="M 3597 1894
L 3597 1613
L 953 1613
Q 991 1019 1311 708
Q 1631 397 2203 397
Q 2534 397 2845 478
Q 3156 559 3463 722
L 3463 178
Q 3153 47 2828 -22
Q 2503 -91 2169 -91
Q 1331 -91 842 396
Q 353 884 353 1716
Q 353 2575 817 3079
Q 1281 3584 2069 3584
Q 2775 3584 3186 3129
Q 3597 2675 3597 1894
z
M 3022 2063
Q 3016 2534 2758 2815
Q 2500 3097 2075 3097
Q 1594 3097 1305 2825
Q 1016 2553 972 2059
L 3022 2063
z
" transform="scale(0.015625)"/>
       <path id="DejaVuSans-20" transform="scale(0.015625)"/>
       <path id="DejaVuSans-28" d="M 1984 4856
Q 1566 4138 1362 3434
Q 1159 2731 1159 2009
Q 1159 1288 1364 580
Q 1569 -128 1984 -844
L 1484 -844
Q 1016 -109 783 600
Q 550 1309 550 2009
Q 550 2706 781 3412
Q 1013 4119 1484 4856
L 1984 4856
z
" transform="scale(0.015625)"/>
       <path id="DejaVuSans-73" d="M 2834 3397
L 2834 2853
Q 2591 2978 2328 3040
Q 2066 3103 1784 3103
Q 1356 3103 1142 2972
Q 928 2841 928 2578
Q 928 2378 1081 2264
Q 1234 2150 1697 2047
L 1894 2003
Q 2506 1872 2764 1633
Q 3022 1394 3022 966
Q 3022 478 2636 193
Q 2250 -91 1575 -91
Q 1294 -91 989 -36
Q 684 19 347 128
L 347 722
Q 666 556 975 473
Q 1284 391 1588 391
Q 1994 391 2212 530
Q 2431 669 2431 922
Q 2431 1156 2273 1281
Q 2116 1406 1581 1522
L 1381 1569
Q 847 1681 609 1914
Q 372 2147 372 2553
Q 372 3047 722 3315
Q 1072 3584 1716 3584
Q 2034 3584 2315 3537
Q 2597 3491 2834 3397
z
" transform="scale(0.015625)"/>
       <path id="DejaVuSans-29" d="M 513 4856
L 1013 4856
Q 1481 4119 1714 3412
Q 1947 2706 1947 2009
Q 1947 1309 1714 600
Q 1481 -109 1013 -844
L 513 -844
Q 928 -128 1133 580
Q 1338 1288 1338 2009
Q 1338 2731 1133 3434
Q 928 4138 513 4856
z
" transform="scale(0.015625)"/>
      </defs>
      <use xlink:href="#DejaVuSans-74"/>
      <use xlink:href="#DejaVuSans-69" transform="translate(39.208984 0)"/>
      <use xlink:href="#DejaVuSans-6d" transform="translate(66.992188 0)"/>
      <use xlink:href="#DejaVuSans-65" transform="translate(164.404297 0)"/>
      <use xlink:href="#DejaVuSans-20" transform="translate(225.927734 0)"/>
      <use xlink:href="#DejaVuSans-28" transform="translate(257.714844 0)"/>
      <use xlink:href="#DejaVuSans-73" transform="translate(296.728516 0)"/>
      <use xlink:href="#DejaVuSans-29" transform="translate(348.828125 0)"/>
     </g>
    </g>
   </g>
   <g id="matplotlib.axis_2">
    <g id="ytick_1">
     <g id="line2d_19">
      <path d="M 34.240625 374.04973
L 480.640625 374.04973
" clip-path="url(#pe20e8e82be)" style="fill: none; stroke: #b0b0b0; stroke-width: 0.8; stroke-linecap: square"/>
     </g>
     <g id="line2d_20">
      <defs>
       <path id="m979706fb67" d="M 0 0
L -3.5 0
" style="stroke: #000000; stroke-width: 0.8"/>
      </defs>
      <g>
       <use xlink:href="#m979706fb67" x="34.240625" y="374.04973" style="stroke: #000000; stroke-width: 0.8"/>
      </g>
     </g>
     <g id="text_11">
      <!-- 0 -->
      <g transform="translate(20.878125 377.848948) scale(0.1 -0.1)">
       <use xlink:href="#DejaVuSans-30"/>
      </g>
     </g>
    </g>
    <g id="ytick_2">
     <g id="line2d_21">
      <path d="M 34.240625 329.098378
L 480.640625 329.098378
" clip-path="url(#pe20e8e82be)" style="fill: none; stroke: #b0b0b0; stroke-width: 0.8; stroke-linecap: square"/>
     </g>
     <g id="line2d_22">
      <g>
       <use xlink:href="#m979706fb67" x="34.240625" y="329.098378" style="stroke: #000000; stroke-width: 0.8"/>
      </g>
     </g>
     <g id="text_12">
      <!-- 1 -->
      <g transform="translate(20.878125 332.897597) scale(0.1 -0.1)">
       <use xlink:href="#DejaVuSans-31"/>
      </g>
     </g>
    </g>
    <g id="ytick_3">
     <g id="line2d_23">
      <path d="M 34.240625 284.147027
L 480.640625 284.147027
" clip-path="url(#pe20e8e82be)" style="fill: none; stroke: #b0b0b0; stroke-width: 0.8; stroke-linecap: square"/>
     </g>
     <g id="line2d_24">
      <g>
       <use xlink:href="#m979706fb67" x="34.240625" y="284.147027" style="stroke: #000000; stroke-width: 0.8"/>
      </g>
     </g>
     <g id="text_13">
      <!-- 2 -->
      <g transform="translate(20.878125 287.946246) scale(0.1 -0.1)">
       <use xlink:href="#DejaVuSans-32"/>
      </g>
     </g>
    </g>
    <g id="ytick_4">
     <g id="line2d_25">
      <path d="M 34.240625 239.195676
L 480.640625 239.195676
" clip-path="url(#pe20e8e82be)" style="fill: none; stroke: #b0b0b0; stroke-width: 0.8; stroke-linecap: square"/>
     </g>
     <g id="line2d_26">
      <g>
       <use xlink:href="#m979706fb67" x="34.240625" y="239.195676" style="stroke: #000000; stroke-width: 0.8"/>
      </g>
     </g>
     <g id="text_14">
      <!-- 3 -->
      <g transform="translate(20.878125 242.994894) scale(0.1 -0.1)">
       <defs>
        <path id="DejaVuSans-33" d="M 2597 2516
Q 3050 2419 3304 2112
Q 3559 1806 3559 1356
Q 3559 666 3084 287
Q 2609 -91 1734 -91
Q 1441 -91 1130 -33
Q 819 25 488 141
L 488 750
Q 750 597 1062 519
Q 1375 441 1716 441
Q 2309 441 2620 675
Q 2931 909 2931 1356
Q 2931 1769 2642 2001
Q 2353 2234 1838 2234
L 1294 2234
L 1294 2753
L 1863 2753
Q 2328 2753 2575 2939
Q 2822 3125 2822 3475
Q 2822 3834 2567 4026
Q 2313 4219 1838 4219
Q 1578 4219 1281 4162
Q 984 4106 628 3988
L 628 4550
Q 988 4650 1302 4700
Q 1616 4750 1894 4750
Q 2613 4750 3031 4423
Q 3450 4097 3450 3541
Q 3450 3153 3228 2886
Q 3006 2619 2597 2516
z
" transform="scale(0.015625)"/>
       </defs>
       <use xlink:href="#DejaVuSans-33"/>
      </g>
     </g>
    </g>
    <g id="ytick_5">
     <g id="line2d_27">
      <path d="M 34.240625 194.244324
L 480.640625 194.244324
" clip-path="url(#pe20e8e82be)" style="fill: none; stroke: #b0b0b0; stroke-width: 0.8; stroke-linecap: square"/>
     </g>
     <g id="line2d_28">
      <g>
       <use xlink:href="#m979706fb67" x="34.240625" y="194.244324" style="stroke: #000000; stroke-width: 0.8"/>
      </g>
     </g>
     <g id="text_15">
      <!-- 4 -->
      <g transform="translate(20.878125 198.043543) scale(0.1 -0.1)">
       <defs>
        <path id="DejaVuSans-34" d="M 2419 4116
L 825 1625
L 2419 1625
L 2419 4116
z
M 2253 4666
L 3047 4666
L 3047 1625
L 3713 1625
L 3713 1100
L 3047 1100
L 3047 0
L 2419 0
L 2419 1100
L 313 1100
L 313 1709
L 2253 4666
z
" transform="scale(0.015625)"/>
       </defs>
       <use xlink:href="#DejaVuSans-34"/>
      </g>
     </g>
    </g>
    <g id="ytick_6">
     <g id="line2d_29">
      <path d="M 34.240625 149.292973
L 480.640625 149.292973
" clip-path="url(#pe20e8e82be)" style="fill: none; stroke: #b0b0b0; stroke-width: 0.8; stroke-linecap: square"/>
     </g>
     <g id="line2d_30">
      <g>
       <use xlink:href="#m979706fb67" x="34.240625" y="149.292973" style="stroke: #000000; stroke-width: 0.8"/>
      </g>
     </g>
     <g id="text_16">
      <!-- 5 -->
      <g transform="translate(20.878125 153.092192) scale(0.1 -0.1)">
       <use xlink:href="#DejaVuSans-35"/>
      </g>
     </g>
    </g>
    <g id="ytick_7">
     <g id="line2d_31">
      <path d="M 34.240625 104.341622
L 480.640625 104.341622
" clip-path="url(#pe20e8e82be)" style="fill: none; stroke: #b0b0b0; stroke-width: 0.8; stroke-linecap: square"/>
     </g>
     <g id="line2d_32">
      <g>
       <use xlink:href="#m979706fb67" x="34.240625" y="104.341622" style="stroke: #000000; stroke-width: 0.8"/>
      </g>
     </g>
     <g id="text_17">
      <!-- 6 -->
      <g transform="translate(20.878125 108.14084) scale(0.1 -0.1)">
       <defs>
        <path id="DejaVuSans-36" d="M 2113 2584
Q 1688 2584 1439 2293
Q 1191 2003 1191 1497
Q 1191 994 1439 701
Q 1688 409 2113 409
Q 2538 409 2786 701
Q 3034 994 3034 1497
Q 3034 2003 2786 2293
Q 2538 2584 2113 2584
z
M 3366 4563
L 3366 3988
Q 3128 4100 2886 4159
Q 2644 4219 2406 4219
Q 1781 4219 1451 3797
Q 1122 3375 1075 2522
Q 1259 2794 1537 2939
Q 1816 3084 2150 3084
Q 2853 3084 3261 2657
Q 3669 2231 3669 1497
Q 3669 778 3244 343
Q 2819 -91 2113 -91
Q 1303 -91 875 529
Q 447 1150 447 2328
Q 447 3434 972 4092
Q 1497 4750 2381 4750
Q 2619 4750 2861 4703
Q 3103 4656 3366 4563
z
" transform="scale(0.015625)"/>
       </defs>
       <use xlink:href="#DejaVuSans-36"/>
      </g>
     </g>
    </g>
    <g id="ytick_8">
     <g id="line2d_33">
      <path d="M 34.240625 59.39027
L 480.640625 59.39027
" clip-path="url(#pe20e8e82be)" style="fill: none; stroke: #b0b0b0; stroke-width: 0.8; stroke-linecap: square"/>
     </g>
     <g id="line2d_34">
      <g>
       <use xlink:href="#m979706fb67" x="34.240625" y="59.39027" style="stroke: #000000; stroke-width: 0.8"/>
      </g>
     </g>
     <g id="text_18">
      <!-- 7 -->
      <g transform="translate(20.878125 63.189489) scale(0.1 -0.1)">
       <use xlink:href="#DejaVuSans-37"/>
      </g>
     </g>
    </g>
    <g id="text_19">
     <!-- displacement magnitude (cm) -->
     <g transform="translate(14.798438 292.162187) rotate(-90) scale(0.1 -0.1)">
      <defs>
       <path id="DejaVuSans-64" d="M 2906 2969
L 2906 4863
L 3481 4863
L 3481 0
L 2906 0
L 2906 525
Q 2725 213 2448 61
Q 2172 -91 1784 -91
Q 1150 -91 751 415
Q 353 922 353 1747
Q 353 2572 751 3078
Q 1150 3584 1784 3584
Q 2172 3584 2448 3432
Q 2725 3281 2906 2969
z
M 947 1747
Q 947 1113 1208 752
Q 1469 391 1925 391
Q 2381 391 2643 752
Q 2906 1113 2906 1747
Q 2906 2381 2643 2742
Q 2381 3103 1925 3103
Q 1469 3103 1208 2742
Q 947 2381 947 1747
z
" transform="scale(0.015625)"/>
       <path id="DejaVuSans-70" d="M 1159 525
L 1159 -1331
L 581 -1331
L 581 3500
L 1159 3500
L 1159 2969
Q 1341 3281 1617 3432
Q 1894 3584 2278 3584
Q 2916 3584 3314 3078
Q 3713 2572 3713 1747
Q 3713 922 3314 415
Q 2916 -91 2278 -91
Q 1894 -91 1617 61
Q 1341 213 1159 525
z
M 3116 1747
Q 3116 2381 2855 2742
Q 2594 3103 2138 3103
Q 1681 3103 1420 2742
Q 1159 2381 1159 1747
Q 1159 1113 1420 752
Q 1681 391 2138 391
Q 2594 391 2855 752
Q 3116 1113 3116 1747
z
" transform="scale(0.015625)"/>
       <path id="DejaVuSans-6c" d="M 603 4863
L 1178 4863
L 1178 0
L 603 0
L 603 4863
z
" transform="scale(0.015625)"/>
       <path id="DejaVuSans-61" d="M 2194 1759
Q 1497 1759 1228 1600
Q 959 1441 959 1056
Q 959 750 1161 570
Q 1363 391 1709 391
Q 2188 391 2477 730
Q 2766 1069 2766 1631
L 2766 1759
L 2194 1759
z
M 3341 1997
L 3341 0
L 2766 0
L 2766 531
Q 2569 213 2275 61
Q 1981 -91 1556 -91
Q 1019 -91 701 211
Q 384 513 384 1019
Q 384 1609 779 1909
Q 1175 2209 1959 2209
L 2766 2209
L 2766 2266
Q 2766 2663 2505 2880
Q 2244 3097 1772 3097
Q 1472 3097 1187 3025
Q 903 2953 641 2809
L 641 3341
Q 956 3463 1253 3523
Q 1550 3584 1831 3584
Q 2591 3584 2966 3190
Q 3341 2797 3341 1997
z
" transform="scale(0.015625)"/>
       <path id="DejaVuSans-63" d="M 3122 3366
L 3122 2828
Q 2878 2963 2633 3030
Q 2388 3097 2138 3097
Q 1578 3097 1268 2742
Q 959 2388 959 1747
Q 959 1106 1268 751
Q 1578 397 2138 397
Q 2388 397 2633 464
Q 2878 531 3122 666
L 3122 134
Q 2881 22 2623 -34
Q 2366 -91 2075 -91
Q 1284 -91 818 406
Q 353 903 353 1747
Q 353 2603 823 3093
Q 1294 3584 2113 3584
Q 2378 3584 2631 3529
Q 2884 3475 3122 3366
z
" transform="scale(0.015625)"/>
       <path id="DejaVuSans-6e" d="M 3513 2113
L 3513 0
L 2938 0
L 2938 2094
Q 2938 2591 2744 2837
Q 2550 3084 2163 3084
Q 1697 3084 1428 2787
Q 1159 2491 1159 1978
L 1159 0
L 581 0
L 581 3500
L 1159 3500
L 1159 2956
Q 1366 3272 1645 3428
Q 1925 3584 2291 3584
Q 2894 3584 3203 3211
Q 3513 2838 3513 2113
z
" transform="scale(0.015625)"/>
       <path id="DejaVuSans-67" d="M 2906 1791
Q 2906 2416 2648 2759
Q 2391 3103 1925 3103
Q 1463 3103 1205 2759
Q 947 2416 947 1791
Q 947 1169 1205 825
Q 1463 481 1925 481
Q 2391 481 2648 825
Q 2906 1169 2906 1791
z
M 3481 434
Q 3481 -459 3084 -895
Q 2688 -1331 1869 -1331
Q 1566 -1331 1297 -1286
Q 1028 -1241 775 -1147
L 775 -588
Q 1028 -725 1275 -790
Q 1522 -856 1778 -856
Q 2344 -856 2625 -561
Q 2906 -266 2906 331
L 2906 616
Q 2728 306 2450 153
Q 2172 0 1784 0
Q 1141 0 747 490
Q 353 981 353 1791
Q 353 2603 747 3093
Q 1141 3584 1784 3584
Q 2172 3584 2450 3431
Q 2728 3278 2906 2969
L 2906 3500
L 3481 3500
L 3481 434
z
" transform="scale(0.015625)"/>
       <path id="DejaVuSans-75" d="M 544 1381
L 544 3500
L 1119 3500
L 1119 1403
Q 1119 906 1312 657
Q 1506 409 1894 409
Q 2359 409 2629 706
Q 2900 1003 2900 1516
L 2900 3500
L 3475 3500
L 3475 0
L 2900 0
L 2900 538
Q 2691 219 2414 64
Q 2138 -91 1772 -91
Q 1169 -91 856 284
Q 544 659 544 1381
z
M 1991 3584
L 1991 3584
z
" transform="scale(0.015625)"/>
      </defs>
      <use xlink:href="#DejaVuSans-64"/>
      <use xlink:href="#DejaVuSans-69" transform="translate(63.476562 0)"/>
      <use xlink:href="#DejaVuSans-73" transform="translate(91.259766 0)"/>
      <use xlink:href="#DejaVuSans-70" transform="translate(143.359375 0)"/>
      <use xlink:href="#DejaVuSans-6c" transform="translate(206.835938 0)"/>
      <use xlink:href="#DejaVuSans-61" transform="translate(234.619141 0)"/>
      <use xlink:href="#DejaVuSans-63" transform="translate(295.898438 0)"/>
      <use xlink:href="#DejaVuSans-65" transform="translate(350.878906 0)"/>
      <use xlink:href="#DejaVuSans-6d" transform="translate(412.402344 0)"/>
      <use xlink:href="#DejaVuSans-65" transform="translate(509.814453 0)"/>
      <use xlink:href="#DejaVuSans-6e" transform="translate(571.337891 0)"/>
      <use xlink:href="#DejaVuSans-74" transform="translate(634.716797 0)"/>
      <use xlink:href="#DejaVuSans-20" transform="translate(673.925781 0)"/>
      <use xlink:href="#DejaVuSans-6d" transform="translate(705.712891 0)"/>
      <use xlink:href="#DejaVuSans-61" transform="translate(803.125 0)"/>
      <use xlink:href="#DejaVuSans-67" transform="translate(864.404297 0)"/>
      <use xlink:href="#DejaVuSans-6e" transform="translate(927.880859 0)"/>
      <use xlink:href="#DejaVuSans-69" transform="translate(991.259766 0)"/>
      <use xlink:href="#DejaVuSans-74" transform="translate(1019.042969 0)"/>
      <use xlink:href="#DejaVuSans-75" transform="translate(1058.251953 0)"/>
      <use xlink:href="#DejaVuSans-64" transform="translate(1121.630859 0)"/>
      <use xlink:href="#DejaVuSans-65" transform="translate(1185.107422 0)"/>
      <use xlink:href="#DejaVuSans-20" transform="translate(1246.630859 0)"/>
      <use xlink:href="#DejaVuSans-28" transform="translate(1278.417969 0)"/>
      <use xlink:href="#DejaVuSans-63" transform="translate(1317.431641 0)"/>
      <use xlink:href="#DejaVuSans-6d" transform="translate(1372.412109 0)"/>
      <use xlink:href="#DejaVuSans-29" transform="translate(1469.824219 0)"/>
     </g>
    </g>
   </g>
   <g id="line2d_35">
    <path d="M 54.531534 374.04973
L 59.629037 374.04973
L 64.690665 374.049711
L 69.752273 374.049514
L 74.849836 374.049302
L 79.911403 374.047915
L 84.97297 374.034581
L 90.070047 373.987643
L 95.130802 373.871171
L 100.190544 373.647369
L 105.284576 373.281178
L 110.340665 372.74962
L 115.429422 372.023399
L 120.4778 371.098309
L 125.555397 369.95374
L 130.624878 368.592905
L 135.720331 367.003291
L 140.768506 365.207889
L 145.873902 363.166828
L 150.928976 360.91935
L 156.003327 358.432012
L 161.060633 355.717894
L 166.134578 352.75551
L 171.224755 349.542343
L 176.295656 346.105318
L 181.38279 342.430005
L 186.452068 338.552996
L 191.505519 334.490832
L 196.579261 330.23322
L 201.641842 325.828617
L 206.7306 321.269202
L 211.815298 316.608196
L 216.865909 311.903138
L 221.955274 307.118516
L 227.019074 302.345132
L 232.095048 297.572647
L 237.151136 292.841967
L 242.223052 288.113984
L 247.301664 283.38645
L 252.377434 278.662063
L 257.446712 273.940823
L 262.543789 269.187217
L 267.604341 264.469123
L 272.664894 259.761818
L 277.76197 255.040128
L 282.82861 250.37238
L 287.899309 245.730254
L 292.970007 241.11375
L 298.046792 236.517924
L 303.125607 231.936931
L 308.178043 227.394597
L 313.271061 222.825293
L 318.329585 218.290151
L 323.388109 213.755908
L 328.485185 209.192447
L 333.549796 204.663598
L 338.618465 200.139245
L 343.689163 195.619386
L 348.765949 191.10627
L 353.846792 186.603494
L 358.89517 182.144769
L 363.98616 177.667165
L 369.046712 173.229118
L 374.115381 168.796915
L 379.190138 164.370106
L 384.27301 159.946443
L 389.36197 155.522781
L 394.426581 151.128337
L 399.49728 146.732544
L 404.580152 142.334953
L 409.636647 137.966581
L 414.703287 133.601355
L 419.780072 129.24512
L 424.867003 124.898324
L 429.927556 120.587939
L 434.998254 116.278453
L 440.079098 111.964472
L 445.133563 107.673865
L 450.224552 103.352692
L 455.281047 99.063434
L 460.372036 94.747655
" clip-path="url(#pe20e8e82be)" style="fill: none; stroke-dasharray: 5.55,2.4; stroke-dashoffset: 0; stroke: #1f77b4; stroke-width: 1.5"/>
   </g>
   <g id="line2d_36">
    <path d="M 54.531534 374.04973
L 59.611099 374.04973
L 64.690665 374.049723
L 69.752273 374.049634
L 74.831777 374.048783
L 79.911403 374.043935
L 84.972565 374.034089
L 90.051176 374.039082
L 95.128165 374.017297
L 100.202718 373.933248
L 105.274228 373.825716
L 110.339853 373.725885
L 115.413392 373.671312
L 120.490786 373.69892
L 125.551339 373.839827
L 130.627719 373.971682
L 135.696185 373.524568
L 140.777434 372.887292
L 145.841234 372.051521
L 150.927962 371.002639
L 155.99379 369.747112
L 161.063677 368.278875
L 166.145332 366.594953
L 171.21461 364.704793
L 176.280438 362.607138
L 181.352354 360.297808
L 186.425487 357.775812
L 191.497808 355.037061
L 196.570333 352.075756
L 201.646509 348.885334
L 206.719237 345.469616
L 211.796834 341.82487
L 216.863474 337.969707
L 221.932549 333.90651
L 227.005885 329.650875
L 232.087134 325.227618
L 237.162296 320.694274
L 242.233806 316.084962
L 247.300243 311.419012
L 252.371753 306.691928
L 257.444683 301.905508
L 262.525527 297.049863
L 267.594196 292.142074
L 272.666923 287.163712
L 277.743709 282.112079
L 282.818465 277.000661
L 287.887134 271.833953
L 292.953774 266.613752
L 298.034618 261.330171
L 303.101258 256.01782
L 308.169927 250.669958
L 313.242654 245.294675
L 318.323498 239.900513
L 323.400283 234.510846
L 328.468952 229.132417
L 333.531534 223.772418
L 338.616436 218.402529
L 343.679018 213.073546
L 348.759861 207.740968
L 353.83056 202.440304
L 358.903287 197.161218
L 363.976014 191.910001
L 369.048741 186.692947
L 374.11944 181.515001
L 379.202312 176.364025
L 384.262865 171.274633
L 389.345738 166.197378
L 394.416436 161.165524
L 399.491192 156.16064
L 404.565949 151.184076
L 409.638676 146.236281
L 414.707345 141.320851
L 419.782101 136.428346
L 424.8528 131.572701
L 429.915381 126.756163
L 434.988109 121.961203
L 440.068952 117.18692
L 445.14168 112.447699
L 450.20629 107.742641
L 455.279018 103.052866
L 460.36189 98.377926
" clip-path="url(#pe20e8e82be)" style="fill: none; stroke-dasharray: 5.55,2.4; stroke-dashoffset: 0; stroke: #ff7f0e; stroke-width: 1.5"/>
   </g>
   <g id="line2d_37">
    <path d="M 54.531534 374.04973
L 59.607508 374.04973
L 64.683482 374.049721
L 69.752273 374.049533
L 74.828125 374.048529
L 79.896794 374.045594
L 84.971347 374.039905
L 90.043669 374.034067
L 95.119034 374.019482
L 100.191152 373.974534
L 105.260633 373.89274
L 110.334375 373.791548
L 115.404667 373.701374
L 120.483888 373.654266
L 125.552557 373.677101
L 130.623052 373.786272
L 135.695576 373.982099
L 140.771347 373.809664
L 145.846509 373.44107
L 150.914976 373.021539
L 155.988312 372.573847
L 161.063474 372.117127
L 166.135998 371.669326
L 171.207102 371.250721
L 176.278409 370.886148
L 181.35418 370.602226
L 186.424675 370.422318
L 191.499634 370.366047
L 196.568304 370.454691
L 201.644886 370.708757
L 206.716802 371.1442
L 211.790138 371.77311
L 216.86185 372.585992
L 221.932549 373.374052
L 227.005276 372.754866
L 232.079829 371.247723
L 237.151542 369.399557
L 242.223661 367.255243
L 247.298417 364.853717
L 252.370738 362.242988
L 257.442654 359.45969
L 262.513352 356.529671
L 267.58608 353.470776
L 272.658807 350.297346
L 277.733563 347.020392
L 282.804261 343.655514
L 287.879018 340.216466
L 292.951745 336.722262
L 298.022443 333.191918
L 303.0972 329.628265
L 308.167898 326.036742
L 313.242654 322.410067
L 318.315381 318.741587
L 323.38608 315.021413
L 328.458807 311.239206
L 333.533563 307.383729
L 338.60629 303.445541
L 343.676989 299.416552
L 348.749716 295.286871
L 353.822443 291.052903
L 358.89517 286.709254
L 363.969927 282.250979
L 369.040625 277.680326
L 374.115381 272.986506
L 379.188109 268.169968
L 384.260836 263.228466
L 389.333563 258.159752
L 394.404261 252.966972
L 399.479018 247.643833
L 404.549716 242.197976
L 409.624472 236.628504
L 414.6972 230.94935
L 419.767898 225.17445
L 424.842654 219.312344
L 429.915381 213.38416
L 434.988109 207.39664
L 440.058807 201.366416
L 445.133563 195.294388
L 450.204261 189.191792
L 455.279018 183.052786
L 460.351745 176.881865
" clip-path="url(#pe20e8e82be)" style="fill: none; stroke-dasharray: 5.55,2.4; stroke-dashoffset: 0; stroke: #2ca02c; stroke-width: 1.5"/>
   </g>
   <g id="line2d_38">
    <path d="M 54.531534 374.04973
L 190.491176 373.945883
L 212.803669 373.709642
L 227.012986 373.362554
L 237.153774 372.924215
L 245.276022 372.385766
L 253.387922 371.596982
L 259.477832 370.761588
L 263.538043 370.03953
L 267.594196 369.14302
L 271.64832 368.026204
L 275.706501 366.640398
L 279.77077 364.944654
L 283.820836 362.925439
L 287.876989 360.578978
L 291.93517 357.942537
L 295.99741 355.073112
L 302.088741 350.493109
L 320.346501 336.521734
L 332.519018 327.624424
L 348.759861 315.749625
L 356.868109 309.560274
L 364.986501 303.097618
L 371.079861 298.019464
L 377.163076 292.673849
L 383.252378 286.976715
L 389.337621 280.922217
L 397.456014 272.442145
L 413.684683 255.384006
L 433.98168 234.451061
L 440.062865 227.757804
L 446.152167 220.663133
L 452.235381 213.17154
L 460.353774 202.799466
L 460.353774 202.799466
" clip-path="url(#pe20e8e82be)" style="fill: none; stroke: #d62728; stroke-width: 1.5; stroke-linecap: square"/>
   </g>
   <g id="line2d_39">
    <path d="M 54.531534 374.04973
L 212.804277 373.942644
L 245.266485 373.771209
L 257.440625 373.508219
L 267.588109 373.061267
L 275.704472 372.444
L 281.791745 371.713158
L 285.847898 371.006209
L 289.90608 370.031412
L 293.964261 368.704924
L 298.024472 366.97133
L 302.082654 364.840412
L 306.138807 362.398924
L 326.431745 349.547332
L 338.60832 342.191089
L 346.724683 337.047171
L 360.924261 327.697245
L 369.042654 322.191603
L 375.129927 317.79626
L 381.219229 313.072772
L 387.304472 308.035074
L 423.828109 276.801527
L 427.88629 273.031457
L 431.942443 269.011458
L 436.002654 264.711861
L 442.087898 257.873861
L 454.266501 243.974004
L 460.349716 237.345478
L 460.349716 237.345478
" clip-path="url(#pe20e8e82be)" style="fill: none; stroke: #9467bd; stroke-width: 1.5; stroke-linecap: square"/>
   </g>
   <g id="line2d_40">
    <path d="M 54.531534 374.04973
L 304.109716 373.939065
L 324.402654 373.69155
L 334.54608 373.403338
L 340.633352 373.095556
L 344.691534 372.708656
L 346.720625 372.381549
L 348.749716 371.930435
L 352.807898 370.68014
L 356.86608 369.104452
L 369.040625 363.915223
L 373.098807 361.569302
L 377.156989 359.194117
L 381.21517 357.151663
L 385.273352 355.455289
L 389.331534 353.902579
L 391.360625 352.88542
L 393.389716 351.542633
L 399.476989 346.769024
L 403.53517 344.07972
L 407.593352 341.760904
L 417.738807 336.385172
L 421.796989 333.599987
L 425.85517 330.830084
L 427.884261 329.434929
L 436.000625 323.142774
L 438.029716 321.959205
L 442.087898 319.90313
L 444.116989 318.718212
L 448.17517 315.922688
L 452.233352 313.030068
L 456.291534 310.1824
L 460.349716 306.922978
L 460.349716 306.922978
" clip-path="url(#pe20e8e82be)" style="fill: none; stroke: #8c564b; stroke-width: 1.5; stroke-linecap: square"/>
   </g>
   <g id="patch_3">
    <path d="M 34.240625 383.04
L 34.240625 50.4
" style="fill: none; stroke: #000000; stroke-width: 0.8; stroke-linejoin: miter; stroke-linecap: square"/>
   </g>
   <g id="patch_4">
    <path d="M 480.640625 383.04
L 480.640625 50.4
" style="fill: none; stroke: #000000; stroke-width: 0.8; stroke-linejoin: miter; stroke-linecap: square"/>
   </g>
   <g id="patch_5">
    <path d="M 34.240625 383.04
L 480.640625 383.04
" style="fill: none; stroke: #000000; stroke-width: 0.8; stroke-linejoin: miter; stroke-linecap: square"/>
   </g>
   <g id="patch_6">
    <path d="M 34.240625 50.4
L 480.640625 50.4
" style="fill: none; stroke: #000000; stroke-width: 0.8; stroke-linejoin: miter; stroke-linecap: square"/>
   </g>
   <g id="text_20">
    <!-- displacement_t10.svg created 2025-01-23 10:05:53 EST-0500 by chovey on s1088757 -->
    <g style="fill: #696969" transform="translate(84.0125 44.4) scale(0.08 -0.08)">
     <defs>
      <path id="DejaVuSans-5f" d="M 3263 -1063
L 3263 -1509
L -63 -1509
L -63 -1063
L 3263 -1063
z
" transform="scale(0.015625)"/>
      <path id="DejaVuSans-76" d="M 191 3500
L 800 3500
L 1894 563
L 2988 3500
L 3597 3500
L 2284 0
L 1503 0
L 191 3500
z
" transform="scale(0.015625)"/>
      <path id="DejaVuSans-72" d="M 2631 2963
Q 2534 3019 2420 3045
Q 2306 3072 2169 3072
Q 1681 3072 1420 2755
Q 1159 2438 1159 1844
L 1159 0
L 581 0
L 581 3500
L 1159 3500
L 1159 2956
Q 1341 3275 1631 3429
Q 1922 3584 2338 3584
Q 2397 3584 2469 3576
Q 2541 3569 2628 3553
L 2631 2963
z
" transform="scale(0.015625)"/>
      <path id="DejaVuSans-2d" d="M 313 2009
L 1997 2009
L 1997 1497
L 313 1497
L 313 2009
z
" transform="scale(0.015625)"/>
      <path id="DejaVuSans-3a" d="M 750 794
L 1409 794
L 1409 0
L 750 0
L 750 794
z
M 750 3309
L 1409 3309
L 1409 2516
L 750 2516
L 750 3309
z
" transform="scale(0.015625)"/>
      <path id="DejaVuSans-45" d="M 628 4666
L 3578 4666
L 3578 4134
L 1259 4134
L 1259 2753
L 3481 2753
L 3481 2222
L 1259 2222
L 1259 531
L 3634 531
L 3634 0
L 628 0
L 628 4666
z
" transform="scale(0.015625)"/>
      <path id="DejaVuSans-53" d="M 3425 4513
L 3425 3897
Q 3066 4069 2747 4153
Q 2428 4238 2131 4238
Q 1616 4238 1336 4038
Q 1056 3838 1056 3469
Q 1056 3159 1242 3001
Q 1428 2844 1947 2747
L 2328 2669
Q 3034 2534 3370 2195
Q 3706 1856 3706 1288
Q 3706 609 3251 259
Q 2797 -91 1919 -91
Q 1588 -91 1214 -16
Q 841 59 441 206
L 441 856
Q 825 641 1194 531
Q 1563 422 1919 422
Q 2459 422 2753 634
Q 3047 847 3047 1241
Q 3047 1584 2836 1778
Q 2625 1972 2144 2069
L 1759 2144
Q 1053 2284 737 2584
Q 422 2884 422 3419
Q 422 4038 858 4394
Q 1294 4750 2059 4750
Q 2388 4750 2728 4690
Q 3069 4631 3425 4513
z
" transform="scale(0.015625)"/>
      <path id="DejaVuSans-54" d="M -19 4666
L 3928 4666
L 3928 4134
L 2272 4134
L 2272 0
L 1638 0
L 1638 4134
L -19 4134
L -19 4666
z
" transform="scale(0.015625)"/>
      <path id="DejaVuSans-62" d="M 3116 1747
Q 3116 2381 2855 2742
Q 2594 3103 2138 3103
Q 1681 3103 1420 2742
Q 1159 2381 1159 1747
Q 1159 1113 1420 752
Q 1681 391 2138 391
Q 2594 391 2855 752
Q 3116 1113 3116 1747
z
M 1159 2969
Q 1341 3281 1617 3432
Q 1894 3584 2278 3584
Q 2916 3584 3314 3078
Q 3713 2572 3713 1747
Q 3713 922 3314 415
Q 2916 -91 2278 -91
Q 1894 -91 1617 61
Q 1341 213 1159 525
L 1159 0
L 581 0
L 581 4863
L 1159 4863
L 1159 2969
z
" transform="scale(0.015625)"/>
      <path id="DejaVuSans-79" d="M 2059 -325
Q 1816 -950 1584 -1140
Q 1353 -1331 966 -1331
L 506 -1331
L 506 -850
L 844 -850
Q 1081 -850 1212 -737
Q 1344 -625 1503 -206
L 1606 56
L 191 3500
L 800 3500
L 1894 763
L 2988 3500
L 3597 3500
L 2059 -325
z
" transform="scale(0.015625)"/>
      <path id="DejaVuSans-68" d="M 3513 2113
L 3513 0
L 2938 0
L 2938 2094
Q 2938 2591 2744 2837
Q 2550 3084 2163 3084
Q 1697 3084 1428 2787
Q 1159 2491 1159 1978
L 1159 0
L 581 0
L 581 4863
L 1159 4863
L 1159 2956
Q 1366 3272 1645 3428
Q 1925 3584 2291 3584
Q 2894 3584 3203 3211
Q 3513 2838 3513 2113
z
" transform="scale(0.015625)"/>
      <path id="DejaVuSans-6f" d="M 1959 3097
Q 1497 3097 1228 2736
Q 959 2375 959 1747
Q 959 1119 1226 758
Q 1494 397 1959 397
Q 2419 397 2687 759
Q 2956 1122 2956 1747
Q 2956 2369 2687 2733
Q 2419 3097 1959 3097
z
M 1959 3584
Q 2709 3584 3137 3096
Q 3566 2609 3566 1747
Q 3566 888 3137 398
Q 2709 -91 1959 -91
Q 1206 -91 779 398
Q 353 888 353 1747
Q 353 2609 779 3096
Q 1206 3584 1959 3584
z
" transform="scale(0.015625)"/>
      <path id="DejaVuSans-38" d="M 2034 2216
Q 1584 2216 1326 1975
Q 1069 1734 1069 1313
Q 1069 891 1326 650
Q 1584 409 2034 409
Q 2484 409 2743 651
Q 3003 894 3003 1313
Q 3003 1734 2745 1975
Q 2488 2216 2034 2216
z
M 1403 2484
Q 997 2584 770 2862
Q 544 3141 544 3541
Q 544 4100 942 4425
Q 1341 4750 2034 4750
Q 2731 4750 3128 4425
Q 3525 4100 3525 3541
Q 3525 3141 3298 2862
Q 3072 2584 2669 2484
Q 3125 2378 3379 2068
Q 3634 1759 3634 1313
Q 3634 634 3220 271
Q 2806 -91 2034 -91
Q 1263 -91 848 271
Q 434 634 434 1313
Q 434 1759 690 2068
Q 947 2378 1403 2484
z
M 1172 3481
Q 1172 3119 1398 2916
Q 1625 2713 2034 2713
Q 2441 2713 2670 2916
Q 2900 3119 2900 3481
Q 2900 3844 2670 4047
Q 2441 4250 2034 4250
Q 1625 4250 1398 4047
Q 1172 3844 1172 3481
z
" transform="scale(0.015625)"/>
     </defs>
     <use xlink:href="#DejaVuSans-64"/>
     <use xlink:href="#DejaVuSans-69" transform="translate(63.476562 0)"/>
     <use xlink:href="#DejaVuSans-73" transform="translate(91.259766 0)"/>
     <use xlink:href="#DejaVuSans-70" transform="translate(143.359375 0)"/>
     <use xlink:href="#DejaVuSans-6c" transform="translate(206.835938 0)"/>
     <use xlink:href="#DejaVuSans-61" transform="translate(234.619141 0)"/>
     <use xlink:href="#DejaVuSans-63" transform="translate(295.898438 0)"/>
     <use xlink:href="#DejaVuSans-65" transform="translate(350.878906 0)"/>
     <use xlink:href="#DejaVuSans-6d" transform="translate(412.402344 0)"/>
     <use xlink:href="#DejaVuSans-65" transform="translate(509.814453 0)"/>
     <use xlink:href="#DejaVuSans-6e" transform="translate(571.337891 0)"/>
     <use xlink:href="#DejaVuSans-74" transform="translate(634.716797 0)"/>
     <use xlink:href="#DejaVuSans-5f" transform="translate(673.925781 0)"/>
     <use xlink:href="#DejaVuSans-74" transform="translate(723.925781 0)"/>
     <use xlink:href="#DejaVuSans-31" transform="translate(763.134766 0)"/>
     <use xlink:href="#DejaVuSans-30" transform="translate(826.757812 0)"/>
     <use xlink:href="#DejaVuSans-2e" transform="translate(890.380859 0)"/>
     <use xlink:href="#DejaVuSans-73" transform="translate(922.167969 0)"/>
     <use xlink:href="#DejaVuSans-76" transform="translate(974.267578 0)"/>
     <use xlink:href="#DejaVuSans-67" transform="translate(1033.447266 0)"/>
     <use xlink:href="#DejaVuSans-20" transform="translate(1096.923828 0)"/>
     <use xlink:href="#DejaVuSans-63" transform="translate(1128.710938 0)"/>
     <use xlink:href="#DejaVuSans-72" transform="translate(1183.691406 0)"/>
     <use xlink:href="#DejaVuSans-65" transform="translate(1222.554688 0)"/>
     <use xlink:href="#DejaVuSans-61" transform="translate(1284.078125 0)"/>
     <use xlink:href="#DejaVuSans-74" transform="translate(1345.357422 0)"/>
     <use xlink:href="#DejaVuSans-65" transform="translate(1384.566406 0)"/>
     <use xlink:href="#DejaVuSans-64" transform="translate(1446.089844 0)"/>
     <use xlink:href="#DejaVuSans-20" transform="translate(1509.566406 0)"/>
     <use xlink:href="#DejaVuSans-32" transform="translate(1541.353516 0)"/>
     <use xlink:href="#DejaVuSans-30" transform="translate(1604.976562 0)"/>
     <use xlink:href="#DejaVuSans-32" transform="translate(1668.599609 0)"/>
     <use xlink:href="#DejaVuSans-35" transform="translate(1732.222656 0)"/>
     <use xlink:href="#DejaVuSans-2d" transform="translate(1795.845703 0)"/>
     <use xlink:href="#DejaVuSans-30" transform="translate(1831.929688 0)"/>
     <use xlink:href="#DejaVuSans-31" transform="translate(1895.552734 0)"/>
     <use xlink:href="#DejaVuSans-2d" transform="translate(1959.175781 0)"/>
     <use xlink:href="#DejaVuSans-32" transform="translate(1995.259766 0)"/>
     <use xlink:href="#DejaVuSans-33" transform="translate(2058.882812 0)"/>
     <use xlink:href="#DejaVuSans-20" transform="translate(2122.505859 0)"/>
     <use xlink:href="#DejaVuSans-31" transform="translate(2154.292969 0)"/>
     <use xlink:href="#DejaVuSans-30" transform="translate(2217.916016 0)"/>
     <use xlink:href="#DejaVuSans-3a" transform="translate(2281.539062 0)"/>
     <use xlink:href="#DejaVuSans-30" transform="translate(2315.230469 0)"/>
     <use xlink:href="#DejaVuSans-35" transform="translate(2378.853516 0)"/>
     <use xlink:href="#DejaVuSans-3a" transform="translate(2442.476562 0)"/>
     <use xlink:href="#DejaVuSans-35" transform="translate(2476.167969 0)"/>
     <use xlink:href="#DejaVuSans-33" transform="translate(2539.791016 0)"/>
     <use xlink:href="#DejaVuSans-20" transform="translate(2603.414062 0)"/>
     <use xlink:href="#DejaVuSans-45" transform="translate(2635.201172 0)"/>
     <use xlink:href="#DejaVuSans-53" transform="translate(2698.384766 0)"/>
     <use xlink:href="#DejaVuSans-54" transform="translate(2761.861328 0)"/>
     <use xlink:href="#DejaVuSans-2d" transform="translate(2813.820312 0)"/>
     <use xlink:href="#DejaVuSans-30" transform="translate(2849.904297 0)"/>
     <use xlink:href="#DejaVuSans-35" transform="translate(2913.527344 0)"/>
     <use xlink:href="#DejaVuSans-30" transform="translate(2977.150391 0)"/>
     <use xlink:href="#DejaVuSans-30" transform="translate(3040.773438 0)"/>
     <use xlink:href="#DejaVuSans-20" transform="translate(3104.396484 0)"/>
     <use xlink:href="#DejaVuSans-62" transform="translate(3136.183594 0)"/>
     <use xlink:href="#DejaVuSans-79" transform="translate(3199.660156 0)"/>
     <use xlink:href="#DejaVuSans-20" transform="translate(3258.839844 0)"/>
     <use xlink:href="#DejaVuSans-63" transform="translate(3290.626953 0)"/>
     <use xlink:href="#DejaVuSans-68" transform="translate(3345.607422 0)"/>
     <use xlink:href="#DejaVuSans-6f" transform="translate(3408.986328 0)"/>
     <use xlink:href="#DejaVuSans-76" transform="translate(3470.167969 0)"/>
     <use xlink:href="#DejaVuSans-65" transform="translate(3529.347656 0)"/>
     <use xlink:href="#DejaVuSans-79" transform="translate(3590.871094 0)"/>
     <use xlink:href="#DejaVuSans-20" transform="translate(3650.050781 0)"/>
     <use xlink:href="#DejaVuSans-6f" transform="translate(3681.837891 0)"/>
     <use xlink:href="#DejaVuSans-6e" transform="translate(3743.019531 0)"/>
     <use xlink:href="#DejaVuSans-20" transform="translate(3806.398438 0)"/>
     <use xlink:href="#DejaVuSans-73" transform="translate(3838.185547 0)"/>
     <use xlink:href="#DejaVuSans-31" transform="translate(3890.285156 0)"/>
     <use xlink:href="#DejaVuSans-30" transform="translate(3953.908203 0)"/>
     <use xlink:href="#DejaVuSans-38" transform="translate(4017.53125 0)"/>
     <use xlink:href="#DejaVuSans-38" transform="translate(4081.154297 0)"/>
     <use xlink:href="#DejaVuSans-37" transform="translate(4144.777344 0)"/>
     <use xlink:href="#DejaVuSans-35" transform="translate(4208.400391 0)"/>
     <use xlink:href="#DejaVuSans-37" transform="translate(4272.023438 0)"/>
    </g>
   </g>
   <g id="legend_1">
    <g id="patch_7">
     <path d="M 41.240625 146.46875
L 94.421875 146.46875
Q 96.421875 146.46875 96.421875 144.46875
L 96.421875 57.4
Q 96.421875 55.4 94.421875 55.4
L 41.240625 55.4
Q 39.240625 55.4 39.240625 57.4
L 39.240625 144.46875
Q 39.240625 146.46875 41.240625 146.46875
z
" style="fill: #ffffff; opacity: 0.8; stroke: #cccccc; stroke-linejoin: miter"/>
    </g>
    <g id="line2d_41">
     <path d="M 43.240625 63.498437
L 53.240625 63.498437
L 63.240625 63.498437
" style="fill: none; stroke-dasharray: 5.55,2.4; stroke-dashoffset: 0; stroke: #1f77b4; stroke-width: 1.5"/>
    </g>
    <g id="text_21">
     <!-- sr2 -->
     <g transform="translate(71.240625 66.998437) scale(0.1 -0.1)">
      <use xlink:href="#DejaVuSans-73"/>
      <use xlink:href="#DejaVuSans-72" transform="translate(52.099609 0)"/>
      <use xlink:href="#DejaVuSans-32" transform="translate(93.212891 0)"/>
     </g>
    </g>
    <g id="line2d_42">
     <path d="M 43.240625 78.176562
L 53.240625 78.176562
L 63.240625 78.176562
" style="fill: none; stroke-dasharray: 5.55,2.4; stroke-dashoffset: 0; stroke: #ff7f0e; stroke-width: 1.5"/>
    </g>
    <g id="text_22">
     <!-- sr3 -->
     <g transform="translate(71.240625 81.676562) scale(0.1 -0.1)">
      <use xlink:href="#DejaVuSans-73"/>
      <use xlink:href="#DejaVuSans-72" transform="translate(52.099609 0)"/>
      <use xlink:href="#DejaVuSans-33" transform="translate(93.212891 0)"/>
     </g>
    </g>
    <g id="line2d_43">
     <path d="M 43.240625 92.854687
L 53.240625 92.854687
L 63.240625 92.854687
" style="fill: none; stroke-dasharray: 5.55,2.4; stroke-dashoffset: 0; stroke: #2ca02c; stroke-width: 1.5"/>
    </g>
    <g id="text_23">
     <!-- sr4 -->
     <g transform="translate(71.240625 96.354687) scale(0.1 -0.1)">
      <use xlink:href="#DejaVuSans-73"/>
      <use xlink:href="#DejaVuSans-72" transform="translate(52.099609 0)"/>
      <use xlink:href="#DejaVuSans-34" transform="translate(93.212891 0)"/>
     </g>
    </g>
    <g id="line2d_44">
     <path d="M 43.240625 107.532812
L 53.240625 107.532812
L 63.240625 107.532812
" style="fill: none; stroke: #d62728; stroke-width: 1.5; stroke-linecap: square"/>
    </g>
    <g id="text_24">
     <!-- sr2c -->
     <g transform="translate(71.240625 111.032812) scale(0.1 -0.1)">
      <use xlink:href="#DejaVuSans-73"/>
      <use xlink:href="#DejaVuSans-72" transform="translate(52.099609 0)"/>
      <use xlink:href="#DejaVuSans-32" transform="translate(93.212891 0)"/>
      <use xlink:href="#DejaVuSans-63" transform="translate(156.835938 0)"/>
     </g>
    </g>
    <g id="line2d_45">
     <path d="M 43.240625 122.210938
L 53.240625 122.210938
L 63.240625 122.210938
" style="fill: none; stroke: #9467bd; stroke-width: 1.5; stroke-linecap: square"/>
    </g>
    <g id="text_25">
     <!-- sr3c -->
     <g transform="translate(71.240625 125.710938) scale(0.1 -0.1)">
      <use xlink:href="#DejaVuSans-73"/>
      <use xlink:href="#DejaVuSans-72" transform="translate(52.099609 0)"/>
      <use xlink:href="#DejaVuSans-33" transform="translate(93.212891 0)"/>
      <use xlink:href="#DejaVuSans-63" transform="translate(156.835938 0)"/>
     </g>
    </g>
    <g id="line2d_46">
     <path d="M 43.240625 136.889062
L 53.240625 136.889062
L 63.240625 136.889062
" style="fill: none; stroke: #8c564b; stroke-width: 1.5; stroke-linecap: square"/>
    </g>
    <g id="text_26">
     <!-- sr4c -->
     <g transform="translate(71.240625 140.389062) scale(0.1 -0.1)">
      <use xlink:href="#DejaVuSans-73"/>
      <use xlink:href="#DejaVuSans-72" transform="translate(52.099609 0)"/>
      <use xlink:href="#DejaVuSans-34" transform="translate(93.212891 0)"/>
      <use xlink:href="#DejaVuSans-63" transform="translate(156.835938 0)"/>
     </g>
    </g>
   </g>
  </g>
  <g id="text_27">
   <!-- Displacement Magnitude at R=10-cm for Various Resolutions -->
   <g transform="translate(66.820625 16.318125) scale(0.12 -0.12)">
    <defs>
     <path id="DejaVuSans-44" d="M 1259 4147
L 1259 519
L 2022 519
Q 2988 519 3436 956
Q 3884 1394 3884 2338
Q 3884 3275 3436 3711
Q 2988 4147 2022 4147
L 1259 4147
z
M 628 4666
L 1925 4666
Q 3281 4666 3915 4102
Q 4550 3538 4550 2338
Q 4550 1131 3912 565
Q 3275 0 1925 0
L 628 0
L 628 4666
z
" transform="scale(0.015625)"/>
     <path id="DejaVuSans-4d" d="M 628 4666
L 1569 4666
L 2759 1491
L 3956 4666
L 4897 4666
L 4897 0
L 4281 0
L 4281 4097
L 3078 897
L 2444 897
L 1241 4097
L 1241 0
L 628 0
L 628 4666
z
" transform="scale(0.015625)"/>
     <path id="DejaVuSans-52" d="M 2841 2188
Q 3044 2119 3236 1894
Q 3428 1669 3622 1275
L 4263 0
L 3584 0
L 2988 1197
Q 2756 1666 2539 1819
Q 2322 1972 1947 1972
L 1259 1972
L 1259 0
L 628 0
L 628 4666
L 2053 4666
Q 2853 4666 3247 4331
Q 3641 3997 3641 3322
Q 3641 2881 3436 2590
Q 3231 2300 2841 2188
z
M 1259 4147
L 1259 2491
L 2053 2491
Q 2509 2491 2742 2702
Q 2975 2913 2975 3322
Q 2975 3731 2742 3939
Q 2509 4147 2053 4147
L 1259 4147
z
" transform="scale(0.015625)"/>
     <path id="DejaVuSans-3d" d="M 678 2906
L 4684 2906
L 4684 2381
L 678 2381
L 678 2906
z
M 678 1631
L 4684 1631
L 4684 1100
L 678 1100
L 678 1631
z
" transform="scale(0.015625)"/>
     <path id="DejaVuSans-66" d="M 2375 4863
L 2375 4384
L 1825 4384
Q 1516 4384 1395 4259
Q 1275 4134 1275 3809
L 1275 3500
L 2222 3500
L 2222 3053
L 1275 3053
L 1275 0
L 697 0
L 697 3053
L 147 3053
L 147 3500
L 697 3500
L 697 3744
Q 697 4328 969 4595
Q 1241 4863 1831 4863
L 2375 4863
z
" transform="scale(0.015625)"/>
     <path id="DejaVuSans-56" d="M 1831 0
L 50 4666
L 709 4666
L 2188 738
L 3669 4666
L 4325 4666
L 2547 0
L 1831 0
z
" transform="scale(0.015625)"/>
    </defs>
    <use xlink:href="#DejaVuSans-44"/>
    <use xlink:href="#DejaVuSans-69" transform="translate(77.001953 0)"/>
    <use xlink:href="#DejaVuSans-73" transform="translate(104.785156 0)"/>
    <use xlink:href="#DejaVuSans-70" transform="translate(156.884766 0)"/>
    <use xlink:href="#DejaVuSans-6c" transform="translate(220.361328 0)"/>
    <use xlink:href="#DejaVuSans-61" transform="translate(248.144531 0)"/>
    <use xlink:href="#DejaVuSans-63" transform="translate(309.423828 0)"/>
    <use xlink:href="#DejaVuSans-65" transform="translate(364.404297 0)"/>
    <use xlink:href="#DejaVuSans-6d" transform="translate(425.927734 0)"/>
    <use xlink:href="#DejaVuSans-65" transform="translate(523.339844 0)"/>
    <use xlink:href="#DejaVuSans-6e" transform="translate(584.863281 0)"/>
    <use xlink:href="#DejaVuSans-74" transform="translate(648.242188 0)"/>
    <use xlink:href="#DejaVuSans-20" transform="translate(687.451172 0)"/>
    <use xlink:href="#DejaVuSans-4d" transform="translate(719.238281 0)"/>
    <use xlink:href="#DejaVuSans-61" transform="translate(805.517578 0)"/>
    <use xlink:href="#DejaVuSans-67" transform="translate(866.796875 0)"/>
    <use xlink:href="#DejaVuSans-6e" transform="translate(930.273438 0)"/>
    <use xlink:href="#DejaVuSans-69" transform="translate(993.652344 0)"/>
    <use xlink:href="#DejaVuSans-74" transform="translate(1021.435547 0)"/>
    <use xlink:href="#DejaVuSans-75" transform="translate(1060.644531 0)"/>
    <use xlink:href="#DejaVuSans-64" transform="translate(1124.023438 0)"/>
    <use xlink:href="#DejaVuSans-65" transform="translate(1187.5 0)"/>
    <use xlink:href="#DejaVuSans-20" transform="translate(1249.023438 0)"/>
    <use xlink:href="#DejaVuSans-61" transform="translate(1280.810547 0)"/>
    <use xlink:href="#DejaVuSans-74" transform="translate(1342.089844 0)"/>
    <use xlink:href="#DejaVuSans-20" transform="translate(1381.298828 0)"/>
    <use xlink:href="#DejaVuSans-52" transform="translate(1413.085938 0)"/>
    <use xlink:href="#DejaVuSans-3d" transform="translate(1482.568359 0)"/>
    <use xlink:href="#DejaVuSans-31" transform="translate(1566.357422 0)"/>
    <use xlink:href="#DejaVuSans-30" transform="translate(1629.980469 0)"/>
    <use xlink:href="#DejaVuSans-2d" transform="translate(1693.603516 0)"/>
    <use xlink:href="#DejaVuSans-63" transform="translate(1729.6875 0)"/>
    <use xlink:href="#DejaVuSans-6d" transform="translate(1784.667969 0)"/>
    <use xlink:href="#DejaVuSans-20" transform="translate(1882.080078 0)"/>
    <use xlink:href="#DejaVuSans-66" transform="translate(1913.867188 0)"/>
    <use xlink:href="#DejaVuSans-6f" transform="translate(1949.072266 0)"/>
    <use xlink:href="#DejaVuSans-72" transform="translate(2010.253906 0)"/>
    <use xlink:href="#DejaVuSans-20" transform="translate(2051.367188 0)"/>
    <use xlink:href="#DejaVuSans-56" transform="translate(2083.154297 0)"/>
    <use xlink:href="#DejaVuSans-61" transform="translate(2143.8125 0)"/>
    <use xlink:href="#DejaVuSans-72" transform="translate(2205.091797 0)"/>
    <use xlink:href="#DejaVuSans-69" transform="translate(2246.205078 0)"/>
    <use xlink:href="#DejaVuSans-6f" transform="translate(2273.988281 0)"/>
    <use xlink:href="#DejaVuSans-75" transform="translate(2335.169922 0)"/>
    <use xlink:href="#DejaVuSans-73" transform="translate(2398.548828 0)"/>
    <use xlink:href="#DejaVuSans-20" transform="translate(2450.648438 0)"/>
    <use xlink:href="#DejaVuSans-52" transform="translate(2482.435547 0)"/>
    <use xlink:href="#DejaVuSans-65" transform="translate(2547.417969 0)"/>
    <use xlink:href="#DejaVuSans-73" transform="translate(2608.941406 0)"/>
    <use xlink:href="#DejaVuSans-6f" transform="translate(2661.041016 0)"/>
    <use xlink:href="#DejaVuSans-6c" transform="translate(2722.222656 0)"/>
    <use xlink:href="#DejaVuSans-75" transform="translate(2750.005859 0)"/>
    <use xlink:href="#DejaVuSans-74" transform="translate(2813.384766 0)"/>
    <use xlink:href="#DejaVuSans-69" transform="translate(2852.59375 0)"/>
    <use xlink:href="#DejaVuSans-6f" transform="translate(2880.376953 0)"/>
    <use xlink:href="#DejaVuSans-6e" transform="translate(2941.558594 0)"/>
    <use xlink:href="#DejaVuSans-73" transform="translate(3004.9375 0)"/>
   </g>
  </g>
 </g>
 <defs>
  <clipPath id="pe20e8e82be">
   <rect x="34.240625" y="50.4" width="446.4" height="332.64"/>
  </clipPath>
 </defs>
</svg>
