<?xml version="1.0" encoding="utf-8" standalone="no"?>
<!DOCTYPE svg PUBLIC "-//W3C//DTD SVG 1.1//EN"
  "http://www.w3.org/Graphics/SVG/1.1/DTD/svg11.dtd">
<svg xmlns:xlink="http://www.w3.org/1999/xlink" width="503.74375pt" height="420.59625pt" viewBox="0 0 503.74375 420.59625" xmlns="http://www.w3.org/2000/svg" version="1.1">
 <metadata>
  <rdf:RDF xmlns:dc="http://purl.org/dc/elements/1.1/" xmlns:cc="http://creativecommons.org/ns#" xmlns:rdf="http://www.w3.org/1999/02/22-rdf-syntax-ns#">
   <cc:Work>
    <dc:type rdf:resource="http://purl.org/dc/dcmitype/StillImage"/>
    <dc:date>2025-01-23T09:49:31.041942</dc:date>
    <dc:format>image/svg+xml</dc:format>
    <dc:creator>
     <cc:Agent>
      <dc:title>Matplotlib v3.10.0, https://matplotlib.org/</dc:title>
     </cc:Agent>
    </dc:creator>
   </cc:Work>
  </rdf:RDF>
 </metadata>
 <defs>
  <style type="text/css">*{stroke-linejoin: round; stroke-linecap: butt}</style>
 </defs>
 <g id="figure_1">
  <g id="patch_1">
   <path d="M 0 420.59625
L 503.74375 420.59625
L 503.74375 0
L 0 0
z
" style="fill: #ffffff"/>
  </g>
  <g id="axes_1">
   <g id="patch_2">
    <path d="M 50.14375 383.04
L 496.54375 383.04
L 496.54375 50.4
L 50.14375 50.4
z
" style="fill: #ffffff"/>
   </g>
   <g id="matplotlib.axis_1">
    <g id="xtick_1">
     <g id="line2d_1">
      <path d="M 70.434659 383.04
L 70.434659 50.4
" clip-path="url(#p0afb9518de)" style="fill: none; stroke: #b0b0b0; stroke-width: 0.8; stroke-linecap: square"/>
     </g>
     <g id="line2d_2">
      <defs>
       <path id="mf06605f228" d="M 0 0
L 0 3.5
" style="stroke: #000000; stroke-width: 0.8"/>
      </defs>
      <g>
       <use xlink:href="#mf06605f228" x="70.434659" y="383.04" style="stroke: #000000; stroke-width: 0.8"/>
      </g>
     </g>
     <g id="text_1">
      <!-- 0.0000 -->
      <g transform="translate(52.939347 397.638437) scale(0.1 -0.1)">
       <defs>
        <path id="DejaVuSans-30" d="M 2034 4250
Q 1547 4250 1301 3770
Q 1056 3291 1056 2328
Q 1056 1369 1301 889
Q 1547 409 2034 409
Q 2525 409 2770 889
Q 3016 1369 3016 2328
Q 3016 3291 2770 3770
Q 2525 4250 2034 4250
z
M 2034 4750
Q 2819 4750 3233 4129
Q 3647 3509 3647 2328
Q 3647 1150 3233 529
Q 2819 -91 2034 -91
Q 1250 -91 836 529
Q 422 1150 422 2328
Q 422 3509 836 4129
Q 1250 4750 2034 4750
z
" transform="scale(0.015625)"/>
        <path id="DejaVuSans-2e" d="M 684 794
L 1344 794
L 1344 0
L 684 0
L 684 794
z
" transform="scale(0.015625)"/>
       </defs>
       <use xlink:href="#DejaVuSans-30"/>
       <use xlink:href="#DejaVuSans-2e" transform="translate(63.623047 0)"/>
       <use xlink:href="#DejaVuSans-30" transform="translate(95.410156 0)"/>
       <use xlink:href="#DejaVuSans-30" transform="translate(159.033203 0)"/>
       <use xlink:href="#DejaVuSans-30" transform="translate(222.65625 0)"/>
       <use xlink:href="#DejaVuSans-30" transform="translate(286.279297 0)"/>
      </g>
     </g>
    </g>
    <g id="xtick_2">
     <g id="line2d_3">
      <path d="M 121.161932 383.04
L 121.161932 50.4
" clip-path="url(#p0afb9518de)" style="fill: none; stroke: #b0b0b0; stroke-width: 0.8; stroke-linecap: square"/>
     </g>
     <g id="line2d_4">
      <g>
       <use xlink:href="#mf06605f228" x="121.161932" y="383.04" style="stroke: #000000; stroke-width: 0.8"/>
      </g>
     </g>
     <g id="text_2">
      <!-- 0.0025 -->
      <g transform="translate(103.666619 397.638437) scale(0.1 -0.1)">
       <defs>
        <path id="DejaVuSans-32" d="M 1228 531
L 3431 531
L 3431 0
L 469 0
L 469 531
Q 828 903 1448 1529
Q 2069 2156 2228 2338
Q 2531 2678 2651 2914
Q 2772 3150 2772 3378
Q 2772 3750 2511 3984
Q 2250 4219 1831 4219
Q 1534 4219 1204 4116
Q 875 4013 500 3803
L 500 4441
Q 881 4594 1212 4672
Q 1544 4750 1819 4750
Q 2544 4750 2975 4387
Q 3406 4025 3406 3419
Q 3406 3131 3298 2873
Q 3191 2616 2906 2266
Q 2828 2175 2409 1742
Q 1991 1309 1228 531
z
" transform="scale(0.015625)"/>
        <path id="DejaVuSans-35" d="M 691 4666
L 3169 4666
L 3169 4134
L 1269 4134
L 1269 2991
Q 1406 3038 1543 3061
Q 1681 3084 1819 3084
Q 2600 3084 3056 2656
Q 3513 2228 3513 1497
Q 3513 744 3044 326
Q 2575 -91 1722 -91
Q 1428 -91 1123 -41
Q 819 9 494 109
L 494 744
Q 775 591 1075 516
Q 1375 441 1709 441
Q 2250 441 2565 725
Q 2881 1009 2881 1497
Q 2881 1984 2565 2268
Q 2250 2553 1709 2553
Q 1456 2553 1204 2497
Q 953 2441 691 2322
L 691 4666
z
" transform="scale(0.015625)"/>
       </defs>
       <use xlink:href="#DejaVuSans-30"/>
       <use xlink:href="#DejaVuSans-2e" transform="translate(63.623047 0)"/>
       <use xlink:href="#DejaVuSans-30" transform="translate(95.410156 0)"/>
       <use xlink:href="#DejaVuSans-30" transform="translate(159.033203 0)"/>
       <use xlink:href="#DejaVuSans-32" transform="translate(222.65625 0)"/>
       <use xlink:href="#DejaVuSans-35" transform="translate(286.279297 0)"/>
      </g>
     </g>
    </g>
    <g id="xtick_3">
     <g id="line2d_5">
      <path d="M 171.889205 383.04
L 171.889205 50.4
" clip-path="url(#p0afb9518de)" style="fill: none; stroke: #b0b0b0; stroke-width: 0.8; stroke-linecap: square"/>
     </g>
     <g id="line2d_6">
      <g>
       <use xlink:href="#mf06605f228" x="171.889205" y="383.04" style="stroke: #000000; stroke-width: 0.8"/>
      </g>
     </g>
     <g id="text_3">
      <!-- 0.0050 -->
      <g transform="translate(154.393892 397.638437) scale(0.1 -0.1)">
       <use xlink:href="#DejaVuSans-30"/>
       <use xlink:href="#DejaVuSans-2e" transform="translate(63.623047 0)"/>
       <use xlink:href="#DejaVuSans-30" transform="translate(95.410156 0)"/>
       <use xlink:href="#DejaVuSans-30" transform="translate(159.033203 0)"/>
       <use xlink:href="#DejaVuSans-35" transform="translate(222.65625 0)"/>
       <use xlink:href="#DejaVuSans-30" transform="translate(286.279297 0)"/>
      </g>
     </g>
    </g>
    <g id="xtick_4">
     <g id="line2d_7">
      <path d="M 222.616477 383.04
L 222.616477 50.4
" clip-path="url(#p0afb9518de)" style="fill: none; stroke: #b0b0b0; stroke-width: 0.8; stroke-linecap: square"/>
     </g>
     <g id="line2d_8">
      <g>
       <use xlink:href="#mf06605f228" x="222.616477" y="383.04" style="stroke: #000000; stroke-width: 0.8"/>
      </g>
     </g>
     <g id="text_4">
      <!-- 0.0075 -->
      <g transform="translate(205.121165 397.638437) scale(0.1 -0.1)">
       <defs>
        <path id="DejaVuSans-37" d="M 525 4666
L 3525 4666
L 3525 4397
L 1831 0
L 1172 0
L 2766 4134
L 525 4134
L 525 4666
z
" transform="scale(0.015625)"/>
       </defs>
       <use xlink:href="#DejaVuSans-30"/>
       <use xlink:href="#DejaVuSans-2e" transform="translate(63.623047 0)"/>
       <use xlink:href="#DejaVuSans-30" transform="translate(95.410156 0)"/>
       <use xlink:href="#DejaVuSans-30" transform="translate(159.033203 0)"/>
       <use xlink:href="#DejaVuSans-37" transform="translate(222.65625 0)"/>
       <use xlink:href="#DejaVuSans-35" transform="translate(286.279297 0)"/>
      </g>
     </g>
    </g>
    <g id="xtick_5">
     <g id="line2d_9">
      <path d="M 273.34375 383.04
L 273.34375 50.4
" clip-path="url(#p0afb9518de)" style="fill: none; stroke: #b0b0b0; stroke-width: 0.8; stroke-linecap: square"/>
     </g>
     <g id="line2d_10">
      <g>
       <use xlink:href="#mf06605f228" x="273.34375" y="383.04" style="stroke: #000000; stroke-width: 0.8"/>
      </g>
     </g>
     <g id="text_5">
      <!-- 0.0100 -->
      <g transform="translate(255.848437 397.638437) scale(0.1 -0.1)">
       <defs>
        <path id="DejaVuSans-31" d="M 794 531
L 1825 531
L 1825 4091
L 703 3866
L 703 4441
L 1819 4666
L 2450 4666
L 2450 531
L 3481 531
L 3481 0
L 794 0
L 794 531
z
" transform="scale(0.015625)"/>
       </defs>
       <use xlink:href="#DejaVuSans-30"/>
       <use xlink:href="#DejaVuSans-2e" transform="translate(63.623047 0)"/>
       <use xlink:href="#DejaVuSans-30" transform="translate(95.410156 0)"/>
       <use xlink:href="#DejaVuSans-31" transform="translate(159.033203 0)"/>
       <use xlink:href="#DejaVuSans-30" transform="translate(222.65625 0)"/>
       <use xlink:href="#DejaVuSans-30" transform="translate(286.279297 0)"/>
      </g>
     </g>
    </g>
    <g id="xtick_6">
     <g id="line2d_11">
      <path d="M 324.071023 383.04
L 324.071023 50.4
" clip-path="url(#p0afb9518de)" style="fill: none; stroke: #b0b0b0; stroke-width: 0.8; stroke-linecap: square"/>
     </g>
     <g id="line2d_12">
      <g>
       <use xlink:href="#mf06605f228" x="324.071023" y="383.04" style="stroke: #000000; stroke-width: 0.8"/>
      </g>
     </g>
     <g id="text_6">
      <!-- 0.0125 -->
      <g transform="translate(306.57571 397.638437) scale(0.1 -0.1)">
       <use xlink:href="#DejaVuSans-30"/>
       <use xlink:href="#DejaVuSans-2e" transform="translate(63.623047 0)"/>
       <use xlink:href="#DejaVuSans-30" transform="translate(95.410156 0)"/>
       <use xlink:href="#DejaVuSans-31" transform="translate(159.033203 0)"/>
       <use xlink:href="#DejaVuSans-32" transform="translate(222.65625 0)"/>
       <use xlink:href="#DejaVuSans-35" transform="translate(286.279297 0)"/>
      </g>
     </g>
    </g>
    <g id="xtick_7">
     <g id="line2d_13">
      <path d="M 374.798295 383.04
L 374.798295 50.4
" clip-path="url(#p0afb9518de)" style="fill: none; stroke: #b0b0b0; stroke-width: 0.8; stroke-linecap: square"/>
     </g>
     <g id="line2d_14">
      <g>
       <use xlink:href="#mf06605f228" x="374.798295" y="383.04" style="stroke: #000000; stroke-width: 0.8"/>
      </g>
     </g>
     <g id="text_7">
      <!-- 0.0150 -->
      <g transform="translate(357.302983 397.638437) scale(0.1 -0.1)">
       <use xlink:href="#DejaVuSans-30"/>
       <use xlink:href="#DejaVuSans-2e" transform="translate(63.623047 0)"/>
       <use xlink:href="#DejaVuSans-30" transform="translate(95.410156 0)"/>
       <use xlink:href="#DejaVuSans-31" transform="translate(159.033203 0)"/>
       <use xlink:href="#DejaVuSans-35" transform="translate(222.65625 0)"/>
       <use xlink:href="#DejaVuSans-30" transform="translate(286.279297 0)"/>
      </g>
     </g>
    </g>
    <g id="xtick_8">
     <g id="line2d_15">
      <path d="M 425.525568 383.04
L 425.525568 50.4
" clip-path="url(#p0afb9518de)" style="fill: none; stroke: #b0b0b0; stroke-width: 0.8; stroke-linecap: square"/>
     </g>
     <g id="line2d_16">
      <g>
       <use xlink:href="#mf06605f228" x="425.525568" y="383.04" style="stroke: #000000; stroke-width: 0.8"/>
      </g>
     </g>
     <g id="text_8">
      <!-- 0.0175 -->
      <g transform="translate(408.030256 397.638437) scale(0.1 -0.1)">
       <use xlink:href="#DejaVuSans-30"/>
       <use xlink:href="#DejaVuSans-2e" transform="translate(63.623047 0)"/>
       <use xlink:href="#DejaVuSans-30" transform="translate(95.410156 0)"/>
       <use xlink:href="#DejaVuSans-31" transform="translate(159.033203 0)"/>
       <use xlink:href="#DejaVuSans-37" transform="translate(222.65625 0)"/>
       <use xlink:href="#DejaVuSans-35" transform="translate(286.279297 0)"/>
      </g>
     </g>
    </g>
    <g id="xtick_9">
     <g id="line2d_17">
      <path d="M 476.252841 383.04
L 476.252841 50.4
" clip-path="url(#p0afb9518de)" style="fill: none; stroke: #b0b0b0; stroke-width: 0.8; stroke-linecap: square"/>
     </g>
     <g id="line2d_18">
      <g>
       <use xlink:href="#mf06605f228" x="476.252841" y="383.04" style="stroke: #000000; stroke-width: 0.8"/>
      </g>
     </g>
     <g id="text_9">
      <!-- 0.0200 -->
      <g transform="translate(458.757528 397.638437) scale(0.1 -0.1)">
       <use xlink:href="#DejaVuSans-30"/>
       <use xlink:href="#DejaVuSans-2e" transform="translate(63.623047 0)"/>
       <use xlink:href="#DejaVuSans-30" transform="translate(95.410156 0)"/>
       <use xlink:href="#DejaVuSans-32" transform="translate(159.033203 0)"/>
       <use xlink:href="#DejaVuSans-30" transform="translate(222.65625 0)"/>
       <use xlink:href="#DejaVuSans-30" transform="translate(286.279297 0)"/>
      </g>
     </g>
    </g>
    <g id="text_10">
     <!-- time (s) -->
     <g transform="translate(253.952344 411.316562) scale(0.1 -0.1)">
      <defs>
       <path id="DejaVuSans-74" d="M 1172 4494
L 1172 3500
L 2356 3500
L 2356 3053
L 1172 3053
L 1172 1153
Q 1172 725 1289 603
Q 1406 481 1766 481
L 2356 481
L 2356 0
L 1766 0
Q 1100 0 847 248
Q 594 497 594 1153
L 594 3053
L 172 3053
L 172 3500
L 594 3500
L 594 4494
L 1172 4494
z
" transform="scale(0.015625)"/>
       <path id="DejaVuSans-69" d="M 603 3500
L 1178 3500
L 1178 0
L 603 0
L 603 3500
z
M 603 4863
L 1178 4863
L 1178 4134
L 603 4134
L 603 4863
z
" transform="scale(0.015625)"/>
       <path id="DejaVuSans-6d" d="M 3328 2828
Q 3544 3216 3844 3400
Q 4144 3584 4550 3584
Q 5097 3584 5394 3201
Q 5691 2819 5691 2113
L 5691 0
L 5113 0
L 5113 2094
Q 5113 2597 4934 2840
Q 4756 3084 4391 3084
Q 3944 3084 3684 2787
Q 3425 2491 3425 1978
L 3425 0
L 2847 0
L 2847 2094
Q 2847 2600 2669 2842
Q 2491 3084 2119 3084
Q 1678 3084 1418 2786
Q 1159 2488 1159 1978
L 1159 0
L 581 0
L 581 3500
L 1159 3500
L 1159 2956
Q 1356 3278 1631 3431
Q 1906 3584 2284 3584
Q 2666 3584 2933 3390
Q 3200 3197 3328 2828
z
" transform="scale(0.015625)"/>
       <path id="DejaVuSans-65" d="M 3597 1894
L 3597 1613
L 953 1613
Q 991 1019 1311 708
Q 1631 397 2203 397
Q 2534 397 2845 478
Q 3156 559 3463 722
L 3463 178
Q 3153 47 2828 -22
Q 2503 -91 2169 -91
Q 1331 -91 842 396
Q 353 884 353 1716
Q 353 2575 817 3079
Q 1281 3584 2069 3584
Q 2775 3584 3186 3129
Q 3597 2675 3597 1894
z
M 3022 2063
Q 3016 2534 2758 2815
Q 2500 3097 2075 3097
Q 1594 3097 1305 2825
Q 1016 2553 972 2059
L 3022 2063
z
" transform="scale(0.015625)"/>
       <path id="DejaVuSans-20" transform="scale(0.015625)"/>
       <path id="DejaVuSans-28" d="M 1984 4856
Q 1566 4138 1362 3434
Q 1159 2731 1159 2009
Q 1159 1288 1364 580
Q 1569 -128 1984 -844
L 1484 -844
Q 1016 -109 783 600
Q 550 1309 550 2009
Q 550 2706 781 3412
Q 1013 4119 1484 4856
L 1984 4856
z
" transform="scale(0.015625)"/>
       <path id="DejaVuSans-73" d="M 2834 3397
L 2834 2853
Q 2591 2978 2328 3040
Q 2066 3103 1784 3103
Q 1356 3103 1142 2972
Q 928 2841 928 2578
Q 928 2378 1081 2264
Q 1234 2150 1697 2047
L 1894 2003
Q 2506 1872 2764 1633
Q 3022 1394 3022 966
Q 3022 478 2636 193
Q 2250 -91 1575 -91
Q 1294 -91 989 -36
Q 684 19 347 128
L 347 722
Q 666 556 975 473
Q 1284 391 1588 391
Q 1994 391 2212 530
Q 2431 669 2431 922
Q 2431 1156 2273 1281
Q 2116 1406 1581 1522
L 1381 1569
Q 847 1681 609 1914
Q 372 2147 372 2553
Q 372 3047 722 3315
Q 1072 3584 1716 3584
Q 2034 3584 2315 3537
Q 2597 3491 2834 3397
z
" transform="scale(0.015625)"/>
       <path id="DejaVuSans-29" d="M 513 4856
L 1013 4856
Q 1481 4119 1714 3412
Q 1947 2706 1947 2009
Q 1947 1309 1714 600
Q 1481 -109 1013 -844
L 513 -844
Q 928 -128 1133 580
Q 1338 1288 1338 2009
Q 1338 2731 1133 3434
Q 928 4138 513 4856
z
" transform="scale(0.015625)"/>
      </defs>
      <use xlink:href="#DejaVuSans-74"/>
      <use xlink:href="#DejaVuSans-69" transform="translate(39.208984 0)"/>
      <use xlink:href="#DejaVuSans-6d" transform="translate(66.992188 0)"/>
      <use xlink:href="#DejaVuSans-65" transform="translate(164.404297 0)"/>
      <use xlink:href="#DejaVuSans-20" transform="translate(225.927734 0)"/>
      <use xlink:href="#DejaVuSans-28" transform="translate(257.714844 0)"/>
      <use xlink:href="#DejaVuSans-73" transform="translate(296.728516 0)"/>
      <use xlink:href="#DejaVuSans-29" transform="translate(348.828125 0)"/>
     </g>
    </g>
   </g>
   <g id="matplotlib.axis_2">
    <g id="ytick_1">
     <g id="line2d_19">
      <path d="M 50.14375 381.261176
L 496.54375 381.261176
" clip-path="url(#p0afb9518de)" style="fill: none; stroke: #b0b0b0; stroke-width: 0.8; stroke-linecap: square"/>
     </g>
     <g id="line2d_20">
      <defs>
       <path id="m1dc8090e61" d="M 0 0
L -3.5 0
" style="stroke: #000000; stroke-width: 0.8"/>
      </defs>
      <g>
       <use xlink:href="#m1dc8090e61" x="50.14375" y="381.261176" style="stroke: #000000; stroke-width: 0.8"/>
      </g>
     </g>
     <g id="text_11">
      <!-- 0.00 -->
      <g transform="translate(20.878125 385.060395) scale(0.1 -0.1)">
       <use xlink:href="#DejaVuSans-30"/>
       <use xlink:href="#DejaVuSans-2e" transform="translate(63.623047 0)"/>
       <use xlink:href="#DejaVuSans-30" transform="translate(95.410156 0)"/>
       <use xlink:href="#DejaVuSans-30" transform="translate(159.033203 0)"/>
      </g>
     </g>
    </g>
    <g id="ytick_2">
     <g id="line2d_21">
      <path d="M 50.14375 336.790588
L 496.54375 336.790588
" clip-path="url(#p0afb9518de)" style="fill: none; stroke: #b0b0b0; stroke-width: 0.8; stroke-linecap: square"/>
     </g>
     <g id="line2d_22">
      <g>
       <use xlink:href="#m1dc8090e61" x="50.14375" y="336.790588" style="stroke: #000000; stroke-width: 0.8"/>
      </g>
     </g>
     <g id="text_12">
      <!-- 0.25 -->
      <g transform="translate(20.878125 340.589807) scale(0.1 -0.1)">
       <use xlink:href="#DejaVuSans-30"/>
       <use xlink:href="#DejaVuSans-2e" transform="translate(63.623047 0)"/>
       <use xlink:href="#DejaVuSans-32" transform="translate(95.410156 0)"/>
       <use xlink:href="#DejaVuSans-35" transform="translate(159.033203 0)"/>
      </g>
     </g>
    </g>
    <g id="ytick_3">
     <g id="line2d_23">
      <path d="M 50.14375 292.32
L 496.54375 292.32
" clip-path="url(#p0afb9518de)" style="fill: none; stroke: #b0b0b0; stroke-width: 0.8; stroke-linecap: square"/>
     </g>
     <g id="line2d_24">
      <g>
       <use xlink:href="#m1dc8090e61" x="50.14375" y="292.32" style="stroke: #000000; stroke-width: 0.8"/>
      </g>
     </g>
     <g id="text_13">
      <!-- 0.50 -->
      <g transform="translate(20.878125 296.119219) scale(0.1 -0.1)">
       <use xlink:href="#DejaVuSans-30"/>
       <use xlink:href="#DejaVuSans-2e" transform="translate(63.623047 0)"/>
       <use xlink:href="#DejaVuSans-35" transform="translate(95.410156 0)"/>
       <use xlink:href="#DejaVuSans-30" transform="translate(159.033203 0)"/>
      </g>
     </g>
    </g>
    <g id="ytick_4">
     <g id="line2d_25">
      <path d="M 50.14375 247.849412
L 496.54375 247.849412
" clip-path="url(#p0afb9518de)" style="fill: none; stroke: #b0b0b0; stroke-width: 0.8; stroke-linecap: square"/>
     </g>
     <g id="line2d_26">
      <g>
       <use xlink:href="#m1dc8090e61" x="50.14375" y="247.849412" style="stroke: #000000; stroke-width: 0.8"/>
      </g>
     </g>
     <g id="text_14">
      <!-- 0.75 -->
      <g transform="translate(20.878125 251.648631) scale(0.1 -0.1)">
       <use xlink:href="#DejaVuSans-30"/>
       <use xlink:href="#DejaVuSans-2e" transform="translate(63.623047 0)"/>
       <use xlink:href="#DejaVuSans-37" transform="translate(95.410156 0)"/>
       <use xlink:href="#DejaVuSans-35" transform="translate(159.033203 0)"/>
      </g>
     </g>
    </g>
    <g id="ytick_5">
     <g id="line2d_27">
      <path d="M 50.14375 203.378824
L 496.54375 203.378824
" clip-path="url(#p0afb9518de)" style="fill: none; stroke: #b0b0b0; stroke-width: 0.8; stroke-linecap: square"/>
     </g>
     <g id="line2d_28">
      <g>
       <use xlink:href="#m1dc8090e61" x="50.14375" y="203.378824" style="stroke: #000000; stroke-width: 0.8"/>
      </g>
     </g>
     <g id="text_15">
      <!-- 1.00 -->
      <g transform="translate(20.878125 207.178042) scale(0.1 -0.1)">
       <use xlink:href="#DejaVuSans-31"/>
       <use xlink:href="#DejaVuSans-2e" transform="translate(63.623047 0)"/>
       <use xlink:href="#DejaVuSans-30" transform="translate(95.410156 0)"/>
       <use xlink:href="#DejaVuSans-30" transform="translate(159.033203 0)"/>
      </g>
     </g>
    </g>
    <g id="ytick_6">
     <g id="line2d_29">
      <path d="M 50.14375 158.908235
L 496.54375 158.908235
" clip-path="url(#p0afb9518de)" style="fill: none; stroke: #b0b0b0; stroke-width: 0.8; stroke-linecap: square"/>
     </g>
     <g id="line2d_30">
      <g>
       <use xlink:href="#m1dc8090e61" x="50.14375" y="158.908235" style="stroke: #000000; stroke-width: 0.8"/>
      </g>
     </g>
     <g id="text_16">
      <!-- 1.25 -->
      <g transform="translate(20.878125 162.707454) scale(0.1 -0.1)">
       <use xlink:href="#DejaVuSans-31"/>
       <use xlink:href="#DejaVuSans-2e" transform="translate(63.623047 0)"/>
       <use xlink:href="#DejaVuSans-32" transform="translate(95.410156 0)"/>
       <use xlink:href="#DejaVuSans-35" transform="translate(159.033203 0)"/>
      </g>
     </g>
    </g>
    <g id="ytick_7">
     <g id="line2d_31">
      <path d="M 50.14375 114.437647
L 496.54375 114.437647
" clip-path="url(#p0afb9518de)" style="fill: none; stroke: #b0b0b0; stroke-width: 0.8; stroke-linecap: square"/>
     </g>
     <g id="line2d_32">
      <g>
       <use xlink:href="#m1dc8090e61" x="50.14375" y="114.437647" style="stroke: #000000; stroke-width: 0.8"/>
      </g>
     </g>
     <g id="text_17">
      <!-- 1.50 -->
      <g transform="translate(20.878125 118.236866) scale(0.1 -0.1)">
       <use xlink:href="#DejaVuSans-31"/>
       <use xlink:href="#DejaVuSans-2e" transform="translate(63.623047 0)"/>
       <use xlink:href="#DejaVuSans-35" transform="translate(95.410156 0)"/>
       <use xlink:href="#DejaVuSans-30" transform="translate(159.033203 0)"/>
      </g>
     </g>
    </g>
    <g id="ytick_8">
     <g id="line2d_33">
      <path d="M 50.14375 69.967059
L 496.54375 69.967059
" clip-path="url(#p0afb9518de)" style="fill: none; stroke: #b0b0b0; stroke-width: 0.8; stroke-linecap: square"/>
     </g>
     <g id="line2d_34">
      <g>
       <use xlink:href="#m1dc8090e61" x="50.14375" y="69.967059" style="stroke: #000000; stroke-width: 0.8"/>
      </g>
     </g>
     <g id="text_18">
      <!-- 1.75 -->
      <g transform="translate(20.878125 73.766278) scale(0.1 -0.1)">
       <use xlink:href="#DejaVuSans-31"/>
       <use xlink:href="#DejaVuSans-2e" transform="translate(63.623047 0)"/>
       <use xlink:href="#DejaVuSans-37" transform="translate(95.410156 0)"/>
       <use xlink:href="#DejaVuSans-35" transform="translate(159.033203 0)"/>
      </g>
     </g>
    </g>
    <g id="text_19">
     <!-- maximum principal log strain (cm/cm) -->
     <g transform="translate(14.798438 312.511406) rotate(-90) scale(0.1 -0.1)">
      <defs>
       <path id="DejaVuSans-61" d="M 2194 1759
Q 1497 1759 1228 1600
Q 959 1441 959 1056
Q 959 750 1161 570
Q 1363 391 1709 391
Q 2188 391 2477 730
Q 2766 1069 2766 1631
L 2766 1759
L 2194 1759
z
M 3341 1997
L 3341 0
L 2766 0
L 2766 531
Q 2569 213 2275 61
Q 1981 -91 1556 -91
Q 1019 -91 701 211
Q 384 513 384 1019
Q 384 1609 779 1909
Q 1175 2209 1959 2209
L 2766 2209
L 2766 2266
Q 2766 2663 2505 2880
Q 2244 3097 1772 3097
Q 1472 3097 1187 3025
Q 903 2953 641 2809
L 641 3341
Q 956 3463 1253 3523
Q 1550 3584 1831 3584
Q 2591 3584 2966 3190
Q 3341 2797 3341 1997
z
" transform="scale(0.015625)"/>
       <path id="DejaVuSans-78" d="M 3513 3500
L 2247 1797
L 3578 0
L 2900 0
L 1881 1375
L 863 0
L 184 0
L 1544 1831
L 300 3500
L 978 3500
L 1906 2253
L 2834 3500
L 3513 3500
z
" transform="scale(0.015625)"/>
       <path id="DejaVuSans-75" d="M 544 1381
L 544 3500
L 1119 3500
L 1119 1403
Q 1119 906 1312 657
Q 1506 409 1894 409
Q 2359 409 2629 706
Q 2900 1003 2900 1516
L 2900 3500
L 3475 3500
L 3475 0
L 2900 0
L 2900 538
Q 2691 219 2414 64
Q 2138 -91 1772 -91
Q 1169 -91 856 284
Q 544 659 544 1381
z
M 1991 3584
L 1991 3584
z
" transform="scale(0.015625)"/>
       <path id="DejaVuSans-70" d="M 1159 525
L 1159 -1331
L 581 -1331
L 581 3500
L 1159 3500
L 1159 2969
Q 1341 3281 1617 3432
Q 1894 3584 2278 3584
Q 2916 3584 3314 3078
Q 3713 2572 3713 1747
Q 3713 922 3314 415
Q 2916 -91 2278 -91
Q 1894 -91 1617 61
Q 1341 213 1159 525
z
M 3116 1747
Q 3116 2381 2855 2742
Q 2594 3103 2138 3103
Q 1681 3103 1420 2742
Q 1159 2381 1159 1747
Q 1159 1113 1420 752
Q 1681 391 2138 391
Q 2594 391 2855 752
Q 3116 1113 3116 1747
z
" transform="scale(0.015625)"/>
       <path id="DejaVuSans-72" d="M 2631 2963
Q 2534 3019 2420 3045
Q 2306 3072 2169 3072
Q 1681 3072 1420 2755
Q 1159 2438 1159 1844
L 1159 0
L 581 0
L 581 3500
L 1159 3500
L 1159 2956
Q 1341 3275 1631 3429
Q 1922 3584 2338 3584
Q 2397 3584 2469 3576
Q 2541 3569 2628 3553
L 2631 2963
z
" transform="scale(0.015625)"/>
       <path id="DejaVuSans-6e" d="M 3513 2113
L 3513 0
L 2938 0
L 2938 2094
Q 2938 2591 2744 2837
Q 2550 3084 2163 3084
Q 1697 3084 1428 2787
Q 1159 2491 1159 1978
L 1159 0
L 581 0
L 581 3500
L 1159 3500
L 1159 2956
Q 1366 3272 1645 3428
Q 1925 3584 2291 3584
Q 2894 3584 3203 3211
Q 3513 2838 3513 2113
z
" transform="scale(0.015625)"/>
       <path id="DejaVuSans-63" d="M 3122 3366
L 3122 2828
Q 2878 2963 2633 3030
Q 2388 3097 2138 3097
Q 1578 3097 1268 2742
Q 959 2388 959 1747
Q 959 1106 1268 751
Q 1578 397 2138 397
Q 2388 397 2633 464
Q 2878 531 3122 666
L 3122 134
Q 2881 22 2623 -34
Q 2366 -91 2075 -91
Q 1284 -91 818 406
Q 353 903 353 1747
Q 353 2603 823 3093
Q 1294 3584 2113 3584
Q 2378 3584 2631 3529
Q 2884 3475 3122 3366
z
" transform="scale(0.015625)"/>
       <path id="DejaVuSans-6c" d="M 603 4863
L 1178 4863
L 1178 0
L 603 0
L 603 4863
z
" transform="scale(0.015625)"/>
       <path id="DejaVuSans-6f" d="M 1959 3097
Q 1497 3097 1228 2736
Q 959 2375 959 1747
Q 959 1119 1226 758
Q 1494 397 1959 397
Q 2419 397 2687 759
Q 2956 1122 2956 1747
Q 2956 2369 2687 2733
Q 2419 3097 1959 3097
z
M 1959 3584
Q 2709 3584 3137 3096
Q 3566 2609 3566 1747
Q 3566 888 3137 398
Q 2709 -91 1959 -91
Q 1206 -91 779 398
Q 353 888 353 1747
Q 353 2609 779 3096
Q 1206 3584 1959 3584
z
" transform="scale(0.015625)"/>
       <path id="DejaVuSans-67" d="M 2906 1791
Q 2906 2416 2648 2759
Q 2391 3103 1925 3103
Q 1463 3103 1205 2759
Q 947 2416 947 1791
Q 947 1169 1205 825
Q 1463 481 1925 481
Q 2391 481 2648 825
Q 2906 1169 2906 1791
z
M 3481 434
Q 3481 -459 3084 -895
Q 2688 -1331 1869 -1331
Q 1566 -1331 1297 -1286
Q 1028 -1241 775 -1147
L 775 -588
Q 1028 -725 1275 -790
Q 1522 -856 1778 -856
Q 2344 -856 2625 -561
Q 2906 -266 2906 331
L 2906 616
Q 2728 306 2450 153
Q 2172 0 1784 0
Q 1141 0 747 490
Q 353 981 353 1791
Q 353 2603 747 3093
Q 1141 3584 1784 3584
Q 2172 3584 2450 3431
Q 2728 3278 2906 2969
L 2906 3500
L 3481 3500
L 3481 434
z
" transform="scale(0.015625)"/>
       <path id="DejaVuSans-2f" d="M 1625 4666
L 2156 4666
L 531 -594
L 0 -594
L 1625 4666
z
" transform="scale(0.015625)"/>
      </defs>
      <use xlink:href="#DejaVuSans-6d"/>
      <use xlink:href="#DejaVuSans-61" transform="translate(97.412109 0)"/>
      <use xlink:href="#DejaVuSans-78" transform="translate(158.691406 0)"/>
      <use xlink:href="#DejaVuSans-69" transform="translate(217.871094 0)"/>
      <use xlink:href="#DejaVuSans-6d" transform="translate(245.654297 0)"/>
      <use xlink:href="#DejaVuSans-75" transform="translate(343.066406 0)"/>
      <use xlink:href="#DejaVuSans-6d" transform="translate(406.445312 0)"/>
      <use xlink:href="#DejaVuSans-20" transform="translate(503.857422 0)"/>
      <use xlink:href="#DejaVuSans-70" transform="translate(535.644531 0)"/>
      <use xlink:href="#DejaVuSans-72" transform="translate(599.121094 0)"/>
      <use xlink:href="#DejaVuSans-69" transform="translate(640.234375 0)"/>
      <use xlink:href="#DejaVuSans-6e" transform="translate(668.017578 0)"/>
      <use xlink:href="#DejaVuSans-63" transform="translate(731.396484 0)"/>
      <use xlink:href="#DejaVuSans-69" transform="translate(786.376953 0)"/>
      <use xlink:href="#DejaVuSans-70" transform="translate(814.160156 0)"/>
      <use xlink:href="#DejaVuSans-61" transform="translate(877.636719 0)"/>
      <use xlink:href="#DejaVuSans-6c" transform="translate(938.916016 0)"/>
      <use xlink:href="#DejaVuSans-20" transform="translate(966.699219 0)"/>
      <use xlink:href="#DejaVuSans-6c" transform="translate(998.486328 0)"/>
      <use xlink:href="#DejaVuSans-6f" transform="translate(1026.269531 0)"/>
      <use xlink:href="#DejaVuSans-67" transform="translate(1087.451172 0)"/>
      <use xlink:href="#DejaVuSans-20" transform="translate(1150.927734 0)"/>
      <use xlink:href="#DejaVuSans-73" transform="translate(1182.714844 0)"/>
      <use xlink:href="#DejaVuSans-74" transform="translate(1234.814453 0)"/>
      <use xlink:href="#DejaVuSans-72" transform="translate(1274.023438 0)"/>
      <use xlink:href="#DejaVuSans-61" transform="translate(1315.136719 0)"/>
      <use xlink:href="#DejaVuSans-69" transform="translate(1376.416016 0)"/>
      <use xlink:href="#DejaVuSans-6e" transform="translate(1404.199219 0)"/>
      <use xlink:href="#DejaVuSans-20" transform="translate(1467.578125 0)"/>
      <use xlink:href="#DejaVuSans-28" transform="translate(1499.365234 0)"/>
      <use xlink:href="#DejaVuSans-63" transform="translate(1538.378906 0)"/>
      <use xlink:href="#DejaVuSans-6d" transform="translate(1593.359375 0)"/>
      <use xlink:href="#DejaVuSans-2f" transform="translate(1690.771484 0)"/>
      <use xlink:href="#DejaVuSans-63" transform="translate(1724.462891 0)"/>
      <use xlink:href="#DejaVuSans-6d" transform="translate(1779.443359 0)"/>
      <use xlink:href="#DejaVuSans-29" transform="translate(1876.855469 0)"/>
     </g>
    </g>
   </g>
   <g id="line2d_35">
    <path d="M 70.434659 381.261176
L 334.220535 381.161285
L 370.742143 380.735315
L 401.178506 380.152422
L 423.496477 379.528455
L 439.731234 378.788469
L 457.991023 377.799106
L 476.252841 376.552702
L 476.252841 376.552702
" clip-path="url(#p0afb9518de)" style="fill: none; stroke-dasharray: 5.55,2.4; stroke-dashoffset: 0; stroke: #1f77b4; stroke-width: 1.5"/>
   </g>
   <g id="line2d_36">
    <path d="M 70.434659 381.261176
L 334.220535 381.158941
L 370.742143 380.73597
L 401.178506 380.163411
L 421.469415 379.600695
L 439.731234 378.827123
L 457.991023 377.773419
L 476.252841 376.585023
L 476.252841 376.585023
" clip-path="url(#p0afb9518de)" style="fill: none; stroke-dasharray: 1.5,2.475; stroke-dashoffset: 0; stroke: #ff7f0e; stroke-width: 1.5"/>
   </g>
   <g id="line2d_37">
    <path d="M 70.434659 381.261176
L 334.220535 381.155595
L 370.742143 380.740373
L 401.178506 380.186363
L 421.469415 379.625038
L 437.702143 378.95929
L 462.049205 377.566631
L 476.252841 376.625349
L 476.252841 376.625349
" clip-path="url(#p0afb9518de)" style="fill: none; stroke: #2ca02c; stroke-width: 1.5; stroke-linecap: square"/>
   </g>
   <g id="line2d_38">
    <path d="M 70.434659 381.261176
L 334.220535 381.153988
L 372.771234 380.722826
L 403.207597 380.171644
L 423.496477 379.603014
L 439.731234 378.88401
L 468.140535 377.271489
L 476.252841 376.638388
L 476.252841 376.638388
" clip-path="url(#p0afb9518de)" style="fill: none; stroke: #d62728; stroke-width: 1.5; stroke-linecap: square"/>
   </g>
   <g id="line2d_39">
    <path d="M 70.434659 381.261176
L 334.220535 381.157062
L 372.771234 380.743416
L 397.122354 380.308672
L 419.440325 379.703681
L 431.612841 379.167875
L 455.963961 377.940309
L 476.252841 376.579758
L 476.252841 376.579758
" clip-path="url(#p0afb9518de)" style="fill: none; stroke: #9467bd; stroke-width: 1.5; stroke-linecap: square"/>
   </g>
   <g id="line2d_40">
    <path d="M 70.434659 381.261176
L 334.220535 381.160109
L 366.683961 380.794442
L 384.945779 380.398789
L 415.382143 379.427636
L 439.731234 378.30109
L 445.816477 377.692928
L 451.905779 376.824613
L 462.049205 375.098496
L 474.225779 372.877012
L 476.252841 372.464076
L 476.252841 372.464076
" clip-path="url(#p0afb9518de)" style="fill: none; stroke: #8c564b; stroke-width: 1.5; stroke-linecap: square"/>
   </g>
   <g id="line2d_41">
    <path d="M 70.434659 381.261176
L 328.129205 381.162075
L 348.420114 380.893337
L 364.652841 380.484868
L 386.97487 379.651503
L 395.089205 379.184382
L 401.178506 378.560318
L 407.26375 377.652157
L 413.353052 376.483096
L 419.440325 375.077772
L 427.554659 372.948183
L 439.731234 369.708251
L 460.024172 364.663597
L 466.111445 362.832031
L 476.252841 359.582298
L 476.252841 359.582298
" clip-path="url(#p0afb9518de)" style="fill: none; stroke: #e377c2; stroke-width: 1.5; stroke-linecap: square"/>
   </g>
   <g id="line2d_42">
    <path d="M 70.434659 381.261176
L 313.927597 381.155231
L 330.158295 380.917929
L 342.33487 380.54776
L 352.480325 380.018268
L 360.598717 379.334533
L 366.683961 378.578124
L 370.742143 377.905284
L 374.802354 377.069468
L 378.860535 376.069218
L 384.945779 374.311384
L 393.062143 371.664174
L 415.382143 364.100386
L 421.469415 362.329513
L 439.731234 357.29313
L 451.905779 353.460121
L 457.991023 351.632914
L 462.049205 350.555658
L 466.111445 349.634761
L 470.169626 348.885877
L 476.252841 348.009806
L 476.252841 348.009806
" clip-path="url(#p0afb9518de)" style="fill: none; stroke: #7f7f7f; stroke-width: 1.5; stroke-linecap: square"/>
   </g>
   <g id="line2d_43">
    <path d="M 70.434659 381.261176
L 279.431023 381.150316
L 301.751023 380.978146
L 313.927597 380.675193
L 322.041932 380.30154
L 330.158295 379.690719
L 336.245568 378.987929
L 340.305779 378.349171
L 344.361932 377.532976
L 348.420114 376.509619
L 352.480325 375.266915
L 356.538506 373.814559
L 362.627808 371.325042
L 380.887597 363.43185
L 386.97487 361.084159
L 393.062143 358.936763
L 399.149415 357.009764
L 407.26375 354.706899
L 417.411234 351.817556
L 431.612841 347.61135
L 437.702143 346.013966
L 443.789415 344.618657
L 451.905779 343.038528
L 470.169626 339.786839
L 476.252841 338.470153
L 476.252841 338.470153
" clip-path="url(#p0afb9518de)" style="fill: none; stroke: #bcbd22; stroke-width: 1.5; stroke-linecap: square"/>
   </g>
   <g id="line2d_44">
    <path d="M 70.434659 381.261176
L 246.968815 381.150569
L 271.315065 380.951686
L 283.491234 380.655763
L 291.607597 380.292392
L 299.72599 379.702447
L 305.809205 379.026601
L 309.867386 378.403906
L 313.927597 377.578941
L 317.985779 376.473846
L 322.041932 374.997601
L 326.102143 373.063877
L 330.158295 370.635516
L 334.220535 367.744448
L 338.276688 364.515385
L 346.395081 357.825888
L 350.451234 354.793883
L 354.511445 352.169229
L 358.567597 349.997286
L 362.627808 348.231803
L 366.683961 346.77975
L 372.771234 344.959657
L 380.887597 342.83254
L 389.003961 340.876546
L 397.122354 339.16514
L 409.296899 336.727618
L 415.382143 335.187512
L 421.469415 333.338603
L 431.612841 330.097053
L 435.675081 328.975683
L 439.731234 328.023834
L 445.816477 326.890724
L 451.905779 326.007894
L 460.024172 324.823909
L 464.080325 323.976833
L 468.140535 322.843544
L 472.196688 321.43863
L 476.252841 319.875755
L 476.252841 319.875755
" clip-path="url(#p0afb9518de)" style="fill: none; stroke: #17becf; stroke-width: 1.5; stroke-linecap: square"/>
   </g>
   <g id="line2d_45">
    <path d="M 70.434659 381.261176
L 173.921948 381.154816
L 188.125381 380.914397
L 198.267792 380.5456
L 206.386185 380.03213
L 212.475487 379.44562
L 218.561745 378.607883
L 222.620333 377.860955
L 226.677906 376.918659
L 230.733855 375.731241
L 234.791834 374.234165
L 238.850828 372.347207
L 240.882151 371.226353
L 242.911242 369.970041
L 244.939521 368.561728
L 246.968815 366.981777
L 248.995065 365.213289
L 251.027605 363.224084
L 253.055276 360.998064
L 255.083555 358.497394
L 257.114066 355.68205
L 259.142954 352.511831
L 261.16961 348.935328
L 263.200933 344.877654
L 265.229618 340.283842
L 267.259115 335.071177
L 269.287191 329.171353
L 271.315065 322.513039
L 273.34375 315.037
L 275.372841 306.721177
L 277.403961 297.557212
L 279.431023 287.621238
L 283.491234 265.753448
L 289.578506 230.327111
L 293.638717 206.99197
L 297.69487 185.341553
L 299.72599 175.451294
L 301.751023 166.345496
L 303.784172 158.063294
L 305.809205 150.729205
L 307.842354 144.359238
L 309.867386 139.036998
L 311.898506 134.751812
L 313.927597 131.523247
L 315.958717 129.315727
L 317.985779 128.075887
L 320.01487 127.718344
L 322.041932 128.132809
L 324.073052 129.194767
L 326.102143 130.758353
L 328.129205 132.68304
L 336.245568 141.333459
L 338.276688 143.229685
L 340.305779 144.894664
L 342.33487 146.32128
L 344.361932 147.507755
L 346.395081 148.477214
L 348.420114 149.245666
L 350.451234 149.845129
L 354.511445 150.652715
L 358.567597 151.140113
L 364.652841 151.599049
L 368.715081 151.618616
L 370.742143 151.43184
L 372.771234 151.049393
L 374.802354 150.441035
L 376.827386 149.597873
L 378.860535 148.535915
L 382.916688 145.977967
L 386.97487 143.354202
L 389.003961 142.222871
L 391.033052 141.306776
L 393.062143 140.659285
L 395.089205 140.330202
L 397.122354 140.349769
L 399.149415 140.741111
L 401.178506 141.509562
L 403.207597 142.637336
L 405.236688 144.08352
L 407.26375 145.791191
L 415.382143 153.342296
L 417.411234 154.850739
L 419.440325 155.996301
L 421.469415 156.711388
L 423.496477 156.949751
L 425.525568 156.688264
L 427.554659 155.916254
L 429.58375 154.633722
L 431.612841 152.85312
L 433.641932 150.606466
L 435.675081 147.959576
L 439.731234 141.970278
L 441.760325 138.964066
L 443.789415 136.187322
L 445.816477 133.807256
L 447.845568 131.943049
L 449.878717 130.678306
L 451.905779 130.057496
L 453.93487 130.071727
L 455.963961 130.683642
L 457.991023 131.829205
L 460.024172 133.43904
L 462.049205 135.422428
L 464.080325 137.701101
L 472.196688 147.447275
L 474.225779 149.380856
L 476.252841 150.844828
L 476.252841 150.844828
" clip-path="url(#p0afb9518de)" style="fill: none; stroke: #1f77b4; stroke-width: 1.5; stroke-linecap: square"/>
   </g>
   <g id="line2d_46">
    <path d="M 70.434659 381.261176
L 84.63929 381.203988
L 88.700312 381.017559
L 92.755268 380.578034
L 96.81629 379.758341
L 98.843961 379.169173
L 100.871429 378.441474
L 102.904983 377.55948
L 104.932451 376.516414
L 106.959919 375.298951
L 108.987589 373.897221
L 111.020941 372.2974
L 113.048612 370.501109
L 115.076079 368.497299
L 117.109634 366.27361
L 119.137102 363.838738
L 121.16457 361.18324
L 123.19224 358.305281
L 125.225592 355.19483
L 127.25306 351.870387
L 131.308198 344.562802
L 135.369221 336.393199
L 139.424359 327.438957
L 143.485381 317.749528
L 147.540317 307.448538
L 151.601339 296.617816
L 157.689829 279.693555
L 173.921948 233.854873
L 177.977086 223.004939
L 182.038109 212.659657
L 186.096493 202.980367
L 190.153661 194.098701
L 194.210625 186.149139
L 196.24073 182.559473
L 198.267792 179.256198
L 200.298709 176.241092
L 202.329829 173.531944
L 204.358311 171.142984
L 206.386185 169.083106
L 208.416493 167.354089
L 210.441932 165.964828
L 212.475487 164.908207
L 214.501128 164.189562
L 216.531842 163.796442
L 218.561745 163.718174
L 220.590024 163.938748
L 222.620333 164.431482
L 224.646786 165.167915
L 226.677906 166.114249
L 230.733855 168.448066
L 236.822143 172.217393
L 238.850828 173.304254
L 240.882151 174.211454
L 242.911242 174.89808
L 244.939521 175.335671
L 246.968815 175.508216
L 248.995065 175.422833
L 251.027605 175.093751
L 253.055276 174.556546
L 257.114066 173.035652
L 263.200933 170.408329
L 267.259115 168.979934
L 269.287191 168.469412
L 271.315065 168.122541
L 273.34375 167.948216
L 275.372841 167.955332
L 277.403961 168.136772
L 279.431023 168.483642
L 281.460114 168.981713
L 285.520325 170.353186
L 289.578506 172.062635
L 297.69487 175.625619
L 301.751023 177.086033
L 305.809205 178.151548
L 309.867386 178.779473
L 313.927597 179.014278
L 317.985779 178.960913
L 326.102143 178.485967
L 334.220535 177.897176
L 338.276688 177.432904
L 342.33487 176.653779
L 344.361932 176.088113
L 346.395081 175.378362
L 348.420114 174.510296
L 350.451234 173.469685
L 352.480325 172.249412
L 354.511445 170.842362
L 356.538506 169.246758
L 358.567597 167.45904
L 360.598717 165.484546
L 364.652841 161.055275
L 368.715081 156.174184
L 374.802354 148.708461
L 378.860535 144.030155
L 382.916688 139.803671
L 384.945779 137.900329
L 386.97487 136.167755
L 389.003961 134.627294
L 391.033052 133.305628
L 393.062143 132.218767
L 395.089205 131.377384
L 397.122354 130.776141
L 399.149415 130.399031
L 401.178506 130.221148
L 403.207597 130.206918
L 407.26375 130.559125
L 411.32599 131.32224
L 413.353052 131.855887
L 415.382143 132.505158
L 417.411234 133.282504
L 419.440325 134.19504
L 421.469415 135.244546
L 425.525568 137.720668
L 429.58375 140.604141
L 435.675081 145.421195
L 439.731234 148.623078
L 441.760325 150.058588
L 443.789415 151.294871
L 445.816477 152.273224
L 447.845568 152.956292
L 449.878717 153.329845
L 451.905779 153.395661
L 453.93487 153.176866
L 455.963961 152.712593
L 457.991023 152.049092
L 462.049205 150.320075
L 468.140535 147.461506
L 470.169626 146.648584
L 472.196688 145.999313
L 474.225779 145.568838
L 476.252841 145.403407
L 476.252841 145.403407
" clip-path="url(#p0afb9518de)" style="fill: none; stroke: #ff7f0e; stroke-width: 1.5; stroke-linecap: square"/>
   </g>
   <g id="patch_3">
    <path d="M 50.14375 383.04
L 50.14375 50.4
" style="fill: none; stroke: #000000; stroke-width: 0.8; stroke-linejoin: miter; stroke-linecap: square"/>
   </g>
   <g id="patch_4">
    <path d="M 496.54375 383.04
L 496.54375 50.4
" style="fill: none; stroke: #000000; stroke-width: 0.8; stroke-linejoin: miter; stroke-linecap: square"/>
   </g>
   <g id="patch_5">
    <path d="M 50.14375 383.04
L 496.54375 383.04
" style="fill: none; stroke: #000000; stroke-width: 0.8; stroke-linejoin: miter; stroke-linecap: square"/>
   </g>
   <g id="patch_6">
    <path d="M 50.14375 50.4
L 496.54375 50.4
" style="fill: none; stroke: #000000; stroke-width: 0.8; stroke-linejoin: miter; stroke-linecap: square"/>
   </g>
   <g id="text_20">
    <!-- log_strain_sr3c.svg created 2025-01-23 09:49:27 EST-0500 by chovey on s1088757 -->
    <g style="fill: #696969" transform="translate(105.566875 44.4) scale(0.08 -0.08)">
     <defs>
      <path id="DejaVuSans-5f" d="M 3263 -1063
L 3263 -1509
L -63 -1509
L -63 -1063
L 3263 -1063
z
" transform="scale(0.015625)"/>
      <path id="DejaVuSans-33" d="M 2597 2516
Q 3050 2419 3304 2112
Q 3559 1806 3559 1356
Q 3559 666 3084 287
Q 2609 -91 1734 -91
Q 1441 -91 1130 -33
Q 819 25 488 141
L 488 750
Q 750 597 1062 519
Q 1375 441 1716 441
Q 2309 441 2620 675
Q 2931 909 2931 1356
Q 2931 1769 2642 2001
Q 2353 2234 1838 2234
L 1294 2234
L 1294 2753
L 1863 2753
Q 2328 2753 2575 2939
Q 2822 3125 2822 3475
Q 2822 3834 2567 4026
Q 2313 4219 1838 4219
Q 1578 4219 1281 4162
Q 984 4106 628 3988
L 628 4550
Q 988 4650 1302 4700
Q 1616 4750 1894 4750
Q 2613 4750 3031 4423
Q 3450 4097 3450 3541
Q 3450 3153 3228 2886
Q 3006 2619 2597 2516
z
" transform="scale(0.015625)"/>
      <path id="DejaVuSans-76" d="M 191 3500
L 800 3500
L 1894 563
L 2988 3500
L 3597 3500
L 2284 0
L 1503 0
L 191 3500
z
" transform="scale(0.015625)"/>
      <path id="DejaVuSans-64" d="M 2906 2969
L 2906 4863
L 3481 4863
L 3481 0
L 2906 0
L 2906 525
Q 2725 213 2448 61
Q 2172 -91 1784 -91
Q 1150 -91 751 415
Q 353 922 353 1747
Q 353 2572 751 3078
Q 1150 3584 1784 3584
Q 2172 3584 2448 3432
Q 2725 3281 2906 2969
z
M 947 1747
Q 947 1113 1208 752
Q 1469 391 1925 391
Q 2381 391 2643 752
Q 2906 1113 2906 1747
Q 2906 2381 2643 2742
Q 2381 3103 1925 3103
Q 1469 3103 1208 2742
Q 947 2381 947 1747
z
" transform="scale(0.015625)"/>
      <path id="DejaVuSans-2d" d="M 313 2009
L 1997 2009
L 1997 1497
L 313 1497
L 313 2009
z
" transform="scale(0.015625)"/>
      <path id="DejaVuSans-39" d="M 703 97
L 703 672
Q 941 559 1184 500
Q 1428 441 1663 441
Q 2288 441 2617 861
Q 2947 1281 2994 2138
Q 2813 1869 2534 1725
Q 2256 1581 1919 1581
Q 1219 1581 811 2004
Q 403 2428 403 3163
Q 403 3881 828 4315
Q 1253 4750 1959 4750
Q 2769 4750 3195 4129
Q 3622 3509 3622 2328
Q 3622 1225 3098 567
Q 2575 -91 1691 -91
Q 1453 -91 1209 -44
Q 966 3 703 97
z
M 1959 2075
Q 2384 2075 2632 2365
Q 2881 2656 2881 3163
Q 2881 3666 2632 3958
Q 2384 4250 1959 4250
Q 1534 4250 1286 3958
Q 1038 3666 1038 3163
Q 1038 2656 1286 2365
Q 1534 2075 1959 2075
z
" transform="scale(0.015625)"/>
      <path id="DejaVuSans-3a" d="M 750 794
L 1409 794
L 1409 0
L 750 0
L 750 794
z
M 750 3309
L 1409 3309
L 1409 2516
L 750 2516
L 750 3309
z
" transform="scale(0.015625)"/>
      <path id="DejaVuSans-34" d="M 2419 4116
L 825 1625
L 2419 1625
L 2419 4116
z
M 2253 4666
L 3047 4666
L 3047 1625
L 3713 1625
L 3713 1100
L 3047 1100
L 3047 0
L 2419 0
L 2419 1100
L 313 1100
L 313 1709
L 2253 4666
z
" transform="scale(0.015625)"/>
      <path id="DejaVuSans-45" d="M 628 4666
L 3578 4666
L 3578 4134
L 1259 4134
L 1259 2753
L 3481 2753
L 3481 2222
L 1259 2222
L 1259 531
L 3634 531
L 3634 0
L 628 0
L 628 4666
z
" transform="scale(0.015625)"/>
      <path id="DejaVuSans-53" d="M 3425 4513
L 3425 3897
Q 3066 4069 2747 4153
Q 2428 4238 2131 4238
Q 1616 4238 1336 4038
Q 1056 3838 1056 3469
Q 1056 3159 1242 3001
Q 1428 2844 1947 2747
L 2328 2669
Q 3034 2534 3370 2195
Q 3706 1856 3706 1288
Q 3706 609 3251 259
Q 2797 -91 1919 -91
Q 1588 -91 1214 -16
Q 841 59 441 206
L 441 856
Q 825 641 1194 531
Q 1563 422 1919 422
Q 2459 422 2753 634
Q 3047 847 3047 1241
Q 3047 1584 2836 1778
Q 2625 1972 2144 2069
L 1759 2144
Q 1053 2284 737 2584
Q 422 2884 422 3419
Q 422 4038 858 4394
Q 1294 4750 2059 4750
Q 2388 4750 2728 4690
Q 3069 4631 3425 4513
z
" transform="scale(0.015625)"/>
      <path id="DejaVuSans-54" d="M -19 4666
L 3928 4666
L 3928 4134
L 2272 4134
L 2272 0
L 1638 0
L 1638 4134
L -19 4134
L -19 4666
z
" transform="scale(0.015625)"/>
      <path id="DejaVuSans-62" d="M 3116 1747
Q 3116 2381 2855 2742
Q 2594 3103 2138 3103
Q 1681 3103 1420 2742
Q 1159 2381 1159 1747
Q 1159 1113 1420 752
Q 1681 391 2138 391
Q 2594 391 2855 752
Q 3116 1113 3116 1747
z
M 1159 2969
Q 1341 3281 1617 3432
Q 1894 3584 2278 3584
Q 2916 3584 3314 3078
Q 3713 2572 3713 1747
Q 3713 922 3314 415
Q 2916 -91 2278 -91
Q 1894 -91 1617 61
Q 1341 213 1159 525
L 1159 0
L 581 0
L 581 4863
L 1159 4863
L 1159 2969
z
" transform="scale(0.015625)"/>
      <path id="DejaVuSans-79" d="M 2059 -325
Q 1816 -950 1584 -1140
Q 1353 -1331 966 -1331
L 506 -1331
L 506 -850
L 844 -850
Q 1081 -850 1212 -737
Q 1344 -625 1503 -206
L 1606 56
L 191 3500
L 800 3500
L 1894 763
L 2988 3500
L 3597 3500
L 2059 -325
z
" transform="scale(0.015625)"/>
      <path id="DejaVuSans-68" d="M 3513 2113
L 3513 0
L 2938 0
L 2938 2094
Q 2938 2591 2744 2837
Q 2550 3084 2163 3084
Q 1697 3084 1428 2787
Q 1159 2491 1159 1978
L 1159 0
L 581 0
L 581 4863
L 1159 4863
L 1159 2956
Q 1366 3272 1645 3428
Q 1925 3584 2291 3584
Q 2894 3584 3203 3211
Q 3513 2838 3513 2113
z
" transform="scale(0.015625)"/>
      <path id="DejaVuSans-38" d="M 2034 2216
Q 1584 2216 1326 1975
Q 1069 1734 1069 1313
Q 1069 891 1326 650
Q 1584 409 2034 409
Q 2484 409 2743 651
Q 3003 894 3003 1313
Q 3003 1734 2745 1975
Q 2488 2216 2034 2216
z
M 1403 2484
Q 997 2584 770 2862
Q 544 3141 544 3541
Q 544 4100 942 4425
Q 1341 4750 2034 4750
Q 2731 4750 3128 4425
Q 3525 4100 3525 3541
Q 3525 3141 3298 2862
Q 3072 2584 2669 2484
Q 3125 2378 3379 2068
Q 3634 1759 3634 1313
Q 3634 634 3220 271
Q 2806 -91 2034 -91
Q 1263 -91 848 271
Q 434 634 434 1313
Q 434 1759 690 2068
Q 947 2378 1403 2484
z
M 1172 3481
Q 1172 3119 1398 2916
Q 1625 2713 2034 2713
Q 2441 2713 2670 2916
Q 2900 3119 2900 3481
Q 2900 3844 2670 4047
Q 2441 4250 2034 4250
Q 1625 4250 1398 4047
Q 1172 3844 1172 3481
z
" transform="scale(0.015625)"/>
     </defs>
     <use xlink:href="#DejaVuSans-6c"/>
     <use xlink:href="#DejaVuSans-6f" transform="translate(27.783203 0)"/>
     <use xlink:href="#DejaVuSans-67" transform="translate(88.964844 0)"/>
     <use xlink:href="#DejaVuSans-5f" transform="translate(152.441406 0)"/>
     <use xlink:href="#DejaVuSans-73" transform="translate(202.441406 0)"/>
     <use xlink:href="#DejaVuSans-74" transform="translate(254.541016 0)"/>
     <use xlink:href="#DejaVuSans-72" transform="translate(293.75 0)"/>
     <use xlink:href="#DejaVuSans-61" transform="translate(334.863281 0)"/>
     <use xlink:href="#DejaVuSans-69" transform="translate(396.142578 0)"/>
     <use xlink:href="#DejaVuSans-6e" transform="translate(423.925781 0)"/>
     <use xlink:href="#DejaVuSans-5f" transform="translate(487.304688 0)"/>
     <use xlink:href="#DejaVuSans-73" transform="translate(537.304688 0)"/>
     <use xlink:href="#DejaVuSans-72" transform="translate(589.404297 0)"/>
     <use xlink:href="#DejaVuSans-33" transform="translate(630.517578 0)"/>
     <use xlink:href="#DejaVuSans-63" transform="translate(694.140625 0)"/>
     <use xlink:href="#DejaVuSans-2e" transform="translate(749.121094 0)"/>
     <use xlink:href="#DejaVuSans-73" transform="translate(780.908203 0)"/>
     <use xlink:href="#DejaVuSans-76" transform="translate(833.007812 0)"/>
     <use xlink:href="#DejaVuSans-67" transform="translate(892.1875 0)"/>
     <use xlink:href="#DejaVuSans-20" transform="translate(955.664062 0)"/>
     <use xlink:href="#DejaVuSans-63" transform="translate(987.451172 0)"/>
     <use xlink:href="#DejaVuSans-72" transform="translate(1042.431641 0)"/>
     <use xlink:href="#DejaVuSans-65" transform="translate(1081.294922 0)"/>
     <use xlink:href="#DejaVuSans-61" transform="translate(1142.818359 0)"/>
     <use xlink:href="#DejaVuSans-74" transform="translate(1204.097656 0)"/>
     <use xlink:href="#DejaVuSans-65" transform="translate(1243.306641 0)"/>
     <use xlink:href="#DejaVuSans-64" transform="translate(1304.830078 0)"/>
     <use xlink:href="#DejaVuSans-20" transform="translate(1368.306641 0)"/>
     <use xlink:href="#DejaVuSans-32" transform="translate(1400.09375 0)"/>
     <use xlink:href="#DejaVuSans-30" transform="translate(1463.716797 0)"/>
     <use xlink:href="#DejaVuSans-32" transform="translate(1527.339844 0)"/>
     <use xlink:href="#DejaVuSans-35" transform="translate(1590.962891 0)"/>
     <use xlink:href="#DejaVuSans-2d" transform="translate(1654.585938 0)"/>
     <use xlink:href="#DejaVuSans-30" transform="translate(1690.669922 0)"/>
     <use xlink:href="#DejaVuSans-31" transform="translate(1754.292969 0)"/>
     <use xlink:href="#DejaVuSans-2d" transform="translate(1817.916016 0)"/>
     <use xlink:href="#DejaVuSans-32" transform="translate(1854 0)"/>
     <use xlink:href="#DejaVuSans-33" transform="translate(1917.623047 0)"/>
     <use xlink:href="#DejaVuSans-20" transform="translate(1981.246094 0)"/>
     <use xlink:href="#DejaVuSans-30" transform="translate(2013.033203 0)"/>
     <use xlink:href="#DejaVuSans-39" transform="translate(2076.65625 0)"/>
     <use xlink:href="#DejaVuSans-3a" transform="translate(2140.279297 0)"/>
     <use xlink:href="#DejaVuSans-34" transform="translate(2173.970703 0)"/>
     <use xlink:href="#DejaVuSans-39" transform="translate(2237.59375 0)"/>
     <use xlink:href="#DejaVuSans-3a" transform="translate(2301.216797 0)"/>
     <use xlink:href="#DejaVuSans-32" transform="translate(2334.908203 0)"/>
     <use xlink:href="#DejaVuSans-37" transform="translate(2398.53125 0)"/>
     <use xlink:href="#DejaVuSans-20" transform="translate(2462.154297 0)"/>
     <use xlink:href="#DejaVuSans-45" transform="translate(2493.941406 0)"/>
     <use xlink:href="#DejaVuSans-53" transform="translate(2557.125 0)"/>
     <use xlink:href="#DejaVuSans-54" transform="translate(2620.601562 0)"/>
     <use xlink:href="#DejaVuSans-2d" transform="translate(2672.560547 0)"/>
     <use xlink:href="#DejaVuSans-30" transform="translate(2708.644531 0)"/>
     <use xlink:href="#DejaVuSans-35" transform="translate(2772.267578 0)"/>
     <use xlink:href="#DejaVuSans-30" transform="translate(2835.890625 0)"/>
     <use xlink:href="#DejaVuSans-30" transform="translate(2899.513672 0)"/>
     <use xlink:href="#DejaVuSans-20" transform="translate(2963.136719 0)"/>
     <use xlink:href="#DejaVuSans-62" transform="translate(2994.923828 0)"/>
     <use xlink:href="#DejaVuSans-79" transform="translate(3058.400391 0)"/>
     <use xlink:href="#DejaVuSans-20" transform="translate(3117.580078 0)"/>
     <use xlink:href="#DejaVuSans-63" transform="translate(3149.367188 0)"/>
     <use xlink:href="#DejaVuSans-68" transform="translate(3204.347656 0)"/>
     <use xlink:href="#DejaVuSans-6f" transform="translate(3267.726562 0)"/>
     <use xlink:href="#DejaVuSans-76" transform="translate(3328.908203 0)"/>
     <use xlink:href="#DejaVuSans-65" transform="translate(3388.087891 0)"/>
     <use xlink:href="#DejaVuSans-79" transform="translate(3449.611328 0)"/>
     <use xlink:href="#DejaVuSans-20" transform="translate(3508.791016 0)"/>
     <use xlink:href="#DejaVuSans-6f" transform="translate(3540.578125 0)"/>
     <use xlink:href="#DejaVuSans-6e" transform="translate(3601.759766 0)"/>
     <use xlink:href="#DejaVuSans-20" transform="translate(3665.138672 0)"/>
     <use xlink:href="#DejaVuSans-73" transform="translate(3696.925781 0)"/>
     <use xlink:href="#DejaVuSans-31" transform="translate(3749.025391 0)"/>
     <use xlink:href="#DejaVuSans-30" transform="translate(3812.648438 0)"/>
     <use xlink:href="#DejaVuSans-38" transform="translate(3876.271484 0)"/>
     <use xlink:href="#DejaVuSans-38" transform="translate(3939.894531 0)"/>
     <use xlink:href="#DejaVuSans-37" transform="translate(4003.517578 0)"/>
     <use xlink:href="#DejaVuSans-35" transform="translate(4067.140625 0)"/>
     <use xlink:href="#DejaVuSans-37" transform="translate(4130.763672 0)"/>
    </g>
   </g>
   <g id="legend_1">
    <g id="patch_7">
     <path d="M 57.14375 234.5375
L 132.776563 234.5375
Q 134.776563 234.5375 134.776563 232.5375
L 134.776563 57.4
Q 134.776563 55.4 132.776563 55.4
L 57.14375 55.4
Q 55.14375 55.4 55.14375 57.4
L 55.14375 232.5375
Q 55.14375 234.5375 57.14375 234.5375
z
" style="fill: #ffffff; opacity: 0.8; stroke: #cccccc; stroke-linejoin: miter"/>
    </g>
    <g id="line2d_47">
     <path d="M 59.14375 63.498437
L 69.14375 63.498437
L 79.14375 63.498437
" style="fill: none; stroke-dasharray: 5.55,2.4; stroke-dashoffset: 0; stroke: #1f77b4; stroke-width: 1.5"/>
    </g>
    <g id="text_21">
     <!-- r=0 cm -->
     <g transform="translate(87.14375 66.998437) scale(0.1 -0.1)">
      <defs>
       <path id="DejaVuSans-3d" d="M 678 2906
L 4684 2906
L 4684 2381
L 678 2381
L 678 2906
z
M 678 1631
L 4684 1631
L 4684 1100
L 678 1100
L 678 1631
z
" transform="scale(0.015625)"/>
      </defs>
      <use xlink:href="#DejaVuSans-72"/>
      <use xlink:href="#DejaVuSans-3d" transform="translate(41.113281 0)"/>
      <use xlink:href="#DejaVuSans-30" transform="translate(124.902344 0)"/>
      <use xlink:href="#DejaVuSans-20" transform="translate(188.525391 0)"/>
      <use xlink:href="#DejaVuSans-63" transform="translate(220.3125 0)"/>
      <use xlink:href="#DejaVuSans-6d" transform="translate(275.292969 0)"/>
     </g>
    </g>
    <g id="line2d_48">
     <path d="M 59.14375 78.176562
L 69.14375 78.176562
L 79.14375 78.176562
" style="fill: none; stroke-dasharray: 1.5,2.475; stroke-dashoffset: 0; stroke: #ff7f0e; stroke-width: 1.5"/>
    </g>
    <g id="text_22">
     <!-- r=1 cm -->
     <g transform="translate(87.14375 81.676562) scale(0.1 -0.1)">
      <use xlink:href="#DejaVuSans-72"/>
      <use xlink:href="#DejaVuSans-3d" transform="translate(41.113281 0)"/>
      <use xlink:href="#DejaVuSans-31" transform="translate(124.902344 0)"/>
      <use xlink:href="#DejaVuSans-20" transform="translate(188.525391 0)"/>
      <use xlink:href="#DejaVuSans-63" transform="translate(220.3125 0)"/>
      <use xlink:href="#DejaVuSans-6d" transform="translate(275.292969 0)"/>
     </g>
    </g>
    <g id="line2d_49">
     <path d="M 59.14375 92.854687
L 69.14375 92.854687
L 79.14375 92.854687
" style="fill: none; stroke: #2ca02c; stroke-width: 1.5; stroke-linecap: square"/>
    </g>
    <g id="text_23">
     <!-- r=2 cm -->
     <g transform="translate(87.14375 96.354687) scale(0.1 -0.1)">
      <use xlink:href="#DejaVuSans-72"/>
      <use xlink:href="#DejaVuSans-3d" transform="translate(41.113281 0)"/>
      <use xlink:href="#DejaVuSans-32" transform="translate(124.902344 0)"/>
      <use xlink:href="#DejaVuSans-20" transform="translate(188.525391 0)"/>
      <use xlink:href="#DejaVuSans-63" transform="translate(220.3125 0)"/>
      <use xlink:href="#DejaVuSans-6d" transform="translate(275.292969 0)"/>
     </g>
    </g>
    <g id="line2d_50">
     <path d="M 59.14375 107.532812
L 69.14375 107.532812
L 79.14375 107.532812
" style="fill: none; stroke: #d62728; stroke-width: 1.5; stroke-linecap: square"/>
    </g>
    <g id="text_24">
     <!-- r=3 cm -->
     <g transform="translate(87.14375 111.032812) scale(0.1 -0.1)">
      <use xlink:href="#DejaVuSans-72"/>
      <use xlink:href="#DejaVuSans-3d" transform="translate(41.113281 0)"/>
      <use xlink:href="#DejaVuSans-33" transform="translate(124.902344 0)"/>
      <use xlink:href="#DejaVuSans-20" transform="translate(188.525391 0)"/>
      <use xlink:href="#DejaVuSans-63" transform="translate(220.3125 0)"/>
      <use xlink:href="#DejaVuSans-6d" transform="translate(275.292969 0)"/>
     </g>
    </g>
    <g id="line2d_51">
     <path d="M 59.14375 122.210937
L 69.14375 122.210937
L 79.14375 122.210937
" style="fill: none; stroke: #9467bd; stroke-width: 1.5; stroke-linecap: square"/>
    </g>
    <g id="text_25">
     <!-- r=4 cm -->
     <g transform="translate(87.14375 125.710937) scale(0.1 -0.1)">
      <use xlink:href="#DejaVuSans-72"/>
      <use xlink:href="#DejaVuSans-3d" transform="translate(41.113281 0)"/>
      <use xlink:href="#DejaVuSans-34" transform="translate(124.902344 0)"/>
      <use xlink:href="#DejaVuSans-20" transform="translate(188.525391 0)"/>
      <use xlink:href="#DejaVuSans-63" transform="translate(220.3125 0)"/>
      <use xlink:href="#DejaVuSans-6d" transform="translate(275.292969 0)"/>
     </g>
    </g>
    <g id="line2d_52">
     <path d="M 59.14375 136.889062
L 69.14375 136.889062
L 79.14375 136.889062
" style="fill: none; stroke: #8c564b; stroke-width: 1.5; stroke-linecap: square"/>
    </g>
    <g id="text_26">
     <!-- r=5 cm -->
     <g transform="translate(87.14375 140.389062) scale(0.1 -0.1)">
      <use xlink:href="#DejaVuSans-72"/>
      <use xlink:href="#DejaVuSans-3d" transform="translate(41.113281 0)"/>
      <use xlink:href="#DejaVuSans-35" transform="translate(124.902344 0)"/>
      <use xlink:href="#DejaVuSans-20" transform="translate(188.525391 0)"/>
      <use xlink:href="#DejaVuSans-63" transform="translate(220.3125 0)"/>
      <use xlink:href="#DejaVuSans-6d" transform="translate(275.292969 0)"/>
     </g>
    </g>
    <g id="line2d_53">
     <path d="M 59.14375 151.567187
L 69.14375 151.567187
L 79.14375 151.567187
" style="fill: none; stroke: #e377c2; stroke-width: 1.5; stroke-linecap: square"/>
    </g>
    <g id="text_27">
     <!-- r=6 cm -->
     <g transform="translate(87.14375 155.067187) scale(0.1 -0.1)">
      <defs>
       <path id="DejaVuSans-36" d="M 2113 2584
Q 1688 2584 1439 2293
Q 1191 2003 1191 1497
Q 1191 994 1439 701
Q 1688 409 2113 409
Q 2538 409 2786 701
Q 3034 994 3034 1497
Q 3034 2003 2786 2293
Q 2538 2584 2113 2584
z
M 3366 4563
L 3366 3988
Q 3128 4100 2886 4159
Q 2644 4219 2406 4219
Q 1781 4219 1451 3797
Q 1122 3375 1075 2522
Q 1259 2794 1537 2939
Q 1816 3084 2150 3084
Q 2853 3084 3261 2657
Q 3669 2231 3669 1497
Q 3669 778 3244 343
Q 2819 -91 2113 -91
Q 1303 -91 875 529
Q 447 1150 447 2328
Q 447 3434 972 4092
Q 1497 4750 2381 4750
Q 2619 4750 2861 4703
Q 3103 4656 3366 4563
z
" transform="scale(0.015625)"/>
      </defs>
      <use xlink:href="#DejaVuSans-72"/>
      <use xlink:href="#DejaVuSans-3d" transform="translate(41.113281 0)"/>
      <use xlink:href="#DejaVuSans-36" transform="translate(124.902344 0)"/>
      <use xlink:href="#DejaVuSans-20" transform="translate(188.525391 0)"/>
      <use xlink:href="#DejaVuSans-63" transform="translate(220.3125 0)"/>
      <use xlink:href="#DejaVuSans-6d" transform="translate(275.292969 0)"/>
     </g>
    </g>
    <g id="line2d_54">
     <path d="M 59.14375 166.245312
L 69.14375 166.245312
L 79.14375 166.245312
" style="fill: none; stroke: #7f7f7f; stroke-width: 1.5; stroke-linecap: square"/>
    </g>
    <g id="text_28">
     <!-- r=7 cm -->
     <g transform="translate(87.14375 169.745312) scale(0.1 -0.1)">
      <use xlink:href="#DejaVuSans-72"/>
      <use xlink:href="#DejaVuSans-3d" transform="translate(41.113281 0)"/>
      <use xlink:href="#DejaVuSans-37" transform="translate(124.902344 0)"/>
      <use xlink:href="#DejaVuSans-20" transform="translate(188.525391 0)"/>
      <use xlink:href="#DejaVuSans-63" transform="translate(220.3125 0)"/>
      <use xlink:href="#DejaVuSans-6d" transform="translate(275.292969 0)"/>
     </g>
    </g>
    <g id="line2d_55">
     <path d="M 59.14375 180.923437
L 69.14375 180.923437
L 79.14375 180.923437
" style="fill: none; stroke: #bcbd22; stroke-width: 1.5; stroke-linecap: square"/>
    </g>
    <g id="text_29">
     <!-- r=8 cm -->
     <g transform="translate(87.14375 184.423437) scale(0.1 -0.1)">
      <use xlink:href="#DejaVuSans-72"/>
      <use xlink:href="#DejaVuSans-3d" transform="translate(41.113281 0)"/>
      <use xlink:href="#DejaVuSans-38" transform="translate(124.902344 0)"/>
      <use xlink:href="#DejaVuSans-20" transform="translate(188.525391 0)"/>
      <use xlink:href="#DejaVuSans-63" transform="translate(220.3125 0)"/>
      <use xlink:href="#DejaVuSans-6d" transform="translate(275.292969 0)"/>
     </g>
    </g>
    <g id="line2d_56">
     <path d="M 59.14375 195.601562
L 69.14375 195.601562
L 79.14375 195.601562
" style="fill: none; stroke: #17becf; stroke-width: 1.5; stroke-linecap: square"/>
    </g>
    <g id="text_30">
     <!-- r=9 cm -->
     <g transform="translate(87.14375 199.101562) scale(0.1 -0.1)">
      <use xlink:href="#DejaVuSans-72"/>
      <use xlink:href="#DejaVuSans-3d" transform="translate(41.113281 0)"/>
      <use xlink:href="#DejaVuSans-39" transform="translate(124.902344 0)"/>
      <use xlink:href="#DejaVuSans-20" transform="translate(188.525391 0)"/>
      <use xlink:href="#DejaVuSans-63" transform="translate(220.3125 0)"/>
      <use xlink:href="#DejaVuSans-6d" transform="translate(275.292969 0)"/>
     </g>
    </g>
    <g id="line2d_57">
     <path d="M 59.14375 210.279687
L 69.14375 210.279687
L 79.14375 210.279687
" style="fill: none; stroke: #1f77b4; stroke-width: 1.5; stroke-linecap: square"/>
    </g>
    <g id="text_31">
     <!-- r=10 cm -->
     <g transform="translate(87.14375 213.779687) scale(0.1 -0.1)">
      <use xlink:href="#DejaVuSans-72"/>
      <use xlink:href="#DejaVuSans-3d" transform="translate(41.113281 0)"/>
      <use xlink:href="#DejaVuSans-31" transform="translate(124.902344 0)"/>
      <use xlink:href="#DejaVuSans-30" transform="translate(188.525391 0)"/>
      <use xlink:href="#DejaVuSans-20" transform="translate(252.148438 0)"/>
      <use xlink:href="#DejaVuSans-63" transform="translate(283.935547 0)"/>
      <use xlink:href="#DejaVuSans-6d" transform="translate(338.916016 0)"/>
     </g>
    </g>
    <g id="line2d_58">
     <path d="M 59.14375 224.957812
L 69.14375 224.957812
L 79.14375 224.957812
" style="fill: none; stroke: #ff7f0e; stroke-width: 1.5; stroke-linecap: square"/>
    </g>
    <g id="text_32">
     <!-- r=11 cm -->
     <g transform="translate(87.14375 228.457812) scale(0.1 -0.1)">
      <use xlink:href="#DejaVuSans-72"/>
      <use xlink:href="#DejaVuSans-3d" transform="translate(41.113281 0)"/>
      <use xlink:href="#DejaVuSans-31" transform="translate(124.902344 0)"/>
      <use xlink:href="#DejaVuSans-31" transform="translate(188.525391 0)"/>
      <use xlink:href="#DejaVuSans-20" transform="translate(252.148438 0)"/>
      <use xlink:href="#DejaVuSans-63" transform="translate(283.935547 0)"/>
      <use xlink:href="#DejaVuSans-6d" transform="translate(338.916016 0)"/>
     </g>
    </g>
   </g>
  </g>
  <g id="text_33">
   <!-- Maximum Principal Log Strain at Various Radii (sr3c) -->
   <g transform="translate(108.85 16.318125) scale(0.12 -0.12)">
    <defs>
     <path id="DejaVuSans-4d" d="M 628 4666
L 1569 4666
L 2759 1491
L 3956 4666
L 4897 4666
L 4897 0
L 4281 0
L 4281 4097
L 3078 897
L 2444 897
L 1241 4097
L 1241 0
L 628 0
L 628 4666
z
" transform="scale(0.015625)"/>
     <path id="DejaVuSans-50" d="M 1259 4147
L 1259 2394
L 2053 2394
Q 2494 2394 2734 2622
Q 2975 2850 2975 3272
Q 2975 3691 2734 3919
Q 2494 4147 2053 4147
L 1259 4147
z
M 628 4666
L 2053 4666
Q 2838 4666 3239 4311
Q 3641 3956 3641 3272
Q 3641 2581 3239 2228
Q 2838 1875 2053 1875
L 1259 1875
L 1259 0
L 628 0
L 628 4666
z
" transform="scale(0.015625)"/>
     <path id="DejaVuSans-4c" d="M 628 4666
L 1259 4666
L 1259 531
L 3531 531
L 3531 0
L 628 0
L 628 4666
z
" transform="scale(0.015625)"/>
     <path id="DejaVuSans-56" d="M 1831 0
L 50 4666
L 709 4666
L 2188 738
L 3669 4666
L 4325 4666
L 2547 0
L 1831 0
z
" transform="scale(0.015625)"/>
     <path id="DejaVuSans-52" d="M 2841 2188
Q 3044 2119 3236 1894
Q 3428 1669 3622 1275
L 4263 0
L 3584 0
L 2988 1197
Q 2756 1666 2539 1819
Q 2322 1972 1947 1972
L 1259 1972
L 1259 0
L 628 0
L 628 4666
L 2053 4666
Q 2853 4666 3247 4331
Q 3641 3997 3641 3322
Q 3641 2881 3436 2590
Q 3231 2300 2841 2188
z
M 1259 4147
L 1259 2491
L 2053 2491
Q 2509 2491 2742 2702
Q 2975 2913 2975 3322
Q 2975 3731 2742 3939
Q 2509 4147 2053 4147
L 1259 4147
z
" transform="scale(0.015625)"/>
    </defs>
    <use xlink:href="#DejaVuSans-4d"/>
    <use xlink:href="#DejaVuSans-61" transform="translate(86.279297 0)"/>
    <use xlink:href="#DejaVuSans-78" transform="translate(147.558594 0)"/>
    <use xlink:href="#DejaVuSans-69" transform="translate(206.738281 0)"/>
    <use xlink:href="#DejaVuSans-6d" transform="translate(234.521484 0)"/>
    <use xlink:href="#DejaVuSans-75" transform="translate(331.933594 0)"/>
    <use xlink:href="#DejaVuSans-6d" transform="translate(395.3125 0)"/>
    <use xlink:href="#DejaVuSans-20" transform="translate(492.724609 0)"/>
    <use xlink:href="#DejaVuSans-50" transform="translate(524.511719 0)"/>
    <use xlink:href="#DejaVuSans-72" transform="translate(583.064453 0)"/>
    <use xlink:href="#DejaVuSans-69" transform="translate(624.177734 0)"/>
    <use xlink:href="#DejaVuSans-6e" transform="translate(651.960938 0)"/>
    <use xlink:href="#DejaVuSans-63" transform="translate(715.339844 0)"/>
    <use xlink:href="#DejaVuSans-69" transform="translate(770.320312 0)"/>
    <use xlink:href="#DejaVuSans-70" transform="translate(798.103516 0)"/>
    <use xlink:href="#DejaVuSans-61" transform="translate(861.580078 0)"/>
    <use xlink:href="#DejaVuSans-6c" transform="translate(922.859375 0)"/>
    <use xlink:href="#DejaVuSans-20" transform="translate(950.642578 0)"/>
    <use xlink:href="#DejaVuSans-4c" transform="translate(982.429688 0)"/>
    <use xlink:href="#DejaVuSans-6f" transform="translate(1036.392578 0)"/>
    <use xlink:href="#DejaVuSans-67" transform="translate(1097.574219 0)"/>
    <use xlink:href="#DejaVuSans-20" transform="translate(1161.050781 0)"/>
    <use xlink:href="#DejaVuSans-53" transform="translate(1192.837891 0)"/>
    <use xlink:href="#DejaVuSans-74" transform="translate(1256.314453 0)"/>
    <use xlink:href="#DejaVuSans-72" transform="translate(1295.523438 0)"/>
    <use xlink:href="#DejaVuSans-61" transform="translate(1336.636719 0)"/>
    <use xlink:href="#DejaVuSans-69" transform="translate(1397.916016 0)"/>
    <use xlink:href="#DejaVuSans-6e" transform="translate(1425.699219 0)"/>
    <use xlink:href="#DejaVuSans-20" transform="translate(1489.078125 0)"/>
    <use xlink:href="#DejaVuSans-61" transform="translate(1520.865234 0)"/>
    <use xlink:href="#DejaVuSans-74" transform="translate(1582.144531 0)"/>
    <use xlink:href="#DejaVuSans-20" transform="translate(1621.353516 0)"/>
    <use xlink:href="#DejaVuSans-56" transform="translate(1653.140625 0)"/>
    <use xlink:href="#DejaVuSans-61" transform="translate(1713.798828 0)"/>
    <use xlink:href="#DejaVuSans-72" transform="translate(1775.078125 0)"/>
    <use xlink:href="#DejaVuSans-69" transform="translate(1816.191406 0)"/>
    <use xlink:href="#DejaVuSans-6f" transform="translate(1843.974609 0)"/>
    <use xlink:href="#DejaVuSans-75" transform="translate(1905.15625 0)"/>
    <use xlink:href="#DejaVuSans-73" transform="translate(1968.535156 0)"/>
    <use xlink:href="#DejaVuSans-20" transform="translate(2020.634766 0)"/>
    <use xlink:href="#DejaVuSans-52" transform="translate(2052.421875 0)"/>
    <use xlink:href="#DejaVuSans-61" transform="translate(2119.654297 0)"/>
    <use xlink:href="#DejaVuSans-64" transform="translate(2180.933594 0)"/>
    <use xlink:href="#DejaVuSans-69" transform="translate(2244.410156 0)"/>
    <use xlink:href="#DejaVuSans-69" transform="translate(2272.193359 0)"/>
    <use xlink:href="#DejaVuSans-20" transform="translate(2299.976562 0)"/>
    <use xlink:href="#DejaVuSans-28" transform="translate(2331.763672 0)"/>
    <use xlink:href="#DejaVuSans-73" transform="translate(2370.777344 0)"/>
    <use xlink:href="#DejaVuSans-72" transform="translate(2422.876953 0)"/>
    <use xlink:href="#DejaVuSans-33" transform="translate(2463.990234 0)"/>
    <use xlink:href="#DejaVuSans-63" transform="translate(2527.613281 0)"/>
    <use xlink:href="#DejaVuSans-29" transform="translate(2582.59375 0)"/>
   </g>
  </g>
 </g>
 <defs>
  <clipPath id="p0afb9518de">
   <rect x="50.14375" y="50.4" width="446.4" height="332.64"/>
  </clipPath>
 </defs>
</svg>
