<?xml version="1.0" encoding="utf-8" standalone="no"?>
<!DOCTYPE svg PUBLIC "-//W3C//DTD SVG 1.1//EN"
  "http://www.w3.org/Graphics/SVG/1.1/DTD/svg11.dtd">
<svg xmlns:xlink="http://www.w3.org/1999/xlink" width="506.928125pt" height="420.59625pt" viewBox="0 0 506.928125 420.59625" xmlns="http://www.w3.org/2000/svg" version="1.1">
 <metadata>
  <rdf:RDF xmlns:dc="http://purl.org/dc/elements/1.1/" xmlns:cc="http://creativecommons.org/ns#" xmlns:rdf="http://www.w3.org/1999/02/22-rdf-syntax-ns#">
   <cc:Work>
    <dc:type rdf:resource="http://purl.org/dc/dcmitype/StillImage"/>
    <dc:date>2025-01-23T09:56:31.580417</dc:date>
    <dc:format>image/svg+xml</dc:format>
    <dc:creator>
     <cc:Agent>
      <dc:title>Matplotlib v3.10.0, https://matplotlib.org/</dc:title>
     </cc:Agent>
    </dc:creator>
   </cc:Work>
  </rdf:RDF>
 </metadata>
 <defs>
  <style type="text/css">*{stroke-linejoin: round; stroke-linecap: butt}</style>
 </defs>
 <g id="figure_1">
  <g id="patch_1">
   <path d="M 0 420.59625
L 506.928125 420.59625
L 506.928125 0
L 0 0
z
" style="fill: #ffffff"/>
  </g>
  <g id="axes_1">
   <g id="patch_2">
    <path d="M 53.328125 383.04
L 499.728125 383.04
L 499.728125 50.4
L 53.328125 50.4
z
" style="fill: #ffffff"/>
   </g>
   <g id="matplotlib.axis_1">
    <g id="xtick_1">
     <g id="line2d_1">
      <path d="M 73.619034 383.04
L 73.619034 50.4
" clip-path="url(#p860ada9193)" style="fill: none; stroke: #b0b0b0; stroke-width: 0.8; stroke-linecap: square"/>
     </g>
     <g id="line2d_2">
      <defs>
       <path id="mc329a56b33" d="M 0 0
L 0 3.5
" style="stroke: #000000; stroke-width: 0.8"/>
      </defs>
      <g>
       <use xlink:href="#mc329a56b33" x="73.619034" y="383.04" style="stroke: #000000; stroke-width: 0.8"/>
      </g>
     </g>
     <g id="text_1">
      <!-- 0.0000 -->
      <g transform="translate(56.123722 397.638437) scale(0.1 -0.1)">
       <defs>
        <path id="DejaVuSans-30" d="M 2034 4250
Q 1547 4250 1301 3770
Q 1056 3291 1056 2328
Q 1056 1369 1301 889
Q 1547 409 2034 409
Q 2525 409 2770 889
Q 3016 1369 3016 2328
Q 3016 3291 2770 3770
Q 2525 4250 2034 4250
z
M 2034 4750
Q 2819 4750 3233 4129
Q 3647 3509 3647 2328
Q 3647 1150 3233 529
Q 2819 -91 2034 -91
Q 1250 -91 836 529
Q 422 1150 422 2328
Q 422 3509 836 4129
Q 1250 4750 2034 4750
z
" transform="scale(0.015625)"/>
        <path id="DejaVuSans-2e" d="M 684 794
L 1344 794
L 1344 0
L 684 0
L 684 794
z
" transform="scale(0.015625)"/>
       </defs>
       <use xlink:href="#DejaVuSans-30"/>
       <use xlink:href="#DejaVuSans-2e" transform="translate(63.623047 0)"/>
       <use xlink:href="#DejaVuSans-30" transform="translate(95.410156 0)"/>
       <use xlink:href="#DejaVuSans-30" transform="translate(159.033203 0)"/>
       <use xlink:href="#DejaVuSans-30" transform="translate(222.65625 0)"/>
       <use xlink:href="#DejaVuSans-30" transform="translate(286.279297 0)"/>
      </g>
     </g>
    </g>
    <g id="xtick_2">
     <g id="line2d_3">
      <path d="M 124.346307 383.04
L 124.346307 50.4
" clip-path="url(#p860ada9193)" style="fill: none; stroke: #b0b0b0; stroke-width: 0.8; stroke-linecap: square"/>
     </g>
     <g id="line2d_4">
      <g>
       <use xlink:href="#mc329a56b33" x="124.346307" y="383.04" style="stroke: #000000; stroke-width: 0.8"/>
      </g>
     </g>
     <g id="text_2">
      <!-- 0.0025 -->
      <g transform="translate(106.850994 397.638437) scale(0.1 -0.1)">
       <defs>
        <path id="DejaVuSans-32" d="M 1228 531
L 3431 531
L 3431 0
L 469 0
L 469 531
Q 828 903 1448 1529
Q 2069 2156 2228 2338
Q 2531 2678 2651 2914
Q 2772 3150 2772 3378
Q 2772 3750 2511 3984
Q 2250 4219 1831 4219
Q 1534 4219 1204 4116
Q 875 4013 500 3803
L 500 4441
Q 881 4594 1212 4672
Q 1544 4750 1819 4750
Q 2544 4750 2975 4387
Q 3406 4025 3406 3419
Q 3406 3131 3298 2873
Q 3191 2616 2906 2266
Q 2828 2175 2409 1742
Q 1991 1309 1228 531
z
" transform="scale(0.015625)"/>
        <path id="DejaVuSans-35" d="M 691 4666
L 3169 4666
L 3169 4134
L 1269 4134
L 1269 2991
Q 1406 3038 1543 3061
Q 1681 3084 1819 3084
Q 2600 3084 3056 2656
Q 3513 2228 3513 1497
Q 3513 744 3044 326
Q 2575 -91 1722 -91
Q 1428 -91 1123 -41
Q 819 9 494 109
L 494 744
Q 775 591 1075 516
Q 1375 441 1709 441
Q 2250 441 2565 725
Q 2881 1009 2881 1497
Q 2881 1984 2565 2268
Q 2250 2553 1709 2553
Q 1456 2553 1204 2497
Q 953 2441 691 2322
L 691 4666
z
" transform="scale(0.015625)"/>
       </defs>
       <use xlink:href="#DejaVuSans-30"/>
       <use xlink:href="#DejaVuSans-2e" transform="translate(63.623047 0)"/>
       <use xlink:href="#DejaVuSans-30" transform="translate(95.410156 0)"/>
       <use xlink:href="#DejaVuSans-30" transform="translate(159.033203 0)"/>
       <use xlink:href="#DejaVuSans-32" transform="translate(222.65625 0)"/>
       <use xlink:href="#DejaVuSans-35" transform="translate(286.279297 0)"/>
      </g>
     </g>
    </g>
    <g id="xtick_3">
     <g id="line2d_5">
      <path d="M 175.07358 383.04
L 175.07358 50.4
" clip-path="url(#p860ada9193)" style="fill: none; stroke: #b0b0b0; stroke-width: 0.8; stroke-linecap: square"/>
     </g>
     <g id="line2d_6">
      <g>
       <use xlink:href="#mc329a56b33" x="175.07358" y="383.04" style="stroke: #000000; stroke-width: 0.8"/>
      </g>
     </g>
     <g id="text_3">
      <!-- 0.0050 -->
      <g transform="translate(157.578267 397.638437) scale(0.1 -0.1)">
       <use xlink:href="#DejaVuSans-30"/>
       <use xlink:href="#DejaVuSans-2e" transform="translate(63.623047 0)"/>
       <use xlink:href="#DejaVuSans-30" transform="translate(95.410156 0)"/>
       <use xlink:href="#DejaVuSans-30" transform="translate(159.033203 0)"/>
       <use xlink:href="#DejaVuSans-35" transform="translate(222.65625 0)"/>
       <use xlink:href="#DejaVuSans-30" transform="translate(286.279297 0)"/>
      </g>
     </g>
    </g>
    <g id="xtick_4">
     <g id="line2d_7">
      <path d="M 225.800852 383.04
L 225.800852 50.4
" clip-path="url(#p860ada9193)" style="fill: none; stroke: #b0b0b0; stroke-width: 0.8; stroke-linecap: square"/>
     </g>
     <g id="line2d_8">
      <g>
       <use xlink:href="#mc329a56b33" x="225.800852" y="383.04" style="stroke: #000000; stroke-width: 0.8"/>
      </g>
     </g>
     <g id="text_4">
      <!-- 0.0075 -->
      <g transform="translate(208.30554 397.638437) scale(0.1 -0.1)">
       <defs>
        <path id="DejaVuSans-37" d="M 525 4666
L 3525 4666
L 3525 4397
L 1831 0
L 1172 0
L 2766 4134
L 525 4134
L 525 4666
z
" transform="scale(0.015625)"/>
       </defs>
       <use xlink:href="#DejaVuSans-30"/>
       <use xlink:href="#DejaVuSans-2e" transform="translate(63.623047 0)"/>
       <use xlink:href="#DejaVuSans-30" transform="translate(95.410156 0)"/>
       <use xlink:href="#DejaVuSans-30" transform="translate(159.033203 0)"/>
       <use xlink:href="#DejaVuSans-37" transform="translate(222.65625 0)"/>
       <use xlink:href="#DejaVuSans-35" transform="translate(286.279297 0)"/>
      </g>
     </g>
    </g>
    <g id="xtick_5">
     <g id="line2d_9">
      <path d="M 276.528125 383.04
L 276.528125 50.4
" clip-path="url(#p860ada9193)" style="fill: none; stroke: #b0b0b0; stroke-width: 0.8; stroke-linecap: square"/>
     </g>
     <g id="line2d_10">
      <g>
       <use xlink:href="#mc329a56b33" x="276.528125" y="383.04" style="stroke: #000000; stroke-width: 0.8"/>
      </g>
     </g>
     <g id="text_5">
      <!-- 0.0100 -->
      <g transform="translate(259.032812 397.638437) scale(0.1 -0.1)">
       <defs>
        <path id="DejaVuSans-31" d="M 794 531
L 1825 531
L 1825 4091
L 703 3866
L 703 4441
L 1819 4666
L 2450 4666
L 2450 531
L 3481 531
L 3481 0
L 794 0
L 794 531
z
" transform="scale(0.015625)"/>
       </defs>
       <use xlink:href="#DejaVuSans-30"/>
       <use xlink:href="#DejaVuSans-2e" transform="translate(63.623047 0)"/>
       <use xlink:href="#DejaVuSans-30" transform="translate(95.410156 0)"/>
       <use xlink:href="#DejaVuSans-31" transform="translate(159.033203 0)"/>
       <use xlink:href="#DejaVuSans-30" transform="translate(222.65625 0)"/>
       <use xlink:href="#DejaVuSans-30" transform="translate(286.279297 0)"/>
      </g>
     </g>
    </g>
    <g id="xtick_6">
     <g id="line2d_11">
      <path d="M 327.255398 383.04
L 327.255398 50.4
" clip-path="url(#p860ada9193)" style="fill: none; stroke: #b0b0b0; stroke-width: 0.8; stroke-linecap: square"/>
     </g>
     <g id="line2d_12">
      <g>
       <use xlink:href="#mc329a56b33" x="327.255398" y="383.04" style="stroke: #000000; stroke-width: 0.8"/>
      </g>
     </g>
     <g id="text_6">
      <!-- 0.0125 -->
      <g transform="translate(309.760085 397.638437) scale(0.1 -0.1)">
       <use xlink:href="#DejaVuSans-30"/>
       <use xlink:href="#DejaVuSans-2e" transform="translate(63.623047 0)"/>
       <use xlink:href="#DejaVuSans-30" transform="translate(95.410156 0)"/>
       <use xlink:href="#DejaVuSans-31" transform="translate(159.033203 0)"/>
       <use xlink:href="#DejaVuSans-32" transform="translate(222.65625 0)"/>
       <use xlink:href="#DejaVuSans-35" transform="translate(286.279297 0)"/>
      </g>
     </g>
    </g>
    <g id="xtick_7">
     <g id="line2d_13">
      <path d="M 377.98267 383.04
L 377.98267 50.4
" clip-path="url(#p860ada9193)" style="fill: none; stroke: #b0b0b0; stroke-width: 0.8; stroke-linecap: square"/>
     </g>
     <g id="line2d_14">
      <g>
       <use xlink:href="#mc329a56b33" x="377.98267" y="383.04" style="stroke: #000000; stroke-width: 0.8"/>
      </g>
     </g>
     <g id="text_7">
      <!-- 0.0150 -->
      <g transform="translate(360.487358 397.638437) scale(0.1 -0.1)">
       <use xlink:href="#DejaVuSans-30"/>
       <use xlink:href="#DejaVuSans-2e" transform="translate(63.623047 0)"/>
       <use xlink:href="#DejaVuSans-30" transform="translate(95.410156 0)"/>
       <use xlink:href="#DejaVuSans-31" transform="translate(159.033203 0)"/>
       <use xlink:href="#DejaVuSans-35" transform="translate(222.65625 0)"/>
       <use xlink:href="#DejaVuSans-30" transform="translate(286.279297 0)"/>
      </g>
     </g>
    </g>
    <g id="xtick_8">
     <g id="line2d_15">
      <path d="M 428.709943 383.04
L 428.709943 50.4
" clip-path="url(#p860ada9193)" style="fill: none; stroke: #b0b0b0; stroke-width: 0.8; stroke-linecap: square"/>
     </g>
     <g id="line2d_16">
      <g>
       <use xlink:href="#mc329a56b33" x="428.709943" y="383.04" style="stroke: #000000; stroke-width: 0.8"/>
      </g>
     </g>
     <g id="text_8">
      <!-- 0.0175 -->
      <g transform="translate(411.214631 397.638437) scale(0.1 -0.1)">
       <use xlink:href="#DejaVuSans-30"/>
       <use xlink:href="#DejaVuSans-2e" transform="translate(63.623047 0)"/>
       <use xlink:href="#DejaVuSans-30" transform="translate(95.410156 0)"/>
       <use xlink:href="#DejaVuSans-31" transform="translate(159.033203 0)"/>
       <use xlink:href="#DejaVuSans-37" transform="translate(222.65625 0)"/>
       <use xlink:href="#DejaVuSans-35" transform="translate(286.279297 0)"/>
      </g>
     </g>
    </g>
    <g id="xtick_9">
     <g id="line2d_17">
      <path d="M 479.437216 383.04
L 479.437216 50.4
" clip-path="url(#p860ada9193)" style="fill: none; stroke: #b0b0b0; stroke-width: 0.8; stroke-linecap: square"/>
     </g>
     <g id="line2d_18">
      <g>
       <use xlink:href="#mc329a56b33" x="479.437216" y="383.04" style="stroke: #000000; stroke-width: 0.8"/>
      </g>
     </g>
     <g id="text_9">
      <!-- 0.0200 -->
      <g transform="translate(461.941903 397.638437) scale(0.1 -0.1)">
       <use xlink:href="#DejaVuSans-30"/>
       <use xlink:href="#DejaVuSans-2e" transform="translate(63.623047 0)"/>
       <use xlink:href="#DejaVuSans-30" transform="translate(95.410156 0)"/>
       <use xlink:href="#DejaVuSans-32" transform="translate(159.033203 0)"/>
       <use xlink:href="#DejaVuSans-30" transform="translate(222.65625 0)"/>
       <use xlink:href="#DejaVuSans-30" transform="translate(286.279297 0)"/>
      </g>
     </g>
    </g>
    <g id="text_10">
     <!-- time (s) -->
     <g transform="translate(257.136719 411.316562) scale(0.1 -0.1)">
      <defs>
       <path id="DejaVuSans-74" d="M 1172 4494
L 1172 3500
L 2356 3500
L 2356 3053
L 1172 3053
L 1172 1153
Q 1172 725 1289 603
Q 1406 481 1766 481
L 2356 481
L 2356 0
L 1766 0
Q 1100 0 847 248
Q 594 497 594 1153
L 594 3053
L 172 3053
L 172 3500
L 594 3500
L 594 4494
L 1172 4494
z
" transform="scale(0.015625)"/>
       <path id="DejaVuSans-69" d="M 603 3500
L 1178 3500
L 1178 0
L 603 0
L 603 3500
z
M 603 4863
L 1178 4863
L 1178 4134
L 603 4134
L 603 4863
z
" transform="scale(0.015625)"/>
       <path id="DejaVuSans-6d" d="M 3328 2828
Q 3544 3216 3844 3400
Q 4144 3584 4550 3584
Q 5097 3584 5394 3201
Q 5691 2819 5691 2113
L 5691 0
L 5113 0
L 5113 2094
Q 5113 2597 4934 2840
Q 4756 3084 4391 3084
Q 3944 3084 3684 2787
Q 3425 2491 3425 1978
L 3425 0
L 2847 0
L 2847 2094
Q 2847 2600 2669 2842
Q 2491 3084 2119 3084
Q 1678 3084 1418 2786
Q 1159 2488 1159 1978
L 1159 0
L 581 0
L 581 3500
L 1159 3500
L 1159 2956
Q 1356 3278 1631 3431
Q 1906 3584 2284 3584
Q 2666 3584 2933 3390
Q 3200 3197 3328 2828
z
" transform="scale(0.015625)"/>
       <path id="DejaVuSans-65" d="M 3597 1894
L 3597 1613
L 953 1613
Q 991 1019 1311 708
Q 1631 397 2203 397
Q 2534 397 2845 478
Q 3156 559 3463 722
L 3463 178
Q 3153 47 2828 -22
Q 2503 -91 2169 -91
Q 1331 -91 842 396
Q 353 884 353 1716
Q 353 2575 817 3079
Q 1281 3584 2069 3584
Q 2775 3584 3186 3129
Q 3597 2675 3597 1894
z
M 3022 2063
Q 3016 2534 2758 2815
Q 2500 3097 2075 3097
Q 1594 3097 1305 2825
Q 1016 2553 972 2059
L 3022 2063
z
" transform="scale(0.015625)"/>
       <path id="DejaVuSans-20" transform="scale(0.015625)"/>
       <path id="DejaVuSans-28" d="M 1984 4856
Q 1566 4138 1362 3434
Q 1159 2731 1159 2009
Q 1159 1288 1364 580
Q 1569 -128 1984 -844
L 1484 -844
Q 1016 -109 783 600
Q 550 1309 550 2009
Q 550 2706 781 3412
Q 1013 4119 1484 4856
L 1984 4856
z
" transform="scale(0.015625)"/>
       <path id="DejaVuSans-73" d="M 2834 3397
L 2834 2853
Q 2591 2978 2328 3040
Q 2066 3103 1784 3103
Q 1356 3103 1142 2972
Q 928 2841 928 2578
Q 928 2378 1081 2264
Q 1234 2150 1697 2047
L 1894 2003
Q 2506 1872 2764 1633
Q 3022 1394 3022 966
Q 3022 478 2636 193
Q 2250 -91 1575 -91
Q 1294 -91 989 -36
Q 684 19 347 128
L 347 722
Q 666 556 975 473
Q 1284 391 1588 391
Q 1994 391 2212 530
Q 2431 669 2431 922
Q 2431 1156 2273 1281
Q 2116 1406 1581 1522
L 1381 1569
Q 847 1681 609 1914
Q 372 2147 372 2553
Q 372 3047 722 3315
Q 1072 3584 1716 3584
Q 2034 3584 2315 3537
Q 2597 3491 2834 3397
z
" transform="scale(0.015625)"/>
       <path id="DejaVuSans-29" d="M 513 4856
L 1013 4856
Q 1481 4119 1714 3412
Q 1947 2706 1947 2009
Q 1947 1309 1714 600
Q 1481 -109 1013 -844
L 513 -844
Q 928 -128 1133 580
Q 1338 1288 1338 2009
Q 1338 2731 1133 3434
Q 928 4138 513 4856
z
" transform="scale(0.015625)"/>
      </defs>
      <use xlink:href="#DejaVuSans-74"/>
      <use xlink:href="#DejaVuSans-69" transform="translate(39.208984 0)"/>
      <use xlink:href="#DejaVuSans-6d" transform="translate(66.992188 0)"/>
      <use xlink:href="#DejaVuSans-65" transform="translate(164.404297 0)"/>
      <use xlink:href="#DejaVuSans-20" transform="translate(225.927734 0)"/>
      <use xlink:href="#DejaVuSans-28" transform="translate(257.714844 0)"/>
      <use xlink:href="#DejaVuSans-73" transform="translate(296.728516 0)"/>
      <use xlink:href="#DejaVuSans-29" transform="translate(348.828125 0)"/>
     </g>
    </g>
   </g>
   <g id="matplotlib.axis_2">
    <g id="ytick_1">
     <g id="line2d_19">
      <path d="M 53.328125 382.419403
L 499.728125 382.419403
" clip-path="url(#p860ada9193)" style="fill: none; stroke: #b0b0b0; stroke-width: 0.8; stroke-linecap: square"/>
     </g>
     <g id="line2d_20">
      <defs>
       <path id="m81a62c2eb7" d="M 0 0
L -3.5 0
" style="stroke: #000000; stroke-width: 0.8"/>
      </defs>
      <g>
       <use xlink:href="#m81a62c2eb7" x="53.328125" y="382.419403" style="stroke: #000000; stroke-width: 0.8"/>
      </g>
     </g>
     <g id="text_11">
      <!-- 0 -->
      <g transform="translate(39.965625 386.218622) scale(0.1 -0.1)">
       <use xlink:href="#DejaVuSans-30"/>
      </g>
     </g>
    </g>
    <g id="ytick_2">
     <g id="line2d_21">
      <path d="M 53.328125 320.359701
L 499.728125 320.359701
" clip-path="url(#p860ada9193)" style="fill: none; stroke: #b0b0b0; stroke-width: 0.8; stroke-linecap: square"/>
     </g>
     <g id="line2d_22">
      <g>
       <use xlink:href="#m81a62c2eb7" x="53.328125" y="320.359701" style="stroke: #000000; stroke-width: 0.8"/>
      </g>
     </g>
     <g id="text_12">
      <!-- 500 -->
      <g transform="translate(27.240625 324.15892) scale(0.1 -0.1)">
       <use xlink:href="#DejaVuSans-35"/>
       <use xlink:href="#DejaVuSans-30" transform="translate(63.623047 0)"/>
       <use xlink:href="#DejaVuSans-30" transform="translate(127.246094 0)"/>
      </g>
     </g>
    </g>
    <g id="ytick_3">
     <g id="line2d_23">
      <path d="M 53.328125 258.3
L 499.728125 258.3
" clip-path="url(#p860ada9193)" style="fill: none; stroke: #b0b0b0; stroke-width: 0.8; stroke-linecap: square"/>
     </g>
     <g id="line2d_24">
      <g>
       <use xlink:href="#m81a62c2eb7" x="53.328125" y="258.3" style="stroke: #000000; stroke-width: 0.8"/>
      </g>
     </g>
     <g id="text_13">
      <!-- 1000 -->
      <g transform="translate(20.878125 262.099219) scale(0.1 -0.1)">
       <use xlink:href="#DejaVuSans-31"/>
       <use xlink:href="#DejaVuSans-30" transform="translate(63.623047 0)"/>
       <use xlink:href="#DejaVuSans-30" transform="translate(127.246094 0)"/>
       <use xlink:href="#DejaVuSans-30" transform="translate(190.869141 0)"/>
      </g>
     </g>
    </g>
    <g id="ytick_4">
     <g id="line2d_25">
      <path d="M 53.328125 196.240299
L 499.728125 196.240299
" clip-path="url(#p860ada9193)" style="fill: none; stroke: #b0b0b0; stroke-width: 0.8; stroke-linecap: square"/>
     </g>
     <g id="line2d_26">
      <g>
       <use xlink:href="#m81a62c2eb7" x="53.328125" y="196.240299" style="stroke: #000000; stroke-width: 0.8"/>
      </g>
     </g>
     <g id="text_14">
      <!-- 1500 -->
      <g transform="translate(20.878125 200.039517) scale(0.1 -0.1)">
       <use xlink:href="#DejaVuSans-31"/>
       <use xlink:href="#DejaVuSans-35" transform="translate(63.623047 0)"/>
       <use xlink:href="#DejaVuSans-30" transform="translate(127.246094 0)"/>
       <use xlink:href="#DejaVuSans-30" transform="translate(190.869141 0)"/>
      </g>
     </g>
    </g>
    <g id="ytick_5">
     <g id="line2d_27">
      <path d="M 53.328125 134.180597
L 499.728125 134.180597
" clip-path="url(#p860ada9193)" style="fill: none; stroke: #b0b0b0; stroke-width: 0.8; stroke-linecap: square"/>
     </g>
     <g id="line2d_28">
      <g>
       <use xlink:href="#m81a62c2eb7" x="53.328125" y="134.180597" style="stroke: #000000; stroke-width: 0.8"/>
      </g>
     </g>
     <g id="text_15">
      <!-- 2000 -->
      <g transform="translate(20.878125 137.979816) scale(0.1 -0.1)">
       <use xlink:href="#DejaVuSans-32"/>
       <use xlink:href="#DejaVuSans-30" transform="translate(63.623047 0)"/>
       <use xlink:href="#DejaVuSans-30" transform="translate(127.246094 0)"/>
       <use xlink:href="#DejaVuSans-30" transform="translate(190.869141 0)"/>
      </g>
     </g>
    </g>
    <g id="ytick_6">
     <g id="line2d_29">
      <path d="M 53.328125 72.120896
L 499.728125 72.120896
" clip-path="url(#p860ada9193)" style="fill: none; stroke: #b0b0b0; stroke-width: 0.8; stroke-linecap: square"/>
     </g>
     <g id="line2d_30">
      <g>
       <use xlink:href="#m81a62c2eb7" x="53.328125" y="72.120896" style="stroke: #000000; stroke-width: 0.8"/>
      </g>
     </g>
     <g id="text_16">
      <!-- 2500 -->
      <g transform="translate(20.878125 75.920114) scale(0.1 -0.1)">
       <use xlink:href="#DejaVuSans-32"/>
       <use xlink:href="#DejaVuSans-35" transform="translate(63.623047 0)"/>
       <use xlink:href="#DejaVuSans-30" transform="translate(127.246094 0)"/>
       <use xlink:href="#DejaVuSans-30" transform="translate(190.869141 0)"/>
      </g>
     </g>
    </g>
    <g id="text_17">
     <!-- maximum principal rate of deformation (1/s) -->
     <g transform="translate(14.798438 328.308281) rotate(-90) scale(0.1 -0.1)">
      <defs>
       <path id="DejaVuSans-61" d="M 2194 1759
Q 1497 1759 1228 1600
Q 959 1441 959 1056
Q 959 750 1161 570
Q 1363 391 1709 391
Q 2188 391 2477 730
Q 2766 1069 2766 1631
L 2766 1759
L 2194 1759
z
M 3341 1997
L 3341 0
L 2766 0
L 2766 531
Q 2569 213 2275 61
Q 1981 -91 1556 -91
Q 1019 -91 701 211
Q 384 513 384 1019
Q 384 1609 779 1909
Q 1175 2209 1959 2209
L 2766 2209
L 2766 2266
Q 2766 2663 2505 2880
Q 2244 3097 1772 3097
Q 1472 3097 1187 3025
Q 903 2953 641 2809
L 641 3341
Q 956 3463 1253 3523
Q 1550 3584 1831 3584
Q 2591 3584 2966 3190
Q 3341 2797 3341 1997
z
" transform="scale(0.015625)"/>
       <path id="DejaVuSans-78" d="M 3513 3500
L 2247 1797
L 3578 0
L 2900 0
L 1881 1375
L 863 0
L 184 0
L 1544 1831
L 300 3500
L 978 3500
L 1906 2253
L 2834 3500
L 3513 3500
z
" transform="scale(0.015625)"/>
       <path id="DejaVuSans-75" d="M 544 1381
L 544 3500
L 1119 3500
L 1119 1403
Q 1119 906 1312 657
Q 1506 409 1894 409
Q 2359 409 2629 706
Q 2900 1003 2900 1516
L 2900 3500
L 3475 3500
L 3475 0
L 2900 0
L 2900 538
Q 2691 219 2414 64
Q 2138 -91 1772 -91
Q 1169 -91 856 284
Q 544 659 544 1381
z
M 1991 3584
L 1991 3584
z
" transform="scale(0.015625)"/>
       <path id="DejaVuSans-70" d="M 1159 525
L 1159 -1331
L 581 -1331
L 581 3500
L 1159 3500
L 1159 2969
Q 1341 3281 1617 3432
Q 1894 3584 2278 3584
Q 2916 3584 3314 3078
Q 3713 2572 3713 1747
Q 3713 922 3314 415
Q 2916 -91 2278 -91
Q 1894 -91 1617 61
Q 1341 213 1159 525
z
M 3116 1747
Q 3116 2381 2855 2742
Q 2594 3103 2138 3103
Q 1681 3103 1420 2742
Q 1159 2381 1159 1747
Q 1159 1113 1420 752
Q 1681 391 2138 391
Q 2594 391 2855 752
Q 3116 1113 3116 1747
z
" transform="scale(0.015625)"/>
       <path id="DejaVuSans-72" d="M 2631 2963
Q 2534 3019 2420 3045
Q 2306 3072 2169 3072
Q 1681 3072 1420 2755
Q 1159 2438 1159 1844
L 1159 0
L 581 0
L 581 3500
L 1159 3500
L 1159 2956
Q 1341 3275 1631 3429
Q 1922 3584 2338 3584
Q 2397 3584 2469 3576
Q 2541 3569 2628 3553
L 2631 2963
z
" transform="scale(0.015625)"/>
       <path id="DejaVuSans-6e" d="M 3513 2113
L 3513 0
L 2938 0
L 2938 2094
Q 2938 2591 2744 2837
Q 2550 3084 2163 3084
Q 1697 3084 1428 2787
Q 1159 2491 1159 1978
L 1159 0
L 581 0
L 581 3500
L 1159 3500
L 1159 2956
Q 1366 3272 1645 3428
Q 1925 3584 2291 3584
Q 2894 3584 3203 3211
Q 3513 2838 3513 2113
z
" transform="scale(0.015625)"/>
       <path id="DejaVuSans-63" d="M 3122 3366
L 3122 2828
Q 2878 2963 2633 3030
Q 2388 3097 2138 3097
Q 1578 3097 1268 2742
Q 959 2388 959 1747
Q 959 1106 1268 751
Q 1578 397 2138 397
Q 2388 397 2633 464
Q 2878 531 3122 666
L 3122 134
Q 2881 22 2623 -34
Q 2366 -91 2075 -91
Q 1284 -91 818 406
Q 353 903 353 1747
Q 353 2603 823 3093
Q 1294 3584 2113 3584
Q 2378 3584 2631 3529
Q 2884 3475 3122 3366
z
" transform="scale(0.015625)"/>
       <path id="DejaVuSans-6c" d="M 603 4863
L 1178 4863
L 1178 0
L 603 0
L 603 4863
z
" transform="scale(0.015625)"/>
       <path id="DejaVuSans-6f" d="M 1959 3097
Q 1497 3097 1228 2736
Q 959 2375 959 1747
Q 959 1119 1226 758
Q 1494 397 1959 397
Q 2419 397 2687 759
Q 2956 1122 2956 1747
Q 2956 2369 2687 2733
Q 2419 3097 1959 3097
z
M 1959 3584
Q 2709 3584 3137 3096
Q 3566 2609 3566 1747
Q 3566 888 3137 398
Q 2709 -91 1959 -91
Q 1206 -91 779 398
Q 353 888 353 1747
Q 353 2609 779 3096
Q 1206 3584 1959 3584
z
" transform="scale(0.015625)"/>
       <path id="DejaVuSans-66" d="M 2375 4863
L 2375 4384
L 1825 4384
Q 1516 4384 1395 4259
Q 1275 4134 1275 3809
L 1275 3500
L 2222 3500
L 2222 3053
L 1275 3053
L 1275 0
L 697 0
L 697 3053
L 147 3053
L 147 3500
L 697 3500
L 697 3744
Q 697 4328 969 4595
Q 1241 4863 1831 4863
L 2375 4863
z
" transform="scale(0.015625)"/>
       <path id="DejaVuSans-64" d="M 2906 2969
L 2906 4863
L 3481 4863
L 3481 0
L 2906 0
L 2906 525
Q 2725 213 2448 61
Q 2172 -91 1784 -91
Q 1150 -91 751 415
Q 353 922 353 1747
Q 353 2572 751 3078
Q 1150 3584 1784 3584
Q 2172 3584 2448 3432
Q 2725 3281 2906 2969
z
M 947 1747
Q 947 1113 1208 752
Q 1469 391 1925 391
Q 2381 391 2643 752
Q 2906 1113 2906 1747
Q 2906 2381 2643 2742
Q 2381 3103 1925 3103
Q 1469 3103 1208 2742
Q 947 2381 947 1747
z
" transform="scale(0.015625)"/>
       <path id="DejaVuSans-2f" d="M 1625 4666
L 2156 4666
L 531 -594
L 0 -594
L 1625 4666
z
" transform="scale(0.015625)"/>
      </defs>
      <use xlink:href="#DejaVuSans-6d"/>
      <use xlink:href="#DejaVuSans-61" transform="translate(97.412109 0)"/>
      <use xlink:href="#DejaVuSans-78" transform="translate(158.691406 0)"/>
      <use xlink:href="#DejaVuSans-69" transform="translate(217.871094 0)"/>
      <use xlink:href="#DejaVuSans-6d" transform="translate(245.654297 0)"/>
      <use xlink:href="#DejaVuSans-75" transform="translate(343.066406 0)"/>
      <use xlink:href="#DejaVuSans-6d" transform="translate(406.445312 0)"/>
      <use xlink:href="#DejaVuSans-20" transform="translate(503.857422 0)"/>
      <use xlink:href="#DejaVuSans-70" transform="translate(535.644531 0)"/>
      <use xlink:href="#DejaVuSans-72" transform="translate(599.121094 0)"/>
      <use xlink:href="#DejaVuSans-69" transform="translate(640.234375 0)"/>
      <use xlink:href="#DejaVuSans-6e" transform="translate(668.017578 0)"/>
      <use xlink:href="#DejaVuSans-63" transform="translate(731.396484 0)"/>
      <use xlink:href="#DejaVuSans-69" transform="translate(786.376953 0)"/>
      <use xlink:href="#DejaVuSans-70" transform="translate(814.160156 0)"/>
      <use xlink:href="#DejaVuSans-61" transform="translate(877.636719 0)"/>
      <use xlink:href="#DejaVuSans-6c" transform="translate(938.916016 0)"/>
      <use xlink:href="#DejaVuSans-20" transform="translate(966.699219 0)"/>
      <use xlink:href="#DejaVuSans-72" transform="translate(998.486328 0)"/>
      <use xlink:href="#DejaVuSans-61" transform="translate(1039.599609 0)"/>
      <use xlink:href="#DejaVuSans-74" transform="translate(1100.878906 0)"/>
      <use xlink:href="#DejaVuSans-65" transform="translate(1140.087891 0)"/>
      <use xlink:href="#DejaVuSans-20" transform="translate(1201.611328 0)"/>
      <use xlink:href="#DejaVuSans-6f" transform="translate(1233.398438 0)"/>
      <use xlink:href="#DejaVuSans-66" transform="translate(1294.580078 0)"/>
      <use xlink:href="#DejaVuSans-20" transform="translate(1329.785156 0)"/>
      <use xlink:href="#DejaVuSans-64" transform="translate(1361.572266 0)"/>
      <use xlink:href="#DejaVuSans-65" transform="translate(1425.048828 0)"/>
      <use xlink:href="#DejaVuSans-66" transform="translate(1486.572266 0)"/>
      <use xlink:href="#DejaVuSans-6f" transform="translate(1521.777344 0)"/>
      <use xlink:href="#DejaVuSans-72" transform="translate(1582.958984 0)"/>
      <use xlink:href="#DejaVuSans-6d" transform="translate(1622.322266 0)"/>
      <use xlink:href="#DejaVuSans-61" transform="translate(1719.734375 0)"/>
      <use xlink:href="#DejaVuSans-74" transform="translate(1781.013672 0)"/>
      <use xlink:href="#DejaVuSans-69" transform="translate(1820.222656 0)"/>
      <use xlink:href="#DejaVuSans-6f" transform="translate(1848.005859 0)"/>
      <use xlink:href="#DejaVuSans-6e" transform="translate(1909.1875 0)"/>
      <use xlink:href="#DejaVuSans-20" transform="translate(1972.566406 0)"/>
      <use xlink:href="#DejaVuSans-28" transform="translate(2004.353516 0)"/>
      <use xlink:href="#DejaVuSans-31" transform="translate(2043.367188 0)"/>
      <use xlink:href="#DejaVuSans-2f" transform="translate(2106.990234 0)"/>
      <use xlink:href="#DejaVuSans-73" transform="translate(2140.681641 0)"/>
      <use xlink:href="#DejaVuSans-29" transform="translate(2192.78125 0)"/>
     </g>
    </g>
   </g>
   <g id="line2d_31">
    <path d="M 73.619034 382.419403
L 331.31358 382.30979
L 416.537427 382.053107
L 428.709943 381.843374
L 440.886518 381.727987
L 453.063092 381.681368
L 467.2647 381.344243
L 479.437216 381.580234
L 479.437216 381.580234
" clip-path="url(#p860ada9193)" style="fill: none; stroke-dasharray: 5.55,2.4; stroke-dashoffset: 0; stroke: #1f77b4; stroke-width: 1.5"/>
   </g>
   <g id="line2d_32">
    <path d="M 73.619034 382.419403
L 331.31358 382.309988
L 408.421063 382.064218
L 479.437216 381.3644
L 479.437216 381.3644
" clip-path="url(#p860ada9193)" style="fill: none; stroke-dasharray: 1.5,2.475; stroke-dashoffset: 0; stroke: #ff7f0e; stroke-width: 1.5"/>
   </g>
   <g id="line2d_33">
    <path d="M 73.619034 382.419403
L 331.31358 382.31105
L 412.481274 382.06959
L 416.537427 381.954233
L 418.566518 382.051652
L 420.595609 382.031257
L 422.6247 381.892638
L 440.886518 381.69803
L 444.9447 381.703266
L 469.29582 381.42026
L 473.354001 381.566476
L 479.437216 381.44712
L 479.437216 381.44712
" clip-path="url(#p860ada9193)" style="fill: none; stroke: #2ca02c; stroke-width: 1.5; stroke-linecap: square"/>
   </g>
   <g id="line2d_34">
    <path d="M 73.619034 382.419403
L 333.34267 382.309741
L 408.421063 382.083062
L 420.595609 381.957215
L 422.6247 382.061788
L 426.680852 381.848083
L 430.739034 381.884862
L 434.797216 381.804132
L 453.063092 381.562498
L 461.175398 381.650406
L 467.2647 381.612148
L 471.32491 381.431602
L 473.354001 381.299081
L 479.437216 381.22876
L 479.437216 381.22876
" clip-path="url(#p860ada9193)" style="fill: none; stroke: #d62728; stroke-width: 1.5; stroke-linecap: square"/>
   </g>
   <g id="line2d_35">
    <path d="M 73.619034 382.419403
L 335.37582 382.309493
L 398.27358 382.116913
L 406.391972 382.078319
L 418.566518 381.992043
L 420.595609 381.845132
L 422.6247 381.837176
L 424.65379 381.941074
L 428.709943 381.693
L 434.797216 381.739878
L 446.97379 381.768544
L 449.000852 381.681435
L 453.063092 381.646149
L 461.175398 381.317953
L 465.23358 381.318784
L 473.354001 380.905171
L 479.437216 380.73159
L 479.437216 380.73159
" clip-path="url(#p860ada9193)" style="fill: none; stroke: #9467bd; stroke-width: 1.5; stroke-linecap: square"/>
   </g>
   <g id="line2d_36">
    <path d="M 73.619034 382.419403
L 335.37582 382.30998
L 375.955609 382.138572
L 396.246518 382.011346
L 404.362881 381.988249
L 422.6247 381.492721
L 428.709943 381.149525
L 449.000852 379.768299
L 459.148336 379.593068
L 471.32491 379.684792
L 477.410154 379.492084
L 479.437216 379.288454
L 479.437216 379.288454
" clip-path="url(#p860ada9193)" style="fill: none; stroke: #8c564b; stroke-width: 1.5; stroke-linecap: square"/>
   </g>
   <g id="line2d_37">
    <path d="M 73.619034 382.419403
L 325.226307 382.314057
L 357.69582 382.09038
L 384.071972 381.687079
L 390.159245 381.301057
L 420.595609 378.737662
L 426.680852 378.480945
L 434.797216 378.50639
L 444.9447 378.90953
L 446.97379 378.901797
L 449.000852 379.01945
L 459.148336 378.664667
L 463.208547 378.292768
L 469.29582 377.766105
L 475.381063 377.660938
L 479.437216 377.917034
L 479.437216 377.917034
" clip-path="url(#p860ada9193)" style="fill: none; stroke: #e377c2; stroke-width: 1.5; stroke-linecap: square"/>
   </g>
   <g id="line2d_38">
    <path d="M 73.619034 382.419403
L 313.051761 382.315339
L 335.37582 382.060733
L 347.546307 381.791132
L 355.6647 381.401944
L 361.751972 380.925862
L 367.837216 380.256573
L 384.071972 378.215516
L 390.159245 377.750552
L 398.27358 377.409298
L 404.362881 377.293607
L 410.448125 377.415591
L 414.510365 377.679879
L 422.6247 378.379267
L 428.709943 378.650294
L 432.768125 378.588085
L 449.000852 377.669751
L 457.119245 377.92185
L 465.23358 378.813573
L 469.29582 379.343042
L 473.354001 379.926403
L 477.410154 380.303093
L 479.437216 380.517497
L 479.437216 380.517497
" clip-path="url(#p860ada9193)" style="fill: none; stroke: #7f7f7f; stroke-width: 1.5; stroke-linecap: square"/>
   </g>
   <g id="line2d_39">
    <path d="M 73.619034 382.419403
L 292.762881 382.321947
L 311.026729 382.068377
L 323.199245 381.680509
L 331.31358 381.225188
L 337.40491 380.683382
L 341.461063 380.164364
L 347.546307 379.120905
L 359.722881 376.844195
L 363.783092 376.330515
L 367.837216 376.041825
L 371.899456 375.977705
L 377.986729 376.189279
L 390.159245 376.994082
L 400.306729 377.929979
L 404.362881 378.261031
L 408.421063 378.433544
L 412.481274 378.405071
L 420.595609 377.973012
L 424.65379 377.850742
L 428.709943 377.915867
L 432.768125 378.13109
L 446.97379 379.300096
L 455.090154 379.770087
L 461.175398 379.925013
L 467.2647 379.799689
L 473.354001 379.429702
L 479.437216 379.040401
L 479.437216 379.040401
" clip-path="url(#p860ada9193)" style="fill: none; stroke: #bcbd22; stroke-width: 1.5; stroke-linecap: square"/>
   </g>
   <g id="line2d_40">
    <path d="M 73.619034 382.419403
L 262.327329 382.314698
L 280.588336 382.082804
L 292.762881 381.709984
L 300.879245 381.269603
L 306.968547 380.754316
L 311.026729 380.252464
L 315.082881 379.550023
L 319.143092 378.574283
L 323.199245 377.272891
L 327.257427 375.665669
L 335.37582 372.24757
L 337.40491 371.554884
L 339.429943 371.001039
L 341.461063 370.613352
L 343.490154 370.416076
L 345.519245 370.419527
L 347.546307 370.622127
L 349.579456 371.010583
L 351.604489 371.556709
L 355.6647 372.982195
L 361.751972 375.332433
L 365.812183 376.637276
L 369.868336 377.570232
L 373.926518 378.148119
L 377.986729 378.46553
L 386.101063 378.745866
L 394.217427 379.125547
L 402.33379 379.554491
L 406.391972 379.560933
L 410.448125 379.332007
L 414.510365 378.90202
L 422.6247 377.891478
L 426.680852 377.600492
L 430.739034 377.612643
L 434.797216 377.924257
L 440.886518 378.775133
L 446.97379 379.653365
L 453.063092 380.278505
L 457.119245 380.382194
L 461.175398 380.095391
L 465.23358 379.372085
L 475.381063 376.895022
L 477.410154 376.621674
L 479.437216 376.543057
L 479.437216 376.543057
" clip-path="url(#p860ada9193)" style="fill: none; stroke: #17becf; stroke-width: 1.5; stroke-linecap: square"/>
   </g>
   <g id="line2d_41">
    <path d="M 73.619034 382.419403
L 173.0453 382.316051
L 191.309756 382.05089
L 201.452167 381.726545
L 209.57056 381.287506
L 215.659862 380.796244
L 221.74612 380.1065
L 227.831161 379.138927
L 231.891777 378.282578
L 235.948742 377.20501
L 240.006518 375.846573
L 244.066526 374.135749
L 248.123896 371.988433
L 250.15319 370.715874
L 252.17944 369.288439
L 254.21198 367.674018
L 256.239651 365.848842
L 258.26793 363.766739
L 260.298441 361.373469
L 262.327329 358.610323
L 264.353985 355.407173
L 266.385308 351.675399
L 268.413993 347.354306
L 270.44349 342.375629
L 272.471566 336.711068
L 274.49944 330.363105
L 276.528125 323.383002
L 280.588336 308.050036
L 284.644489 292.283396
L 286.675609 284.854726
L 288.7047 278.08426
L 290.73582 272.188837
L 292.762881 267.395097
L 294.791972 263.875568
L 296.823092 261.803643
L 298.850154 261.344525
L 300.879245 262.657336
L 302.910365 265.891019
L 304.935398 271.147475
L 306.968547 278.516817
L 308.99358 287.924819
L 311.026729 299.2774
L 313.051761 312.218089
L 317.111972 341.153673
L 321.170154 369.944534
L 323.199245 380.947856
L 325.226307 370.32712
L 327.257427 361.666639
L 329.286518 355.360628
L 331.31358 351.361253
L 333.34267 349.497973
L 335.37582 349.493752
L 337.40491 350.993363
L 339.429943 353.584728
L 341.461063 356.86719
L 347.546307 367.395494
L 349.579456 370.450631
L 351.604489 373.107357
L 353.635609 375.336455
L 355.6647 377.101892
L 357.69582 378.402204
L 359.722881 379.270543
L 361.751972 379.799242
L 365.812183 380.470828
L 369.868336 381.53269
L 371.899456 381.152901
L 373.926518 378.838869
L 375.955609 375.795734
L 380.011761 369.107597
L 382.04491 366.263277
L 384.071972 364.272277
L 386.101063 363.373529
L 388.130154 363.666575
L 390.159245 365.111697
L 392.188336 367.589865
L 394.217427 370.95576
L 396.246518 375.052321
L 398.27358 379.668656
L 400.306729 378.295722
L 404.362881 368.150512
L 406.391972 363.622512
L 408.421063 359.90526
L 410.448125 357.275667
L 412.481274 355.957146
L 414.510365 356.11726
L 416.537427 357.794982
L 418.566518 360.938554
L 420.595609 365.322203
L 422.6247 370.637232
L 424.65379 376.5493
L 426.680852 381.450945
L 428.709943 376.099802
L 436.826307 348.992807
L 438.859456 343.48116
L 440.886518 339.737223
L 442.915609 338.426025
L 444.9447 339.847565
L 446.97379 343.945615
L 449.000852 350.34546
L 451.029943 358.542057
L 455.090154 377.442786
L 457.119245 376.84381
L 459.148336 368.535034
L 461.175398 361.437763
L 463.208547 355.538988
L 465.23358 351.123688
L 467.2647 348.127322
L 469.29582 346.804333
L 471.32491 347.228325
L 473.354001 349.511874
L 475.381063 353.656469
L 477.410154 359.45781
L 479.437216 366.513377
L 479.437216 366.513377
" clip-path="url(#p860ada9193)" style="fill: none; stroke: #1f77b4; stroke-width: 1.5; stroke-linecap: square"/>
   </g>
   <g id="line2d_42">
    <path d="M 73.619034 382.419403
L 83.768608 382.358477
L 87.823665 382.06891
L 91.884687 381.40052
L 95.939643 380.296998
L 100.000665 378.758452
L 104.055804 376.824311
L 108.116826 374.537833
L 112.171964 371.959476
L 116.232987 369.136144
L 122.321477 364.566316
L 130.437435 358.105405
L 142.608734 348.347634
L 148.697224 343.729647
L 152.758246 340.836672
L 156.813182 338.14626
L 160.874204 335.699122
L 164.929342 333.560172
L 168.990365 331.793581
L 171.017833 331.078653
L 173.0453 330.49132
L 175.078855 330.044242
L 177.106323 329.755044
L 179.133993 329.638372
L 181.161461 329.710981
L 183.195016 329.992112
L 185.222484 330.498395
L 187.250154 331.248448
L 189.280868 332.261883
L 191.309756 333.553098
L 193.338036 335.136737
L 195.366315 337.024593
L 197.395 339.224858
L 199.425105 341.741255
L 201.452167 344.564723
L 203.483084 347.694269
L 205.514204 351.106808
L 209.57056 358.650289
L 213.626307 366.876427
L 219.716217 379.45115
L 221.74612 381.530506
L 223.774399 377.840862
L 225.804708 374.501479
L 227.831161 371.615578
L 229.862281 369.263739
L 231.891777 367.54059
L 233.91823 366.521321
L 235.948742 366.257567
L 237.976209 366.771297
L 240.006518 368.036695
L 242.035203 369.978667
L 244.066526 372.48815
L 246.095617 375.411187
L 250.15319 381.777948
L 252.17944 379.778514
L 254.21198 377.005613
L 256.239651 374.694757
L 258.26793 372.944202
L 260.298441 371.81664
L 262.327329 371.334113
L 264.353985 371.476168
L 266.385308 372.193689
L 268.413993 373.409787
L 270.44349 375.034745
L 272.471566 376.966267
L 276.528125 381.341998
L 278.557216 381.302078
L 282.615398 377.159707
L 284.644489 375.390397
L 286.675609 373.896968
L 288.7047 372.720725
L 290.73582 371.882609
L 292.762881 371.393467
L 294.791972 371.245293
L 296.823092 371.420004
L 298.850154 371.88915
L 300.879245 372.618662
L 302.910365 373.567282
L 306.968547 375.929075
L 313.051761 379.799789
L 315.082881 380.944877
L 317.111972 381.928213
L 319.143092 382.052288
L 321.170154 381.439647
L 323.199245 381.026547
L 325.226307 380.788102
L 329.286518 380.641281
L 333.34267 380.529685
L 335.37582 380.33833
L 337.40491 379.988127
L 339.429943 379.434691
L 341.461063 378.635462
L 343.490154 377.567762
L 345.519245 376.222332
L 347.546307 374.620224
L 349.579456 372.788395
L 351.604489 370.773093
L 355.6647 366.26638
L 359.722881 361.266354
L 363.783092 356.186767
L 365.812183 353.865362
L 367.837216 351.855
L 369.868336 350.259817
L 371.899456 349.161609
L 373.926518 348.592397
L 375.955609 348.531207
L 377.986729 348.929133
L 380.011761 349.719402
L 382.04491 350.849757
L 384.071972 352.277627
L 386.101063 354.011575
L 388.130154 356.083872
L 390.159245 358.533244
L 392.188336 361.379923
L 394.217427 364.592133
L 402.33379 378.391133
L 404.362881 381.134246
L 406.391972 381.623137
L 410.448125 378.563745
L 414.510365 375.706566
L 416.537427 374.082129
L 418.566518 372.236498
L 422.6247 368.02751
L 424.65379 365.904448
L 426.680852 363.957138
L 428.709943 362.265018
L 430.739034 360.899705
L 432.768125 359.834885
L 434.797216 359.060255
L 436.826307 358.611067
L 438.859456 358.620128
L 440.886518 359.256488
L 442.915609 360.749521
L 444.9447 363.173697
L 446.97379 366.47701
L 449.000852 370.433416
L 453.063092 379.125982
L 455.090154 381.032418
L 457.119245 377.497225
L 459.148336 374.513208
L 461.175398 372.18268
L 463.208547 370.529633
L 465.23358 369.591042
L 467.2647 369.223525
L 469.29582 369.635601
L 471.32491 370.622127
L 473.354001 372.489689
L 475.381063 375.025412
L 477.410154 378.349056
L 479.437216 382.023659
L 479.437216 382.023659
" clip-path="url(#p860ada9193)" style="fill: none; stroke: #ff7f0e; stroke-width: 1.5; stroke-linecap: square"/>
   </g>
   <g id="patch_3">
    <path d="M 53.328125 383.04
L 53.328125 50.4
" style="fill: none; stroke: #000000; stroke-width: 0.8; stroke-linejoin: miter; stroke-linecap: square"/>
   </g>
   <g id="patch_4">
    <path d="M 499.728125 383.04
L 499.728125 50.4
" style="fill: none; stroke: #000000; stroke-width: 0.8; stroke-linejoin: miter; stroke-linecap: square"/>
   </g>
   <g id="patch_5">
    <path d="M 53.328125 383.04
L 499.728125 383.04
" style="fill: none; stroke: #000000; stroke-width: 0.8; stroke-linejoin: miter; stroke-linecap: square"/>
   </g>
   <g id="patch_6">
    <path d="M 53.328125 50.4
L 499.728125 50.4
" style="fill: none; stroke: #000000; stroke-width: 0.8; stroke-linejoin: miter; stroke-linecap: square"/>
   </g>
   <g id="text_18">
    <!-- rate_of_deformation_sr3c.svg created 2025-01-23 09:56:28 EST-0500 by chovey on s1088757 -->
    <g style="fill: #696969" transform="translate(87.8225 44.4) scale(0.08 -0.08)">
     <defs>
      <path id="DejaVuSans-5f" d="M 3263 -1063
L 3263 -1509
L -63 -1509
L -63 -1063
L 3263 -1063
z
" transform="scale(0.015625)"/>
      <path id="DejaVuSans-33" d="M 2597 2516
Q 3050 2419 3304 2112
Q 3559 1806 3559 1356
Q 3559 666 3084 287
Q 2609 -91 1734 -91
Q 1441 -91 1130 -33
Q 819 25 488 141
L 488 750
Q 750 597 1062 519
Q 1375 441 1716 441
Q 2309 441 2620 675
Q 2931 909 2931 1356
Q 2931 1769 2642 2001
Q 2353 2234 1838 2234
L 1294 2234
L 1294 2753
L 1863 2753
Q 2328 2753 2575 2939
Q 2822 3125 2822 3475
Q 2822 3834 2567 4026
Q 2313 4219 1838 4219
Q 1578 4219 1281 4162
Q 984 4106 628 3988
L 628 4550
Q 988 4650 1302 4700
Q 1616 4750 1894 4750
Q 2613 4750 3031 4423
Q 3450 4097 3450 3541
Q 3450 3153 3228 2886
Q 3006 2619 2597 2516
z
" transform="scale(0.015625)"/>
      <path id="DejaVuSans-76" d="M 191 3500
L 800 3500
L 1894 563
L 2988 3500
L 3597 3500
L 2284 0
L 1503 0
L 191 3500
z
" transform="scale(0.015625)"/>
      <path id="DejaVuSans-67" d="M 2906 1791
Q 2906 2416 2648 2759
Q 2391 3103 1925 3103
Q 1463 3103 1205 2759
Q 947 2416 947 1791
Q 947 1169 1205 825
Q 1463 481 1925 481
Q 2391 481 2648 825
Q 2906 1169 2906 1791
z
M 3481 434
Q 3481 -459 3084 -895
Q 2688 -1331 1869 -1331
Q 1566 -1331 1297 -1286
Q 1028 -1241 775 -1147
L 775 -588
Q 1028 -725 1275 -790
Q 1522 -856 1778 -856
Q 2344 -856 2625 -561
Q 2906 -266 2906 331
L 2906 616
Q 2728 306 2450 153
Q 2172 0 1784 0
Q 1141 0 747 490
Q 353 981 353 1791
Q 353 2603 747 3093
Q 1141 3584 1784 3584
Q 2172 3584 2450 3431
Q 2728 3278 2906 2969
L 2906 3500
L 3481 3500
L 3481 434
z
" transform="scale(0.015625)"/>
      <path id="DejaVuSans-2d" d="M 313 2009
L 1997 2009
L 1997 1497
L 313 1497
L 313 2009
z
" transform="scale(0.015625)"/>
      <path id="DejaVuSans-39" d="M 703 97
L 703 672
Q 941 559 1184 500
Q 1428 441 1663 441
Q 2288 441 2617 861
Q 2947 1281 2994 2138
Q 2813 1869 2534 1725
Q 2256 1581 1919 1581
Q 1219 1581 811 2004
Q 403 2428 403 3163
Q 403 3881 828 4315
Q 1253 4750 1959 4750
Q 2769 4750 3195 4129
Q 3622 3509 3622 2328
Q 3622 1225 3098 567
Q 2575 -91 1691 -91
Q 1453 -91 1209 -44
Q 966 3 703 97
z
M 1959 2075
Q 2384 2075 2632 2365
Q 2881 2656 2881 3163
Q 2881 3666 2632 3958
Q 2384 4250 1959 4250
Q 1534 4250 1286 3958
Q 1038 3666 1038 3163
Q 1038 2656 1286 2365
Q 1534 2075 1959 2075
z
" transform="scale(0.015625)"/>
      <path id="DejaVuSans-3a" d="M 750 794
L 1409 794
L 1409 0
L 750 0
L 750 794
z
M 750 3309
L 1409 3309
L 1409 2516
L 750 2516
L 750 3309
z
" transform="scale(0.015625)"/>
      <path id="DejaVuSans-36" d="M 2113 2584
Q 1688 2584 1439 2293
Q 1191 2003 1191 1497
Q 1191 994 1439 701
Q 1688 409 2113 409
Q 2538 409 2786 701
Q 3034 994 3034 1497
Q 3034 2003 2786 2293
Q 2538 2584 2113 2584
z
M 3366 4563
L 3366 3988
Q 3128 4100 2886 4159
Q 2644 4219 2406 4219
Q 1781 4219 1451 3797
Q 1122 3375 1075 2522
Q 1259 2794 1537 2939
Q 1816 3084 2150 3084
Q 2853 3084 3261 2657
Q 3669 2231 3669 1497
Q 3669 778 3244 343
Q 2819 -91 2113 -91
Q 1303 -91 875 529
Q 447 1150 447 2328
Q 447 3434 972 4092
Q 1497 4750 2381 4750
Q 2619 4750 2861 4703
Q 3103 4656 3366 4563
z
" transform="scale(0.015625)"/>
      <path id="DejaVuSans-38" d="M 2034 2216
Q 1584 2216 1326 1975
Q 1069 1734 1069 1313
Q 1069 891 1326 650
Q 1584 409 2034 409
Q 2484 409 2743 651
Q 3003 894 3003 1313
Q 3003 1734 2745 1975
Q 2488 2216 2034 2216
z
M 1403 2484
Q 997 2584 770 2862
Q 544 3141 544 3541
Q 544 4100 942 4425
Q 1341 4750 2034 4750
Q 2731 4750 3128 4425
Q 3525 4100 3525 3541
Q 3525 3141 3298 2862
Q 3072 2584 2669 2484
Q 3125 2378 3379 2068
Q 3634 1759 3634 1313
Q 3634 634 3220 271
Q 2806 -91 2034 -91
Q 1263 -91 848 271
Q 434 634 434 1313
Q 434 1759 690 2068
Q 947 2378 1403 2484
z
M 1172 3481
Q 1172 3119 1398 2916
Q 1625 2713 2034 2713
Q 2441 2713 2670 2916
Q 2900 3119 2900 3481
Q 2900 3844 2670 4047
Q 2441 4250 2034 4250
Q 1625 4250 1398 4047
Q 1172 3844 1172 3481
z
" transform="scale(0.015625)"/>
      <path id="DejaVuSans-45" d="M 628 4666
L 3578 4666
L 3578 4134
L 1259 4134
L 1259 2753
L 3481 2753
L 3481 2222
L 1259 2222
L 1259 531
L 3634 531
L 3634 0
L 628 0
L 628 4666
z
" transform="scale(0.015625)"/>
      <path id="DejaVuSans-53" d="M 3425 4513
L 3425 3897
Q 3066 4069 2747 4153
Q 2428 4238 2131 4238
Q 1616 4238 1336 4038
Q 1056 3838 1056 3469
Q 1056 3159 1242 3001
Q 1428 2844 1947 2747
L 2328 2669
Q 3034 2534 3370 2195
Q 3706 1856 3706 1288
Q 3706 609 3251 259
Q 2797 -91 1919 -91
Q 1588 -91 1214 -16
Q 841 59 441 206
L 441 856
Q 825 641 1194 531
Q 1563 422 1919 422
Q 2459 422 2753 634
Q 3047 847 3047 1241
Q 3047 1584 2836 1778
Q 2625 1972 2144 2069
L 1759 2144
Q 1053 2284 737 2584
Q 422 2884 422 3419
Q 422 4038 858 4394
Q 1294 4750 2059 4750
Q 2388 4750 2728 4690
Q 3069 4631 3425 4513
z
" transform="scale(0.015625)"/>
      <path id="DejaVuSans-54" d="M -19 4666
L 3928 4666
L 3928 4134
L 2272 4134
L 2272 0
L 1638 0
L 1638 4134
L -19 4134
L -19 4666
z
" transform="scale(0.015625)"/>
      <path id="DejaVuSans-62" d="M 3116 1747
Q 3116 2381 2855 2742
Q 2594 3103 2138 3103
Q 1681 3103 1420 2742
Q 1159 2381 1159 1747
Q 1159 1113 1420 752
Q 1681 391 2138 391
Q 2594 391 2855 752
Q 3116 1113 3116 1747
z
M 1159 2969
Q 1341 3281 1617 3432
Q 1894 3584 2278 3584
Q 2916 3584 3314 3078
Q 3713 2572 3713 1747
Q 3713 922 3314 415
Q 2916 -91 2278 -91
Q 1894 -91 1617 61
Q 1341 213 1159 525
L 1159 0
L 581 0
L 581 4863
L 1159 4863
L 1159 2969
z
" transform="scale(0.015625)"/>
      <path id="DejaVuSans-79" d="M 2059 -325
Q 1816 -950 1584 -1140
Q 1353 -1331 966 -1331
L 506 -1331
L 506 -850
L 844 -850
Q 1081 -850 1212 -737
Q 1344 -625 1503 -206
L 1606 56
L 191 3500
L 800 3500
L 1894 763
L 2988 3500
L 3597 3500
L 2059 -325
z
" transform="scale(0.015625)"/>
      <path id="DejaVuSans-68" d="M 3513 2113
L 3513 0
L 2938 0
L 2938 2094
Q 2938 2591 2744 2837
Q 2550 3084 2163 3084
Q 1697 3084 1428 2787
Q 1159 2491 1159 1978
L 1159 0
L 581 0
L 581 4863
L 1159 4863
L 1159 2956
Q 1366 3272 1645 3428
Q 1925 3584 2291 3584
Q 2894 3584 3203 3211
Q 3513 2838 3513 2113
z
" transform="scale(0.015625)"/>
     </defs>
     <use xlink:href="#DejaVuSans-72"/>
     <use xlink:href="#DejaVuSans-61" transform="translate(41.113281 0)"/>
     <use xlink:href="#DejaVuSans-74" transform="translate(102.392578 0)"/>
     <use xlink:href="#DejaVuSans-65" transform="translate(141.601562 0)"/>
     <use xlink:href="#DejaVuSans-5f" transform="translate(203.125 0)"/>
     <use xlink:href="#DejaVuSans-6f" transform="translate(253.125 0)"/>
     <use xlink:href="#DejaVuSans-66" transform="translate(314.306641 0)"/>
     <use xlink:href="#DejaVuSans-5f" transform="translate(349.511719 0)"/>
     <use xlink:href="#DejaVuSans-64" transform="translate(399.511719 0)"/>
     <use xlink:href="#DejaVuSans-65" transform="translate(462.988281 0)"/>
     <use xlink:href="#DejaVuSans-66" transform="translate(524.511719 0)"/>
     <use xlink:href="#DejaVuSans-6f" transform="translate(559.716797 0)"/>
     <use xlink:href="#DejaVuSans-72" transform="translate(620.898438 0)"/>
     <use xlink:href="#DejaVuSans-6d" transform="translate(660.261719 0)"/>
     <use xlink:href="#DejaVuSans-61" transform="translate(757.673828 0)"/>
     <use xlink:href="#DejaVuSans-74" transform="translate(818.953125 0)"/>
     <use xlink:href="#DejaVuSans-69" transform="translate(858.162109 0)"/>
     <use xlink:href="#DejaVuSans-6f" transform="translate(885.945312 0)"/>
     <use xlink:href="#DejaVuSans-6e" transform="translate(947.126953 0)"/>
     <use xlink:href="#DejaVuSans-5f" transform="translate(1010.505859 0)"/>
     <use xlink:href="#DejaVuSans-73" transform="translate(1060.505859 0)"/>
     <use xlink:href="#DejaVuSans-72" transform="translate(1112.605469 0)"/>
     <use xlink:href="#DejaVuSans-33" transform="translate(1153.71875 0)"/>
     <use xlink:href="#DejaVuSans-63" transform="translate(1217.341797 0)"/>
     <use xlink:href="#DejaVuSans-2e" transform="translate(1272.322266 0)"/>
     <use xlink:href="#DejaVuSans-73" transform="translate(1304.109375 0)"/>
     <use xlink:href="#DejaVuSans-76" transform="translate(1356.208984 0)"/>
     <use xlink:href="#DejaVuSans-67" transform="translate(1415.388672 0)"/>
     <use xlink:href="#DejaVuSans-20" transform="translate(1478.865234 0)"/>
     <use xlink:href="#DejaVuSans-63" transform="translate(1510.652344 0)"/>
     <use xlink:href="#DejaVuSans-72" transform="translate(1565.632812 0)"/>
     <use xlink:href="#DejaVuSans-65" transform="translate(1604.496094 0)"/>
     <use xlink:href="#DejaVuSans-61" transform="translate(1666.019531 0)"/>
     <use xlink:href="#DejaVuSans-74" transform="translate(1727.298828 0)"/>
     <use xlink:href="#DejaVuSans-65" transform="translate(1766.507812 0)"/>
     <use xlink:href="#DejaVuSans-64" transform="translate(1828.03125 0)"/>
     <use xlink:href="#DejaVuSans-20" transform="translate(1891.507812 0)"/>
     <use xlink:href="#DejaVuSans-32" transform="translate(1923.294922 0)"/>
     <use xlink:href="#DejaVuSans-30" transform="translate(1986.917969 0)"/>
     <use xlink:href="#DejaVuSans-32" transform="translate(2050.541016 0)"/>
     <use xlink:href="#DejaVuSans-35" transform="translate(2114.164062 0)"/>
     <use xlink:href="#DejaVuSans-2d" transform="translate(2177.787109 0)"/>
     <use xlink:href="#DejaVuSans-30" transform="translate(2213.871094 0)"/>
     <use xlink:href="#DejaVuSans-31" transform="translate(2277.494141 0)"/>
     <use xlink:href="#DejaVuSans-2d" transform="translate(2341.117188 0)"/>
     <use xlink:href="#DejaVuSans-32" transform="translate(2377.201172 0)"/>
     <use xlink:href="#DejaVuSans-33" transform="translate(2440.824219 0)"/>
     <use xlink:href="#DejaVuSans-20" transform="translate(2504.447266 0)"/>
     <use xlink:href="#DejaVuSans-30" transform="translate(2536.234375 0)"/>
     <use xlink:href="#DejaVuSans-39" transform="translate(2599.857422 0)"/>
     <use xlink:href="#DejaVuSans-3a" transform="translate(2663.480469 0)"/>
     <use xlink:href="#DejaVuSans-35" transform="translate(2697.171875 0)"/>
     <use xlink:href="#DejaVuSans-36" transform="translate(2760.794922 0)"/>
     <use xlink:href="#DejaVuSans-3a" transform="translate(2824.417969 0)"/>
     <use xlink:href="#DejaVuSans-32" transform="translate(2858.109375 0)"/>
     <use xlink:href="#DejaVuSans-38" transform="translate(2921.732422 0)"/>
     <use xlink:href="#DejaVuSans-20" transform="translate(2985.355469 0)"/>
     <use xlink:href="#DejaVuSans-45" transform="translate(3017.142578 0)"/>
     <use xlink:href="#DejaVuSans-53" transform="translate(3080.326172 0)"/>
     <use xlink:href="#DejaVuSans-54" transform="translate(3143.802734 0)"/>
     <use xlink:href="#DejaVuSans-2d" transform="translate(3195.761719 0)"/>
     <use xlink:href="#DejaVuSans-30" transform="translate(3231.845703 0)"/>
     <use xlink:href="#DejaVuSans-35" transform="translate(3295.46875 0)"/>
     <use xlink:href="#DejaVuSans-30" transform="translate(3359.091797 0)"/>
     <use xlink:href="#DejaVuSans-30" transform="translate(3422.714844 0)"/>
     <use xlink:href="#DejaVuSans-20" transform="translate(3486.337891 0)"/>
     <use xlink:href="#DejaVuSans-62" transform="translate(3518.125 0)"/>
     <use xlink:href="#DejaVuSans-79" transform="translate(3581.601562 0)"/>
     <use xlink:href="#DejaVuSans-20" transform="translate(3640.78125 0)"/>
     <use xlink:href="#DejaVuSans-63" transform="translate(3672.568359 0)"/>
     <use xlink:href="#DejaVuSans-68" transform="translate(3727.548828 0)"/>
     <use xlink:href="#DejaVuSans-6f" transform="translate(3790.927734 0)"/>
     <use xlink:href="#DejaVuSans-76" transform="translate(3852.109375 0)"/>
     <use xlink:href="#DejaVuSans-65" transform="translate(3911.289062 0)"/>
     <use xlink:href="#DejaVuSans-79" transform="translate(3972.8125 0)"/>
     <use xlink:href="#DejaVuSans-20" transform="translate(4031.992188 0)"/>
     <use xlink:href="#DejaVuSans-6f" transform="translate(4063.779297 0)"/>
     <use xlink:href="#DejaVuSans-6e" transform="translate(4124.960938 0)"/>
     <use xlink:href="#DejaVuSans-20" transform="translate(4188.339844 0)"/>
     <use xlink:href="#DejaVuSans-73" transform="translate(4220.126953 0)"/>
     <use xlink:href="#DejaVuSans-31" transform="translate(4272.226562 0)"/>
     <use xlink:href="#DejaVuSans-30" transform="translate(4335.849609 0)"/>
     <use xlink:href="#DejaVuSans-38" transform="translate(4399.472656 0)"/>
     <use xlink:href="#DejaVuSans-38" transform="translate(4463.095703 0)"/>
     <use xlink:href="#DejaVuSans-37" transform="translate(4526.71875 0)"/>
     <use xlink:href="#DejaVuSans-35" transform="translate(4590.341797 0)"/>
     <use xlink:href="#DejaVuSans-37" transform="translate(4653.964844 0)"/>
    </g>
   </g>
   <g id="legend_1">
    <g id="patch_7">
     <path d="M 417.095312 234.5375
L 492.728125 234.5375
Q 494.728125 234.5375 494.728125 232.5375
L 494.728125 57.4
Q 494.728125 55.4 492.728125 55.4
L 417.095312 55.4
Q 415.095312 55.4 415.095312 57.4
L 415.095312 232.5375
Q 415.095312 234.5375 417.095312 234.5375
z
" style="fill: #ffffff; opacity: 0.8; stroke: #cccccc; stroke-linejoin: miter"/>
    </g>
    <g id="line2d_43">
     <path d="M 419.095312 63.498437
L 429.095312 63.498437
L 439.095312 63.498437
" style="fill: none; stroke-dasharray: 5.55,2.4; stroke-dashoffset: 0; stroke: #1f77b4; stroke-width: 1.5"/>
    </g>
    <g id="text_19">
     <!-- r=0 cm -->
     <g transform="translate(447.095312 66.998437) scale(0.1 -0.1)">
      <defs>
       <path id="DejaVuSans-3d" d="M 678 2906
L 4684 2906
L 4684 2381
L 678 2381
L 678 2906
z
M 678 1631
L 4684 1631
L 4684 1100
L 678 1100
L 678 1631
z
" transform="scale(0.015625)"/>
      </defs>
      <use xlink:href="#DejaVuSans-72"/>
      <use xlink:href="#DejaVuSans-3d" transform="translate(41.113281 0)"/>
      <use xlink:href="#DejaVuSans-30" transform="translate(124.902344 0)"/>
      <use xlink:href="#DejaVuSans-20" transform="translate(188.525391 0)"/>
      <use xlink:href="#DejaVuSans-63" transform="translate(220.3125 0)"/>
      <use xlink:href="#DejaVuSans-6d" transform="translate(275.292969 0)"/>
     </g>
    </g>
    <g id="line2d_44">
     <path d="M 419.095312 78.176562
L 429.095312 78.176562
L 439.095312 78.176562
" style="fill: none; stroke-dasharray: 1.5,2.475; stroke-dashoffset: 0; stroke: #ff7f0e; stroke-width: 1.5"/>
    </g>
    <g id="text_20">
     <!-- r=1 cm -->
     <g transform="translate(447.095312 81.676562) scale(0.1 -0.1)">
      <use xlink:href="#DejaVuSans-72"/>
      <use xlink:href="#DejaVuSans-3d" transform="translate(41.113281 0)"/>
      <use xlink:href="#DejaVuSans-31" transform="translate(124.902344 0)"/>
      <use xlink:href="#DejaVuSans-20" transform="translate(188.525391 0)"/>
      <use xlink:href="#DejaVuSans-63" transform="translate(220.3125 0)"/>
      <use xlink:href="#DejaVuSans-6d" transform="translate(275.292969 0)"/>
     </g>
    </g>
    <g id="line2d_45">
     <path d="M 419.095312 92.854687
L 429.095312 92.854687
L 439.095312 92.854687
" style="fill: none; stroke: #2ca02c; stroke-width: 1.5; stroke-linecap: square"/>
    </g>
    <g id="text_21">
     <!-- r=2 cm -->
     <g transform="translate(447.095312 96.354687) scale(0.1 -0.1)">
      <use xlink:href="#DejaVuSans-72"/>
      <use xlink:href="#DejaVuSans-3d" transform="translate(41.113281 0)"/>
      <use xlink:href="#DejaVuSans-32" transform="translate(124.902344 0)"/>
      <use xlink:href="#DejaVuSans-20" transform="translate(188.525391 0)"/>
      <use xlink:href="#DejaVuSans-63" transform="translate(220.3125 0)"/>
      <use xlink:href="#DejaVuSans-6d" transform="translate(275.292969 0)"/>
     </g>
    </g>
    <g id="line2d_46">
     <path d="M 419.095312 107.532812
L 429.095312 107.532812
L 439.095312 107.532812
" style="fill: none; stroke: #d62728; stroke-width: 1.5; stroke-linecap: square"/>
    </g>
    <g id="text_22">
     <!-- r=3 cm -->
     <g transform="translate(447.095312 111.032812) scale(0.1 -0.1)">
      <use xlink:href="#DejaVuSans-72"/>
      <use xlink:href="#DejaVuSans-3d" transform="translate(41.113281 0)"/>
      <use xlink:href="#DejaVuSans-33" transform="translate(124.902344 0)"/>
      <use xlink:href="#DejaVuSans-20" transform="translate(188.525391 0)"/>
      <use xlink:href="#DejaVuSans-63" transform="translate(220.3125 0)"/>
      <use xlink:href="#DejaVuSans-6d" transform="translate(275.292969 0)"/>
     </g>
    </g>
    <g id="line2d_47">
     <path d="M 419.095312 122.210937
L 429.095312 122.210937
L 439.095312 122.210937
" style="fill: none; stroke: #9467bd; stroke-width: 1.5; stroke-linecap: square"/>
    </g>
    <g id="text_23">
     <!-- r=4 cm -->
     <g transform="translate(447.095312 125.710937) scale(0.1 -0.1)">
      <defs>
       <path id="DejaVuSans-34" d="M 2419 4116
L 825 1625
L 2419 1625
L 2419 4116
z
M 2253 4666
L 3047 4666
L 3047 1625
L 3713 1625
L 3713 1100
L 3047 1100
L 3047 0
L 2419 0
L 2419 1100
L 313 1100
L 313 1709
L 2253 4666
z
" transform="scale(0.015625)"/>
      </defs>
      <use xlink:href="#DejaVuSans-72"/>
      <use xlink:href="#DejaVuSans-3d" transform="translate(41.113281 0)"/>
      <use xlink:href="#DejaVuSans-34" transform="translate(124.902344 0)"/>
      <use xlink:href="#DejaVuSans-20" transform="translate(188.525391 0)"/>
      <use xlink:href="#DejaVuSans-63" transform="translate(220.3125 0)"/>
      <use xlink:href="#DejaVuSans-6d" transform="translate(275.292969 0)"/>
     </g>
    </g>
    <g id="line2d_48">
     <path d="M 419.095312 136.889062
L 429.095312 136.889062
L 439.095312 136.889062
" style="fill: none; stroke: #8c564b; stroke-width: 1.5; stroke-linecap: square"/>
    </g>
    <g id="text_24">
     <!-- r=5 cm -->
     <g transform="translate(447.095312 140.389062) scale(0.1 -0.1)">
      <use xlink:href="#DejaVuSans-72"/>
      <use xlink:href="#DejaVuSans-3d" transform="translate(41.113281 0)"/>
      <use xlink:href="#DejaVuSans-35" transform="translate(124.902344 0)"/>
      <use xlink:href="#DejaVuSans-20" transform="translate(188.525391 0)"/>
      <use xlink:href="#DejaVuSans-63" transform="translate(220.3125 0)"/>
      <use xlink:href="#DejaVuSans-6d" transform="translate(275.292969 0)"/>
     </g>
    </g>
    <g id="line2d_49">
     <path d="M 419.095312 151.567187
L 429.095312 151.567187
L 439.095312 151.567187
" style="fill: none; stroke: #e377c2; stroke-width: 1.5; stroke-linecap: square"/>
    </g>
    <g id="text_25">
     <!-- r=6 cm -->
     <g transform="translate(447.095312 155.067187) scale(0.1 -0.1)">
      <use xlink:href="#DejaVuSans-72"/>
      <use xlink:href="#DejaVuSans-3d" transform="translate(41.113281 0)"/>
      <use xlink:href="#DejaVuSans-36" transform="translate(124.902344 0)"/>
      <use xlink:href="#DejaVuSans-20" transform="translate(188.525391 0)"/>
      <use xlink:href="#DejaVuSans-63" transform="translate(220.3125 0)"/>
      <use xlink:href="#DejaVuSans-6d" transform="translate(275.292969 0)"/>
     </g>
    </g>
    <g id="line2d_50">
     <path d="M 419.095312 166.245312
L 429.095312 166.245312
L 439.095312 166.245312
" style="fill: none; stroke: #7f7f7f; stroke-width: 1.5; stroke-linecap: square"/>
    </g>
    <g id="text_26">
     <!-- r=7 cm -->
     <g transform="translate(447.095312 169.745312) scale(0.1 -0.1)">
      <use xlink:href="#DejaVuSans-72"/>
      <use xlink:href="#DejaVuSans-3d" transform="translate(41.113281 0)"/>
      <use xlink:href="#DejaVuSans-37" transform="translate(124.902344 0)"/>
      <use xlink:href="#DejaVuSans-20" transform="translate(188.525391 0)"/>
      <use xlink:href="#DejaVuSans-63" transform="translate(220.3125 0)"/>
      <use xlink:href="#DejaVuSans-6d" transform="translate(275.292969 0)"/>
     </g>
    </g>
    <g id="line2d_51">
     <path d="M 419.095312 180.923437
L 429.095312 180.923437
L 439.095312 180.923437
" style="fill: none; stroke: #bcbd22; stroke-width: 1.5; stroke-linecap: square"/>
    </g>
    <g id="text_27">
     <!-- r=8 cm -->
     <g transform="translate(447.095312 184.423437) scale(0.1 -0.1)">
      <use xlink:href="#DejaVuSans-72"/>
      <use xlink:href="#DejaVuSans-3d" transform="translate(41.113281 0)"/>
      <use xlink:href="#DejaVuSans-38" transform="translate(124.902344 0)"/>
      <use xlink:href="#DejaVuSans-20" transform="translate(188.525391 0)"/>
      <use xlink:href="#DejaVuSans-63" transform="translate(220.3125 0)"/>
      <use xlink:href="#DejaVuSans-6d" transform="translate(275.292969 0)"/>
     </g>
    </g>
    <g id="line2d_52">
     <path d="M 419.095312 195.601562
L 429.095312 195.601562
L 439.095312 195.601562
" style="fill: none; stroke: #17becf; stroke-width: 1.5; stroke-linecap: square"/>
    </g>
    <g id="text_28">
     <!-- r=9 cm -->
     <g transform="translate(447.095312 199.101562) scale(0.1 -0.1)">
      <use xlink:href="#DejaVuSans-72"/>
      <use xlink:href="#DejaVuSans-3d" transform="translate(41.113281 0)"/>
      <use xlink:href="#DejaVuSans-39" transform="translate(124.902344 0)"/>
      <use xlink:href="#DejaVuSans-20" transform="translate(188.525391 0)"/>
      <use xlink:href="#DejaVuSans-63" transform="translate(220.3125 0)"/>
      <use xlink:href="#DejaVuSans-6d" transform="translate(275.292969 0)"/>
     </g>
    </g>
    <g id="line2d_53">
     <path d="M 419.095312 210.279687
L 429.095312 210.279687
L 439.095312 210.279687
" style="fill: none; stroke: #1f77b4; stroke-width: 1.5; stroke-linecap: square"/>
    </g>
    <g id="text_29">
     <!-- r=10 cm -->
     <g transform="translate(447.095312 213.779687) scale(0.1 -0.1)">
      <use xlink:href="#DejaVuSans-72"/>
      <use xlink:href="#DejaVuSans-3d" transform="translate(41.113281 0)"/>
      <use xlink:href="#DejaVuSans-31" transform="translate(124.902344 0)"/>
      <use xlink:href="#DejaVuSans-30" transform="translate(188.525391 0)"/>
      <use xlink:href="#DejaVuSans-20" transform="translate(252.148438 0)"/>
      <use xlink:href="#DejaVuSans-63" transform="translate(283.935547 0)"/>
      <use xlink:href="#DejaVuSans-6d" transform="translate(338.916016 0)"/>
     </g>
    </g>
    <g id="line2d_54">
     <path d="M 419.095312 224.957812
L 429.095312 224.957812
L 439.095312 224.957812
" style="fill: none; stroke: #ff7f0e; stroke-width: 1.5; stroke-linecap: square"/>
    </g>
    <g id="text_30">
     <!-- r=11 cm -->
     <g transform="translate(447.095312 228.457812) scale(0.1 -0.1)">
      <use xlink:href="#DejaVuSans-72"/>
      <use xlink:href="#DejaVuSans-3d" transform="translate(41.113281 0)"/>
      <use xlink:href="#DejaVuSans-31" transform="translate(124.902344 0)"/>
      <use xlink:href="#DejaVuSans-31" transform="translate(188.525391 0)"/>
      <use xlink:href="#DejaVuSans-20" transform="translate(252.148438 0)"/>
      <use xlink:href="#DejaVuSans-63" transform="translate(283.935547 0)"/>
      <use xlink:href="#DejaVuSans-6d" transform="translate(338.916016 0)"/>
     </g>
    </g>
   </g>
  </g>
  <g id="text_31">
   <!-- Maximum Principal Rate of Deformation at Various Radii (sr3c) -->
   <g transform="translate(81.610625 16.318125) scale(0.12 -0.12)">
    <defs>
     <path id="DejaVuSans-4d" d="M 628 4666
L 1569 4666
L 2759 1491
L 3956 4666
L 4897 4666
L 4897 0
L 4281 0
L 4281 4097
L 3078 897
L 2444 897
L 1241 4097
L 1241 0
L 628 0
L 628 4666
z
" transform="scale(0.015625)"/>
     <path id="DejaVuSans-50" d="M 1259 4147
L 1259 2394
L 2053 2394
Q 2494 2394 2734 2622
Q 2975 2850 2975 3272
Q 2975 3691 2734 3919
Q 2494 4147 2053 4147
L 1259 4147
z
M 628 4666
L 2053 4666
Q 2838 4666 3239 4311
Q 3641 3956 3641 3272
Q 3641 2581 3239 2228
Q 2838 1875 2053 1875
L 1259 1875
L 1259 0
L 628 0
L 628 4666
z
" transform="scale(0.015625)"/>
     <path id="DejaVuSans-52" d="M 2841 2188
Q 3044 2119 3236 1894
Q 3428 1669 3622 1275
L 4263 0
L 3584 0
L 2988 1197
Q 2756 1666 2539 1819
Q 2322 1972 1947 1972
L 1259 1972
L 1259 0
L 628 0
L 628 4666
L 2053 4666
Q 2853 4666 3247 4331
Q 3641 3997 3641 3322
Q 3641 2881 3436 2590
Q 3231 2300 2841 2188
z
M 1259 4147
L 1259 2491
L 2053 2491
Q 2509 2491 2742 2702
Q 2975 2913 2975 3322
Q 2975 3731 2742 3939
Q 2509 4147 2053 4147
L 1259 4147
z
" transform="scale(0.015625)"/>
     <path id="DejaVuSans-44" d="M 1259 4147
L 1259 519
L 2022 519
Q 2988 519 3436 956
Q 3884 1394 3884 2338
Q 3884 3275 3436 3711
Q 2988 4147 2022 4147
L 1259 4147
z
M 628 4666
L 1925 4666
Q 3281 4666 3915 4102
Q 4550 3538 4550 2338
Q 4550 1131 3912 565
Q 3275 0 1925 0
L 628 0
L 628 4666
z
" transform="scale(0.015625)"/>
     <path id="DejaVuSans-56" d="M 1831 0
L 50 4666
L 709 4666
L 2188 738
L 3669 4666
L 4325 4666
L 2547 0
L 1831 0
z
" transform="scale(0.015625)"/>
    </defs>
    <use xlink:href="#DejaVuSans-4d"/>
    <use xlink:href="#DejaVuSans-61" transform="translate(86.279297 0)"/>
    <use xlink:href="#DejaVuSans-78" transform="translate(147.558594 0)"/>
    <use xlink:href="#DejaVuSans-69" transform="translate(206.738281 0)"/>
    <use xlink:href="#DejaVuSans-6d" transform="translate(234.521484 0)"/>
    <use xlink:href="#DejaVuSans-75" transform="translate(331.933594 0)"/>
    <use xlink:href="#DejaVuSans-6d" transform="translate(395.3125 0)"/>
    <use xlink:href="#DejaVuSans-20" transform="translate(492.724609 0)"/>
    <use xlink:href="#DejaVuSans-50" transform="translate(524.511719 0)"/>
    <use xlink:href="#DejaVuSans-72" transform="translate(583.064453 0)"/>
    <use xlink:href="#DejaVuSans-69" transform="translate(624.177734 0)"/>
    <use xlink:href="#DejaVuSans-6e" transform="translate(651.960938 0)"/>
    <use xlink:href="#DejaVuSans-63" transform="translate(715.339844 0)"/>
    <use xlink:href="#DejaVuSans-69" transform="translate(770.320312 0)"/>
    <use xlink:href="#DejaVuSans-70" transform="translate(798.103516 0)"/>
    <use xlink:href="#DejaVuSans-61" transform="translate(861.580078 0)"/>
    <use xlink:href="#DejaVuSans-6c" transform="translate(922.859375 0)"/>
    <use xlink:href="#DejaVuSans-20" transform="translate(950.642578 0)"/>
    <use xlink:href="#DejaVuSans-52" transform="translate(982.429688 0)"/>
    <use xlink:href="#DejaVuSans-61" transform="translate(1049.662109 0)"/>
    <use xlink:href="#DejaVuSans-74" transform="translate(1110.941406 0)"/>
    <use xlink:href="#DejaVuSans-65" transform="translate(1150.150391 0)"/>
    <use xlink:href="#DejaVuSans-20" transform="translate(1211.673828 0)"/>
    <use xlink:href="#DejaVuSans-6f" transform="translate(1243.460938 0)"/>
    <use xlink:href="#DejaVuSans-66" transform="translate(1304.642578 0)"/>
    <use xlink:href="#DejaVuSans-20" transform="translate(1339.847656 0)"/>
    <use xlink:href="#DejaVuSans-44" transform="translate(1371.634766 0)"/>
    <use xlink:href="#DejaVuSans-65" transform="translate(1448.636719 0)"/>
    <use xlink:href="#DejaVuSans-66" transform="translate(1510.160156 0)"/>
    <use xlink:href="#DejaVuSans-6f" transform="translate(1545.365234 0)"/>
    <use xlink:href="#DejaVuSans-72" transform="translate(1606.546875 0)"/>
    <use xlink:href="#DejaVuSans-6d" transform="translate(1645.910156 0)"/>
    <use xlink:href="#DejaVuSans-61" transform="translate(1743.322266 0)"/>
    <use xlink:href="#DejaVuSans-74" transform="translate(1804.601562 0)"/>
    <use xlink:href="#DejaVuSans-69" transform="translate(1843.810547 0)"/>
    <use xlink:href="#DejaVuSans-6f" transform="translate(1871.59375 0)"/>
    <use xlink:href="#DejaVuSans-6e" transform="translate(1932.775391 0)"/>
    <use xlink:href="#DejaVuSans-20" transform="translate(1996.154297 0)"/>
    <use xlink:href="#DejaVuSans-61" transform="translate(2027.941406 0)"/>
    <use xlink:href="#DejaVuSans-74" transform="translate(2089.220703 0)"/>
    <use xlink:href="#DejaVuSans-20" transform="translate(2128.429688 0)"/>
    <use xlink:href="#DejaVuSans-56" transform="translate(2160.216797 0)"/>
    <use xlink:href="#DejaVuSans-61" transform="translate(2220.875 0)"/>
    <use xlink:href="#DejaVuSans-72" transform="translate(2282.154297 0)"/>
    <use xlink:href="#DejaVuSans-69" transform="translate(2323.267578 0)"/>
    <use xlink:href="#DejaVuSans-6f" transform="translate(2351.050781 0)"/>
    <use xlink:href="#DejaVuSans-75" transform="translate(2412.232422 0)"/>
    <use xlink:href="#DejaVuSans-73" transform="translate(2475.611328 0)"/>
    <use xlink:href="#DejaVuSans-20" transform="translate(2527.710938 0)"/>
    <use xlink:href="#DejaVuSans-52" transform="translate(2559.498047 0)"/>
    <use xlink:href="#DejaVuSans-61" transform="translate(2626.730469 0)"/>
    <use xlink:href="#DejaVuSans-64" transform="translate(2688.009766 0)"/>
    <use xlink:href="#DejaVuSans-69" transform="translate(2751.486328 0)"/>
    <use xlink:href="#DejaVuSans-69" transform="translate(2779.269531 0)"/>
    <use xlink:href="#DejaVuSans-20" transform="translate(2807.052734 0)"/>
    <use xlink:href="#DejaVuSans-28" transform="translate(2838.839844 0)"/>
    <use xlink:href="#DejaVuSans-73" transform="translate(2877.853516 0)"/>
    <use xlink:href="#DejaVuSans-72" transform="translate(2929.953125 0)"/>
    <use xlink:href="#DejaVuSans-33" transform="translate(2971.066406 0)"/>
    <use xlink:href="#DejaVuSans-63" transform="translate(3034.689453 0)"/>
    <use xlink:href="#DejaVuSans-29" transform="translate(3089.669922 0)"/>
   </g>
  </g>
 </g>
 <defs>
  <clipPath id="p860ada9193">
   <rect x="53.328125" y="50.4" width="446.4" height="332.64"/>
  </clipPath>
 </defs>
</svg>
