<?xml version="1.0" encoding="utf-8" standalone="no"?>
<!DOCTYPE svg PUBLIC "-//W3C//DTD SVG 1.1//EN"
  "http://www.w3.org/Graphics/SVG/1.1/DTD/svg11.dtd">
<svg xmlns:xlink="http://www.w3.org/1999/xlink" width="506.928125pt" height="420.59625pt" viewBox="0 0 506.928125 420.59625" xmlns="http://www.w3.org/2000/svg" version="1.1">
 <metadata>
  <rdf:RDF xmlns:dc="http://purl.org/dc/elements/1.1/" xmlns:cc="http://creativecommons.org/ns#" xmlns:rdf="http://www.w3.org/1999/02/22-rdf-syntax-ns#">
   <cc:Work>
    <dc:type rdf:resource="http://purl.org/dc/dcmitype/StillImage"/>
    <dc:date>2025-01-23T09:54:47.037689</dc:date>
    <dc:format>image/svg+xml</dc:format>
    <dc:creator>
     <cc:Agent>
      <dc:title>Matplotlib v3.10.0, https://matplotlib.org/</dc:title>
     </cc:Agent>
    </dc:creator>
   </cc:Work>
  </rdf:RDF>
 </metadata>
 <defs>
  <style type="text/css">*{stroke-linejoin: round; stroke-linecap: butt}</style>
 </defs>
 <g id="figure_1">
  <g id="patch_1">
   <path d="M 0 420.59625
L 506.928125 420.59625
L 506.928125 0
L 0 0
z
" style="fill: #ffffff"/>
  </g>
  <g id="axes_1">
   <g id="patch_2">
    <path d="M 53.328125 383.04
L 499.728125 383.04
L 499.728125 50.4
L 53.328125 50.4
z
" style="fill: #ffffff"/>
   </g>
   <g id="matplotlib.axis_1">
    <g id="xtick_1">
     <g id="line2d_1">
      <path d="M 73.619034 383.04
L 73.619034 50.4
" clip-path="url(#p916b19e654)" style="fill: none; stroke: #b0b0b0; stroke-width: 0.8; stroke-linecap: square"/>
     </g>
     <g id="line2d_2">
      <defs>
       <path id="m063579b893" d="M 0 0
L 0 3.5
" style="stroke: #000000; stroke-width: 0.8"/>
      </defs>
      <g>
       <use xlink:href="#m063579b893" x="73.619034" y="383.04" style="stroke: #000000; stroke-width: 0.8"/>
      </g>
     </g>
     <g id="text_1">
      <!-- 0.0000 -->
      <g transform="translate(56.123722 397.638437) scale(0.1 -0.1)">
       <defs>
        <path id="DejaVuSans-30" d="M 2034 4250
Q 1547 4250 1301 3770
Q 1056 3291 1056 2328
Q 1056 1369 1301 889
Q 1547 409 2034 409
Q 2525 409 2770 889
Q 3016 1369 3016 2328
Q 3016 3291 2770 3770
Q 2525 4250 2034 4250
z
M 2034 4750
Q 2819 4750 3233 4129
Q 3647 3509 3647 2328
Q 3647 1150 3233 529
Q 2819 -91 2034 -91
Q 1250 -91 836 529
Q 422 1150 422 2328
Q 422 3509 836 4129
Q 1250 4750 2034 4750
z
" transform="scale(0.015625)"/>
        <path id="DejaVuSans-2e" d="M 684 794
L 1344 794
L 1344 0
L 684 0
L 684 794
z
" transform="scale(0.015625)"/>
       </defs>
       <use xlink:href="#DejaVuSans-30"/>
       <use xlink:href="#DejaVuSans-2e" transform="translate(63.623047 0)"/>
       <use xlink:href="#DejaVuSans-30" transform="translate(95.410156 0)"/>
       <use xlink:href="#DejaVuSans-30" transform="translate(159.033203 0)"/>
       <use xlink:href="#DejaVuSans-30" transform="translate(222.65625 0)"/>
       <use xlink:href="#DejaVuSans-30" transform="translate(286.279297 0)"/>
      </g>
     </g>
    </g>
    <g id="xtick_2">
     <g id="line2d_3">
      <path d="M 124.346307 383.04
L 124.346307 50.4
" clip-path="url(#p916b19e654)" style="fill: none; stroke: #b0b0b0; stroke-width: 0.8; stroke-linecap: square"/>
     </g>
     <g id="line2d_4">
      <g>
       <use xlink:href="#m063579b893" x="124.346307" y="383.04" style="stroke: #000000; stroke-width: 0.8"/>
      </g>
     </g>
     <g id="text_2">
      <!-- 0.0025 -->
      <g transform="translate(106.850994 397.638437) scale(0.1 -0.1)">
       <defs>
        <path id="DejaVuSans-32" d="M 1228 531
L 3431 531
L 3431 0
L 469 0
L 469 531
Q 828 903 1448 1529
Q 2069 2156 2228 2338
Q 2531 2678 2651 2914
Q 2772 3150 2772 3378
Q 2772 3750 2511 3984
Q 2250 4219 1831 4219
Q 1534 4219 1204 4116
Q 875 4013 500 3803
L 500 4441
Q 881 4594 1212 4672
Q 1544 4750 1819 4750
Q 2544 4750 2975 4387
Q 3406 4025 3406 3419
Q 3406 3131 3298 2873
Q 3191 2616 2906 2266
Q 2828 2175 2409 1742
Q 1991 1309 1228 531
z
" transform="scale(0.015625)"/>
        <path id="DejaVuSans-35" d="M 691 4666
L 3169 4666
L 3169 4134
L 1269 4134
L 1269 2991
Q 1406 3038 1543 3061
Q 1681 3084 1819 3084
Q 2600 3084 3056 2656
Q 3513 2228 3513 1497
Q 3513 744 3044 326
Q 2575 -91 1722 -91
Q 1428 -91 1123 -41
Q 819 9 494 109
L 494 744
Q 775 591 1075 516
Q 1375 441 1709 441
Q 2250 441 2565 725
Q 2881 1009 2881 1497
Q 2881 1984 2565 2268
Q 2250 2553 1709 2553
Q 1456 2553 1204 2497
Q 953 2441 691 2322
L 691 4666
z
" transform="scale(0.015625)"/>
       </defs>
       <use xlink:href="#DejaVuSans-30"/>
       <use xlink:href="#DejaVuSans-2e" transform="translate(63.623047 0)"/>
       <use xlink:href="#DejaVuSans-30" transform="translate(95.410156 0)"/>
       <use xlink:href="#DejaVuSans-30" transform="translate(159.033203 0)"/>
       <use xlink:href="#DejaVuSans-32" transform="translate(222.65625 0)"/>
       <use xlink:href="#DejaVuSans-35" transform="translate(286.279297 0)"/>
      </g>
     </g>
    </g>
    <g id="xtick_3">
     <g id="line2d_5">
      <path d="M 175.07358 383.04
L 175.07358 50.4
" clip-path="url(#p916b19e654)" style="fill: none; stroke: #b0b0b0; stroke-width: 0.8; stroke-linecap: square"/>
     </g>
     <g id="line2d_6">
      <g>
       <use xlink:href="#m063579b893" x="175.07358" y="383.04" style="stroke: #000000; stroke-width: 0.8"/>
      </g>
     </g>
     <g id="text_3">
      <!-- 0.0050 -->
      <g transform="translate(157.578267 397.638437) scale(0.1 -0.1)">
       <use xlink:href="#DejaVuSans-30"/>
       <use xlink:href="#DejaVuSans-2e" transform="translate(63.623047 0)"/>
       <use xlink:href="#DejaVuSans-30" transform="translate(95.410156 0)"/>
       <use xlink:href="#DejaVuSans-30" transform="translate(159.033203 0)"/>
       <use xlink:href="#DejaVuSans-35" transform="translate(222.65625 0)"/>
       <use xlink:href="#DejaVuSans-30" transform="translate(286.279297 0)"/>
      </g>
     </g>
    </g>
    <g id="xtick_4">
     <g id="line2d_7">
      <path d="M 225.800852 383.04
L 225.800852 50.4
" clip-path="url(#p916b19e654)" style="fill: none; stroke: #b0b0b0; stroke-width: 0.8; stroke-linecap: square"/>
     </g>
     <g id="line2d_8">
      <g>
       <use xlink:href="#m063579b893" x="225.800852" y="383.04" style="stroke: #000000; stroke-width: 0.8"/>
      </g>
     </g>
     <g id="text_4">
      <!-- 0.0075 -->
      <g transform="translate(208.30554 397.638437) scale(0.1 -0.1)">
       <defs>
        <path id="DejaVuSans-37" d="M 525 4666
L 3525 4666
L 3525 4397
L 1831 0
L 1172 0
L 2766 4134
L 525 4134
L 525 4666
z
" transform="scale(0.015625)"/>
       </defs>
       <use xlink:href="#DejaVuSans-30"/>
       <use xlink:href="#DejaVuSans-2e" transform="translate(63.623047 0)"/>
       <use xlink:href="#DejaVuSans-30" transform="translate(95.410156 0)"/>
       <use xlink:href="#DejaVuSans-30" transform="translate(159.033203 0)"/>
       <use xlink:href="#DejaVuSans-37" transform="translate(222.65625 0)"/>
       <use xlink:href="#DejaVuSans-35" transform="translate(286.279297 0)"/>
      </g>
     </g>
    </g>
    <g id="xtick_5">
     <g id="line2d_9">
      <path d="M 276.528125 383.04
L 276.528125 50.4
" clip-path="url(#p916b19e654)" style="fill: none; stroke: #b0b0b0; stroke-width: 0.8; stroke-linecap: square"/>
     </g>
     <g id="line2d_10">
      <g>
       <use xlink:href="#m063579b893" x="276.528125" y="383.04" style="stroke: #000000; stroke-width: 0.8"/>
      </g>
     </g>
     <g id="text_5">
      <!-- 0.0100 -->
      <g transform="translate(259.032812 397.638437) scale(0.1 -0.1)">
       <defs>
        <path id="DejaVuSans-31" d="M 794 531
L 1825 531
L 1825 4091
L 703 3866
L 703 4441
L 1819 4666
L 2450 4666
L 2450 531
L 3481 531
L 3481 0
L 794 0
L 794 531
z
" transform="scale(0.015625)"/>
       </defs>
       <use xlink:href="#DejaVuSans-30"/>
       <use xlink:href="#DejaVuSans-2e" transform="translate(63.623047 0)"/>
       <use xlink:href="#DejaVuSans-30" transform="translate(95.410156 0)"/>
       <use xlink:href="#DejaVuSans-31" transform="translate(159.033203 0)"/>
       <use xlink:href="#DejaVuSans-30" transform="translate(222.65625 0)"/>
       <use xlink:href="#DejaVuSans-30" transform="translate(286.279297 0)"/>
      </g>
     </g>
    </g>
    <g id="xtick_6">
     <g id="line2d_11">
      <path d="M 327.255398 383.04
L 327.255398 50.4
" clip-path="url(#p916b19e654)" style="fill: none; stroke: #b0b0b0; stroke-width: 0.8; stroke-linecap: square"/>
     </g>
     <g id="line2d_12">
      <g>
       <use xlink:href="#m063579b893" x="327.255398" y="383.04" style="stroke: #000000; stroke-width: 0.8"/>
      </g>
     </g>
     <g id="text_6">
      <!-- 0.0125 -->
      <g transform="translate(309.760085 397.638437) scale(0.1 -0.1)">
       <use xlink:href="#DejaVuSans-30"/>
       <use xlink:href="#DejaVuSans-2e" transform="translate(63.623047 0)"/>
       <use xlink:href="#DejaVuSans-30" transform="translate(95.410156 0)"/>
       <use xlink:href="#DejaVuSans-31" transform="translate(159.033203 0)"/>
       <use xlink:href="#DejaVuSans-32" transform="translate(222.65625 0)"/>
       <use xlink:href="#DejaVuSans-35" transform="translate(286.279297 0)"/>
      </g>
     </g>
    </g>
    <g id="xtick_7">
     <g id="line2d_13">
      <path d="M 377.98267 383.04
L 377.98267 50.4
" clip-path="url(#p916b19e654)" style="fill: none; stroke: #b0b0b0; stroke-width: 0.8; stroke-linecap: square"/>
     </g>
     <g id="line2d_14">
      <g>
       <use xlink:href="#m063579b893" x="377.98267" y="383.04" style="stroke: #000000; stroke-width: 0.8"/>
      </g>
     </g>
     <g id="text_7">
      <!-- 0.0150 -->
      <g transform="translate(360.487358 397.638437) scale(0.1 -0.1)">
       <use xlink:href="#DejaVuSans-30"/>
       <use xlink:href="#DejaVuSans-2e" transform="translate(63.623047 0)"/>
       <use xlink:href="#DejaVuSans-30" transform="translate(95.410156 0)"/>
       <use xlink:href="#DejaVuSans-31" transform="translate(159.033203 0)"/>
       <use xlink:href="#DejaVuSans-35" transform="translate(222.65625 0)"/>
       <use xlink:href="#DejaVuSans-30" transform="translate(286.279297 0)"/>
      </g>
     </g>
    </g>
    <g id="xtick_8">
     <g id="line2d_15">
      <path d="M 428.709943 383.04
L 428.709943 50.4
" clip-path="url(#p916b19e654)" style="fill: none; stroke: #b0b0b0; stroke-width: 0.8; stroke-linecap: square"/>
     </g>
     <g id="line2d_16">
      <g>
       <use xlink:href="#m063579b893" x="428.709943" y="383.04" style="stroke: #000000; stroke-width: 0.8"/>
      </g>
     </g>
     <g id="text_8">
      <!-- 0.0175 -->
      <g transform="translate(411.214631 397.638437) scale(0.1 -0.1)">
       <use xlink:href="#DejaVuSans-30"/>
       <use xlink:href="#DejaVuSans-2e" transform="translate(63.623047 0)"/>
       <use xlink:href="#DejaVuSans-30" transform="translate(95.410156 0)"/>
       <use xlink:href="#DejaVuSans-31" transform="translate(159.033203 0)"/>
       <use xlink:href="#DejaVuSans-37" transform="translate(222.65625 0)"/>
       <use xlink:href="#DejaVuSans-35" transform="translate(286.279297 0)"/>
      </g>
     </g>
    </g>
    <g id="xtick_9">
     <g id="line2d_17">
      <path d="M 479.437216 383.04
L 479.437216 50.4
" clip-path="url(#p916b19e654)" style="fill: none; stroke: #b0b0b0; stroke-width: 0.8; stroke-linecap: square"/>
     </g>
     <g id="line2d_18">
      <g>
       <use xlink:href="#m063579b893" x="479.437216" y="383.04" style="stroke: #000000; stroke-width: 0.8"/>
      </g>
     </g>
     <g id="text_9">
      <!-- 0.0200 -->
      <g transform="translate(461.941903 397.638437) scale(0.1 -0.1)">
       <use xlink:href="#DejaVuSans-30"/>
       <use xlink:href="#DejaVuSans-2e" transform="translate(63.623047 0)"/>
       <use xlink:href="#DejaVuSans-30" transform="translate(95.410156 0)"/>
       <use xlink:href="#DejaVuSans-32" transform="translate(159.033203 0)"/>
       <use xlink:href="#DejaVuSans-30" transform="translate(222.65625 0)"/>
       <use xlink:href="#DejaVuSans-30" transform="translate(286.279297 0)"/>
      </g>
     </g>
    </g>
    <g id="text_10">
     <!-- time (s) -->
     <g transform="translate(257.136719 411.316562) scale(0.1 -0.1)">
      <defs>
       <path id="DejaVuSans-74" d="M 1172 4494
L 1172 3500
L 2356 3500
L 2356 3053
L 1172 3053
L 1172 1153
Q 1172 725 1289 603
Q 1406 481 1766 481
L 2356 481
L 2356 0
L 1766 0
Q 1100 0 847 248
Q 594 497 594 1153
L 594 3053
L 172 3053
L 172 3500
L 594 3500
L 594 4494
L 1172 4494
z
" transform="scale(0.015625)"/>
       <path id="DejaVuSans-69" d="M 603 3500
L 1178 3500
L 1178 0
L 603 0
L 603 3500
z
M 603 4863
L 1178 4863
L 1178 4134
L 603 4134
L 603 4863
z
" transform="scale(0.015625)"/>
       <path id="DejaVuSans-6d" d="M 3328 2828
Q 3544 3216 3844 3400
Q 4144 3584 4550 3584
Q 5097 3584 5394 3201
Q 5691 2819 5691 2113
L 5691 0
L 5113 0
L 5113 2094
Q 5113 2597 4934 2840
Q 4756 3084 4391 3084
Q 3944 3084 3684 2787
Q 3425 2491 3425 1978
L 3425 0
L 2847 0
L 2847 2094
Q 2847 2600 2669 2842
Q 2491 3084 2119 3084
Q 1678 3084 1418 2786
Q 1159 2488 1159 1978
L 1159 0
L 581 0
L 581 3500
L 1159 3500
L 1159 2956
Q 1356 3278 1631 3431
Q 1906 3584 2284 3584
Q 2666 3584 2933 3390
Q 3200 3197 3328 2828
z
" transform="scale(0.015625)"/>
       <path id="DejaVuSans-65" d="M 3597 1894
L 3597 1613
L 953 1613
Q 991 1019 1311 708
Q 1631 397 2203 397
Q 2534 397 2845 478
Q 3156 559 3463 722
L 3463 178
Q 3153 47 2828 -22
Q 2503 -91 2169 -91
Q 1331 -91 842 396
Q 353 884 353 1716
Q 353 2575 817 3079
Q 1281 3584 2069 3584
Q 2775 3584 3186 3129
Q 3597 2675 3597 1894
z
M 3022 2063
Q 3016 2534 2758 2815
Q 2500 3097 2075 3097
Q 1594 3097 1305 2825
Q 1016 2553 972 2059
L 3022 2063
z
" transform="scale(0.015625)"/>
       <path id="DejaVuSans-20" transform="scale(0.015625)"/>
       <path id="DejaVuSans-28" d="M 1984 4856
Q 1566 4138 1362 3434
Q 1159 2731 1159 2009
Q 1159 1288 1364 580
Q 1569 -128 1984 -844
L 1484 -844
Q 1016 -109 783 600
Q 550 1309 550 2009
Q 550 2706 781 3412
Q 1013 4119 1484 4856
L 1984 4856
z
" transform="scale(0.015625)"/>
       <path id="DejaVuSans-73" d="M 2834 3397
L 2834 2853
Q 2591 2978 2328 3040
Q 2066 3103 1784 3103
Q 1356 3103 1142 2972
Q 928 2841 928 2578
Q 928 2378 1081 2264
Q 1234 2150 1697 2047
L 1894 2003
Q 2506 1872 2764 1633
Q 3022 1394 3022 966
Q 3022 478 2636 193
Q 2250 -91 1575 -91
Q 1294 -91 989 -36
Q 684 19 347 128
L 347 722
Q 666 556 975 473
Q 1284 391 1588 391
Q 1994 391 2212 530
Q 2431 669 2431 922
Q 2431 1156 2273 1281
Q 2116 1406 1581 1522
L 1381 1569
Q 847 1681 609 1914
Q 372 2147 372 2553
Q 372 3047 722 3315
Q 1072 3584 1716 3584
Q 2034 3584 2315 3537
Q 2597 3491 2834 3397
z
" transform="scale(0.015625)"/>
       <path id="DejaVuSans-29" d="M 513 4856
L 1013 4856
Q 1481 4119 1714 3412
Q 1947 2706 1947 2009
Q 1947 1309 1714 600
Q 1481 -109 1013 -844
L 513 -844
Q 928 -128 1133 580
Q 1338 1288 1338 2009
Q 1338 2731 1133 3434
Q 928 4138 513 4856
z
" transform="scale(0.015625)"/>
      </defs>
      <use xlink:href="#DejaVuSans-74"/>
      <use xlink:href="#DejaVuSans-69" transform="translate(39.208984 0)"/>
      <use xlink:href="#DejaVuSans-6d" transform="translate(66.992188 0)"/>
      <use xlink:href="#DejaVuSans-65" transform="translate(164.404297 0)"/>
      <use xlink:href="#DejaVuSans-20" transform="translate(225.927734 0)"/>
      <use xlink:href="#DejaVuSans-28" transform="translate(257.714844 0)"/>
      <use xlink:href="#DejaVuSans-73" transform="translate(296.728516 0)"/>
      <use xlink:href="#DejaVuSans-29" transform="translate(348.828125 0)"/>
     </g>
    </g>
   </g>
   <g id="matplotlib.axis_2">
    <g id="ytick_1">
     <g id="line2d_19">
      <path d="M 53.328125 382.419403
L 499.728125 382.419403
" clip-path="url(#p916b19e654)" style="fill: none; stroke: #b0b0b0; stroke-width: 0.8; stroke-linecap: square"/>
     </g>
     <g id="line2d_20">
      <defs>
       <path id="mb616cb02a7" d="M 0 0
L -3.5 0
" style="stroke: #000000; stroke-width: 0.8"/>
      </defs>
      <g>
       <use xlink:href="#mb616cb02a7" x="53.328125" y="382.419403" style="stroke: #000000; stroke-width: 0.8"/>
      </g>
     </g>
     <g id="text_11">
      <!-- 0 -->
      <g transform="translate(39.965625 386.218622) scale(0.1 -0.1)">
       <use xlink:href="#DejaVuSans-30"/>
      </g>
     </g>
    </g>
    <g id="ytick_2">
     <g id="line2d_21">
      <path d="M 53.328125 320.359701
L 499.728125 320.359701
" clip-path="url(#p916b19e654)" style="fill: none; stroke: #b0b0b0; stroke-width: 0.8; stroke-linecap: square"/>
     </g>
     <g id="line2d_22">
      <g>
       <use xlink:href="#mb616cb02a7" x="53.328125" y="320.359701" style="stroke: #000000; stroke-width: 0.8"/>
      </g>
     </g>
     <g id="text_12">
      <!-- 500 -->
      <g transform="translate(27.240625 324.15892) scale(0.1 -0.1)">
       <use xlink:href="#DejaVuSans-35"/>
       <use xlink:href="#DejaVuSans-30" transform="translate(63.623047 0)"/>
       <use xlink:href="#DejaVuSans-30" transform="translate(127.246094 0)"/>
      </g>
     </g>
    </g>
    <g id="ytick_3">
     <g id="line2d_23">
      <path d="M 53.328125 258.3
L 499.728125 258.3
" clip-path="url(#p916b19e654)" style="fill: none; stroke: #b0b0b0; stroke-width: 0.8; stroke-linecap: square"/>
     </g>
     <g id="line2d_24">
      <g>
       <use xlink:href="#mb616cb02a7" x="53.328125" y="258.3" style="stroke: #000000; stroke-width: 0.8"/>
      </g>
     </g>
     <g id="text_13">
      <!-- 1000 -->
      <g transform="translate(20.878125 262.099219) scale(0.1 -0.1)">
       <use xlink:href="#DejaVuSans-31"/>
       <use xlink:href="#DejaVuSans-30" transform="translate(63.623047 0)"/>
       <use xlink:href="#DejaVuSans-30" transform="translate(127.246094 0)"/>
       <use xlink:href="#DejaVuSans-30" transform="translate(190.869141 0)"/>
      </g>
     </g>
    </g>
    <g id="ytick_4">
     <g id="line2d_25">
      <path d="M 53.328125 196.240299
L 499.728125 196.240299
" clip-path="url(#p916b19e654)" style="fill: none; stroke: #b0b0b0; stroke-width: 0.8; stroke-linecap: square"/>
     </g>
     <g id="line2d_26">
      <g>
       <use xlink:href="#mb616cb02a7" x="53.328125" y="196.240299" style="stroke: #000000; stroke-width: 0.8"/>
      </g>
     </g>
     <g id="text_14">
      <!-- 1500 -->
      <g transform="translate(20.878125 200.039517) scale(0.1 -0.1)">
       <use xlink:href="#DejaVuSans-31"/>
       <use xlink:href="#DejaVuSans-35" transform="translate(63.623047 0)"/>
       <use xlink:href="#DejaVuSans-30" transform="translate(127.246094 0)"/>
       <use xlink:href="#DejaVuSans-30" transform="translate(190.869141 0)"/>
      </g>
     </g>
    </g>
    <g id="ytick_5">
     <g id="line2d_27">
      <path d="M 53.328125 134.180597
L 499.728125 134.180597
" clip-path="url(#p916b19e654)" style="fill: none; stroke: #b0b0b0; stroke-width: 0.8; stroke-linecap: square"/>
     </g>
     <g id="line2d_28">
      <g>
       <use xlink:href="#mb616cb02a7" x="53.328125" y="134.180597" style="stroke: #000000; stroke-width: 0.8"/>
      </g>
     </g>
     <g id="text_15">
      <!-- 2000 -->
      <g transform="translate(20.878125 137.979816) scale(0.1 -0.1)">
       <use xlink:href="#DejaVuSans-32"/>
       <use xlink:href="#DejaVuSans-30" transform="translate(63.623047 0)"/>
       <use xlink:href="#DejaVuSans-30" transform="translate(127.246094 0)"/>
       <use xlink:href="#DejaVuSans-30" transform="translate(190.869141 0)"/>
      </g>
     </g>
    </g>
    <g id="ytick_6">
     <g id="line2d_29">
      <path d="M 53.328125 72.120896
L 499.728125 72.120896
" clip-path="url(#p916b19e654)" style="fill: none; stroke: #b0b0b0; stroke-width: 0.8; stroke-linecap: square"/>
     </g>
     <g id="line2d_30">
      <g>
       <use xlink:href="#mb616cb02a7" x="53.328125" y="72.120896" style="stroke: #000000; stroke-width: 0.8"/>
      </g>
     </g>
     <g id="text_16">
      <!-- 2500 -->
      <g transform="translate(20.878125 75.920114) scale(0.1 -0.1)">
       <use xlink:href="#DejaVuSans-32"/>
       <use xlink:href="#DejaVuSans-35" transform="translate(63.623047 0)"/>
       <use xlink:href="#DejaVuSans-30" transform="translate(127.246094 0)"/>
       <use xlink:href="#DejaVuSans-30" transform="translate(190.869141 0)"/>
      </g>
     </g>
    </g>
    <g id="text_17">
     <!-- maximum principal rate of deformation (1/s) -->
     <g transform="translate(14.798438 328.308281) rotate(-90) scale(0.1 -0.1)">
      <defs>
       <path id="DejaVuSans-61" d="M 2194 1759
Q 1497 1759 1228 1600
Q 959 1441 959 1056
Q 959 750 1161 570
Q 1363 391 1709 391
Q 2188 391 2477 730
Q 2766 1069 2766 1631
L 2766 1759
L 2194 1759
z
M 3341 1997
L 3341 0
L 2766 0
L 2766 531
Q 2569 213 2275 61
Q 1981 -91 1556 -91
Q 1019 -91 701 211
Q 384 513 384 1019
Q 384 1609 779 1909
Q 1175 2209 1959 2209
L 2766 2209
L 2766 2266
Q 2766 2663 2505 2880
Q 2244 3097 1772 3097
Q 1472 3097 1187 3025
Q 903 2953 641 2809
L 641 3341
Q 956 3463 1253 3523
Q 1550 3584 1831 3584
Q 2591 3584 2966 3190
Q 3341 2797 3341 1997
z
" transform="scale(0.015625)"/>
       <path id="DejaVuSans-78" d="M 3513 3500
L 2247 1797
L 3578 0
L 2900 0
L 1881 1375
L 863 0
L 184 0
L 1544 1831
L 300 3500
L 978 3500
L 1906 2253
L 2834 3500
L 3513 3500
z
" transform="scale(0.015625)"/>
       <path id="DejaVuSans-75" d="M 544 1381
L 544 3500
L 1119 3500
L 1119 1403
Q 1119 906 1312 657
Q 1506 409 1894 409
Q 2359 409 2629 706
Q 2900 1003 2900 1516
L 2900 3500
L 3475 3500
L 3475 0
L 2900 0
L 2900 538
Q 2691 219 2414 64
Q 2138 -91 1772 -91
Q 1169 -91 856 284
Q 544 659 544 1381
z
M 1991 3584
L 1991 3584
z
" transform="scale(0.015625)"/>
       <path id="DejaVuSans-70" d="M 1159 525
L 1159 -1331
L 581 -1331
L 581 3500
L 1159 3500
L 1159 2969
Q 1341 3281 1617 3432
Q 1894 3584 2278 3584
Q 2916 3584 3314 3078
Q 3713 2572 3713 1747
Q 3713 922 3314 415
Q 2916 -91 2278 -91
Q 1894 -91 1617 61
Q 1341 213 1159 525
z
M 3116 1747
Q 3116 2381 2855 2742
Q 2594 3103 2138 3103
Q 1681 3103 1420 2742
Q 1159 2381 1159 1747
Q 1159 1113 1420 752
Q 1681 391 2138 391
Q 2594 391 2855 752
Q 3116 1113 3116 1747
z
" transform="scale(0.015625)"/>
       <path id="DejaVuSans-72" d="M 2631 2963
Q 2534 3019 2420 3045
Q 2306 3072 2169 3072
Q 1681 3072 1420 2755
Q 1159 2438 1159 1844
L 1159 0
L 581 0
L 581 3500
L 1159 3500
L 1159 2956
Q 1341 3275 1631 3429
Q 1922 3584 2338 3584
Q 2397 3584 2469 3576
Q 2541 3569 2628 3553
L 2631 2963
z
" transform="scale(0.015625)"/>
       <path id="DejaVuSans-6e" d="M 3513 2113
L 3513 0
L 2938 0
L 2938 2094
Q 2938 2591 2744 2837
Q 2550 3084 2163 3084
Q 1697 3084 1428 2787
Q 1159 2491 1159 1978
L 1159 0
L 581 0
L 581 3500
L 1159 3500
L 1159 2956
Q 1366 3272 1645 3428
Q 1925 3584 2291 3584
Q 2894 3584 3203 3211
Q 3513 2838 3513 2113
z
" transform="scale(0.015625)"/>
       <path id="DejaVuSans-63" d="M 3122 3366
L 3122 2828
Q 2878 2963 2633 3030
Q 2388 3097 2138 3097
Q 1578 3097 1268 2742
Q 959 2388 959 1747
Q 959 1106 1268 751
Q 1578 397 2138 397
Q 2388 397 2633 464
Q 2878 531 3122 666
L 3122 134
Q 2881 22 2623 -34
Q 2366 -91 2075 -91
Q 1284 -91 818 406
Q 353 903 353 1747
Q 353 2603 823 3093
Q 1294 3584 2113 3584
Q 2378 3584 2631 3529
Q 2884 3475 3122 3366
z
" transform="scale(0.015625)"/>
       <path id="DejaVuSans-6c" d="M 603 4863
L 1178 4863
L 1178 0
L 603 0
L 603 4863
z
" transform="scale(0.015625)"/>
       <path id="DejaVuSans-6f" d="M 1959 3097
Q 1497 3097 1228 2736
Q 959 2375 959 1747
Q 959 1119 1226 758
Q 1494 397 1959 397
Q 2419 397 2687 759
Q 2956 1122 2956 1747
Q 2956 2369 2687 2733
Q 2419 3097 1959 3097
z
M 1959 3584
Q 2709 3584 3137 3096
Q 3566 2609 3566 1747
Q 3566 888 3137 398
Q 2709 -91 1959 -91
Q 1206 -91 779 398
Q 353 888 353 1747
Q 353 2609 779 3096
Q 1206 3584 1959 3584
z
" transform="scale(0.015625)"/>
       <path id="DejaVuSans-66" d="M 2375 4863
L 2375 4384
L 1825 4384
Q 1516 4384 1395 4259
Q 1275 4134 1275 3809
L 1275 3500
L 2222 3500
L 2222 3053
L 1275 3053
L 1275 0
L 697 0
L 697 3053
L 147 3053
L 147 3500
L 697 3500
L 697 3744
Q 697 4328 969 4595
Q 1241 4863 1831 4863
L 2375 4863
z
" transform="scale(0.015625)"/>
       <path id="DejaVuSans-64" d="M 2906 2969
L 2906 4863
L 3481 4863
L 3481 0
L 2906 0
L 2906 525
Q 2725 213 2448 61
Q 2172 -91 1784 -91
Q 1150 -91 751 415
Q 353 922 353 1747
Q 353 2572 751 3078
Q 1150 3584 1784 3584
Q 2172 3584 2448 3432
Q 2725 3281 2906 2969
z
M 947 1747
Q 947 1113 1208 752
Q 1469 391 1925 391
Q 2381 391 2643 752
Q 2906 1113 2906 1747
Q 2906 2381 2643 2742
Q 2381 3103 1925 3103
Q 1469 3103 1208 2742
Q 947 2381 947 1747
z
" transform="scale(0.015625)"/>
       <path id="DejaVuSans-2f" d="M 1625 4666
L 2156 4666
L 531 -594
L 0 -594
L 1625 4666
z
" transform="scale(0.015625)"/>
      </defs>
      <use xlink:href="#DejaVuSans-6d"/>
      <use xlink:href="#DejaVuSans-61" transform="translate(97.412109 0)"/>
      <use xlink:href="#DejaVuSans-78" transform="translate(158.691406 0)"/>
      <use xlink:href="#DejaVuSans-69" transform="translate(217.871094 0)"/>
      <use xlink:href="#DejaVuSans-6d" transform="translate(245.654297 0)"/>
      <use xlink:href="#DejaVuSans-75" transform="translate(343.066406 0)"/>
      <use xlink:href="#DejaVuSans-6d" transform="translate(406.445312 0)"/>
      <use xlink:href="#DejaVuSans-20" transform="translate(503.857422 0)"/>
      <use xlink:href="#DejaVuSans-70" transform="translate(535.644531 0)"/>
      <use xlink:href="#DejaVuSans-72" transform="translate(599.121094 0)"/>
      <use xlink:href="#DejaVuSans-69" transform="translate(640.234375 0)"/>
      <use xlink:href="#DejaVuSans-6e" transform="translate(668.017578 0)"/>
      <use xlink:href="#DejaVuSans-63" transform="translate(731.396484 0)"/>
      <use xlink:href="#DejaVuSans-69" transform="translate(786.376953 0)"/>
      <use xlink:href="#DejaVuSans-70" transform="translate(814.160156 0)"/>
      <use xlink:href="#DejaVuSans-61" transform="translate(877.636719 0)"/>
      <use xlink:href="#DejaVuSans-6c" transform="translate(938.916016 0)"/>
      <use xlink:href="#DejaVuSans-20" transform="translate(966.699219 0)"/>
      <use xlink:href="#DejaVuSans-72" transform="translate(998.486328 0)"/>
      <use xlink:href="#DejaVuSans-61" transform="translate(1039.599609 0)"/>
      <use xlink:href="#DejaVuSans-74" transform="translate(1100.878906 0)"/>
      <use xlink:href="#DejaVuSans-65" transform="translate(1140.087891 0)"/>
      <use xlink:href="#DejaVuSans-20" transform="translate(1201.611328 0)"/>
      <use xlink:href="#DejaVuSans-6f" transform="translate(1233.398438 0)"/>
      <use xlink:href="#DejaVuSans-66" transform="translate(1294.580078 0)"/>
      <use xlink:href="#DejaVuSans-20" transform="translate(1329.785156 0)"/>
      <use xlink:href="#DejaVuSans-64" transform="translate(1361.572266 0)"/>
      <use xlink:href="#DejaVuSans-65" transform="translate(1425.048828 0)"/>
      <use xlink:href="#DejaVuSans-66" transform="translate(1486.572266 0)"/>
      <use xlink:href="#DejaVuSans-6f" transform="translate(1521.777344 0)"/>
      <use xlink:href="#DejaVuSans-72" transform="translate(1582.958984 0)"/>
      <use xlink:href="#DejaVuSans-6d" transform="translate(1622.322266 0)"/>
      <use xlink:href="#DejaVuSans-61" transform="translate(1719.734375 0)"/>
      <use xlink:href="#DejaVuSans-74" transform="translate(1781.013672 0)"/>
      <use xlink:href="#DejaVuSans-69" transform="translate(1820.222656 0)"/>
      <use xlink:href="#DejaVuSans-6f" transform="translate(1848.005859 0)"/>
      <use xlink:href="#DejaVuSans-6e" transform="translate(1909.1875 0)"/>
      <use xlink:href="#DejaVuSans-20" transform="translate(1972.566406 0)"/>
      <use xlink:href="#DejaVuSans-28" transform="translate(2004.353516 0)"/>
      <use xlink:href="#DejaVuSans-31" transform="translate(2043.367188 0)"/>
      <use xlink:href="#DejaVuSans-2f" transform="translate(2106.990234 0)"/>
      <use xlink:href="#DejaVuSans-73" transform="translate(2140.681641 0)"/>
      <use xlink:href="#DejaVuSans-29" transform="translate(2192.78125 0)"/>
     </g>
    </g>
   </g>
   <g id="line2d_31">
    <path d="M 73.619034 382.419403
L 353.63358 382.310689
L 465.23358 382.075572
L 469.291761 382.131618
L 471.320852 381.95467
L 475.379034 382.185275
L 479.437216 382.051067
L 479.437216 382.051067
" clip-path="url(#p916b19e654)" style="fill: none; stroke-dasharray: 5.55,2.4; stroke-dashoffset: 0; stroke: #1f77b4; stroke-width: 1.5"/>
   </g>
   <g id="line2d_32">
    <path d="M 73.619034 382.419403
L 353.63358 382.308601
L 479.437216 382.110265
L 479.437216 382.110265
" clip-path="url(#p916b19e654)" style="fill: none; stroke-dasharray: 1.5,2.475; stroke-dashoffset: 0; stroke: #ff7f0e; stroke-width: 1.5"/>
   </g>
   <g id="line2d_33">
    <path d="M 73.619034 382.419403
L 351.604489 382.313655
L 438.855398 382.092172
L 440.884489 382.147577
L 442.91358 382.045766
L 446.971761 382.124138
L 453.059034 382.055229
L 459.146307 382.061239
L 469.291761 382.040541
L 471.320852 382.12588
L 473.349943 382.043306
L 475.379034 382.143803
L 479.437216 382.0298
L 479.437216 382.0298
" clip-path="url(#p916b19e654)" style="fill: none; stroke: #2ca02c; stroke-width: 1.5; stroke-linecap: square"/>
   </g>
   <g id="line2d_34">
    <path d="M 73.619034 382.419403
L 351.604489 382.3146
L 444.94267 382.057981
L 449.000852 382.069375
L 457.117216 382.108442
L 461.175398 382.075629
L 463.204489 382.028181
L 465.23358 382.115796
L 467.26267 382.056271
L 469.291761 382.187233
L 471.320852 382.060867
L 479.437216 382.003674
L 479.437216 382.003674
" clip-path="url(#p916b19e654)" style="fill: none; stroke: #d62728; stroke-width: 1.5; stroke-linecap: square"/>
   </g>
   <g id="line2d_35">
    <path d="M 73.619034 382.419403
L 351.604489 382.30862
L 455.088125 382.084184
L 461.175398 382.124218
L 467.26267 382.013633
L 473.349943 382.094575
L 475.379034 382.018913
L 477.408125 382.178862
L 479.437216 381.968006
L 479.437216 381.968006
" clip-path="url(#p916b19e654)" style="fill: none; stroke: #9467bd; stroke-width: 1.5; stroke-linecap: square"/>
   </g>
   <g id="line2d_36">
    <path d="M 73.619034 382.419403
L 349.575398 382.312571
L 408.419034 382.139684
L 418.564489 382.1214
L 426.680852 382.112907
L 432.768125 382.135613
L 449.000852 382.094475
L 457.117216 382.096542
L 461.175398 382.044719
L 471.320852 382.160093
L 473.349943 382.046378
L 479.437216 382.014818
L 479.437216 382.014818
" clip-path="url(#p916b19e654)" style="fill: none; stroke: #8c564b; stroke-width: 1.5; stroke-linecap: square"/>
   </g>
   <g id="line2d_37">
    <path d="M 73.619034 382.419403
L 349.575398 382.309735
L 382.040852 382.226113
L 390.157216 382.190841
L 398.27358 382.126479
L 404.360852 382.213896
L 418.564489 382.118651
L 422.62267 382.186102
L 434.797216 382.069154
L 449.000852 382.113847
L 455.088125 381.999377
L 463.204489 382.074892
L 467.26267 381.607435
L 469.291761 381.686056
L 471.320852 381.190498
L 473.349943 380.852309
L 475.379034 380.628298
L 477.408125 379.918583
L 479.437216 379.483532
L 479.437216 379.483532
" clip-path="url(#p916b19e654)" style="fill: none; stroke: #e377c2; stroke-width: 1.5; stroke-linecap: square"/>
   </g>
   <g id="line2d_38">
    <path d="M 73.619034 382.419403
L 341.459034 382.312485
L 430.739034 381.916588
L 432.768125 381.866781
L 436.826307 381.430221
L 438.855398 381.10447
L 444.94267 379.670183
L 446.971761 379.074596
L 457.117216 376.867629
L 461.175398 376.282207
L 463.204489 376.134629
L 465.23358 376.135846
L 469.291761 376.419136
L 471.320852 376.370754
L 475.379034 377.23712
L 479.437216 377.55818
L 479.437216 377.55818
" clip-path="url(#p916b19e654)" style="fill: none; stroke: #7f7f7f; stroke-width: 1.5; stroke-linecap: square"/>
   </g>
   <g id="line2d_39">
    <path d="M 73.619034 382.419403
L 341.459034 382.31077
L 400.30267 381.950943
L 404.360852 381.672959
L 408.419034 381.090841
L 412.477216 380.131113
L 414.506307 379.55047
L 418.564489 378.113266
L 422.62267 376.514522
L 426.680852 375.143735
L 430.739034 374.503105
L 432.768125 374.295118
L 438.855398 374.385911
L 440.884489 374.535698
L 446.971761 375.865563
L 451.029943 376.995249
L 453.059034 377.502736
L 457.117216 378.192306
L 459.146307 378.26566
L 461.175398 377.951216
L 463.204489 377.359887
L 465.23358 376.897331
L 467.26267 376.799127
L 469.291761 376.580131
L 471.320852 376.531365
L 475.379034 377.339705
L 479.437216 378.920849
L 479.437216 378.920849
" clip-path="url(#p916b19e654)" style="fill: none; stroke: #bcbd22; stroke-width: 1.5; stroke-linecap: square"/>
   </g>
   <g id="line2d_40">
    <path d="M 73.619034 382.419403
L 337.400852 382.310084
L 359.720852 382.178511
L 365.808125 381.994048
L 373.924489 381.554095
L 377.98267 381.136927
L 380.011761 380.741458
L 382.040852 380.152437
L 384.069943 379.314904
L 386.099034 378.168611
L 388.128125 376.69092
L 390.157216 374.914809
L 394.215398 371.048142
L 396.244489 369.406228
L 398.27358 368.341284
L 400.30267 368.01547
L 402.331761 368.408432
L 404.360852 369.438499
L 408.419034 371.968934
L 410.448125 372.827232
L 412.477216 373.144469
L 414.506307 373.035033
L 416.535398 372.726484
L 418.564489 372.8687
L 420.59358 373.913376
L 422.62267 375.871707
L 426.680852 381.163004
L 428.709943 380.317627
L 430.739034 379.662252
L 432.768125 380.464162
L 434.797216 379.360294
L 436.826307 375.364493
L 438.855398 371.010025
L 440.884489 367.7223
L 442.91358 366.608453
L 444.94267 368.23963
L 446.971761 372.246502
L 449.000852 377.532946
L 451.029943 380.229291
L 453.059034 376.744205
L 455.088125 375.718916
L 457.117216 376.700552
L 459.146307 379.169262
L 461.175398 381.128983
L 463.204489 378.582599
L 465.23358 375.812726
L 467.26267 373.905346
L 469.291761 372.767605
L 471.320852 372.718156
L 473.349943 373.53897
L 475.379034 375.084505
L 477.408125 377.561891
L 479.437216 380.421453
L 479.437216 380.421453
" clip-path="url(#p916b19e654)" style="fill: none; stroke: #17becf; stroke-width: 1.5; stroke-linecap: square"/>
   </g>
   <g id="line2d_41">
    <path d="M 73.619034 382.419403
L 246.091761 382.322191
L 284.644489 381.909026
L 292.760852 381.481276
L 296.819034 381.094987
L 300.877216 380.477145
L 304.935398 379.629931
L 308.99358 378.567047
L 311.02267 377.897981
L 313.051761 377.08521
L 315.080852 376.104059
L 317.109943 374.945888
L 319.139034 373.606404
L 321.168125 372.053857
L 323.197216 370.215375
L 325.226307 367.996852
L 327.257427 365.296759
L 329.284489 362.024847
L 331.31358 358.099695
L 333.34267 353.47029
L 335.371761 348.065262
L 337.400852 341.59678
L 339.429943 333.424758
L 341.459034 322.516276
L 343.490154 307.595014
L 345.519245 287.891679
L 347.546307 263.711358
L 349.575398 235.691651
L 351.604489 203.79917
L 353.63358 167.504174
L 355.66267 128.097505
L 357.69379 91.69949
L 359.720852 67.475106
L 361.749943 63.756489
L 363.779034 84.891541
L 365.808125 127.892708
L 371.895398 295.809256
L 373.924489 344.371841
L 375.95358 380.480658
L 377.98267 366.64271
L 380.011761 374.254531
L 382.040852 364.519772
L 384.069943 342.289738
L 386.099034 343.124317
L 388.128125 372.528502
L 390.157216 349.681297
L 392.186307 315.223765
L 394.215398 295.028048
L 396.244489 288.606235
L 398.27358 293.599682
L 400.30267 315.649618
L 402.331761 368.111539
L 404.360852 312.067532
L 406.389943 225.068271
L 408.419034 197.799238
L 410.448125 252.553272
L 412.477216 352.267573
L 414.506307 331.000334
L 416.535398 293.896576
L 418.564489 280.572855
L 420.59358 278.48467
L 422.62267 285.874615
L 424.651761 297.352929
L 426.680852 319.281849
L 428.709943 355.174698
L 430.739034 358.539947
L 432.768125 305.157185
L 434.797216 293.414869
L 436.826307 313.298549
L 438.855398 347.967704
L 440.884489 370.561507
L 442.91358 333.079706
L 444.94267 317.050678
L 446.971761 380.02257
L 449.000852 298.1499
L 451.029943 242.438781
L 453.059034 230.168337
L 455.088125 276.799376
L 457.117216 373.260607
L 459.146307 322.86741
L 461.175398 307.607674
L 463.204489 340.235066
L 465.23358 363.915558
L 467.26267 375.298313
L 469.291761 380.481204
L 471.320852 354.164986
L 473.349943 357.767552
L 475.379034 354.979582
L 477.408125 272.874721
L 479.437216 244.108187
L 479.437216 244.108187
" clip-path="url(#p916b19e654)" style="fill: none; stroke: #1f77b4; stroke-width: 1.5; stroke-linecap: square"/>
   </g>
   <g id="line2d_42">
    <path d="M 73.619034 382.419403
L 81.737305 382.38248
L 83.766234 382.266308
L 85.795162 382.00356
L 87.824111 381.540214
L 89.85304 380.838767
L 91.881968 379.878195
L 93.910958 378.651163
L 95.939846 377.160911
L 97.968734 375.41846
L 99.997622 373.440419
L 102.026713 371.247279
L 106.084489 366.309822
L 110.144902 360.802644
L 116.231769 351.932947
L 126.376412 337.010816
L 130.434188 331.382497
L 134.492167 326.06485
L 138.549943 321.093123
L 142.610357 316.491769
L 146.668133 312.313785
L 150.726112 308.653628
L 152.755 307.069741
L 154.783888 305.689905
L 156.811761 304.552847
L 158.841055 303.703126
L 160.870552 303.193864
L 162.900252 303.083522
L 164.928328 303.434159
L 166.959042 304.311807
L 168.987321 305.777782
L 171.016006 307.891659
L 173.045097 310.700357
L 175.074594 314.233912
L 177.103482 318.495304
L 179.132776 323.459459
L 181.161055 329.055383
L 183.190958 335.176952
L 191.307524 360.851671
L 193.336615 366.170311
L 195.365706 370.399432
L 197.393985 373.234915
L 199.423076 374.450428
L 201.452573 373.939677
L 203.481258 371.771671
L 205.511364 368.218902
L 211.597825 354.893443
L 213.627727 351.927734
L 215.656209 350.770445
L 217.685503 351.774074
L 219.714594 355.014584
L 221.743482 360.284445
L 223.77237 367.132237
L 225.801055 374.917291
L 227.830755 381.971724
L 229.859643 374.592607
L 231.888328 368.552039
L 233.917216 364.476702
L 235.947524 362.789547
L 237.976412 363.627974
L 240.0053 366.780606
L 242.03358 371.711312
L 244.062873 377.630827
L 246.091761 381.193252
L 248.121258 376.10396
L 250.150755 372.627363
L 252.179643 371.188397
L 254.208125 371.873784
L 256.237419 374.468587
L 258.26651 378.513005
L 260.295601 381.437071
L 262.324692 376.410485
L 264.353985 371.920738
L 266.383076 368.567926
L 268.411964 366.765464
L 270.441258 366.656363
L 272.470552 368.102975
L 274.500252 370.7334
L 280.586307 380.868022
L 282.617427 381.330351
L 284.644489 379.673212
L 286.67358 379.410091
L 288.7047 380.493231
L 290.731761 382.176524
L 294.789943 377.978547
L 296.819034 376.652679
L 298.848125 376.212192
L 300.877216 376.503252
L 302.906307 377.372547
L 304.935398 378.9489
L 306.964489 381.255563
L 308.99358 381.277533
L 311.02267 379.887963
L 313.051761 380.264566
L 315.080852 382.036658
L 317.109943 378.009242
L 321.168125 367.151848
L 323.197216 363.339768
L 325.226307 362.13941
L 327.257427 364.201653
L 329.284489 369.439989
L 331.31358 377.032013
L 333.34267 378.614101
L 335.371761 369.426832
L 337.400852 361.059447
L 339.429943 355.21665
L 341.459034 353.362803
L 343.490154 355.971668
L 345.519245 362.624096
L 347.546307 372.469719
L 349.575398 380.456182
L 351.604489 367.426896
L 353.63358 355.149129
L 355.66267 345.469305
L 357.69379 340.407467
L 359.720852 341.744606
L 361.749943 350.248895
L 365.808125 380.91772
L 367.837216 362.802952
L 369.866307 349.353373
L 371.895398 342.636652
L 373.924489 341.467447
L 375.95358 344.196088
L 377.98267 350.344095
L 380.011761 360.704341
L 382.040852 375.291412
L 384.069943 371.92018
L 386.099034 356.22934
L 388.128125 343.237638
L 390.157216 334.701699
L 392.186307 334.10816
L 394.215398 343.044881
L 396.244489 360.353083
L 398.27358 381.305688
L 400.30267 363.752217
L 402.331761 348.97394
L 404.360852 341.721768
L 406.389943 341.859416
L 408.419034 347.953679
L 410.448125 358.0426
L 414.506307 381.169049
L 418.564489 364.408561
L 420.59358 357.907186
L 422.62267 352.762189
L 424.651761 349.251968
L 426.680852 350.212528
L 428.709943 356.819652
L 430.739034 370.868417
L 432.768125 375.54325
L 434.797216 356.815804
L 436.826307 341.965662
L 438.855398 332.262504
L 440.884489 327.977033
L 442.91358 329.026587
L 444.94267 333.102296
L 446.971761 340.330017
L 449.000852 348.006057
L 451.029943 348.363025
L 453.059034 342.71522
L 455.088125 337.573946
L 457.117216 329.863276
L 459.146307 314.622406
L 461.175398 295.650011
L 463.204489 289.298573
L 465.23358 301.758051
L 467.26267 317.988773
L 469.291761 336.987978
L 471.320852 349.452793
L 473.349943 348.526614
L 475.379034 320.634129
L 477.408125 309.533262
L 479.437216 320.573932
L 479.437216 320.573932
" clip-path="url(#p916b19e654)" style="fill: none; stroke: #ff7f0e; stroke-width: 1.5; stroke-linecap: square"/>
   </g>
   <g id="patch_3">
    <path d="M 53.328125 383.04
L 53.328125 50.4
" style="fill: none; stroke: #000000; stroke-width: 0.8; stroke-linejoin: miter; stroke-linecap: square"/>
   </g>
   <g id="patch_4">
    <path d="M 499.728125 383.04
L 499.728125 50.4
" style="fill: none; stroke: #000000; stroke-width: 0.8; stroke-linejoin: miter; stroke-linecap: square"/>
   </g>
   <g id="patch_5">
    <path d="M 53.328125 383.04
L 499.728125 383.04
" style="fill: none; stroke: #000000; stroke-width: 0.8; stroke-linejoin: miter; stroke-linecap: square"/>
   </g>
   <g id="patch_6">
    <path d="M 53.328125 50.4
L 499.728125 50.4
" style="fill: none; stroke: #000000; stroke-width: 0.8; stroke-linejoin: miter; stroke-linecap: square"/>
   </g>
   <g id="text_18">
    <!-- rate_of_deformation_sr4c.svg created 2025-01-23 09:54:41 EST-0500 by chovey on s1088757 -->
    <g style="fill: #696969" transform="translate(87.8225 44.4) scale(0.08 -0.08)">
     <defs>
      <path id="DejaVuSans-5f" d="M 3263 -1063
L 3263 -1509
L -63 -1509
L -63 -1063
L 3263 -1063
z
" transform="scale(0.015625)"/>
      <path id="DejaVuSans-34" d="M 2419 4116
L 825 1625
L 2419 1625
L 2419 4116
z
M 2253 4666
L 3047 4666
L 3047 1625
L 3713 1625
L 3713 1100
L 3047 1100
L 3047 0
L 2419 0
L 2419 1100
L 313 1100
L 313 1709
L 2253 4666
z
" transform="scale(0.015625)"/>
      <path id="DejaVuSans-76" d="M 191 3500
L 800 3500
L 1894 563
L 2988 3500
L 3597 3500
L 2284 0
L 1503 0
L 191 3500
z
" transform="scale(0.015625)"/>
      <path id="DejaVuSans-67" d="M 2906 1791
Q 2906 2416 2648 2759
Q 2391 3103 1925 3103
Q 1463 3103 1205 2759
Q 947 2416 947 1791
Q 947 1169 1205 825
Q 1463 481 1925 481
Q 2391 481 2648 825
Q 2906 1169 2906 1791
z
M 3481 434
Q 3481 -459 3084 -895
Q 2688 -1331 1869 -1331
Q 1566 -1331 1297 -1286
Q 1028 -1241 775 -1147
L 775 -588
Q 1028 -725 1275 -790
Q 1522 -856 1778 -856
Q 2344 -856 2625 -561
Q 2906 -266 2906 331
L 2906 616
Q 2728 306 2450 153
Q 2172 0 1784 0
Q 1141 0 747 490
Q 353 981 353 1791
Q 353 2603 747 3093
Q 1141 3584 1784 3584
Q 2172 3584 2450 3431
Q 2728 3278 2906 2969
L 2906 3500
L 3481 3500
L 3481 434
z
" transform="scale(0.015625)"/>
      <path id="DejaVuSans-2d" d="M 313 2009
L 1997 2009
L 1997 1497
L 313 1497
L 313 2009
z
" transform="scale(0.015625)"/>
      <path id="DejaVuSans-33" d="M 2597 2516
Q 3050 2419 3304 2112
Q 3559 1806 3559 1356
Q 3559 666 3084 287
Q 2609 -91 1734 -91
Q 1441 -91 1130 -33
Q 819 25 488 141
L 488 750
Q 750 597 1062 519
Q 1375 441 1716 441
Q 2309 441 2620 675
Q 2931 909 2931 1356
Q 2931 1769 2642 2001
Q 2353 2234 1838 2234
L 1294 2234
L 1294 2753
L 1863 2753
Q 2328 2753 2575 2939
Q 2822 3125 2822 3475
Q 2822 3834 2567 4026
Q 2313 4219 1838 4219
Q 1578 4219 1281 4162
Q 984 4106 628 3988
L 628 4550
Q 988 4650 1302 4700
Q 1616 4750 1894 4750
Q 2613 4750 3031 4423
Q 3450 4097 3450 3541
Q 3450 3153 3228 2886
Q 3006 2619 2597 2516
z
" transform="scale(0.015625)"/>
      <path id="DejaVuSans-39" d="M 703 97
L 703 672
Q 941 559 1184 500
Q 1428 441 1663 441
Q 2288 441 2617 861
Q 2947 1281 2994 2138
Q 2813 1869 2534 1725
Q 2256 1581 1919 1581
Q 1219 1581 811 2004
Q 403 2428 403 3163
Q 403 3881 828 4315
Q 1253 4750 1959 4750
Q 2769 4750 3195 4129
Q 3622 3509 3622 2328
Q 3622 1225 3098 567
Q 2575 -91 1691 -91
Q 1453 -91 1209 -44
Q 966 3 703 97
z
M 1959 2075
Q 2384 2075 2632 2365
Q 2881 2656 2881 3163
Q 2881 3666 2632 3958
Q 2384 4250 1959 4250
Q 1534 4250 1286 3958
Q 1038 3666 1038 3163
Q 1038 2656 1286 2365
Q 1534 2075 1959 2075
z
" transform="scale(0.015625)"/>
      <path id="DejaVuSans-3a" d="M 750 794
L 1409 794
L 1409 0
L 750 0
L 750 794
z
M 750 3309
L 1409 3309
L 1409 2516
L 750 2516
L 750 3309
z
" transform="scale(0.015625)"/>
      <path id="DejaVuSans-45" d="M 628 4666
L 3578 4666
L 3578 4134
L 1259 4134
L 1259 2753
L 3481 2753
L 3481 2222
L 1259 2222
L 1259 531
L 3634 531
L 3634 0
L 628 0
L 628 4666
z
" transform="scale(0.015625)"/>
      <path id="DejaVuSans-53" d="M 3425 4513
L 3425 3897
Q 3066 4069 2747 4153
Q 2428 4238 2131 4238
Q 1616 4238 1336 4038
Q 1056 3838 1056 3469
Q 1056 3159 1242 3001
Q 1428 2844 1947 2747
L 2328 2669
Q 3034 2534 3370 2195
Q 3706 1856 3706 1288
Q 3706 609 3251 259
Q 2797 -91 1919 -91
Q 1588 -91 1214 -16
Q 841 59 441 206
L 441 856
Q 825 641 1194 531
Q 1563 422 1919 422
Q 2459 422 2753 634
Q 3047 847 3047 1241
Q 3047 1584 2836 1778
Q 2625 1972 2144 2069
L 1759 2144
Q 1053 2284 737 2584
Q 422 2884 422 3419
Q 422 4038 858 4394
Q 1294 4750 2059 4750
Q 2388 4750 2728 4690
Q 3069 4631 3425 4513
z
" transform="scale(0.015625)"/>
      <path id="DejaVuSans-54" d="M -19 4666
L 3928 4666
L 3928 4134
L 2272 4134
L 2272 0
L 1638 0
L 1638 4134
L -19 4134
L -19 4666
z
" transform="scale(0.015625)"/>
      <path id="DejaVuSans-62" d="M 3116 1747
Q 3116 2381 2855 2742
Q 2594 3103 2138 3103
Q 1681 3103 1420 2742
Q 1159 2381 1159 1747
Q 1159 1113 1420 752
Q 1681 391 2138 391
Q 2594 391 2855 752
Q 3116 1113 3116 1747
z
M 1159 2969
Q 1341 3281 1617 3432
Q 1894 3584 2278 3584
Q 2916 3584 3314 3078
Q 3713 2572 3713 1747
Q 3713 922 3314 415
Q 2916 -91 2278 -91
Q 1894 -91 1617 61
Q 1341 213 1159 525
L 1159 0
L 581 0
L 581 4863
L 1159 4863
L 1159 2969
z
" transform="scale(0.015625)"/>
      <path id="DejaVuSans-79" d="M 2059 -325
Q 1816 -950 1584 -1140
Q 1353 -1331 966 -1331
L 506 -1331
L 506 -850
L 844 -850
Q 1081 -850 1212 -737
Q 1344 -625 1503 -206
L 1606 56
L 191 3500
L 800 3500
L 1894 763
L 2988 3500
L 3597 3500
L 2059 -325
z
" transform="scale(0.015625)"/>
      <path id="DejaVuSans-68" d="M 3513 2113
L 3513 0
L 2938 0
L 2938 2094
Q 2938 2591 2744 2837
Q 2550 3084 2163 3084
Q 1697 3084 1428 2787
Q 1159 2491 1159 1978
L 1159 0
L 581 0
L 581 4863
L 1159 4863
L 1159 2956
Q 1366 3272 1645 3428
Q 1925 3584 2291 3584
Q 2894 3584 3203 3211
Q 3513 2838 3513 2113
z
" transform="scale(0.015625)"/>
      <path id="DejaVuSans-38" d="M 2034 2216
Q 1584 2216 1326 1975
Q 1069 1734 1069 1313
Q 1069 891 1326 650
Q 1584 409 2034 409
Q 2484 409 2743 651
Q 3003 894 3003 1313
Q 3003 1734 2745 1975
Q 2488 2216 2034 2216
z
M 1403 2484
Q 997 2584 770 2862
Q 544 3141 544 3541
Q 544 4100 942 4425
Q 1341 4750 2034 4750
Q 2731 4750 3128 4425
Q 3525 4100 3525 3541
Q 3525 3141 3298 2862
Q 3072 2584 2669 2484
Q 3125 2378 3379 2068
Q 3634 1759 3634 1313
Q 3634 634 3220 271
Q 2806 -91 2034 -91
Q 1263 -91 848 271
Q 434 634 434 1313
Q 434 1759 690 2068
Q 947 2378 1403 2484
z
M 1172 3481
Q 1172 3119 1398 2916
Q 1625 2713 2034 2713
Q 2441 2713 2670 2916
Q 2900 3119 2900 3481
Q 2900 3844 2670 4047
Q 2441 4250 2034 4250
Q 1625 4250 1398 4047
Q 1172 3844 1172 3481
z
" transform="scale(0.015625)"/>
     </defs>
     <use xlink:href="#DejaVuSans-72"/>
     <use xlink:href="#DejaVuSans-61" transform="translate(41.113281 0)"/>
     <use xlink:href="#DejaVuSans-74" transform="translate(102.392578 0)"/>
     <use xlink:href="#DejaVuSans-65" transform="translate(141.601562 0)"/>
     <use xlink:href="#DejaVuSans-5f" transform="translate(203.125 0)"/>
     <use xlink:href="#DejaVuSans-6f" transform="translate(253.125 0)"/>
     <use xlink:href="#DejaVuSans-66" transform="translate(314.306641 0)"/>
     <use xlink:href="#DejaVuSans-5f" transform="translate(349.511719 0)"/>
     <use xlink:href="#DejaVuSans-64" transform="translate(399.511719 0)"/>
     <use xlink:href="#DejaVuSans-65" transform="translate(462.988281 0)"/>
     <use xlink:href="#DejaVuSans-66" transform="translate(524.511719 0)"/>
     <use xlink:href="#DejaVuSans-6f" transform="translate(559.716797 0)"/>
     <use xlink:href="#DejaVuSans-72" transform="translate(620.898438 0)"/>
     <use xlink:href="#DejaVuSans-6d" transform="translate(660.261719 0)"/>
     <use xlink:href="#DejaVuSans-61" transform="translate(757.673828 0)"/>
     <use xlink:href="#DejaVuSans-74" transform="translate(818.953125 0)"/>
     <use xlink:href="#DejaVuSans-69" transform="translate(858.162109 0)"/>
     <use xlink:href="#DejaVuSans-6f" transform="translate(885.945312 0)"/>
     <use xlink:href="#DejaVuSans-6e" transform="translate(947.126953 0)"/>
     <use xlink:href="#DejaVuSans-5f" transform="translate(1010.505859 0)"/>
     <use xlink:href="#DejaVuSans-73" transform="translate(1060.505859 0)"/>
     <use xlink:href="#DejaVuSans-72" transform="translate(1112.605469 0)"/>
     <use xlink:href="#DejaVuSans-34" transform="translate(1153.71875 0)"/>
     <use xlink:href="#DejaVuSans-63" transform="translate(1217.341797 0)"/>
     <use xlink:href="#DejaVuSans-2e" transform="translate(1272.322266 0)"/>
     <use xlink:href="#DejaVuSans-73" transform="translate(1304.109375 0)"/>
     <use xlink:href="#DejaVuSans-76" transform="translate(1356.208984 0)"/>
     <use xlink:href="#DejaVuSans-67" transform="translate(1415.388672 0)"/>
     <use xlink:href="#DejaVuSans-20" transform="translate(1478.865234 0)"/>
     <use xlink:href="#DejaVuSans-63" transform="translate(1510.652344 0)"/>
     <use xlink:href="#DejaVuSans-72" transform="translate(1565.632812 0)"/>
     <use xlink:href="#DejaVuSans-65" transform="translate(1604.496094 0)"/>
     <use xlink:href="#DejaVuSans-61" transform="translate(1666.019531 0)"/>
     <use xlink:href="#DejaVuSans-74" transform="translate(1727.298828 0)"/>
     <use xlink:href="#DejaVuSans-65" transform="translate(1766.507812 0)"/>
     <use xlink:href="#DejaVuSans-64" transform="translate(1828.03125 0)"/>
     <use xlink:href="#DejaVuSans-20" transform="translate(1891.507812 0)"/>
     <use xlink:href="#DejaVuSans-32" transform="translate(1923.294922 0)"/>
     <use xlink:href="#DejaVuSans-30" transform="translate(1986.917969 0)"/>
     <use xlink:href="#DejaVuSans-32" transform="translate(2050.541016 0)"/>
     <use xlink:href="#DejaVuSans-35" transform="translate(2114.164062 0)"/>
     <use xlink:href="#DejaVuSans-2d" transform="translate(2177.787109 0)"/>
     <use xlink:href="#DejaVuSans-30" transform="translate(2213.871094 0)"/>
     <use xlink:href="#DejaVuSans-31" transform="translate(2277.494141 0)"/>
     <use xlink:href="#DejaVuSans-2d" transform="translate(2341.117188 0)"/>
     <use xlink:href="#DejaVuSans-32" transform="translate(2377.201172 0)"/>
     <use xlink:href="#DejaVuSans-33" transform="translate(2440.824219 0)"/>
     <use xlink:href="#DejaVuSans-20" transform="translate(2504.447266 0)"/>
     <use xlink:href="#DejaVuSans-30" transform="translate(2536.234375 0)"/>
     <use xlink:href="#DejaVuSans-39" transform="translate(2599.857422 0)"/>
     <use xlink:href="#DejaVuSans-3a" transform="translate(2663.480469 0)"/>
     <use xlink:href="#DejaVuSans-35" transform="translate(2697.171875 0)"/>
     <use xlink:href="#DejaVuSans-34" transform="translate(2760.794922 0)"/>
     <use xlink:href="#DejaVuSans-3a" transform="translate(2824.417969 0)"/>
     <use xlink:href="#DejaVuSans-34" transform="translate(2858.109375 0)"/>
     <use xlink:href="#DejaVuSans-31" transform="translate(2921.732422 0)"/>
     <use xlink:href="#DejaVuSans-20" transform="translate(2985.355469 0)"/>
     <use xlink:href="#DejaVuSans-45" transform="translate(3017.142578 0)"/>
     <use xlink:href="#DejaVuSans-53" transform="translate(3080.326172 0)"/>
     <use xlink:href="#DejaVuSans-54" transform="translate(3143.802734 0)"/>
     <use xlink:href="#DejaVuSans-2d" transform="translate(3195.761719 0)"/>
     <use xlink:href="#DejaVuSans-30" transform="translate(3231.845703 0)"/>
     <use xlink:href="#DejaVuSans-35" transform="translate(3295.46875 0)"/>
     <use xlink:href="#DejaVuSans-30" transform="translate(3359.091797 0)"/>
     <use xlink:href="#DejaVuSans-30" transform="translate(3422.714844 0)"/>
     <use xlink:href="#DejaVuSans-20" transform="translate(3486.337891 0)"/>
     <use xlink:href="#DejaVuSans-62" transform="translate(3518.125 0)"/>
     <use xlink:href="#DejaVuSans-79" transform="translate(3581.601562 0)"/>
     <use xlink:href="#DejaVuSans-20" transform="translate(3640.78125 0)"/>
     <use xlink:href="#DejaVuSans-63" transform="translate(3672.568359 0)"/>
     <use xlink:href="#DejaVuSans-68" transform="translate(3727.548828 0)"/>
     <use xlink:href="#DejaVuSans-6f" transform="translate(3790.927734 0)"/>
     <use xlink:href="#DejaVuSans-76" transform="translate(3852.109375 0)"/>
     <use xlink:href="#DejaVuSans-65" transform="translate(3911.289062 0)"/>
     <use xlink:href="#DejaVuSans-79" transform="translate(3972.8125 0)"/>
     <use xlink:href="#DejaVuSans-20" transform="translate(4031.992188 0)"/>
     <use xlink:href="#DejaVuSans-6f" transform="translate(4063.779297 0)"/>
     <use xlink:href="#DejaVuSans-6e" transform="translate(4124.960938 0)"/>
     <use xlink:href="#DejaVuSans-20" transform="translate(4188.339844 0)"/>
     <use xlink:href="#DejaVuSans-73" transform="translate(4220.126953 0)"/>
     <use xlink:href="#DejaVuSans-31" transform="translate(4272.226562 0)"/>
     <use xlink:href="#DejaVuSans-30" transform="translate(4335.849609 0)"/>
     <use xlink:href="#DejaVuSans-38" transform="translate(4399.472656 0)"/>
     <use xlink:href="#DejaVuSans-38" transform="translate(4463.095703 0)"/>
     <use xlink:href="#DejaVuSans-37" transform="translate(4526.71875 0)"/>
     <use xlink:href="#DejaVuSans-35" transform="translate(4590.341797 0)"/>
     <use xlink:href="#DejaVuSans-37" transform="translate(4653.964844 0)"/>
    </g>
   </g>
   <g id="legend_1">
    <g id="patch_7">
     <path d="M 60.328125 234.5375
L 135.960938 234.5375
Q 137.960938 234.5375 137.960938 232.5375
L 137.960938 57.4
Q 137.960938 55.4 135.960938 55.4
L 60.328125 55.4
Q 58.328125 55.4 58.328125 57.4
L 58.328125 232.5375
Q 58.328125 234.5375 60.328125 234.5375
z
" style="fill: #ffffff; opacity: 0.8; stroke: #cccccc; stroke-linejoin: miter"/>
    </g>
    <g id="line2d_43">
     <path d="M 62.328125 63.498437
L 72.328125 63.498437
L 82.328125 63.498437
" style="fill: none; stroke-dasharray: 5.55,2.4; stroke-dashoffset: 0; stroke: #1f77b4; stroke-width: 1.5"/>
    </g>
    <g id="text_19">
     <!-- r=0 cm -->
     <g transform="translate(90.328125 66.998437) scale(0.1 -0.1)">
      <defs>
       <path id="DejaVuSans-3d" d="M 678 2906
L 4684 2906
L 4684 2381
L 678 2381
L 678 2906
z
M 678 1631
L 4684 1631
L 4684 1100
L 678 1100
L 678 1631
z
" transform="scale(0.015625)"/>
      </defs>
      <use xlink:href="#DejaVuSans-72"/>
      <use xlink:href="#DejaVuSans-3d" transform="translate(41.113281 0)"/>
      <use xlink:href="#DejaVuSans-30" transform="translate(124.902344 0)"/>
      <use xlink:href="#DejaVuSans-20" transform="translate(188.525391 0)"/>
      <use xlink:href="#DejaVuSans-63" transform="translate(220.3125 0)"/>
      <use xlink:href="#DejaVuSans-6d" transform="translate(275.292969 0)"/>
     </g>
    </g>
    <g id="line2d_44">
     <path d="M 62.328125 78.176562
L 72.328125 78.176562
L 82.328125 78.176562
" style="fill: none; stroke-dasharray: 1.5,2.475; stroke-dashoffset: 0; stroke: #ff7f0e; stroke-width: 1.5"/>
    </g>
    <g id="text_20">
     <!-- r=1 cm -->
     <g transform="translate(90.328125 81.676562) scale(0.1 -0.1)">
      <use xlink:href="#DejaVuSans-72"/>
      <use xlink:href="#DejaVuSans-3d" transform="translate(41.113281 0)"/>
      <use xlink:href="#DejaVuSans-31" transform="translate(124.902344 0)"/>
      <use xlink:href="#DejaVuSans-20" transform="translate(188.525391 0)"/>
      <use xlink:href="#DejaVuSans-63" transform="translate(220.3125 0)"/>
      <use xlink:href="#DejaVuSans-6d" transform="translate(275.292969 0)"/>
     </g>
    </g>
    <g id="line2d_45">
     <path d="M 62.328125 92.854687
L 72.328125 92.854687
L 82.328125 92.854687
" style="fill: none; stroke: #2ca02c; stroke-width: 1.5; stroke-linecap: square"/>
    </g>
    <g id="text_21">
     <!-- r=2 cm -->
     <g transform="translate(90.328125 96.354687) scale(0.1 -0.1)">
      <use xlink:href="#DejaVuSans-72"/>
      <use xlink:href="#DejaVuSans-3d" transform="translate(41.113281 0)"/>
      <use xlink:href="#DejaVuSans-32" transform="translate(124.902344 0)"/>
      <use xlink:href="#DejaVuSans-20" transform="translate(188.525391 0)"/>
      <use xlink:href="#DejaVuSans-63" transform="translate(220.3125 0)"/>
      <use xlink:href="#DejaVuSans-6d" transform="translate(275.292969 0)"/>
     </g>
    </g>
    <g id="line2d_46">
     <path d="M 62.328125 107.532812
L 72.328125 107.532812
L 82.328125 107.532812
" style="fill: none; stroke: #d62728; stroke-width: 1.5; stroke-linecap: square"/>
    </g>
    <g id="text_22">
     <!-- r=3 cm -->
     <g transform="translate(90.328125 111.032812) scale(0.1 -0.1)">
      <use xlink:href="#DejaVuSans-72"/>
      <use xlink:href="#DejaVuSans-3d" transform="translate(41.113281 0)"/>
      <use xlink:href="#DejaVuSans-33" transform="translate(124.902344 0)"/>
      <use xlink:href="#DejaVuSans-20" transform="translate(188.525391 0)"/>
      <use xlink:href="#DejaVuSans-63" transform="translate(220.3125 0)"/>
      <use xlink:href="#DejaVuSans-6d" transform="translate(275.292969 0)"/>
     </g>
    </g>
    <g id="line2d_47">
     <path d="M 62.328125 122.210937
L 72.328125 122.210937
L 82.328125 122.210937
" style="fill: none; stroke: #9467bd; stroke-width: 1.5; stroke-linecap: square"/>
    </g>
    <g id="text_23">
     <!-- r=4 cm -->
     <g transform="translate(90.328125 125.710937) scale(0.1 -0.1)">
      <use xlink:href="#DejaVuSans-72"/>
      <use xlink:href="#DejaVuSans-3d" transform="translate(41.113281 0)"/>
      <use xlink:href="#DejaVuSans-34" transform="translate(124.902344 0)"/>
      <use xlink:href="#DejaVuSans-20" transform="translate(188.525391 0)"/>
      <use xlink:href="#DejaVuSans-63" transform="translate(220.3125 0)"/>
      <use xlink:href="#DejaVuSans-6d" transform="translate(275.292969 0)"/>
     </g>
    </g>
    <g id="line2d_48">
     <path d="M 62.328125 136.889062
L 72.328125 136.889062
L 82.328125 136.889062
" style="fill: none; stroke: #8c564b; stroke-width: 1.5; stroke-linecap: square"/>
    </g>
    <g id="text_24">
     <!-- r=5 cm -->
     <g transform="translate(90.328125 140.389062) scale(0.1 -0.1)">
      <use xlink:href="#DejaVuSans-72"/>
      <use xlink:href="#DejaVuSans-3d" transform="translate(41.113281 0)"/>
      <use xlink:href="#DejaVuSans-35" transform="translate(124.902344 0)"/>
      <use xlink:href="#DejaVuSans-20" transform="translate(188.525391 0)"/>
      <use xlink:href="#DejaVuSans-63" transform="translate(220.3125 0)"/>
      <use xlink:href="#DejaVuSans-6d" transform="translate(275.292969 0)"/>
     </g>
    </g>
    <g id="line2d_49">
     <path d="M 62.328125 151.567187
L 72.328125 151.567187
L 82.328125 151.567187
" style="fill: none; stroke: #e377c2; stroke-width: 1.5; stroke-linecap: square"/>
    </g>
    <g id="text_25">
     <!-- r=6 cm -->
     <g transform="translate(90.328125 155.067187) scale(0.1 -0.1)">
      <defs>
       <path id="DejaVuSans-36" d="M 2113 2584
Q 1688 2584 1439 2293
Q 1191 2003 1191 1497
Q 1191 994 1439 701
Q 1688 409 2113 409
Q 2538 409 2786 701
Q 3034 994 3034 1497
Q 3034 2003 2786 2293
Q 2538 2584 2113 2584
z
M 3366 4563
L 3366 3988
Q 3128 4100 2886 4159
Q 2644 4219 2406 4219
Q 1781 4219 1451 3797
Q 1122 3375 1075 2522
Q 1259 2794 1537 2939
Q 1816 3084 2150 3084
Q 2853 3084 3261 2657
Q 3669 2231 3669 1497
Q 3669 778 3244 343
Q 2819 -91 2113 -91
Q 1303 -91 875 529
Q 447 1150 447 2328
Q 447 3434 972 4092
Q 1497 4750 2381 4750
Q 2619 4750 2861 4703
Q 3103 4656 3366 4563
z
" transform="scale(0.015625)"/>
      </defs>
      <use xlink:href="#DejaVuSans-72"/>
      <use xlink:href="#DejaVuSans-3d" transform="translate(41.113281 0)"/>
      <use xlink:href="#DejaVuSans-36" transform="translate(124.902344 0)"/>
      <use xlink:href="#DejaVuSans-20" transform="translate(188.525391 0)"/>
      <use xlink:href="#DejaVuSans-63" transform="translate(220.3125 0)"/>
      <use xlink:href="#DejaVuSans-6d" transform="translate(275.292969 0)"/>
     </g>
    </g>
    <g id="line2d_50">
     <path d="M 62.328125 166.245312
L 72.328125 166.245312
L 82.328125 166.245312
" style="fill: none; stroke: #7f7f7f; stroke-width: 1.5; stroke-linecap: square"/>
    </g>
    <g id="text_26">
     <!-- r=7 cm -->
     <g transform="translate(90.328125 169.745312) scale(0.1 -0.1)">
      <use xlink:href="#DejaVuSans-72"/>
      <use xlink:href="#DejaVuSans-3d" transform="translate(41.113281 0)"/>
      <use xlink:href="#DejaVuSans-37" transform="translate(124.902344 0)"/>
      <use xlink:href="#DejaVuSans-20" transform="translate(188.525391 0)"/>
      <use xlink:href="#DejaVuSans-63" transform="translate(220.3125 0)"/>
      <use xlink:href="#DejaVuSans-6d" transform="translate(275.292969 0)"/>
     </g>
    </g>
    <g id="line2d_51">
     <path d="M 62.328125 180.923437
L 72.328125 180.923437
L 82.328125 180.923437
" style="fill: none; stroke: #bcbd22; stroke-width: 1.5; stroke-linecap: square"/>
    </g>
    <g id="text_27">
     <!-- r=8 cm -->
     <g transform="translate(90.328125 184.423437) scale(0.1 -0.1)">
      <use xlink:href="#DejaVuSans-72"/>
      <use xlink:href="#DejaVuSans-3d" transform="translate(41.113281 0)"/>
      <use xlink:href="#DejaVuSans-38" transform="translate(124.902344 0)"/>
      <use xlink:href="#DejaVuSans-20" transform="translate(188.525391 0)"/>
      <use xlink:href="#DejaVuSans-63" transform="translate(220.3125 0)"/>
      <use xlink:href="#DejaVuSans-6d" transform="translate(275.292969 0)"/>
     </g>
    </g>
    <g id="line2d_52">
     <path d="M 62.328125 195.601562
L 72.328125 195.601562
L 82.328125 195.601562
" style="fill: none; stroke: #17becf; stroke-width: 1.5; stroke-linecap: square"/>
    </g>
    <g id="text_28">
     <!-- r=9 cm -->
     <g transform="translate(90.328125 199.101562) scale(0.1 -0.1)">
      <use xlink:href="#DejaVuSans-72"/>
      <use xlink:href="#DejaVuSans-3d" transform="translate(41.113281 0)"/>
      <use xlink:href="#DejaVuSans-39" transform="translate(124.902344 0)"/>
      <use xlink:href="#DejaVuSans-20" transform="translate(188.525391 0)"/>
      <use xlink:href="#DejaVuSans-63" transform="translate(220.3125 0)"/>
      <use xlink:href="#DejaVuSans-6d" transform="translate(275.292969 0)"/>
     </g>
    </g>
    <g id="line2d_53">
     <path d="M 62.328125 210.279687
L 72.328125 210.279687
L 82.328125 210.279687
" style="fill: none; stroke: #1f77b4; stroke-width: 1.5; stroke-linecap: square"/>
    </g>
    <g id="text_29">
     <!-- r=10 cm -->
     <g transform="translate(90.328125 213.779687) scale(0.1 -0.1)">
      <use xlink:href="#DejaVuSans-72"/>
      <use xlink:href="#DejaVuSans-3d" transform="translate(41.113281 0)"/>
      <use xlink:href="#DejaVuSans-31" transform="translate(124.902344 0)"/>
      <use xlink:href="#DejaVuSans-30" transform="translate(188.525391 0)"/>
      <use xlink:href="#DejaVuSans-20" transform="translate(252.148438 0)"/>
      <use xlink:href="#DejaVuSans-63" transform="translate(283.935547 0)"/>
      <use xlink:href="#DejaVuSans-6d" transform="translate(338.916016 0)"/>
     </g>
    </g>
    <g id="line2d_54">
     <path d="M 62.328125 224.957812
L 72.328125 224.957812
L 82.328125 224.957812
" style="fill: none; stroke: #ff7f0e; stroke-width: 1.5; stroke-linecap: square"/>
    </g>
    <g id="text_30">
     <!-- r=11 cm -->
     <g transform="translate(90.328125 228.457812) scale(0.1 -0.1)">
      <use xlink:href="#DejaVuSans-72"/>
      <use xlink:href="#DejaVuSans-3d" transform="translate(41.113281 0)"/>
      <use xlink:href="#DejaVuSans-31" transform="translate(124.902344 0)"/>
      <use xlink:href="#DejaVuSans-31" transform="translate(188.525391 0)"/>
      <use xlink:href="#DejaVuSans-20" transform="translate(252.148438 0)"/>
      <use xlink:href="#DejaVuSans-63" transform="translate(283.935547 0)"/>
      <use xlink:href="#DejaVuSans-6d" transform="translate(338.916016 0)"/>
     </g>
    </g>
   </g>
  </g>
  <g id="text_31">
   <!-- Maximum Principal Rate of Deformation at Various Radii (sr4c) -->
   <g transform="translate(81.610625 16.318125) scale(0.12 -0.12)">
    <defs>
     <path id="DejaVuSans-4d" d="M 628 4666
L 1569 4666
L 2759 1491
L 3956 4666
L 4897 4666
L 4897 0
L 4281 0
L 4281 4097
L 3078 897
L 2444 897
L 1241 4097
L 1241 0
L 628 0
L 628 4666
z
" transform="scale(0.015625)"/>
     <path id="DejaVuSans-50" d="M 1259 4147
L 1259 2394
L 2053 2394
Q 2494 2394 2734 2622
Q 2975 2850 2975 3272
Q 2975 3691 2734 3919
Q 2494 4147 2053 4147
L 1259 4147
z
M 628 4666
L 2053 4666
Q 2838 4666 3239 4311
Q 3641 3956 3641 3272
Q 3641 2581 3239 2228
Q 2838 1875 2053 1875
L 1259 1875
L 1259 0
L 628 0
L 628 4666
z
" transform="scale(0.015625)"/>
     <path id="DejaVuSans-52" d="M 2841 2188
Q 3044 2119 3236 1894
Q 3428 1669 3622 1275
L 4263 0
L 3584 0
L 2988 1197
Q 2756 1666 2539 1819
Q 2322 1972 1947 1972
L 1259 1972
L 1259 0
L 628 0
L 628 4666
L 2053 4666
Q 2853 4666 3247 4331
Q 3641 3997 3641 3322
Q 3641 2881 3436 2590
Q 3231 2300 2841 2188
z
M 1259 4147
L 1259 2491
L 2053 2491
Q 2509 2491 2742 2702
Q 2975 2913 2975 3322
Q 2975 3731 2742 3939
Q 2509 4147 2053 4147
L 1259 4147
z
" transform="scale(0.015625)"/>
     <path id="DejaVuSans-44" d="M 1259 4147
L 1259 519
L 2022 519
Q 2988 519 3436 956
Q 3884 1394 3884 2338
Q 3884 3275 3436 3711
Q 2988 4147 2022 4147
L 1259 4147
z
M 628 4666
L 1925 4666
Q 3281 4666 3915 4102
Q 4550 3538 4550 2338
Q 4550 1131 3912 565
Q 3275 0 1925 0
L 628 0
L 628 4666
z
" transform="scale(0.015625)"/>
     <path id="DejaVuSans-56" d="M 1831 0
L 50 4666
L 709 4666
L 2188 738
L 3669 4666
L 4325 4666
L 2547 0
L 1831 0
z
" transform="scale(0.015625)"/>
    </defs>
    <use xlink:href="#DejaVuSans-4d"/>
    <use xlink:href="#DejaVuSans-61" transform="translate(86.279297 0)"/>
    <use xlink:href="#DejaVuSans-78" transform="translate(147.558594 0)"/>
    <use xlink:href="#DejaVuSans-69" transform="translate(206.738281 0)"/>
    <use xlink:href="#DejaVuSans-6d" transform="translate(234.521484 0)"/>
    <use xlink:href="#DejaVuSans-75" transform="translate(331.933594 0)"/>
    <use xlink:href="#DejaVuSans-6d" transform="translate(395.3125 0)"/>
    <use xlink:href="#DejaVuSans-20" transform="translate(492.724609 0)"/>
    <use xlink:href="#DejaVuSans-50" transform="translate(524.511719 0)"/>
    <use xlink:href="#DejaVuSans-72" transform="translate(583.064453 0)"/>
    <use xlink:href="#DejaVuSans-69" transform="translate(624.177734 0)"/>
    <use xlink:href="#DejaVuSans-6e" transform="translate(651.960938 0)"/>
    <use xlink:href="#DejaVuSans-63" transform="translate(715.339844 0)"/>
    <use xlink:href="#DejaVuSans-69" transform="translate(770.320312 0)"/>
    <use xlink:href="#DejaVuSans-70" transform="translate(798.103516 0)"/>
    <use xlink:href="#DejaVuSans-61" transform="translate(861.580078 0)"/>
    <use xlink:href="#DejaVuSans-6c" transform="translate(922.859375 0)"/>
    <use xlink:href="#DejaVuSans-20" transform="translate(950.642578 0)"/>
    <use xlink:href="#DejaVuSans-52" transform="translate(982.429688 0)"/>
    <use xlink:href="#DejaVuSans-61" transform="translate(1049.662109 0)"/>
    <use xlink:href="#DejaVuSans-74" transform="translate(1110.941406 0)"/>
    <use xlink:href="#DejaVuSans-65" transform="translate(1150.150391 0)"/>
    <use xlink:href="#DejaVuSans-20" transform="translate(1211.673828 0)"/>
    <use xlink:href="#DejaVuSans-6f" transform="translate(1243.460938 0)"/>
    <use xlink:href="#DejaVuSans-66" transform="translate(1304.642578 0)"/>
    <use xlink:href="#DejaVuSans-20" transform="translate(1339.847656 0)"/>
    <use xlink:href="#DejaVuSans-44" transform="translate(1371.634766 0)"/>
    <use xlink:href="#DejaVuSans-65" transform="translate(1448.636719 0)"/>
    <use xlink:href="#DejaVuSans-66" transform="translate(1510.160156 0)"/>
    <use xlink:href="#DejaVuSans-6f" transform="translate(1545.365234 0)"/>
    <use xlink:href="#DejaVuSans-72" transform="translate(1606.546875 0)"/>
    <use xlink:href="#DejaVuSans-6d" transform="translate(1645.910156 0)"/>
    <use xlink:href="#DejaVuSans-61" transform="translate(1743.322266 0)"/>
    <use xlink:href="#DejaVuSans-74" transform="translate(1804.601562 0)"/>
    <use xlink:href="#DejaVuSans-69" transform="translate(1843.810547 0)"/>
    <use xlink:href="#DejaVuSans-6f" transform="translate(1871.59375 0)"/>
    <use xlink:href="#DejaVuSans-6e" transform="translate(1932.775391 0)"/>
    <use xlink:href="#DejaVuSans-20" transform="translate(1996.154297 0)"/>
    <use xlink:href="#DejaVuSans-61" transform="translate(2027.941406 0)"/>
    <use xlink:href="#DejaVuSans-74" transform="translate(2089.220703 0)"/>
    <use xlink:href="#DejaVuSans-20" transform="translate(2128.429688 0)"/>
    <use xlink:href="#DejaVuSans-56" transform="translate(2160.216797 0)"/>
    <use xlink:href="#DejaVuSans-61" transform="translate(2220.875 0)"/>
    <use xlink:href="#DejaVuSans-72" transform="translate(2282.154297 0)"/>
    <use xlink:href="#DejaVuSans-69" transform="translate(2323.267578 0)"/>
    <use xlink:href="#DejaVuSans-6f" transform="translate(2351.050781 0)"/>
    <use xlink:href="#DejaVuSans-75" transform="translate(2412.232422 0)"/>
    <use xlink:href="#DejaVuSans-73" transform="translate(2475.611328 0)"/>
    <use xlink:href="#DejaVuSans-20" transform="translate(2527.710938 0)"/>
    <use xlink:href="#DejaVuSans-52" transform="translate(2559.498047 0)"/>
    <use xlink:href="#DejaVuSans-61" transform="translate(2626.730469 0)"/>
    <use xlink:href="#DejaVuSans-64" transform="translate(2688.009766 0)"/>
    <use xlink:href="#DejaVuSans-69" transform="translate(2751.486328 0)"/>
    <use xlink:href="#DejaVuSans-69" transform="translate(2779.269531 0)"/>
    <use xlink:href="#DejaVuSans-20" transform="translate(2807.052734 0)"/>
    <use xlink:href="#DejaVuSans-28" transform="translate(2838.839844 0)"/>
    <use xlink:href="#DejaVuSans-73" transform="translate(2877.853516 0)"/>
    <use xlink:href="#DejaVuSans-72" transform="translate(2929.953125 0)"/>
    <use xlink:href="#DejaVuSans-34" transform="translate(2971.066406 0)"/>
    <use xlink:href="#DejaVuSans-63" transform="translate(3034.689453 0)"/>
    <use xlink:href="#DejaVuSans-29" transform="translate(3089.669922 0)"/>
   </g>
  </g>
 </g>
 <defs>
  <clipPath id="p916b19e654">
   <rect x="53.328125" y="50.4" width="446.4" height="332.64"/>
  </clipPath>
 </defs>
</svg>
