<?xml version="1.0" encoding="utf-8" standalone="no"?>
<!DOCTYPE svg PUBLIC "-//W3C//DTD SVG 1.1//EN"
  "http://www.w3.org/Graphics/SVG/1.1/DTD/svg11.dtd">
<svg xmlns:xlink="http://www.w3.org/1999/xlink" width="506.928125pt" height="420.59625pt" viewBox="0 0 506.928125 420.59625" xmlns="http://www.w3.org/2000/svg" version="1.1">
 <metadata>
  <rdf:RDF xmlns:dc="http://purl.org/dc/elements/1.1/" xmlns:cc="http://creativecommons.org/ns#" xmlns:rdf="http://www.w3.org/1999/02/22-rdf-syntax-ns#">
   <cc:Work>
    <dc:type rdf:resource="http://purl.org/dc/dcmitype/StillImage"/>
    <dc:date>2025-01-14T11:29:09.132313</dc:date>
    <dc:format>image/svg+xml</dc:format>
    <dc:creator>
     <cc:Agent>
      <dc:title>Matplotlib v3.10.0, https://matplotlib.org/</dc:title>
     </cc:Agent>
    </dc:creator>
   </cc:Work>
  </rdf:RDF>
 </metadata>
 <defs>
  <style type="text/css">*{stroke-linejoin: round; stroke-linecap: butt}</style>
 </defs>
 <g id="figure_1">
  <g id="patch_1">
   <path d="M 0 420.59625
L 506.928125 420.59625
L 506.928125 0
L 0 0
z
" style="fill: #ffffff"/>
  </g>
  <g id="axes_1">
   <g id="patch_2">
    <path d="M 53.328125 383.04
L 499.728125 383.04
L 499.728125 50.4
L 53.328125 50.4
z
" style="fill: #ffffff"/>
   </g>
   <g id="matplotlib.axis_1">
    <g id="xtick_1">
     <g id="line2d_1">
      <path d="M 73.619034 383.04
L 73.619034 50.4
" clip-path="url(#p70f4469396)" style="fill: none; stroke: #b0b0b0; stroke-width: 0.8; stroke-linecap: square"/>
     </g>
     <g id="line2d_2">
      <defs>
       <path id="m8974701d4f" d="M 0 0
L 0 3.5
" style="stroke: #000000; stroke-width: 0.8"/>
      </defs>
      <g>
       <use xlink:href="#m8974701d4f" x="73.619034" y="383.04" style="stroke: #000000; stroke-width: 0.8"/>
      </g>
     </g>
     <g id="text_1">
      <!-- 0.0000 -->
      <g transform="translate(56.123722 397.638437) scale(0.1 -0.1)">
       <defs>
        <path id="DejaVuSans-30" d="M 2034 4250
Q 1547 4250 1301 3770
Q 1056 3291 1056 2328
Q 1056 1369 1301 889
Q 1547 409 2034 409
Q 2525 409 2770 889
Q 3016 1369 3016 2328
Q 3016 3291 2770 3770
Q 2525 4250 2034 4250
z
M 2034 4750
Q 2819 4750 3233 4129
Q 3647 3509 3647 2328
Q 3647 1150 3233 529
Q 2819 -91 2034 -91
Q 1250 -91 836 529
Q 422 1150 422 2328
Q 422 3509 836 4129
Q 1250 4750 2034 4750
z
" transform="scale(0.015625)"/>
        <path id="DejaVuSans-2e" d="M 684 794
L 1344 794
L 1344 0
L 684 0
L 684 794
z
" transform="scale(0.015625)"/>
       </defs>
       <use xlink:href="#DejaVuSans-30"/>
       <use xlink:href="#DejaVuSans-2e" transform="translate(63.623047 0)"/>
       <use xlink:href="#DejaVuSans-30" transform="translate(95.410156 0)"/>
       <use xlink:href="#DejaVuSans-30" transform="translate(159.033203 0)"/>
       <use xlink:href="#DejaVuSans-30" transform="translate(222.65625 0)"/>
       <use xlink:href="#DejaVuSans-30" transform="translate(286.279297 0)"/>
      </g>
     </g>
    </g>
    <g id="xtick_2">
     <g id="line2d_3">
      <path d="M 124.343517 383.04
L 124.343517 50.4
" clip-path="url(#p70f4469396)" style="fill: none; stroke: #b0b0b0; stroke-width: 0.8; stroke-linecap: square"/>
     </g>
     <g id="line2d_4">
      <g>
       <use xlink:href="#m8974701d4f" x="124.343517" y="383.04" style="stroke: #000000; stroke-width: 0.8"/>
      </g>
     </g>
     <g id="text_2">
      <!-- 0.0025 -->
      <g transform="translate(106.848204 397.638437) scale(0.1 -0.1)">
       <defs>
        <path id="DejaVuSans-32" d="M 1228 531
L 3431 531
L 3431 0
L 469 0
L 469 531
Q 828 903 1448 1529
Q 2069 2156 2228 2338
Q 2531 2678 2651 2914
Q 2772 3150 2772 3378
Q 2772 3750 2511 3984
Q 2250 4219 1831 4219
Q 1534 4219 1204 4116
Q 875 4013 500 3803
L 500 4441
Q 881 4594 1212 4672
Q 1544 4750 1819 4750
Q 2544 4750 2975 4387
Q 3406 4025 3406 3419
Q 3406 3131 3298 2873
Q 3191 2616 2906 2266
Q 2828 2175 2409 1742
Q 1991 1309 1228 531
z
" transform="scale(0.015625)"/>
        <path id="DejaVuSans-35" d="M 691 4666
L 3169 4666
L 3169 4134
L 1269 4134
L 1269 2991
Q 1406 3038 1543 3061
Q 1681 3084 1819 3084
Q 2600 3084 3056 2656
Q 3513 2228 3513 1497
Q 3513 744 3044 326
Q 2575 -91 1722 -91
Q 1428 -91 1123 -41
Q 819 9 494 109
L 494 744
Q 775 591 1075 516
Q 1375 441 1709 441
Q 2250 441 2565 725
Q 2881 1009 2881 1497
Q 2881 1984 2565 2268
Q 2250 2553 1709 2553
Q 1456 2553 1204 2497
Q 953 2441 691 2322
L 691 4666
z
" transform="scale(0.015625)"/>
       </defs>
       <use xlink:href="#DejaVuSans-30"/>
       <use xlink:href="#DejaVuSans-2e" transform="translate(63.623047 0)"/>
       <use xlink:href="#DejaVuSans-30" transform="translate(95.410156 0)"/>
       <use xlink:href="#DejaVuSans-30" transform="translate(159.033203 0)"/>
       <use xlink:href="#DejaVuSans-32" transform="translate(222.65625 0)"/>
       <use xlink:href="#DejaVuSans-35" transform="translate(286.279297 0)"/>
      </g>
     </g>
    </g>
    <g id="xtick_3">
     <g id="line2d_5">
      <path d="M 175.068 383.04
L 175.068 50.4
" clip-path="url(#p70f4469396)" style="fill: none; stroke: #b0b0b0; stroke-width: 0.8; stroke-linecap: square"/>
     </g>
     <g id="line2d_6">
      <g>
       <use xlink:href="#m8974701d4f" x="175.068" y="383.04" style="stroke: #000000; stroke-width: 0.8"/>
      </g>
     </g>
     <g id="text_3">
      <!-- 0.0050 -->
      <g transform="translate(157.572687 397.638437) scale(0.1 -0.1)">
       <use xlink:href="#DejaVuSans-30"/>
       <use xlink:href="#DejaVuSans-2e" transform="translate(63.623047 0)"/>
       <use xlink:href="#DejaVuSans-30" transform="translate(95.410156 0)"/>
       <use xlink:href="#DejaVuSans-30" transform="translate(159.033203 0)"/>
       <use xlink:href="#DejaVuSans-35" transform="translate(222.65625 0)"/>
       <use xlink:href="#DejaVuSans-30" transform="translate(286.279297 0)"/>
      </g>
     </g>
    </g>
    <g id="xtick_4">
     <g id="line2d_7">
      <path d="M 225.792483 383.04
L 225.792483 50.4
" clip-path="url(#p70f4469396)" style="fill: none; stroke: #b0b0b0; stroke-width: 0.8; stroke-linecap: square"/>
     </g>
     <g id="line2d_8">
      <g>
       <use xlink:href="#m8974701d4f" x="225.792483" y="383.04" style="stroke: #000000; stroke-width: 0.8"/>
      </g>
     </g>
     <g id="text_4">
      <!-- 0.0075 -->
      <g transform="translate(208.29717 397.638437) scale(0.1 -0.1)">
       <defs>
        <path id="DejaVuSans-37" d="M 525 4666
L 3525 4666
L 3525 4397
L 1831 0
L 1172 0
L 2766 4134
L 525 4134
L 525 4666
z
" transform="scale(0.015625)"/>
       </defs>
       <use xlink:href="#DejaVuSans-30"/>
       <use xlink:href="#DejaVuSans-2e" transform="translate(63.623047 0)"/>
       <use xlink:href="#DejaVuSans-30" transform="translate(95.410156 0)"/>
       <use xlink:href="#DejaVuSans-30" transform="translate(159.033203 0)"/>
       <use xlink:href="#DejaVuSans-37" transform="translate(222.65625 0)"/>
       <use xlink:href="#DejaVuSans-35" transform="translate(286.279297 0)"/>
      </g>
     </g>
    </g>
    <g id="xtick_5">
     <g id="line2d_9">
      <path d="M 276.516966 383.04
L 276.516966 50.4
" clip-path="url(#p70f4469396)" style="fill: none; stroke: #b0b0b0; stroke-width: 0.8; stroke-linecap: square"/>
     </g>
     <g id="line2d_10">
      <g>
       <use xlink:href="#m8974701d4f" x="276.516966" y="383.04" style="stroke: #000000; stroke-width: 0.8"/>
      </g>
     </g>
     <g id="text_5">
      <!-- 0.0100 -->
      <g transform="translate(259.021653 397.638437) scale(0.1 -0.1)">
       <defs>
        <path id="DejaVuSans-31" d="M 794 531
L 1825 531
L 1825 4091
L 703 3866
L 703 4441
L 1819 4666
L 2450 4666
L 2450 531
L 3481 531
L 3481 0
L 794 0
L 794 531
z
" transform="scale(0.015625)"/>
       </defs>
       <use xlink:href="#DejaVuSans-30"/>
       <use xlink:href="#DejaVuSans-2e" transform="translate(63.623047 0)"/>
       <use xlink:href="#DejaVuSans-30" transform="translate(95.410156 0)"/>
       <use xlink:href="#DejaVuSans-31" transform="translate(159.033203 0)"/>
       <use xlink:href="#DejaVuSans-30" transform="translate(222.65625 0)"/>
       <use xlink:href="#DejaVuSans-30" transform="translate(286.279297 0)"/>
      </g>
     </g>
    </g>
    <g id="xtick_6">
     <g id="line2d_11">
      <path d="M 327.241448 383.04
L 327.241448 50.4
" clip-path="url(#p70f4469396)" style="fill: none; stroke: #b0b0b0; stroke-width: 0.8; stroke-linecap: square"/>
     </g>
     <g id="line2d_12">
      <g>
       <use xlink:href="#m8974701d4f" x="327.241448" y="383.04" style="stroke: #000000; stroke-width: 0.8"/>
      </g>
     </g>
     <g id="text_6">
      <!-- 0.0125 -->
      <g transform="translate(309.746136 397.638437) scale(0.1 -0.1)">
       <use xlink:href="#DejaVuSans-30"/>
       <use xlink:href="#DejaVuSans-2e" transform="translate(63.623047 0)"/>
       <use xlink:href="#DejaVuSans-30" transform="translate(95.410156 0)"/>
       <use xlink:href="#DejaVuSans-31" transform="translate(159.033203 0)"/>
       <use xlink:href="#DejaVuSans-32" transform="translate(222.65625 0)"/>
       <use xlink:href="#DejaVuSans-35" transform="translate(286.279297 0)"/>
      </g>
     </g>
    </g>
    <g id="xtick_7">
     <g id="line2d_13">
      <path d="M 377.965931 383.04
L 377.965931 50.4
" clip-path="url(#p70f4469396)" style="fill: none; stroke: #b0b0b0; stroke-width: 0.8; stroke-linecap: square"/>
     </g>
     <g id="line2d_14">
      <g>
       <use xlink:href="#m8974701d4f" x="377.965931" y="383.04" style="stroke: #000000; stroke-width: 0.8"/>
      </g>
     </g>
     <g id="text_7">
      <!-- 0.0150 -->
      <g transform="translate(360.470619 397.638437) scale(0.1 -0.1)">
       <use xlink:href="#DejaVuSans-30"/>
       <use xlink:href="#DejaVuSans-2e" transform="translate(63.623047 0)"/>
       <use xlink:href="#DejaVuSans-30" transform="translate(95.410156 0)"/>
       <use xlink:href="#DejaVuSans-31" transform="translate(159.033203 0)"/>
       <use xlink:href="#DejaVuSans-35" transform="translate(222.65625 0)"/>
       <use xlink:href="#DejaVuSans-30" transform="translate(286.279297 0)"/>
      </g>
     </g>
    </g>
    <g id="xtick_8">
     <g id="line2d_15">
      <path d="M 428.690414 383.04
L 428.690414 50.4
" clip-path="url(#p70f4469396)" style="fill: none; stroke: #b0b0b0; stroke-width: 0.8; stroke-linecap: square"/>
     </g>
     <g id="line2d_16">
      <g>
       <use xlink:href="#m8974701d4f" x="428.690414" y="383.04" style="stroke: #000000; stroke-width: 0.8"/>
      </g>
     </g>
     <g id="text_8">
      <!-- 0.0175 -->
      <g transform="translate(411.195102 397.638437) scale(0.1 -0.1)">
       <use xlink:href="#DejaVuSans-30"/>
       <use xlink:href="#DejaVuSans-2e" transform="translate(63.623047 0)"/>
       <use xlink:href="#DejaVuSans-30" transform="translate(95.410156 0)"/>
       <use xlink:href="#DejaVuSans-31" transform="translate(159.033203 0)"/>
       <use xlink:href="#DejaVuSans-37" transform="translate(222.65625 0)"/>
       <use xlink:href="#DejaVuSans-35" transform="translate(286.279297 0)"/>
      </g>
     </g>
    </g>
    <g id="xtick_9">
     <g id="line2d_17">
      <path d="M 479.414897 383.04
L 479.414897 50.4
" clip-path="url(#p70f4469396)" style="fill: none; stroke: #b0b0b0; stroke-width: 0.8; stroke-linecap: square"/>
     </g>
     <g id="line2d_18">
      <g>
       <use xlink:href="#m8974701d4f" x="479.414897" y="383.04" style="stroke: #000000; stroke-width: 0.8"/>
      </g>
     </g>
     <g id="text_9">
      <!-- 0.0200 -->
      <g transform="translate(461.919585 397.638437) scale(0.1 -0.1)">
       <use xlink:href="#DejaVuSans-30"/>
       <use xlink:href="#DejaVuSans-2e" transform="translate(63.623047 0)"/>
       <use xlink:href="#DejaVuSans-30" transform="translate(95.410156 0)"/>
       <use xlink:href="#DejaVuSans-32" transform="translate(159.033203 0)"/>
       <use xlink:href="#DejaVuSans-30" transform="translate(222.65625 0)"/>
       <use xlink:href="#DejaVuSans-30" transform="translate(286.279297 0)"/>
      </g>
     </g>
    </g>
    <g id="text_10">
     <!-- time (s) -->
     <g transform="translate(257.136719 411.316562) scale(0.1 -0.1)">
      <defs>
       <path id="DejaVuSans-74" d="M 1172 4494
L 1172 3500
L 2356 3500
L 2356 3053
L 1172 3053
L 1172 1153
Q 1172 725 1289 603
Q 1406 481 1766 481
L 2356 481
L 2356 0
L 1766 0
Q 1100 0 847 248
Q 594 497 594 1153
L 594 3053
L 172 3053
L 172 3500
L 594 3500
L 594 4494
L 1172 4494
z
" transform="scale(0.015625)"/>
       <path id="DejaVuSans-69" d="M 603 3500
L 1178 3500
L 1178 0
L 603 0
L 603 3500
z
M 603 4863
L 1178 4863
L 1178 4134
L 603 4134
L 603 4863
z
" transform="scale(0.015625)"/>
       <path id="DejaVuSans-6d" d="M 3328 2828
Q 3544 3216 3844 3400
Q 4144 3584 4550 3584
Q 5097 3584 5394 3201
Q 5691 2819 5691 2113
L 5691 0
L 5113 0
L 5113 2094
Q 5113 2597 4934 2840
Q 4756 3084 4391 3084
Q 3944 3084 3684 2787
Q 3425 2491 3425 1978
L 3425 0
L 2847 0
L 2847 2094
Q 2847 2600 2669 2842
Q 2491 3084 2119 3084
Q 1678 3084 1418 2786
Q 1159 2488 1159 1978
L 1159 0
L 581 0
L 581 3500
L 1159 3500
L 1159 2956
Q 1356 3278 1631 3431
Q 1906 3584 2284 3584
Q 2666 3584 2933 3390
Q 3200 3197 3328 2828
z
" transform="scale(0.015625)"/>
       <path id="DejaVuSans-65" d="M 3597 1894
L 3597 1613
L 953 1613
Q 991 1019 1311 708
Q 1631 397 2203 397
Q 2534 397 2845 478
Q 3156 559 3463 722
L 3463 178
Q 3153 47 2828 -22
Q 2503 -91 2169 -91
Q 1331 -91 842 396
Q 353 884 353 1716
Q 353 2575 817 3079
Q 1281 3584 2069 3584
Q 2775 3584 3186 3129
Q 3597 2675 3597 1894
z
M 3022 2063
Q 3016 2534 2758 2815
Q 2500 3097 2075 3097
Q 1594 3097 1305 2825
Q 1016 2553 972 2059
L 3022 2063
z
" transform="scale(0.015625)"/>
       <path id="DejaVuSans-20" transform="scale(0.015625)"/>
       <path id="DejaVuSans-28" d="M 1984 4856
Q 1566 4138 1362 3434
Q 1159 2731 1159 2009
Q 1159 1288 1364 580
Q 1569 -128 1984 -844
L 1484 -844
Q 1016 -109 783 600
Q 550 1309 550 2009
Q 550 2706 781 3412
Q 1013 4119 1484 4856
L 1984 4856
z
" transform="scale(0.015625)"/>
       <path id="DejaVuSans-73" d="M 2834 3397
L 2834 2853
Q 2591 2978 2328 3040
Q 2066 3103 1784 3103
Q 1356 3103 1142 2972
Q 928 2841 928 2578
Q 928 2378 1081 2264
Q 1234 2150 1697 2047
L 1894 2003
Q 2506 1872 2764 1633
Q 3022 1394 3022 966
Q 3022 478 2636 193
Q 2250 -91 1575 -91
Q 1294 -91 989 -36
Q 684 19 347 128
L 347 722
Q 666 556 975 473
Q 1284 391 1588 391
Q 1994 391 2212 530
Q 2431 669 2431 922
Q 2431 1156 2273 1281
Q 2116 1406 1581 1522
L 1381 1569
Q 847 1681 609 1914
Q 372 2147 372 2553
Q 372 3047 722 3315
Q 1072 3584 1716 3584
Q 2034 3584 2315 3537
Q 2597 3491 2834 3397
z
" transform="scale(0.015625)"/>
       <path id="DejaVuSans-29" d="M 513 4856
L 1013 4856
Q 1481 4119 1714 3412
Q 1947 2706 1947 2009
Q 1947 1309 1714 600
Q 1481 -109 1013 -844
L 513 -844
Q 928 -128 1133 580
Q 1338 1288 1338 2009
Q 1338 2731 1133 3434
Q 928 4138 513 4856
z
" transform="scale(0.015625)"/>
      </defs>
      <use xlink:href="#DejaVuSans-74"/>
      <use xlink:href="#DejaVuSans-69" transform="translate(39.208984 0)"/>
      <use xlink:href="#DejaVuSans-6d" transform="translate(66.992188 0)"/>
      <use xlink:href="#DejaVuSans-65" transform="translate(164.404297 0)"/>
      <use xlink:href="#DejaVuSans-20" transform="translate(225.927734 0)"/>
      <use xlink:href="#DejaVuSans-28" transform="translate(257.714844 0)"/>
      <use xlink:href="#DejaVuSans-73" transform="translate(296.728516 0)"/>
      <use xlink:href="#DejaVuSans-29" transform="translate(348.828125 0)"/>
     </g>
    </g>
   </g>
   <g id="matplotlib.axis_2">
    <g id="ytick_1">
     <g id="line2d_19">
      <path d="M 53.328125 367.92
L 499.728125 367.92
" clip-path="url(#p70f4469396)" style="fill: none; stroke: #b0b0b0; stroke-width: 0.8; stroke-linecap: square"/>
     </g>
     <g id="line2d_20">
      <defs>
       <path id="m2279b26661" d="M 0 0
L -3.5 0
" style="stroke: #000000; stroke-width: 0.8"/>
      </defs>
      <g>
       <use xlink:href="#m2279b26661" x="53.328125" y="367.92" style="stroke: #000000; stroke-width: 0.8"/>
      </g>
     </g>
     <g id="text_11">
      <!-- 0 -->
      <g transform="translate(39.965625 371.719219) scale(0.1 -0.1)">
       <use xlink:href="#DejaVuSans-30"/>
      </g>
     </g>
    </g>
    <g id="ytick_2">
     <g id="line2d_21">
      <path d="M 53.328125 330.094704
L 499.728125 330.094704
" clip-path="url(#p70f4469396)" style="fill: none; stroke: #b0b0b0; stroke-width: 0.8; stroke-linecap: square"/>
     </g>
     <g id="line2d_22">
      <g>
       <use xlink:href="#m2279b26661" x="53.328125" y="330.094704" style="stroke: #000000; stroke-width: 0.8"/>
      </g>
     </g>
     <g id="text_12">
      <!-- 1000 -->
      <g transform="translate(20.878125 333.893923) scale(0.1 -0.1)">
       <use xlink:href="#DejaVuSans-31"/>
       <use xlink:href="#DejaVuSans-30" transform="translate(63.623047 0)"/>
       <use xlink:href="#DejaVuSans-30" transform="translate(127.246094 0)"/>
       <use xlink:href="#DejaVuSans-30" transform="translate(190.869141 0)"/>
      </g>
     </g>
    </g>
    <g id="ytick_3">
     <g id="line2d_23">
      <path d="M 53.328125 292.269409
L 499.728125 292.269409
" clip-path="url(#p70f4469396)" style="fill: none; stroke: #b0b0b0; stroke-width: 0.8; stroke-linecap: square"/>
     </g>
     <g id="line2d_24">
      <g>
       <use xlink:href="#m2279b26661" x="53.328125" y="292.269409" style="stroke: #000000; stroke-width: 0.8"/>
      </g>
     </g>
     <g id="text_13">
      <!-- 2000 -->
      <g transform="translate(20.878125 296.068627) scale(0.1 -0.1)">
       <use xlink:href="#DejaVuSans-32"/>
       <use xlink:href="#DejaVuSans-30" transform="translate(63.623047 0)"/>
       <use xlink:href="#DejaVuSans-30" transform="translate(127.246094 0)"/>
       <use xlink:href="#DejaVuSans-30" transform="translate(190.869141 0)"/>
      </g>
     </g>
    </g>
    <g id="ytick_4">
     <g id="line2d_25">
      <path d="M 53.328125 254.444113
L 499.728125 254.444113
" clip-path="url(#p70f4469396)" style="fill: none; stroke: #b0b0b0; stroke-width: 0.8; stroke-linecap: square"/>
     </g>
     <g id="line2d_26">
      <g>
       <use xlink:href="#m2279b26661" x="53.328125" y="254.444113" style="stroke: #000000; stroke-width: 0.8"/>
      </g>
     </g>
     <g id="text_14">
      <!-- 3000 -->
      <g transform="translate(20.878125 258.243332) scale(0.1 -0.1)">
       <defs>
        <path id="DejaVuSans-33" d="M 2597 2516
Q 3050 2419 3304 2112
Q 3559 1806 3559 1356
Q 3559 666 3084 287
Q 2609 -91 1734 -91
Q 1441 -91 1130 -33
Q 819 25 488 141
L 488 750
Q 750 597 1062 519
Q 1375 441 1716 441
Q 2309 441 2620 675
Q 2931 909 2931 1356
Q 2931 1769 2642 2001
Q 2353 2234 1838 2234
L 1294 2234
L 1294 2753
L 1863 2753
Q 2328 2753 2575 2939
Q 2822 3125 2822 3475
Q 2822 3834 2567 4026
Q 2313 4219 1838 4219
Q 1578 4219 1281 4162
Q 984 4106 628 3988
L 628 4550
Q 988 4650 1302 4700
Q 1616 4750 1894 4750
Q 2613 4750 3031 4423
Q 3450 4097 3450 3541
Q 3450 3153 3228 2886
Q 3006 2619 2597 2516
z
" transform="scale(0.015625)"/>
       </defs>
       <use xlink:href="#DejaVuSans-33"/>
       <use xlink:href="#DejaVuSans-30" transform="translate(63.623047 0)"/>
       <use xlink:href="#DejaVuSans-30" transform="translate(127.246094 0)"/>
       <use xlink:href="#DejaVuSans-30" transform="translate(190.869141 0)"/>
      </g>
     </g>
    </g>
    <g id="ytick_5">
     <g id="line2d_27">
      <path d="M 53.328125 216.618817
L 499.728125 216.618817
" clip-path="url(#p70f4469396)" style="fill: none; stroke: #b0b0b0; stroke-width: 0.8; stroke-linecap: square"/>
     </g>
     <g id="line2d_28">
      <g>
       <use xlink:href="#m2279b26661" x="53.328125" y="216.618817" style="stroke: #000000; stroke-width: 0.8"/>
      </g>
     </g>
     <g id="text_15">
      <!-- 4000 -->
      <g transform="translate(20.878125 220.418036) scale(0.1 -0.1)">
       <defs>
        <path id="DejaVuSans-34" d="M 2419 4116
L 825 1625
L 2419 1625
L 2419 4116
z
M 2253 4666
L 3047 4666
L 3047 1625
L 3713 1625
L 3713 1100
L 3047 1100
L 3047 0
L 2419 0
L 2419 1100
L 313 1100
L 313 1709
L 2253 4666
z
" transform="scale(0.015625)"/>
       </defs>
       <use xlink:href="#DejaVuSans-34"/>
       <use xlink:href="#DejaVuSans-30" transform="translate(63.623047 0)"/>
       <use xlink:href="#DejaVuSans-30" transform="translate(127.246094 0)"/>
       <use xlink:href="#DejaVuSans-30" transform="translate(190.869141 0)"/>
      </g>
     </g>
    </g>
    <g id="ytick_6">
     <g id="line2d_29">
      <path d="M 53.328125 178.793522
L 499.728125 178.793522
" clip-path="url(#p70f4469396)" style="fill: none; stroke: #b0b0b0; stroke-width: 0.8; stroke-linecap: square"/>
     </g>
     <g id="line2d_30">
      <g>
       <use xlink:href="#m2279b26661" x="53.328125" y="178.793522" style="stroke: #000000; stroke-width: 0.8"/>
      </g>
     </g>
     <g id="text_16">
      <!-- 5000 -->
      <g transform="translate(20.878125 182.59274) scale(0.1 -0.1)">
       <use xlink:href="#DejaVuSans-35"/>
       <use xlink:href="#DejaVuSans-30" transform="translate(63.623047 0)"/>
       <use xlink:href="#DejaVuSans-30" transform="translate(127.246094 0)"/>
       <use xlink:href="#DejaVuSans-30" transform="translate(190.869141 0)"/>
      </g>
     </g>
    </g>
    <g id="ytick_7">
     <g id="line2d_31">
      <path d="M 53.328125 140.968226
L 499.728125 140.968226
" clip-path="url(#p70f4469396)" style="fill: none; stroke: #b0b0b0; stroke-width: 0.8; stroke-linecap: square"/>
     </g>
     <g id="line2d_32">
      <g>
       <use xlink:href="#m2279b26661" x="53.328125" y="140.968226" style="stroke: #000000; stroke-width: 0.8"/>
      </g>
     </g>
     <g id="text_17">
      <!-- 6000 -->
      <g transform="translate(20.878125 144.767445) scale(0.1 -0.1)">
       <defs>
        <path id="DejaVuSans-36" d="M 2113 2584
Q 1688 2584 1439 2293
Q 1191 2003 1191 1497
Q 1191 994 1439 701
Q 1688 409 2113 409
Q 2538 409 2786 701
Q 3034 994 3034 1497
Q 3034 2003 2786 2293
Q 2538 2584 2113 2584
z
M 3366 4563
L 3366 3988
Q 3128 4100 2886 4159
Q 2644 4219 2406 4219
Q 1781 4219 1451 3797
Q 1122 3375 1075 2522
Q 1259 2794 1537 2939
Q 1816 3084 2150 3084
Q 2853 3084 3261 2657
Q 3669 2231 3669 1497
Q 3669 778 3244 343
Q 2819 -91 2113 -91
Q 1303 -91 875 529
Q 447 1150 447 2328
Q 447 3434 972 4092
Q 1497 4750 2381 4750
Q 2619 4750 2861 4703
Q 3103 4656 3366 4563
z
" transform="scale(0.015625)"/>
       </defs>
       <use xlink:href="#DejaVuSans-36"/>
       <use xlink:href="#DejaVuSans-30" transform="translate(63.623047 0)"/>
       <use xlink:href="#DejaVuSans-30" transform="translate(127.246094 0)"/>
       <use xlink:href="#DejaVuSans-30" transform="translate(190.869141 0)"/>
      </g>
     </g>
    </g>
    <g id="ytick_8">
     <g id="line2d_33">
      <path d="M 53.328125 103.14293
L 499.728125 103.14293
" clip-path="url(#p70f4469396)" style="fill: none; stroke: #b0b0b0; stroke-width: 0.8; stroke-linecap: square"/>
     </g>
     <g id="line2d_34">
      <g>
       <use xlink:href="#m2279b26661" x="53.328125" y="103.14293" style="stroke: #000000; stroke-width: 0.8"/>
      </g>
     </g>
     <g id="text_18">
      <!-- 7000 -->
      <g transform="translate(20.878125 106.942149) scale(0.1 -0.1)">
       <use xlink:href="#DejaVuSans-37"/>
       <use xlink:href="#DejaVuSans-30" transform="translate(63.623047 0)"/>
       <use xlink:href="#DejaVuSans-30" transform="translate(127.246094 0)"/>
       <use xlink:href="#DejaVuSans-30" transform="translate(190.869141 0)"/>
      </g>
     </g>
    </g>
    <g id="ytick_9">
     <g id="line2d_35">
      <path d="M 53.328125 65.317635
L 499.728125 65.317635
" clip-path="url(#p70f4469396)" style="fill: none; stroke: #b0b0b0; stroke-width: 0.8; stroke-linecap: square"/>
     </g>
     <g id="line2d_36">
      <g>
       <use xlink:href="#m2279b26661" x="53.328125" y="65.317635" style="stroke: #000000; stroke-width: 0.8"/>
      </g>
     </g>
     <g id="text_19">
      <!-- 8000 -->
      <g transform="translate(20.878125 69.116853) scale(0.1 -0.1)">
       <defs>
        <path id="DejaVuSans-38" d="M 2034 2216
Q 1584 2216 1326 1975
Q 1069 1734 1069 1313
Q 1069 891 1326 650
Q 1584 409 2034 409
Q 2484 409 2743 651
Q 3003 894 3003 1313
Q 3003 1734 2745 1975
Q 2488 2216 2034 2216
z
M 1403 2484
Q 997 2584 770 2862
Q 544 3141 544 3541
Q 544 4100 942 4425
Q 1341 4750 2034 4750
Q 2731 4750 3128 4425
Q 3525 4100 3525 3541
Q 3525 3141 3298 2862
Q 3072 2584 2669 2484
Q 3125 2378 3379 2068
Q 3634 1759 3634 1313
Q 3634 634 3220 271
Q 2806 -91 2034 -91
Q 1263 -91 848 271
Q 434 634 434 1313
Q 434 1759 690 2068
Q 947 2378 1403 2484
z
M 1172 3481
Q 1172 3119 1398 2916
Q 1625 2713 2034 2713
Q 2441 2713 2670 2916
Q 2900 3119 2900 3481
Q 2900 3844 2670 4047
Q 2441 4250 2034 4250
Q 1625 4250 1398 4047
Q 1172 3844 1172 3481
z
" transform="scale(0.015625)"/>
       </defs>
       <use xlink:href="#DejaVuSans-38"/>
       <use xlink:href="#DejaVuSans-30" transform="translate(63.623047 0)"/>
       <use xlink:href="#DejaVuSans-30" transform="translate(127.246094 0)"/>
       <use xlink:href="#DejaVuSans-30" transform="translate(190.869141 0)"/>
      </g>
     </g>
    </g>
    <g id="text_20">
     <!-- angular acceleration z (rad/s^2) -->
     <g transform="translate(14.798438 297.852812) rotate(-90) scale(0.1 -0.1)">
      <defs>
       <path id="DejaVuSans-61" d="M 2194 1759
Q 1497 1759 1228 1600
Q 959 1441 959 1056
Q 959 750 1161 570
Q 1363 391 1709 391
Q 2188 391 2477 730
Q 2766 1069 2766 1631
L 2766 1759
L 2194 1759
z
M 3341 1997
L 3341 0
L 2766 0
L 2766 531
Q 2569 213 2275 61
Q 1981 -91 1556 -91
Q 1019 -91 701 211
Q 384 513 384 1019
Q 384 1609 779 1909
Q 1175 2209 1959 2209
L 2766 2209
L 2766 2266
Q 2766 2663 2505 2880
Q 2244 3097 1772 3097
Q 1472 3097 1187 3025
Q 903 2953 641 2809
L 641 3341
Q 956 3463 1253 3523
Q 1550 3584 1831 3584
Q 2591 3584 2966 3190
Q 3341 2797 3341 1997
z
" transform="scale(0.015625)"/>
       <path id="DejaVuSans-6e" d="M 3513 2113
L 3513 0
L 2938 0
L 2938 2094
Q 2938 2591 2744 2837
Q 2550 3084 2163 3084
Q 1697 3084 1428 2787
Q 1159 2491 1159 1978
L 1159 0
L 581 0
L 581 3500
L 1159 3500
L 1159 2956
Q 1366 3272 1645 3428
Q 1925 3584 2291 3584
Q 2894 3584 3203 3211
Q 3513 2838 3513 2113
z
" transform="scale(0.015625)"/>
       <path id="DejaVuSans-67" d="M 2906 1791
Q 2906 2416 2648 2759
Q 2391 3103 1925 3103
Q 1463 3103 1205 2759
Q 947 2416 947 1791
Q 947 1169 1205 825
Q 1463 481 1925 481
Q 2391 481 2648 825
Q 2906 1169 2906 1791
z
M 3481 434
Q 3481 -459 3084 -895
Q 2688 -1331 1869 -1331
Q 1566 -1331 1297 -1286
Q 1028 -1241 775 -1147
L 775 -588
Q 1028 -725 1275 -790
Q 1522 -856 1778 -856
Q 2344 -856 2625 -561
Q 2906 -266 2906 331
L 2906 616
Q 2728 306 2450 153
Q 2172 0 1784 0
Q 1141 0 747 490
Q 353 981 353 1791
Q 353 2603 747 3093
Q 1141 3584 1784 3584
Q 2172 3584 2450 3431
Q 2728 3278 2906 2969
L 2906 3500
L 3481 3500
L 3481 434
z
" transform="scale(0.015625)"/>
       <path id="DejaVuSans-75" d="M 544 1381
L 544 3500
L 1119 3500
L 1119 1403
Q 1119 906 1312 657
Q 1506 409 1894 409
Q 2359 409 2629 706
Q 2900 1003 2900 1516
L 2900 3500
L 3475 3500
L 3475 0
L 2900 0
L 2900 538
Q 2691 219 2414 64
Q 2138 -91 1772 -91
Q 1169 -91 856 284
Q 544 659 544 1381
z
M 1991 3584
L 1991 3584
z
" transform="scale(0.015625)"/>
       <path id="DejaVuSans-6c" d="M 603 4863
L 1178 4863
L 1178 0
L 603 0
L 603 4863
z
" transform="scale(0.015625)"/>
       <path id="DejaVuSans-72" d="M 2631 2963
Q 2534 3019 2420 3045
Q 2306 3072 2169 3072
Q 1681 3072 1420 2755
Q 1159 2438 1159 1844
L 1159 0
L 581 0
L 581 3500
L 1159 3500
L 1159 2956
Q 1341 3275 1631 3429
Q 1922 3584 2338 3584
Q 2397 3584 2469 3576
Q 2541 3569 2628 3553
L 2631 2963
z
" transform="scale(0.015625)"/>
       <path id="DejaVuSans-63" d="M 3122 3366
L 3122 2828
Q 2878 2963 2633 3030
Q 2388 3097 2138 3097
Q 1578 3097 1268 2742
Q 959 2388 959 1747
Q 959 1106 1268 751
Q 1578 397 2138 397
Q 2388 397 2633 464
Q 2878 531 3122 666
L 3122 134
Q 2881 22 2623 -34
Q 2366 -91 2075 -91
Q 1284 -91 818 406
Q 353 903 353 1747
Q 353 2603 823 3093
Q 1294 3584 2113 3584
Q 2378 3584 2631 3529
Q 2884 3475 3122 3366
z
" transform="scale(0.015625)"/>
       <path id="DejaVuSans-6f" d="M 1959 3097
Q 1497 3097 1228 2736
Q 959 2375 959 1747
Q 959 1119 1226 758
Q 1494 397 1959 397
Q 2419 397 2687 759
Q 2956 1122 2956 1747
Q 2956 2369 2687 2733
Q 2419 3097 1959 3097
z
M 1959 3584
Q 2709 3584 3137 3096
Q 3566 2609 3566 1747
Q 3566 888 3137 398
Q 2709 -91 1959 -91
Q 1206 -91 779 398
Q 353 888 353 1747
Q 353 2609 779 3096
Q 1206 3584 1959 3584
z
" transform="scale(0.015625)"/>
       <path id="DejaVuSans-7a" d="M 353 3500
L 3084 3500
L 3084 2975
L 922 459
L 3084 459
L 3084 0
L 275 0
L 275 525
L 2438 3041
L 353 3041
L 353 3500
z
" transform="scale(0.015625)"/>
       <path id="DejaVuSans-64" d="M 2906 2969
L 2906 4863
L 3481 4863
L 3481 0
L 2906 0
L 2906 525
Q 2725 213 2448 61
Q 2172 -91 1784 -91
Q 1150 -91 751 415
Q 353 922 353 1747
Q 353 2572 751 3078
Q 1150 3584 1784 3584
Q 2172 3584 2448 3432
Q 2725 3281 2906 2969
z
M 947 1747
Q 947 1113 1208 752
Q 1469 391 1925 391
Q 2381 391 2643 752
Q 2906 1113 2906 1747
Q 2906 2381 2643 2742
Q 2381 3103 1925 3103
Q 1469 3103 1208 2742
Q 947 2381 947 1747
z
" transform="scale(0.015625)"/>
       <path id="DejaVuSans-2f" d="M 1625 4666
L 2156 4666
L 531 -594
L 0 -594
L 1625 4666
z
" transform="scale(0.015625)"/>
       <path id="DejaVuSans-5e" d="M 2988 4666
L 4684 2925
L 4056 2925
L 2681 4159
L 1306 2925
L 678 2925
L 2375 4666
L 2988 4666
z
" transform="scale(0.015625)"/>
      </defs>
      <use xlink:href="#DejaVuSans-61"/>
      <use xlink:href="#DejaVuSans-6e" transform="translate(61.279297 0)"/>
      <use xlink:href="#DejaVuSans-67" transform="translate(124.658203 0)"/>
      <use xlink:href="#DejaVuSans-75" transform="translate(188.134766 0)"/>
      <use xlink:href="#DejaVuSans-6c" transform="translate(251.513672 0)"/>
      <use xlink:href="#DejaVuSans-61" transform="translate(279.296875 0)"/>
      <use xlink:href="#DejaVuSans-72" transform="translate(340.576172 0)"/>
      <use xlink:href="#DejaVuSans-20" transform="translate(381.689453 0)"/>
      <use xlink:href="#DejaVuSans-61" transform="translate(413.476562 0)"/>
      <use xlink:href="#DejaVuSans-63" transform="translate(474.755859 0)"/>
      <use xlink:href="#DejaVuSans-63" transform="translate(529.736328 0)"/>
      <use xlink:href="#DejaVuSans-65" transform="translate(584.716797 0)"/>
      <use xlink:href="#DejaVuSans-6c" transform="translate(646.240234 0)"/>
      <use xlink:href="#DejaVuSans-65" transform="translate(674.023438 0)"/>
      <use xlink:href="#DejaVuSans-72" transform="translate(735.546875 0)"/>
      <use xlink:href="#DejaVuSans-61" transform="translate(776.660156 0)"/>
      <use xlink:href="#DejaVuSans-74" transform="translate(837.939453 0)"/>
      <use xlink:href="#DejaVuSans-69" transform="translate(877.148438 0)"/>
      <use xlink:href="#DejaVuSans-6f" transform="translate(904.931641 0)"/>
      <use xlink:href="#DejaVuSans-6e" transform="translate(966.113281 0)"/>
      <use xlink:href="#DejaVuSans-20" transform="translate(1029.492188 0)"/>
      <use xlink:href="#DejaVuSans-7a" transform="translate(1061.279297 0)"/>
      <use xlink:href="#DejaVuSans-20" transform="translate(1113.769531 0)"/>
      <use xlink:href="#DejaVuSans-28" transform="translate(1145.556641 0)"/>
      <use xlink:href="#DejaVuSans-72" transform="translate(1184.570312 0)"/>
      <use xlink:href="#DejaVuSans-61" transform="translate(1225.683594 0)"/>
      <use xlink:href="#DejaVuSans-64" transform="translate(1286.962891 0)"/>
      <use xlink:href="#DejaVuSans-2f" transform="translate(1350.439453 0)"/>
      <use xlink:href="#DejaVuSans-73" transform="translate(1384.130859 0)"/>
      <use xlink:href="#DejaVuSans-5e" transform="translate(1436.230469 0)"/>
      <use xlink:href="#DejaVuSans-32" transform="translate(1520.019531 0)"/>
      <use xlink:href="#DejaVuSans-29" transform="translate(1583.642578 0)"/>
     </g>
    </g>
   </g>
   <g id="line2d_37">
    <path d="M 73.619034 367.92
L 78.716256 367.753337
L 83.777606 357.853062
L 88.838935 328.434552
L 93.936218 289.71204
L 98.997507 250.947921
L 104.058796 215.53777
L 109.155592 184.328119
L 114.21607 157.819395
L 119.275532 135.473724
L 124.369285 116.741881
L 129.425096 101.500178
L 134.513573 89.192583
L 139.561673 79.703351
L 144.638991 72.686381
L 149.708193 68.050134
L 154.803366 65.670923
L 159.851264 65.52
L 164.956379 67.594339
L 170.011175 71.903775
L 175.085246 78.578805
L 180.142274 87.723827
L 185.21594 99.602104
L 190.305837 114.516618
L 195.37646 132.681838
L 200.463314 154.615971
L 205.532313 180.589467
L 210.585486 210.913628
L 215.658948 245.835832
L 220.721252 284.285245
L 225.809729 323.359532
L 230.894148 354.87659
L 235.944481 367.472844
L 241.033567 367.92
L 246.097087 367.92
L 251.172782 367.92
L 256.228593 367.92
L 261.300229 367.92
L 266.378562 367.92
L 271.454054 367.92
L 276.523053 367.92
L 281.619849 367.92
L 286.680123 367.92
L 291.740397 367.92
L 296.837193 367.92
L 301.903555 367.92
L 306.973974 367.92
L 312.044393 367.92
L 317.1209 367.92
L 322.199435 367.92
L 327.251593 367.92
L 332.344331 367.92
L 337.402577 367.92
L 342.460822 367.92
L 347.557618 367.92
L 352.621951 367.92
L 357.690341 367.92
L 362.76076 367.92
L 367.837267 367.92
L 372.917831 367.92
L 377.965931 367.92
L 383.05664 367.92
L 388.116915 367.92
L 393.185305 367.92
L 398.259782 367.92
L 403.342376 367.92
L 408.431056 367.92
L 413.495388 367.92
L 418.565807 367.92
L 423.648401 367.92
L 428.704617 367.92
L 433.770978 367.92
L 438.847485 367.92
L 443.934136 367.92
L 448.99441 367.92
L 454.06483 367.92
L 459.145394 367.92
L 464.199581 367.92
L 469.29029 367.92
L 474.346507 367.92
L 479.437216 367.92
" clip-path="url(#p70f4469396)" style="fill: none; stroke: #00008b; stroke-width: 3; stroke-linecap: square"/>
   </g>
   <g id="patch_3">
    <path d="M 53.328125 383.04
L 53.328125 50.4
" style="fill: none; stroke: #000000; stroke-width: 0.8; stroke-linejoin: miter; stroke-linecap: square"/>
   </g>
   <g id="patch_4">
    <path d="M 499.728125 383.04
L 499.728125 50.4
" style="fill: none; stroke: #000000; stroke-width: 0.8; stroke-linejoin: miter; stroke-linecap: square"/>
   </g>
   <g id="patch_5">
    <path d="M 53.328125 383.04
L 499.728125 383.04
" style="fill: none; stroke: #000000; stroke-width: 0.8; stroke-linejoin: miter; stroke-linecap: square"/>
   </g>
   <g id="patch_6">
    <path d="M 53.328125 50.4
L 499.728125 50.4
" style="fill: none; stroke: #000000; stroke-width: 0.8; stroke-linejoin: miter; stroke-linecap: square"/>
   </g>
   <g id="text_21">
    <!-- sr2_angular_acceleration_z.svg created 2025-01-14 11:29:08 EST-0500 by chovey on s1088757 -->
    <g style="fill: #696969" transform="translate(84.434375 44.4) scale(0.08 -0.08)">
     <defs>
      <path id="DejaVuSans-5f" d="M 3263 -1063
L 3263 -1509
L -63 -1509
L -63 -1063
L 3263 -1063
z
" transform="scale(0.015625)"/>
      <path id="DejaVuSans-76" d="M 191 3500
L 800 3500
L 1894 563
L 2988 3500
L 3597 3500
L 2284 0
L 1503 0
L 191 3500
z
" transform="scale(0.015625)"/>
      <path id="DejaVuSans-2d" d="M 313 2009
L 1997 2009
L 1997 1497
L 313 1497
L 313 2009
z
" transform="scale(0.015625)"/>
      <path id="DejaVuSans-3a" d="M 750 794
L 1409 794
L 1409 0
L 750 0
L 750 794
z
M 750 3309
L 1409 3309
L 1409 2516
L 750 2516
L 750 3309
z
" transform="scale(0.015625)"/>
      <path id="DejaVuSans-39" d="M 703 97
L 703 672
Q 941 559 1184 500
Q 1428 441 1663 441
Q 2288 441 2617 861
Q 2947 1281 2994 2138
Q 2813 1869 2534 1725
Q 2256 1581 1919 1581
Q 1219 1581 811 2004
Q 403 2428 403 3163
Q 403 3881 828 4315
Q 1253 4750 1959 4750
Q 2769 4750 3195 4129
Q 3622 3509 3622 2328
Q 3622 1225 3098 567
Q 2575 -91 1691 -91
Q 1453 -91 1209 -44
Q 966 3 703 97
z
M 1959 2075
Q 2384 2075 2632 2365
Q 2881 2656 2881 3163
Q 2881 3666 2632 3958
Q 2384 4250 1959 4250
Q 1534 4250 1286 3958
Q 1038 3666 1038 3163
Q 1038 2656 1286 2365
Q 1534 2075 1959 2075
z
" transform="scale(0.015625)"/>
      <path id="DejaVuSans-45" d="M 628 4666
L 3578 4666
L 3578 4134
L 1259 4134
L 1259 2753
L 3481 2753
L 3481 2222
L 1259 2222
L 1259 531
L 3634 531
L 3634 0
L 628 0
L 628 4666
z
" transform="scale(0.015625)"/>
      <path id="DejaVuSans-53" d="M 3425 4513
L 3425 3897
Q 3066 4069 2747 4153
Q 2428 4238 2131 4238
Q 1616 4238 1336 4038
Q 1056 3838 1056 3469
Q 1056 3159 1242 3001
Q 1428 2844 1947 2747
L 2328 2669
Q 3034 2534 3370 2195
Q 3706 1856 3706 1288
Q 3706 609 3251 259
Q 2797 -91 1919 -91
Q 1588 -91 1214 -16
Q 841 59 441 206
L 441 856
Q 825 641 1194 531
Q 1563 422 1919 422
Q 2459 422 2753 634
Q 3047 847 3047 1241
Q 3047 1584 2836 1778
Q 2625 1972 2144 2069
L 1759 2144
Q 1053 2284 737 2584
Q 422 2884 422 3419
Q 422 4038 858 4394
Q 1294 4750 2059 4750
Q 2388 4750 2728 4690
Q 3069 4631 3425 4513
z
" transform="scale(0.015625)"/>
      <path id="DejaVuSans-54" d="M -19 4666
L 3928 4666
L 3928 4134
L 2272 4134
L 2272 0
L 1638 0
L 1638 4134
L -19 4134
L -19 4666
z
" transform="scale(0.015625)"/>
      <path id="DejaVuSans-62" d="M 3116 1747
Q 3116 2381 2855 2742
Q 2594 3103 2138 3103
Q 1681 3103 1420 2742
Q 1159 2381 1159 1747
Q 1159 1113 1420 752
Q 1681 391 2138 391
Q 2594 391 2855 752
Q 3116 1113 3116 1747
z
M 1159 2969
Q 1341 3281 1617 3432
Q 1894 3584 2278 3584
Q 2916 3584 3314 3078
Q 3713 2572 3713 1747
Q 3713 922 3314 415
Q 2916 -91 2278 -91
Q 1894 -91 1617 61
Q 1341 213 1159 525
L 1159 0
L 581 0
L 581 4863
L 1159 4863
L 1159 2969
z
" transform="scale(0.015625)"/>
      <path id="DejaVuSans-79" d="M 2059 -325
Q 1816 -950 1584 -1140
Q 1353 -1331 966 -1331
L 506 -1331
L 506 -850
L 844 -850
Q 1081 -850 1212 -737
Q 1344 -625 1503 -206
L 1606 56
L 191 3500
L 800 3500
L 1894 763
L 2988 3500
L 3597 3500
L 2059 -325
z
" transform="scale(0.015625)"/>
      <path id="DejaVuSans-68" d="M 3513 2113
L 3513 0
L 2938 0
L 2938 2094
Q 2938 2591 2744 2837
Q 2550 3084 2163 3084
Q 1697 3084 1428 2787
Q 1159 2491 1159 1978
L 1159 0
L 581 0
L 581 4863
L 1159 4863
L 1159 2956
Q 1366 3272 1645 3428
Q 1925 3584 2291 3584
Q 2894 3584 3203 3211
Q 3513 2838 3513 2113
z
" transform="scale(0.015625)"/>
     </defs>
     <use xlink:href="#DejaVuSans-73"/>
     <use xlink:href="#DejaVuSans-72" transform="translate(52.099609 0)"/>
     <use xlink:href="#DejaVuSans-32" transform="translate(93.212891 0)"/>
     <use xlink:href="#DejaVuSans-5f" transform="translate(156.835938 0)"/>
     <use xlink:href="#DejaVuSans-61" transform="translate(206.835938 0)"/>
     <use xlink:href="#DejaVuSans-6e" transform="translate(268.115234 0)"/>
     <use xlink:href="#DejaVuSans-67" transform="translate(331.494141 0)"/>
     <use xlink:href="#DejaVuSans-75" transform="translate(394.970703 0)"/>
     <use xlink:href="#DejaVuSans-6c" transform="translate(458.349609 0)"/>
     <use xlink:href="#DejaVuSans-61" transform="translate(486.132812 0)"/>
     <use xlink:href="#DejaVuSans-72" transform="translate(547.412109 0)"/>
     <use xlink:href="#DejaVuSans-5f" transform="translate(588.525391 0)"/>
     <use xlink:href="#DejaVuSans-61" transform="translate(638.525391 0)"/>
     <use xlink:href="#DejaVuSans-63" transform="translate(699.804688 0)"/>
     <use xlink:href="#DejaVuSans-63" transform="translate(754.785156 0)"/>
     <use xlink:href="#DejaVuSans-65" transform="translate(809.765625 0)"/>
     <use xlink:href="#DejaVuSans-6c" transform="translate(871.289062 0)"/>
     <use xlink:href="#DejaVuSans-65" transform="translate(899.072266 0)"/>
     <use xlink:href="#DejaVuSans-72" transform="translate(960.595703 0)"/>
     <use xlink:href="#DejaVuSans-61" transform="translate(1001.708984 0)"/>
     <use xlink:href="#DejaVuSans-74" transform="translate(1062.988281 0)"/>
     <use xlink:href="#DejaVuSans-69" transform="translate(1102.197266 0)"/>
     <use xlink:href="#DejaVuSans-6f" transform="translate(1129.980469 0)"/>
     <use xlink:href="#DejaVuSans-6e" transform="translate(1191.162109 0)"/>
     <use xlink:href="#DejaVuSans-5f" transform="translate(1254.541016 0)"/>
     <use xlink:href="#DejaVuSans-7a" transform="translate(1304.541016 0)"/>
     <use xlink:href="#DejaVuSans-2e" transform="translate(1357.03125 0)"/>
     <use xlink:href="#DejaVuSans-73" transform="translate(1388.818359 0)"/>
     <use xlink:href="#DejaVuSans-76" transform="translate(1440.917969 0)"/>
     <use xlink:href="#DejaVuSans-67" transform="translate(1500.097656 0)"/>
     <use xlink:href="#DejaVuSans-20" transform="translate(1563.574219 0)"/>
     <use xlink:href="#DejaVuSans-63" transform="translate(1595.361328 0)"/>
     <use xlink:href="#DejaVuSans-72" transform="translate(1650.341797 0)"/>
     <use xlink:href="#DejaVuSans-65" transform="translate(1689.205078 0)"/>
     <use xlink:href="#DejaVuSans-61" transform="translate(1750.728516 0)"/>
     <use xlink:href="#DejaVuSans-74" transform="translate(1812.007812 0)"/>
     <use xlink:href="#DejaVuSans-65" transform="translate(1851.216797 0)"/>
     <use xlink:href="#DejaVuSans-64" transform="translate(1912.740234 0)"/>
     <use xlink:href="#DejaVuSans-20" transform="translate(1976.216797 0)"/>
     <use xlink:href="#DejaVuSans-32" transform="translate(2008.003906 0)"/>
     <use xlink:href="#DejaVuSans-30" transform="translate(2071.626953 0)"/>
     <use xlink:href="#DejaVuSans-32" transform="translate(2135.25 0)"/>
     <use xlink:href="#DejaVuSans-35" transform="translate(2198.873047 0)"/>
     <use xlink:href="#DejaVuSans-2d" transform="translate(2262.496094 0)"/>
     <use xlink:href="#DejaVuSans-30" transform="translate(2298.580078 0)"/>
     <use xlink:href="#DejaVuSans-31" transform="translate(2362.203125 0)"/>
     <use xlink:href="#DejaVuSans-2d" transform="translate(2425.826172 0)"/>
     <use xlink:href="#DejaVuSans-31" transform="translate(2461.910156 0)"/>
     <use xlink:href="#DejaVuSans-34" transform="translate(2525.533203 0)"/>
     <use xlink:href="#DejaVuSans-20" transform="translate(2589.15625 0)"/>
     <use xlink:href="#DejaVuSans-31" transform="translate(2620.943359 0)"/>
     <use xlink:href="#DejaVuSans-31" transform="translate(2684.566406 0)"/>
     <use xlink:href="#DejaVuSans-3a" transform="translate(2748.189453 0)"/>
     <use xlink:href="#DejaVuSans-32" transform="translate(2781.880859 0)"/>
     <use xlink:href="#DejaVuSans-39" transform="translate(2845.503906 0)"/>
     <use xlink:href="#DejaVuSans-3a" transform="translate(2909.126953 0)"/>
     <use xlink:href="#DejaVuSans-30" transform="translate(2942.818359 0)"/>
     <use xlink:href="#DejaVuSans-38" transform="translate(3006.441406 0)"/>
     <use xlink:href="#DejaVuSans-20" transform="translate(3070.064453 0)"/>
     <use xlink:href="#DejaVuSans-45" transform="translate(3101.851562 0)"/>
     <use xlink:href="#DejaVuSans-53" transform="translate(3165.035156 0)"/>
     <use xlink:href="#DejaVuSans-54" transform="translate(3228.511719 0)"/>
     <use xlink:href="#DejaVuSans-2d" transform="translate(3280.470703 0)"/>
     <use xlink:href="#DejaVuSans-30" transform="translate(3316.554688 0)"/>
     <use xlink:href="#DejaVuSans-35" transform="translate(3380.177734 0)"/>
     <use xlink:href="#DejaVuSans-30" transform="translate(3443.800781 0)"/>
     <use xlink:href="#DejaVuSans-30" transform="translate(3507.423828 0)"/>
     <use xlink:href="#DejaVuSans-20" transform="translate(3571.046875 0)"/>
     <use xlink:href="#DejaVuSans-62" transform="translate(3602.833984 0)"/>
     <use xlink:href="#DejaVuSans-79" transform="translate(3666.310547 0)"/>
     <use xlink:href="#DejaVuSans-20" transform="translate(3725.490234 0)"/>
     <use xlink:href="#DejaVuSans-63" transform="translate(3757.277344 0)"/>
     <use xlink:href="#DejaVuSans-68" transform="translate(3812.257812 0)"/>
     <use xlink:href="#DejaVuSans-6f" transform="translate(3875.636719 0)"/>
     <use xlink:href="#DejaVuSans-76" transform="translate(3936.818359 0)"/>
     <use xlink:href="#DejaVuSans-65" transform="translate(3995.998047 0)"/>
     <use xlink:href="#DejaVuSans-79" transform="translate(4057.521484 0)"/>
     <use xlink:href="#DejaVuSans-20" transform="translate(4116.701172 0)"/>
     <use xlink:href="#DejaVuSans-6f" transform="translate(4148.488281 0)"/>
     <use xlink:href="#DejaVuSans-6e" transform="translate(4209.669922 0)"/>
     <use xlink:href="#DejaVuSans-20" transform="translate(4273.048828 0)"/>
     <use xlink:href="#DejaVuSans-73" transform="translate(4304.835938 0)"/>
     <use xlink:href="#DejaVuSans-31" transform="translate(4356.935547 0)"/>
     <use xlink:href="#DejaVuSans-30" transform="translate(4420.558594 0)"/>
     <use xlink:href="#DejaVuSans-38" transform="translate(4484.181641 0)"/>
     <use xlink:href="#DejaVuSans-38" transform="translate(4547.804688 0)"/>
     <use xlink:href="#DejaVuSans-37" transform="translate(4611.427734 0)"/>
     <use xlink:href="#DejaVuSans-35" transform="translate(4675.050781 0)"/>
     <use xlink:href="#DejaVuSans-37" transform="translate(4738.673828 0)"/>
    </g>
   </g>
   <g id="legend_1">
    <g id="patch_7">
     <path d="M 349.351562 73.078125
L 492.728125 73.078125
Q 494.728125 73.078125 494.728125 71.078125
L 494.728125 57.4
Q 494.728125 55.4 492.728125 55.4
L 349.351562 55.4
Q 347.351562 55.4 347.351562 57.4
L 347.351562 71.078125
Q 347.351562 73.078125 349.351562 73.078125
z
" style="fill: #ffffff; opacity: 0.8; stroke: #cccccc; stroke-linejoin: miter"/>
    </g>
    <g id="line2d_38">
     <path d="M 351.351562 63.498438
L 361.351562 63.498438
L 371.351562 63.498438
" style="fill: none; stroke: #00008b; stroke-width: 3; stroke-linecap: square"/>
    </g>
    <g id="text_22">
     <!-- angular acceleration z -->
     <g transform="translate(379.351562 66.998438) scale(0.1 -0.1)">
      <use xlink:href="#DejaVuSans-61"/>
      <use xlink:href="#DejaVuSans-6e" transform="translate(61.279297 0)"/>
      <use xlink:href="#DejaVuSans-67" transform="translate(124.658203 0)"/>
      <use xlink:href="#DejaVuSans-75" transform="translate(188.134766 0)"/>
      <use xlink:href="#DejaVuSans-6c" transform="translate(251.513672 0)"/>
      <use xlink:href="#DejaVuSans-61" transform="translate(279.296875 0)"/>
      <use xlink:href="#DejaVuSans-72" transform="translate(340.576172 0)"/>
      <use xlink:href="#DejaVuSans-20" transform="translate(381.689453 0)"/>
      <use xlink:href="#DejaVuSans-61" transform="translate(413.476562 0)"/>
      <use xlink:href="#DejaVuSans-63" transform="translate(474.755859 0)"/>
      <use xlink:href="#DejaVuSans-63" transform="translate(529.736328 0)"/>
      <use xlink:href="#DejaVuSans-65" transform="translate(584.716797 0)"/>
      <use xlink:href="#DejaVuSans-6c" transform="translate(646.240234 0)"/>
      <use xlink:href="#DejaVuSans-65" transform="translate(674.023438 0)"/>
      <use xlink:href="#DejaVuSans-72" transform="translate(735.546875 0)"/>
      <use xlink:href="#DejaVuSans-61" transform="translate(776.660156 0)"/>
      <use xlink:href="#DejaVuSans-74" transform="translate(837.939453 0)"/>
      <use xlink:href="#DejaVuSans-69" transform="translate(877.148438 0)"/>
      <use xlink:href="#DejaVuSans-6f" transform="translate(904.931641 0)"/>
      <use xlink:href="#DejaVuSans-6e" transform="translate(966.113281 0)"/>
      <use xlink:href="#DejaVuSans-20" transform="translate(1029.492188 0)"/>
      <use xlink:href="#DejaVuSans-7a" transform="translate(1061.279297 0)"/>
     </g>
    </g>
   </g>
  </g>
  <g id="text_23">
   <!-- sr2 angular acceleration versus time -->
   <g transform="translate(159.109062 16.318125) scale(0.12 -0.12)">
    <use xlink:href="#DejaVuSans-73"/>
    <use xlink:href="#DejaVuSans-72" transform="translate(52.099609 0)"/>
    <use xlink:href="#DejaVuSans-32" transform="translate(93.212891 0)"/>
    <use xlink:href="#DejaVuSans-20" transform="translate(156.835938 0)"/>
    <use xlink:href="#DejaVuSans-61" transform="translate(188.623047 0)"/>
    <use xlink:href="#DejaVuSans-6e" transform="translate(249.902344 0)"/>
    <use xlink:href="#DejaVuSans-67" transform="translate(313.28125 0)"/>
    <use xlink:href="#DejaVuSans-75" transform="translate(376.757812 0)"/>
    <use xlink:href="#DejaVuSans-6c" transform="translate(440.136719 0)"/>
    <use xlink:href="#DejaVuSans-61" transform="translate(467.919922 0)"/>
    <use xlink:href="#DejaVuSans-72" transform="translate(529.199219 0)"/>
    <use xlink:href="#DejaVuSans-20" transform="translate(570.3125 0)"/>
    <use xlink:href="#DejaVuSans-61" transform="translate(602.099609 0)"/>
    <use xlink:href="#DejaVuSans-63" transform="translate(663.378906 0)"/>
    <use xlink:href="#DejaVuSans-63" transform="translate(718.359375 0)"/>
    <use xlink:href="#DejaVuSans-65" transform="translate(773.339844 0)"/>
    <use xlink:href="#DejaVuSans-6c" transform="translate(834.863281 0)"/>
    <use xlink:href="#DejaVuSans-65" transform="translate(862.646484 0)"/>
    <use xlink:href="#DejaVuSans-72" transform="translate(924.169922 0)"/>
    <use xlink:href="#DejaVuSans-61" transform="translate(965.283203 0)"/>
    <use xlink:href="#DejaVuSans-74" transform="translate(1026.5625 0)"/>
    <use xlink:href="#DejaVuSans-69" transform="translate(1065.771484 0)"/>
    <use xlink:href="#DejaVuSans-6f" transform="translate(1093.554688 0)"/>
    <use xlink:href="#DejaVuSans-6e" transform="translate(1154.736328 0)"/>
    <use xlink:href="#DejaVuSans-20" transform="translate(1218.115234 0)"/>
    <use xlink:href="#DejaVuSans-76" transform="translate(1249.902344 0)"/>
    <use xlink:href="#DejaVuSans-65" transform="translate(1309.082031 0)"/>
    <use xlink:href="#DejaVuSans-72" transform="translate(1370.605469 0)"/>
    <use xlink:href="#DejaVuSans-73" transform="translate(1411.71875 0)"/>
    <use xlink:href="#DejaVuSans-75" transform="translate(1463.818359 0)"/>
    <use xlink:href="#DejaVuSans-73" transform="translate(1527.197266 0)"/>
    <use xlink:href="#DejaVuSans-20" transform="translate(1579.296875 0)"/>
    <use xlink:href="#DejaVuSans-74" transform="translate(1611.083984 0)"/>
    <use xlink:href="#DejaVuSans-69" transform="translate(1650.292969 0)"/>
    <use xlink:href="#DejaVuSans-6d" transform="translate(1678.076172 0)"/>
    <use xlink:href="#DejaVuSans-65" transform="translate(1775.488281 0)"/>
   </g>
  </g>
 </g>
 <defs>
  <clipPath id="p70f4469396">
   <rect x="53.328125" y="50.4" width="446.4" height="332.64"/>
  </clipPath>
 </defs>
</svg>
