<?xml version="1.0" encoding="UTF-8" standalone="no"?>
<!-- Created with Inkscape (http://www.inkscape.org/) -->

<svg
   width="210mm"
   height="297mm"
   viewBox="0 0 210 297"
   version="1.1"
   id="svg1"
   sodipodi:docname="pet_2.svg"
   inkscape:version="1.3 (0e150ed, 2023-07-21)"
   xmlns:inkscape="http://www.inkscape.org/namespaces/inkscape"
   xmlns:sodipodi="http://sodipodi.sourceforge.net/DTD/sodipodi-0.dtd"
   xmlns="http://www.w3.org/2000/svg"
   xmlns:svg="http://www.w3.org/2000/svg">
  <sodipodi:namedview
     id="namedview1"
     pagecolor="#ffffff"
     bordercolor="#000000"
     borderopacity="0.25"
     inkscape:showpageshadow="2"
     inkscape:pageopacity="0.0"
     inkscape:pagecheckerboard="0"
     inkscape:deskcolor="#d1d1d1"
     inkscape:document-units="mm"
     inkscape:zoom="1.0280428"
     inkscape:cx="254.36684"
     inkscape:cy="515.54274"
     inkscape:window-width="1850"
     inkscape:window-height="1016"
     inkscape:window-x="0"
     inkscape:window-y="0"
     inkscape:window-maximized="1"
     inkscape:current-layer="layer1" />
  <defs
     id="defs1" />
  <g
     inkscape:label="Layer 1"
     inkscape:groupmode="layer"
     id="layer1">
    <path
       style="fill:#000080;stroke-width:0.763;stroke-linecap:round;stroke-linejoin:round"
       id="path14"
       d="m 109.33934,261.15384 c 2.28384,-8.00712 2.40358,-16.55406 1.09076,-24.75081 -0.42946,-2.68137 -1.1241,-5.31349 -1.68615,-7.97024 -3.1342,-11.82024 -7.82905,-23.15671 -14.990196,-33.13303 -5.143188,-7.16507 -8.906455,-10.85434 -14.908861,-17.39441 -2.960044,-2.92587 -5.889805,-5.88269 -8.880131,-8.7776 -4.618217,-4.47087 -13.852308,-13.07803 -18.522828,-17.47494 -7.940463,-7.47529 -15.804351,-15.02965 -23.732879,-22.51743 -1.798929,-1.71244 -3.59786,-3.42488 -5.39679,-5.13733 -4.833345,-4.40661 -11.06524,2.42877 -6.231896,6.83539 v 0 c 1.865124,1.62811 3.730247,3.25623 5.595371,4.88435 8.125122,7.22495 16.109511,14.58627 24.041061,22.02379 4.068312,3.81491 14.273048,13.42083 18.290264,17.36028 2.869975,2.81442 5.666383,5.70289 8.499576,8.55434 5.814964,6.48704 8.782261,9.38958 13.719585,16.41135 6.417783,9.12725 10.742715,19.42961 13.489852,30.21011 0.458752,2.33855 1.033932,4.65724 1.376262,7.01565 0.96425,6.64305 0.94001,13.75061 -1.392137,20.11329 -2.649693,6.8159 6.989447,10.56313 9.639137,3.74724 z" />
    <path
       style="fill:#000080;stroke-width:0.763;stroke-linecap:round;stroke-linejoin:round"
       id="path15"
       d="m 101.26358,206.89192 c -0.0921,-0.67555 -0.15334,-1.35603 -0.27635,-2.02664 -0.45535,-2.48247 -1.148578,-5.04584 -1.914709,-7.42857 -2.716651,-8.44904 -6.501518,-16.46531 -10.10096,-24.56137 -5.735384,-12.81695 -10.494,-26.0548 -14.122114,-39.621 -1.991699,-7.44733 -2.423224,-10.04283 -3.960929,-17.46602 -1.39677,-7.1684 -2.331326,-14.41488 -2.161133,-21.729907 0.07615,-3.272996 0.507783,-7.525477 1.023845,-10.802273 0.219446,-1.393396 0.536615,-2.769634 0.804921,-4.154453 0.573381,-2.798948 1.764837,-5.303906 3.14775,-7.766264 3.275396,-6.296536 -5.629248,-10.928646 -8.904644,-4.632111 v 0 c -0.484571,0.982882 -1.026343,1.939581 -1.453716,2.948652 -1.352344,3.193005 -1.491038,4.307713 -2.382105,7.770114 -0.714864,4.500599 -0.991446,5.623478 -1.30185,10.351653 -0.302326,4.605155 -0.36684,9.345369 -0.01056,13.946459 0.468156,6.04599 1.334648,9.96084 2.413598,15.96082 1.628576,7.34879 2.274138,10.707 4.323365,18.06579 3.860414,13.86275 8.879576,27.36353 14.554589,40.57924 4.073279,9.82054 8.823997,19.85444 9.90555,30.56588 0,7.36484 10.415462,7.36484 10.415462,0 z" />
    <path
       style="fill:#000080;stroke-width:0.763;stroke-linecap:round;stroke-linejoin:round"
       id="path16"
       d="m 103.17058,206.88164 c -0.4359,-6.13815 -0.61006,-12.28035 -0.31659,-18.43111 0.0972,-2.03769 0.27067,-4.07104 0.406,-6.10655 0.82139,-8.12795 2.12185,-16.23138 4.23444,-24.13068 1.09184,-4.08254 1.70788,-5.64413 3.06514,-9.56341 3.07856,-9.00821 7.78138,-17.30462 12.17855,-25.70517 7.04323,-13.24376 11.89183,-27.489304 16.50837,-41.716188 2.70665,-9.393618 5.56389,-18.858404 6.75685,-28.596068 0.14968,-1.221772 0.22205,-2.45178 0.33307,-3.677669 0.10306,-3.865538 0.18859,-1.986743 -0.21689,-5.638059 -1.12421,-7.111571 -11.18149,-5.521687 -10.05728,1.589881 v 0 c 0.49583,1.800172 0.28217,0.699395 0.36945,3.343625 -0.0495,1.030012 -0.0613,2.062522 -0.14834,3.090037 -0.78086,9.213762 -3.35104,18.19158 -5.78759,27.067652 -4.38976,13.713653 -9.15367,27.387369 -16.15813,40.024039 -4.83931,8.77981 -9.83114,17.55446 -12.93134,27.13993 -1.515629,4.63323 -1.92404,5.62586 -3.14872,10.46141 -2.129779,8.40926 -3.497963,16.99217 -4.415959,25.61277 -0.485537,5.96928 -0.585049,6.43846 -0.829286,12.24317 -0.159668,3.79487 -0.05852,7.57088 -0.149373,11.36347 -0.01302,0.5435 -0.05429,1.08595 -0.08144,1.62892 0,7.34618 10.389068,7.34618 10.389068,0 z" />
    <path
       style="fill:#000080;stroke-width:0.763;stroke-linecap:round;stroke-linejoin:round"
       id="path17"
       d="m 111.66204,142.20574 c 0.45157,-6.58276 0.45019,-13.18702 0.49631,-19.78191 0.0755,-8.97671 -0.51348,-17.9483 -1.752,-26.83894 -0.8511,-6.109523 -1.29407,-8.022537 -2.44426,-14.042922 C 105.24661,69.900921 102.4149,58.283398 99.461671,46.699902 98.55406,42.262279 96.921004,37.8607 96.820722,33.2921 96.234714,26.086618 86.044629,26.915358 86.630636,34.120838 v 0 c 0.591291,5.131115 2.140191,10.07232 3.471024,15.048873 3.093378,11.329979 5.998217,22.716371 8.686032,34.148982 0.431001,2.194473 0.903827,4.381143 1.293008,6.583415 1.88498,10.666842 2.78747,21.492972 2.496,32.326672 -0.21026,6.18767 -0.3199,12.40797 -1.23176,18.54263 -1.01422,7.29529 9.30287,8.72962 10.3171,1.43433 z" />
    <path
       style="fill:#000080;stroke-width:0.763;stroke-linecap:round;stroke-linejoin:round"
       id="path18"
       d="m 131.46322,105.78463 c 0.18467,-0.46626 0.3514,-0.94003 0.55402,-1.39877 1.06901,-2.42026 2.38926,-4.753099 3.61646,-7.092569 2.40621,-4.587078 1.42834,-2.715157 3.88514,-7.453632 3.30135,-6.128089 6.21832,-12.453655 9.44874,-18.616954 1.0882,-2.220074 2.31092,-4.397309 3.14803,-6.732529 1.03379,-2.883853 0.92286,-3.278148 1.77473,-6.242251 0.29342,-1.020943 0.64073,-2.025621 0.96109,-3.03843 1.51104,-4.474758 3.31689,-8.838636 5.22841,-13.154284 2.76414,-6.485676 -6.40799,-10.394765 -9.17214,-3.909089 v 0 c -1.90439,4.637918 -3.75636,9.298003 -5.49305,14.001705 -0.38827,1.171368 -0.80173,2.334683 -1.16481,3.514103 -0.65556,2.129472 -0.72721,2.929707 -1.45462,4.921149 -0.76612,2.09741 -1.85253,4.059457 -2.79017,6.079871 -3.06793,6.200555 -5.87058,12.532736 -9.14451,18.631918 -2.84269,5.348346 -5.86757,10.592748 -8.74545,15.920052 -3.23127,6.61013 6.11686,11.17983 9.34813,4.56971 z" />
    <path
       style="fill:#000080;stroke-width:0.763;stroke-linecap:round;stroke-linejoin:round"
       id="path19"
       d="m 111.5671,229.0717 c 0.24297,-5.12872 0.79212,-10.25384 2.23491,-15.2022 0.44805,-1.53669 1.03328,-3.03001 1.54993,-4.54502 3.40404,-9.03379 9.25879,-16.71157 15.1847,-24.20792 0.8901,-1.12519 1.78568,-2.24607 2.67031,-3.37556 2.28517,-2.91772 3.30517,-4.18781 5.40263,-7.30014 2.62815,-3.8998 4.94012,-7.97155 7.2163,-12.08144 3.133,-5.66936 5.56274,-11.66943 7.66171,-17.78453 2.18438,-6.75142 -7.36356,-9.8406 -9.54794,-3.08919 v 0 c -1.68571,5.59212 -3.82834,11.02897 -6.64317,16.15969 -2.0929,3.79527 -4.21079,7.5612 -6.63885,11.15687 -2.0516,3.03817 -2.8722,3.99704 -5.13496,6.89783 -0.88735,1.13757 -1.77641,2.2738 -2.66461,3.41069 -6.50131,8.3971 -12.81052,17.05842 -16.6029,27.07736 -0.61801,1.776 -1.30518,3.52943 -1.85404,5.32801 -1.64657,5.39567 -2.41602,10.97569 -3.16633,16.54639 -0.71357,7.30605 9.61873,8.3152 10.33231,1.00916 z" />
    <path
       style="fill:#000080;stroke-width:0.763;stroke-linecap:round;stroke-linejoin:round"
       id="path20"
       d="m 138.00523,169.16959 c -1.95596,-3.74626 -2.74546,-7.91991 -3.19411,-12.08057 -0.15733,-5.06859 0.50459,-10.13083 1.76787,-15.03262 1.64258,-6.96794 -8.21157,-9.29089 -9.85415,-2.32296 v 0 c -1.322,6.05358 -2.16321,12.25778 -1.881,18.46585 0.11965,1.04833 0.20396,2.1013 0.35896,3.14498 0.63662,4.28669 1.88023,8.46859 3.53162,12.4687 3.28337,6.55545 12.55417,1.91207 9.27081,-4.64338 z" />
    <path
       style="fill:#000080;stroke-width:0.763;stroke-linecap:round;stroke-linejoin:round"
       id="path21"
       d="m 104.32744,90.970411 c -1.83795,-1.311907 -3.18909,-3.246636 -4.494437,-5.056955 -0.354949,-0.538988 -0.709896,-1.077976 -1.064845,-1.616961 -3.970501,-5.973376 -12.418131,-0.358241 -8.44763,5.615136 v 0 c 0.427559,0.638246 0.855118,1.27649 1.282676,1.914736 2.115442,2.952578 4.294812,5.991463 7.325075,8.0782 6.317401,3.817783 11.716561,-5.116375 5.399161,-8.934156 z" />
    <path
       style="fill:#000080;stroke-width:0.763;stroke-linecap:round;stroke-linejoin:round"
       id="path22"
       d="m 68.668304,116.1397 c -0.333687,-0.64423 -0.624793,-1.31238 -1.001064,-1.9327 -1.279417,-2.10926 -2.277065,-3.22904 -3.834712,-5.20909 -2.263373,-2.87716 -4.481068,-5.76079 -6.603545,-8.74367 C 54.930354,96.932691 53.125441,93.331812 52.258457,89.371097 51.80471,87.298201 51.448239,84.356846 51.16749,82.321492 50.221337,75.106304 49.776752,67.839923 49.198125,60.589765 48.511547,53.610448 38.641303,54.581416 39.32788,61.560733 v 0 c 0.862381,7.319158 1.337953,14.674413 2.123388,22.001726 0.352229,2.969553 0.573817,5.551961 1.241229,8.465677 1.163492,5.079476 3.521548,9.687064 6.497481,13.937094 0.767183,1.0815 1.516793,2.17569 2.301552,3.24451 1.990344,2.71078 4.162348,5.3027 6.067505,8.07612 0.792305,1.15339 0.807926,1.24355 1.260488,2.19412 2.361932,6.96414 12.210714,3.62386 9.848781,-3.34028 z" />
    <path
       style="fill:#000080;stroke-width:0.763;stroke-linecap:round;stroke-linejoin:round"
       id="path23"
       d="m 61.298965,168.49024 c -7.548081,-2.69391 -14.855605,-6.01578 -22.033037,-9.56865 -1.008345,-0.54197 -2.016691,-1.08395 -3.025036,-1.62592 -6.228104,-3.19947 -10.752834,5.60839 -4.524733,8.80786 v 0 c 1.100879,0.54157 2.201757,1.08313 3.302638,1.6247 7.344516,3.45253 14.761342,6.74674 22.091179,10.23004 6.694905,2.96206 10.883894,-6.50596 4.188989,-9.46803 z" />
    <path
       style="fill:#000080;stroke-width:0.763;stroke-linecap:round;stroke-linejoin:round"
       id="path24"
       d="m 123.06912,120.58884 c 0.48283,-0.22426 0.96431,-0.45146 1.4485,-0.67279 2.03964,-0.93238 2.83762,-1.24307 4.94741,-2.34305 3.15129,-1.64299 6.13753,-3.56603 9.16112,-5.42742 3.66299,-2.09543 7.10675,-4.52412 10.41701,-7.13212 5.53898,-4.49704 -0.82079,-12.33034 -6.35977,-7.833305 v 0 c -2.87972,2.425772 -5.92309,4.646585 -9.20253,6.510755 -4.59062,2.76147 -9.12717,5.69026 -14.29549,7.27538 -6.80417,2.74622 -2.92043,12.36877 3.88375,9.62255 z" />
    <path
       style="fill:#ff0000;stroke-width:0.763;stroke-linecap:round;stroke-linejoin:round"
       id="path25"
       d="m 54.609711,177.02912 c 0.479957,2.31158 0.617074,2.72608 3.465941,4.77078 0.733533,0.52648 2.266802,0.44805 3.206742,0.4452 0.941467,-0.0812 4.056311,-0.0303 4.23958,-1.07644 1.431901,-8.17375 1.87978,-7.69864 -1.373015,-9.18736 1.999181,0.94524 2.434534,3.26261 1.993953,5.25812 -2.183673,-2.22013 -4.161296,-4.66373 -6.551023,-6.66038 -0.257421,-0.21508 -0.608351,0.2857 -0.925116,0.39608 -0.03202,0.0112 -0.123335,0.0509 -0.09751,0.029 0.167442,-0.14244 0.428165,-0.10167 0.645226,-0.13649 0.346776,0.0386 0.702045,0.0303 1.040334,0.11573 1.477729,0.37334 2.66138,1.8256 2.852504,3.33006 0.101505,0.79902 -0.0315,1.62743 -0.246049,2.40378 -0.135549,0.49048 -0.520523,0.87456 -0.780783,1.31183 -0.366053,0.30793 -0.73211,0.61585 -1.098163,0.92378 6.429192,-3.61057 1.32307,-12.70282 -5.10612,-9.09225 v 0 c -0.490686,0.37792 -0.981374,0.75583 -1.47206,1.13375 -1.164587,1.74316 -1.787342,2.16506 -1.606441,4.64072 0.17181,2.35127 2.007452,4.35416 4.137205,5.13853 0.625612,0.23041 1.302837,0.28377 1.954257,0.42565 0.496724,-0.0176 0.995757,-0.002 1.490173,-0.0527 0.924828,-0.0953 1.748854,-0.42579 2.619526,-0.70994 0.160023,-0.0522 -0.314457,0.12022 -0.471686,0.18034 -2.104101,-2.2434 -4.2082,-4.4868 -6.312302,-6.7302 -0.224663,0.87759 -0.451054,1.66277 -0.257678,2.66332 0.484079,2.50468 1.812687,3.75551 3.861028,4.87435 -2.751601,-1.24965 -2.049698,-0.87285 -0.460873,-8.73056 0.157896,-0.78089 1.478569,-0.59453 2.226152,-0.86994 0.01868,-0.007 0.06996,0.0249 0.05102,0.0311 -0.10795,0.035 -0.454121,0.058 -0.564513,0.0675 0.343967,0.26654 0.924796,0.0953 1.246302,0.38852 2.923656,2.66665 2.309981,1.84397 2.665092,3.59848 0.0422,0.20848 -0.173223,-1.00049 -0.08154,-0.6329 -1.239335,-7.27624 -11.529499,-5.52356 -10.290164,1.75268 z" />
    <path
       style="fill:#ff0000;stroke-width:0.763;stroke-linecap:round;stroke-linejoin:round"
       id="path26"
       d="m 39.345864,81.049751 c 0.717481,-0.863876 1.311741,-1.203611 2.814299,-1.17687 0.852059,0.01516 1.646108,0.441897 2.469163,0.662845 0.739669,0.942512 1.697228,1.749026 2.21901,2.827533 0.297117,0.614133 0.222245,1.365232 0.136919,2.042105 -0.109534,0.868918 -0.722968,2.169744 -1.555657,2.662208 -0.281948,0.166748 -0.586166,0.292584 -0.879247,0.438878 -0.479653,0.06979 -0.954387,0.2209 -1.438953,0.209386 -1.22065,-0.029 -2.541161,-0.667145 -3.242402,-1.687301 -0.286438,-0.416708 -0.620102,-0.848561 -0.694357,-1.34874 -0.152448,-1.026885 0.02119,-2.07617 0.03179,-3.114254 1.714154,-1.171414 3.136612,-2.978412 5.142458,-3.514241 1.394029,-0.372391 3.539019,1.249193 4.136525,2.59602 0.105741,0.238347 0.178586,0.489971 0.26788,0.734957 -1.60704,-7.186911 -11.770865,-4.914215 -10.163826,2.272694 v 0 c 0.126153,0.409826 0.221594,0.830397 0.378457,1.229479 0.227346,0.578395 0.945537,1.812409 1.408721,2.101924 1.049523,0.656013 2.182405,1.79156 3.389167,1.516642 2.073768,-0.472437 3.555151,-2.33575 5.332728,-3.503626 0.02935,-1.092115 0.242191,-2.194763 0.08806,-3.276343 -0.08804,-0.617813 -0.459152,-1.169252 -0.796417,-1.694323 -0.959196,-1.493337 -2.742673,-2.514777 -4.499551,-2.669153 -0.705234,-0.06197 -1.411965,0.105531 -2.117948,0.158297 -0.546028,0.216633 -1.113594,0.38535 -1.638085,0.649896 -1.60991,0.81202 -2.988514,2.478508 -3.352747,4.261025 -0.177946,0.87086 -0.311169,1.840047 0.01595,2.666515 0.498504,1.259433 1.567524,2.209433 2.351286,3.31415 0.941885,0.294336 1.840434,0.827175 2.825657,0.883007 2.400255,0.136017 4.242261,-1.420005 5.742631,-3.02437 4.397031,-5.91956 -3.974492,-12.137903 -8.371523,-6.21834 z" />
    <path
       style="fill:#ff0000;stroke-width:0.763;stroke-linecap:round;stroke-linejoin:round"
       id="path27"
       d="m 98.988955,65.36818 c -0.801322,0.895972 -2.070817,2.333053 -3.244148,1.683319 -2.465933,-1.365515 -3.688162,-4.26393 -5.504291,-6.419652 -0.01746,-0.02072 0.04773,-0.09715 0.03354,-0.07406 -0.57322,0.932415 0.08493,-0.05685 -0.724115,1.1181 -0.125775,0.141814 -0.251552,0.283628 -0.37733,0.425442 -0.02392,-0.01696 -0.08519,-0.02479 -0.07178,-0.05086 0.394406,-0.767104 2.182159,-1.162732 2.747769,-0.954786 1.401972,0.515432 2.545609,1.563534 3.818414,2.345301 0.376904,4.073176 1.104381,3.503983 -0.230206,5.52173 5.464072,-4.845531 -1.388541,-12.572899 -6.852616,-7.727368 v 0 c -0.542451,0.508746 -1.839052,1.629151 -1.945671,2.29724 -0.273312,1.71264 0.02697,3.468518 0.04046,5.202777 1.341794,0.898887 2.519002,2.114238 4.025386,2.696665 0.757608,0.292923 1.634734,-0.02881 2.428463,-0.201353 0.538657,-0.117097 1.037521,-0.385996 1.517816,-0.656514 1.335503,-0.752205 2.36677,-1.904386 3.257114,-3.125999 0.411948,-0.59531 1.137232,-1.619729 1.483198,-2.226122 0.268169,-0.470035 0.989092,-0.968756 0.735972,-1.447059 -2.832218,-5.351656 -4.499442,-10.042403 -9.184414,-5.044813 -4.693785,5.689698 3.352662,12.327713 8.046447,6.638015 z" />
    <path
       style="fill:#ff0000;stroke-width:0.763;stroke-linecap:round;stroke-linejoin:round"
       id="path28"
       d="m 130.35036,154.21636 c -0.66408,-0.45339 -1.28746,-0.98655 -1.87032,-1.53915 -0.4218,-0.3999 -0.99083,-0.8898 -1.14625,-1.48412 0.34402,0.40137 0.53518,0.54605 0.58487,1.2198 0.18727,2.53923 -0.60441,3.88649 -3.47208,5.32489 -1.81726,0.91152 -3.02182,-0.007 -4.3443,-0.75982 -0.36517,-0.33953 -0.46826,-0.39501 -0.73434,-0.76666 -0.0718,-0.10028 -0.1309,-0.20908 -0.19404,-0.31503 -0.0132,-0.0222 -0.0445,-0.0931 -0.0349,-0.0692 0.0533,0.13255 0.0963,0.27046 0.16606,0.39517 0.23306,0.41688 0.49374,0.81772 0.74061,1.22658 0.30557,0.32 0.61114,0.64 0.91671,0.96 5.53964,4.86038 12.41326,-2.97386 6.87361,-7.83424 v 0 c 0.18958,0.21823 0.37915,0.43646 0.56872,0.65469 0.15104,0.28005 0.3019,0.56021 0.45312,0.84016 0.0109,0.0202 -0.0233,-0.0398 -0.0322,-0.061 -0.0774,-0.18445 -0.14022,-0.37528 -0.22668,-0.55568 -0.44642,-0.93138 -1.04076,-1.74769 -1.8094,-2.44418 -1.55333,-1.0011 -2.99644,-2.28331 -5.22158,-1.30945 -3.59681,1.57419 -4.69515,4.34487 -3.53688,7.61062 0.17663,0.49799 0.47246,0.94528 0.70869,1.41792 0.27817,0.38586 0.53807,0.78556 0.83451,1.15756 1.23868,1.55442 2.77014,2.8465 4.09424,4.32371 5.65164,4.72478 12.3335,-3.26784 6.68186,-7.99263 z" />
    <path
       style="fill:#ff0000;stroke-width:0.763;stroke-linecap:round;stroke-linejoin:round"
       id="path29"
       d="m 145.08868,81.733357 c -2.09074,0.300001 -4.2768,-0.951174 -5.01685,-2.989421 -0.30696,-0.845436 -0.32472,-1.793158 -0.23474,-2.688082 0.0593,-0.589859 0.4471,-1.098137 0.67064,-1.647206 0.086,-0.118549 0.32347,-0.486595 0.25791,-0.35565 -1.31372,2.623815 -2.21655,2.770465 -0.52671,6.419183 0.41998,0.906817 1.5252,1.293765 2.24516,1.986844 0.12134,0.116803 -0.3068,-0.145421 -0.43973,-0.248822 -0.34448,-0.267955 -0.65775,-0.573779 -0.98662,-0.860669 -0.24495,-0.392261 -0.5813,-0.740555 -0.73484,-1.176782 -0.49099,-1.395045 -0.52273,-2.746459 0.22511,-4.022423 0.14744,-0.251561 0.30768,-0.506495 0.52818,-0.697283 0.45262,-0.391636 0.97986,-0.687652 1.46978,-1.031478 2.34171,-0.45838 2.49459,-0.859893 4.95733,0.605438 0.54229,0.322667 0.83199,0.948989 1.24799,1.423482 -3.56046,-6.469475 -12.70968,-1.434232 -9.14922,5.035243 v 0 c 0.47024,0.57305 0.78944,1.31476 1.41071,1.719151 2.67063,1.738337 2.92039,1.271426 5.56461,0.841423 0.60893,-0.393671 1.26631,-0.720982 1.82679,-1.181013 0.34248,-0.281104 0.61025,-0.648668 0.85356,-1.018958 1.15022,-1.750504 1.36387,-3.506504 0.74473,-5.546153 -0.17674,-0.582221 -0.59966,-1.058902 -0.8995,-1.588352 -0.4172,-0.393954 -0.80808,-0.817801 -1.25162,-1.181862 -0.21656,-0.177763 -0.90606,-0.644041 -0.71888,-0.435568 0.61011,0.679477 1.6456,1.027695 2.00452,1.867392 1.6968,3.969668 0.63435,3.340839 -0.56753,6.013837 -0.11537,0.256595 0.35143,-0.439439 0.52715,-0.659157 0.30834,-0.672346 0.8134,-1.285832 0.92503,-2.01704 0.15621,-1.023282 0.17123,-2.115974 -0.14354,-3.102094 -0.67619,-2.118411 -2.14906,-3.000455 -4.10216,-3.670803 -0.78224,-0.268483 -1.63393,-0.149593 -2.43123,-0.08329 -7.27621,1.233175 -5.53224,11.523286 1.74397,10.290111 z" />
    <path
       style="fill:#ff0000;stroke-width:0.763;stroke-linecap:round;stroke-linejoin:round"
       id="path30"
       d="m 130.60659,157.14733 c -0.13849,0.10648 0.27257,-0.23385 0.21811,-0.16159 -0.0277,0.0368 -0.0693,0.0636 -0.11192,0.0812 -0.3001,0.12421 -0.59244,0.39992 -0.91214,0.34264 -1.58031,-0.28317 -3.48748,-0.20499 -4.62764,-1.33529 -1.14829,-1.13836 -0.93545,-3.09559 -1.40317,-4.64338 0.19516,-0.55716 0.20505,-0.72583 0.40936,-1.09875 0.0265,-0.0484 0.13511,-0.16247 0.0833,-0.14324 -0.0771,0.0286 -0.11677,0.11607 -0.17271,0.17644 -0.10222,0.11031 -0.21562,0.21215 -0.30168,0.3355 -0.26634,0.38174 -0.50194,0.78403 -0.75292,1.17605 -0.56053,2.25099 -0.66079,1.6773 -0.47082,3.478 0.0143,0.13593 0.1149,0.57331 0.15346,0.76924 0.009,0.0479 0.0337,0.19244 0.0252,0.14435 -0.0196,-0.11066 -0.039,-0.22137 -0.0584,-0.33205 0.005,0.0917 0.01,0.18346 0.015,0.27519 0.60595,7.3542 11.00637,6.49726 10.40042,-0.85694 v 0 c -0.005,-0.0354 -0.011,-0.0708 -0.0165,-0.10626 -0.0544,-0.48576 -0.10747,-0.95122 -0.20508,-1.42759 -0.002,-0.0112 0.003,0.0226 0.004,0.034 0.0443,1.44557 0.0863,0.58591 -0.51505,2.68686 -0.19141,0.27286 -0.37942,0.54814 -0.57422,0.81857 -0.0138,0.0192 0.016,-0.0454 0.0306,-0.0639 0.0906,-0.11433 0.19119,-0.22038 0.28387,-0.33301 0.7919,-0.96233 1.44219,-1.87688 1.79591,-3.11123 -0.43023,-1.7047 -0.10039,-3.82015 -1.29069,-5.11409 -2.62084,-2.84901 -5.51709,-1.62286 -7.92333,-0.18975 -6.08042,4.18422 -0.16304,12.78323 5.91738,8.59901 z" />
    <path
       style="fill:#ff0000;stroke-width:0.763;stroke-linecap:round;stroke-linejoin:round"
       id="path31"
       d="m 121.65093,154.61307 c 0.20865,1.05828 0.42036,2.11706 0.60375,3.18013 -0.42156,-1.97111 1.52237,-4.22137 3.30317,-4.77887 3.15842,-0.98878 3.88894,-0.0651 5.18754,1.29842 -0.10832,-0.15699 -0.22643,-0.30766 -0.32496,-0.47097 -0.32621,-0.54065 -0.60375,-1.16044 -0.78575,-1.76534 -0.0953,-0.31688 -0.10618,-0.29911 0.0276,-0.23163 0.39988,1.82465 -0.22969,2.875 -1.41482,4.14677 -0.13241,0.14209 -0.61681,0.47161 -0.46961,0.34491 2.24914,-1.93581 1.17129,-0.54808 2.66595,-3.2431 -0.25292,2.01562 0.5785,-2.97014 0.32168,-2.25546 -0.12872,0.3582 -0.0903,0.75627 -0.15667,1.13106 -0.367,2.07217 -4.06392,2.3986 -5.08141,2.82054 -3.64704,-2.87025 -3.99226,-1.6995 -4.35327,-4.72322 -0.0221,-0.18516 0.0548,-0.37219 0.0394,-0.55802 -0.006,-0.0718 -0.0388,0.1393 -0.0686,0.20486 -0.0515,0.11315 -0.12601,0.21464 -0.17963,0.32678 -0.18831,0.21749 0.0299,-0.13372 0.0742,-0.18393 0.2301,-0.26088 0.39462,-0.28728 0.15705,-0.22326 -2.20007,0.92862 -3.78517,2.86355 -4.24559,5.21385 -0.0967,0.49368 -0.0863,1.00241 -0.12941,1.50362 0.17087,1.85381 0.49015,3.99336 1.99011,5.31563 0.63077,0.55604 1.42907,0.88654 2.1436,1.32981 6.97844,2.4298 10.41469,-7.4392 3.43626,-9.869 v 0 c 1.41413,0.93517 2.37716,1.23519 2.83063,2.93602 2.7e-4,0.001 -0.0447,0.001 -0.0468,0.001 -0.003,0.14935 -0.006,0.29869 -0.008,0.44803 -0.20837,1.07143 -0.54139,1.77586 -1.49162,2.41032 -0.15616,0.10426 -0.33897,0.31965 -0.50931,0.24065 -0.16773,-0.0778 0.3313,-0.16426 0.49694,-0.24639 0.94508,-0.47645 1.30025,-0.60413 2.19632,-1.32308 1.13216,-0.90836 1.97034,-2.12579 2.59437,-3.42138 0.45523,-1.09984 1.07699,-2.62932 1.08101,-3.80859 0.003,-0.78066 0.206,-1.70433 -0.26492,-2.32697 -1.1104,-1.46811 -2.80241,-2.38744 -4.20362,-3.58115 -1.65654,0.62968 -3.39845,1.06926 -4.96962,1.88904 -0.38676,0.20179 -0.5149,0.70656 -0.73118,1.08541 -0.68245,1.19548 -0.62014,1.57117 -0.97286,3.08513 -0.006,0.0236 0.009,-0.0476 0.0142,-0.0714 0.0701,-0.27038 0.14014,-0.54076 0.2102,-0.81114 2.3277,-3.7696 -0.62016,0.60404 2.20986,-2.44835 0.25838,-0.27869 -0.68072,0.35619 -0.96229,0.61143 -0.55725,0.50511 -1.16732,0.99732 -1.53582,1.65297 -1.11689,1.98728 -0.89367,2.43095 -0.80127,4.31581 0.091,0.37193 0.16366,0.74884 0.273,1.1158 0.56096,1.88264 1.55846,3.61757 2.51137,5.32001 1.58504,2.06266 2.41335,3.76133 6.3955,2.77364 2.80586,-0.69594 3.60836,-2.84589 3.83454,-5.0217 0.0717,-0.68988 -0.0333,-1.30945 -0.11088,-1.988 -0.15979,-0.86928 -0.3921,-1.73069 -0.4424,-2.61589 -0.89452,-7.30984 -11.2322,-6.04481 -10.33768,1.26503 z" />
    <path
       style="fill:#ff0000;stroke-width:0.763;stroke-linecap:round;stroke-linejoin:round"
       id="path32"
       d="m 128.63962,186.11491 c 0.31684,0.18289 0.67097,0.31268 0.95051,0.54867 1.64492,1.38866 2.00055,2.96106 1.21688,5.0006 -0.15664,0.40765 -0.49646,0.71861 -0.74468,1.07791 -0.29977,0.2513 -0.67216,0.63048 -1.07281,0.76108 -0.4011,0.13075 -0.80856,0.30962 -1.23024,0.29709 -1.89389,-0.0563 -3.06428,-0.46744 -4.25372,-2.07805 -0.43849,-0.59376 -0.52016,-1.38157 -0.78025,-2.07236 0.0159,-0.46747 -0.022,-0.93987 0.0475,-1.40243 0.29984,-1.99615 2.68908,-4.00079 4.74794,-3.67067 4.21503,0.67584 4.27027,1.73817 4.89021,4.03167 0.007,0.006 0.0189,0.0265 0.0203,0.0176 0.0721,-0.44581 0.001,-0.34686 0.10954,-0.77894 0.0109,-0.0435 0.0644,-0.16589 0.0572,-0.12166 -0.044,0.26945 -0.1122,0.5344 -0.1683,0.8016 2.62672,-6.90441 -7.13758,-10.61916 -9.7643,-3.71475 v 0 c -0.0934,0.36533 -0.20389,0.72671 -0.2803,1.09598 -0.0422,0.20398 -0.0519,0.41337 -0.0748,0.62041 -0.10575,0.95559 -0.20582,1.91364 -0.19565,2.87684 0.51297,2.98822 0.31099,4.57233 5.18753,5.61515 2.63491,0.56346 5.15016,-2.23641 5.6291,-4.4941 0.13326,-0.62814 0.10901,-1.2796 0.16352,-1.91941 -0.27561,-0.84521 -0.33381,-1.79585 -0.82684,-2.53562 -1.82095,-2.73229 -5.18577,-3.40496 -7.94296,-1.83046 -0.45468,0.25965 -0.85984,0.5977 -1.28976,0.89655 -0.46065,0.5556 -1.05731,1.02222 -1.38196,1.66681 -1.4413,2.86172 -0.87583,5.76243 1.40284,7.94227 0.41535,0.39734 0.96124,0.63057 1.44186,0.94586 6.77243,2.92862 10.91412,-6.64905 4.14169,-9.57767 z" />
  </g>
</svg>
