<?xml version="1.0" encoding="UTF-8" standalone="no"?>
<!-- Created with Inkscape (http://www.inkscape.org/) -->

<svg
   width="10.331746mm"
   height="10.737111mm"
   viewBox="0 0 10.331746 10.737111"
   version="1.1"
   id="svg1"
   xml:space="preserve"
   inkscape:version="1.3 (0e150ed, 2023-07-21)"
   sodipodi:docname="elliptic.svg"
   xmlns:inkscape="http://www.inkscape.org/namespaces/inkscape"
   xmlns:sodipodi="http://sodipodi.sourceforge.net/DTD/sodipodi-0.dtd"
   xmlns="http://www.w3.org/2000/svg"
   xmlns:svg="http://www.w3.org/2000/svg"><sodipodi:namedview
     id="namedview1"
     pagecolor="#ffffff"
     bordercolor="#000000"
     borderopacity="0.25"
     inkscape:showpageshadow="2"
     inkscape:pageopacity="0.0"
     inkscape:pagecheckerboard="0"
     inkscape:deskcolor="#d1d1d1"
     inkscape:document-units="mm"
     inkscape:zoom="0.72693602"
     inkscape:cx="422.32052"
     inkscape:cy="464.27745"
     inkscape:window-width="1581"
     inkscape:window-height="871"
     inkscape:window-x="26"
     inkscape:window-y="23"
     inkscape:window-maximized="0"
     inkscape:current-layer="layer1"
     inkscape:export-bgcolor="#ffffff00" /><defs
     id="defs1" /><g
     inkscape:label="Layer 1"
     inkscape:groupmode="layer"
     id="layer1"
     transform="translate(-23.59244,-134.32749)"><path
       style="fill:#0e0c20;fill-opacity:1;stroke:#b6c3ef;stroke-width:0.0943904;stroke-linecap:round;stroke-linejoin:round;stroke-dasharray:none;stroke-opacity:1"
       id="path35"
       d="m 27.193264,141.11936 c 0.18639,-0.13328 0.389623,-0.24393 0.587179,-0.36012 0.331861,-0.20053 0.653852,-0.41708 0.97271,-0.63758 0.299613,-0.21294 0.595073,-0.43138 0.879347,-0.66447 0.220796,-0.17863 0.414388,-0.38561 0.598339,-0.60098 0.177383,-0.22598 0.318613,-0.47734 0.449992,-0.73199 0.104265,-0.21286 0.187603,-0.43501 0.256627,-0.66157 0.02478,-0.12777 0.07096,-0.29034 -0.0048,-0.41221 -0.02109,-0.0343 -0.053,-0.0609 -0.07939,-0.0913 -0.03491,-0.0168 -0.06793,-0.0381 -0.104697,-0.0503 -0.04921,-0.0164 -0.142862,-0.0236 -0.195012,-0.0267 -0.09535,-0.006 -0.191188,-0.006 -0.286669,-0.006 -0.09482,0.006 -0.192807,1.7e-4 -0.285269,0.0264 -0.04314,0.0123 -0.09503,0.0351 -0.13727,0.0526 -0.1303,0.0521 -0.222431,0.14892 -0.307305,0.25664 -0.08734,0.11689 -0.149543,0.24701 -0.192978,0.3856 -0.05015,0.17082 -0.03369,0.34544 9.46e-4,0.51701 0.03161,0.15409 0.07153,0.30532 0.128585,0.45187 0.0614,0.1526 0.11616,0.30772 0.174394,0.46151 0.05279,0.15075 0.09713,0.30412 0.14078,0.45769 0.04627,0.14739 0.06661,0.29885 0.07871,0.45223 0.01348,0.21779 0.02669,0.4355 0.03369,0.65365 3.33e-4,0.21112 -0.05356,0.41391 -0.11158,0.61488 -0.051,0.16491 -0.124402,0.32208 -0.231014,0.45816 -0.105379,0.12777 -0.233436,0.23373 -0.378735,0.3127 -0.146723,0.0826 -0.315196,0.0782 -0.478424,0.0724 -0.163721,-0.008 -0.303768,-0.0882 -0.437038,-0.17674 -0.0847,-0.071 -0.178786,-0.13742 -0.241622,-0.22994 -0.03,-0.0444 -0.04684,-0.083 -0.0704,-0.13129 -0.0914,-0.19031 -0.169321,-0.38559 -0.237079,-0.58533 -0.07333,-0.18631 -0.12647,-0.37763 -0.154958,-0.57558 -0.01348,-0.1362 -0.03635,-0.27716 0.0144,-0.40797 0.04967,-0.10711 0.121951,-0.19725 0.215705,-0.26809 0.116021,-0.0719 0.257214,-0.0844 0.389898,-0.0992 0.122104,-0.0158 0.215062,0.042 0.302661,0.12011 0.100869,0.10483 0.136506,0.24231 0.172056,0.37892 0.05005,0.17947 0.07636,0.36347 0.08989,0.54883 0.0057,0.16313 -0.01674,0.31097 -0.06322,0.46649 -0.08175,0.22953 -0.212506,0.36299 -0.396899,0.51396 -0.172303,0.12776 -0.359007,0.23654 -0.558267,0.31687 -0.142219,0.0572 -0.196856,0.0677 -0.344236,0.10813 -0.259276,0.0669 -0.525801,0.0881 -0.792401,0.0956 -0.127451,-0.005 -0.261055,-9.4e-4 -0.378554,-0.0574 -0.05886,-0.0343 -0.07475,-0.0855 -0.08734,-0.14815 -0.03009,-0.11428 -0.03209,-0.192 0.0018,-0.30416 0.0387,-0.0825 0.107559,-0.14555 0.178112,-0.20092 0.0387,-0.0308 0.08071,-0.0567 0.121414,-0.0845 0.223435,-0.15728 9.46e-4,-0.47327 -0.222432,-0.31597 v 0 c -0.04665,0.0337 -0.09516,0.0649 -0.139814,0.10131 -0.131849,0.10767 -0.249845,0.2322 -0.305869,0.39683 -0.02073,0.0776 -0.03122,0.10461 -0.0387,0.1864 -0.0086,0.10415 0.0075,0.20808 0.03161,0.30919 0.0066,0.029 0.01241,0.0585 0.02186,0.0867 0.04892,0.14709 0.153112,0.25784 0.290331,0.32731 0.02705,0.0102 0.05347,0.0232 0.08109,0.032 0.14755,0.0484 0.305868,0.0462 0.459066,0.0469 0.295943,-0.0123 0.591099,-0.04 0.877541,-0.12011 0.17007,-0.0479 0.231155,-0.0605 0.396409,-0.12655 0.229784,-0.0919 0.445536,-0.21637 0.64454,-0.36296 0.101529,-0.0839 0.149574,-0.11767 0.238613,-0.21529 0.125811,-0.13789 0.220634,-0.30143 0.284918,-0.47616 0.02696,-0.0886 0.03785,-0.11459 0.05384,-0.20473 0.02318,-0.1313 0.02771,-0.26645 0.02517,-0.39935 -0.01542,-0.2075 -0.04817,-0.41273 -0.103062,-0.61372 -0.05678,-0.22792 -0.117155,-0.4098 -0.291485,-0.57718 -0.02696,-0.0219 -0.05232,-0.0458 -0.08062,-0.0662 -0.150461,-0.10847 -0.326684,-0.1636 -0.512139,-0.13941 -0.204329,0.0248 -0.4145,0.0509 -0.585193,0.17634 -0.152331,0.12563 -0.264604,0.26469 -0.3396,0.44931 -0.01102,0.0351 -0.02357,0.0695 -0.03161,0.10506 -0.03539,0.15702 -0.01102,0.31963 0.0057,0.47716 0.03415,0.21997 0.09226,0.43357 0.172852,0.64134 0.07427,0.21552 0.158885,0.42655 0.255198,0.63323 0.04192,0.0822 0.06017,0.12624 0.115623,0.20174 0.08932,0.12164 0.21123,0.21476 0.329324,0.30624 0.193394,0.1241 0.397327,0.2357 0.633347,0.23887 0.231668,0.005 0.468935,3.3e-4 0.675054,-0.12011 0.187509,-0.10858 0.357426,-0.24376 0.494408,-0.41296 0.02109,-0.0282 0.04343,-0.0554 0.06321,-0.0846 0.103277,-0.15198 0.170126,-0.32647 0.227144,-0.49993 0.0686,-0.23889 0.128523,-0.48132 0.126409,-0.73188 -0.0075,-0.22322 -0.02082,-0.44616 -0.03255,-0.66921 -0.01272,-0.17938 -0.03444,-0.35746 -0.08979,-0.52949 -0.04769,-0.16369 -0.09452,-0.32782 -0.15207,-0.48841 -0.0598,-0.15417 -0.112205,-0.31117 -0.173702,-0.46466 -0.04987,-0.12655 -0.0827,-0.25795 -0.110933,-0.39091 -0.02375,-0.10813 -0.03784,-0.21742 -0.0066,-0.32593 0.02717,-0.0931 0.06851,-0.18005 0.125274,-0.25899 0.04504,-0.0557 0.08743,-0.11097 0.154884,-0.14049 0.02422,-0.009 0.0474,-0.0224 0.07192,-0.0312 0.06301,-0.0228 0.134774,-0.0137 0.199866,-0.0227 0.08582,3.1e-4 0.171526,6.4e-4 0.257176,0.006 0.02119,9.6e-4 0.04219,0.003 0.0634,0.006 0.01,9.6e-4 0.02261,0.009 0.03065,0.003 0.0057,-0.005 -0.0086,-0.0102 -0.01318,-0.0167 -0.01,-0.0199 -0.03265,-0.0527 -0.02119,-0.0628 0.0048,-0.005 0.0048,0.009 0.0057,0.0158 0.0057,0.0495 -0.0066,0.0993 -0.01471,0.1477 -0.0581,0.20548 -0.130437,0.40677 -0.223151,0.59938 -0.11648,0.22989 -0.246409,0.45394 -0.404442,0.65817 -0.169189,0.19954 -0.344766,0.39387 -0.547157,0.56088 -0.273782,0.22939 -0.5626,0.43909 -0.852911,0.64693 -0.310629,0.2153 -0.622703,0.42955 -0.947854,0.62251 -0.10614,0.0609 -0.205533,0.11843 -0.31252,0.1774 -0.112727,0.062 -0.230057,0.11796 -0.334403,0.19405 -0.215525,0.17205 0.02783,0.47687 0.243351,0.3048 z" /><path
       style="fill:#0e0c20;fill-opacity:1;stroke:#b6c3ef;stroke-width:0.199375;stroke-linecap:round;stroke-linejoin:round;stroke-dasharray:none;stroke-opacity:1"
       id="path37"
       d="m 29.541383,134.90287 c -0.309777,0.16808 -0.617337,0.33442 -0.943151,0.47016 -0.469077,0.17109 -0.922978,0.36938 -1.35519,0.61968 -0.312368,0.17019 -0.554216,0.4284 -0.805592,0.67388 -0.294589,0.27309 -0.576177,0.55642 -0.828149,0.86943 -0.278126,0.3346 -0.52652,0.69198 -0.790538,1.03741 -0.245198,0.31868 -0.441864,0.66841 -0.620621,1.02736 -0.223944,0.42235 -0.284463,0.89448 -0.356214,1.35987 -0.03644,0.35618 -0.129396,0.70638 -0.146003,1.06486 -0.01102,0.23179 0.003,0.30347 0.02261,0.53001 0.05506,0.45385 0.206763,0.80589 0.539208,1.12815 0.06709,0.0651 0.142251,0.12119 0.213378,0.18176 0.173749,0.11935 0.263563,0.19136 0.455451,0.28131 0.412409,0.19334 0.887013,0.31113 1.323059,0.44247 0.680948,0.21318 1.38665,0.3087 2.096251,0.3542 0.679143,0.0446 1.357413,0.0188 2.031637,-0.0684 0.470599,-0.0888 0.923591,-0.2602 1.329822,-0.51507 0.08053,-0.0505 0.157106,-0.1071 0.235669,-0.16055 0.325899,-0.22468 0.620394,-0.48729 0.862365,-0.80145 0.08639,-0.1121 0.244752,-0.35016 0.325887,-0.47024 0.337179,-0.49906 0.457553,-1.06177 0.558862,-1.64336 0.07456,-0.39871 0.08998,-0.80325 0.09559,-1.20762 9.45e-4,-0.43423 0.03795,-0.86706 0.03795,-1.30127 0.01,-0.46183 -0.07067,-0.9122 -0.206063,-1.35155 -0.136398,-0.47383 -0.397205,-0.89115 -0.653926,-1.30662 -0.198616,-0.34488 -0.455982,-0.65074 -0.720975,-0.94587 -0.194017,-0.19292 -0.405198,-0.38486 -0.655213,-0.50357 -0.05034,-0.0238 -0.103402,-0.0418 -0.155148,-0.0625 -0.305422,-0.0798 -0.620932,-0.11233 -0.932439,-0.16153 -0.285921,-0.046 -0.505468,-0.005 -0.74249,0.15918 -0.05744,0.0375 -0.106696,0.0904 -0.168233,0.12118 -0.499658,0.29794 -0.07835,1.00456 0.42134,0.70663 v 0 c 0.08506,-0.0524 0.165983,-0.10983 0.243939,-0.17238 -9.46e-4,2.6e-4 -0.03406,0.009 -0.03312,0.006 0.0075,-0.0311 0.155251,-0.0237 0.160294,-0.0167 0.255142,0.0348 0.510569,0.07 0.763119,0.12042 0.197158,0.0601 0.354803,0.20808 0.501038,0.34679 0.236228,0.25622 0.462974,0.52451 0.640367,0.82564 0.22353,0.35563 0.451468,0.7126 0.568561,1.12037 0.11258,0.36252 0.176172,0.73542 0.170107,1.11646 9.45e-4,0.42903 -0.03804,0.85669 -0.03974,1.2857 -0.0086,0.36475 -0.02291,0.73008 -0.08053,1.091 -0.07456,0.46597 -0.158185,0.93266 -0.429214,1.33173 -0.05024,0.0743 -0.222981,0.3323 -0.281106,0.40953 -0.193762,0.25743 -0.430973,0.47102 -0.698511,0.65014 -0.374618,0.25614 -0.773885,0.46379 -1.224633,0.5492 -0.621983,0.0892 -1.248395,0.11398 -1.876054,0.0729 -0.249247,-0.0158 -0.421285,-0.0224 -0.668621,-0.055 -0.424254,-0.0561 -0.840998,-0.15866 -1.253635,-0.26969 -0.510823,-0.15152 -1.047478,-0.28197 -1.491377,-0.5887 -0.295203,-0.23784 -0.413857,-0.39129 -0.468688,-0.77483 -0.01704,-0.15409 -0.03037,-0.2232 -0.02488,-0.38004 0.0118,-0.34033 0.09756,-0.67416 0.132246,-1.01199 0.06509,-0.38505 0.118227,-0.77745 0.299378,-1.12916 0.153946,-0.31467 0.324044,-0.62065 0.537647,-0.89961 0.256107,-0.34044 0.496687,-0.69281 0.774613,-1.01644 0.233069,-0.28479 0.489459,-0.5465 0.760676,-0.79542 0.210785,-0.1984 0.410982,-0.41176 0.65949,-0.56409 0.393656,-0.24082 0.814989,-0.41678 1.24881,-0.57291 0.307154,-0.12502 0.609398,-0.26085 0.89884,-0.42342 0.553222,-0.18274 0.294788,-0.96511 -0.258416,-0.78235 z" /></g></svg>
