<?xml version="1.0" encoding="UTF-8" standalone="no"?>
<!-- Created with Inkscape (http://www.inkscape.org/) -->

<svg
   width="210mm"
   height="140mm"
   viewBox="0 0 210 140"
   version="1.1"
   id="svg1"
   inkscape:version="1.3 (0e150ed, 2023-07-21)"
   sodipodi:docname="Docker Visual.svg"
   xmlns:inkscape="http://www.inkscape.org/namespaces/inkscape"
   xmlns:sodipodi="http://sodipodi.sourceforge.net/DTD/sodipodi-0.dtd"
   xmlns="http://www.w3.org/2000/svg"
   xmlns:svg="http://www.w3.org/2000/svg">
  <sodipodi:namedview
     id="namedview1"
     pagecolor="#ffffff"
     bordercolor="#000000"
     borderopacity="0.25"
     inkscape:showpageshadow="2"
     inkscape:pageopacity="0.0"
     inkscape:pagecheckerboard="0"
     inkscape:deskcolor="#d1d1d1"
     inkscape:document-units="mm"
     inkscape:zoom="0.72693603"
     inkscape:cx="381.73923"
     inkscape:cy="345.97267"
     inkscape:window-width="1452"
     inkscape:window-height="991"
     inkscape:window-x="26"
     inkscape:window-y="23"
     inkscape:window-maximized="0"
     inkscape:current-layer="layer1" />
  <defs
     id="defs1" />
  <g
     inkscape:label="Layer 1"
     inkscape:groupmode="layer"
     id="layer1">
    <path
       style="fill:#000000;fill-opacity:1;stroke-width:0.815739;stroke-linecap:round;stroke-linejoin:round"
       id="path2"
       d="m 14.269035,79.704551 c -0.0017,1.539298 -0.0085,3.072932 0.115564,4.60688 0.10889,1.026774 0.193844,2.054949 0.231852,3.088015 0.02582,1.010595 0.02632,2.021778 0.02896,3.032713 0.02798,1.183549 -0.0171,2.361588 -0.06979,3.54202 0.08111,0.255092 0.07786,0.567262 0.243297,0.765291 0.789376,0.944951 2.122441,0.561706 3.099511,0.512897 1.951019,-0.09744 3.537954,-0.109077 5.530571,-0.147228 11.4479,0.03636 22.887829,0.6339 34.315576,1.347403 11.718203,0.738825 23.40537,1.940777 35.110627,2.880696 5.598998,0.496896 11.205197,0.857072 16.822787,0.834882 1.16532,-0.10737 2.71433,0.0602 3.50551,-1.151706 0.47411,-0.726247 0.47301,-1.515927 0.579,-2.358359 0.18723,-3.269266 -0.0839,-6.535553 -0.2773,-9.795403 -0.15984,-2.735235 -0.25459,-5.474353 -0.29963,-8.214738 -0.0176,-1.366521 -0.0147,-2.733225 -0.015,-4.099848 -0.0533,-0.549465 0.13451,-1.385895 -0.18962,-1.877224 -0.72731,-1.10245 -1.83955,-1.130814 -2.94276,-1.298575 -1.22958,-0.08907 -2.18707,-0.180557 -3.44963,-0.160129 -1.01318,0.01641 -5.47433,0.286464 -6.22492,0.336242 -2.700411,0.179097 -5.39926,0.386551 -8.09918,0.574669 -7.702734,0.475269 -15.400283,1.062391 -23.09198,1.723015 -5.84165,0.500783 -11.701389,0.500857 -17.553882,0.679429 -3.625405,0.05875 -7.231719,0.510967 -10.835088,0.922004 -3.144605,0.331914 -6.295065,0.604577 -9.447441,0.827827 -2.900341,0.137666 -5.799298,0.27976 -8.698122,0.455274 -1.762191,0.06058 -3.530318,0.266696 -5.293592,0.158116 -0.812133,-0.0565 -1.608074,-0.270856 -2.423267,-0.252116 -0.988187,0.159582 -1.268905,1.058794 -1.377529,2.03191 -0.03186,0.49363 -0.01978,0.25066 -0.03701,0.728872 -0.04083,1.185425 1.46229,1.249811 1.503112,0.06439 v 0 c 0.01298,-0.39913 0.0039,-0.200578 0.02734,-0.595664 0.03463,-0.352328 0.162107,-0.466736 -0.07259,-0.549826 0.773483,-0.03578 1.534268,0.211588 2.307525,0.227165 1.816828,0.0878 3.634351,-0.10184 5.44866,-0.193274 2.901129,-0.192714 5.803664,-0.319276 8.70649,-0.472003 3.17051,-0.223424 6.339418,-0.491516 9.501129,-0.837234 3.570581,-0.399426 7.140599,-0.873574 10.732179,-0.945563 5.873032,-0.210006 11.75315,-0.259561 17.615277,-0.762854 7.684198,-0.66726 15.374722,-1.252547 23.069579,-1.743733 4.720438,-0.318403 9.46717,-0.781468 14.19955,-0.790286 1.1483,-0.0022 2.16521,0.09961 3.29528,0.192215 0.33071,0.05043 0.66322,0.0878 0.99209,0.151268 0.19026,0.0367 0.3708,0.138242 0.56363,0.148925 0.0621,0.0035 0.10236,-0.137838 0.15874,-0.108904 0.2875,0.147397 0.0489,1.161452 0.12571,1.364696 -10e-4,1.378868 2.3e-4,2.757783 0.0309,4.136337 0.0603,2.764006 0.17835,5.525684 0.33921,8.284709 0.18424,3.154157 0.43848,6.315382 0.25427,9.477952 -0.0166,0.157654 -0.033,1.49741 -0.30315,1.694751 -0.5848,0.427425 -1.70852,0.28086 -2.34011,0.408716 C 104.10168,98.6716 98.528606,98.376946 92.963289,97.933678 81.249639,97.042426 69.558939,95.808567 57.832091,95.126274 46.375448,94.392912 34.909975,93.780352 23.434482,93.58607 c -0.919433,0.0045 -4.436678,0.01355 -5.600081,0.04437 -0.398405,0.01024 -0.795789,0.05137 -1.19409,0.06606 -0.173408,0.0068 -0.363001,-0.08422 -0.520491,-0.0035 -0.09792,0.05046 0.138487,0.317283 -0.05049,0.356519 0.044,-1.205995 0.100326,-2.409574 0.06691,-3.618301 0.002,-1.032951 0.0088,-2.066164 -0.02393,-3.098697 -0.03689,-1.062578 -0.126551,-2.119716 -0.247579,-3.174493 -0.126709,-1.482417 -0.118117,-2.965693 -0.09426,-4.453941 0,-1.184009 -1.501316,-1.184009 -1.501316,0 z" />
    <text
       xml:space="preserve"
       style="font-size:13.5778px;font-family:'Ubuntu Mono';-inkscape-font-specification:'Ubuntu Mono';text-align:center;text-anchor:middle;fill:#000000;fill-opacity:1;stroke-width:0.815739;stroke-linecap:round;stroke-linejoin:round"
       x="65.851395"
       y="84.993271"
       id="text2"
       transform="scale(0.94689401,1.0560844)"><tspan
         sodipodi:role="line"
         id="tspan2"
         style="stroke-width:0.815739"
         x="65.851395"
         y="84.993271">Docker</tspan></text>
    <path
       style="fill:#000000;fill-opacity:1;stroke-width:1.03824;stroke-linecap:round;stroke-linejoin:round"
       id="path3"
       d="m 16.003967,100.2286 c -0.211769,2.8117 -0.521489,5.61846 -0.791921,8.42799 -0.426077,3.15764 -0.685293,6.32431 -1.180327,9.47727 -0.216021,1.56966 -0.562077,3.13952 -0.512367,4.71945 0.776485,0.39462 1.452276,0.90676 2.329452,1.18388 0.896569,0.28324 1.912892,0.33604 2.88207,0.46259 1.875907,0.24492 7.679456,0.80041 9.228999,0.9556 12.297963,1.23152 0.230056,0.0417 14.293984,1.41917 12.206849,1.11634 24.420994,2.25361 36.693117,2.98275 6.388607,0.37958 9.21581,0.44261 15.500727,0.6629 13.166899,0.34813 26.342739,0.30628 39.512779,0.1061 7.33361,-0.0525 14.66955,-0.37253 22.00404,-0.173 3.75689,0.10207 8.35682,0.36403 12.10399,0.55839 4.58838,0.21758 9.15798,0.5997 13.74998,0.78469 1.23326,0.0496 3.50501,0.16793 4.83331,-0.061 0.51878,-0.0894 0.97097,-0.30882 1.45649,-0.46323 0.30423,-0.29901 0.72752,-0.55494 0.91268,-0.89703 0.58448,-1.07985 -0.42962,-2.23704 -1.12892,-3.13533 -3.51495,-4.51508 1.68582,2.29822 -2.05894,-2.6289 -2.42294,-3.14583 -4.84308,-6.28372 -6.8079,-9.58134 -1.27935,-2.23003 -2.28537,-4.52334 -3.56901,-6.75237 -0.27219,-0.56212 -0.73338,-1.09995 -0.78312,-1.70473 -0.0427,-0.51938 0.0701,-0.77065 -0.0528,-1.34458 -0.75779,-0.32887 -1.42998,-0.77874 -2.27334,-0.9866 -0.88935,-0.21919 -7.51415,-0.81352 -7.93059,-0.84961 -5.15098,-0.44633 -10.3054,-0.79078 -15.48084,-1.06401 -10.10071,-0.41486 -20.23178,-0.24372 -30.34303,-0.12459 -6.78302,0.16892 -13.55249,0.12946 -20.325402,-0.15638 -6.622695,-0.36674 -13.232303,-0.84841 -19.805142,-1.51776 -6.569584,-0.926454 -13.200693,-1.597597 -19.822387,-2.317326 -5.110986,-0.52859 -10.213986,-1.11506 -15.343969,-1.552515 -3.488907,-0.289624 -6.996112,-0.298743 -10.499625,-0.181387 -2.880372,0.06018 -5.724076,0.200238 -8.551929,0.582079 -1.811184,0.378529 -3.715645,0.539838 -5.513644,0.940421 -0.871954,0.180327 -1.566362,0.528683 -2.207794,0.959214 -1.203203,0.849422 0.541578,2.020954 1.744782,1.171524 v 0 c 0.339351,-0.270921 0.752261,-0.440317 1.252084,-0.548517 1.657862,-0.431102 3.509793,-0.502023 5.189264,-0.900546 2.712438,-0.37051 5.439884,-0.509401 8.204524,-0.571077 3.369759,-0.116632 6.741582,-0.09734 10.098808,0.16793 5.107338,0.411818 10.189731,0.966408 15.272615,1.498516 6.632815,0.704414 13.265858,1.396154 19.843769,2.319304 6.640172,0.66334 13.313458,1.16135 20.001095,1.53473 6.833831,0.27423 13.668061,0.32582 20.510591,0.13824 10.03818,-0.171 20.09706,-0.38467 30.12628,0.069 5.12524,0.27341 10.23355,0.60931 15.32998,1.08058 1.46378,0.13537 2.92494,0.28542 4.38134,0.45439 1.02049,0.11839 2.01514,0.35952 3.04766,0.40749 0.26026,0.012 0.47036,-0.1554 0.70557,-0.23311 0.20806,0.39869 -1.8e-4,0.91397 0.0634,1.32909 0.10942,0.71281 0.56808,1.35623 0.93941,2.01463 1.31585,2.22703 2.30967,4.5292 3.61778,6.75827 2.02452,3.3292 4.47594,6.50914 6.89843,9.70628 1.10362,1.47205 2.39842,2.89957 3.21258,4.46135 -0.19366,0.0992 -0.34938,0.25079 -0.58103,0.29733 -1.24274,0.2497 -3.27233,0.15007 -4.40935,0.11519 -4.58961,-0.14071 -9.1586,-0.49637 -13.74155,-0.70318 -3.10122,-0.16055 -9.1216,-0.48924 -12.22289,-0.5815 -7.36628,-0.21906 -14.73079,0.12947 -22.09581,0.19749 -13.11938,0.20591 -26.24587,0.25807 -39.363065,-0.0676 -6.239123,-0.19631 -9.063864,-0.248 -15.405063,-0.60804 -12.243896,-0.69519 -24.428143,-1.82166 -36.589006,-3.00341 -6.474641,-0.67609 -12.955747,-1.33638 -19.419365,-2.06164 -1.291892,-0.14498 -2.58582,-0.28401 -3.869504,-0.46018 -0.84012,-0.11534 -1.643651,-0.37764 -2.498688,-0.41378 -0.305004,-0.013 -0.550942,0.18213 -0.826417,0.2732 -0.09498,-1.50296 0.29693,-3.00294 0.450934,-4.49832 0.462348,-3.17468 0.713575,-6.36086 1.14414,-9.53779 0.280785,-2.77601 0.587824,-5.55095 0.880748,-8.32564 0.216761,-1.174682 -2.1961,-1.38574 -2.412863,-0.21106 z" />
    <text
       xml:space="preserve"
       style="font-size:15.4537px;font-family:'Ubuntu Mono';-inkscape-font-specification:'Ubuntu Mono';text-align:center;text-anchor:middle;fill:#000000;fill-opacity:1;stroke-width:0.928434;stroke-linecap:round;stroke-linejoin:round"
       x="88.869698"
       y="129.60907"
       id="text3"
       transform="scale(1.0667879,0.93739346)"><tspan
         sodipodi:role="line"
         id="tspan3"
         style="stroke-width:0.928434"
         x="88.869698"
         y="129.60907">OScillator</tspan></text>
    <text
       xml:space="preserve"
       style="font-size:17.2478px;font-family:'Ubuntu Mono';-inkscape-font-specification:'Ubuntu Mono';text-align:center;text-anchor:middle;fill:#000000;fill-opacity:1;stroke-width:1.03622;stroke-linecap:round;stroke-linejoin:round"
       x="72.007744"
       y="155.38579"
       id="text3-5"><tspan
         sodipodi:role="line"
         id="tspan3-3"
         style="stroke-width:1.03622"
         x="72.007744"
         y="155.38579" /></text>
    <text
       xml:space="preserve"
       style="font-size:9.86009px;font-family:'Ubuntu Mono';-inkscape-font-specification:'Ubuntu Mono';text-align:center;text-anchor:middle;fill:#000000;fill-opacity:1;stroke-width:0.592381;stroke-linecap:round;stroke-linejoin:round"
       x="68.259666"
       y="26.151087"
       id="text4"
       transform="scale(0.94689401,1.0560844)"><tspan
         sodipodi:role="line"
         id="tspan4"
         style="stroke-width:0.592381"
         x="68.259666"
         y="26.151087">Docker Containers</tspan></text>
    <path
       style="fill:#000000;fill-opacity:1;stroke-width:0.815739;stroke-linecap:round;stroke-linejoin:round"
       id="path5"
       d="m 14.906406,78.044542 c 0.689091,-0.214305 1.350784,-0.521306 2.019998,-0.800302 0.7516,-0.344726 1.49232,-0.718877 2.230025,-1.098985 0.474409,-0.256147 0.972193,-0.442019 1.474274,-0.615794 0.475939,-0.153676 0.933328,-0.37041 1.407743,-0.528053 0.345324,-0.147428 0.692051,-0.28519 1.042842,-0.415019 0.193893,-0.07283 0.395778,-0.106107 0.59331,-0.165478 0.299289,-0.110447 0.603029,-0.206977 0.90894,-0.292222 0.333575,-0.113215 0.67182,-0.203782 1.002155,-0.329165 0.250129,-0.0909 0.504859,-0.16849 0.760703,-0.237106 0.155316,-0.02002 0.305293,-0.07145 0.459459,-0.0988 0.219388,-0.02243 0.433448,-0.08382 0.650321,-0.125253 0.06365,-0.01952 0.127271,-0.03908 0.190924,-0.0586 1.014642,-0.356887 0.56211,-1.957273 -0.452532,-1.600385 v 0 c -5.36e-4,0.003 -0.0011,0.0062 -0.0017,0.0091 -0.21159,0.04331 -0.420995,0.09762 -0.635602,0.118175 -0.197121,0.03771 -0.38908,0.09378 -0.586242,0.130327 -0.289918,0.08682 -0.578237,0.181945 -0.864174,0.283706 -0.295067,0.110302 -0.597284,0.188686 -0.894227,0.291481 -0.309976,0.0901 -0.619249,0.18469 -0.925409,0.289275 -0.232372,0.06834 -0.472163,0.104319 -0.696864,0.204746 -0.329103,0.135316 -0.662997,0.255905 -0.986121,0.409629 -0.474994,0.164663 -0.936164,0.374932 -1.412842,0.534782 -0.566016,0.195864 -1.125793,0.411429 -1.656713,0.709003 -0.699087,0.367711 -1.401459,0.729166 -2.115649,1.058974 -0.58328,0.239363 -1.163049,0.499326 -1.766161,0.670562 -1.049526,0.199909 -0.796044,1.855319 0.253483,1.655412 z" />
    <path
       style="fill:#000000;fill-opacity:1;stroke-width:1.03824;stroke-linecap:round;stroke-linejoin:round"
       id="path7"
       d="m 18.415963,99.739869 c 1.409655,-0.569611 2.688069,-1.272911 4.002354,-1.937979 1.041787,-0.501816 1.993802,-1.086332 3.022808,-1.599421 0.41431,-0.251835 0.885167,-0.43229 1.373456,-0.601404 0.204091,-0.06276 0.108068,-0.03779 0.286111,-0.07837 1.61795,-0.410026 0.775723,-1.98539 -0.842227,-1.575364 v 0 c -0.384407,0.101408 -0.200538,0.0473 -0.552577,0.16075 -0.602695,0.216599 -1.192367,0.443149 -1.703776,0.757438 -1.011593,0.525268 -1.953728,1.111974 -2.984251,1.620431 -1.269907,0.638695 -2.495736,1.330771 -3.894878,1.834722 -1.457561,0.629471 -0.164586,2.048678 1.29298,1.419199 z" />
    <path
       style="fill:#000000;fill-opacity:1;stroke-width:1.22498;stroke-linecap:round;stroke-linejoin:round"
       id="path8"
       d="m 172.2352,103.71453 c -0.70541,-0.1929 -1.35947,-0.42156 -2.02349,-0.64213 -1.0009,-0.34814 -2.12645,-0.60036 -3.30641,-0.7945 -1.17233,-0.23127 -2.39855,-0.38607 -3.62605,-0.54326 -1.21875,-0.12791 -2.40119,-0.3128 -3.6106,-0.45568 -1.38947,-0.19247 -2.8285,-0.28821 -4.27144,-0.347 -1.48513,-0.0418 -2.97449,-0.0449 -4.46204,-0.044 -1.36612,5e-5 -2.73225,5.7e-4 -4.09835,8e-5 -1.18627,-0.0158 -2.379,0.0299 -3.56156,-0.0201 -1.26866,-0.0863 -2.54526,-0.12875 -3.82566,-0.15565 -1.02123,0.017 -2.01552,-0.0708 -3.01919,-0.13887 -1.03806,-0.12833 -2.06825,-0.25784 -3.12788,-0.34684 -1.41743,-0.0986 -2.85334,-0.11638 -4.28449,-0.12858 -1.15934,-0.01 -2.31882,-0.005 -3.47823,-0.002 -1.1565,5.7e-4 -2.31304,-3e-4 -3.46953,-8.7e-4 -0.78354,0.0309 -1.53336,-0.0539 -2.30354,-0.101738 -0.79764,-0.0097 -1.5432,-0.09008 -2.29133,-0.206138 -0.65936,-0.07155 -1.27395,-0.181783 -1.88235,-0.312678 -0.39962,-0.113042 -0.80656,-0.213377 -1.12226,-0.376052 -0.24596,-0.08375 -0.25269,-0.110404 -0.30046,-0.216423 -0.78146,-1.083506 -4.15209,-0.581113 -3.37066,0.502392 v 0 c 0.25342,0.326737 0.59829,0.633247 1.19078,0.861787 0.62873,0.26979 1.31298,0.50451 2.08767,0.68223 0.73033,0.15741 1.47443,0.28973 2.26147,0.37734 0.95852,0.14763 1.93054,0.25615 2.9463,0.27728 0.92601,0.0585 1.84373,0.14863 2.78595,0.11215 1.15799,-8.7e-4 2.31598,-0.003 3.47397,-0.004 1.13783,10e-4 2.27563,2.8e-4 3.41344,0.002 1.23948,0.009 2.48388,0.0197 3.71213,0.10295 1.10272,0.0904 2.15494,0.25632 3.24903,0.36406 1.11906,0.0726 2.23385,0.1602 3.36983,0.14448 1.23927,0.0252 2.47171,0.0774 3.70129,0.15276 1.28142,0.0429 2.56553,0.0256 3.84986,0.0263 1.36249,-0.002 2.72497,-0.004 4.08748,-0.004 1.38707,0.003 2.77582,-0.002 4.16052,0.0411 1.25404,0.0492 2.50308,0.12904 3.70543,0.30547 1.18672,0.13652 2.34198,0.32453 3.53916,0.44403 1.15658,0.14617 2.30134,0.29827 3.40389,0.51679 0.87386,0.13344 1.67891,0.3292 2.40959,0.5863 0.91838,0.29697 1.80667,0.62206 2.82394,0.84744 2.34207,0.40626 3.60588,-1.09949 1.26379,-1.50575 z" />
    <path
       style="fill:#000000;fill-opacity:1;stroke-width:0.815739;stroke-linecap:round;stroke-linejoin:round"
       id="path13"
       d="m 32.430602,52.705053 c -0.89999,0.280009 -1.585117,1.069821 -2.256769,1.753267 -0.975543,1.080717 -1.832858,2.29184 -2.638251,3.532799 -0.735096,1.067261 -1.379035,2.197125 -1.948997,3.381648 -0.555615,1.066847 -0.8503,2.25053 -1.099812,3.442439 -0.155878,0.869042 -0.273712,1.773516 -0.15215,2.659323 0.07053,0.513895 0.141111,0.656901 0.298025,1.129907 0.295925,0.851223 0.821218,1.51747 1.393462,2.148637 0.528862,0.528293 0.987541,1.133002 1.493244,1.687037 0.775104,0.780863 1.567206,1.139216 2.580166,1.347189 1.201436,0.123681 2.399646,-0.11098 3.570783,-0.388894 1.337421,-0.370938 2.702629,-0.609403 4.033167,-1.009489 0.739725,-0.290338 1.476836,-0.61863 2.137856,-1.096762 0.298992,-0.216271 0.655119,-0.53498 0.938453,-0.780609 0.924351,-0.857956 1.786577,-1.796165 2.620981,-2.760971 0.871111,-1.009765 1.739013,-2.022299 2.53396,-3.108056 0.767978,-1.047802 1.472225,-2.150568 2.114798,-3.29793 0.503578,-0.897849 0.888419,-1.870563 1.193884,-2.871192 0.287465,-0.988286 0.200325,-1.906499 -0.109207,-2.866561 -0.375653,-0.960222 -1.067254,-1.607579 -1.861303,-2.117961 -0.749807,-0.43583 -1.515626,-0.83103 -2.330697,-1.085854 -0.829976,-0.186231 -1.659144,-0.374132 -2.498175,-0.5024 -1.018498,-0.129391 -2.045302,-0.127358 -3.068912,-0.13572 -0.681458,0.02803 -1.370485,-0.0615 -2.050607,0.01789 -0.348409,0.04068 -0.748947,0.140361 -1.093282,0.218423 -0.741277,0.156862 -1.425265,0.51938 -2.132333,0.795817 -0.482536,0.188653 -0.61991,0.218576 -1.111013,0.364986 -0.716492,0.227649 -1.547402,0.235105 -2.178225,0.727933 -0.111326,0.08696 -0.202936,0.201686 -0.304404,0.302531 -0.283288,0.449009 -0.167914,0.216937 -0.3535,0.691592 -0.383069,1.102566 1.014981,1.706782 1.398051,0.604212 v 0 c 0.0088,-0.08013 0.0053,-0.0422 0.01096,-0.113676 0.149177,-0.372339 1.482714,-0.505335 1.807618,-0.641313 0.548532,-0.16672 0.703159,-0.20319 1.2446,-0.410698 0.635564,-0.243584 1.249815,-0.565706 1.912218,-0.715284 0.167613,-0.03835 0.683097,-0.161718 0.868989,-0.184387 0.65232,-0.07954 1.314751,0.0056 1.968546,-0.02506 0.96174,0.01038 1.926199,0.01645 2.88319,0.135518 0.77511,0.115363 1.537754,0.298574 2.304899,0.465324 0.698758,0.206116 1.347558,0.558539 1.988773,0.92611 0.493559,0.308155 0.951859,0.679351 1.204445,1.263698 0.2054,0.56959 0.26756,1.165104 0.09421,1.759308 -0.260521,0.883092 -0.594192,1.742485 -1.03189,2.535393 -0.604797,1.092298 -1.278285,2.134817 -2.000521,3.134598 -0.765908,1.053595 -1.618354,2.020316 -2.457057,3.001414 -0.786282,0.909884 -1.596522,1.797464 -2.470939,2.602484 -0.177737,0.155194 -0.581894,0.515155 -0.776761,0.658604 -0.552426,0.406663 -1.170672,0.681384 -1.788612,0.935321 -1.295649,0.4135 -2.631488,0.648806 -3.942792,0.991702 -0.987408,0.229738 -1.995661,0.435856 -3.008674,0.359067 C 29.685173,72.035205 29.074039,71.78806 28.555538,71.264033 28.051168,70.711096 27.605151,70.094308 27.07034,69.574822 26.646963,69.10839 26.237776,68.636291 26.011418,68.008488 25.64557,67.02775 25.718111,66.21601 25.90965,65.186444 c 0.221538,-1.053894 0.487772,-2.097814 0.974235,-3.043445 0.531615,-1.123498 1.132986,-2.195632 1.830302,-3.202485 0.743817,-1.151271 1.535024,-2.275472 2.441696,-3.273553 0.32281,-0.323853 1.027455,-1.089285 1.431535,-1.273417 0.04574,-0.02085 0.09583,-0.027 0.143749,-0.04048 1.044824,-0.236997 0.744314,-1.88499 -0.30051,-1.647993 z" />
    <path
       style="fill:#000000;fill-opacity:1;stroke-width:0.815739;stroke-linecap:round;stroke-linejoin:round"
       id="path14"
       d="m 56.087996,59.10433 c -0.904699,0.0599 -1.772303,0.356877 -2.607967,0.730451 -0.896124,0.400399 -1.679059,1.012865 -2.409606,1.704482 -0.677172,0.592576 -1.159243,1.364668 -1.558435,2.203501 -0.457393,0.826147 -0.679863,1.739694 -0.808781,2.689454 -0.147285,1.325047 0.356873,2.005687 1.173996,2.873765 1.221964,1.098369 2.675399,1.757197 4.152656,2.294906 0.958264,0.249126 1.917873,0.566693 2.898992,0.692255 0.49425,0.06325 0.74824,0.0393 1.239674,0.02775 1.101212,-0.107116 2.144577,-0.500214 3.11263,-1.080132 0.892283,-0.589256 1.787109,-1.171941 2.66765,-1.78308 0.844934,-0.625689 1.744775,-1.154505 2.556929,-1.833603 0.672277,-0.546132 1.264914,-1.175676 1.729801,-1.945029 0.425832,-0.838024 0.505353,-1.666311 0.377707,-2.602709 -0.143331,-0.779413 -0.482869,-1.480257 -0.860178,-2.146251 -0.480115,-0.881326 -1.290184,-1.290076 -2.125377,-1.621939 -0.839506,-0.36492 -1.730922,-0.505603 -2.62233,-0.596963 -0.845578,-0.06825 -1.691837,-0.07491 -2.536802,-0.0019 -0.679538,0.05821 -1.35609,0.127011 -2.026426,0.266848 -0.609047,0.149249 -1.228858,0.222965 -1.850262,0.266433 -0.361585,0.02232 -0.72377,0.02461 -1.085787,0.0278 -1.057459,0.005 -1.05097,1.673039 0.0065,1.667921 v 0 c 0.394566,-3e-4 0.789421,-0.003 1.183147,-0.0356 0.678356,-0.05759 1.355748,-0.140174 2.021952,-0.298499 0.619824,-0.131985 1.246258,-0.180476 1.873689,-0.246676 0.760131,-0.07572 1.521662,-0.0625 2.282973,-0.0029 0.768429,0.07331 1.53643,0.187495 2.258131,0.508977 0.522854,0.206212 1.06213,0.399873 1.365631,0.958504 0.273221,0.472749 0.523492,0.970194 0.642867,1.521476 0.08017,0.497205 0.06955,0.968059 -0.149634,1.428149 -0.349765,0.62925 -0.858983,1.095084 -1.382102,1.540636 -0.763145,0.663252 -1.631166,1.155115 -2.43398,1.754333 -0.856821,0.590866 -1.722315,1.163651 -2.594456,1.725848 -0.761983,0.460924 -1.579335,0.795318 -2.447568,0.895174 -0.289117,0.0089 -0.676838,0.03192 -0.968046,-6e-4 -0.910969,-0.101869 -1.80239,-0.386388 -2.691074,-0.614742 -1.274284,-0.457233 -2.526896,-1.019622 -3.584668,-1.958397 -0.181074,-0.189804 -0.631565,-0.60714 -0.705834,-0.896378 -0.0409,-0.159257 -0.01951,-0.390287 -0.01446,-0.54546 0.09736,-0.769369 0.277177,-1.499308 0.654882,-2.163685 0.302608,-0.657192 0.68085,-1.250401 1.206269,-1.712216 0.608106,-0.579666 1.24875,-1.109624 2.001338,-1.43866 0.655769,-0.29843 1.343305,-0.542979 2.05636,-0.576512 1.06311,0 1.06311,-1.676835 0,-1.676835 z" />
    <path
       style="fill:#000000;fill-opacity:1;stroke-width:0.815739;stroke-linecap:round;stroke-linejoin:round"
       id="path15"
       d="m 96.343832,50.117908 c -0.880274,0.07129 -1.648966,0.580082 -2.395519,1.061143 -1.174897,0.767196 -1.882789,1.709738 -2.638088,2.943052 -0.679291,1.160865 -1.005126,2.454165 -1.102593,3.82184 -0.02896,1.235454 0.413572,2.255848 1.086123,3.197585 0.714927,0.878347 1.596759,1.552863 2.447421,2.253843 0.513552,0.407085 0.812123,1.007293 1.147948,1.580992 0.374822,0.774868 0.944112,1.383149 1.524914,1.964888 0.91859,0.79691 1.855656,1.291925 3.000691,1.50429 0.896361,0.08043 1.746971,-0.239853 2.584241,-0.54986 0.6958,-0.290493 1.33865,-0.704715 2.02916,-1.010911 0.66915,-0.385448 1.38538,-0.48677 2.12428,-0.555061 0.70485,-0.05925 1.39274,-0.136166 2.05404,-0.424097 0.93334,-0.478651 1.71017,-1.194327 2.41907,-2.011094 0.78495,-0.930077 1.49929,-1.87439 2.02837,-3.01065 0.5254,-1.093377 0.85043,-2.287032 1.22877,-3.449453 0.27095,-0.855693 0.47223,-1.73543 0.56061,-2.637686 0.0869,-0.805264 -0.0376,-1.603735 -0.2074,-2.38431 -0.23658,-1.259743 -1.31529,-1.77228 -2.2647,-2.253163 -0.92769,-0.480108 -1.95307,-0.547002 -2.95273,-0.684131 -0.92378,-0.132735 -1.85585,-0.146657 -2.78577,-0.155786 -0.92566,-0.05937 -1.84715,-0.131812 -2.77464,-0.103137 -0.82601,0.04662 -1.65303,0.05385 -2.47896,0.100023 -0.91478,0.07133 -1.832405,0.08124 -2.741841,0.217801 -0.763237,0.181995 -1.513403,0.421627 -2.280253,0.589108 -1.024908,0.227692 -0.736197,1.844266 0.288709,1.616572 v 0 c 0.737321,-0.16637 1.466026,-0.372267 2.197755,-0.56198 0.862984,-0.140376 1.73456,-0.173136 2.60463,-0.230852 0.82131,-0.04028 1.6437,-0.01837 2.46469,-0.07259 0.90242,-0.04717 1.79931,0.01822 2.70036,0.08085 0.87819,0.01763 1.75779,0.03728 2.63107,0.152379 0.85207,0.10938 1.72766,0.161832 2.52481,0.546418 0.2203,0.109005 1.24374,0.590831 1.34743,0.85155 0.0389,0.09772 0.052,0.205829 0.0778,0.308743 0.13826,0.593001 0.23006,1.197208 0.16483,1.811116 -0.0663,0.770315 -0.2275,1.523709 -0.45455,2.255071 -0.3522,1.097889 -0.66427,2.222919 -1.15974,3.253416 -0.44718,0.985311 -1.09384,1.824888 -1.77013,2.625772 -0.56564,0.651196 -1.1765,1.220427 -1.92268,1.600183 -0.51745,0.240428 -1.07386,0.258413 -1.62599,0.330799 -0.88012,0.08716 -1.74955,0.203824 -2.54697,0.662606 -0.66335,0.297266 -1.29434,0.663737 -1.95065,0.975942 -0.61314,0.231272 -1.23877,0.482064 -1.893662,0.485234 -0.824775,-0.114714 -1.579291,-0.534 -2.237254,-1.092087 -0.486857,-0.489818 -0.947706,-1.008145 -1.263091,-1.656559 -0.435785,-0.737855 -0.855897,-1.482532 -1.523355,-1.996186 -0.752556,-0.608276 -1.52696,-1.199745 -2.166013,-1.959475 -0.430003,-0.589521 -0.779169,-1.26746 -0.771505,-2.049412 0.0585,-1.078383 0.318897,-2.100652 0.841095,-3.020847 0.600805,-0.980606 1.218458,-1.842216 2.161537,-2.441986 0.523796,-0.330596 1.059651,-0.708891 1.667675,-0.798167 1.066221,0 1.066221,-1.681743 0,-1.681743 z" />
    <path
       style="fill:#000000;fill-opacity:1;stroke-width:0.815739;stroke-linecap:round;stroke-linejoin:round"
       id="path16"
       d="m 42.739038,69.568541 c 0.8728,-0.21245 1.763694,-0.327984 2.648408,-0.465303 0.619975,-0.128136 1.23695,-0.123465 1.861278,-0.06681 0.513242,0.06146 1.028081,0.0893 1.543832,0.103729 0.253913,0.0019 0.517171,0.02168 0.761976,0.103988 1.033845,0.284229 1.394244,-1.346445 0.3604,-1.630673 v 0 c -0.355711,-0.08956 -0.719455,-0.144792 -1.08494,-0.138819 -0.489313,-0.0137 -0.977829,-0.04422 -1.465338,-0.09397 -0.73439,-0.06155 -1.462781,-0.06077 -2.190169,0.09421 -0.897266,0.152611 -1.797664,0.278878 -2.693011,0.441868 -1.047218,0.203124 -0.789654,1.854898 0.257564,1.651772 z" />
    <path
       style="fill:#000000;fill-opacity:1;stroke-width:0.815739;stroke-linecap:round;stroke-linejoin:round"
       id="path17"
       d="m 64.640319,69.481851 c 0.902392,-0.0374 1.805696,-0.04809 2.708606,-0.06077 1.910394,-0.0043 3.818967,-0.109452 5.724957,-0.245472 1.525795,-0.08168 3.042345,-0.297803 4.554322,-0.531985 1.398685,-0.186671 2.797025,-0.373401 4.189859,-0.609408 1.558272,-0.260938 3.13278,-0.366633 4.702914,-0.497676 1.283907,-0.143274 2.583048,-0.07985 3.860888,-0.284931 0.578585,-0.126248 1.159874,-0.233367 1.7403,-0.3477 0.551576,-0.07266 1.101248,-0.144154 1.649625,-0.24388 0.372693,-0.06627 0.750036,-0.08321 1.126627,-0.09528 0.349796,-0.04318 0.185361,-0.0161 0.493842,-0.07709 1.042533,-0.227164 0.754491,-1.871542 -0.288042,-1.644379 v 0 c -0.154271,0.03975 -0.07299,0.02239 -0.244015,0.0501 -0.447609,0.01124 -0.895308,0.0429 -1.338035,0.120509 -0.548407,0.107218 -1.098505,0.180857 -1.6516,0.25211 -0.575942,0.107059 -1.151318,0.220045 -1.722492,0.356033 -1.227164,0.248591 -2.493687,0.154564 -3.729809,0.326861 -1.60746,0.124619 -3.219466,0.210887 -4.813717,0.487151 -1.387093,0.225867 -2.777719,0.423874 -4.16946,0.61047 -1.480674,0.21592 -2.96235,0.443524 -4.453675,0.544567 -1.875955,0.138516 -3.755471,0.237389 -5.636092,0.222413 -0.916,-0.0076 -1.83197,-0.02003 -2.747978,-0.01139 -1.064992,0.03389 -1.02202,1.713689 0.04302,1.679801 z" />
    <path
       style="fill:#000000;fill-opacity:1;stroke-width:0.815739;stroke-linecap:round;stroke-linejoin:round"
       id="path18"
       d="m 109.421,66.214332 c 0.51836,-0.121504 1.03148,-0.121418 1.55067,-0.02451 0.0453,0.01757 0.0947,0.02506 0.13581,0.05271 0.0244,0.01638 -0.0804,0.01283 -0.0755,0.044 0.0189,0.119428 0.0753,0.227671 0.10712,0.343556 0.12413,0.363473 0.22529,0.734219 0.27324,1.119731 0.0255,0.267415 0.0359,0.227022 -0.0695,0.354109 -0.2435,0.432439 -0.37463,0.933003 -0.49814,1.421437 -0.10337,0.413664 -0.13494,0.841366 -0.15141,1.268432 -0.006,0.214693 -0.003,0.109553 -0.006,0.315434 -0.0115,1.187737 1.49464,1.205725 1.50603,0.01798 v 0 c 0.001,-0.177609 1.1e-4,-0.08806 0.003,-0.268672 0.0101,-0.297826 0.0251,-0.596731 0.0928,-0.886419 0.0789,-0.324759 0.15976,-0.663313 0.31346,-0.953518 0.25715,-0.469542 0.39728,-0.963992 0.29523,-1.517931 -0.0667,-0.472324 -0.17938,-0.931954 -0.33333,-1.378675 -0.23983,-0.818958 -0.53928,-1.402613 -1.36423,-1.5754 -0.66868,-0.109567 -1.33599,-0.114454 -2.00471,0.0091 -1.05164,0.177253 -0.82689,1.835991 0.22474,1.658738 z" />
    <path
       style="fill:#000000;fill-opacity:1;stroke-width:0.815739;stroke-linecap:round;stroke-linejoin:round"
       id="path19"
       d="m 15.727282,77.056753 c -0.106353,-0.53689 -0.102489,-1.084838 -0.03603,-1.626815 0.05091,-0.500412 0.170396,-0.97948 0.289998,-1.462495 0.137795,-0.620799 0.163686,-1.258514 0.115189,-1.893248 -0.02755,-0.598177 -0.220625,-1.112904 -0.55013,-1.577155 C 15.36693,70.267093 15.09622,70.09797 14.987588,69.806446 14.858385,69.558253 14.830206,69.265153 14.768892,68.989688 14.552574,68.285122 14.016297,67.969012 13.426248,67.734067 12.9287,67.555247 12.406308,67.519972 11.8876,67.54223 c -0.07812,0.0091 -0.156267,0.01798 -0.234399,0.02697 -1.05382,0.131005 -0.887709,1.793186 0.16611,1.662181 v 0 c 0.05063,-0.0069 0.101249,-0.01399 0.151885,-0.02105 0.322241,-0.03337 0.651947,0.01283 0.964596,0.102561 0.117799,0.043 0.231536,0.115204 0.348094,0.155346 0.01197,0.0042 0.02199,-0.06284 0.02614,-0.06715 0.0937,0.405977 0.153876,0.829769 0.351679,1.19404 0.185613,0.36651 0.41305,0.706565 0.720323,0.958929 0.153609,0.195837 0.219063,0.40741 0.224237,0.675958 0.04152,0.435209 0.02173,0.869769 -0.07048,1.297054 -0.135677,0.560912 -0.264714,1.120439 -0.320685,1.700334 -0.07442,0.729648 -0.08522,1.46382 0.03855,2.188667 0.227802,1.162186 1.701448,0.802871 1.473644,-0.359312 z" />
    <path
       style="fill:#000000;fill-opacity:1;stroke-width:0.815739;stroke-linecap:round;stroke-linejoin:round"
       id="path20"
       d="m 112.66519,72.02711 c 0.29299,-0.543295 0.58572,-1.086634 0.87991,-1.629128 0.24226,-0.455828 0.54203,-0.862903 0.83462,-1.277488 0.26071,-0.385131 0.53931,-0.754348 0.88891,-1.041951 0.22517,-0.168142 0.45414,-0.307976 0.71984,-0.371434 0.16154,-0.02147 0.31894,-0.07157 0.47683,-0.113777 1.03309,-0.275331 0.68398,-1.904828 -0.34913,-1.629495 v 0 c -0.16128,0.04285 -0.32125,0.09228 -0.4862,0.115535 -0.46406,0.134437 -0.88769,0.359877 -1.2749,0.677916 -0.43936,0.387374 -0.82102,0.837821 -1.15817,1.33713 -0.32355,0.471452 -0.65734,0.933826 -0.927,1.448598 -0.31779,0.593108 -0.63902,1.183553 -0.97006,1.767642 -0.45423,1.076793 0.91114,1.793238 1.36535,0.716445 z" />
    <path
       style="fill:#000000;fill-opacity:1;stroke-width:0.815739;stroke-linecap:round;stroke-linejoin:round"
       id="path21"
       d="m 13.470401,68.748546 c 1.439186,-0.157729 2.885435,-0.196822 4.330222,-0.235204 2.563537,-0.02964 5.126017,-0.112479 7.688779,-0.185112 2.137704,-0.0822 4.277315,-0.03346 6.415067,-0.09721 1.579462,-0.03407 3.153987,-0.151115 4.720914,-0.372629 1.791969,-0.259866 3.604332,-0.245857 5.408033,-0.257265 2.105301,-0.06549 4.210395,-0.13595 6.316151,-0.181273 2.64182,-0.05971 5.283415,-0.05552 7.924774,0.01802 2.415471,0.08057 4.830758,0.207817 7.24295,0.371212 1.835302,0.147799 3.673597,0.225226 5.513279,0.250386 2.375008,-0.05788 4.749524,-0.136916 7.124623,-0.193665 3.331159,-0.08396 6.663258,-0.04769 9.994841,-0.03167 1.812522,-0.0058 3.624983,0.05813 5.436461,-0.02425 1.244919,-0.03904 2.47687,-0.247808 3.712457,-0.402464 1.153767,-0.09403 2.296866,-0.290549 3.446793,-0.424991 1.147944,-0.08503 2.290065,-0.23253 3.432705,-0.3784 1.06039,-0.154765 2.0989,-0.451123 3.14221,-0.706507 1.04672,-0.306055 2.11618,-0.503776 3.1809,-0.714894 0.94423,-0.264313 1.9106,-0.37494 2.87124,-0.52818 1.47955,-0.208869 2.97824,-0.231153 4.46798,-0.214179 0.33783,0.02248 0.64192,0.02235 0.96967,0.106598 0.0649,0.01671 0.1286,0.04358 0.18633,0.08073 0.013,0.0081 0.0244,0.05364 0.0115,0.04658 -0.15602,-0.0851 -0.16336,-0.108111 -0.24692,-0.218114 -0.0656,0.244588 -0.20454,0.462731 -0.32284,0.680591 -0.14172,0.289896 -0.29559,0.575028 -0.4645,0.84668 -0.0722,-0.225705 -0.0627,0.247775 -0.13061,0.209217 -0.0163,-0.0092 0.0101,-0.03931 0.0146,-0.05898 -0.88584,0.649387 -0.0626,2.046628 0.82342,1.397246 v 0 c 0.22452,-0.195897 0.41182,-0.327683 0.53879,-0.609233 0.17868,-0.299953 0.35613,-0.603056 0.50528,-0.922622 0.2867,-0.536772 0.56271,-1.085218 0.52577,-1.734697 -0.0333,-0.166925 -0.0307,-0.34827 -0.10005,-0.500781 -0.4382,-0.963259 -1.48452,-0.905784 -2.30852,-0.933298 -1.56287,0.01312 -3.13454,0.02089 -4.69,0.190932 -0.97093,0.172151 -1.952,0.280475 -2.90551,0.563086 -1.08518,0.214848 -2.18113,0.38546 -3.24428,0.715663 -0.99196,0.248334 -1.98352,0.512808 -2.98831,0.686296 -1.13811,0.14189 -2.276436,0.278668 -3.41777,0.384334 -1.155253,0.130933 -2.306451,0.29991 -3.462637,0.421194 -1.203607,0.155068 -2.405289,0.347834 -3.617683,0.394692 -1.787739,0.111701 -3.577978,0.07534 -5.367843,0.09332 -3.336858,0.02451 -6.673634,0.07671 -10.010653,0.05764 -2.362072,0.01067 -4.722434,0.08729 -7.084019,0.131481 -1.81982,-0.04129 -3.639132,-0.103829 -5.455748,-0.236889 -2.428165,-0.144946 -4.858879,-0.256968 -7.289163,-0.342462 -2.660036,-0.07348 -5.319766,-0.06571 -7.980462,-0.03849 -2.100779,0.02536 -4.199684,0.10899 -6.299881,0.163787 -1.861321,0.0027 -3.729075,-0.0022 -5.580144,0.245419 -1.52296,0.2041 -3.051432,0.338759 -4.585594,0.376835 -2.136176,0.0755 -4.274301,0.05835 -6.410762,0.127012 -2.558631,0.0796 -5.116525,0.202959 -7.676878,0.172091 -1.435554,0.01969 -2.871265,0.04289 -4.30474,0.13807 -1.061533,0 -1.061533,1.674344 0,1.674344 z" />
    <path
       style="fill:#000000;fill-opacity:1;stroke-width:0.815739;stroke-linecap:round;stroke-linejoin:round"
       id="path22"
       d="m 13.023854,67.714998 c 0.961933,-0.42341 1.954417,-0.755532 2.947413,-1.075395 1.053804,-0.294697 2.113622,-0.564566 3.178889,-0.802866 0.961822,-0.189452 1.917843,-0.406725 2.884835,-0.562857 0.683644,-0.150653 1.378984,-0.228356 2.063062,-0.373393 1.037424,-0.225903 0.750983,-1.862222 -0.286441,-1.636321 v 0 c -0.66073,0.14914 -1.332259,0.240559 -1.993292,0.389683 -0.993717,0.16994 -1.981692,0.377589 -2.972246,0.568363 -1.096784,0.26806 -2.190571,0.552672 -3.278303,0.863272 -1.003726,0.324971 -2.01013,0.646126 -2.996975,1.029721 -1.014266,0.357301 -0.56121,1.957096 0.453058,1.599793 z" />
    <path
       style="fill:#000000;fill-opacity:1;stroke-width:0.815739;stroke-linecap:round;stroke-linejoin:round"
       id="path23"
       d="m 47.691354,61.43782 c 0.545489,-0.07435 1.083037,-0.202984 1.628088,-0.281072 0.559544,-0.06983 1.122725,-0.0846 1.685167,-0.09404 0.300066,-0.0039 0.600149,-0.0014 0.900219,2.99e-4 1.0602,8.94e-4 1.06122,-1.671439 0.0011,-1.672243 v 0 c -0.307972,0.0012 -0.615937,0.0039 -0.923888,0.0079 -0.617755,0.01052 -1.23553,0.03708 -1.850064,0.112306 -0.581531,0.08169 -1.153504,0.223257 -1.738049,0.278329 -1.045177,0.234625 -0.747674,1.883176 0.297504,1.648551 z" />
    <path
       style="fill:#000000;fill-opacity:1;stroke-width:0.815739;stroke-linecap:round;stroke-linejoin:round"
       id="path24"
       d="m 68.208577,62.405576 c 0.841875,-0.254529 1.719284,-0.276238 2.58501,-0.325579 2.38158,-0.102186 4.765397,-0.102229 7.148353,-0.101725 1.517817,-0.0027 3.035342,0.03564 4.553129,0.03584 1.107413,-0.0052 2.217296,-0.08204 3.318777,-0.211136 0.779404,-0.07818 1.553634,-0.195057 2.328825,-0.31149 0.575023,-0.123897 1.15058,-0.247868 1.711977,-0.435446 0.248772,-0.09731 0.504054,-0.169103 0.759763,-0.239027 1.02845,-0.300511 0.647404,-1.922677 -0.381047,-1.622164 v 0 c -0.274173,0.08536 -0.550349,0.163265 -0.818916,0.269597 -0.481723,0.172962 -0.983988,0.256764 -1.476199,0.384083 -0.758043,0.120682 -1.515337,0.242618 -2.278066,0.322579 -1.050328,0.122946 -2.1075,0.219858 -3.164092,0.209895 -1.519123,-0.0022 -3.038004,0.03361 -4.557128,0.0365 -2.402149,0.01182 -4.804623,0.0092 -7.206389,0.0614 -0.965878,0.03689 -1.941221,0.04497 -2.887115,0.292442 -1.036094,0.286375 -0.672976,1.920594 0.363118,1.63422 z" />
    <path
       style="fill:#000000;fill-opacity:1;stroke-width:0.815739;stroke-linecap:round;stroke-linejoin:round"
       id="path25"
       d="m 113.42928,57.470305 c 0.838,-0.09493 1.66797,-0.249731 2.50677,-0.337907 1.13712,-0.10739 2.27862,-0.05565 3.41184,-0.209889 0.95853,-0.154805 1.92234,-0.261974 2.88495,-0.379147 0.40913,-0.04782 0.81051,-0.14567 1.21344,-0.232929 0.11144,-0.02413 0.18609,-0.02416 0.18367,-0.03116 -0.17881,-0.519174 -0.39582,-1.020977 -0.59374,-1.531464 -0.6036,0.419287 -1.06146,1.008967 -1.4918,1.62909 -0.51249,0.756669 -0.9609,1.56821 -1.51638,2.287462 -0.36761,0.479433 -0.77536,0.913491 -1.1687,1.364891 -0.42626,0.485448 -0.8566,0.960583 -1.21451,1.512575 -0.26652,0.379592 -0.49048,0.788249 -0.63945,1.240573 -0.10164,0.210998 -0.28081,0.292378 -0.45942,0.414635 -0.88441,0.624523 -0.0926,2.019513 0.7919,1.394994 v 0 c 0.45796,-0.329043 0.8896,-0.665224 1.08718,-1.258361 0.0813,-0.309757 0.28124,-0.568435 0.43962,-0.832769 0.29905,-0.493457 0.70392,-0.880698 1.06755,-1.312338 0.4147,-0.479351 0.83992,-0.94569 1.22537,-1.456282 0.55939,-0.745132 1.03,-1.56443 1.55251,-2.341484 0.30892,-0.438057 0.61594,-0.876187 1.05494,-1.163647 -0.16743,-0.529159 -0.33356,-1.05884 -0.50232,-1.58748 -0.006,-0.01683 -1.15569,0.363706 -1.18898,0.276114 -0.9698,0.117813 -1.94159,0.215591 -2.90655,0.37892 -1.11502,0.156617 -2.24036,0.119255 -3.36041,0.208699 -0.79534,0.07386 -1.58233,0.214413 -2.37748,0.28678 -1.0652,0 -1.0652,1.680116 0,1.680115 z" />
    <path
       style="fill:#000000;fill-opacity:1;stroke-width:0.815739;stroke-linecap:round;stroke-linejoin:round"
       id="path26"
       d="m 111.75773,64.92705 c 0.93931,-0.618525 1.74882,-1.439524 2.59667,-2.196233 0.83496,-0.727112 1.73428,-1.352362 2.59954,-2.032679 0.47721,-0.414308 0.9753,-0.797653 1.45379,-1.209972 0.38005,-0.355876 0.77595,-0.689694 1.2035,-0.971176 0.48398,-0.271134 0.97434,-0.526071 1.45805,-0.797533 0.25329,-0.112335 0.46854,-0.309977 0.73916,-0.368149 1.03427,-0.275847 0.68451,-1.907186 -0.34978,-1.631336 v 0 c -0.38428,0.109452 -0.72238,0.305605 -1.06949,0.513721 -0.50799,0.293242 -1.0273,0.559482 -1.5358,0.852257 -0.4815,0.317328 -0.93396,0.683502 -1.36201,1.085332 -0.46085,0.401017 -0.93835,0.777874 -1.39521,1.184756 -0.8801,0.707902 -1.79397,1.361903 -2.65097,2.105159 -0.7875,0.700302 -1.53845,1.471657 -2.42876,2.01078 -0.9225,0.584624 -0.1812,2.039697 0.74131,1.455073 z" />
    <path
       style="fill:#000000;fill-opacity:1;stroke-width:0.815739;stroke-linecap:round;stroke-linejoin:round"
       id="path27"
       d="m 117.20113,65.452754 c -0.61722,0.87578 -0.94618,1.937438 -1.30125,2.964171 -0.31511,0.942489 -0.54692,1.914911 -0.69352,2.906695 -0.10178,0.729068 -0.10827,1.468103 -0.11663,2.204135 -0.009,0.629039 -0.0727,1.259089 -0.14388,1.883216 -0.11894,0.891457 -0.16269,1.791561 -0.19264,2.691243 -0.003,0.835161 -0.0794,1.665805 -0.13306,2.498124 -0.0826,0.795269 -0.017,1.589179 0.0381,2.38283 0.0208,0.916271 0.24241,1.800782 0.41671,2.690134 0.19717,0.921882 0.31296,1.861588 0.4788,2.790548 0.13148,0.797431 0.28388,1.590733 0.38167,2.394525 0.0626,0.580787 0.0786,1.165846 0.0839,1.750219 -0.027,0.162287 0.0761,0.693559 -0.0998,0.792773 -0.30743,0.544192 -0.7562,0.954688 -1.18146,1.378288 -0.48235,0.48053 -0.92659,1.00259 -1.36757,1.529363 -0.28623,0.319173 -0.62357,0.569575 -0.93374,0.857134 -0.16662,0.131971 -0.34107,0.251931 -0.50925,0.382675 -0.86872,0.688769 0.006,2.058963 0.87334,1.3702 v 0 c 0.20047,-0.164548 0.41854,-0.30039 0.61041,-0.47792 0.34279,-0.341809 0.7417,-0.613317 1.05068,-0.998985 0.40751,-0.489783 0.81609,-0.977401 1.25986,-1.427174 0.55143,-0.543364 1.11579,-1.087751 1.50448,-1.795225 0.0559,-0.126046 0.12167,-0.247236 0.16794,-0.378135 0.13998,-0.396789 0.12413,-0.843887 0.12268,-1.261005 -0.0144,-0.651211 -0.0392,-1.302659 -0.11028,-1.949687 -0.10597,-0.836985 -0.2636,-1.664003 -0.40437,-2.494251 -0.1735,-0.937902 -0.28523,-1.889129 -0.48273,-2.821827 -0.16469,-0.811963 -0.36795,-1.620058 -0.37803,-2.458861 -0.0489,-0.712918 -0.12125,-1.424915 -0.0453,-2.139838 0.0526,-0.851046 0.14244,-1.699624 0.13494,-2.553965 0.027,-0.848198 0.0692,-1.696615 0.1875,-2.53616 0.0831,-0.690042 0.15442,-1.387184 0.16154,-2.083555 0.003,-0.653256 0.0101,-1.308574 0.0902,-1.956845 0.12255,-0.881431 0.32875,-1.744091 0.59801,-2.584138 0.28981,-0.850641 0.55151,-1.746637 1.07868,-2.458416 0.69124,-0.904016 -0.45505,-1.9943 -1.14629,-1.090286 z" />
    <path
       style="fill:#000000;fill-opacity:1;stroke-width:1.03824;stroke-linecap:round;stroke-linejoin:round"
       id="path28"
       d="m 145.31213,101.31398 c 1.08757,-0.12612 2.18046,-0.19904 3.28135,-0.24099 1.37976,-0.0436 2.76123,-0.0474 4.14217,-0.0471 1.25239,0.0185 2.49796,-0.002 3.74419,-0.0891 1.05183,-0.0535 2.0829,-0.17297 3.11339,-0.32149 0.735,-0.0633 1.45121,-0.18021 2.17466,-0.28548 0.9478,-0.11724 1.91418,-0.14121 2.87367,-0.10567 2.0635,0.17594 4.12069,0.41246 6.14262,0.74816 1.03308,0.0873 1.64952,0.43747 2.34204,0.9199 0.46048,0.34655 0.78455,0.74369 1.06928,1.16615 0.37324,0.54029 0.63618,1.10765 1.00876,1.65036 0.81335,1.07001 1.90556,2.02654 2.96644,2.98373 1.17552,1.15856 2.48007,2.24884 3.79906,3.33075 1.3935,1.10957 2.92425,2.12939 4.35008,3.21884 1.07812,0.8524 2.28463,1.62073 3.43452,2.42589 1.0666,0.75201 2.13391,1.50285 3.09665,2.31917 0.53754,0.48453 1.00773,0.99376 1.34127,1.55985 0.30904,0.53652 0.61959,1.07886 0.84,1.63653 0.19746,0.56544 0.24707,1.14718 0.27664,1.72623 -0.0894,0.34942 0.17603,0.91894 -0.0213,1.23896 -0.0669,0.13869 -0.19766,0.37136 -0.393,0.45425 0.21174,-0.15269 0.31071,-0.10727 0.0376,-0.13985 -0.11706,-0.0144 -0.22548,-0.052 -0.34057,-0.0724 -0.72486,-0.11822 -1.44308,-0.26404 -2.11506,-0.48752 -0.80439,-0.23372 -1.56819,-0.53275 -2.26659,-0.8933 -0.65021,-0.32729 -1.19884,-0.72629 -1.75037,-1.12729 -0.65834,-0.49731 -1.3801,-0.93899 -2.20154,-1.3027 -0.87137,-0.28944 -1.78854,-0.52265 -2.73175,-0.67369 -0.0831,-0.0179 -0.16642,-0.0359 -0.24962,-0.0538 -1.65162,-0.33725 -2.34438,1.27093 -0.69275,1.60818 v 0 c 0.13494,0.0267 0.27001,0.0532 0.40501,0.0799 0.67361,0.10048 1.31358,0.27786 1.95464,0.44877 0.65514,0.28916 1.23016,0.63926 1.7497,1.04033 0.65204,0.47789 1.31609,0.94345 2.08736,1.33199 0.83607,0.41111 1.71506,0.78384 2.6662,1.05649 0.81661,0.25806 1.6669,0.45873 2.5431,0.59843 0.96336,0.16828 1.96005,0.2328 2.73124,-0.29425 0.4565,-0.37691 0.84209,-0.79651 0.97138,-1.28822 0.10192,-0.52706 0.0627,-1.0578 0.0463,-1.58873 -0.0427,-0.70803 -0.11706,-1.41835 -0.36846,-2.10819 -0.25456,-0.62397 -0.58182,-1.23567 -0.93726,-1.83541 -0.44004,-0.70949 -1.01216,-1.36454 -1.71229,-1.96777 -1.01591,-0.84896 -2.13599,-1.63177 -3.24804,-2.42085 -1.12115,-0.79595 -2.30998,-1.54616 -3.38244,-2.37399 -1.41344,-1.07096 -2.91164,-2.08586 -4.29356,-3.17643 -1.30193,-1.05807 -2.56805,-2.13547 -3.7255,-3.27093 -0.95965,-0.86174 -1.92938,-1.73127 -2.67679,-2.69038 -0.36918,-0.54673 -0.61128,-1.12335 -0.9969,-1.66416 -0.41276,-0.58727 -0.89341,-1.14195 -1.54868,-1.6195 -0.99861,-0.69303 -2.07249,-1.212139 -3.51836,-1.354279 -2.16539,-0.338713 -4.36176,-0.584624 -6.56043,-0.795625 -1.17017,-0.04276 -2.34828,-0.02968 -3.50339,0.122716 -0.72498,0.104752 -1.44101,0.220675 -2.17702,0.287657 -0.94646,0.139597 -1.8916,0.253797 -2.85884,0.305808 -1.16745,0.08515 -2.33188,0.08448 -3.50517,0.07579 -1.41999,0.0079 -2.84055,0.01497 -4.25947,0.05611 -1.05508,0.03682 -2.11425,0.07735 -3.15397,0.214413 -1.72925,0 -1.72925,1.68372 0,1.68372 z" />
    <path
       style="fill:#000000;fill-opacity:1;stroke-width:0.815739;stroke-linecap:round;stroke-linejoin:round"
       id="path29"
       d="m 60.624254,31.534912 c -0.558351,1.026407 -1.3338,1.837894 -2.109878,2.653762 -1.413955,1.462232 -3.000103,2.675295 -4.646034,3.78359 -1.3504,0.850322 -2.699055,1.711378 -4.099288,2.456602 -1.083756,0.654767 -2.191787,1.266559 -3.245476,1.980394 -0.831059,0.547849 -1.581281,1.201785 -2.203253,2.024843 -0.475444,0.652227 -0.857945,1.380619 -1.204035,2.12508 -0.164187,0.292807 -0.19902,0.652544 -0.347206,0.951239 -0.444166,1.081542 0.927221,1.782124 1.371386,0.700585 v 0 c 0.11261,-0.292985 0.188058,-0.599269 0.307485,-0.889256 0.290563,-0.639028 0.617076,-1.263259 1.019305,-1.823547 0.507674,-0.693593 1.146208,-1.219124 1.83232,-1.679728 1.003056,-0.696182 2.069444,-1.275517 3.106131,-1.906121 1.441161,-0.771508 2.819476,-1.680805 4.209627,-2.559096 1.733096,-1.165294 3.400447,-2.444869 4.898147,-3.971226 0.839609,-0.866482 1.673439,-1.736466 2.298462,-2.816378 0.653488,-0.936671 -0.534203,-1.967411 -1.187693,-1.030743 z" />
    <path
       style="fill:#000000;fill-opacity:1;stroke-width:0.815739;stroke-linecap:round;stroke-linejoin:round"
       id="path30"
       d="m 60.432954,32.932413 c 0.482833,0.597765 0.954134,1.20224 1.292638,1.915934 0.450416,0.888351 0.534609,1.836575 0.489221,2.835135 -0.155241,1.204333 -0.432713,2.395841 -0.864732,3.513772 -0.592613,1.661067 -1.032488,3.383348 -1.513345,5.08736 -0.370435,1.122068 -0.637333,2.270994 -0.772343,3.456215 -0.08304,0.648301 -0.05285,1.293596 0.0039,1.941707 0.105516,1.170753 1.590023,1.004324 1.484506,-0.166427 v 0 c -0.04909,-0.525509 -0.07903,-1.046078 -0.0094,-1.572713 0.115031,-1.088585 0.366108,-2.140889 0.697353,-3.173119 0.453418,-1.655047 0.875928,-3.326867 1.468976,-4.928033 0.491509,-1.302533 0.827521,-2.679322 0.983218,-4.083379 0.0488,-1.298237 -0.07988,-2.547723 -0.65912,-3.702502 -0.418754,-0.845299 -0.956734,-1.585579 -1.530632,-2.306794 -0.749922,-0.843957 -1.820053,0.33889 -1.070131,1.182844 z" />
    <path
       style="fill:#000000;fill-opacity:1;stroke-width:0.815739;stroke-linecap:round;stroke-linejoin:round"
       id="path31"
       d="m 64.446343,34.000498 c 1.736706,0.548066 3.424171,1.268249 5.158277,1.826332 1.690967,0.544197 3.401778,0.9949 5.109624,1.466658 4.820913,1.405522 9.755361,2.21602 14.595468,3.518639 2.416729,0.684941 4.810942,1.504778 7.047129,2.747401 0.884059,0.500533 1.60896,1.257951 2.154164,2.17506 0.194552,0.423665 0.392961,0.863774 0.471711,1.335689 0.217502,1.16155 1.690344,0.818498 1.472834,-0.343051 v 0 c -0.13524,-0.684307 -0.39548,-1.329395 -0.716558,-1.930433 -0.712907,-1.134822 -1.610539,-2.098324 -2.741367,-2.704067 -2.348335,-1.250089 -4.841739,-2.094723 -7.367435,-2.776459 -4.840401,-1.277536 -9.780255,-2.018389 -14.591005,-3.451795 -1.633294,-0.47294 -3.389306,-0.958997 -5.011964,-1.507074 -1.743476,-0.58889 -3.43646,-1.343869 -5.173957,-1.952824 -1.011811,-0.320923 -1.418738,1.275005 -0.406921,1.595924 z" />
    <path
       style="fill:#ffff00;fill-opacity:1;stroke-width:0.815739;stroke-linecap:round;stroke-linejoin:round"
       id="path32"
       d="m 94.069035,56.350447 c 0.417177,-0.574344 0.865776,-1.124007 1.297927,-1.686084 0.387241,-0.503037 0.733999,-0.731038 1.278306,-0.938956 0.577946,-0.189076 1.183135,-0.217168 1.781084,-0.24137 0.658399,-0.01645 1.316981,-0.01767 1.975508,-0.01384 0.71474,0.01398 1.42692,0.0084 2.13929,-0.05994 0.64792,-0.07361 1.29808,-0.111817 1.94888,-0.132289 0.72489,-0.06511 1.44858,-0.142091 2.17492,-0.184482 0.78492,-0.07488 1.55745,-0.25433 2.33905,-0.361006 0.46448,-0.06082 0.93198,-0.07644 1.39917,-0.08153 0.0616,0.01864 0.37994,-0.03917 0.42768,0.03558 0.0451,0.07061 -0.24476,-0.124359 0.0101,0.03521 0.0444,0.04422 0.59407,0.349939 0.38888,0.243577 0.14722,0.150267 0.27766,0.331863 0.37655,0.528826 0.10337,0.149851 0.16702,0.298648 0.1873,0.482618 0.0209,0.241458 0.0186,0.484532 0.0187,0.726843 -0.0101,0.339363 0.0388,0.6838 -0.05,1.012472 -0.0815,0.404133 -0.23431,0.78097 -0.34507,1.174794 -0.19811,0.417508 -0.38589,0.839048 -0.54141,1.279722 -0.16681,0.452589 -0.3261,0.907822 -0.48741,1.362649 -0.0753,0.238201 -0.16559,0.470265 -0.25779,0.700845 -0.43122,1.081576 0.9402,1.761743 1.37145,0.680165 v 0 c 0.10106,-0.254095 0.20106,-0.509596 0.28445,-0.771641 0.1587,-0.456936 0.31209,-0.916058 0.47908,-1.369626 0.16532,-0.4831 0.42079,-0.911927 0.59016,-1.392935 0.10957,-0.419657 0.27311,-0.820395 0.35739,-1.249088 0.10164,-0.472901 0.11649,-0.942162 0.10424,-1.427223 5.2e-4,-0.33269 0.003,-0.666837 -0.0369,-0.997246 -0.0611,-0.387012 -0.17264,-0.753654 -0.38438,-1.073332 -0.18185,-0.329431 -0.39056,-0.647842 -0.64849,-0.90886 -0.21467,-0.191231 -0.4432,-0.329772 -0.68267,-0.477154 -0.3731,-0.224673 -0.75992,-0.306439 -1.18266,-0.266772 -0.52246,0.01081 -1.0454,0.0294 -1.56399,0.107217 -0.74363,0.107679 -1.47856,0.286209 -2.22666,0.352379 -0.71502,0.03796 -1.42627,0.123796 -2.14001,0.182118 -0.68096,0.01858 -1.36067,0.06023 -2.03836,0.139395 -0.66873,0.06555 -1.33671,0.06142 -2.00781,0.05228 -0.678924,8.97e-4 -1.35814,-0.01168 -2.036791,0.01465 -0.74312,0.03479 -1.493582,0.07732 -2.208723,0.326927 -0.813883,0.315191 -1.34757,0.707744 -1.917601,1.439484 -0.487939,0.642991 -1.009236,1.254203 -1.479865,1.913866 -0.533626,1.030882 0.773522,1.872567 1.307148,0.841681 z" />
    <path
       style="fill:#ffff00;fill-opacity:1;stroke-width:0.815739;stroke-linecap:round;stroke-linejoin:round"
       id="path33"
       d="m 50.943522,65.055561 c 0.666975,-0.309045 1.29487,-0.705143 1.933488,-1.078318 0.65336,-0.396751 1.33099,-0.746123 2.029758,-1.03119 0.572788,-0.250667 1.166909,-0.422892 1.759432,-0.601634 0.473057,-0.161938 0.963522,-0.221724 1.455124,-0.255188 0.434508,-0.0046 0.859429,-0.114959 1.289076,-0.173698 0.513379,-0.05112 1.029775,-0.05105 1.544788,-0.05781 0.68839,-0.02966 1.371494,0.01687 2.055908,0.09153 0.458833,0.05229 0.879433,0.236455 1.298114,0.439622 0.42813,0.210228 0.836025,0.4679 1.257888,0.69503 0.176461,0.09936 0.371763,0.198193 0.431472,0.421507 0.03917,0.166241 0.041,0.339191 0.04374,0.509923 -0.01963,-0.116603 0.0061,2.58e-4 -0.01963,-4.7e-5 -0.02945,-2.97e-4 0.04354,-0.116026 -0.06701,0.07123 -0.584093,0.997563 0.680813,1.918842 1.264903,0.921282 v 0 c 0.183004,-0.317279 0.325409,-0.643675 0.328526,-1.031491 -0.01009,-0.410781 -0.04423,-0.821312 -0.197395,-1.201403 C 67.09595,62.22905 66.726333,61.827942 66.214228,61.581748 65.773171,61.3468 65.351671,61.069642 64.900823,60.85912 64.338507,60.590464 63.766714,60.358178 63.15141,60.299021 c -0.733625,-0.07511 -1.465883,-0.125556 -2.203256,-0.09323 -0.575357,-0.0012 -1.15241,-0.01197 -1.725925,0.04869 -0.399656,0.05772 -0.794429,0.165053 -1.198424,0.171979 -0.590866,0.04566 -1.181151,0.120207 -1.749617,0.31591 -0.634425,0.195172 -1.271449,0.380364 -1.885216,0.650274 -0.753248,0.316497 -1.485452,0.694347 -2.1917,1.125293 -0.600419,0.34522 -1.188138,0.720725 -1.824136,0.981721 -0.986423,0.449911 -0.415937,2.00579 0.570484,1.555882 z" />
    <path
       style="fill:#ffff00;fill-opacity:1;stroke-width:0.815739;stroke-linecap:round;stroke-linejoin:round"
       id="path34"
       d="m 26.978337,62.839924 c 0.536216,-0.550896 1.020713,-1.162364 1.523552,-1.750912 0.582914,-0.78419 1.09488,-1.629414 1.63868,-2.447942 0.325695,-0.486151 0.661637,-0.966106 1.018392,-1.424417 0.215598,-0.241928 0.44567,-0.473976 0.686266,-0.685713 0.145937,-0.06943 0.320205,-0.06257 0.476266,-0.07299 0.516096,-0.0022 1.028334,-0.02276 1.542065,-0.07958 0.752739,-0.08242 1.507662,-0.118924 2.260701,-0.19843 0.668297,-0.03993 1.327033,-0.165438 1.988409,-0.2707 0.458248,-0.08063 0.908919,-0.188932 1.371595,-0.238081 0.72213,-0.103267 1.44188,-0.224264 2.163465,-0.332027 0.499327,-0.07895 1.002251,-0.112984 1.505785,-0.132129 0.552269,-0.01465 1.104741,-0.0082 1.657075,-0.0027 0.166931,0.03433 0.244601,0.01844 0.302891,0.151546 0.141298,0.115896 0.167544,0.218989 0.231985,0.391971 0.06649,0.256387 0.121101,0.518018 0.168885,0.779932 0.04837,0.343116 0.05783,0.691009 0.06446,1.037658 0.0056,0.122456 -0.0288,0.38645 -0.122629,0.469884 -0.142106,0.311532 -0.268858,0.631132 -0.42812,0.932884 -0.205834,0.403751 -0.326319,0.850445 -0.483947,1.278012 -0.21309,0.582171 -0.407245,1.170341 -0.53842,1.78236 -0.08762,0.223507 -0.01413,0.731474 -0.244641,0.865819 -0.528173,0.618308 -0.877219,0.406921 0.302953,1.779692 0.09535,0.110908 0.258933,-0.105011 0.388403,-0.157529 0.727391,-0.482771 1.230843,-1.238606 1.723714,-1.985951 0.482735,-0.706523 0.876164,-1.483479 1.247004,-2.267855 0.232665,-0.479894 0.312227,-1.016074 0.411502,-1.54273 0.07988,-0.44398 0.196975,-0.876631 0.267029,-1.323528 0.07811,-0.516584 0.09145,-0.918595 -0.04596,-1.42625 -0.245357,-0.604738 -0.742892,-0.968661 -1.20525,-1.348483 -0.428651,-0.335286 -0.82027,-0.714578 -1.264142,-1.027844 -0.577215,-0.41335 -1.169021,-0.796834 -1.780548,-1.142799 -0.653999,-0.344233 -1.359511,-0.53285 -2.08015,-0.557302 -0.673293,0.02203 -1.334079,0.189476 -1.988331,0.355373 -0.623232,0.15045 -1.262559,0.15601 -1.894068,0.229608 -0.652882,0.09453 -1.308965,0.125873 -1.955241,0.269425 -0.539893,0.119269 -1.052264,0.339612 -1.530452,0.640132 -0.239869,0.162141 -0.508838,0.240604 -0.772506,0.33841 -0.421695,0.135979 -0.8408,0.278963 -1.257119,0.434507 -0.392279,0.110663 -0.771764,0.251773 -1.138284,0.443249 -0.296821,0.14857 -0.586614,0.315388 -0.871833,0.489515 -0.926365,0.581055 -0.189589,2.042206 0.736775,1.46115 v 0 c 0.248327,-0.165208 0.51666,-0.294887 0.776782,-0.435168 0.312577,-0.1662 0.639008,-0.275468 0.973872,-0.376797 0.41446,-0.156242 0.833209,-0.293234 1.253107,-0.430072 0.361772,-0.13435 0.730749,-0.24924 1.057304,-0.477695 0.328328,-0.229397 0.696649,-0.371008 1.074091,-0.462879 0.59599,-0.145623 1.21017,-0.13902 1.81248,-0.244137 0.6881,-0.0854 1.385529,-0.09145 2.06472,-0.259479 0.540357,-0.13657 1.085075,-0.287258 1.640705,-0.310668 0.491077,-0.01571 0.980146,0.160216 1.427612,0.370953 0.569662,0.320587 1.118632,0.679726 1.653048,1.069301 0.413097,0.29248 0.770592,0.658302 1.174305,0.964593 0.231205,0.19079 0.467887,0.374397 0.681452,0.588107 0.04051,-0.179432 -0.0075,0.559981 -0.02216,0.565083 -0.06202,0.425482 -0.182226,0.834491 -0.253181,1.257712 -0.07257,0.379805 -0.118635,0.770992 -0.270177,1.124518 -0.3236,0.713985 -0.671323,1.42081 -1.107867,2.057664 -0.358404,0.541222 -0.710353,1.107958 -1.231161,1.468211 0.05747,-0.01096 0.141745,-0.08804 0.172424,-0.03277 0.243731,0.439195 0.405031,0.929408 0.588384,1.403713 0.0056,0.0145 -0.04599,0.03685 -0.03575,0.02585 0.09016,-0.09677 0.201773,-0.167034 0.283138,-0.274857 0.04566,-0.04922 0.08598,-0.104233 0.128986,-0.156341 0.33361,-0.469565 0.503001,-0.988205 0.565219,-1.583497 0.105055,-0.523158 0.280915,-1.020837 0.45877,-1.517869 0.13781,-0.362129 0.25225,-0.736051 0.410263,-1.087718 0.159121,-0.315058 0.305066,-0.637513 0.447383,-0.96183 0.184388,-0.410876 0.336867,-0.846407 0.303168,-1.316255 -0.01168,-0.445532 -0.02976,-0.892222 -0.09465,-1.332729 -0.06937,-0.373638 -0.140592,-0.750551 -0.260051,-1.10854 -0.146501,-0.371075 -0.316593,-0.729622 -0.613382,-0.980445 -0.379024,-0.349459 -0.79703,-0.574509 -1.30015,-0.567746 -0.564948,0.0032 -1.12989,0.0079 -1.694838,0.0111 -0.560209,0.0089 -1.117656,0.06191 -1.671782,0.15667 -0.699601,0.109164 -1.398623,0.218639 -2.0998,0.314227 -0.491058,0.04952 -0.971503,0.148369 -1.455892,0.245454 -0.63344,0.110923 -1.264082,0.238881 -1.905638,0.278714 -0.755094,0.07945 -1.512181,0.10491 -2.267063,0.186828 -0.493737,0.0534 -0.986036,0.05431 -1.481772,0.06284 -0.480959,0.02937 -0.953984,0.09942 -1.345083,0.444234 -0.304264,0.283827 -0.606347,0.575935 -0.87375,0.903192 -0.37154,0.496901 -0.734691,1.002979 -1.073199,1.528755 -0.496036,0.767382 -0.97668,1.549341 -1.509084,2.285156 -0.459426,0.533191 -0.901373,1.092294 -1.401514,1.577943 -0.831391,0.744899 0.113128,2.056245 0.944528,1.311347 z" />
    <text
       xml:space="preserve"
       style="font-size:13.5778px;font-family:'Ubuntu Mono';-inkscape-font-specification:'Ubuntu Mono';text-align:center;text-anchor:middle;fill:#1a1a1a;fill-opacity:1;stroke-width:0.815739;stroke-linecap:round;stroke-linejoin:round"
       x="171.30936"
       y="72.481987"
       id="text34"
       transform="scale(0.94689401,1.0560844)"><tspan
         sodipodi:role="line"
         id="tspan34"
         style="fill:#1a1a1a;stroke-width:0.815739"
         x="171.30936"
         y="72.481987">Visuals</tspan></text>
    <text
       xml:space="preserve"
       style="font-size:13.5778px;font-family:'Ubuntu Mono';-inkscape-font-specification:'Ubuntu Mono';text-align:center;text-anchor:middle;fill:#1a1a1a;fill-opacity:1;stroke-width:0.815739;stroke-linecap:round;stroke-linejoin:round"
       x="170.68488"
       y="60.09864"
       id="text34-2"
       transform="scale(0.94689401,1.0560844)"><tspan
         sodipodi:role="line"
         id="tspan34-0"
         style="fill:#1a1a1a;stroke-width:0.815739"
         x="170.68488"
         y="60.09864">Sounds +</tspan></text>
    <path
       style="fill:#1a1a1a;fill-opacity:1;stroke-width:0.815739;stroke-linecap:round;stroke-linejoin:round"
       id="path35"
       d="m 137.97723,41.970857 c -1.06061,2.662695 -2.52086,5.067846 -3.94618,7.496156 -1.29385,2.200481 -2.61901,4.396952 -3.64493,6.774016 -0.4853,1.124419 -0.66143,1.718388 -1.05091,2.869748 -0.91526,2.568978 -1.34115,5.280157 -1.79265,7.982461 -0.41219,2.476829 -0.99408,4.9127 -1.47172,7.373976 -0.25518,1.598828 -0.45156,3.207457 -0.79722,4.786346 -0.26303,1.314406 -0.66444,2.584377 -0.91329,3.901855 -0.23188,1.044744 -0.18078,2.079926 -0.061,3.133961 0.19172,1.43484 0.8224,2.688489 1.51154,3.892085 0.70672,1.117795 1.56273,2.101221 2.31321,3.182694 0.92909,1.437939 1.10608,1.782689 2.76784,2.197462 2.30278,0.314853 4.43143,-0.700104 6.45055,-1.808487 2.34409,-1.326681 4.64576,-2.743369 6.97137,-4.109825 1.8972,-1.12881 3.98223,-1.585491 6.09936,-1.810185 1.79789,-0.180562 3.59827,0.05634 5.39766,0.05822 0.92193,8.97e-4 1.70284,-0.05178 2.6199,-0.09999 2.47622,-0.166952 4.95351,-0.03009 7.43138,-0.15604 2.10268,-0.221731 4.20529,-0.436509 6.30139,-0.725852 2.19851,-0.18527 4.39986,0.09235 6.59686,0.200503 2.67945,0.148447 5.35112,0.497086 8.03529,0.510073 1.69734,-0.01297 3.26545,-0.456961 4.76961,-1.303623 1.34275,-0.772411 2.47253,-1.850227 3.5003,-3.068088 0.91907,-1.108869 1.38386,-2.475106 1.67014,-3.924694 0.34236,-2.930429 0.40922,-5.886837 0.47488,-8.837349 0.0803,-4.989443 0.27957,-9.975058 0.37875,-14.96426 0.0742,-4.22396 0.11317,-8.448483 0.13162,-12.673154 -0.0115,-2.727581 0.0592,-5.456969 -0.0349,-8.183053 -0.16436,-2.925351 -0.8857,-5.756009 -1.40524,-8.616624 -0.37156,-2.116029 -0.84041,-4.209091 -1.18329,-6.331339 -0.22808,-1.18036 -0.3868,-2.377628 -0.76173,-3.514184 -0.44522,-1.206601 -1.07114,-1.906821 -2.06101,-2.591309 -1.14537,-0.703177 -2.37768,-1.125524 -3.64473,-1.449474 -1.48486,-0.276196 -2.95684,-0.622967 -4.42878,-0.974763 -2.05074,-0.670876 -4.15698,-0.957876 -6.28156,-1.114531 -1.95626,-0.2058457 -3.91284,-0.3968705 -5.8759,-0.4974937 -1.92269,-0.063607 -3.84663,-0.060853 -5.77,-0.067269 -1.05619,0.1324034 -3.10883,-0.2728226 -4.04541,0.1944127 -0.31342,0.1563569 -0.57023,0.426722 -0.85536,0.640084 -1.16248,1.383357 -1.52198,3.155429 -1.2819,4.99078 0.10654,0.275983 0.17437,0.574901 0.31964,0.827951 0.36578,0.637115 0.89634,1.072456 1.39829,1.559177 0.8379,0.812494 1.65767,1.642635 2.47118,2.485402 1.38579,1.622499 2.76984,3.273938 3.99906,5.049995 0.78639,1.195459 1.59393,2.370762 2.46678,3.489409 0.49532,0.647702 0.77255,1.004022 0.77194,1.842983 -0.0789,1.067458 0.0477,2.131489 0.12269,3.194482 -0.006,0.71304 0.0336,1.112886 -0.64815,1.213904 -0.85761,-0.104248 -1.60447,-0.739184 -2.30676,-1.252148 -0.8147,-0.692362 -1.60659,-1.431935 -2.31417,-2.259738 -0.7141,-0.907225 -1.65054,-1.355059 -2.67808,-1.63915 -1.2301,-0.195093 -2.24101,0.08885 -3.21632,0.925499 -0.96458,1.002831 -1.60528,2.310022 -2.30305,3.540502 -0.49503,0.883963 -1.26792,1.754289 -1.20215,2.87691 0.0144,0.237065 0.0999,0.461891 0.14986,0.692835 0.57443,1.332415 1.21275,2.63379 1.85356,3.928794 0.21624,0.581573 1.14336,1.803466 0.82532,2.459287 -0.62217,0.484781 -1.24355,0.974479 -1.89901,1.408619 -0.54769,0.285805 -1.16437,0.961166 -1.81277,0.933635 -0.0682,0.02333 0.18823,-0.03967 0.16197,-0.102374 -0.0832,-0.198386 -0.23572,-0.350368 -0.34724,-0.530563 -0.25143,-0.406249 -0.22948,-0.386594 -0.4458,-0.818889 -0.40619,-0.873255 -0.95866,-1.630293 -1.50769,-2.392704 -0.51195,-0.579062 -0.81896,-1.315391 -1.25121,-1.957527 -0.13783,-0.12469 -0.25148,-0.293764 -0.41376,-0.374064 -1.2117,-0.599551 -2.761,0.245999 -3.86341,0.778623 -1.36458,0.870866 -2.76152,1.729366 -3.92569,2.920941 -0.72238,0.780639 -0.90693,1.676032 -0.7867,2.753093 0.0483,0.371231 0.0603,0.676026 -0.2031,0.934934 -0.24872,0.261943 -0.60957,0.497249 -0.96262,0.485452 -0.18641,0.0071 -0.27474,-0.09841 -0.36074,-0.248168 -0.15903,-0.424787 -0.32871,-0.834097 -0.32449,-1.301496 0.0588,-0.91695 0.22154,-1.843429 0.42476,-2.736311 0.22653,-0.823074 0.39094,-1.627831 0.23579,-2.481482 -0.31773,-1.066524 -1.16048,-1.203826 -2.04383,-1.104784 -0.53582,0.126939 -1.02661,0.415039 -1.50774,0.697321 -0.9369,0.556654 -0.23106,2.034405 0.70582,1.477751 v 0 c 0.31064,-0.187664 0.63096,-0.352303 0.95607,-0.506312 0.32506,-0.03859 0.35611,0.03495 0.41848,-0.196843 0.14172,0.57261 -0.1087,1.151639 -0.21733,1.712305 -0.22995,1.052469 -0.43145,2.136182 -0.47083,3.218693 0.0528,0.803101 0.2481,1.556611 0.62811,2.2478 0.43674,0.601051 0.99756,0.937333 1.7085,0.893624 0.75377,-0.11617 1.45157,-0.443585 1.97083,-1.085893 0.45619,-0.664351 0.67489,-1.381408 0.53342,-2.223337 -0.0748,-0.601053 -0.0959,-0.827113 0.31625,-1.320361 1.01819,-1.090781 2.29193,-1.826105 3.4959,-2.626334 0.67342,-0.330403 0.69087,-0.370691 1.38929,-0.59111 0.31339,-0.09893 0.65078,-0.10566 0.95281,-0.241612 0.0311,-0.01398 0.0199,-0.08526 0.052,-0.09636 0.0355,-0.01225 0.0696,0.02813 0.10437,0.04223 0.46138,0.623885 0.73677,1.412143 1.27173,1.980688 0.50024,0.687337 1.00459,1.36629 1.37167,2.158037 0.32436,0.640274 0.87472,1.807643 1.49661,2.135374 0.19123,0.100787 0.411,0.111614 0.61651,0.167424 0.87837,-0.158529 1.65747,-0.634439 2.39902,-1.169972 0.72155,-0.481334 1.75207,-1.103541 2.27706,-1.841097 0.13249,-0.186128 0.21306,-0.411638 0.31959,-0.617457 0.0311,-0.202462 0.0875,-0.402064 0.0934,-0.607376 0.0324,-1.120271 -0.65178,-2.089178 -1.081,-3.037482 -0.59286,-1.187186 -1.15913,-2.39147 -1.7175,-3.598973 -0.0464,-0.106756 -0.15836,-0.20061 -0.14344,-0.318111 0.0907,-0.71148 0.77217,-1.265256 1.01609,-1.894356 0.60758,-1.080096 1.1721,-2.220409 1.9885,-3.126385 0.52696,-0.52952 1.22554,-0.679095 1.92259,-0.603416 0.75835,0.197899 1.42941,0.506132 1.95337,1.178085 0.79312,0.907716 1.6591,1.737621 2.57617,2.486029 1.07433,0.786745 2.17558,1.661548 3.52588,1.476032 0.20113,-0.07469 0.41452,-0.116646 0.60337,-0.224064 0.95151,-0.541291 1.17146,-1.633086 1.12735,-2.726888 -0.0708,-1.031219 -0.19375,-2.061375 -0.10799,-3.096326 -0.0321,-1.214497 -0.42402,-2.0099 -1.1515,-2.905185 -0.85805,-1.093354 -1.64971,-2.244623 -2.42176,-3.414668 -1.29562,-1.82789 -2.72987,-3.541483 -4.17118,-5.22506 -0.82425,-0.857268 -1.65385,-1.704501 -2.50189,-2.532477 -0.0542,-0.05301 -0.87048,-0.820045 -1.01533,-1.024513 -0.0838,-0.118362 -0.13047,-0.264333 -0.19559,-0.396499 -0.21899,-1.210913 0.0322,-2.440875 0.72521,-3.413226 0.0813,-0.106684 0.13335,-0.25379 0.24393,-0.320049 0.71837,-0.430365 2.87117,-0.04195 3.73988,-0.173083 1.90207,-0.0014 3.80474,-0.0042 5.70596,0.06946 1.9519,0.09374 3.89789,0.275076 5.84324,0.474474 2.05286,0.158274 4.08715,0.444961 6.06814,1.096131 1.46445,0.357526 2.9278,0.718296 4.40817,0.983755 1.11176,0.28535 2.19404,0.651064 3.20519,1.254799 0.67071,0.438882 1.12936,0.949503 1.42953,1.761899 0.36266,1.034986 0.47744,2.147365 0.70716,3.223395 0.35955,2.129607 0.83124,4.232539 1.21391,6.356985 0.51247,2.772298 1.2057,5.519265 1.37067,8.355394 0.0975,2.702972 0.0239,5.409883 0.0513,8.114463 -0.001,4.214211 -0.0144,8.428696 -0.09,12.642188 -0.10308,4.986714 -0.29564,9.969783 -0.4038,14.95609 -0.0763,2.84868 -0.15884,5.701781 -0.50148,8.529585 -0.21953,1.156672 -0.57337,2.24923 -1.29807,3.141194 -0.90667,1.079562 -1.8964,2.043935 -3.08554,2.727446 -1.29416,0.731116 -2.6364,1.122181 -4.09982,1.141402 -2.66094,0.0095 -5.31199,-0.327996 -7.96728,-0.483851 -2.27974,-0.130774 -4.5652,-0.43485 -6.84762,-0.219455 -2.05892,0.286736 -4.12317,0.511466 -6.18929,0.725663 -2.47839,0.137507 -4.95592,-0.0052 -7.43285,0.162745 -0.81488,0.04596 -1.7021,0.106599 -2.51731,0.108587 -1.8568,0.0045 -3.71325,-0.252573 -5.56879,-0.07296 -2.30685,0.246836 -4.57541,0.772943 -6.63941,2.004804 -2.31072,1.36441 -4.60217,2.769723 -6.93602,4.084389 -1.71365,0.939668 -3.53578,1.872318 -5.49332,1.650284 -1.29931,-0.295328 -1.08494,-0.417745 -1.90096,-1.600283 -0.72603,-1.039109 -1.54859,-1.987348 -2.24071,-3.053879 -0.57203,-0.996126 -1.11388,-2.020753 -1.27789,-3.209992 -0.10005,-0.871998 -0.15939,-1.716685 0.0373,-2.583686 0.23887,-1.299614 0.64073,-2.551296 0.89025,-3.849058 0.34943,-1.595308 0.56251,-3.216488 0.79986,-4.835943 0.46511,-2.477859 1.04567,-4.927652 1.4623,-7.41703 0.44084,-2.60883 0.84406,-5.229128 1.72273,-7.712603 0.34766,-1.043032 0.53827,-1.681692 0.96976,-2.696793 0.99225,-2.334223 2.28086,-4.49201 3.55443,-6.641665 1.44944,-2.441043 2.92604,-4.863301 4.05224,-7.517603 0.54087,-1.022868 -0.75612,-1.875993 -1.29699,-0.853128 z" />
    <path
       style="fill:#1a1a1a;fill-opacity:1;stroke-width:0.815739;stroke-linecap:round;stroke-linejoin:round"
       id="path36"
       d="m 115.23378,78.124127 c 1.20391,-0.964945 2.42258,-1.906875 3.63896,-2.852229 0.96363,-0.739616 1.97887,-1.361435 3.04123,-1.900899 0.8201,-0.332813 1.65284,-0.598706 2.43108,-1.048092 0.58747,-0.493677 1.23615,-0.810233 1.92418,-1.074005 0.0959,-0.03118 0.19181,-0.06238 0.28771,-0.09356 1.01894,-0.334855 0.59435,-1.942018 -0.42459,-1.607164 v 0 c -0.11735,0.0389 -0.23476,0.07781 -0.35215,0.116704 -0.75747,0.291379 -1.48473,0.639057 -2.13226,1.178255 -0.74789,0.447282 -1.57498,0.65302 -2.35576,1.012692 -1.14122,0.585565 -2.23263,1.261467 -3.267,2.060739 -1.2382,0.96402 -2.47367,1.932022 -3.71599,2.889513 -0.83564,0.729176 0.0889,2.047222 0.92459,1.31805 z" />
    <path
       style="fill:#1a1a1a;fill-opacity:1;stroke-width:0.815739;stroke-linecap:round;stroke-linejoin:round"
       id="path37"
       d="m 114.26608,78.291101 c -0.13479,0.950026 -0.22762,1.906576 -0.2899,2.865692 -0.0389,0.660142 -0.0454,1.321851 -0.0486,1.983174 0.004,0.560101 -0.0163,1.120586 0.027,1.678942 0.0747,0.528732 0.11548,1.061491 0.13999,1.595672 0.08,1.311979 1.21682,1.468257 2.15559,1.556051 1.2419,0.0689 2.48917,-0.09574 3.70855,-0.35073 0.96872,-0.146534 1.87531,-0.583058 2.76806,-1.008153 0.62745,-0.237581 1.20147,-0.561439 1.72481,-1.014639 0.1903,-0.151562 0.36481,-0.325082 0.54737,-0.487667 0.8306,-0.746022 -0.11533,-2.056104 -0.94595,-1.310081 v 0 c -0.1818,0.164429 -0.35581,0.338914 -0.5468,0.490379 -0.39819,0.389179 -0.891,0.570246 -1.37517,0.787538 -0.78857,0.387293 -1.59357,0.776803 -2.45324,0.905878 -1.08478,0.23684 -2.19593,0.391656 -3.30259,0.32564 -0.23481,-0.02197 -0.78005,-0.07582 -0.78127,-0.07391 -0.0278,0.04352 0.12744,0.238058 0.0284,0.25487 -0.049,0.0082 -0.0153,-0.108962 -0.0231,-0.163447 -0.0271,-0.560917 -0.067,-1.121256 -0.14457,-1.676712 -0.0584,-0.496334 10e-4,-1.004121 -0.0203,-1.503311 0.001,-0.624456 0.006,-1.249245 0.0391,-1.872769 0.0542,-0.900827 0.13379,-1.800696 0.27597,-2.69015 0.18528,-1.169709 -1.2979,-1.461967 -1.48318,-0.292255 z" />
    <path
       style="fill:#1a1a1a;fill-opacity:1;stroke-width:0.815739;stroke-linecap:round;stroke-linejoin:round"
       id="path38"
       d="m 130.69033,96.55568 c 1.10683,-0.04231 2.21078,-0.01297 3.31579,0.05908 2.22373,0.323483 4.45584,0.553436 6.69754,0.624496 1.09233,0.0023 2.19316,-0.09521 3.22713,-0.514161 0.40175,-0.162799 0.82485,-0.406041 1.20897,-0.614885 1.11466,-0.659073 2.2248,-1.314505 3.37236,-1.898917 1.31783,-0.707351 2.6817,-1.290559 4.04444,-1.87785 1.2101,-0.497982 2.4732,-0.781337 3.74183,-1.015693 1.85938,-0.404556 3.7531,-0.497313 5.64127,-0.572134 1.6675,-0.04941 3.33575,-0.05311 5.00374,-0.05228 1.26591,-0.0084 2.51516,-0.230757 3.77115,-0.37126 2.572,-0.246324 5.13624,-0.552121 7.69321,-0.949105 2.13095,-0.362018 4.28124,-0.539171 6.4189,-0.837375 0.65644,-0.102302 1.31426,-0.189271 1.97669,-0.219446 0.40103,0.0039 0.7967,-0.08408 1.19106,-0.15447 1.04678,-0.188263 0.80806,-1.839328 -0.23873,-1.651064 v 0 c -0.33726,0.06113 -0.67495,0.143576 -1.01846,0.132389 -0.70662,0.03695 -1.40755,0.136685 -2.10562,0.263669 -2.13469,0.338726 -4.28446,0.545056 -6.41723,0.902782 -2.5374,0.386815 -5.08146,0.688441 -7.63688,0.882548 -1.21238,0.118593 -2.41611,0.337194 -3.63552,0.362959 -1.68425,0.0045 -3.36849,0.01928 -5.05186,0.08617 -1.95056,0.07266 -3.90777,0.151856 -5.83033,0.55944 -1.36964,0.24985 -2.73198,0.559103 -4.03649,1.101483 -1.38548,0.603277 -2.77066,1.206382 -4.11529,1.918414 -1.16563,0.581597 -2.29114,1.237038 -3.41647,1.910323 -0.23486,0.128367 -0.75367,0.419611 -1.00636,0.528815 -0.87428,0.377817 -1.81885,0.447173 -2.74717,0.463874 -2.22667,-0.04667 -4.44124,-0.27738 -6.64431,-0.643909 -1.13405,-0.07706 -2.26725,-0.105617 -3.40336,-0.106381 -1.0667,0 -1.0667,1.682503 0,1.682503 z" />
    <path
       style="fill:#1a1a1a;fill-opacity:1;stroke-width:0.815739;stroke-linecap:round;stroke-linejoin:round"
       id="path39"
       d="m 156.69198,36.99433 c -0.0448,0.464206 -0.0659,0.930294 -0.11591,1.39424 -0.0747,0.715373 -0.14998,1.432274 -0.25952,2.14229 -0.0593,0.313355 -0.0941,0.62976 -0.10971,0.949211 -0.0306,0.419949 0.0232,0.827044 0.11952,1.231931 0.1371,0.56844 0.41479,1.074965 0.67213,1.583666 0.11087,0.252963 0.27826,0.479312 0.35889,0.748405 0.0753,0.193734 0.14479,0.389257 0.22845,0.578653 0.50214,1.046458 1.82904,0.254448 1.3269,-0.792014 v 0 c 0.007,0.05568 0.003,0.01527 -0.0368,-0.09012 -0.0317,-0.08372 -0.0644,-0.167456 -0.0996,-0.249544 -0.0101,-0.02017 -0.018,-0.03993 -0.027,-0.0599 -0.12672,-0.340109 -0.29788,-0.6505 -0.47758,-0.958809 -0.20462,-0.380725 -0.407,-0.77215 -0.51929,-1.200209 -0.064,-0.233567 -0.0636,-0.469264 -0.0495,-0.711742 0.0101,-0.266494 0.0386,-0.530818 0.0719,-0.794868 0.0777,-0.721746 0.14875,-1.444235 0.2496,-2.162686 0.0543,-0.423102 0.0864,-0.849612 0.14454,-1.271621 0.21358,-1.165004 -1.26363,-1.501886 -1.47723,-0.336882 z" />
    <path
       style="fill:#1a1a1a;fill-opacity:1;stroke-width:0.815739;stroke-linecap:round;stroke-linejoin:round"
       id="path40"
       d="m 159.93056,13.996256 c -0.10049,0.583045 -0.21919,1.159101 -0.29666,1.747177 -0.0717,0.788406 -0.14373,1.579147 -0.17571,2.371029 -0.013,0.453152 -0.003,0.915282 0.11447,1.353482 0.0902,0.33698 0.16434,0.474396 0.30229,0.792597 0.57173,1.110407 1.43636,2.021448 2.27226,2.885302 0.91653,0.920125 1.88594,1.771181 2.85192,2.624958 0.65863,0.591169 1.33804,1.153019 1.99425,1.747437 0.48458,0.409326 0.91561,0.883669 1.34053,1.365594 0.25012,0.302238 0.47275,0.632794 0.6794,0.973093 0.17626,0.249661 0.26968,0.545722 0.37132,0.837845 0.0911,0.236582 0.17707,0.476901 0.20753,0.733362 0.0571,0.313674 0.0913,0.631386 0.13422,0.947647 0.0538,0.402897 0.0546,0.810765 0.083,1.21602 0.0213,0.252974 0.0525,0.504856 0.0665,0.758535 0.004,0.07399 0.004,0.14806 0.006,0.222127 0.0183,1.189111 1.52604,1.160312 1.50777,-0.0288 v 0 c -10e-4,-0.108313 -0.006,-0.216585 -0.0144,-0.324572 -0.0211,-0.258721 -0.0575,-0.515015 -0.0871,-0.772604 -0.0399,-0.432573 -0.0301,-0.870522 -0.091,-1.301401 -0.0383,-0.327135 -0.0715,-0.65519 -0.12788,-0.979252 -0.0568,-0.373638 -0.16253,-0.730969 -0.30171,-1.076909 -0.14621,-0.409411 -0.28456,-0.825181 -0.53463,-1.173701 -0.26119,-0.413378 -0.5324,-0.821263 -0.85341,-1.180205 -0.46232,-0.521645 -0.94991,-1.009287 -1.46924,-1.460412 -0.65862,-0.609714 -1.36664,-1.146391 -2.03768,-1.738911 -0.93836,-0.82012 -1.88688,-1.629036 -2.7708,-2.522703 -0.70068,-0.744607 -1.43006,-1.50252 -1.91375,-2.448203 -0.0545,-0.130976 -0.14172,-0.326987 -0.18461,-0.472907 -0.0864,-0.294427 -0.0864,-0.610722 -0.0849,-0.9167 0.0182,-0.730141 0.0791,-1.460537 0.14904,-2.186384 0.0773,-0.534287 0.19798,-1.055416 0.31826,-1.579396 0.26194,-1.14708 -1.19255,-1.560225 -1.45449,-0.413145 z" />
    <path
       style="fill:#1a1a1a;fill-opacity:1;stroke-width:0.815739;stroke-linecap:round;stroke-linejoin:round"
       id="path41"
       d="m 141.63133,41.84196 c 0.18696,0.37411 0.47531,0.662711 0.76041,0.941691 0.40517,0.343048 0.82091,0.671938 1.2464,0.982945 0.35303,0.240872 0.69826,0.495357 1.06131,0.717355 0.93074,0.550238 1.62846,-0.917814 0.6977,-1.468057 v 0 c -0.32884,-0.184602 -0.63666,-0.410726 -0.95193,-0.621915 -0.36437,-0.266712 -0.72157,-0.546819 -1.0685,-0.841062 -0.15133,-0.154291 -0.3307,-0.305578 -0.41957,-0.515684 -0.51019,-1.045598 -1.83601,-0.240874 -1.32582,0.804727 z" />
    <path
       style="fill:#1a1a1a;fill-opacity:1;stroke-width:0.815739;stroke-linecap:round;stroke-linejoin:round"
       id="path42"
       d="m 151.92064,41.424072 c 0.14851,-0.04138 0.30395,-0.04344 0.45622,-0.04938 0.24006,-0.02738 0.4795,-0.05693 0.72059,-0.07079 0.27405,-0.01496 0.54691,-0.04889 0.8208,-0.06864 0.29958,-0.02359 0.59975,-0.02165 0.89981,-0.01916 0.2889,-0.0023 0.57774,-0.0022 0.86666,-1.77e-4 0.20282,-0.0036 0.40558,0.0045 0.60836,0.0068 1.05459,2.95e-4 1.05496,-1.663109 2.6e-4,-1.6634 v 0 c -0.2026,0.0022 -0.40517,0.0098 -0.60781,0.0062 -0.29159,0.0014 -0.58317,5.98e-4 -0.87475,2.64e-4 -0.3283,0.0062 -0.65668,0.0098 -0.98487,0.02076 -0.26785,0.01809 -0.53444,0.05594 -0.80275,0.0646 -0.23613,0.01283 -0.47182,0.03261 -0.70646,0.06547 -0.23703,0.01182 -0.47501,0.02222 -0.70983,0.06219 -1.04314,0.24737 -0.72946,1.89268 0.31367,1.645312 z" />
    <path
       style="fill:#1a1a1a;fill-opacity:1;stroke-width:0.815739;stroke-linecap:round;stroke-linejoin:round"
       id="path43"
       d="m 113.96215,87.774009 c 0.25201,0.246291 0.48396,0.515773 0.72583,0.773954 0.53551,0.493598 1.14032,0.880345 1.76466,1.214635 0.76199,0.371296 1.56385,0.635284 2.36029,0.898489 0.87617,0.246364 1.76701,0.422441 2.65203,0.624819 0.73786,0.187431 1.49247,0.252973 2.24297,0.342636 0.44515,0.05033 0.89153,0.09852 1.33926,0.07903 0.20791,-0.01775 0.41545,-0.03672 0.62389,-0.04393 0.16037,-0.004 0.3208,-0.0023 0.48117,-0.0019 0.0226,-1.2e-5 0.0454,-2.3e-5 0.0679,-3.8e-5 1.06422,-6.6e-5 1.06415,-1.678663 -1e-4,-1.678594 v 0 c -0.0233,-1e-5 -0.0467,-1.9e-5 -0.0701,-2.9e-5 -0.17589,0.0012 -0.35174,0.0049 -0.52753,0.01168 -0.22168,0.0084 -0.44341,0.01818 -0.66348,0.05111 -0.37004,0.03813 -0.74075,-0.01168 -1.1103,-0.03917 -0.70428,-0.06787 -1.41111,-0.122629 -2.10566,-0.277517 -0.8479,-0.182817 -1.68969,-0.397363 -2.53092,-0.614749 -0.72664,-0.225843 -1.45214,-0.471619 -2.13982,-0.821037 -0.48867,-0.249447 -0.95129,-0.554895 -1.36537,-0.939268 -0.28413,-0.299785 -0.55242,-0.617598 -0.83378,-0.920269 -0.84949,-0.71844 -1.76047,0.62146 -0.91098,1.3399 z" />
    <path
       style="fill:#1a1a1a;fill-opacity:1;stroke-width:0.815739;stroke-linecap:round;stroke-linejoin:round"
       id="path44"
       d="m 148.78706,91.198535 c 0.43629,0.445681 0.82971,0.938466 1.22242,1.431021 0.40703,0.503014 0.80746,1.015904 1.11384,1.603009 0.157,0.452625 0.16111,0.951748 0.17968,1.430729 0.0327,0.617827 -0.0322,1.232756 -0.0691,1.848229 0.006,0.478937 -0.094,0.935272 -0.23237,1.38363 -0.0425,0.08174 -0.0691,0.172005 -0.11951,0.248367 -0.52721,1.03067 0.77968,1.86221 1.30687,0.831536 v 0 c 0.0855,-0.179757 0.16551,-0.361845 0.2287,-0.553211 0.16971,-0.582925 0.28505,-1.180557 0.29015,-1.796779 0.0432,-0.675661 0.11043,-1.351606 0.0698,-2.02985 -0.027,-0.755061 -0.0598,-1.531445 -0.37939,-2.215478 -0.36447,-0.663732 -0.82624,-1.24576 -1.2896,-1.82549 -0.41237,-0.531542 -0.8353,-1.051308 -1.27066,-1.559481 -0.7632,-0.828838 -1.81415,0.374932 -1.05097,1.203768 z" />
    <path
       style="fill:#1a1a1a;fill-opacity:1;stroke-width:0.815739;stroke-linecap:round;stroke-linejoin:round"
       id="path45"
       d="m 149.95588,90.897038 c 0.70554,0.247273 1.42278,0.453193 2.13821,0.662077 0.61941,0.195921 1.24612,0.334251 1.89006,0.36067 0.47088,0.01642 0.93486,-0.08431 1.40144,-0.138127 0.51128,-0.05657 1.02244,-0.122773 1.53211,-0.196144 0.49424,-0.07774 0.99136,-0.124157 1.48992,-0.145485 0.39141,-0.0124 0.78301,-0.0124 1.17454,-0.01341 0.29996,0.03088 0.64143,-0.07465 0.92241,0.07952 0.075,0.204517 -0.20419,-0.14598 -0.20256,-0.06741 0.001,0.08422 0.0451,0.160803 0.0688,0.240823 0.0431,0.14601 0.0884,0.291242 0.13148,0.437258 0.097,0.329024 0.19154,0.659038 0.28759,0.988464 0.21337,0.732248 0.35986,1.485682 0.52193,2.233476 0.13653,0.494228 0.10611,0.987202 0.0448,1.491393 -0.0961,0.722387 -0.17605,1.447386 -0.23738,2.174461 -0.0224,0.266183 -0.13364,0.494482 -0.22645,0.735573 -0.0417,0.06916 -0.0758,0.153243 -0.12239,0.206331 -0.6927,0.899622 0.44801,1.992212 1.14072,1.092592 v 0 c 0.14503,-0.20122 0.26857,-0.41022 0.36205,-0.64785 0.15109,-0.405947 0.31462,-0.805503 0.32838,-1.253997 0.0407,-0.69707 0.10928,-1.391806 0.21285,-2.080951 0.0904,-0.711695 0.13019,-1.418096 -0.0686,-2.114658 -0.1787,-0.782371 -0.3352,-1.572444 -0.57273,-2.336225 -0.13725,-0.47372 -0.26594,-0.949937 -0.3991,-1.425019 -0.0995,-0.35451 -0.15334,-0.653979 -0.39326,-0.940373 -0.11145,-0.13311 -0.26741,-0.209343 -0.40108,-0.314017 -0.45844,-0.15272 -0.92111,-0.186911 -1.39812,-0.162342 -0.41246,-5.98e-4 -0.82507,-2.99e-4 -1.23717,0.02115 -0.53851,0.02808 -1.0748,0.07736 -1.60874,0.162772 -0.49977,0.06599 -0.99977,0.132461 -1.50051,0.186936 -0.40534,0.04556 -0.80846,0.121663 -1.21641,0.127762 -0.53453,-0.0019 -1.0466,-0.146411 -1.564,-0.286027 -0.65403,-0.179245 -1.31076,-0.36661 -1.93899,-0.639721 -0.98933,-0.441376 -1.54902,1.119124 -0.55965,1.5605 z" />
    <path
       style="fill:#1a1a1a;fill-opacity:1;stroke-width:0.815739;stroke-linecap:round;stroke-linejoin:round"
       id="path46"
       d="m 149.32552,90.931195 c 0.34135,0.247821 0.71572,0.426495 1.0971,0.581511 0.19881,0.06293 0.84645,0.301285 0.94974,-0.02635 0.40444,-1.283065 0.18016,-1.382731 -0.44717,-1.639802 -0.46889,-0.197561 0.20123,-0.08794 0.25029,0.95643 0.0185,0.393452 -0.63869,0.457731 -0.0577,0.370457 1.04164,-0.148168 0.85376,-1.791135 -0.18788,-1.642971 v 0 c -0.33478,0.04592 -1.0862,0.09979 -1.15005,0.625144 -0.11158,0.918536 0.15807,1.070294 0.62614,1.257685 0.5159,0.215258 -0.26774,-0.215127 0.14608,-1.346732 0.0636,-0.17393 0.33118,-0.06852 0.49697,-0.101595 0.007,-0.0014 -0.0144,0.0045 -0.021,0.0066 -0.0343,-0.0084 -0.0688,-0.01671 -0.10323,-0.02507 -0.25226,-0.0978 -0.49925,-0.215 -0.72078,-0.383213 -0.86718,-0.692867 -1.74574,0.674947 -0.87855,1.367816 z" />
    <path
       style="fill:#1a1a1a;fill-opacity:1;stroke-width:0.815739;stroke-linecap:round;stroke-linejoin:round"
       id="path47"
       d="m 161.86918,90.551174 c 0.23287,0.184575 0.4435,0.415969 0.65089,0.636824 0.37637,0.357199 0.6464,0.784516 0.86829,1.271237 0.26593,0.700503 0.46262,1.430403 0.60478,2.173569 0.11058,0.634264 0.14345,1.279956 0.15596,1.924518 -0.006,0.394225 -0.0741,0.776106 -0.15021,1.158799 -0.0448,0.328152 -0.17218,0.615021 -0.28944,0.914437 -0.0521,0.155434 -0.14201,0.226029 -0.18162,0.257606 -0.21763,0.124705 -0.41832,0.291171 -0.62298,0.442215 -0.25134,0.207303 -0.49311,0.422963 -0.75418,0.614564 -0.15341,0.129247 -0.31549,0.298057 -0.44279,0.387297 -0.0414,0.0247 -0.31081,0.24885 -0.36065,0.17004 -0.68061,-0.0741 -1.35519,-0.20256 -2.03297,-0.30292 -0.56954,-0.084 -1.14273,-0.12239 -1.71658,-0.14072 -0.56214,-0.0273 -1.12195,0.0205 -1.67955,0.0959 -0.62256,0.0736 -1.23921,0.18544 -1.85208,0.32627 -0.40224,0.10123 -0.81309,0.13505 -1.22399,0.15202 -0.29018,-0.0385 -0.57907,-0.0831 -0.8707,-0.10673 -0.22822,-0.015 -0.11663,-0.008 -0.33473,-0.0202 -1.05812,-0.0514 -1.12331,1.61757 -0.0652,1.66898 v 0 c 0.18885,0.008 0.0933,0.003 0.28706,0.0148 0.35082,0.0311 0.69829,0.10238 1.05097,0.10421 0.49036,-0.0287 0.98191,-0.0678 1.46108,-0.19549 0.56937,-0.13587 1.14182,-0.24748 1.72182,-0.31211 0.48943,-0.0635 0.97956,-0.0898 1.47227,-0.0679 0.52246,0.009 1.04487,0.0351 1.56411,0.10334 0.76282,0.10373 1.51813,0.26541 2.28324,0.34586 0.11173,-0.0108 0.22446,-0.0125 0.33515,-0.0325 0.27193,-0.0492 0.52101,-0.2249 0.75374,-0.37667 0.17696,-0.12118 0.34084,-0.26187 0.48699,-0.42485 0.25316,-0.19461 0.49711,-0.39993 0.74118,-0.60817 0.23206,-0.16968 0.46184,-0.34214 0.7027,-0.4961 0.29124,-0.248265 0.51079,-0.56189 0.65471,-0.939991 0.15007,-0.399647 0.30265,-0.795398 0.37513,-1.224376 0.095,-0.513981 0.17269,-1.030877 0.17141,-1.557992 -0.0255,-0.74411 -0.0742,-1.488785 -0.20835,-2.219851 -0.1726,-0.87895 -0.39671,-1.748648 -0.7241,-2.572883 -0.30987,-0.67853 -0.64226,-1.212271 -1.15112,-1.723649 -0.30949,-0.332081 -0.6177,-0.680384 -0.98446,-0.933074 -0.9469,-0.548743 -1.6427,0.944792 -0.69581,1.493534 z" />
    <path
       style="fill:#1a1a1a;fill-opacity:1;stroke-width:0.815739;stroke-linecap:round;stroke-linejoin:round"
       id="path48"
       d="m 149.68274,90.382876 c 0.32924,-0.0283 0.64912,-0.122326 0.9723,-0.191104 0.34806,-0.07407 0.40039,-0.07557 0.76346,-0.129074 0.74267,-0.07561 1.48726,-0.126391 2.23092,-0.189397 0.45044,-0.03371 0.90153,-0.05956 1.353,-0.06258 0.45943,-0.0027 0.91535,-0.06216 1.37494,-0.0689 0.65151,0.0098 1.30283,0.02844 1.95439,0.03627 0.45429,0.01398 0.91003,0.0052 1.36275,0.05419 0.31881,0.04045 0.63788,0.08193 0.95467,0.139164 0.25361,0.07146 0.52521,0.07551 0.77279,0.17218 1.0231,0.270047 1.36551,-1.343666 0.34242,-1.613713 v 0 c -0.28682,-0.06117 -0.57782,-0.0972 -0.86141,-0.17782 -0.35259,-0.07239 -0.70929,-0.09568 -1.065,-0.143634 -0.49585,-0.05501 -0.99206,-0.01731 -1.48962,-0.02337 -0.65728,-0.0091 -1.31448,-0.02411 -1.97169,-0.03676 -0.46859,-0.0053 -0.93665,-0.0014 -1.4043,0.03088 -0.4831,0.01844 -0.96611,0.03655 -1.44629,0.104536 -0.75627,0.08194 -1.51341,0.153088 -2.27022,0.2284 -0.42052,0.04848 -0.44641,0.04776 -0.85119,0.108082 -0.0538,0.0081 -0.41065,0.0679 -0.50568,0.07833 -0.12168,0.01326 -0.12211,0.01081 -0.21624,0.0053 -1.06443,0 -1.06443,1.678905 0,1.678905 z" />
    <path
       style="fill:#1a1a1a;fill-opacity:1;stroke-width:0.815739;stroke-linecap:round;stroke-linejoin:round"
       id="path49"
       d="m 151.73378,90.854859 c 0.73008,-0.07683 1.46297,-0.04673 2.19412,-0.01283 0.50197,0.02754 1.00376,0.05896 1.50558,0.08961 0.15327,0.01009 0.30683,0.0111 0.4603,0.01413 1.05995,5.98e-4 1.06068,-1.671255 7.9e-4,-1.671848 v 0 c -0.14477,0.0029 -0.28954,0.003 -0.43429,0.0071 -0.49602,0.01096 -0.99216,0.0079 -1.48818,-0.0014 -0.74634,-0.01795 -1.4934,-0.03623 -2.23826,-0.09303 -1.05767,0 -1.05767,1.668247 0,1.668247 z" />
    <path
       style="fill:#1a1a1a;fill-opacity:1;stroke-width:0.815739;stroke-linecap:round;stroke-linejoin:round"
       id="path50"
       d="m 113.72417,76.84651 c -0.11302,0.389561 -0.22031,0.782372 -0.31081,1.17948 -0.0881,0.391553 -0.0953,0.796694 -0.10019,1.198003 -0.013,0.543357 0.0329,1.086087 0.10956,1.622069 0.0559,0.470878 0.16721,0.929429 0.2476,1.395021 0.0385,0.380206 0.0889,0.758147 0.13912,1.136873 0.0495,0.401899 0.0656,0.807451 0.0742,1.212579 0.0101,0.401178 0.006,0.802471 0.004,1.203703 -8.1e-4,0.145378 -10e-4,0.290762 -0.003,0.436137 -10e-4,1.184944 1.50078,1.18766 1.5025,0.0027 v 0 c -7.8e-4,-0.145702 -0.003,-0.291403 -0.003,-0.437108 -0.001,-0.416459 -0.003,-0.832942 -0.007,-1.249374 -0.013,-0.470567 -0.0368,-0.940647 -0.0928,-1.407616 -0.0526,-0.410285 -0.096,-0.820421 -0.14771,-1.230363 -0.0842,-0.442766 -0.19549,-0.878792 -0.24708,-1.328816 -0.066,-0.437494 -0.098,-0.882016 -0.0817,-1.325655 0.006,-0.277585 0.007,-0.558083 0.0598,-0.830703 0.0654,-0.312943 0.14931,-0.621804 0.24588,-0.924169 0.41384,-1.09548 -0.97522,-1.748257 -1.38907,-0.652778 z" />
  </g>
</svg>
