<?xml version="1.0" encoding="UTF-8" standalone="no"?>
<!-- Created with Inkscape (http://www.inkscape.org/) -->

<svg
   width="200mm"
   height="90mm"
   viewBox="0 0 200 90"
   version="1.1"
   id="svg1"
   sodipodi:docname="Foam_Pet_Bothies.svg"
   inkscape:version="1.3 (0e150ed, 2023-07-21)"
   xmlns:inkscape="http://www.inkscape.org/namespaces/inkscape"
   xmlns:sodipodi="http://sodipodi.sourceforge.net/DTD/sodipodi-0.dtd"
   xmlns="http://www.w3.org/2000/svg"
   xmlns:svg="http://www.w3.org/2000/svg">
  <sodipodi:namedview
     id="namedview1"
     pagecolor="#ffffff"
     bordercolor="#000000"
     borderopacity="0.25"
     inkscape:showpageshadow="2"
     inkscape:pageopacity="0.0"
     inkscape:pagecheckerboard="0"
     inkscape:deskcolor="#d1d1d1"
     inkscape:document-units="mm"
     inkscape:zoom="1.4538721"
     inkscape:cx="141.34669"
     inkscape:cy="194.30871"
     inkscape:window-width="1452"
     inkscape:window-height="991"
     inkscape:window-x="26"
     inkscape:window-y="23"
     inkscape:window-maximized="0"
     inkscape:current-layer="layer1"
     showgrid="false" />
  <defs
     id="defs1" />
  <g
     inkscape:label="Layer 1"
     inkscape:groupmode="layer"
     id="layer1">
    <rect
       style="fill:#000000;fill-opacity:1;stroke-width:1.07699"
       id="rect131"
       width="215.33978"
       height="84.722633"
       x="-4.5723805"
       y="-7.734333" />
    <ellipse
       style="fill:#ffa24c;fill-opacity:1;stroke-width:0.691918"
       id="path131-5-2-7"
       cx="90.070816"
       cy="61.886658"
       rx="46.875809"
       ry="29.425688" />
    <ellipse
       style="fill:#f37600;fill-opacity:1;stroke-width:0.691918"
       id="path131-5-2-7-6"
       cx="160.93201"
       cy="67.854721"
       rx="46.875809"
       ry="29.425688" />
    <ellipse
       style="fill:#ffa251;fill-opacity:1;stroke-width:0.691918"
       id="path131-5"
       cx="30.821785"
       cy="63.581329"
       rx="46.875809"
       ry="29.425688" />
    <ellipse
       style="fill:#ff912e;fill-opacity:1;stroke-width:0.691918"
       id="path131-5-2"
       cx="59.018227"
       cy="61.507732"
       rx="46.875809"
       ry="29.425688" />
    <ellipse
       style="fill:#ffbe86;fill-opacity:1;stroke-width:1.22149"
       id="path131"
       cx="97.315575"
       cy="69.167915"
       rx="126.95687"
       ry="33.860226" />
    <ellipse
       style="fill:#ffb761;fill-opacity:1;stroke:none;stroke-width:3.09357;stroke-linecap:round;stroke-dasharray:none"
       id="path7-2-4"
       cx="70.739624"
       cy="51.203804"
       rx="12.405612"
       ry="4.9643674" />
    <ellipse
       style="fill:#ffbd6e;fill-opacity:1;stroke:none;stroke-width:3.6979;stroke-linecap:round;stroke-dasharray:none"
       id="path7-2-4-6"
       cx="80.796432"
       cy="53.517944"
       rx="13.494502"
       ry="6.5210171" />
    <ellipse
       style="fill:#ffca9b;fill-opacity:1;stroke-width:0.646387"
       id="path131-1"
       cx="133.95154"
       cy="74.508232"
       rx="85.208313"
       ry="14.127617" />
    <ellipse
       style="fill:#ffb879;fill-opacity:1;stroke-width:0.646387"
       id="path131-1-3"
       cx="95.565315"
       cy="84.358849"
       rx="85.208313"
       ry="14.127617" />
    <g
       id="g3">
      <path
         style="fill:#0000e0;fill-opacity:0.1189;stroke-width:0.722992;stroke-linecap:round;stroke-linejoin:round"
         id="path111"
         d="m 42.353439,-99.296541 c -2.317314,3.774527 -4.819516,7.602615 -6.479461,11.685582 -1.655472,4.552785 -3.432327,9.189423 -3.791688,14.069564 -0.07956,1.080463 -0.037,2.166462 -0.05551,3.249693 0.199593,4.206412 0.831186,8.39767 2.961551,12.099701 1.332549,2.31563 2.506506,3.561779 4.208031,5.633841 4.182919,4.536953 8.988318,8.558897 14.363651,11.620404 0.866179,0.493342 1.774277,0.909121 2.661419,1.363682 4.662451,2.231178 8.654583,2.370897 13.670628,1.852047 4.626408,-0.655533 9.287558,-0.955202 13.952782,-1.143544 4.108354,-0.06548 8.133568,-0.708722 12.05812,-1.897116 3.288557,-0.968052 6.545871,-2.037355 9.819961,-3.051405 2.00804,-0.681506 4.11596,-0.823098 6.19877,-1.098516 0.26094,-0.152431 0.54649,-0.268966 0.78284,-0.457294 1.58413,-1.262252 2.71213,-3.392097 3.38803,-5.249845 0.27246,-0.748856 0.45695,-1.526871 0.68543,-2.2903 1.47672,-5.475682 0.97669,-11.083687 0.38438,-16.636903 -0.54871,-4.957992 -1.72847,-9.813188 -3.18067,-14.575642 -1.85281,-5.292803 -3.75089,-10.572405 -6.1035,-15.665749 -1.73754,-3.496029 -3.56869,-6.961299 -5.88579,-10.111819 -1.64148,-2.12661 -3.816324,-3.14086 -6.305924,-3.93497 -3.317555,-0.82999 -6.764217,-0.92377 -10.166563,-1.02293 -3.117607,-0.0802 -6.231599,0.17951 -9.344483,0.32117 -2.515823,-0.003 -5.009211,0.23457 -7.429892,0.93223 -1.664878,0.40008 -3.087511,1.25028 -4.48782,2.19248 -1.252149,0.93707 -2.287937,2.11605 -3.43665,3.16856 -1.606621,1.15853 -3.262845,2.25814 -4.965762,3.27059 -1.549577,0.88672 -3.230963,1.50613 -4.950325,1.96877 -1.229428,0.28119 -2.49039,0.30007 -3.730036,0.51349 -0.986082,0.2349 -2.006336,0.21002 -3.000644,0.37019 -1.012438,0.16484 -2.110361,1.9794 -2.110361,1.9794 0.676805,0.213761 -0.253924,0.254292 -0.478856,0.499938 -2.604268,3.648833 -4.443324,7.729519 -6.123186,11.862782 -1.672261,4.587299 -3.456715,9.260082 -3.819609,14.178203 -0.08098,1.097489 -0.03848,2.200609 -0.05771,3.300914 0.201007,4.275772 0.843008,8.533616 3.004009,12.298719 1.353887,2.358881 2.537922,3.613232 4.26898,5.720699 4.214991,4.571031 9.056331,8.625332 14.468442,11.716885 0.876273,0.500545 1.79484,0.923118 2.69226,1.384692 4.742022,2.277655 8.813761,2.431631 13.920245,1.907123 4.616983,-0.655807 9.26851,-0.956569 13.92447,-1.14379 4.147005,-0.06411 8.209805,-0.714655 12.171887,-1.911484 3.288959,-0.969828 6.548102,-2.036507 9.823972,-3.048056 1.98407,-0.670269 4.06607,-0.807336 6.12356,-1.07581 0.31643,-0.171569 0.6621,-0.2977 0.94929,-0.514694 1.61684,-1.221612 2.90249,-3.620108 3.57592,-5.469954 0.27921,-0.76697 0.46797,-1.563917 0.70195,-2.345882 1.49092,-5.533819 0.99409,-11.200755 0.39769,-16.81342 -0.55154,-4.986236 -1.73291,-9.870361 -3.19463,-14.659739 -1.86087,-5.31147 -3.77079,-10.608453 -6.12951,-15.721205 -1.74967,-3.523831 -3.58894,-7.019121 -5.91882,-10.197931 -1.74472,-2.23674 -3.90638,-3.26002 -6.537812,-4.10055 -3.358555,-0.84187 -6.848285,-0.94056 -10.293198,-1.04155 -3.128969,-0.0817 -6.254359,0.17795 -9.378666,0.31877 -2.55231,-0.006 -5.080219,0.24468 -7.53691,0.94624 -1.711909,0.41155 -3.179202,1.28266 -4.620043,2.25147 -1.275518,0.94532 -2.325384,2.14371 -3.49155,3.2113 -1.584606,1.13491 -3.211902,2.21992 -4.887415,3.2166 -1.513626,0.86314 -3.155734,1.46685 -4.834677,1.91564 -1.216761,0.27037 -2.4624,0.29278 -3.68836,0.50271 -0.985174,0.22804 -2.001013,0.21444 -2.99457,0.36869 -1.071752,0.17103 -1.710298,0.42008 -2.639235,0.96106 -0.284462,0.16639 0.3126,0.63699 0.3126,0.63699"
         sodipodi:nodetypes="ccscscsccccccssccccccccccccccccccscscsccccccssccccccccccccccccc" />
    </g>
    <g
       id="g6"
       transform="translate(35.589288,-119.66356)">
      <g
         id="g5">
        <path
           style="fill:#0000ea;fill-opacity:0.118567;stroke-width:0.621259;stroke-linecap:round;stroke-linejoin:round"
           id="path112"
           d="m 119.74875,41.802536 c -1.34795,1.987255 -2.34833,4.108405 -3.22575,6.251696 -0.92921,2.493966 -1.63297,5.044411 -2.08038,7.62114 -0.49138,3.058501 -0.68187,6.140687 -0.87736,9.218214 -0.19229,2.793001 0.2263,5.566813 0.95629,8.292787 0.37049,1.390722 0.91562,2.738414 1.83523,3.963654 0.61487,0.81924 1.01332,1.190025 1.74333,1.953159 2.24341,2.153616 5.09928,3.69814 8.20968,4.956644 0.71309,0.28852 1.4492,0.539335 2.17381,0.808992 0.73733,0.225453 1.46279,0.477364 2.21198,0.67636 3.39096,0.900697 6.97291,1.424707 10.51896,1.734483 0.98763,0.08633 1.97944,0.138881 2.96916,0.208312 3.23155,0.157012 6.4776,0.06009 9.68029,-0.325273 3.03593,-0.365354 5.98554,-1.006661 8.93071,-1.679022 4.19364,-1.049038 8.176,-2.596754 11.88411,-4.473955 0.78517,-0.397492 1.53995,-0.831949 2.30992,-1.247919 3.05246,-1.741655 5.74993,-3.809141 8.00824,-6.199401 1.3353,-1.413354 1.86834,-2.155106 3.04646,-3.644794 2.52636,-3.247733 3.92023,-6.917149 4.77604,-10.653615 0.17066,-0.745045 0.29356,-1.496545 0.44034,-2.244819 0.66991,-4.019702 0.68673,-8.088044 0.57136,-12.135212 -0.0572,-2.853207 -0.60659,-5.672679 -1.36054,-8.45556 -0.54324,-1.77683 -1.2649,-3.515817 -2.09872,-5.218407 -0.76344,-1.478221 -1.57145,-2.941223 -2.33367,-4.419918 -1.08531,-2.23863 -2.17195,-4.47752 -3.19523,-6.734733 -0.91484,-2.130289 -1.63616,-4.308704 -2.15098,-6.521977 -0.19616,-0.896785 -0.34947,-1.811268 -0.15401,-2.716908 0.0939,-0.435083 0.18239,-0.620478 0.34215,-1.0378731 0.33689,-0.8099501 0.75191,-1.6255018 0.85777,-2.4832508 0.0223,-0.1802607 0.014,-0.3620913 0.0211,-0.5431365 -0.12885,-1.0337334 -0.65611,-2.0919302 -1.69458,-2.7642645 -0.24422,-0.1581105 -0.52524,-0.2761632 -0.78785,-0.4142443 -2.3435,-0.899246 -4.95988,-1.0434318 -7.51481,-1.1692284 -2.82729,-0.058048 -5.65501,0.033889 -8.47909,0.1333896 -3.14536,0.085736 -6.29384,-0.0585 -9.43912,0.00586 -0.62942,0.012882 -1.25785,0.047608 -1.88677,0.071402 -3.04056,0.1255822 -5.99446,0.7464942 -8.9667,1.2235541 -3.72483,0.4766358 -7.49072,0.7405577 -11.25231,0.9539735 -3.41765,0.1513635 -6.8362,0.2942467 -10.25723,0.3883629 -2.36965,0.1126507 -4.78072,-0.042233 -7.1323,0.2764977 -0.37622,0.050992 -0.74454,0.133925 -1.11681,0.200888 -1.59942,0.426324 -3.05102,1.1944464 -3.82696,2.4257608 -0.14798,0.234843 -0.24509,0.4879663 -0.36765,0.7319501 -0.53297,1.3580709 -0.7898,2.7971189 -0.70176,4.2216099 0.0167,0.269739 0.066,0.53757 0.0988,0.806354 0.20653,1.143732 0.3762,2.3113 0.98056,3.375889 0.15205,0.267843 0.3404,0.521612 0.51062,0.782418 1.80489,2.333281 4.7179,3.871321 7.54576,5.331926 2.74343,1.378007 5.71002,2.430587 8.5438,3.677036 1.30534,0.603343 2.6407,1.233337 3.59832,2.181461 0.6386,0.783451 0.36428,1.283906 -0.008,2.097318 -0.4452,1.00144 -1.07578,1.92766 -1.92869,2.742334 -0.65081,0.709013 -1.53492,1.209189 -2.37926,1.753823 -0.83326,0.503421 -1.62202,1.044338 -2.34699,1.644532 -0.80876,0.754511 -1.55254,1.551889 -2.32453,2.330623 -0.39022,0.356946 -0.7804,0.713903 -1.19079,1.056094 -0.17442,0.16189 -0.37278,0.304885 -0.54558,0.468173 -0.21841,0.252558 -0.52975,0.386683 -0.85582,0.530513 l 0.11925,0.144105 c -1.36713,1.961145 -2.35684,4.071096 -3.2293,6.198445 -0.92408,2.474379 -1.61121,5.007298 -2.06142,7.563324 -0.50086,3.047738 -0.68413,6.12075 -0.87826,9.188396 -0.18909,2.763593 0.22576,5.508304 0.95336,8.204705 0.36595,1.358642 0.89986,2.675598 1.79871,3.873035 0.60286,0.803137 0.98616,1.159126 1.70273,1.908685 2.20543,2.118017 5.00863,3.639208 8.06777,4.876543 0.70511,0.285193 1.43322,0.53271 2.14982,0.799051 4.01397,1.31063 8.30988,2.010957 12.61066,2.389 0.98174,0.08633 1.96756,0.139804 2.95135,0.209754 3.20493,0.159243 6.42445,0.06316 9.60075,-0.320226 3.01428,-0.363854 5.94154,-1.003219 8.86447,-1.674561 4.1557,-1.05023 8.11008,-2.581199 11.78945,-4.4427 0.7785,-0.393877 1.52629,-0.825095 2.28943,-1.237642 3.01853,-1.723976 5.68861,-3.768994 7.92128,-6.134518 1.31554,-1.393818 1.85674,-2.145983 3.01765,-3.615683 2.50092,-3.215527 3.8807,-6.847478 4.72575,-10.54707 0.16899,-0.739819 0.29047,-1.486039 0.43572,-2.229058 0.66058,-4.001157 0.67799,-8.05024 0.55572,-12.07813 -0.0627,-2.831712 -0.61204,-5.629921 -1.36587,-8.391075 -0.54331,-1.757836 -1.26037,-3.478877 -2.08846,-5.163555 -0.76585,-1.475417 -1.56948,-2.937832 -2.32682,-4.416145 -1.08143,-2.244951 -2.16887,-4.488646 -3.1957,-6.749914 -0.92187,-2.147839 -1.65065,-4.343803 -2.17586,-6.574261 -0.20931,-0.9315 -0.36318,-1.880518 -0.16681,-2.822239 0.0953,-0.457272 0.19097,-0.660611 0.3568,-1.098502 0.32959,-0.7963707 0.74166,-1.5973306 0.84397,-2.4407146 0.0201,-0.1636115 0.01,-0.3286488 0.0154,-0.4929726 -0.12699,-0.9374465 -0.61274,-1.9030431 -1.56373,-2.5066301 -0.22225,-0.1410585 -0.47696,-0.2461114 -0.71544,-0.3691671 -2.2797,-0.8622194 -4.82167,-0.9981816 -7.30132,-1.1202499 -2.81222,-0.05427 -5.62484,0.033398 -8.43396,0.1312783 -3.15093,0.082698 -6.30483,-0.067268 -9.45562,-7.181e-4 -0.62346,0.013171 -1.24586,0.048425 -1.8688,0.072642 -3.01816,0.132981 -5.9508,0.7511599 -8.90289,1.2227572 -3.74332,0.4750678 -7.5272,0.7371919 -11.30665,0.9521757 -3.42224,0.1581682 -6.84606,0.2987815 -10.27203,0.3952531 -2.35714,0.1143889 -4.7567,-0.042032 -7.09527,0.2801144 -0.36138,0.04978 -0.71488,0.1309044 -1.07231,0.1963561 -1.48482,0.4035441 -2.83787,1.1195914 -3.54951,2.2706344 -0.13474,0.2179093 -0.22319,0.4521395 -0.3348,0.678209 -0.51291,1.3165582 -0.76182,2.7110182 -0.67311,4.0911532 0.0167,0.258813 0.0653,0.515675 0.0981,0.773513 0.20631,1.112543 0.3679,2.250612 0.95579,3.286978 0.14482,0.255283 0.32451,0.497053 0.48675,0.745578 1.76825,2.28049 4.62145,3.783578 7.38704,5.212378 2.73449,1.374921 5.69645,2.417044 8.52502,3.654636 1.36121,0.620698 2.73293,1.281756 3.73657,2.258947 0.75086,0.89633 0.4943,1.499549 0.0631,2.443045 -0.46324,1.040003 -1.12232,1.999238 -2.00404,2.847705 -0.66759,0.728225 -1.57388,1.243924 -2.44054,1.803436 -0.81843,0.494719 -1.59349,1.025828 -2.30582,1.61533 -0.79918,0.745623 -1.53589,1.532576 -2.29643,2.303511 -0.39673,0.367007 -0.79466,0.733102 -1.21211,1.085109 -0.16662,0.157516 -0.3608,0.293744 -0.5267,0.451969 z"
           sodipodi:nodetypes="cccccscscsscscscscscccccccscscscccsccccscscscscccccccccccccccccscscscscscscscccccccscccscccsccccscscccscccccccccccc" />
      </g>
    </g>
    <g
       id="g4"
       transform="matrix(0.4876421,0,0,0.51964935,75.762969,43.20606)">
      <path
         style="opacity:1;fill:#1e1e17;fill-opacity:1;stroke-width:1.0062"
         d="m 174.5451,58.294488 c 0,0 3.05903,1.15771 4.40325,0.23555 1.34423,-0.92215 2.96791,-4.49173 2.96791,-4.49173 0,0 1.66573,-3.83583 -1.38627,-3.66612 -3.05202,0.1697 -0.29345,-2.85852 -0.29345,-2.85852 0,0 2.03357,-2.26598 5.65513,0.80469 3.62153,3.07067 -0.14608,8.12176 -0.14608,8.12176 0,0 -1.96653,3.3155 -4.15182,3.43771 -2.18524,0.12221 -4.00008,0.85179 -4.00008,0.85179 z"
         id="path5" />
      <ellipse
         style="opacity:1;fill:#ff007e;fill-opacity:1;stroke-width:0.0610715;stroke-dasharray:none"
         id="path2-0-9"
         cx="-48.720394"
         cy="-143.28679"
         rx="7.1277361"
         ry="8.5685406"
         transform="matrix(-0.35983444,-0.93301617,-0.99473435,-0.10248693,0,0)" />
      <ellipse
         style="opacity:1;fill:#d5552f;fill-opacity:1;stroke-width:0.0249836;stroke-dasharray:none"
         id="path2-0-2"
         cx="-150.98477"
         cy="56.753815"
         rx="3.8762281"
         ry="2.6369114"
         transform="scale(-1,1)" />
      <ellipse
         style="opacity:1;fill:#e138ff;fill-opacity:1;stroke-width:0.0364341;stroke-dasharray:none"
         id="path2-0-9-8-1"
         cx="-22.141024"
         cy="-176.69974"
         rx="6.4452648"
         ry="3.3726203"
         transform="matrix(-0.15248322,-0.98830606,-0.96840015,-0.24940157,0,0)" />
      <ellipse
         style="opacity:1;fill:#d25cff;fill-opacity:1;stroke-width:0.0364341;stroke-dasharray:none"
         id="path2-0-9-8-2-6"
         cx="71.995598"
         cy="-188.76697"
         rx="6.4452648"
         ry="3.3726211"
         transform="matrix(0.3620987,-0.93213976,-0.71395835,-0.70018818,0,0)" />
      <ellipse
         style="opacity:1;fill:#ef9b00;fill-opacity:1;stroke-width:0.0629964;stroke-dasharray:none"
         id="path2-5"
         cx="-166.52667"
         cy="62.224945"
         rx="12.67657"
         ry="5.1264577"
         transform="scale(-1,1)" />
      <ellipse
         style="opacity:1;fill:#d5552f;fill-opacity:1;stroke-width:0.0333796;stroke-dasharray:none"
         id="path2-0"
         cx="-153.28566"
         cy="55.999168"
         rx="4.6241517"
         ry="3.9456856"
         transform="scale(-1,1)" />
      <ellipse
         style="opacity:1;fill:#ba21ff;fill-opacity:1;stroke-width:0.0364341;stroke-dasharray:none"
         id="path2-0-9-8"
         cx="-21.448977"
         cy="-179.24466"
         rx="6.4452648"
         ry="3.3726203"
         transform="matrix(-0.15248322,-0.98830606,-0.96840015,-0.24940157,0,0)" />
      <ellipse
         style="opacity:1;fill:#c900ff;fill-opacity:1;stroke-width:0.0364341;stroke-dasharray:none"
         id="path2-0-9-8-2"
         cx="70.251419"
         cy="-186.53256"
         rx="6.4452648"
         ry="3.3726211"
         transform="matrix(0.3620987,-0.93213976,-0.71395835,-0.70018818,0,0)" />
      <ellipse
         style="opacity:1;fill:#ff00ff;fill-opacity:1;stroke-width:1.046"
         id="path142"
         cx="-88.251991"
         cy="-135.62825"
         rx="2.1162899"
         ry="3.838397"
         transform="rotate(140)" />
      <ellipse
         style="opacity:1;fill:#ff00ff;fill-opacity:1;stroke-width:0.884439"
         id="path142-7"
         cx="-59.189934"
         cy="-148.29077"
         rx="1.7894169"
         ry="3.2455349"
         transform="rotate(130)" />
      <ellipse
         style="opacity:1;fill:#ece650;fill-opacity:1;stroke-width:0.0628668;stroke-dasharray:none"
         id="path2-0-6"
         cx="-163.50883"
         cy="66.71524"
         rx="9.2906122"
         ry="6.9659414"
         transform="matrix(-0.99613618,0.087822,-0.06742592,0.99772428,0,0)" />
      <ellipse
         style="opacity:1;fill:#c75b33;fill-opacity:1;stroke-width:0.140732;stroke-dasharray:none"
         id="path3-3"
         cx="-152.97128"
         cy="53.874596"
         transform="scale(-1,1)"
         rx="1.3583711"
         ry="1.255446" />
      <circle
         style="opacity:1;fill:#f8daf7;fill-opacity:1;stroke-width:0.078229;stroke-dasharray:none"
         id="path3-3-0"
         cx="-152.59822"
         cy="53.932121"
         r="0.72591478"
         transform="scale(-1,1)" />
    </g>
    <circle
       style="fill:#f9f9f9;fill-opacity:1;stroke-width:0.333173"
       id="path143"
       cx="160.09615"
       cy="9.5857553"
       r="0.36481133" />
    <circle
       style="fill:#f08282;fill-opacity:1;stroke-width:0.156028"
       id="path143-4"
       cx="166.93506"
       cy="10.089542"
       r="0.17084427" />
    <circle
       style="fill:#8482f0;fill-opacity:1;stroke-width:0.05704"
       id="path143-4-1"
       cx="173.35051"
       cy="2.6918752"
       r="0.062456463" />
    <circle
       style="fill:#f9f9f9;fill-opacity:1;stroke-width:0.320778"
       id="path143-4-2"
       cx="150.36282"
       cy="5.2670617"
       r="0.35123929" />
    <circle
       style="fill:#f9f9f9;fill-opacity:1;stroke-width:0.320778"
       id="path143-4-2-1"
       cx="158.31444"
       cy="0.46208575"
       r="0.35123929" />
    <circle
       style="fill:#f4f4f4;fill-opacity:1;stroke-width:0.299753"
       id="path143-2"
       cx="175.42769"
       cy="14.011576"
       r="0.32821706" />
    <circle
       style="fill:#1420d5;fill-opacity:1;stroke-width:0.907819"
       id="path143-2-9"
       cx="151.6239"
       cy="18.561436"
       r="0.99402612" />
    <ellipse
       style="fill:#14d516;fill-opacity:1;stroke-width:0.325309"
       id="path143-2-9-1"
       cx="151.58791"
       cy="18.62631"
       rx="0.37175229"
       ry="0.34129906" />
    <ellipse
       style="fill:#14d516;fill-opacity:1;stroke-width:0.307804"
       id="path143-2-9-1-5"
       cx="151.76103"
       cy="18.869421"
       rx="0.26202926"
       ry="0.43350723" />
    <ellipse
       style="fill:#14d516;fill-opacity:1;stroke-width:0.233219"
       id="path143-2-9-1-5-7"
       cx="151.47589"
       cy="18.011963"
       rx="0.26202926"
       ry="0.24887095" />
    <ellipse
       style="fill:#14d516;fill-opacity:1;stroke-width:0.270444"
       id="path143-2-9-1-5-7-3"
       cx="151.9303"
       cy="18.05825"
       rx="0.31259453"
       ry="0.28052333" />
    <ellipse
       style="fill:#14d516;fill-opacity:1;stroke-width:0.286597"
       id="path143-2-9-1-5-7-3-2"
       cx="152.13121"
       cy="18.112671"
       rx="0.31259453"
       ry="0.31503463" />
    <ellipse
       style="fill:#14d516;fill-opacity:1;stroke-width:0.146341"
       id="path143-2-9-1-5-7-3-2-8"
       cx="152.42621"
       cy="18.721457"
       rx="0.15772563"
       ry="0.16278903" />
    <ellipse
       style="fill:#14d516;fill-opacity:1;stroke-width:0.0768339"
       id="path143-2-9-1-5-7-3-2-8-6"
       cx="150.7023"
       cy="18.62591"
       rx="0.043478597"
       ry="0.16278903" />
    <ellipse
       style="fill:#ffffff;fill-opacity:1;stroke-width:0.0807163"
       id="path143-2-9-1-5-7-3-2-8-6-1"
       cx="151.64037"
       cy="19.515743"
       rx="0.17860207"
       ry="0.043735232" />
    <circle
       style="fill:#f9f9f9;fill-opacity:1;stroke-width:0.348166"
       id="path144"
       cx="69.730499"
       cy="8.8336611"
       r="0.30878839" />
    <circle
       style="fill:#ece754;fill-opacity:1;stroke-width:0.367922"
       id="path144-3"
       cx="80.061317"
       cy="10.103046"
       r="0.32631075" />
    <circle
       style="fill:#ece754;fill-opacity:1;stroke-width:0.160926"
       id="path144-3-7"
       cx="58.085201"
       cy="-1.5179503"
       r="0.14272597" />
    <circle
       style="fill:#ece754;fill-opacity:1;stroke-width:0.308358"
       id="path144-3-1"
       cx="68.627235"
       cy="4.3927846"
       r="0.27348348" />
    <circle
       style="fill:#ece754;fill-opacity:1;stroke-width:0.308358"
       id="path144-3-1-9"
       cx="92.777168"
       cy="15.986704"
       r="0.27348348" />
    <circle
       style="fill:#54ecea;fill-opacity:1;stroke-width:0.240133"
       id="path144-3-1-9-9"
       cx="87.285614"
       cy="21.516245"
       r="0.21297482" />
    <circle
       style="fill:#54ec56;fill-opacity:1;stroke-width:0.169145"
       id="path144-3-1-9-9-9"
       cx="83.982162"
       cy="17.898073"
       r="0.15001564" />
    <circle
       style="fill:#052d06;fill-opacity:1;stroke-width:0.169145"
       id="path144-3-1-9-9-9-9"
       cx="75.799973"
       cy="22.7983"
       r="0.15001564" />
    <circle
       style="fill:#21e935;fill-opacity:0.47042608;stroke-width:0.169145"
       id="path144-3-1-9-9-9-9-7"
       cx="74.252251"
       cy="21.359795"
       r="0.15001564" />
    <circle
       style="fill:#ecbe54;fill-opacity:1;stroke-width:0.489582"
       id="path144-3-1-9-5"
       cx="98.353241"
       cy="9.1088953"
       r="0.43421161" />
    <circle
       style="fill:#fdf9f0;fill-opacity:1;stroke-width:0.274919"
       id="path144-3-1-9-5-7"
       cx="103.30701"
       cy="12.907377"
       r="0.24382606" />
    <circle
       style="fill:#ece480;fill-opacity:1;stroke-width:0.216092"
       id="path145"
       cx="76.316422"
       cy="0.41715398"
       r="0.37060109" />
    <circle
       style="fill:#b2b6f3;fill-opacity:1;stroke-width:0.216092"
       id="path145-5"
       cx="62.936729"
       cy="-2.8221283"
       r="0.37060109" />
    <circle
       style="fill:#f3efb2;fill-opacity:1;stroke-width:0.113436"
       id="path145-5-4"
       cx="55.588432"
       cy="-3.3719513"
       r="0.19454457" />
    <circle
       style="fill:#f3efb2;fill-opacity:1;stroke-width:0.113436"
       id="path145-5-4-0"
       cx="53.153992"
       cy="8.3072748"
       r="0.19454457" />
    <circle
       style="fill:#f3efb2;fill-opacity:1;stroke-width:0.0526181"
       id="path145-5-4-0-9"
       cx="55.153973"
       cy="7.6111917"
       r="0.09024094" />
    <circle
       style="fill:#e6de61;fill-opacity:1;stroke-width:0.0526181"
       id="path145-5-4-0-9-3"
       cx="49.703491"
       cy="7.803874"
       r="0.09024094" />
    <circle
       style="fill:#ded32c;fill-opacity:1;stroke-width:0.0719259"
       id="path145-5-4-0-9-3-6"
       cx="52.246269"
       cy="9.6483545"
       r="0.1233542" />
    <circle
       style="fill:#f3efb2;fill-opacity:1;stroke-width:0.0616126"
       id="path145-5-4-6"
       cx="56.242588"
       cy="-4.8273125"
       r="0.10566656" />
    <circle
       style="fill:#e4da4d;fill-opacity:1;stroke-width:0.0409583"
       id="path145-5-4-6-8"
       cx="54.212029"
       cy="-4.1845522"
       r="0.070244171" />
    <circle
       style="fill:#ec8c80;fill-opacity:1;stroke-width:0.624941"
       id="path146"
       cx="38.805332"
       cy="2.3442929"
       r="0.39541519" />
    <ellipse
       style="fill:#ffb068;fill-opacity:1;stroke-width:0.194253"
       id="path131-5-2-7-9"
       cx="65.004593"
       cy="38.290485"
       rx="19.046988"
       ry="5.7078857" />
    <ellipse
       style="fill:#ffb36c;fill-opacity:1;stroke-width:0.0839458"
       id="path131-5-2-7-9-4-0-7"
       cx="100.745"
       cy="12.674764"
       rx="5.9637156"
       ry="3.4044895"
       transform="matrix(0.95361673,0.30102346,-0.09801999,0.99518445,0,0)" />
    <ellipse
       style="fill:#ffb36c;fill-opacity:1;stroke-width:0.120633"
       id="path131-5-2-7-9-4-0-7-5"
       cx="4.9494524"
       cy="-66.561653"
       rx="9.6955185"
       ry="4.3244662"
       transform="matrix(-0.97194715,0.23519934,-0.76012567,-0.64977609,0,0)" />
    <ellipse
       style="fill:#ffa754;fill-opacity:1;stroke-width:0.117378"
       id="path131-5-2-7-9-4-0-7-5-7"
       cx="-13.254263"
       cy="-50.967499"
       rx="7.3768845"
       ry="5.3811321"
       transform="matrix(-0.84032129,0.54208867,-0.40183604,-0.91571164,0,0)" />
    <g
       id="g1"
       transform="matrix(0.06426562,0,0,0.06426562,169.47725,36.596521)"
       style="opacity:0.416757">
      <path
         style="fill:#e1eb35;fill-opacity:1;stroke-width:0.239"
         d="m 17.73616,97.459644 c 0,0 -17.556538,1.13553 -21.129557,-12.199157 -3.573018,-13.334686 -6.819402,-19.405148 -9.957226,-12.785434 -3.137825,6.619715 -0.712302,25.812054 2.347326,27.135714 3.059627,1.323653 0.545955,5.362883 20.993708,6.689383 20.447754,1.3265 7.745749,-8.840506 7.745749,-8.840506 z"
         id="path2-3" />
      <ellipse
         style="fill:#ebed20;fill-opacity:1;stroke-width:0.135533"
         id="path1-3-2-1"
         cx="109.38522"
         cy="91.491524"
         rx="12.57321"
         ry="8.123642" />
      <ellipse
         style="fill:#c9c1f2;fill-opacity:1;stroke-width:0.390895;stroke-dasharray:none"
         id="path2-8-4-6-49"
         cx="41.5154"
         cy="131.29401"
         transform="matrix(0.98718428,-0.15958444,0.18886777,0.98200253,0,0)"
         rx="10.144915"
         ry="24.801371" />
      <ellipse
         style="fill:#bcb3f0;fill-opacity:1;stroke-width:0.354632"
         id="path2-8-4-2"
         cx="39.015862"
         cy="116.76973"
         transform="matrix(0.97937236,0.20206378,-0.14901189,0.9888354,0,0)"
         rx="8.2217827"
         ry="25.27434" />
      <ellipse
         style="fill:#9a1da7;fill-opacity:1;stroke-width:0.38921"
         id="path1-0"
         cx="50.596046"
         cy="110.92397"
         rx="42.257133"
         ry="19.932581" />
      <ellipse
         style="fill:#9a1da7;fill-opacity:1;stroke-width:0.470541"
         id="path1-5-2-7-6-6-6"
         cx="176.14618"
         cy="128.96698"
         rx="28.738964"
         ry="42.836369"
         transform="matrix(0.98874353,0.14962029,-0.80531593,0.59284589,0,0)" />
      <ellipse
         style="fill:#9a1da7;fill-opacity:1;stroke-width:0.224525"
         id="path1-3-8"
         cx="98.643188"
         cy="88.474327"
         rx="17.751987"
         ry="15.790003" />
      <ellipse
         style="fill:#b6cafa;fill-opacity:1;stroke-width:0.378232"
         id="path2-8-9"
         cx="52.182594"
         cy="110.26845"
         transform="matrix(0.9308546,0.36538981,-0.31976766,0.94749599,0,0)"
         rx="9.1709032"
         ry="25.774687" />
      <ellipse
         style="fill:#5f0a6e;fill-opacity:1;stroke-width:0.553284"
         id="path2-8-4-6-4-8-2"
         cx="6.6871982"
         cy="-122.49702"
         transform="matrix(-0.80369021,0.59504793,-0.77486776,-0.63212336,0,0)"
         rx="20.660763"
         ry="24.481726" />
      <circle
         style="fill:#93d0ea;fill-opacity:1;stroke-width:0.074519"
         id="path2-8-3-6"
         cx="104.57004"
         cy="83.168655"
         r="3.0290797" />
      <ellipse
         style="fill:#e5cdfa;fill-opacity:1;stroke-width:0.421335"
         id="path2-8-4-6-4-6"
         cx="32.799999"
         cy="-144.51248"
         transform="matrix(-0.71353477,0.70061982,-0.74061413,-0.67193058,0,0)"
         rx="11.379221"
         ry="25.777084" />
      <rect
         style="fill:#7d0c95;fill-opacity:1;stroke:none;stroke-width:0.829072;stroke-opacity:1"
         id="rect3"
         width="27.099844"
         height="10.383112"
         x="108.548"
         y="135.61606" />
    </g>
    <ellipse
       style="fill:#ffa330;fill-opacity:1;stroke-width:0.0948431"
       id="path131-5-2-7-9-4-0-7-5-1"
       cx="-16.407404"
       cy="-63.315945"
       rx="6.9841905"
       ry="3.7107983"
       transform="matrix(-0.94074528,0.33911403,-0.61762519,-0.78647258,0,0)" />
    <rect
       style="opacity:0.416757;fill:#ffa330;fill-opacity:1;stroke-width:1.046"
       id="rect1"
       width="22.78293"
       height="10.394171"
       x="76.427666"
       y="124.30278" />
    <g
       id="g7"
       transform="matrix(0.39445753,0,0,0.39445753,28.84363,40.232927)">
      <path
         style="opacity:1;fill:#e218d1;fill-opacity:1;stroke-width:0.912974"
         d="m 34.87848,84.651571 c 0,0 -3.513572,2.561099 -6.07908,1.562455 -2.565516,-0.998641 -4.46131,-0.93992 -5.854035,-4.857434 -1.39274,-3.917513 -6.008827,-1.571278 -6.008827,-1.571278 0,0 -4.320772,1.908682 -0.538018,6.667682 3.782757,4.758995 12.156818,3.295314 12.156818,3.295314 0,0 4.112011,-0.805499 4.618463,-1.697219 0.506451,-0.891713 1.704679,-3.39952 1.704679,-3.39952 z"
         id="path10" />
      <ellipse
         style="opacity:1;fill:#62dd6b;fill-opacity:1;stroke-width:0.045528"
         id="path1-3-2"
         cx="32.683109"
         cy="90.053696"
         rx="4.2235603"
         ry="2.7288733"
         transform="rotate(-19.999999)" />
      <ellipse
         style="opacity:1;fill:#35c6d4;fill-opacity:1;stroke-width:0.131308;stroke-dasharray:none"
         id="path2-8-4-6"
         cx="-1.2528838"
         cy="102.04133"
         transform="matrix(0.87306869,-0.48759723,0.51334229,0.85818395,0,0)"
         rx="3.4078538"
         ry="8.331213" />
      <ellipse
         style="opacity:1;fill:#00c2c2;fill-opacity:1;stroke-width:0.119127"
         id="path2-8-4"
         cx="17.93655"
         cy="98.227798"
         transform="matrix(0.98941887,-0.14508724,0.19817623,0.9801664,0,0)"
         rx="2.7618403"
         ry="8.4900923" />
      <ellipse
         style="opacity:1;fill:#ea6ae9;fill-opacity:1;stroke-width:0.125282"
         id="path1-9"
         cx="12.573127"
         cy="96.194565"
         rx="13.833221"
         ry="6.3088555"
         transform="rotate(-19.999999)" />
      <ellipse
         style="opacity:1;fill:#ea6ad6;fill-opacity:1;stroke-width:0.159548"
         id="path1-5-2-7-6-6"
         cx="127.85537"
         cy="130.32153"
         rx="9.56038"
         ry="14.804702"
         transform="matrix(0.98038553,-0.19708934,-0.57465538,0.8183955,0,0)" />
      <ellipse
         style="opacity:1;fill:#62dd6b;fill-opacity:1;stroke-width:0.075422"
         id="path1-3"
         cx="29.074654"
         cy="89.040146"
         rx="5.9632025"
         ry="5.3041377"
         transform="rotate(-19.999999)" />
      <ellipse
         style="opacity:1;fill:#00ffff;fill-opacity:1;stroke-width:0.127055"
         id="path2-8"
         cx="32.667442"
         cy="93.810333"
         transform="matrix(0.99968787,0.02498308,0.02357938,0.99972197,0,0)"
         rx="3.0806661"
         ry="8.6581669" />
      <ellipse
         style="opacity:1;fill:#00ffff;fill-opacity:1;stroke-width:0.141534"
         id="path2-8-4-6-4"
         cx="0.33360907"
         cy="102.383"
         transform="matrix(0.87901064,-0.47680215,0.52671484,0.85004204,0,0)"
         rx="3.8224785"
         ry="8.6589718" />
      <ellipse
         style="opacity:1;fill:#ec5a5a;fill-opacity:1;stroke-width:0.2134"
         id="path2-8-4-6-4-8"
         cx="52.195774"
         cy="-85.855629"
         transform="matrix(-0.55170338,0.8340404,-0.94433644,-0.32898128,0,0)"
         rx="7.968822"
         ry="9.4425602" />
      <circle
         style="opacity:1;fill:#000000;fill-opacity:1;stroke-width:0.0411765"
         id="path2-8-3"
         cx="30.923397"
         cy="87.082039"
         transform="rotate(-19.999999)"
         r="1.673754" />
      <circle
         style="opacity:1;fill:#4034e9;fill-opacity:1;stroke-width:0.0243893"
         id="path2-8-3-5"
         cx="31.209938"
         cy="87.012917"
         transform="rotate(-19.999999)"
         r="0.991382" />
    </g>
    <ellipse
       style="fill:#daaa32;fill-opacity:1;stroke:none;stroke-width:3.46174;stroke-linecap:round;stroke-dasharray:none"
       id="path7"
       cx="76.77095"
       cy="41.384773"
       rx="8.656786"
       ry="8.9082737" />
    <ellipse
       style="fill:#dcae3d;fill-opacity:1;stroke:none;stroke-width:4.36234;stroke-linecap:round;stroke-dasharray:none"
       id="path7-88"
       cx="77.009644"
       cy="45.853764"
       rx="13.321295"
       ry="9.1929092" />
    <ellipse
       style="fill:#d8a528;fill-opacity:1;stroke:none;stroke-width:1.43724;stroke-linecap:round;stroke-dasharray:none"
       id="path7-88-1"
       cx="89.661568"
       cy="49.687355"
       rx="4.3889093"
       ry="3.028748" />
    <ellipse
       style="fill:#c39524;fill-opacity:1;stroke:none;stroke-width:0.779329;stroke-linecap:round;stroke-dasharray:none"
       id="path7-88-1-7"
       cx="86.931664"
       cy="52.512157"
       rx="2.7448215"
       ry="1.4239331" />
    <ellipse
       style="fill:#d8a72f;fill-opacity:1;stroke:none;stroke-width:0.793239;stroke-linecap:round;stroke-dasharray:none"
       id="path7-88-1-7-4"
       cx="67.933464"
       cy="52.279572"
       rx="2.6394336"
       ry="1.5341196" />
    <ellipse
       style="fill:#e4be6a;fill-opacity:1;stroke:none;stroke-width:1.02466;stroke-linecap:round;stroke-dasharray:none"
       id="path7-8"
       cx="80.240555"
       cy="37.414738"
       rx="2.5503266"
       ry="2.6492572" />
    <ellipse
       style="fill:#e4be6a;fill-opacity:1;stroke:none;stroke-width:0.926264;stroke-linecap:round;stroke-dasharray:none"
       id="path7-8-9"
       cx="81.637093"
       cy="44.072037"
       rx="2.3054233"
       ry="2.3948536" />
    <ellipse
       style="fill:#e4be6a;fill-opacity:1;stroke:none;stroke-width:0.717551;stroke-linecap:round;stroke-dasharray:none"
       id="path7-8-9-5"
       cx="75.468002"
       cy="43.12886"
       rx="1.7859477"
       ry="1.8552269" />
    <g
       id="g8">
      <ellipse
         style="fill:#c59824;fill-opacity:1;stroke:none;stroke-width:1.1615;stroke-linecap:round;stroke-dasharray:none"
         id="path7-6"
         cx="125.24294"
         cy="-22.420616"
         rx="1.386961"
         ry="6.2593269" />
      <ellipse
         style="fill:#c59824;fill-opacity:1;stroke:none;stroke-width:0.784282;stroke-linecap:round;stroke-dasharray:none"
         id="path7-6-0"
         cx="125.1671"
         cy="-16.789959"
         rx="3.5627871"
         ry="1.1109743" />
      <ellipse
         style="fill:#c59824;fill-opacity:1;stroke:none;stroke-width:0.821671;stroke-linecap:round;stroke-dasharray:none"
         id="path7-6-0-4"
         cx="136.58191"
         cy="-16.632843"
         rx="3.5627871"
         ry="1.219425" />
      <ellipse
         style="fill:#c58a24;fill-opacity:1;stroke:none;stroke-width:1.16036;stroke-linecap:round;stroke-dasharray:none"
         id="path7-6-8"
         cx="136.70038"
         cy="-22.423416"
         rx="1.386961"
         ry="6.2470703" />
      <ellipse
         style="fill:#d59715;fill-opacity:1;stroke:none;stroke-width:1.78224;stroke-linecap:round;stroke-dasharray:none"
         id="path7-6-4"
         cx="131.08743"
         cy="-26.58271"
         rx="2.4671652"
         ry="8.2849855" />
      <ellipse
         style="fill:#e0a81d;fill-opacity:1;stroke:none;stroke-width:1.25585;stroke-linecap:round;stroke-dasharray:none"
         id="path7-6-4-3-5-5"
         cx="130.8455"
         cy="-24.910698"
         rx="7.7036734"
         ry="1.3174335" />
      <ellipse
         style="fill:#e0a81d;fill-opacity:1;stroke:none;stroke-width:1.25269;stroke-linecap:round;stroke-dasharray:none"
         id="path7-6-4-3-5-5-9"
         cx="131.1004"
         cy="-20.663771"
         rx="7.6649303"
         ry="1.3174335" />
    </g>
    <ellipse
       style="fill:#e2c668;fill-opacity:1;stroke:none;stroke-width:0.982577;stroke-linecap:round;stroke-dasharray:none"
       id="path7-7"
       cx="68.837807"
       cy="46.49057"
       rx="2.000752"
       ry="3.1053052" />
    <ellipse
       style="fill:#e5b21b;fill-opacity:1;stroke:none;stroke-width:1.48481;stroke-linecap:round;stroke-dasharray:none"
       id="path7-2"
       cx="71.903084"
       cy="49.396488"
       rx="5.921319"
       ry="2.3959846" />
    <ellipse
       style="fill:#e8d078;fill-opacity:1;stroke:none;stroke-width:1.74661;stroke-linecap:round;stroke-dasharray:none"
       id="path7-2-6"
       cx="79.859268"
       cy="50.892006"
       rx="8.8273659"
       ry="2.2239335" />
    <ellipse
       style="fill:#e8b978;fill-opacity:1;stroke:none;stroke-width:1.78092;stroke-linecap:round;stroke-dasharray:none"
       id="path7-2-6-5"
       cx="88.807571"
       cy="57.052437"
       rx="9.1775627"
       ry="2.2239335" />
    <ellipse
       style="opacity:0.279946;fill:#0053b6;fill-opacity:1;stroke:none;stroke-width:2.78876;stroke-linecap:round;stroke-dasharray:none"
       id="path7-2-6-5-3"
       cx="31.694082"
       cy="49.878025"
       rx="14.221837"
       ry="3.5190578" />
    <ellipse
       style="opacity:0.279946;fill:#b68700;fill-opacity:1;stroke:none;stroke-width:2.78876;stroke-linecap:round;stroke-dasharray:none"
       id="path7-2-6-5-3-3"
       cx="114.05431"
       cy="46.087147"
       rx="14.221837"
       ry="3.5190578" />
    <g
       id="g2"
       transform="matrix(0.05225526,0,0,0.05225526,75.657063,41.903436)">
      <ellipse
         style="fill:#ffc95c;fill-opacity:1;stroke-width:0.0742535;stroke-dasharray:none"
         id="path2-0-9-8-2-6-3"
         cx="-2.8544786"
         cy="-202.33725"
         rx="13.135583"
         ry="6.8734703"
         transform="matrix(0.3620987,-0.93213976,-0.71395834,-0.70018818,0,0)" />
      <path
         style="fill:#40d998;fill-opacity:1;stroke-width:0.139342"
         d="m 177.84154,135.28182 c 0,0 13.51338,-0.21096 13.69823,-5.39044 0.18485,-5.17947 -2.05612,-13.48686 -2.05612,-13.48686 0,0 -3.76411,-8.62403 -12.1146,-5.3092 -8.35048,3.31484 -1.42987,11.41955 -1.42987,11.41955 0,0 8.46736,3.57967 4.2341,6.72043 -4.23327,3.14076 -4.45418,4.47365 -4.45418,4.47365 z"
         id="path1" />
      <ellipse
         style="fill:#e3e921;fill-opacity:1;stroke-width:0.130044;stroke-dasharray:none"
         id="path2-0-9-5"
         cx="-131.64001"
         cy="-99.462914"
         rx="15.934067"
         ry="17.379614"
         transform="matrix(-0.32605491,-0.94535083,-0.99342906,-0.11444955,0,0)" />
      <ellipse
         style="fill:#64df67;fill-opacity:1;stroke-width:0.0509171;stroke-dasharray:none"
         id="path2-0-2-6"
         cx="-123.33964"
         cy="127.40126"
         rx="7.8998346"
         ry="5.3740797"
         transform="scale(-1,1)" />
      <ellipse
         style="fill:#ffc038;fill-opacity:1;stroke-width:0.0742535;stroke-dasharray:none"
         id="path2-0-9-8-1-2"
         cx="-107.52234"
         cy="-159.90483"
         rx="13.135582"
         ry="6.8734703"
         transform="matrix(-0.15248321,-0.98830606,-0.96840015,-0.24940159,0,0)" />
      <ellipse
         style="fill:#e0ed4a;fill-opacity:1;stroke-width:0.128387;stroke-dasharray:none"
         id="path2"
         cx="-155.01392"
         cy="138.55168"
         rx="25.835115"
         ry="10.447829"
         transform="scale(-1,1)" />
      <ellipse
         style="fill:#ea9fec;fill-opacity:1;stroke-width:0.0680285;stroke-dasharray:none"
         id="path2-0-91"
         cx="-128.02846"
         cy="125.86343"
         rx="9.4241171"
         ry="8.0413895"
         transform="scale(-1,1)" />
      <ellipse
         style="fill:#e475d4;fill-opacity:1;stroke-width:0.100502;stroke-dasharray:none"
         id="path2-0-6-2"
         cx="-143.92546"
         cy="134.79475"
         rx="14.174523"
         ry="11.668668"
         transform="matrix(-0.99533678,0.09646081,-0.06136219,0.99811557,0,0)" />
      <ellipse
         style="fill:#ff9e21;fill-opacity:1;stroke-width:0.0742535;stroke-dasharray:none"
         id="path2-0-9-8-7"
         cx="-106.07106"
         cy="-165.25328"
         rx="13.135582"
         ry="6.8734703"
         transform="matrix(-0.15248321,-0.98830606,-0.96840015,-0.24940159,0,0)" />
      <ellipse
         style="fill:#ffa600;fill-opacity:1;stroke-width:0.0742535;stroke-dasharray:none"
         id="path2-0-9-8-2-0"
         cx="-6.4094257"
         cy="-197.78363"
         rx="13.135583"
         ry="6.8734703"
         transform="matrix(0.3620987,-0.93213976,-0.71395834,-0.70018818,0,0)" />
      <circle
         style="fill:#f8daf7;fill-opacity:1;stroke-width:0.133509;stroke-dasharray:none"
         id="path3"
         cx="-125.85844"
         cy="122.3722"
         r="1.2388829"
         transform="scale(-1,1)" />
    </g>
    <circle
       style="opacity:1;fill:#fff3f3;fill-opacity:0.995851;stroke:#000000;stroke-width:0.599611;stroke-linecap:round;stroke-dasharray:none;stroke-opacity:1"
       id="path8"
       cx="107.04076"
       cy="17.933371"
       r="0.50302964" />
    <circle
       style="fill:#ff60e5;fill-opacity:0.99585098;stroke:#000000;stroke-width:0.526807;stroke-linecap:round;stroke-dasharray:none;stroke-opacity:1"
       id="path8-2"
       cx="111.55045"
       cy="13.616979"
       r="0.44195229" />
    <circle
       style="fill:#fff3f3;fill-opacity:0.995851;stroke:#000000;stroke-width:0.599611;stroke-linecap:round;stroke-dasharray:none;stroke-opacity:1"
       id="path8-2-5"
       cx="101.86983"
       cy="26.027256"
       r="0.50302964" />
    <circle
       style="fill:#ffb5b5;fill-opacity:0.99585134;stroke:#000000;stroke-width:0.361819;stroke-linecap:round;stroke-dasharray:none;stroke-opacity:1"
       id="path8-2-5-8"
       cx="108.97869"
       cy="27.856943"
       r="0.30353999" />
    <circle
       style="fill:#b5bcff;fill-opacity:0.99585098;stroke:#000000;stroke-width:0.253509;stroke-linecap:round;stroke-dasharray:none;stroke-opacity:1"
       id="path8-2-5-8-0"
       cx="112.32197"
       cy="25.810181"
       r="0.21267556" />
    <ellipse
       style="fill:#fffd8b;fill-opacity:1;stroke:none;stroke-width:0.0765002;stroke-linecap:round;stroke-dasharray:none"
       id="path7-2-4-1"
       cx="71.388519"
       cy="45.367485"
       rx="0.19417255"
       ry="0.19395506" />
    <path
       sodipodi:type="spiral"
       style="opacity:0.441657;fill:none;fill-rule:evenodd;stroke:#fefefe;stroke-width:0.264583;stroke-opacity:1"
       id="path4"
       sodipodi:cx="103.50769"
       sodipodi:cy="-14.79377"
       sodipodi:expansion="1"
       sodipodi:revolution="3"
       sodipodi:radius="3.9511664"
       sodipodi:argument="-16.456331"
       sodipodi:t0="0"
       d="m 103.50769,-14.79377 c -0.14517,0.1348 -0.25333,-0.129183 -0.22405,-0.241285 0.0794,-0.303788 0.47353,-0.338494 0.70662,-0.206806 0.41694,0.235559 0.4456,0.808203 0.18957,1.171945 -0.37574,0.533806 -1.1475,0.556071 -1.63728,0.172328 -0.6528,-0.511468 -0.66799,-1.48843 -0.15509,-2.102605 0.64544,-0.772877 1.83016,-0.780666 2.56794,-0.13785 0.89355,0.778536 0.89377,2.172321 0.12061,3.033266 -0.91115,1.014593 -2.51477,1.007157 -3.4986,0.103371 -1.13587,-1.043456 -1.12072,-2.857393 -0.0861,-3.963926 1.17557,-1.257313 3.20015,-1.234415 4.42926,-0.06889 1.37887,1.307539 1.3482,3.543005 0.0516,4.894587 -1.43941,1.500512 -3.88593,1.462055 -5.35992,0.03441"
       transform="matrix(-0.1435233,0,-0.2530703,0.39631433,138.37242,7.750843)" />
    <ellipse
       style="fill:#cda56e;fill-opacity:1;stroke:none;stroke-width:0.272963;stroke-linecap:round;stroke-opacity:1"
       id="path6-77-4"
       cx="89.702477"
       cy="115.13729"
       rx="2.8491826"
       ry="0.588337" />
    <ellipse
       style="fill:#cda56e;fill-opacity:1;stroke:none;stroke-width:0.272963;stroke-linecap:round;stroke-opacity:1"
       id="path6-77-3-0-8"
       cx="88.167984"
       cy="114.67302"
       rx="2.8491826"
       ry="0.588337" />
    <ellipse
       style="fill:#f1b255;fill-opacity:1;stroke:none;stroke-width:0.392501;stroke-linecap:round;stroke-opacity:1"
       id="path6-7"
       cx="110.79197"
       cy="124.34465"
       rx="0.86792868"
       ry="3.9933338" />
    <ellipse
       style="fill:#f1b255;fill-opacity:1;stroke:none;stroke-width:0.392501;stroke-linecap:round;stroke-opacity:1"
       id="path6-7-53"
       cx="114.09585"
       cy="124.69437"
       rx="0.86792868"
       ry="3.9933338" />
    <ellipse
       style="fill:#442ebb;fill-opacity:1;stroke:none;stroke-width:0.144681;stroke-linecap:round;stroke-opacity:1"
       id="path6-7-5-7"
       cx="114.0364"
       cy="114.44048"
       rx="0.92075133"
       ry="0.51146173" />
    <ellipse
       style="fill:#b31616;fill-opacity:1;stroke:none;stroke-width:0.383959;stroke-linecap:round;stroke-opacity:1"
       id="path6-7-5"
       cx="112.46722"
       cy="114.20836"
       rx="1.7215238"
       ry="1.9266123" />
    <ellipse
       style="fill:#b31616;fill-opacity:1;stroke:none;stroke-width:0.226381;stroke-linecap:round;stroke-opacity:1"
       id="path6-7-5-8"
       cx="112.37719"
       cy="116.39758"
       rx="0.57493317"
       ry="2.0054011" />
    <ellipse
       style="fill:#cda56e;fill-opacity:1;stroke:none;stroke-width:0.272963;stroke-linecap:round;stroke-opacity:1"
       id="path6-77-4-6-7"
       cx="92.295219"
       cy="115.76575"
       rx="2.8491826"
       ry="0.588337" />
    <ellipse
       style="fill:#000080;fill-opacity:1;stroke:none;stroke-width:0.374341;stroke-linecap:round;stroke-opacity:1"
       id="path6-77"
       cx="158.06857"
       cy="19.462162"
       rx="3.5127673"
       ry="0.89747787"
       transform="rotate(40)" />
    <ellipse
       style="fill:#000080;fill-opacity:1;stroke:none;stroke-width:0.374341;stroke-linecap:round;stroke-opacity:1"
       id="path6-77-0"
       cx="-162.50076"
       cy="39.511959"
       rx="3.5127673"
       ry="0.89747787"
       transform="rotate(-120)" />
    <ellipse
       style="opacity:1;fill:#c86a0c;fill-opacity:1;stroke:none;stroke-width:0.673524;stroke-linecap:round;stroke-opacity:1"
       id="path6"
       cx="112.36332"
       cy="120.8863"
       rx="2.6489022"
       ry="3.8528221" />
    <ellipse
       style="fill:#c86a0c;fill-opacity:1;stroke:none;stroke-width:0.330012;stroke-linecap:round;stroke-opacity:1"
       id="path6-0"
       cx="112.32736"
       cy="117.43338"
       rx="1.0999304"
       ry="2.2275705" />
    <ellipse
       style="fill:#ff9955;fill-opacity:1;stroke:none;stroke-width:0.612791;stroke-linecap:round;stroke-opacity:1"
       id="path6-3"
       cx="112.37544"
       cy="119.19269"
       rx="3.1855004"
       ry="2.6520736" />
    <ellipse
       style="fill:#c86a0c;fill-opacity:1;stroke:none;stroke-width:0.3602;stroke-linecap:round;stroke-opacity:1"
       id="path6-3-0"
       cx="114.3732"
       cy="126.75011"
       rx="1.2261373"
       ry="2.3805888" />
    <ellipse
       style="fill:#c86a0c;fill-opacity:1;stroke:none;stroke-width:0.3602;stroke-linecap:round;stroke-opacity:1"
       id="path6-3-0-2"
       cx="110.49661"
       cy="126.77114"
       rx="1.2261373"
       ry="2.3805888" />
    <path
       style="opacity:1;fill:#0000ff;fill-opacity:1;stroke:none;stroke-width:1;stroke-linecap:round;stroke-opacity:1"
       d="m 39.73541,109.45673 c 0.08677,0.4578 -0.05841,0.93028 0,1.38988 0.258252,2.03192 0.199004,-0.15293 0.284258,2.2512 0.05931,1.67253 -0.06478,3.3349 0.318191,4.98672 0.09927,0.42818 0.300931,0.82705 0.416459,1.25114 0.0981,0.36011 0.427665,1.92507 0.51222,2.44774 0.08944,0.55284 0.118385,1.11383 0.187243,1.66961 0.04559,0.36796 0.135726,0.72958 0.178951,1.09783 0.01961,0.16711 -0.06422,0.38591 0.06233,0.51297"
       id="path11" />
    <path
       style="opacity:1;fill:#0000ff;fill-opacity:1;stroke:none;stroke-width:1;stroke-linecap:round;stroke-opacity:1"
       d="m 40.2328,107.40434 c 4.426051,5.36097 1.317189,1.86376 13.720075,10.38613 0.741005,0.50916 0.816528,0.52579 1.327547,0.52579"
       id="path12" />
    <path
       style="opacity:1;fill:#0000ff;fill-opacity:1;stroke:none;stroke-width:1;stroke-linecap:round;stroke-opacity:1"
       d="m 43.579314,127.38439 c 0.364265,0.0544 0.755063,0.0162 1.0928,0.16311 2.168883,0.94339 4.212733,2.15985 6.387151,3.09041 1.037489,0.444 2.407586,0.34768 3.507618,0.48356 0.363159,0.0449 0.717023,0.14883 1.07923,0.20082 0.321328,0.0461 0.64665,0.0584 0.969394,0.0932 0.882941,0.0954 1.696632,0.234 2.583463,0.234"
       id="path13" />
    <path
       style="opacity:1;fill:none;fill-opacity:1;stroke:#fefefe;stroke-width:1;stroke-linecap:round;stroke-opacity:1"
       d="m 42.583491,139.83828 c -1.878333,0.0711 -3.703921,-0.44108 -5.558372,-0.61314 -0.6882,-0.0639 -1.367234,0.0603 -2.039159,0.18554 -0.472562,0.0881 -0.995498,0.21543 -1.420694,0.45639 -0.381749,0.21634 -0.229259,0.25608 -0.600337,0.50792 -0.116316,0.0789 -0.270052,0.0968 -0.378187,0.18661 -0.09342,0.0776 -0.13815,0.19976 -0.207222,0.29963 -0.09929,0.10024 -0.188092,0.21207 -0.29786,0.30071 -0.0923,0.0745 -0.231079,0.0915 -0.3039,0.18518 -0.104233,0.13403 -0.09956,0.33265 -0.203311,0.46705 -0.203761,0.26394 -0.558861,0.37974 -0.760289,0.66751 -0.39289,0.56132 -0.866904,1.46573 -1.07556,2.11878 -0.132842,0.41577 -0.184176,0.85718 -0.304967,1.27532 -0.190952,0.66103 -0.41557,1.31962 -0.496194,2.00824 -0.06499,0.55507 0.04121,1.13357 0,1.69118 -0.04275,0.5785 -0.224705,1.10031 -0.302479,1.66595 -0.139494,1.01449 0.08192,2.08998 0,3.11117 -0.0167,0.20825 -0.08331,0.41035 -0.101656,0.61846 -0.05207,0.59073 0.04125,1.14808 0.101298,1.72957 0.03397,0.32901 -0.04645,0.67535 0,1.0027 0.01775,0.12518 0.0754,0.24276 0.09099,0.36823 0.04939,0.39741 -0.0026,0.76902 0.181986,1.13812 0.433075,0.86615 2.142498,1.48619 2.940201,1.90765 1.635365,0.86403 3.321396,1.72376 5.126865,2.1824 0.194805,0.0495 0.400688,0.0438 0.596075,0.091 0.985401,0.23775 0.277976,0.2247 1.407541,0.33661 0.673891,0.0668 1.364424,0.0443 2.039871,0.0924 1.252617,0.0892 2.594451,0.22673 3.856167,0.10166 0.659506,-0.0654 0.399981,-0.12537 1.070232,-0.32772 1.012663,-0.30573 2.110711,-0.40082 2.981785,-1.0713 1.238949,-0.95363 1.471763,-1.80976 1.91902,-3.27502 0.199242,-0.65273 0.289312,-0.65817 0.459941,-1.30091 0.195308,-0.73571 0.19231,-1.44315 0.256271,-2.18809 0.01746,-0.20338 0.09216,-0.39892 0.111609,-0.60212 0.06426,-0.67125 0.06767,-1.49507 0,-2.16818 -0.0571,-0.56791 -0.21471,-1.13588 -0.277598,-1.70433 -0.101029,-0.91319 0.0068,-1.84682 -0.09099,-2.75929 -0.01736,-0.16205 -0.08524,-0.31619 -0.100947,-0.47842 -0.01812,-0.18715 0.03269,-0.37892 0,-0.56408 -0.08859,-0.50187 -0.395256,-1.00147 -0.57368,-1.47543 -0.685583,-1.82121 0.298252,0.43758 -0.479488,-0.98421 -0.08521,-0.15578 -0.102894,-0.34363 -0.193715,-0.4962 -0.265758,-0.44645 -0.671147,-0.73605 -0.995942,-1.12497 -0.07119,-0.0853 -0.122507,-0.1853 -0.183764,-0.27795 -0.09537,-0.12642 -0.183594,-0.25857 -0.286128,-0.37925 -0.586475,-0.6903 -1.359895,-1.19467 -2.139394,-1.57994 -0.204701,-0.10117 -0.412174,-0.30673 -0.643345,-0.36397 -0.189201,-0.0468 -0.385945,-0.063 -0.574747,-0.11089 -0.466936,-0.11844 0.01656,-0.0407 -0.274399,-0.18163 -0.182012,-0.0882 -0.478055,-0.009 -0.638726,-0.091 -0.05991,-0.0304 -0.1257,-0.0517 -0.179141,-0.0924 -0.01781,-0.0136 0.02101,-0.0594 0,-0.0672 -0.146492,-0.0541 -0.515043,-0.0592 -0.629129,-0.18198 -0.108119,-0.11633 0.184394,-0.0849 -0.09277,-0.17666 -0.238908,-0.0791 -0.477162,-0.0828 -0.735761,-0.0597 z"
       id="path14" />
    <path
       style="opacity:1;fill:none;fill-opacity:1;stroke:#fefefe;stroke-width:1;stroke-linecap:round;stroke-opacity:1"
       d="m 39.182286,149.44938 c -1.214303,0 -2.428862,-0.025 -3.642905,0 -0.650307,0.0134 -2.758813,0.10893 -3.518856,0.41799 -0.04005,0.0163 -0.05002,0.0786 -0.09099,0.0924 -0.19675,0.0662 -0.158139,-0.0866 -0.268359,0.0849 -0.395711,0.61582 -0.105495,1.57459 -0.174877,2.28654 -0.04421,0.45373 -0.231854,0.88232 -0.276532,1.3361 -0.01508,0.15317 0.01469,0.30852 0,0.46172 -0.01577,0.16461 -0.07414,0.32316 -0.09099,0.48766 -0.02598,0.25353 0.03171,0.51168 0,0.76456 -0.04698,0.37456 -0.147852,0.71846 -0.09277,1.10683 0.01352,0.0954 0.07743,0.179 0.09099,0.2744 0.02569,0.18076 -0.04428,0.37061 0,0.54774 0.04913,0.19653 0.415266,0.62342 0.550931,0.82888 0.09686,0.1467 0.232424,0.17581 0.363972,0.27476 0.334608,0.25168 0.02191,0.15249 0.463492,0.36717 0.222189,0.10802 0.518001,0.12381 0.745003,0.18376 0.612883,0.16188 1.236861,0.33363 1.872459,0.38885 0.594415,0.0516 1.122698,-0.0221 1.714643,0.091 0.526817,0.10069 1.062476,0.27819 1.594858,0.34052 0.561461,0.0657 1.161399,0.0104 1.719974,0.0924 0.810784,0.119 0.2624,0.14276 1.012293,0.22428 0.273029,0.0297 0.550701,-0.028 0.82391,0 0.529182,0.0541 1.017807,0.0938 1.555051,0.0938 0.435229,0 1.545037,0.10712 1.866416,0 0.04069,-0.0136 0.0503,-0.0774 0.09099,-0.091 0.05755,-0.0192 0.127731,0.0271 0.181986,0 0.02713,-0.0136 -0.01344,-0.0638 0,-0.091 0.180771,-0.36586 -0.003,0.0919 0.179141,-0.0896 0.213263,-0.21242 0.306044,-2.0839 0.363972,-2.39886 0.141174,-0.76759 0.372078,-1.5609 0.45603,-2.33382 0.02146,-0.19753 -0.02207,-0.39861 0,-0.59607 0.02252,-0.20163 0.11125,-0.39223 0.132935,-0.59394 0.06273,-0.33384 -0.03601,-0.67632 0,-1.01159 -0.05277,-0.34072 0.16406,-0.62741 0.203311,-0.94831 0.05216,-0.42641 0.09286,-1.64146 -0.08993,-2.03987 -0.197086,-0.42959 -1.373775,-0.52307 -1.755164,-0.56586 -0.798129,-0.0896 -1.602269,0.0961 -2.385357,0.18198 -0.478554,0.0525 -0.978744,-0.063 -1.455883,0 -0.244027,0.0322 -1.413959,0.21427 -1.671989,0.091 -0.160885,-0.0769 -0.31184,-0.17298 -0.467759,-0.25947 z"
       id="path15" />
    <path
       style="opacity:1;fill:none;fill-opacity:1;stroke:#fefefe;stroke-width:1;stroke-linecap:round;stroke-opacity:1"
       d="m 36.394215,139.1601 c 0.882462,-0.54767 -0.447294,-1.70439 -0.09277,-2.41344 0.01918,-0.0384 0.07552,-0.051 0.09099,-0.091 0.02825,-0.073 -0.03508,-0.16493 0,-0.23495 0.04263,-0.0851 0.161719,-0.2829 0.181986,-0.36397 0.01984,-0.0794 -0.06101,-0.46545 0,-0.54596 0.04676,-0.0617 0.136369,0.0812 0.212907,0.0928 0.154276,0.0234 0.312076,0 0.468114,0 0.192059,0.0314 0.38454,0.0603 0.57617,0.0942 1.122963,0.1987 -0.175535,-0.0467 0.956133,0.28648 0.403878,0.11891 0.740219,0.0449 1.13883,0.0928 0.425283,0.0511 0.843026,0.15406 1.2675,0.21149 0.312367,0.0423 0.624821,0.0866 0.939072,0.11125 0.250529,0.0196 0.50601,-0.0413 0.753888,0 0.376571,0.0628 0.700508,0.091 1.09511,0.091 0.208436,0 0.518936,0.0542 0.722966,0 0.210251,-0.0559 0.319313,-0.15138 0.546667,-0.091 0.112783,0.03 -0.04768,0.22989 -0.09241,0.33767 -0.168476,0.40585 -0.245965,0.77857 -0.245965,1.2156 0,0.73043 0.02058,-0.29205 -0.09099,0.66468 -0.02191,0.18782 0.105913,0.41063 0,0.56728 -0.01109,0.0164 -0.04809,-0.0163 -0.05936,0 -0.0399,0.0576 -0.01492,0.53673 0,0.56657 0.01357,0.0271 0.06852,-0.0204 0.09099,0 0.02037,0.0185 -0.01376,0.0587 0,0.0825 0.01966,0.034 0.07787,0.0379 0.09099,0.075 0.08348,0.23576 -0.07251,0.51646 -0.07251,0.75602"
       id="path16" />
    <path
       style="opacity:1;fill:none;fill-opacity:1;stroke:#fefefe;stroke-width:1;stroke-linecap:round;stroke-opacity:1"
       id="path19"
       d="m 144.38523,149.96002 c 0.88453,-1.38727 -0.51214,0.78237 0.52787,-0.7554 0.10205,-0.15089 0.18667,-0.31295 0.2846,-0.46655 0.1496,-0.23462 0.36732,-0.55487 0.54741,-0.77038 0.0887,-0.10609 0.18852,-0.2023 0.28278,-0.30346 0.48947,-0.37537 1.11137,-0.45693 1.67748,-0.66003 0.16259,-0.0583 0.31985,-0.13056 0.47977,-0.19584 0.19992,-0.0678 0.39984,-0.13556 0.59976,-0.20334 0.22332,-0.0508 0.44479,-0.11052 0.66995,-0.15243 2.15696,-0.40151 -0.77948,0.21014 1.30682,-0.22147 0.13548,-0.028 0.90871,-0.20363 1.05949,-0.22828 0.139,-0.0227 0.28012,-0.0298 0.42019,-0.0446 0.6738,-0.0934 1.35488,-0.0252 2.03226,-0.0202 0.61932,0.0346 1.23247,0.18316 1.8198,0.37881 0.12098,0.0403 0.46389,0.21007 0.35344,0.14634 -0.90572,-0.52269 -0.85303,-0.50585 -0.55322,-0.18362 0.70015,0.51533 1.47205,0.92766 2.22128,1.36412 0.20667,0.12039 -0.40824,-0.2505 -0.6223,-0.35718 -0.0678,-0.0338 0.12073,0.0915 0.18109,0.13729 0.55403,0.61238 1.29529,0.96505 2.00534,1.36564 -1.39261,-0.82013 -0.47642,-0.25883 -0.22407,-0.007 0.1707,0.1701 0.25674,0.37314 0.36831,0.58156 0.14314,0.20585 0.31211,0.39855 0.38221,0.64572 0.046,0.16223 0.0596,0.33197 0.0922,0.49741 0.0388,0.11752 0.0217,0.22036 0.008,0.3394 0,0 0.88593,0.46383 0.88593,0.46383 v 0 c 0.0134,-0.12561 0.0471,-0.24249 0.006,-0.36728 -0.0152,-0.0721 -0.0337,-0.14369 -0.0457,-0.21644 -0.0163,-0.0984 -0.0162,-0.19946 -0.0391,-0.29649 -0.0595,-0.25242 -0.21033,-0.46548 -0.37681,-0.65757 -0.0352,-0.0621 -0.0742,-0.12228 -0.10563,-0.18639 -0.11639,-0.23708 -0.0535,-0.21555 -0.24895,-0.42733 -0.39993,-0.43333 -1.02436,-0.68094 -1.48294,-0.99415 0.22626,0.13442 0.45209,0.26957 0.67879,0.40325 0.0644,0.038 -0.12974,-0.0748 -0.19206,-0.11623 -0.28461,-0.18911 -0.57585,-0.37713 -0.78365,-0.65466 -0.4919,-0.42316 -0.1178,-0.12008 -1.26395,-0.78215 -0.18705,-0.10805 0.3663,0.23052 0.5601,0.32593 0.14117,0.0695 -0.26807,-0.16486 -0.4017,-0.24795 -0.13288,-0.0826 -0.26526,-0.16606 -0.39783,-0.24918 -0.0941,-0.059 -0.18818,-0.11819 -0.28227,-0.17729 -0.57512,-0.63154 -1.32161,-0.93387 -2.12274,-1.12683 -0.22705,-0.0547 -0.45494,-0.10798 -0.68574,-0.14364 -0.17929,-0.0277 -0.36153,-0.0307 -0.5423,-0.0461 -0.67982,-0.008 -1.36344,-0.0702 -2.03947,0.0302 -0.14185,0.0174 -0.28469,0.0282 -0.42557,0.0523 -0.11597,0.0199 -0.95848,0.20658 -1.0585,0.22688 -0.64676,0.13122 -0.64578,0.12278 -1.30899,0.22458 -0.22719,0.0445 -0.45043,0.10717 -0.67564,0.16075 -0.20093,0.0693 -0.40184,0.13853 -0.60277,0.2078 -0.15842,0.0631 -0.31452,0.13233 -0.47528,0.18918 -0.5815,0.20563 -1.2149,0.30065 -1.70564,0.70378 -0.096,0.10404 -0.1975,0.20324 -0.28797,0.31211 -0.18286,0.22006 -0.3998,0.53965 -0.55241,0.7789 -0.0962,0.15084 -0.17941,0.30994 -0.27966,0.45813 -1.02358,1.51306 0.32871,-0.58762 -0.53205,0.7625 z" />
    <path
       style="opacity:1;fill:none;fill-opacity:1;stroke:#fefefe;stroke-width:1;stroke-linecap:round;stroke-opacity:1"
       id="path20"
       d="m 144.97666,148.89476 c 0,-0.78188 0,-1.56376 0,-2.34564 0,-0.18972 -0.008,-0.37961 0,-0.56915 0.008,-0.17782 0.0323,-0.35451 0.0485,-0.53177 0.11039,-0.60932 0.0673,-1.22103 0.0472,-1.83398 -2.3e-4,-0.0587 -0.001,-0.11732 -7.9e-4,-0.17599 0.001,-0.20711 -0.006,-0.24573 0.0475,-0.45913 0.0585,-0.23307 0.13982,-0.39356 0.20316,-0.62931 0.0301,-0.11191 0.0469,-0.22697 0.0703,-0.34046 0.0725,-0.1394 0.0248,-0.7076 0.18455,-0.78287 0.0233,-0.011 0.0498,0.0144 0.0754,0.016 0.0489,0.003 0.0981,-0.002 0.14708,-0.002 0.46704,0.009 0.91967,-0.16267 1.37522,-0.24616 0.95276,-0.17462 0.0134,0.0551 0.88095,-0.17314 0.87998,-0.25135 1.76049,-0.5028 2.65441,-0.70146 0.12451,-0.0431 0.25118,-0.0804 0.37353,-0.12938 0.0943,-0.0377 0.17945,-0.0972 0.27552,-0.1302 0.0589,-0.0202 0.47293,-0.0941 0.53283,-0.0998 0.10448,-0.01 0.21006,-0.002 0.31467,-0.0106 0.10758,-0.009 0.21418,-0.0268 0.32126,-0.0403 0.27194,-0.0821 0.54503,-0.14864 0.83052,-0.1486 0.1014,1e-5 0.20253,0.0163 0.30389,0.0135 0.32748,-0.009 0.46351,-0.0504 0.79382,-0.114 0.52155,-0.12932 1.05426,-0.0703 1.58353,-0.0537 1.04585,0.0328 0.303,-0.0199 1.46046,0.0934 1.79979,0.29687 -0.25227,-0.0557 1.24295,0.23829 0.13138,0.0258 0.26649,0.0315 0.39687,0.062 0.10362,0.0242 0.20197,0.0671 0.30269,0.10144 0.43002,0.14665 0.23998,0.0726 0.68643,0.28637 -0.18559,-0.0956 -0.35457,-0.23482 -0.55677,-0.2868 -0.10629,-0.0273 0.17277,0.13567 0.25437,0.20905 0.16878,0.15178 0.21037,0.21653 0.35747,0.38002 0.17895,0.19888 0.18746,0.20248 0.3835,0.4004 0.34503,0.33939 0.72783,0.83674 0.716,1.3504 -0.002,0.0692 -0.0185,0.13713 -0.0277,0.20569 -0.0134,0.0832 -0.0648,0.37419 -0.0625,0.464 0.008,0.31958 0.17051,0.64753 0.282,0.93881 0.12921,0.31567 0.0634,0.63631 0.0352,0.96178 -0.0222,0.25677 -0.0179,0.32274 -0.0209,0.58523 0.0159,0.6626 0.017,1.32521 0.0137,1.98794 -0.002,0.32457 -0.001,0.64914 -0.001,0.97371 1.1e-4,0.078 0.008,0.15634 5.3e-4,0.23394 -0.006,0.0628 -0.0637,0.23583 -0.0835,0.29858 -0.068,0.13683 -0.12601,0.26771 -0.13069,0.42276 -0.002,0.0586 0.0104,0.11704 0.008,0.17557 -0.005,0.12764 -0.0322,0.24325 -0.0564,0.36747 -0.007,0.0369 -0.009,0.0751 -0.0204,0.11083 -0.006,0.0198 -0.0244,0.0341 -0.0324,0.0534 -0.0731,0.17771 -0.13147,0.34609 -0.15316,0.53862 0.0133,0.37893 -0.007,-0.0931 0.0161,0.20304 5.3e-4,0.007 5.3e-4,-0.0219 -0.007,-0.021 -0.0155,0.002 -0.0258,0.0176 -0.0388,0.0264 0,0 0.84374,0.53676 0.84374,0.53676 v 0 c 0.14717,-0.10862 0.0866,-0.12198 0.0727,-0.28312 0.008,-0.12082 0.003,-0.16362 0.0456,-0.28199 0.0156,-0.0431 0.0442,-0.0807 0.0611,-0.12335 0.012,-0.0302 0.0125,-0.0642 0.025,-0.0942 0.0126,-0.0302 0.0387,-0.0538 0.0497,-0.0847 0.0124,-0.0348 0.013,-0.0728 0.0194,-0.10917 0.0206,-0.0999 0.064,-0.29593 0.0686,-0.39099 0.003,-0.0543 -0.0129,-0.10802 -0.0147,-0.16232 -0.005,-0.15075 0.0524,-0.27027 0.12005,-0.40284 0.017,-0.0529 0.0927,-0.28353 0.0979,-0.32592 0.009,-0.0774 -2.7e-4,-0.15592 -5.3e-4,-0.23388 -5.3e-4,-0.32439 -8e-4,-0.64878 7.9e-4,-0.97316 0.003,-0.66263 0.005,-1.3252 -0.0139,-1.98767 0.001,-0.23081 -0.003,-0.34818 0.0159,-0.57537 0.0285,-0.33808 0.11088,-0.67401 -0.0137,-1.00538 -0.0905,-0.23404 -0.18714,-0.46412 -0.25351,-0.70638 -0.0173,-0.0632 -0.0447,-0.12503 -0.0492,-0.19044 -0.006,-0.0867 0.0476,-0.38223 0.0602,-0.45967 0.0289,-0.17426 0.0614,-0.28028 0.0298,-0.45938 -0.0801,-0.45362 -0.35003,-0.87011 -0.67827,-1.18137 -0.12664,-0.12519 -0.2672,-0.25989 -0.38649,-0.39327 -0.16955,-0.18958 -0.15886,-0.21094 -0.35134,-0.39482 -0.44576,-0.42585 -0.74733,-0.51923 -1.40738,-0.91955 -0.32642,-0.14644 -0.65452,-0.28811 -1.00582,-0.36622 -0.12985,-0.0289 -0.26295,-0.0409 -0.39347,-0.0665 -1.16449,-0.22877 0.1274,-0.0127 -1.25038,-0.22839 -1.13057,-0.10214 -0.44364,-0.0576 -1.4636,-0.0891 -0.53436,-0.0165 -1.0708,-0.0585 -1.59649,0.0718 -0.1401,0.0245 -0.27916,0.056 -0.42031,0.0735 -0.43713,0.0541 -0.26377,0.005 -0.67106,0.0181 -0.22612,0.007 -0.31823,0.0324 -0.54022,0.0825 -0.0979,0.0221 -0.19527,0.0465 -0.2929,0.0698 -0.30467,0.0334 -0.61176,0.0387 -0.9117,0.1051 -0.43083,0.0954 -0.12551,0.0338 -0.54447,0.19292 -0.12056,0.0458 -0.24505,0.0805 -0.36758,0.1207 -0.89392,0.20153 -1.77432,0.45578 -2.65605,0.70383 -0.89871,0.2207 0.12565,-0.0178 -0.87933,0.17079 -0.45199,0.0848 -0.90019,0.24364 -1.36519,0.23196 -0.0851,0.007 -0.19695,-7.9e-4 -0.27072,0.0598 -0.20705,0.16996 -0.11457,0.59524 -0.20641,0.82165 -0.0215,0.10996 -0.0359,0.22155 -0.0646,0.32986 -0.0809,0.30551 -0.22466,0.58891 -0.2621,0.90618 -0.008,0.0697 -0.003,0.14031 -0.004,0.21047 -5.3e-4,0.0596 -5.3e-4,0.11914 -8e-4,0.1787 0.017,0.60918 0.073,1.21721 -0.0415,1.82289 -0.0176,0.18005 -0.0442,0.35945 -0.0528,0.54015 -0.009,0.1895 0,0.37943 0,0.56915 0,0.78188 0,1.56376 0,2.34563 z" />
    <path
       style="opacity:1;fill:none;fill-opacity:1;stroke:#fefefe;stroke-width:1;stroke-linecap:round;stroke-opacity:1"
       id="path21"
       d="m 148.5354,140.94134 c 0,1.04507 0,2.09014 0,3.1352 0,0.43472 0,0.86944 0,1.30416 0,0.0238 0,0.0476 0,0.0714 0,0 0.89101,0.45399 0.89101,0.45399 v 0 c 0,-0.0238 0,-0.0476 0,-0.0714 0,-0.43472 0,-0.86944 0,-1.30416 0,-1.04506 0,-2.09013 0,-3.1352 z" />
    <path
       style="opacity:1;fill:none;fill-opacity:1;stroke:#fefefe;stroke-width:1;stroke-linecap:round;stroke-opacity:1"
       id="path22"
       d="m 152.51397,139.84185 c 0.017,0.0672 0.2033,0.80124 0.20572,0.81429 0.27944,1.50928 -0.14253,-0.38614 0.17466,1.08311 0.19909,0.92222 0.0461,0.0668 0.18172,0.87465 0.003,0.0959 0.0119,0.19189 0.009,0.28786 -0.005,0.16474 -0.0601,0.32075 -0.0688,0.48566 -0.0318,0.6028 0.0419,-0.16155 -0.0407,0.5847 -5.3e-4,0.25827 -0.0937,0.49914 -0.14516,0.7477 -0.0262,0.12631 -0.0451,0.2337 -0.0794,0.36008 -0.016,0.0229 -0.0321,0.0457 -0.0481,0.0686 0,0 0.86242,0.50619 0.86242,0.50619 v 0 c 0.0215,-0.0325 0.0429,-0.065 0.0644,-0.0975 0.0222,-0.0826 0.0535,-0.16286 0.0702,-0.24672 0.007,-0.0372 0.002,-0.0762 0.009,-0.11343 0.0494,-0.25351 0.15598,-0.49677 0.15207,-0.76064 0.0141,-0.11522 0.034,-0.22988 0.0422,-0.34567 0.0188,-0.26429 -0.0202,-0.18406 0.0127,-0.40917 0.0292,-0.19973 0.0477,-0.0857 0.0608,-0.32767 0.005,-0.1 -0.002,-0.20026 -0.003,-0.30039 -0.0209,-0.13356 -0.0355,-0.26825 -0.0627,-0.40067 -0.13037,-0.63503 -0.11756,-0.33316 -0.22352,-1.0016 -0.0296,-0.18671 -0.0334,-0.3771 -0.0664,-0.56323 -0.002,-0.009 -0.18935,-0.75072 -0.20552,-0.81469 z" />
    <path
       style="opacity:1;fill:none;fill-opacity:1;stroke:#fefefe;stroke-width:1;stroke-linecap:round;stroke-opacity:1"
       id="path23"
       d="m 157.59484,140.19923 c -0.0283,0.24188 -0.0779,0.68862 -0.11629,0.91604 -0.0247,0.14599 -0.0633,0.28934 -0.0902,0.43493 -0.0706,0.38163 -0.11755,0.76385 -0.14834,1.15037 0.008,0.81248 0.0396,1.62405 0.0311,2.43694 0.0173,0.0986 0.0354,0.24953 0.0783,0.34851 0.0376,0.0869 0.0778,0.0985 0.11237,0.18504 0.0569,0.14267 0.093,0.29282 0.14074,0.43881 0.11654,0.28678 0.066,0.15635 0.15383,0.39042 0,0 0.90629,0.42266 0.90629,0.42266 v 0 c -0.0836,-0.23746 -0.0337,-0.10744 -0.15496,-0.38802 -0.0272,-0.0801 -0.0571,-0.15927 -0.0817,-0.24017 -0.0328,-0.10765 -0.0327,-0.23028 -0.0952,-0.32389 -0.0179,-0.0268 -0.0587,-0.0324 -0.0764,-0.0594 -0.0353,-0.0539 -0.0833,-0.28032 -0.0928,-0.31898 0.01,-0.81099 -0.0165,-1.6207 -0.034,-2.43119 0.009,-0.12762 0.0135,-0.25569 0.0276,-0.38286 0.0784,-0.70602 0.28116,-1.39211 0.31934,-2.10364 z" />
    <circle
       id="path24"
       style="fill:#000000;stroke:#fefefe;stroke-width:0.264583"
       cx="158.16902"
       cy="146.63608"
       r="0.011452177" />
    <ellipse
       style="fill:#e6af64;fill-opacity:1;stroke:none;stroke-width:0.712517;stroke-linecap:round;stroke-dasharray:none"
       id="path7-2-6-1-3-6"
       cx="27.493475"
       cy="45.553574"
       rx="2.7785344"
       ry="1.1758084" />
    <g
       id="g9"
       transform="translate(-75.979287,-5.4941622)">
      <ellipse
         style="fill:#6468e6;fill-opacity:1;stroke:none;stroke-width:0.403604;stroke-linecap:round;stroke-dasharray:none"
         id="path7-2-6-1-3-6-5"
         cx="109.75515"
         cy="48.937454"
         rx="0.46168754"
         ry="2.2705193" />
      <ellipse
         style="fill:#bc64e6;fill-opacity:1;stroke:none;stroke-width:0.253937;stroke-linecap:round;stroke-dasharray:none"
         id="path7-2-6-1-3-6-5-9"
         cx="109.70905"
         cy="47.832844"
         rx="1.3539308"
         ry="0.30649102" />
      <ellipse
         style="fill:#bc64e6;fill-opacity:1;stroke:none;stroke-width:0.168451;stroke-linecap:round;stroke-dasharray:none"
         id="path7-2-6-1-3-6-5-9-0"
         cx="109.7197"
         cy="47.181847"
         rx="0.97674233"
         ry="0.1869521" />
      <ellipse
         style="fill:#bc64e6;fill-opacity:1;stroke:none;stroke-width:0.312509;stroke-linecap:round;stroke-dasharray:none"
         id="path7-2-6-1-3-6-5-9-2"
         cx="109.7392"
         cy="48.636993"
         rx="1.6310852"
         ry="0.38530985" />
      <ellipse
         style="fill:#bc64e6;fill-opacity:1;stroke:none;stroke-width:0.373868;stroke-linecap:round;stroke-dasharray:none"
         id="path7-2-6-1-3-6-5-9-2-4"
         cx="109.67462"
         cy="49.512138"
         rx="2.0725417"
         ry="0.43400514" />
    </g>
    <ellipse
       style="fill:#e1a34f;fill-opacity:1;stroke:none;stroke-width:0.533298;stroke-linecap:round;stroke-dasharray:none"
       id="path7-2-6-1"
       cx="24.707403"
       cy="46.536053"
       rx="1.5016979"
       ry="1.2187613" />
    <ellipse
       style="fill:#e1a34f;fill-opacity:1;stroke:none;stroke-width:0.36235;stroke-linecap:round;stroke-dasharray:none"
       id="path7-2-6-1-3"
       cx="26.596014"
       cy="46.412884"
       rx="1.1381272"
       ry="0.74238282" />
    <g
       id="g10">
      <ellipse
         style="opacity:0.634169;fill:#a7e664;fill-opacity:1;stroke:none;stroke-width:0.720923;stroke-linecap:round"
         id="path9"
         cx="19.778547"
         cy="45.73571"
         rx="0.2668466"
         ry="1.7146426" />
      <ellipse
         style="opacity:0.634169;fill:#8b64e6;fill-opacity:1;stroke:none;stroke-width:0.563099;stroke-linecap:round"
         id="path9-6"
         cx="19.807512"
         cy="45.991337"
         rx="1.219959"
         ry="0.22881451" />
      <ellipse
         style="opacity:0.634169;fill:#8b64e6;fill-opacity:1;stroke:none;stroke-width:0.525403;stroke-linecap:round"
         id="path9-6-1"
         cx="19.770237"
         cy="45.432831"
         rx="1.0620898"
         ry="0.22881451" />
      <ellipse
         style="opacity:0.634169;fill:#8b64e6;fill-opacity:1;stroke:none;stroke-width:0.428529;stroke-linecap:round"
         id="path9-6-1-6"
         cx="19.78471"
         cy="44.965858"
         rx="0.85640424"
         ry="0.18877386" />
      <ellipse
         style="opacity:0.634169;fill:#8b64e6;fill-opacity:1;stroke:none;stroke-width:0.387514;stroke-linecap:round"
         id="path9-6-1-6-4"
         cx="19.801643"
         cy="44.522301"
         rx="0.76806033"
         ry="0.17212297" />
    </g>
    <ellipse
       style="opacity:0.634169;fill:#6764e6;fill-opacity:1;stroke:none;stroke-width:0.780908;stroke-linecap:round"
       id="path17"
       cx="83.658165"
       cy="48.848312"
       rx="0.15283464"
       ry="0.16062382" />
    <ellipse
       style="opacity:0.634169;fill:#7243e1;fill-opacity:1;stroke:none;stroke-width:0.574276;stroke-linecap:round"
       id="path17-0"
       cx="84.213432"
       cy="49.036533"
       rx="0.11239384"
       ry="0.11812196" />
    <ellipse
       style="opacity:0.634169;fill:#c764e6;fill-opacity:1;stroke:none;stroke-width:1.0496;stroke-linecap:round"
       id="path17-0-8"
       cx="83.870033"
       cy="49.247379"
       rx="0.20542096"
       ry="0.21589018" />
    <ellipse
       style="fill:#ffb068;fill-opacity:1;stroke-width:0.184337"
       id="path131-5-2-7-9-4"
       cx="109.19621"
       cy="21.350069"
       rx="17.152136"
       ry="5.7078857"
       transform="rotate(10)" />
    <ellipse
       style="fill:#ffb068;fill-opacity:1;stroke-width:0.133475"
       id="path131-5-2-7-9-4-0"
       cx="116.31143"
       cy="-0.26363176"
       rx="9.0950251"
       ry="5.6437421"
       transform="matrix(0.94485818,0.3274798,-0.08934685,0.99600057,0,0)" />
  </g>
</svg>
