<?xml version="1.0" encoding="UTF-8" standalone="no"?>
<!-- Created with Inkscape (http://www.inkscape.org/) -->

<svg
   width="170mm"
   height="100mm"
   viewBox="0 0 170 100"
   version="1.1"
   id="svg1"
   inkscape:version="1.3 (0e150ed, 2023-07-21)"
   sodipodi:docname="Foam_Pet_0001.svg"
   xmlns:inkscape="http://www.inkscape.org/namespaces/inkscape"
   xmlns:sodipodi="http://sodipodi.sourceforge.net/DTD/sodipodi-0.dtd"
   xmlns="http://www.w3.org/2000/svg"
   xmlns:svg="http://www.w3.org/2000/svg">
  <sodipodi:namedview
     id="namedview1"
     pagecolor="#ffffff"
     bordercolor="#000000"
     borderopacity="0.25"
     inkscape:showpageshadow="2"
     inkscape:pageopacity="0.0"
     inkscape:pagecheckerboard="0"
     inkscape:deskcolor="#d1d1d1"
     inkscape:document-units="mm"
     inkscape:zoom="0.36346802"
     inkscape:cx="458.08707"
     inkscape:cy="-250.36591"
     inkscape:window-width="1452"
     inkscape:window-height="908"
     inkscape:window-x="26"
     inkscape:window-y="23"
     inkscape:window-maximized="0"
     inkscape:current-layer="layer1"
     showgrid="false" />
  <defs
     id="defs1">
    <inkscape:perspective
       sodipodi:type="inkscape:persp3d"
       inkscape:vp_x="90.083039 : 3.601798 : 1"
       inkscape:vp_y="0 : 827.95642 : 0"
       inkscape:vp_z="284.17806 : 3.601798 : 1"
       inkscape:persp3d-origin="187.13055 : -10.197476 : 1"
       id="perspective9" />
  </defs>
  <g
     inkscape:label="Layer 1"
     inkscape:groupmode="layer"
     id="layer1">
    <path
       style="fill:#ff9955;fill-opacity:1;stroke-width:0.239"
       d="m 128.43138,39.754871 c 0,0 17.55654,1.13553 21.12956,-12.19916 3.57302,-13.33468 6.8194,-19.4051404 9.95723,-12.78543 3.13782,6.61971 0.7123,25.81205 -2.34733,27.13571 -3.05963,1.32366 -0.54596,5.36288 -20.99371,6.68938 -20.44775,1.32651 -7.74575,-8.8405 -7.74575,-8.8405 z"
       id="path2" />
    <ellipse
       style="fill:#ff9955;fill-opacity:1;stroke-width:0.135533"
       id="path1-3-2"
       cx="-36.782333"
       cy="33.786762"
       rx="12.57321"
       ry="8.123642"
       transform="scale(-1,1)" />
    <ellipse
       style="fill:#c9c1f2;fill-opacity:1;stroke-width:0.390895;stroke-dasharray:none"
       id="path2-8-4-6"
       cx="-91.181618"
       cy="50.967163"
       transform="matrix(-0.98718428,-0.15958444,-0.18886777,0.98200253,0,0)"
       rx="10.144915"
       ry="24.801371" />
    <ellipse
       style="fill:#bcb3f0;fill-opacity:1;stroke-width:0.354632"
       id="path2-8-4"
       cx="-114.34117"
       cy="89.751198"
       transform="matrix(-0.97937236,0.20206378,0.14901189,0.9888354,0,0)"
       rx="8.2217827"
       ry="25.27434" />
    <ellipse
       style="fill:#9a1da7;fill-opacity:1;stroke-width:0.38921"
       id="path1"
       cx="-95.571503"
       cy="53.219189"
       rx="42.257133"
       ry="19.932581"
       transform="scale(-1,1)" />
    <ellipse
       style="fill:#9a1da7;fill-opacity:1;stroke-width:0.470541"
       id="path1-5-2-7-6-6"
       cx="-12.239503"
       cy="79.175865"
       rx="28.738964"
       ry="42.836369"
       transform="matrix(-0.98874353,0.14962029,0.80531593,0.59284589,0,0)" />
    <ellipse
       style="fill:#9a1da7;fill-opacity:1;stroke-width:0.224525"
       id="path1-3"
       cx="-47.524372"
       cy="30.76955"
       rx="17.751987"
       ry="15.790003"
       transform="scale(-1,1)" />
    <ellipse
       style="fill:#b6cafa;fill-opacity:1;stroke-width:0.378232"
       id="path2-8"
       cx="-104.94798"
       cy="109.96146"
       transform="matrix(-0.9308546,0.36538981,0.31976766,0.94749599,0,0)"
       rx="9.1709032"
       ry="25.774687" />
    <ellipse
       style="fill:#5f0a6e;fill-opacity:1;stroke-width:0.553284"
       id="path2-8-4-6-4-8"
       cx="55.889168"
       cy="15.106357"
       transform="matrix(0.80369021,0.59504793,0.77486776,-0.63212336,0,0)"
       rx="20.660763"
       ry="24.481726" />
    <circle
       style="fill:#93d0ea;fill-opacity:1;stroke-width:0.074519"
       id="path2-8-3"
       cx="-41.597523"
       cy="25.463886"
       r="3.0290797"
       transform="scale(-1,1)" />
    <ellipse
       style="fill:#e5cdfa;fill-opacity:1;stroke-width:0.421335"
       id="path2-8-4-6-4"
       cx="88.37001"
       cy="-0.69072425"
       transform="matrix(0.71353477,0.70061982,0.74061413,-0.67193058,0,0)"
       rx="11.379221"
       ry="25.777084" />
    <rect
       style="fill:#7d0c95;fill-opacity:1;stroke:none;stroke-width:0.829072;stroke-opacity:1"
       id="rect3"
       width="27.099844"
       height="10.383112"
       x="-37.619553"
       y="77.911278"
       transform="scale(-1,1)" />
  </g>
</svg>
