<?xml version="1.0" encoding="UTF-8" standalone="no"?>
<!-- Created with Inkscape (http://www.inkscape.org/) -->

<svg
   width="170mm"
   height="100mm"
   viewBox="0 0 170 100"
   version="1.1"
   id="svg1"
   inkscape:version="1.3 (0e150ed, 2023-07-21)"
   sodipodi:docname="Foam_Pet_0003.svg"
   xmlns:inkscape="http://www.inkscape.org/namespaces/inkscape"
   xmlns:sodipodi="http://sodipodi.sourceforge.net/DTD/sodipodi-0.dtd"
   xmlns="http://www.w3.org/2000/svg"
   xmlns:svg="http://www.w3.org/2000/svg">
  <sodipodi:namedview
     id="namedview1"
     pagecolor="#000000"
     bordercolor="#000000"
     borderopacity="0.25"
     inkscape:showpageshadow="2"
     inkscape:pageopacity="0.0"
     inkscape:pagecheckerboard="0"
     inkscape:deskcolor="#d1d1d1"
     inkscape:document-units="mm"
     inkscape:zoom="1.0280428"
     inkscape:cx="278.68489"
     inkscape:cy="283.5485"
     inkscape:window-width="1535"
     inkscape:window-height="947"
     inkscape:window-x="26"
     inkscape:window-y="23"
     inkscape:window-maximized="0"
     inkscape:current-layer="layer1"
     showgrid="false" />
  <defs
     id="defs1">
    <inkscape:perspective
       sodipodi:type="inkscape:persp3d"
       inkscape:vp_x="90.083039 : 3.601798 : 1"
       inkscape:vp_y="0 : 827.95642 : 0"
       inkscape:vp_z="284.17806 : 3.601798 : 1"
       inkscape:persp3d-origin="187.13055 : -10.197476 : 1"
       id="perspective9" />
    <filter
       inkscape:collect="always"
       style="color-interpolation-filters:sRGB"
       id="filter126"
       x="-0.16071837"
       y="-0.078942069"
       width="1.3214833"
       height="1.1578841">
      <feGaussianBlur
         inkscape:collect="always"
         stdDeviation="2.8688844"
         id="feGaussianBlur126" />
    </filter>
    <filter
       inkscape:collect="always"
       style="color-interpolation-filters:sRGB"
       id="filter126-1"
       x="-0.10551216"
       y="-0.09561551"
       width="1.2110201"
       height="1.1912278">
      <feGaussianBlur
         inkscape:collect="always"
         stdDeviation="3.0534813"
         id="feGaussianBlur126-2" />
    </filter>
    <filter
       inkscape:collect="always"
       style="color-interpolation-filters:sRGB"
       id="filter10-7-9"
       x="-0.10930763"
       y="-0.10930763"
       width="1.2186153"
       height="1.2186153">
      <feGaussianBlur
         inkscape:collect="always"
         stdDeviation="0.2798626"
         id="feGaussianBlur10-7-3" />
    </filter>
    <filter
       inkscape:collect="always"
       style="color-interpolation-filters:sRGB"
       id="filter126-0"
       x="-0.15117207"
       y="-0.13884775"
       width="1.3021481"
       height="1.2777161">
      <feGaussianBlur
         inkscape:collect="always"
         stdDeviation="3.049398"
         id="feGaussianBlur126-9" />
    </filter>
    <filter
       inkscape:collect="always"
       style="color-interpolation-filters:sRGB"
       id="filter126-0-6"
       x="-0.32372251"
       y="-0.26438802"
       width="1.6469452"
       height="1.5290853">
      <feGaussianBlur
         inkscape:collect="always"
         stdDeviation="4.6779728"
         id="feGaussianBlur126-9-1" />
    </filter>
    <filter
       inkscape:collect="always"
       style="color-interpolation-filters:sRGB"
       id="filter126-0-4"
       x="-0.11050042"
       y="-0.14593732"
       width="1.2209728"
       height="1.2918666">
      <feGaussianBlur
         inkscape:collect="always"
         stdDeviation="3.0534813"
         id="feGaussianBlur126-9-4" />
    </filter>
    <filter
       inkscape:collect="always"
       style="color-interpolation-filters:sRGB"
       id="filter126-0-4-3"
       x="-0.17774574"
       y="-0.22737726"
       width="1.3555109"
       height="1.4544749">
      <feGaussianBlur
         inkscape:collect="always"
         stdDeviation="4.9247182"
         id="feGaussianBlur126-9-4-1" />
    </filter>
    <filter
       inkscape:collect="always"
       style="color-interpolation-filters:sRGB"
       id="filter126-0-4-3-2"
       x="-0.096272886"
       y="-0.085669363"
       width="1.192546"
       height="1.171331">
      <feGaussianBlur
         inkscape:collect="always"
         stdDeviation="3.0534813"
         id="feGaussianBlur126-9-4-1-1" />
    </filter>
    <filter
       inkscape:collect="always"
       style="color-interpolation-filters:sRGB"
       id="filter126-8"
       x="-0.13408991"
       y="-0.12545293"
       width="1.2685857"
       height="1.2504055">
      <feGaussianBlur
         inkscape:collect="always"
         stdDeviation="2.2449715"
         id="feGaussianBlur126-97" />
    </filter>
    <filter
       inkscape:collect="always"
       style="color-interpolation-filters:sRGB"
       id="filter126-0-4-3-2-0"
       x="-0.096272886"
       y="-0.085669363"
       width="1.192546"
       height="1.171331">
      <feGaussianBlur
         inkscape:collect="always"
         stdDeviation="3.0534813"
         id="feGaussianBlur126-9-4-1-1-3" />
    </filter>
    <filter
       inkscape:collect="always"
       style="color-interpolation-filters:sRGB"
       id="filter126-0-40"
       x="-0.15650779"
       y="-0.11173881"
       width="1.3131454"
       height="1.223508">
      <feGaussianBlur
         inkscape:collect="always"
         stdDeviation="3.049398"
         id="feGaussianBlur126-9-5" />
    </filter>
    <filter
       inkscape:collect="always"
       style="color-interpolation-filters:sRGB"
       id="filter127"
       x="-0.039597239"
       y="-0.039551833"
       width="1.0791374"
       height="1.0790754">
      <feGaussianBlur
         inkscape:collect="always"
         stdDeviation="0.21652721"
         id="feGaussianBlur127" />
    </filter>
    <filter
       inkscape:collect="always"
       style="color-interpolation-filters:sRGB"
       id="filter127-0"
       x="-0.039542961"
       y="-0.039542961"
       width="1.0790859"
       height="1.0790859">
      <feGaussianBlur
         inkscape:collect="always"
         stdDeviation="0.21652721"
         id="feGaussianBlur127-2" />
    </filter>
    <filter
       inkscape:collect="always"
       style="color-interpolation-filters:sRGB"
       id="filter10-7-1"
       x="-0.10930763"
       y="-0.10930763"
       width="1.2186153"
       height="1.2186153">
      <feGaussianBlur
         inkscape:collect="always"
         stdDeviation="0.2798626"
         id="feGaussianBlur10-7-0" />
    </filter>
    <filter
       inkscape:collect="always"
       style="color-interpolation-filters:sRGB"
       id="filter10-0-4"
       x="-0.091116866"
       y="-0.091116866"
       width="1.1822337"
       height="1.1822337">
      <feGaussianBlur
         inkscape:collect="always"
         stdDeviation="0.19561725"
         id="feGaussianBlur10-6-6" />
    </filter>
    <filter
       inkscape:collect="always"
       style="color-interpolation-filters:sRGB"
       id="filter11-8-2"
       x="-0.1797871"
       y="-0.060248751"
       width="1.3595742"
       height="1.1204975">
      <feGaussianBlur
         inkscape:collect="always"
         stdDeviation="0.19561725"
         id="feGaussianBlur11-9-5" />
    </filter>
    <filter
       inkscape:collect="always"
       style="color-interpolation-filters:sRGB"
       id="filter12-2-8"
       x="-0.1797871"
       y="-0.060248751"
       width="1.3595742"
       height="1.1204975">
      <feGaussianBlur
         inkscape:collect="always"
         stdDeviation="0.19561725"
         id="feGaussianBlur12-6-6" />
    </filter>
    <filter
       inkscape:collect="always"
       style="color-interpolation-filters:sRGB"
       id="filter13-6-2"
       x="-0.017003496"
       y="-0.071807084"
       width="1.034007"
       height="1.1436142">
      <feGaussianBlur
         inkscape:collect="always"
         stdDeviation="0.19561725"
         id="feGaussianBlur13-4-8" />
    </filter>
    <filter
       inkscape:collect="always"
       style="color-interpolation-filters:sRGB"
       id="filter14-9-4"
       x="-0.091116866"
       y="-0.091116866"
       width="1.1822337"
       height="1.1822337">
      <feGaussianBlur
         inkscape:collect="always"
         stdDeviation="0.19561725"
         id="feGaussianBlur14-5-7" />
    </filter>
    <filter
       inkscape:collect="always"
       style="color-interpolation-filters:sRGB"
       id="filter17-1-2"
       x="-0.17918947"
       y="-0.17918947"
       width="1.3583789"
       height="1.3583789">
      <feGaussianBlur
         inkscape:collect="always"
         stdDeviation="0.19561725"
         id="feGaussianBlur17-7-4" />
    </filter>
    <filter
       inkscape:collect="always"
       style="color-interpolation-filters:sRGB"
       id="filter18-2-0"
       x="-0.17918947"
       y="-0.17918947"
       width="1.3583789"
       height="1.3583789">
      <feGaussianBlur
         inkscape:collect="always"
         stdDeviation="0.19561725"
         id="feGaussianBlur18-7-6" />
    </filter>
    <filter
       inkscape:collect="always"
       style="color-interpolation-filters:sRGB"
       id="filter19-2-2"
       x="-0.05126415"
       y="-0.39934285"
       width="1.1025283"
       height="1.7986857">
      <feGaussianBlur
         inkscape:collect="always"
         stdDeviation="0.19561725"
         id="feGaussianBlur19-2-9" />
    </filter>
    <filter
       inkscape:collect="always"
       style="color-interpolation-filters:sRGB"
       id="filter20-6-9"
       x="-0.05126415"
       y="-0.39934285"
       width="1.1025283"
       height="1.7986857">
      <feGaussianBlur
         inkscape:collect="always"
         stdDeviation="0.19561725"
         id="feGaussianBlur20-1-0" />
    </filter>
  </defs>
  <g
     inkscape:label="Layer 1"
     inkscape:groupmode="layer"
     id="layer1">
    <circle
       style="fill:none;fill-opacity:1;stroke:#ff0909;stroke-width:1.08655;stroke-dasharray:none;stroke-opacity:1;filter:url(#filter10-0-4);opacity:1"
       id="path2-8-3-7-61-1"
       cx="-67.999435"
       cy="35.750996"
       r="5.5574584"
       transform="matrix(0.84339064,0,0,0.84339064,161.43942,6.3008438)" />
    <ellipse
       style="fill:none;fill-opacity:1;stroke:#ff0909;stroke-width:0.831449;stroke-dasharray:none;stroke-opacity:1;filter:url(#filter11-8-2);opacity:1"
       id="path2-8-3-7-3-5-3"
       cx="-49.54837"
       cy="42.402115"
       transform="matrix(0.84339064,0,0,0.84339064,160.56867,6.2064638)"
       rx="2.461817"
       ry="7.3462591" />
    <ellipse
       style="fill:none;fill-opacity:1;stroke:#ff0909;stroke-width:0.831449;stroke-dasharray:none;stroke-opacity:1;filter:url(#filter12-2-8);opacity:1"
       id="path2-8-3-7-3-7-9-1"
       cx="-122.77648"
       cy="42.488983"
       transform="matrix(0.84339064,0,0,0.84339064,161.43942,6.3008438)"
       rx="2.461817"
       ry="7.3462591" />
    <path
       id="path2-8-3-7-9-4-1"
       style="fill:none;fill-opacity:1;stroke:#ff0909;stroke-width:1.10147;stroke-dasharray:none;stroke-opacity:1;filter:url(#filter13-6-2);opacity:1"
       d="m 109.08255,104.49358 a 30.000219,13.297646 0 0 0 -0.12408,0.91059 30.000219,13.297646 0 0 0 30.00024,13.29715 30.000219,13.297646 0 0 0 30.00023,-13.29715 30.000219,13.297646 0 0 0 -0.0767,-0.91059 z"
       transform="matrix(-0.84339064,0,0,0.84339064,205.2612,-25.228941)" />
    <circle
       style="fill:none;fill-opacity:1;stroke:#ff0909;stroke-width:1.08655;stroke-dasharray:none;stroke-opacity:1;filter:url(#filter14-9-4);opacity:1"
       id="path2-8-3-7-6-9-0"
       cx="-104.87354"
       cy="36.457027"
       r="5.5574584"
       transform="matrix(0.84339064,0,0,0.84339064,161.43942,6.3008438)" />
    <circle
       style="fill:none;fill-opacity:1;stroke:#ff0909;stroke-width:0.352194;stroke-dasharray:none;stroke-opacity:1;filter:url(#filter17-1-2);opacity:1"
       id="path2-8-3-7-6-3-1-3"
       cx="-82.163979"
       cy="59.179489"
       r="1.8013848"
       transform="matrix(0.84339064,0,0,0.84339064,161.43942,6.3008438)" />
    <circle
       style="fill:none;fill-opacity:1;stroke:#ff0909;stroke-width:0.352194;stroke-dasharray:none;stroke-opacity:1;filter:url(#filter18-2-0);opacity:1"
       id="path2-8-3-7-6-3-2-7-4"
       cx="-90.861511"
       cy="59.261963"
       r="1.8013848"
       transform="matrix(0.84339064,0,0,0.84339064,161.43942,6.3008438)" />
    <rect
       style="fill:none;fill-opacity:1;stroke:#ff0909;stroke-width:0.724619;stroke-linecap:round;stroke-opacity:1;paint-order:stroke fill markers;filter:url(#filter19-2-2);opacity:1"
       id="rect1-71-0"
       width="16.225586"
       height="2.0828991"
       x="57.438545"
       y="26.507719"
       ry="0.18798183"
       transform="matrix(-0.84190611,-0.05001845,-0.05001845,0.84190611,161.43942,6.3008438)" />
    <rect
       style="fill:none;fill-opacity:1;stroke:#ff0909;stroke-width:0.724619;stroke-linecap:round;stroke-opacity:1;paint-order:stroke fill markers;filter:url(#filter20-6-9);opacity:1"
       id="rect1-7-1-3"
       width="16.225586"
       height="2.0828991"
       x="99.104317"
       y="16.118856"
       ry="0.18798183"
       transform="matrix(-0.84190611,0.05001845,0.05001845,0.84190611,161.43942,6.3008438)" />
    <path
       sodipodi:type="spiral"
       style="mix-blend-mode:normal;fill:none;fill-rule:evenodd;stroke:#ffff5b;stroke-width:7.23895;stroke-linecap:round;stroke-dasharray:none;stroke-opacity:1;filter:url(#filter126)"
       id="path126"
       sodipodi:cx="32.686497"
       sodipodi:cy="27.031479"
       sodipodi:expansion="0.95999998"
       sodipodi:revolution="4.4000001"
       sodipodi:radius="71.634209"
       sodipodi:argument="-19.825581"
       sodipodi:t0="0.89899999"
       d="M 52.772662,-34.444314 C 87.863526,-24.460392 107.86302,13.576924 97.887625,48.334833 89.826859,76.42148 64.132713,96.639869 35.089107,98.625384"
       transform="matrix(0.26446221,0,0,0.25857483,268.54294,24.260667)" />
    <path
       sodipodi:type="spiral"
       style="mix-blend-mode:normal;fill:none;fill-rule:evenodd;stroke:#ffff5b;stroke-width:9.5319;stroke-linecap:round;stroke-dasharray:none;stroke-opacity:1;filter:url(#filter126-8)"
       id="path126-6"
       sodipodi:cx="32.686497"
       sodipodi:cy="27.031479"
       sodipodi:expansion="6.3800001"
       sodipodi:revolution="3"
       sodipodi:radius="71.634209"
       sodipodi:argument="-19.825581"
       sodipodi:t0="0.70899999"
       d="m 40.544676,25.617271 c 4.239353,5.895025 0.438886,13.814424 -4.984603,17.38151 C 23.94502,50.638125 9.0062504,43.214597 2.4646745,32.470389 -10.583738,11.039029 3.0487076,-15.606929 22.972613,-26.944647 c 15.04011,-8.558589 33.315733,-9.904962 49.851937,-5.356804"
       transform="matrix(0.27714142,0,0,0.27714142,269.62329,71.962369)" />
    <path
       sodipodi:type="spiral"
       style="mix-blend-mode:normal;fill:none;fill-rule:evenodd;stroke:#ffff5b;stroke-width:9.5319;stroke-linecap:round;stroke-dasharray:none;stroke-opacity:1;filter:url(#filter126-0)"
       id="path126-3"
       sodipodi:cx="32.686497"
       sodipodi:cy="27.031479"
       sodipodi:expansion="5.1399999"
       sodipodi:revolution="3"
       sodipodi:radius="71.634209"
       sodipodi:argument="-19.825581"
       sodipodi:t0="0"
       d="m 32.686497,27.031479 c 3.8e-5,-5.6e-5 1.26e-4,6.1e-5 1.68e-4,1.14e-4 0.0017,0.0021 -0.003,0.0053 -0.0042,0.0058 -0.02169,0.0099 -0.03995,-0.02246 -0.0437,-0.03822 -0.02477,-0.103927 0.107335,-0.169602 0.18935,-0.177077 0.340552,-0.03103 0.521861,0.373786 0.51756,0.655294 -0.01355,0.887117 -1.040794,1.309224 -1.797504,1.236746 -1.981403,-0.18978 -2.852623,-2.467188 -2.577963,-4.1967 0.629264,-3.962423 5.190102,-5.605645 8.710263,-4.868196 7.28989,1.527182 10.179322,9.964529 8.530187,16.531165 C 43.055354,48.744473 28.406855,53.547818 16.962436,50.275122 -3.5834077,44.399743 -11.209558,20.254175 -5.2504691,1.367552 4.9021272,-30.809893 43.020117,-42.462231 72.82455,-32.301451"
       transform="matrix(0.22626416,0,0,0.22626416,260.52106,57.277296)" />
    <path
       sodipodi:type="spiral"
       style="mix-blend-mode:normal;fill:none;fill-rule:evenodd;stroke:#ffff5b;stroke-width:9.5319;stroke-linecap:round;stroke-dasharray:none;stroke-opacity:1;filter:url(#filter126-0-40)"
       id="path126-3-46"
       sodipodi:cx="32.686497"
       sodipodi:cy="27.031479"
       sodipodi:expansion="5.1399999"
       sodipodi:revolution="3.9000001"
       sodipodi:radius="71.634209"
       sodipodi:argument="-19.825581"
       sodipodi:t0="0"
       d="m 32.686497,27.031479 c 10e-6,-1.5e-5 3.2e-5,1.6e-5 4.3e-5,2.9e-5 4.5e-4,5.57e-4 -7.7e-4,0.0014 -0.0011,0.0015 -0.0056,0.0026 -0.01037,-0.0058 -0.01135,-0.0099 -0.0064,-0.02698 0.02787,-0.04403 0.04916,-0.04597 0.08841,-0.0081 0.135483,0.09704 0.134367,0.170124 -0.0035,0.23031 -0.270207,0.339896 -0.466661,0.321079 -0.514403,-0.04927 -0.740586,-0.640521 -0.66928,-1.089529 0.163367,-1.028708 1.347433,-1.455315 2.261322,-1.263861 1.892571,0.39648 2.642713,2.586949 2.214572,4.291752 -0.81917,3.261824 -4.622152,4.508849 -7.593304,3.659205 C 23.270256,31.540555 21.290387,25.271984 22.837461,20.368718 25.473235,12.014944 35.369268,8.9898135 43.10697,11.627713 55.725075,15.929415 60.19965,30.992904 55.930137,42.755538 49.221694,61.237497 26.995706,67.674266 9.6724004,61.051408 -16.691307,50.972324 -25.729896,19.049129 -15.813798,-5.77842 -7.9653549,-25.429051 9.9384526,-39.576945 30.283886,-44.562427"
       transform="matrix(0.22626416,0,0,0.22626416,275.55652,26.03671)" />
    <path
       sodipodi:type="spiral"
       style="fill:none;fill-rule:evenodd;stroke:#ffff5b;stroke-width:9.5319;stroke-linecap:round;stroke-dasharray:none;stroke-opacity:1;filter:url(#filter126-0-4)"
       id="path126-3-4"
       sodipodi:cx="32.686497"
       sodipodi:cy="27.031479"
       sodipodi:expansion="4.2600002"
       sodipodi:revolution="4.1999998"
       sodipodi:radius="71.634209"
       sodipodi:argument="-19.825581"
       sodipodi:t0="0"
       d="m 32.686497,27.031479 c 8e-5,-1.19e-4 2.73e-4,1.25e-4 3.57e-4,2.42e-4 0.002,0.0027 -0.0032,0.006 -0.005,0.0066 -0.01859,0.0066 -0.03191,-0.01873 -0.03391,-0.03293 -0.0095,-0.0676 0.07227,-0.105162 0.127369,-0.105219 0.179701,-1.86e-4 0.265827,0.208676 0.250876,0.361097 -0.03882,0.395713 -0.494232,0.56812 -0.839343,0.508788 -0.768138,-0.132058 -1.081241,-1.018326 -0.924635,-1.702099 0.311885,-1.361747 1.894838,-1.890097 3.126057,-1.552089 2.254092,0.618817 3.095925,3.263297 2.453037,5.326283 -1.10191,3.535957 -5.289932,4.816861 -8.557712,3.697778 C 22.971831,31.720874 21.095147,25.371349 22.918373,20.423454 25.755698,12.723487 35.039967,10.059327 42.25956,12.880372 53.092938,17.113498 56.775216,30.280883 52.587593,40.494344 46.495038,55.353864 28.300707,60.327885 14.225962,54.320236 -5.714959,45.808673 -12.301458,21.227322 -3.9258096,2.2636691 7.6703808,-23.991746 40.236272,-32.562761 65.29193,-21.16657 c 25.804039,11.7365815 39.57149,40.429805 36.2269,68.03664"
       transform="matrix(0.22626416,0,0,0.22626416,241.55108,25.890493)" />
    <path
       sodipodi:type="spiral"
       style="mix-blend-mode:normal;fill:none;fill-rule:evenodd;stroke:#ffff5b;stroke-width:9.5319;stroke-linecap:round;stroke-dasharray:none;stroke-opacity:1;filter:url(#filter126-0-4-3)"
       id="path126-3-4-5"
       sodipodi:cx="32.686497"
       sodipodi:cy="27.031479"
       sodipodi:expansion="4.2600002"
       sodipodi:revolution="4.1999998"
       sodipodi:radius="71.634209"
       sodipodi:argument="-19.825581"
       sodipodi:t0="0.91000003"
       d="M 8.7183395,-14.479044 C 32.455949,-34.440653 68.142967,-27.347038 87.05921,-4.363301 98.748281,9.8392297 103.72068,28.695586 101.51883,46.87007"
       transform="matrix(0.22626416,0,0,0.22626416,284.84509,50.317176)" />
    <path
       sodipodi:type="spiral"
       style="fill:none;fill-rule:evenodd;stroke:#ffff5b;stroke-width:7.3233;stroke-linecap:round;stroke-dasharray:none;stroke-opacity:1;filter:url(#filter126-0-4-3-2)"
       id="path126-3-4-5-8"
       sodipodi:cx="32.686497"
       sodipodi:cy="27.031479"
       sodipodi:expansion="13.91"
       sodipodi:revolution="29.4"
       sodipodi:radius="71.634209"
       sodipodi:argument="-19.825581"
       sodipodi:t0="0.95899999"
       d="M 71.489689,36.802422 C 67.558236,59.938456 44.349245,74.779575 21.638948,70.904437 -4.4992056,66.444392 -21.261826,40.215311 -16.865334,14.553946 c 5.0539,-29.498516 34.664489,-48.411437 63.62957,-43.429175 33.256205,5.720375 54.573134,39.113433 48.933418,71.773402 C 90.542145,72.754062 64.925043,95.36915 35.089322,98.625377"
       transform="matrix(0.22626416,0,0,0.22626416,237.26845,26.740878)" />
    <path
       sodipodi:type="spiral"
       style="fill:none;fill-rule:evenodd;stroke:#ffff5b;stroke-width:7.3233;stroke-linecap:round;stroke-dasharray:none;stroke-opacity:1;filter:url(#filter126-0-4-3-2-0)"
       id="path126-3-4-5-8-9"
       sodipodi:cx="32.686497"
       sodipodi:cy="27.031479"
       sodipodi:expansion="13.91"
       sodipodi:revolution="29.4"
       sodipodi:radius="71.634209"
       sodipodi:argument="-19.825581"
       sodipodi:t0="0.95899999"
       d="M 71.489689,36.802422 C 67.558236,59.938456 44.349245,74.779575 21.638948,70.904437 -4.4992056,66.444392 -21.261826,40.215311 -16.865334,14.553946 c 5.0539,-29.498516 34.664489,-48.411437 63.62957,-43.429175 33.256205,5.720375 54.573134,39.113433 48.933418,71.773402 C 90.542145,72.754062 64.925043,95.36915 35.089322,98.625377"
       transform="matrix(0.27476695,0,0,0.27490673,244.75462,27.034767)" />
    <path
       sodipodi:type="spiral"
       style="mix-blend-mode:normal;fill:none;fill-rule:evenodd;stroke:#ffff5b;stroke-width:9.5319;stroke-linecap:round;stroke-dasharray:none;stroke-opacity:1;filter:url(#filter126-0-6)"
       id="path126-3-5"
       sodipodi:cx="32.686497"
       sodipodi:cy="27.031479"
       sodipodi:expansion="22.370001"
       sodipodi:revolution="3"
       sodipodi:radius="71.634209"
       sodipodi:argument="-19.825581"
       sodipodi:t0="0"
       d="m 32.686497,27.031479 c 0,0 0,0 0,0 0,0 0,0 0,0 0,0 0,0 0,10e-7 2e-6,1.2e-5 -2.7e-5,1.7e-5 -3.3e-5,1.8e-5 -3.57e-4,4e-5 -4.69e-4,-7.12e-4 -4.79e-4,-8.98e-4 -3.61e-4,-0.0066 0.01225,-0.0082 0.01612,-0.0082 0.08743,-2.5e-5 0.103472,0.153674 0.100679,0.208838 -0.04445,0.878039 -1.498709,1.004099 -2.084805,0.946313 C 23.637839,27.479465 22.843875,16.278966 23.553827,11.3449 26.91263,-11.998305 52.441418,-26.532177 72.82455,-32.301451"
       transform="matrix(0.16009977,0,0,0.16009977,257.19833,74.257789)" />
    <path
       sodipodi:type="spiral"
       style="fill:none;fill-rule:evenodd;stroke:#ffff5b;stroke-width:9.5319;stroke-linecap:round;stroke-dasharray:none;stroke-opacity:1;filter:url(#filter126-1)"
       id="path126-0"
       sodipodi:cx="32.686497"
       sodipodi:cy="27.031479"
       sodipodi:expansion="1"
       sodipodi:revolution="3"
       sodipodi:radius="71.634209"
       sodipodi:argument="-19.825581"
       sodipodi:t0="0"
       d="m 32.686497,27.031479 c 2.012458,-2.974859 5.002926,1.245063 4.944411,3.344838 -0.158573,5.690259 -6.978372,7.9161 -11.634087,6.543983 C 17.66884,34.465907 14.819612,24.469038 17.853264,16.996965 22.305271,6.031399 35.845069,2.4802388 46.065848,7.2538357 59.688539,13.61629 63.954406,30.809332 57.408551,43.755668 49.17126,60.04731 28.278539,65.032549 12.61747,56.697944 -6.3501831,46.603619 -12.057244,21.987363 -1.9243787,3.6176143 10.016853,-18.030499 38.370537,-24.460896 59.445199,-12.523807 83.77673,1.2580341 90.931485,33.35796 77.186194,57.135019 61.56792,84.152025 25.715807,92.031865 -0.76188122,76.475587 -30.465846,59.023794 -39.07131,19.41529 -21.702022,-9.7617369 -2.4188202,-42.153766 40.949159,-51.485264 72.82455,-32.301451"
       transform="matrix(0.3147326,0,0,0.3147326,29.670641,-47.927277)" />
    <circle
       style="fill:none;fill-opacity:1;stroke:#ece15a;stroke-width:1.08655;stroke-dasharray:none;stroke-opacity:1;filter:url(#filter10-7-9)"
       id="path2-8-3-7-7-8"
       cx="-67.999435"
       cy="35.750996"
       r="5.5574584"
       transform="matrix(-4.3588149,0,0,4.3588149,-257.35427,-194.16106)" />
    <circle
       style="fill:none;fill-opacity:1;stroke:#ece15a;stroke-width:1.08655;stroke-dasharray:none;stroke-opacity:1;filter:url(#filter10-7-1)"
       id="path2-8-3-7-7-5"
       cx="-67.999435"
       cy="35.750996"
       r="5.5574584"
       transform="matrix(-3.1335921,0,0,3.1335921,-63.438829,-145.94899)" />
    <path
       sodipodi:type="star"
       style="opacity:1;mix-blend-mode:normal;fill:#6a59df;fill-opacity:1;stroke:#ece15a;stroke-width:1.893;stroke-linecap:round;stroke-dasharray:none;stroke-opacity:1;paint-order:stroke fill markers;filter:url(#filter127)"
       id="path127"
       inkscape:flatsided="false"
       sodipodi:sides="21"
       sodipodi:cx="44.845028"
       sodipodi:cy="28.985853"
       sodipodi:r1="18.586081"
       sodipodi:r2="0.18586081"
       sodipodi:arg1="0.77250824"
       sodipodi:arg2="0.92210789"
       inkscape:rounded="0.12"
       inkscape:randomized="0"
       d="M 58.155679,41.957706 C 56.614447,43.539191 46.71704,27.799848 44.957314,29.133961 c -1.759725,1.334113 10.722399,15.113887 8.783489,16.170825 -1.93891,1.056939 -6.75735,-16.900462 -8.832133,-16.144308 -2.074783,0.756154 5.791137,17.602902 3.626829,18.04138 C 46.371191,47.640335 47.059857,29.060472 44.854371,29.171479 42.648885,29.282486 45.199678,47.6993 43.00228,47.480357 40.804883,47.261414 46.939464,29.709989 44.799242,29.165986 42.659019,28.621983 39.668036,46.972449 37.632798,46.115539 35.597559,45.258628 46.632971,30.295164 44.748181,29.144488 42.86339,27.993811 34.596393,44.64741 32.904153,43.228673 31.211914,41.809935 46.167612,30.764 44.705725,29.108894 43.243838,27.453787 30.435386,40.930773 29.236508,39.07627 28.03763,37.221766 45.584735,31.074841 44.675647,29.062367 43.766559,27.049893 27.554739,36.152777 26.955748,34.027289 26.356758,31.9018 44.936132,31.200065 44.660619,29.009042 44.385106,26.818018 26.21041,30.737969 26.26453,28.530354 26.318649,26.322739 44.279434,31.128548 44.661977,28.953656 45.04452,26.778765 26.521849,25.167477 27.22427,23.073893 27.926691,20.980308 43.672992,30.866642 44.6796,28.901132 45.686208,26.935621 28.461382,19.936265 29.749692,18.142735 31.038001,16.349205 43.17069,30.43762 44.711921,28.856135 46.253153,27.274649 31.856675,15.509149 33.6164,14.175036 c 1.759726,-1.334113 9.20076,15.704566 11.13967,14.647628 1.93891,-1.056939 -8.350031,-16.543167 -6.275248,-17.299321 2.074782,-0.756154 4.162993,17.718828 6.327301,17.28035 2.164308,-0.438478 -3.102878,-18.269415 -0.897392,-18.380423 2.205486,-0.111007 -1.244673,18.158695 0.952724,18.377638 2.197398,0.218944 2.419979,-18.372346 4.560201,-17.828343 2.140223,0.544003 -6.541744,16.985081 -4.506506,17.841991 2.035239,0.856911 7.72781,-16.842813 9.612601,-15.692137 1.88479,1.150676 -11.257554,14.302268 -9.565314,15.721006 1.692239,1.418738 12.348991,-13.816722 13.810878,-12.161616 1.461887,1.655107 -14.97308,10.348637 -13.774202,12.20314 1.198878,1.854503 15.872911,-9.562955 16.781999,-7.550481 0.909088,2.012473 -17.358182,5.475482 -16.759191,7.600971 0.598991,2.125488 17.986452,-4.459477 18.261965,-2.268454 0.275513,2.191024 -18.200934,0.115808 -18.255053,2.323423 -0.05412,2.207615 18.501819,1.040245 18.119276,3.215136 -0.382543,2.174892 -17.426453,-5.254156 -18.128873,-3.160571 -0.702421,2.093584 17.373217,6.447536 16.366609,8.413047 -1.006608,1.96551 -15.103554,-10.157266 -16.391864,-8.363736 -1.288309,1.793531 14.70093,11.281936 13.159698,12.863422 z"
       inkscape:transform-center-x="-0.38289843"
       inkscape:transform-center-y="0.48183063"
       transform="matrix(0.93378784,0,0,0.93378784,-89.058095,0.97763531)" />
    <path
       sodipodi:type="star"
       style="mix-blend-mode:normal;fill:#6a59df;fill-opacity:1;stroke:#ece15a;stroke-width:1.893;stroke-linecap:round;stroke-dasharray:none;stroke-opacity:1;paint-order:stroke fill markers;filter:url(#filter127-0)"
       id="path127-0"
       inkscape:flatsided="false"
       sodipodi:sides="24"
       sodipodi:cx="44.845028"
       sodipodi:cy="28.985853"
       sodipodi:r1="0.18586081"
       sodipodi:r2="18.586081"
       sodipodi:arg1="0.77250824"
       sodipodi:arg2="0.90340793"
       inkscape:rounded="0.39"
       inkscape:randomized="0"
       d="M 44.978134,29.115572 C 39.969265,34.255263 61.98552,39.142187 56.348638,43.584118 50.711756,48.02605 51.108472,25.477433 44.940025,29.145602 c -6.168446,3.66817 13.832794,14.086802 7.238328,16.918446 -6.594467,2.831644 -0.375257,-18.84597 -7.282911,-16.899302 -6.907653,1.946668 9.715521,17.186996 2.612872,18.215381 -7.102649,1.028384 4.515225,-18.300933 -2.66089,-18.208428 -7.176116,0.0925 4.93615,19.115925 -2.190648,18.270967 -7.126797,-0.844958 9.098003,-16.508717 2.142466,-18.27668 C 37.843704,27.398023 44.619631,48.908122 37.954364,46.247404 31.289098,43.586687 51.015131,32.655944 44.75418,29.147998 38.493229,25.640051 39.471049,48.17095 33.72154,43.875796 27.972031,39.580643 49.855,34.127829 44.715309,29.11896 39.575618,24.11009 34.688694,46.126345 30.246763,40.489463 25.804831,34.852581 48.353448,35.249297 44.685279,29.080851 41.01711,22.912404 30.598477,42.913645 27.766833,36.319178 c -2.831644,-6.594466 18.84597,-0.375257 16.899302,-7.28291 -1.946668,-6.907654 -17.186996,9.71552 -18.215381,2.612871 -1.028384,-7.102649 18.300933,4.515226 18.208429,-2.66089 -0.0925,-7.176116 -19.115926,4.93615 -18.270968,-2.190648 0.844958,-7.126797 16.508717,9.098004 18.27668,2.142466 1.767963,-6.955538 -19.742136,-0.179611 -17.081418,-6.844877 2.660717,-6.665267 13.59146,13.060766 17.099406,6.799815 3.507947,-6.260951 -19.022952,-5.283131 -14.727798,-11.03264 4.295154,-5.749509 9.747967,16.133461 14.756836,10.99377 C 49.720791,23.716444 27.704536,18.829519 33.341418,14.387588 38.9783,9.9456565 38.581584,32.494274 44.750031,28.826104 50.918477,25.157935 30.917236,14.739302 37.511703,11.907658 44.10617,9.0760146 37.88696,30.753629 44.794614,28.80696 51.702267,26.860292 35.079093,11.619964 42.181742,10.59158 c 7.102649,-1.0283847 -4.515226,18.300933 2.66089,18.208428 7.176116,-0.0925 -4.93615,-19.1159255 2.190648,-18.270968 7.126797,0.844958 -9.098003,16.508718 -2.142466,18.27668 6.955538,1.767963 0.179611,-19.7421353 6.844877,-17.081418 6.665267,2.660718 -13.060766,13.59146 -6.799815,17.099407 6.260951,3.507946 5.283131,-19.0229525 11.03264,-14.727799 5.749509,4.295154 -16.13346,9.747967 -10.99377,14.756837 5.139691,5.008869 10.026616,-17.007386 14.468547,-11.370504 4.441932,5.636882 -18.106685,5.240167 -14.438516,11.408613 3.668169,6.168446 14.086802,-13.832794 16.918446,-7.238328 2.831644,6.594467 -18.84597,0.375257 -16.899302,7.282911 1.946668,6.907653 17.186996,-9.715521 18.21538,-2.612872 1.028385,7.102649 -18.300932,-4.515225 -18.208428,2.660891 0.09251,7.176115 19.115926,-4.936151 18.270968,2.190647 -0.844958,7.126797 -16.508717,-9.098003 -18.27668,-2.142466 -1.767963,6.955538 19.742135,0.179611 17.081418,6.844878 -2.660717,6.665266 -13.59146,-13.060767 -17.099406,-6.799816 -3.507947,6.260951 19.022952,5.283131 14.727798,11.03264 -4.295154,5.749509 -9.747967,-16.13346 -14.756837,-10.993769 z"
       inkscape:transform-center-x="-0.18865724"
       inkscape:transform-center-y="0.23740128"
       transform="matrix(0.46008323,0,0,0.46008323,-68.211448,14.733411)" />
  </g>
</svg>
