<?xml version="1.0" encoding="UTF-8" standalone="no"?>
<!-- Created with Inkscape (http://www.inkscape.org/) -->

<svg
   width="200mm"
   height="100mm"
   viewBox="0 0 200 100"
   version="1.1"
   id="svg1"
   inkscape:version="1.3 (0e150ed, 2023-07-21)"
   sodipodi:docname="relatives.svg"
   xmlns:inkscape="http://www.inkscape.org/namespaces/inkscape"
   xmlns:sodipodi="http://sodipodi.sourceforge.net/DTD/sodipodi-0.dtd"
   xmlns="http://www.w3.org/2000/svg"
   xmlns:svg="http://www.w3.org/2000/svg">
  <sodipodi:namedview
     id="namedview1"
     pagecolor="#ffffff"
     bordercolor="#000000"
     borderopacity="0.25"
     inkscape:showpageshadow="2"
     inkscape:pageopacity="0.0"
     inkscape:pagecheckerboard="0"
     inkscape:deskcolor="#d1d1d1"
     inkscape:document-units="mm"
     inkscape:zoom="0.25"
     inkscape:cx="334"
     inkscape:cy="238"
     inkscape:window-width="1452"
     inkscape:window-height="991"
     inkscape:window-x="26"
     inkscape:window-y="23"
     inkscape:window-maximized="0"
     inkscape:current-layer="layer1" />
  <defs
     id="defs1" />
  <g
     inkscape:label="Layer 1"
     inkscape:groupmode="layer"
     id="layer1">
    <path
       style="fill:#1a1a1a;stroke-width:0.763;stroke-linecap:round;stroke-linejoin:round"
       id="path14"
       d="m 35.029677,23.299137 c 0.477943,1.024046 0.496284,2.117221 0.435573,3.222 -0.132842,2.170364 -1.136328,4.101589 -2.109708,5.999583 -0.99831,1.774217 -2.211152,3.387447 -3.814146,4.64784 -1.401385,1.076614 -3.102233,1.502056 -4.810775,1.794844 -1.788335,0.378992 -3.611202,0.527769 -5.42244,0.751755 -1.575652,0.184589 -3.544766,0.166074 -3.767931,2.5707 -0.192602,2.075291 1.25787,2.428509 2.50142,2.997152 3.413361,1.172361 6.653833,2.749523 9.835401,4.438973 2.536484,1.568809 5.380839,2.814037 7.502903,4.96081 0.697013,0.897805 0.521666,2.005745 0.432242,3.070503 -0.24593,2.139968 -0.455726,4.281958 -0.562136,6.433537 -0.182907,2.369981 0.34989,4.679674 1.114856,6.902989 0.827619,2.045846 2.163538,3.835062 3.885383,5.217256 0.42406,0.340412 0.879215,0.640162 1.318823,0.960244 2.830589,2.106044 5.763556,3.131719 9.091181,4.163425 3.239818,0.958077 6.546376,1.578525 9.911892,1.826202 2.622579,0.183232 5.248482,0.09703 7.863578,-0.138343 2.007772,-0.219906 3.991486,-0.593095 5.982195,-0.92365 0.205629,-0.03062 0.41126,-0.06125 0.616889,-0.09187 3.416671,-0.560703 2.62372,-5.392606 -0.792953,-4.831903 v 0 c -0.224685,0.04 -0.449371,0.07999 -0.674055,0.119988 -1.844792,0.345721 -3.686644,0.712158 -5.552067,0.933083 -2.360203,0.200294 -4.731269,0.342696 -7.098393,0.164015 -2.991887,-0.212461 -5.959358,-0.67401 -8.838835,-1.538301 -2.709097,-0.8768 -5.381611,-1.823865 -7.691876,-3.542943 -1.436637,-1.052163 -2.749251,-2.213398 -3.445621,-3.900151 -0.570614,-1.638366 -1.021974,-3.328284 -0.85879,-5.081712 0.103227,-2.09922 0.286734,-4.191804 0.552201,-6.277094 0.22443,-2.788576 0.05842,-4.859859 -1.958123,-6.997983 -0.330348,-0.293489 -0.645557,-0.604959 -0.99105,-0.880464 -2.337268,-1.863805 -5.095195,-3.132678 -7.628908,-4.689666 -3.311602,-1.727168 -6.67122,-3.353088 -10.119013,-4.792408 -0.964733,-0.147148 1.002671,0.103415 0.555094,1.998847 -0.196121,0.830546 -1.06878,1.333474 -1.658395,1.950421 -0.04604,0.04818 -0.264346,0.01069 -0.199839,-0.0061 0.120337,-0.03123 1.289682,-0.187973 1.307443,-0.190423 1.887917,-0.262845 3.794664,-0.401542 5.658772,-0.816935 2.498971,-0.478753 4.953154,-1.183857 6.979079,-2.801305 0.339796,-0.280131 0.693369,-0.544338 1.019384,-0.840389 1.667745,-1.514461 2.882045,-3.44121 3.999079,-5.375671 1.295614,-2.505655 2.541061,-5.072515 2.717035,-7.938625 0.09023,-1.873496 -0.03509,-3.718215 -0.761621,-5.473549 -1.417937,-3.198774 -5.941685,-1.19351 -4.523748,2.005264 z" />
    <path
       style="fill:#1a1a1a;stroke-width:0.763;stroke-linecap:round;stroke-linejoin:round"
       id="path15"
       d="m 103.74633,17.910789 c 0.26761,1.588295 0.17853,3.142352 -0.13503,4.712069 -0.26182,1.617818 -0.88062,3.103214 -1.89266,4.389412 -1.21342,1.332272 -2.680554,2.327129 -4.308607,3.072408 -2.47405,1.142272 -5.084214,1.920912 -7.75286,2.442125 -1.987571,0.383619 -3.932809,0.958675 -5.920132,1.339818 -1.243882,0.222242 -2.489001,0.409165 -3.749248,0.50686 -1.055558,0.09349 -2.110545,-0.06058 -3.152762,-0.213699 -0.966497,-0.13068 -1.938713,-0.204102 -2.912851,-0.241562 -1.032052,-0.01775 -2.34329,-0.234645 -3.093871,0.796917 -0.507762,0.697844 -0.376216,1.684544 -0.564322,2.526816 0.44726,1.072219 1.226233,1.913377 2.040851,2.719369 0.968316,0.889535 1.863981,1.851919 2.751627,2.820805 0.783539,0.92148 1.577049,1.852478 2.230839,2.873677 0.190569,0.297664 0.782225,1.407805 0.924801,1.671576 1.086808,2.112508 1.672796,4.410655 2.171486,6.717374 0.47417,2.238968 0.522832,4.530111 0.698463,6.802718 0.254394,1.973694 0.492556,3.947043 0.619709,5.933395 0.0779,1.948431 0.09792,3.895095 0.224161,5.841423 0.11907,2.419752 1.03623,4.642437 2.041339,6.80834 1.69091,3.363786 4.08346,4.723453 7.449796,6.104422 3.710938,1.228114 7.655674,1.243981 11.522241,1.206619 5.42742,-0.392499 10.8402,-0.960792 16.26094,-1.440077 3.19385,-0.256675 6.39129,-0.441253 9.49755,-1.266931 1.6379,-0.425399 2.973,-0.962522 4.2352,-2.099357 0.78456,-0.789565 1.29587,-1.763956 1.74291,-2.769415 0.26368,-0.637186 0.40672,-1.31154 0.59747,-1.971577 0.97246,-3.360134 -3.77948,-4.735412 -4.75195,-1.375281 v 0 c -0.13205,0.455579 -0.24322,0.914789 -0.37129,1.37055 -0.18203,0.432155 -0.36602,0.853231 -0.66868,1.215131 0.017,0.298923 -1.85516,0.908103 -2.08472,0.975156 -2.81299,0.838166 -5.74731,0.983887 -8.64809,1.339548 -5.26154,0.573072 -10.53705,1.049269 -15.81997,1.371995 -3.260595,-0.01873 -6.590837,-0.04213 -9.742056,-0.979168 -2.092772,-0.808902 -3.820657,-1.617191 -4.837623,-3.731286 -0.76087,-1.611678 -1.501103,-3.253325 -1.597438,-5.0624 C 86.632761,70.368236 86.63325,68.417246 86.546525,66.465587 86.414265,64.462209 86.160096,62.472564 85.89402,60.483024 85.709301,57.988636 85.575843,55.482513 85.070367,53.025555 84.470715,50.28285 83.724283,47.561002 82.4584,45.039703 81.394389,43.059056 80.166931,41.183467 78.667649,39.499341 77.732751,38.463389 76.769583,37.452913 75.784804,36.46443 75.595283,36.274369 75.377529,36.085131 75.20982,35.873732 c -0.260784,-0.328724 -0.500896,-0.796298 -0.145577,0.05554 -0.214225,0.746755 -0.152154,1.63784 -0.642681,2.24027 -0.394054,0.483954 -1.16877,0.439547 -1.741402,0.687707 -0.05172,0.02241 0.112638,-0.0049 0.168989,-0.0063 0.302461,-0.0072 0.604869,-7.94e-4 0.907304,0.0047 0.800939,0.02215 1.601959,0.06625 2.396212,0.177006 1.403496,0.187812 2.828174,0.328983 4.24388,0.220293 1.453224,-0.129432 2.896803,-0.324745 4.329837,-0.601031 1.972209,-0.432056 3.900728,-1.038476 5.881534,-1.43696 3.02324,-0.632605 5.979829,-1.517594 8.809405,-2.770851 0.457346,-0.211413 0.925609,-0.400648 1.372039,-0.634236 1.8387,-0.962077 3.43955,-2.367179 4.81259,-3.906075 0.25404,-0.351586 0.52686,-0.690332 0.7621,-1.054761 1.03733,-1.607013 1.65882,-3.434438 2.00071,-5.306187 0.35272,-1.865348 0.53219,-3.734906 0.33394,-5.632101 0,-3.50186 -4.95237,-3.50186 -4.95237,0 z" />
    <path
       style="fill:#1a1a1a;stroke-width:0.763;stroke-linecap:round;stroke-linejoin:round"
       id="path16"
       d="m 130.37986,17.173993 c -1.84432,0.439833 -3.14355,1.791868 -4.394,3.122122 -1.5506,1.605718 -2.65102,3.495435 -3.48642,5.548824 -0.83407,2.794807 0.19975,5.384289 1.64944,7.752977 0.27317,0.321148 0.50898,0.678254 0.8195,0.963446 1.99306,1.830511 5.10163,2.781667 7.63172,3.580738 2.57145,0.70608 5.29338,0.732584 7.83654,-0.129627 0.47718,-0.161782 0.931,-0.385707 1.3965,-0.578562 2.14293,-0.996339 3.98893,-2.479223 5.12435,-4.586676 0.2269,-0.421148 0.3867,-0.875134 0.58005,-1.312699 0.60897,-1.80934 0.89462,-3.729889 0.40807,-5.607037 -0.097,-0.374231 -0.24471,-0.733449 -0.36706,-1.100173 -0.63097,-1.36519 -1.41026,-2.711632 -2.41397,-3.843244 -0.75091,-0.846593 -1.03446,-1.020316 -1.89365,-1.71671 -1.91285,-1.488296 -4.21108,-2.166264 -6.55289,-2.612104 -2.04174,-0.390899 -4.10696,-0.277017 -6.16611,-0.155232 -3.42121,0.208214 -3.12675,5.046536 0.29446,4.838321 v 0 c 1.66809,-0.104545 3.33933,-0.199652 4.99783,0.08506 1.5638,0.271506 3.1206,0.667967 4.41367,1.636229 0.3197,0.24577 0.79413,0.584752 1.07329,0.891972 0.67443,0.742231 1.21233,1.623947 1.65872,2.5165 0.44736,1.060503 0.41676,2.125419 0.0781,3.224508 -0.57769,1.652601 -1.58938,2.573245 -3.15783,3.326951 -1.87091,0.889553 -3.88766,1.122219 -5.90526,0.583094 -1.94876,-0.588508 -4.19543,-1.265656 -5.76197,-2.61782 -0.67072,-0.978587 -1.33304,-2.120778 -1.22855,-3.348709 0.57026,-1.494203 1.3658,-2.841175 2.48815,-3.995999 0.54722,-0.567478 1.13385,-1.366422 1.91125,-1.609644 3.43407,-0.731069 2.40018,-5.587573 -1.03389,-4.856503 z" />
    <path
       style="fill:#1a1a1a;stroke-width:0.763;stroke-linecap:round;stroke-linejoin:round"
       id="path17"
       d="m 160.24513,16.475823 c -1.47838,0.955937 -2.66116,2.266364 -3.75947,3.625239 -1.55925,1.852751 -2.58597,4.031035 -3.4032,6.28909 -0.81067,2.270856 -1.08206,4.665597 -1.2109,7.057795 -0.0693,2.465785 -0.11685,4.9364 -0.003,7.401094 0.15573,2.770003 0.50813,5.522117 0.89523,8.267454 0.32979,2.698544 0.56051,5.409388 0.78841,8.118457 0.17853,2.120124 0.0378,4.251248 -0.0469,6.372944 -0.15595,1.990328 -0.42788,3.967284 -0.92497,5.901524 -0.46021,1.629492 -1.2438,3.140646 -1.95786,4.668766 -0.61165,1.219454 -1.26465,2.420527 -1.98949,3.576727 -0.54947,0.757857 -1.34019,1.245145 -2.13619,1.708981 -0.72782,0.529701 -1.5796,0.693004 -2.42967,0.903724 -1.2444,0.406349 -2.50227,0.761579 -3.76354,1.111692 -0.21098,0.06674 -0.42197,0.133479 -0.63295,0.20022 -3.30149,1.073246 -1.78369,5.742258 1.5178,4.66901 v 0 c 0.15168,-0.05115 0.30337,-0.102309 0.45505,-0.153466 1.19929,-0.348271 2.40306,-0.678043 3.59558,-1.049311 1.32595,-0.321451 2.63464,-0.708631 3.77787,-1.486184 1.45471,-0.891254 2.85647,-1.867606 3.79262,-3.332117 0.80507,-1.325092 1.52862,-2.699843 2.21428,-4.090016 0.84754,-1.809261 1.74842,-3.608142 2.23874,-5.556507 0.5548,-2.26595 0.92112,-4.578337 1.08126,-6.906615 0.0669,-2.318731 0.2122,-4.646961 7.9e-4,-6.961782 -0.25605,-2.783938 -0.54376,-5.565778 -0.8635,-8.342948 -0.34698,-2.604008 -0.65812,-5.214829 -0.81507,-7.838159 -0.10217,-2.303063 -0.0481,-4.610566 0.0253,-6.914028 0.11181,-1.917912 0.27998,-3.846534 0.92407,-5.672389 0.64606,-1.750781 1.38886,-3.474951 2.63122,-4.897545 0.45126,-0.555342 0.91308,-1.117137 1.45451,-1.589917 0.26107,-0.227978 0.5625,-0.408549 0.81375,-0.647318 0.014,-0.01335 -0.0377,0.0092 -0.0565,0.0138 3.14536,-1.564994 0.93213,-6.013206 -2.21323,-4.448212 z" />
    <path
       style="fill:#1a1a1a;stroke-width:0.763;stroke-linecap:round;stroke-linejoin:round"
       id="path18"
       d="m 178.55722,14.96056 c -0.7073,1.270047 -1.56087,2.449984 -2.38248,3.647003 -0.88566,1.336599 -1.48233,2.803075 -1.89353,4.34526 -0.44018,1.518588 -0.6728,3.069541 -0.69844,4.647613 -0.002,1.703914 0.38079,3.350345 0.87412,4.968409 0.3793,1.168797 0.92633,2.267728 1.42745,3.386151 0.42197,1.061612 0.94441,2.082162 1.58275,3.028614 0.78958,1.046543 1.85807,1.818457 2.90485,2.586302 0.38268,0.281321 0.53712,0.58239 0.73913,0.87549 0.0433,0.06078 0.38908,0.867918 0.20174,0.479804 -0.0626,0.659672 -0.0344,1.330552 -0.13941,1.9862 -0.0123,-0.01003 -0.0243,-0.03961 -0.037,-0.03005 -0.22653,0.170606 -0.65628,0.88881 -0.81708,1.077622 -0.26283,0.30862 -0.76394,0.805428 -1.03942,1.084858 -1.11684,1.11158 -2.51668,1.836639 -3.89901,2.557152 -1.31906,0.711867 -2.71136,1.270696 -4.05614,1.928437 -1.02214,0.453313 -1.94404,1.098106 -2.58157,2.035096 -0.18188,0.267308 -0.31498,0.564724 -0.47248,0.847087 -0.65771,1.531504 -0.75723,3.202062 -0.81606,4.845354 -0.0124,1.276869 -0.074,2.554584 0.0237,3.828585 0.0999,1.302758 0.37195,2.581283 0.52768,3.876902 0.1007,1.546606 0.28224,3.085994 0.41276,4.630161 0.0675,1.14105 0.11336,2.277279 0.25482,3.41213 0.21961,1.468519 0.54242,2.892779 1.10469,4.267708 0.67727,1.461116 1.53686,2.785335 2.90242,3.69616 0.44376,0.295987 0.92952,0.523558 1.39428,0.785336 2.4721,1.145474 5.11916,1.787047 7.80494,2.166824 1.39969,0.202742 2.82193,0.120801 4.20621,-0.142076 1.06138,-0.369517 2.12585,-0.717283 3.20132,-1.044384 1.56555,-0.355722 2.32666,-1.457301 2.89224,-2.846711 0.4626,-1.347832 0.4723,-2.740869 0.22999,-4.128301 -0.37006,-1.586037 -1.37972,-2.700303 -2.67029,-3.615468 -0.93532,-0.581409 -1.97511,-0.934617 -3.03234,-1.215943 -3.37871,-0.856403 -4.58985,3.921826 -1.21113,4.778232 v 0 c 0.51258,0.118195 1.00773,0.277302 1.4799,0.512866 0.24177,0.136737 0.47736,0.270399 0.60286,0.515265 0.15208,0.440656 0.0842,0.904703 -0.001,1.352624 -0.1391,0.415444 -0.24306,0.310058 0.13272,0.05057 0.41564,-0.28701 0.77369,-0.315571 0.0732,-0.09911 -0.90455,0.310255 -1.83107,0.558016 -2.72045,0.913733 -0.81484,0.238739 -1.72929,0.207711 -2.56361,0.153469 -2.08878,-0.236128 -4.16095,-0.672613 -6.08342,-1.550845 -1.08587,-0.593455 -1.62213,-1.03682 -2.13189,-2.184924 -0.42252,-0.930672 -0.53859,-1.954133 -0.73668,-2.949249 -0.12469,-1.089298 -0.1561,-2.183048 -0.26242,-3.274703 -0.15582,-1.57938 -0.34077,-3.155 -0.42399,-4.740434 -0.1377,-1.246296 -0.39392,-2.473349 -0.4845,-3.724688 -0.10258,-1.077176 -0.0248,-2.167471 -0.0315,-3.247535 0.0338,-0.931529 0.0635,-1.874507 0.30027,-2.78134 0.069,-0.436221 0.5548,-0.547812 0.91115,-0.745328 1.32969,-0.722257 2.75308,-1.265912 4.0768,-2.002592 1.82544,-0.959281 3.64522,-1.964637 5.10695,-3.448857 1.39892,-1.419251 2.86458,-2.916581 3.32689,-4.91908 0.1203,-1.050481 0.17638,-2.114124 0.16096,-3.171047 -0.17301,-1.006295 -0.48851,-1.937666 -1.07088,-2.785457 -0.56902,-0.741579 -1.11387,-1.485969 -1.91433,-2.008566 -0.6258,-0.435385 -1.26096,-0.873066 -1.76159,-1.454163 -0.54411,-0.584716 -0.74715,-1.479547 -1.11653,-2.169049 -0.42103,-0.939942 -0.86974,-1.866833 -1.23305,-2.831054 -0.36049,-1.136232 -0.67328,-2.288781 -0.65954,-3.49318 -0.0221,-1.16898 0.24499,-2.3172 0.54476,-3.441089 0.24957,-1.008757 0.66135,-1.951816 1.2051,-2.838438 0.84514,-1.268512 1.70437,-2.527037 2.56086,-3.788001 1.83519,-2.98813 -2.39067,-5.583484 -4.22586,-2.595354 z" />
    <path
       style="fill:#1a1a1a;stroke-width:0.763;stroke-linecap:round;stroke-linejoin:round"
       id="path19"
       d="m 33.881255,35.91684 c -1.098483,-1.423815 -2.588852,-2.504834 -4.011353,-3.587419 -1.39373,-0.986438 -2.866064,-1.849189 -4.236565,-2.868909 -0.9653,-0.771112 -1.992798,-1.476451 -2.75018,-2.464678 -0.894044,-1.136627 -1.411045,-2.478452 -1.765385,-3.865216 -0.08042,-0.570803 -0.298532,-1.16124 -0.222098,-1.747462 0.03547,-0.272067 0.27078,-0.637208 0.387355,-0.875994 0.363643,-0.653524 0.919964,-1.739472 1.560618,-2.157865 0.398294,-0.309925 0.779431,-0.654896 1.287152,-0.750183 3.347519,-0.996895 1.937695,-5.731 -1.409823,-4.734105 v 0 c -1.203208,0.387336 -2.266283,1.004005 -3.204454,1.857532 -1.127292,1.101505 -2.047829,2.380012 -2.710811,3.816264 -0.301684,0.719315 -0.510994,1.119474 -0.662299,1.901387 -0.258328,1.334976 -0.04553,2.648531 0.282992,3.94927 0.560565,2.023154 1.344613,3.983944 2.629486,5.66676 1.0538,1.291251 2.331411,2.307595 3.672468,3.290236 1.358732,1.019641 2.791667,1.920312 4.20264,2.863776 0.964806,0.72635 2.018279,1.446316 2.775318,2.389968 1.897422,2.952128 6.072362,0.268767 4.174939,-2.683362 z" />
    <path
       style="fill:#1a1a1a;stroke-width:0.763;stroke-linecap:round;stroke-linejoin:round"
       id="path20"
       d="m 99.730284,31.511938 c -1.270328,-0.275701 -2.561839,-0.430437 -3.841541,-0.65283 -1.008526,-0.212363 -1.905971,-0.721773 -2.738938,-1.312003 -0.743468,-0.498671 -1.241753,-1.199324 -1.734198,-1.925105 -0.57509,-0.878658 -1.189001,-1.722207 -1.41214,-2.759516 -0.102327,-0.609935 -0.176543,-1.238851 -0.07286,-1.855526 0.03562,-0.211843 0.150624,-0.402366 0.227055,-0.603125 0.450455,-1.067735 1.227574,-1.973945 1.95667,-2.864848 0.76717,-0.890774 1.581065,-1.73879 2.36148,-2.617876 2.266995,-2.575082 -1.374719,-5.781099 -3.641717,-3.206016 v 0 c -0.808161,0.927301 -1.685343,1.789077 -2.48803,2.721555 -1.104217,1.334972 -2.193616,2.728646 -2.811915,4.364618 -0.613042,1.844946 -0.693409,3.336909 -0.283819,5.24108 0.212905,0.811375 0.222137,0.983076 0.571723,1.757046 0.407508,0.902211 1.033642,1.687753 1.523259,2.542903 0.835459,1.265975 1.788303,2.424908 3.068915,3.269525 1.433319,0.935998 2.935499,1.769909 4.647255,2.058857 1.175256,0.200277 2.366376,0.324964 3.510997,0.674609 3.4177,0.818686 4.5755,-4.014661 1.157799,-4.833348 z" />
    <path
       style="fill:#1a1a1a;stroke-width:0.763;stroke-linecap:round;stroke-linejoin:round"
       id="path21"
       d="m 47.936046,24.606403 c -0.65745,1.06914 -1.116589,2.220923 -1.441114,3.429535 -0.429882,1.765128 -0.289189,2.779003 0.627486,4.358687 1.212416,1.884849 3.122274,2.039086 5.164511,2.069238 1.680442,-0.123685 3.433048,-0.369115 5.006329,-1.014199 0.352645,-0.144592 0.685556,-0.333279 1.028332,-0.499917 1.285425,-0.799462 2.715403,-1.836483 3.169843,-3.374966 0.113483,-0.384186 0.12441,-0.791475 0.186614,-1.187215 -0.05069,-1.568995 -0.698977,-2.925458 -1.568072,-4.192708 -1.047432,-1.229831 -2.528559,-1.903717 -4.058727,-2.308063 -1.704464,-0.292673 -3.321042,0.07151 -4.827161,0.864739 -0.851194,0.452711 -1.580685,1.055357 -2.266736,1.726133 -2.503913,2.43186 0.935257,5.972929 3.439171,3.541067 v 0 c 0.403791,-0.388466 0.796996,-0.74877 1.304282,-1.005004 0.16197,-0.321349 0.858893,-0.267237 1.163957,-0.356047 0.304948,0.06196 0.544119,0.136128 0.825019,0.279884 0.126627,0.0648 0.238561,0.162105 0.374068,0.20537 0.03086,0.0098 -0.01667,-0.06261 -0.025,-0.09391 0.02302,0.0109 0.04605,0.02178 0.06907,0.03268 0.184515,0.21101 0.408102,0.51403 0.509781,0.783844 0.03825,0.101497 0.03462,0.219115 0.08891,0.31301 0.01487,0.02569 0.03278,-0.04948 0.04917,-0.07422 0.14537,-0.329811 0.196757,-0.483942 0.258974,-0.418688 0.115253,0.120878 -0.825492,0.906526 -0.92729,0.933136 -1.116769,0.662225 -2.47269,0.834339 -3.744302,0.972849 -0.214129,-0.0013 -0.428275,-0.0013 -0.642389,-0.0043 -0.224145,-0.0032 -0.519716,-0.02209 -0.516427,-7.93e-4 0.0011,0.0069 0.495988,0.530748 0.223223,0.308543 -0.06669,-0.05433 -0.103687,-0.137271 -0.155532,-0.205906 7.93e-4,0.03545 -0.08613,0.275828 -0.08445,0.19101 0.0026,-0.132249 0.07205,-0.495903 0.09393,-0.620233 0.166137,-0.708761 0.424048,-1.367944 0.845333,-1.968659 1.898539,-2.949212 -2.272273,-5.634152 -4.170815,-2.684941 z" />
    <path
       style="fill:#1a1a1a;stroke-width:0.763;stroke-linecap:round;stroke-linejoin:round"
       id="path22"
       d="m 55.890649,40.568551 c -1.304362,-0.0088 -2.41581,0.337524 -3.530804,0.996585 -1.216525,0.845119 -1.803201,2.154955 -2.30795,3.492548 -0.502666,1.368232 -0.593344,2.779223 -0.392504,4.210232 0.613326,2.305452 1.529337,3.081505 3.696219,3.992102 1.053912,0.390644 2.135896,0.773036 3.271522,0.819494 0.889048,0.03637 1.201034,-0.05428 2.070299,-0.188145 1.915887,-0.424892 3.343153,-1.178623 4.735536,-2.546286 1.222775,-1.387835 1.667592,-3.201893 2.080935,-4.957842 0.406421,-1.611545 0.234846,-3.178702 -0.921055,-4.452845 -0.214828,-0.236802 -0.485171,-0.416552 -0.727757,-0.624827 -1.601097,-1.074256 -3.493908,-1.555866 -5.346877,-1.996374 -1.877468,-0.477279 -3.626078,-0.343558 -5.477987,0.143151 -0.249817,0.08721 -0.499636,0.174426 -0.749453,0.261638 -3.257439,1.194864 -1.567646,5.80158 1.689793,4.606716 v 0 c 0.118745,-0.04798 0.23749,-0.09596 0.356235,-0.143939 1.07854,-0.315552 1.978147,-0.413041 3.097342,-0.119313 1.169575,0.253306 2.34342,0.544912 3.399854,1.127241 0.03431,-0.02109 -0.06259,-0.588108 -0.06157,-0.612714 7.94e-4,-0.01598 0.04343,-0.02519 0.04702,-0.0096 0.01807,0.07867 0.015,0.161824 0.0064,0.242091 -0.01786,0.166965 -0.05698,0.330973 -0.08546,0.496456 -0.191288,0.888931 -0.369876,1.853385 -0.844385,2.634319 -0.474798,0.627047 -1.273556,0.913961 -2.000012,1.136668 -0.978638,0.189908 -1.706687,0.08186 -2.640224,-0.321386 -0.161452,-0.06849 -0.320091,-0.144034 -0.484352,-0.205478 -0.04288,-0.01603 -0.130101,-0.07166 -0.134829,-0.02614 -0.0087,0.08364 0.09676,0.142687 0.114189,0.224954 0.05249,0.247824 -0.369763,-0.492586 -0.24384,-0.322369 -0.206343,-0.517932 0.04408,-1.141124 0.159567,-1.655582 0.132483,-0.367165 0.268603,-0.730239 0.424135,-1.084681 -0.364961,0.0186 0.734889,-0.265316 0.80001,-0.149161 3.512577,0 3.512577,-4.967534 0,-4.967534 z" />
    <path
       style="fill:#1a1a1a;stroke-width:0.763;stroke-linecap:round;stroke-linejoin:round"
       id="path23"
       d="m 55.508786,60.183273 c -1.283787,0.490857 -2.439887,1.215509 -3.42369,2.168847 -0.79072,1.087927 -1.376404,2.488719 -1.130958,3.871003 0.06807,0.383346 0.236206,0.741997 0.354308,1.112996 0.808019,1.463262 1.856637,2.496338 3.278873,3.350744 1.741043,1.035135 3.438671,0.912146 5.319059,0.39838 1.526368,-0.41851 2.926149,-1.114319 4.194569,-2.051523 0.860595,-0.77588 1.824019,-1.625661 2.196158,-2.768722 0.109257,-0.3356 0.142807,-0.691277 0.21421,-1.036915 -0.03555,-0.36367 -5.29e-4,-0.741318 -0.106649,-1.091012 -0.443013,-1.461699 -1.651399,-2.300319 -2.909919,-2.992702 -1.32547,-0.685803 -2.808539,-0.896041 -4.250706,-1.200997 -1.679024,-0.455461 -3.144427,-0.227348 -4.724185,0.435057 -3.162956,1.451481 -1.110255,5.924577 2.052701,4.473099 v 0 c 0.60239,-0.415171 0.93667,-0.241528 1.682292,-0.107447 0.996558,0.199784 2.035741,0.319585 2.959894,0.763412 1.008956,0.407371 0.249642,0.5353 0.379108,-0.796988 0.05976,-0.144457 0.214744,-0.567637 0.224769,-0.411626 0.01474,0.22932 -0.601443,0.683364 -0.730144,0.853118 -0.710518,0.634571 -1.640563,0.940083 -2.530899,1.230309 -0.619993,0.197348 -0.874823,0.387131 -1.458748,0.07504 -0.354579,-0.206352 -0.636439,-0.356664 -0.913487,-0.676106 -0.09798,-0.112974 -0.170551,-0.24787 -0.276971,-0.352933 -0.01344,-0.01328 -0.02838,0.02498 -0.04256,0.03748 5.6e-5,0.10218 0.01947,0.393293 -0.0563,0.487979 -0.01241,0.01551 0.03625,-0.268623 0.02803,-0.303278 -0.01603,-0.06749 -0.429194,0.262495 -0.178255,0.10736 0.02934,-0.28342 1.149678,-0.77343 1.421873,-0.875732 3.322585,-1.111829 1.750222,-5.810673 -1.572363,-4.698843 z" />
    <path
       style="fill:#1a1a1a;stroke-width:0.763;stroke-linecap:round;stroke-linejoin:round"
       id="path24"
       d="m 99.173449,50.504923 c 2.412231,-0.565563 4.867061,-0.818613 7.333951,-0.989587 2.54616,-0.152471 5.09671,-0.185105 7.64668,-0.179988 0.29719,0.0026 0.59438,0.0052 0.89156,0.0078 3.4348,-0.01392 3.41513,-4.87145 -0.0197,-4.857538 v 0 c -0.30308,0.005 -0.60616,0.01005 -0.90923,0.01508 -2.6486,0.04564 -5.29891,0.0898 -7.9419,0.281411 -2.52983,0.180025 -5.05511,0.387459 -7.557384,0.810742 -3.473365,0.393147 -2.917372,5.305226 0.555993,4.912079 z" />
    <path
       style="fill:#1a1a1a;stroke-width:0.763;stroke-linecap:round;stroke-linejoin:round"
       id="path25"
       d="m 18.251678,62.420534 c -0.538366,0.739671 -1.071976,1.4831 -1.637219,2.2026 -0.888079,1.177592 -1.518804,2.514111 -2.133453,3.846746 -0.726077,1.619853 -0.967318,3.365907 -1.003397,5.124158 0.07408,2.209957 1.316344,3.741939 2.850437,5.187953 1.810482,1.413142 3.354765,1.540552 5.542187,1.134245 1.513508,-0.319175 2.598739,-0.871627 3.731135,-1.925479 0.70978,-0.614733 1.247368,-1.362715 1.651681,-2.204595 0.429786,-0.927315 0.574024,-1.911565 0.579062,-2.922411 -0.05472,-1.016301 -0.228481,-2.011592 -0.458,-3.001242 -0.253224,-0.992675 -0.636852,-1.946003 -1.086035,-2.864734 -0.249748,-0.626205 -0.575946,-1.212638 -0.919958,-1.791446 -0.423736,-0.70735 -0.89492,-1.384292 -1.356897,-2.066753 -2.010416,-2.850018 -6.040951,-0.0069 -4.030536,2.843157 v 0 c 0.408658,0.558419 0.814812,1.120978 1.151439,1.727004 0.283582,0.484547 0.524074,0.9876 0.756562,1.498028 0.29915,0.564402 0.555511,1.156566 0.721341,1.774243 0.160385,0.67178 0.271045,1.341798 0.294629,2.034419 0.0789,-0.106421 -0.05225,0.483325 -0.06719,0.534543 -0.01219,0.04181 -0.02777,0.08256 -0.04165,0.123838 -0.136382,0.302456 -0.341163,0.570005 -0.614411,0.795639 -0.08092,0.09168 -0.17378,0.247523 -0.284252,0.310404 -0.317902,0.180951 -0.683684,0.26344 -1.028603,0.37265 -0.156273,0.04437 -0.718585,0.199001 -0.876105,0.182766 -0.128425,-0.01323 -0.300584,-0.107858 -0.411129,-0.160317 -0.440347,-0.363114 -0.735388,-0.732094 -1.100695,-1.159774 -0.02634,-0.03084 -0.07229,-0.04715 -0.08721,-0.08487 -0.0364,-0.09204 -0.04085,-0.193688 -0.06127,-0.290534 -0.0074,-1.07673 0.106929,-2.14367 0.546699,-3.141027 0.457396,-0.990185 0.926641,-1.978695 1.568436,-2.866189 0.573873,-0.730779 1.12071,-1.483836 1.735708,-2.181188 2.143828,-2.779848 -1.787472,-5.811679 -3.931301,-3.031831 z" />
  </g>
</svg>
